<svg xmlns="http://www.w3.org/2000/svg" viewBox="0 0 2557.01 251.78"><defs><style>.cls-1{fill:#405b2e;}</style></defs><title>Asset 1574</title><g id="Layer_2" data-name="Layer 2"><g id="Flowers_Dots" data-name="Flowers Dots"><path class="cls-1" d="M696.36,143.51a3.75,3.75,0,1,0-3.75-3.75,3.79,3.79,0,0,0,3.75,3.75Z"/><path class="cls-1" d="M741,142a3.75,3.75,0,1,0-3.75-3.75A3.8,3.8,0,0,0,741,142Z"/><path class="cls-1" d="M729.06,159.86a3.75,3.75,0,1,0-3.75-3.75,3.79,3.79,0,0,0,3.75,3.75Z"/><path class="cls-1" d="M605.71,129.31a3.75,3.75,0,1,0-3.75-3.75,3.79,3.79,0,0,0,3.75,3.75Z"/><path class="cls-1" d="M650.29,127.83a3.75,3.75,0,1,0-3.75-3.75,3.79,3.79,0,0,0,3.75,3.75Z"/><path class="cls-1" d="M638.4,145.66a3.75,3.75,0,1,0-3.75-3.75,3.82,3.82,0,0,0,3.75,3.75Z"/><path class="cls-1" d="M518.87,125.1a3.75,3.75,0,1,0-3.75-3.75,3.8,3.8,0,0,0,3.75,3.75Z"/><path class="cls-1" d="M563.46,123.61a3.75,3.75,0,1,0-3.75-3.75,3.8,3.8,0,0,0,3.75,3.75Z"/><path class="cls-1" d="M551.57,141.44a3.75,3.75,0,1,0-3.75-3.75,3.79,3.79,0,0,0,3.75,3.75Z"/><path class="cls-1" d="M428.22,110.9a3.75,3.75,0,1,0-3.75-3.75,3.8,3.8,0,0,0,3.75,3.75Z"/><path class="cls-1" d="M472.81,109.41a3.75,3.75,0,1,0-3.75-3.75,3.8,3.8,0,0,0,3.75,3.75Z"/><path class="cls-1" d="M460.92,127.24a3.75,3.75,0,1,0-3.75-3.75,3.79,3.79,0,0,0,3.75,3.75Z"/><path class="cls-1" d="M359.94,137a3.75,3.75,0,1,0-3.75-3.75,3.8,3.8,0,0,0,3.75,3.75Z"/><path class="cls-1" d="M404.53,135.52a3.75,3.75,0,1,0-3.75-3.75,3.79,3.79,0,0,0,3.75,3.75Z"/><path class="cls-1" d="M392.64,153.36a3.75,3.75,0,1,0-3.75-3.75,3.8,3.8,0,0,0,3.75,3.75Z"/><path class="cls-1" d="M269.29,122.81a3.75,3.75,0,1,0-3.75-3.75,3.8,3.8,0,0,0,3.75,3.75Z"/><path class="cls-1" d="M313.88,121.32a3.75,3.75,0,1,0-3.75-3.75,3.79,3.79,0,0,0,3.75,3.75Z"/><path class="cls-1" d="M302,139.16a3.75,3.75,0,1,0-3.75-3.75,3.8,3.8,0,0,0,3.75,3.75Z"/><path class="cls-1" d="M182.46,118.59a3.75,3.75,0,1,0-3.75-3.75,3.79,3.79,0,0,0,3.75,3.75Z"/><path class="cls-1" d="M227,117.11a3.75,3.75,0,1,0-3.75-3.75,3.8,3.8,0,0,0,3.75,3.75Z"/><path class="cls-1" d="M215.15,134.94a3.75,3.75,0,1,0-3.75-3.75,3.79,3.79,0,0,0,3.75,3.75Z"/><path class="cls-1" d="M91.8,104.39a3.75,3.75,0,1,0-3.75-3.75,3.78,3.78,0,0,0,3.75,3.75Z"/><path class="cls-1" d="M136.39,102.91a3.75,3.75,0,1,0-3.75-3.75,3.8,3.8,0,0,0,3.75,3.75Z"/><path class="cls-1" d="M124.5,120.74a3.75,3.75,0,1,0-3.75-3.75,3.79,3.79,0,0,0,3.75,3.75Z"/><path class="cls-1" d="M1074.44,185.25a3.75,3.75,0,1,0-3.75-3.75,3.8,3.8,0,0,0,3.75,3.75Z"/><path class="cls-1" d="M1119,183.76a3.75,3.75,0,1,0-3.75-3.75,3.8,3.8,0,0,0,3.75,3.75Z"/><path class="cls-1" d="M1107.14,201.59a3.75,3.75,0,1,0-3.75-3.75,3.79,3.79,0,0,0,3.75,3.75Z"/><path class="cls-1" d="M991.39,171.05a3.75,3.75,0,1,0-3.75-3.75,3.8,3.8,0,0,0,3.75,3.75Z"/><path class="cls-1" d="M1028.37,169.56a3.75,3.75,0,1,0-3.75-3.75,3.82,3.82,0,0,0,3.75,3.75Z"/><path class="cls-1" d="M1016.48,187.4a3.75,3.75,0,1,0-3.75-3.75,3.82,3.82,0,0,0,3.75,3.75Z"/><path class="cls-1" d="M897,166.83a3.75,3.75,0,1,0-3.75-3.75,3.8,3.8,0,0,0,3.75,3.75Z"/><path class="cls-1" d="M941.54,165.34a3.75,3.75,0,1,0-3.75-3.75,3.79,3.79,0,0,0,3.75,3.75Z"/><path class="cls-1" d="M929.65,183.18a3.75,3.75,0,1,0-3.75-3.75,3.8,3.8,0,0,0,3.75,3.75Z"/><path class="cls-1" d="M806.3,152.63a3.75,3.75,0,1,0-3.75-3.75,3.79,3.79,0,0,0,3.75,3.75Z"/><path class="cls-1" d="M850.89,151.14a3.75,3.75,0,1,0-3.75-3.75,3.79,3.79,0,0,0,3.75,3.75Z"/><path class="cls-1" d="M839,169a3.75,3.75,0,1,0-3.75-3.75A3.8,3.8,0,0,0,839,169Z"/><path class="cls-1" d="M1395.92,208.7a3.75,3.75,0,1,0-3.75-3.75,3.8,3.8,0,0,0,3.75,3.75Z"/><path class="cls-1" d="M1440.5,207.21a3.75,3.75,0,1,0-3.75-3.75,3.79,3.79,0,0,0,3.75,3.75Z"/><path class="cls-1" d="M1428.61,225a3.75,3.75,0,1,0-3.75-3.75,3.82,3.82,0,0,0,3.75,3.75Z"/><path class="cls-1" d="M1305.27,194.5a3.75,3.75,0,1,0-3.75-3.75,3.8,3.8,0,0,0,3.75,3.75Z"/><path class="cls-1" d="M1349.85,193a3.75,3.75,0,1,0-3.75-3.75,3.8,3.8,0,0,0,3.75,3.75Z"/><path class="cls-1" d="M1338,210.84a3.75,3.75,0,1,0-3.75-3.75,3.79,3.79,0,0,0,3.75,3.75Z"/><path class="cls-1" d="M1218.43,190.28a3.75,3.75,0,1,0-3.75-3.75,3.8,3.8,0,0,0,3.75,3.75Z"/><path class="cls-1" d="M1263,188.79a3.75,3.75,0,1,0-3.75-3.75,3.79,3.79,0,0,0,3.75,3.75Z"/><path class="cls-1" d="M1251.13,206.63a3.75,3.75,0,1,0-3.75-3.75,3.8,3.8,0,0,0,3.75,3.75Z"/><path class="cls-1" d="M1127.78,176.08a3.75,3.75,0,1,0-3.75-3.75,3.8,3.8,0,0,0,3.75,3.75Z"/><path class="cls-1" d="M1172.36,174.59a3.75,3.75,0,1,0-3.75-3.75,3.82,3.82,0,0,0,3.75,3.75Z"/><path class="cls-1" d="M1160.47,192.43a3.75,3.75,0,1,0-3.75-3.75,3.82,3.82,0,0,0,3.75,3.75Z"/><path class="cls-1" d="M1461.59,193.21a3.75,3.75,0,1,0-3.75-3.75,3.8,3.8,0,0,0,3.75,3.75Z"/><path class="cls-1" d="M1417.29,188a3.75,3.75,0,1,0-3.75-3.75,3.8,3.8,0,0,0,3.75,3.75Z"/><path class="cls-1" d="M1427.65,206.77a3.75,3.75,0,1,0-3.75-3.75,3.79,3.79,0,0,0,3.75,3.75Z"/><path class="cls-1" d="M1553.11,186.63a3.75,3.75,0,1,0-3.75-3.75,3.79,3.79,0,0,0,3.75,3.75Z"/><path class="cls-1" d="M1508.81,181.42a3.75,3.75,0,1,0-3.75-3.75,3.79,3.79,0,0,0,3.75,3.75Z"/><path class="cls-1" d="M1519.17,200.19a3.75,3.75,0,1,0-3.75-3.75,3.8,3.8,0,0,0,3.75,3.75Z"/><path class="cls-1" d="M1640,189.67a3.75,3.75,0,1,0-3.75-3.75,3.79,3.79,0,0,0,3.75,3.75Z"/><path class="cls-1" d="M1595.69,184.47a3.75,3.75,0,1,0-3.75-3.75,3.79,3.79,0,0,0,3.75,3.75Z"/><path class="cls-1" d="M1606.05,203.24a3.75,3.75,0,1,0-3.75-3.75,3.8,3.8,0,0,0,3.75,3.75Z"/><path class="cls-1" d="M1731.52,183.09a3.75,3.75,0,1,0-3.75-3.75,3.79,3.79,0,0,0,3.75,3.75Z"/><path class="cls-1" d="M1692.29,187.57a3.75,3.75,0,1,0-3.75-3.75,3.8,3.8,0,0,0,3.75,3.75Z"/><path class="cls-1" d="M1697.57,196.65a3.75,3.75,0,1,0-3.75-3.75,3.79,3.79,0,0,0,3.75,3.75Z"/><path class="cls-1" d="M1810.82,179.41a3.75,3.75,0,1,0-3.75-3.75,3.8,3.8,0,0,0,3.75,3.75Z"/><path class="cls-1" d="M1769.67,181.61a3.75,3.75,0,1,0-3.75-3.75,3.79,3.79,0,0,0,3.75,3.75Z"/><path class="cls-1" d="M1776.05,190.69a3.75,3.75,0,1,0-3.75-3.75,3.79,3.79,0,0,0,3.75,3.75Z"/><path class="cls-1" d="M1902.58,178.89a3.75,3.75,0,1,0-3.75-3.75,3.8,3.8,0,0,0,3.75,3.75Z"/><path class="cls-1" d="M1858.71,170.77A3.75,3.75,0,1,0,1855,167a3.8,3.8,0,0,0,3.75,3.75Z"/><path class="cls-1" d="M1867.81,190.18a3.75,3.75,0,1,0-3.75-3.75,3.8,3.8,0,0,0,3.75,3.75Z"/><path class="cls-1" d="M1989.07,187.67a3.75,3.75,0,1,0-3.75-3.75,3.79,3.79,0,0,0,3.75,3.75Z"/><path class="cls-1" d="M1945.2,179.55a3.75,3.75,0,1,0-3.75-3.75,3.82,3.82,0,0,0,3.75,3.75Z"/><path class="cls-1" d="M1954.3,199a3.75,3.75,0,1,0-3.75-3.75,3.79,3.79,0,0,0,3.75,3.75Z"/><path class="cls-1" d="M2080.83,187.16a3.75,3.75,0,1,0-3.75-3.75,3.8,3.8,0,0,0,3.75,3.75Z"/><path class="cls-1" d="M2037,179a3.75,3.75,0,1,0-3.75-3.75A3.8,3.8,0,0,0,2037,179Z"/><path class="cls-1" d="M2046.06,198.44a3.75,3.75,0,1,0-3.75-3.75,3.79,3.79,0,0,0,3.75,3.75Z"/><path class="cls-1" d="M2149.26,198.27a3.75,3.75,0,1,0-3.75-3.75,3.82,3.82,0,0,0,3.75,3.75Z"/><path class="cls-1" d="M2105,193.07a3.75,3.75,0,1,0-3.75-3.75,3.79,3.79,0,0,0,3.75,3.75Z"/><path class="cls-1" d="M2115.32,211.84a3.75,3.75,0,1,0-3.75-3.75,3.8,3.8,0,0,0,3.75,3.75Z"/><path class="cls-1" d="M2232.28,189.25a3.75,3.75,0,1,0-3.75-3.75,3.8,3.8,0,0,0,3.75,3.75Z"/><path class="cls-1" d="M2196.48,186.49a3.75,3.75,0,1,0-3.75-3.75,3.8,3.8,0,0,0,3.75,3.75Z"/><path class="cls-1" d="M2206.84,205.25a3.75,3.75,0,1,0-3.75-3.75,3.79,3.79,0,0,0,3.75,3.75Z"/><path class="cls-1" d="M2327.67,194.74a3.75,3.75,0,1,0-3.75-3.75,3.8,3.8,0,0,0,3.75,3.75Z"/><path class="cls-1" d="M2283.36,189.53a3.75,3.75,0,1,0-3.75-3.75,3.79,3.79,0,0,0,3.75,3.75Z"/><path class="cls-1" d="M2293.72,208.3a3.75,3.75,0,1,0-3.75-3.75,3.8,3.8,0,0,0,3.75,3.75Z"/><path class="cls-1" d="M2419.19,188.15a3.75,3.75,0,1,0-3.75-3.75,3.79,3.79,0,0,0,3.75,3.75Z"/><path class="cls-1" d="M2374.88,183a3.75,3.75,0,1,0-3.75-3.75,3.78,3.78,0,0,0,3.75,3.75Z"/><path class="cls-1" d="M2385.24,201.72a3.75,3.75,0,1,0-3.75-3.75,3.8,3.8,0,0,0,3.75,3.75Z"/><path class="cls-1" d="M2355.41,219.41a3.75,3.75,0,1,0-3.75-3.75,3.8,3.8,0,0,0,3.75,3.75Z"/><path class="cls-1" d="M2311.1,214.2a3.75,3.75,0,1,0-3.75-3.75,3.79,3.79,0,0,0,3.75,3.75Z"/><path class="cls-1" d="M2321.46,233a3.75,3.75,0,1,0-3.75-3.75,3.8,3.8,0,0,0,3.75,3.75Z"/><path class="cls-1" d="M2446.93,212.82a3.75,3.75,0,1,0-3.75-3.75,3.79,3.79,0,0,0,3.75,3.75Z"/><path class="cls-1" d="M2402.62,207.62a3.75,3.75,0,1,0-3.75-3.75,3.78,3.78,0,0,0,3.75,3.75Z"/><path class="cls-1" d="M2413,226.39a3.75,3.75,0,1,0-3.75-3.75,3.8,3.8,0,0,0,3.75,3.75Z"/><path class="cls-1" d="M2533.82,215.87a3.75,3.75,0,1,0-3.75-3.75,3.8,3.8,0,0,0,3.75,3.75Z"/><path class="cls-1" d="M2489.51,210.67a3.75,3.75,0,1,0-3.75-3.75,3.8,3.8,0,0,0,3.75,3.75Z"/><path class="cls-1" d="M2499.87,229.43a3.75,3.75,0,1,0-3.75-3.75,3.79,3.79,0,0,0,3.75,3.75Z"/><path class="cls-1" d="M2462.2,238.22a3.75,3.75,0,1,0-3.75-3.75,3.82,3.82,0,0,0,3.75,3.75Z"/><path class="cls-1" d="M2425.17,232.81a3.75,3.75,0,1,0-3.75-3.75,3.8,3.8,0,0,0,3.75,3.75Z"/><path class="cls-1" d="M2428.26,251.78a3.75,3.75,0,1,0-3.75-3.75,3.8,3.8,0,0,0,3.75,3.75Z"/><path class="cls-1" d="M120.23,79.75c3.62,0,3.63-5.62,0-5.62s-3.62,5.62,0,5.62Z"/><path class="cls-1" d="M87.62,72.27c3.62,0,3.63-5.63,0-5.63s-3.62,5.63,0,5.63Z"/><path class="cls-1" d="M93.82,87.1c3.62,0,3.63-5.62,0-5.62s-3.63,5.62,0,5.62Z"/><path class="cls-1" d="M189,82.3c3.62,0,3.62-5.63,0-5.63s-3.63,5.63,0,5.63Z"/><path class="cls-1" d="M156.4,74.81c3.61,0,3.62-5.62,0-5.62s-3.63,5.62,0,5.62Z"/><path class="cls-1" d="M162.59,89.65c3.62,0,3.63-5.63,0-5.63s-3.62,5.63,0,5.63Z"/><path class="cls-1" d="M253.54,91.64c3.62,0,3.62-5.62,0-5.62s-3.63,5.62,0,5.62Z"/><path class="cls-1" d="M220.93,84.16c3.62,0,3.62-5.63,0-5.63s-3.63,5.63,0,5.63Z"/><path class="cls-1" d="M227.12,99c3.62,0,3.63-5.62,0-5.62s-3.62,5.62,0,5.62Z"/><path class="cls-1" d="M322.31,94.19c3.62,0,3.62-5.63,0-5.63s-3.63,5.63,0,5.63Z"/><path class="cls-1" d="M289.7,86.7c3.62,0,3.62-5.63,0-5.63s-3.63,5.63,0,5.63Z"/><path class="cls-1" d="M295.89,101.53c3.62,0,3.63-5.62,0-5.62s-3.62,5.62,0,5.62Z"/><path class="cls-1" d="M398.44,95.72c3.62,0,3.63-5.63,0-5.63s-3.62,5.63,0,5.63Z"/><path class="cls-1" d="M365.83,88.23c3.62,0,3.63-5.63,0-5.63s-3.62,5.63,0,5.63Z"/><path class="cls-1" d="M372,103.06c3.62,0,3.63-5.62,0-5.62s-3.63,5.62,0,5.62Z"/><path class="cls-1" d="M467.22,98.26c3.61,0,3.62-5.63,0-5.63s-3.63,5.63,0,5.63Z"/><path class="cls-1" d="M434.6,90.77c3.62,0,3.63-5.62,0-5.62s-3.62,5.62,0,5.62Z"/><path class="cls-1" d="M440.8,105.61c3.62,0,3.63-5.63,0-5.63s-3.62,5.63,0,5.63Z"/><path class="cls-1" d="M531.75,107.6c3.62,0,3.62-5.62,0-5.62s-3.63,5.62,0,5.62Z"/><path class="cls-1" d="M499.14,100.12c3.61,0,3.62-5.63,0-5.63s-3.63,5.63,0,5.63Z"/><path class="cls-1" d="M505.33,115c3.62,0,3.63-5.62,0-5.62s-3.62,5.62,0,5.62Z"/><path class="cls-1" d="M600.52,110.15c3.62,0,3.62-5.63,0-5.63s-3.63,5.63,0,5.63Z"/><path class="cls-1" d="M567.91,102.66c3.62,0,3.62-5.62,0-5.62s-3.63,5.62,0,5.62Z"/><path class="cls-1" d="M574.1,117.49c3.62,0,3.63-5.62,0-5.62s-3.62,5.62,0,5.62Z"/><path class="cls-1" d="M667.57,119.77c3.62,0,3.63-5.63,0-5.63s-3.62,5.63,0,5.63Z"/><path class="cls-1" d="M635,112.28c3.62,0,3.63-5.62,0-5.62s-3.62,5.62,0,5.62Z"/><path class="cls-1" d="M641.16,127.12c3.62,0,3.62-5.63,0-5.63s-3.63,5.63,0,5.63Z"/><path class="cls-1" d="M736.34,122.31c3.62,0,3.63-5.62,0-5.62s-3.62,5.62,0,5.62Z"/><path class="cls-1" d="M703.73,114.82c3.62,0,3.63-5.62,0-5.62s-3.62,5.62,0,5.62Z"/><path class="cls-1" d="M709.93,129.66c3.62,0,3.62-5.63,0-5.63s-3.63,5.63,0,5.63Z"/><path class="cls-1" d="M800.87,131.66c3.62,0,3.63-5.63,0-5.63s-3.62,5.63,0,5.63Z"/><path class="cls-1" d="M768.26,124.17c3.62,0,3.63-5.63,0-5.63s-3.62,5.63,0,5.63Z"/><path class="cls-1" d="M774.46,139c3.62,0,3.62-5.62,0-5.62s-3.63,5.62,0,5.62Z"/><path class="cls-1" d="M869.64,134.2c3.62,0,3.63-5.63,0-5.63s-3.62,5.63,0,5.63Z"/><path class="cls-1" d="M837,126.71c3.62,0,3.63-5.62,0-5.62s-3.62,5.62,0,5.62Z"/><path class="cls-1" d="M843.23,141.55c3.62,0,3.63-5.63,0-5.63s-3.62,5.63,0,5.63Z"/><path class="cls-1" d="M944.2,142.73c3.62,0,3.63-5.62,0-5.62s-3.62,5.62,0,5.62Z"/><path class="cls-1" d="M911.59,135.25c3.62,0,3.63-5.63,0-5.63s-3.62,5.63,0,5.63Z"/><path class="cls-1" d="M917.79,150.08c3.62,0,3.63-5.63,0-5.63s-3.63,5.63,0,5.63Z"/><path class="cls-1" d="M1013,145.28c3.61,0,3.62-5.63,0-5.63s-3.63,5.63,0,5.63Z"/><path class="cls-1" d="M980.36,137.79c3.62,0,3.63-5.63,0-5.63s-3.62,5.63,0,5.63Z"/><path class="cls-1" d="M986.56,152.62c3.62,0,3.63-5.62,0-5.62s-3.62,5.62,0,5.62Z"/><path class="cls-1" d="M1077.51,154.62c3.62,0,3.62-5.62,0-5.62s-3.63,5.62,0,5.62Z"/><path class="cls-1" d="M1044.9,147.13c3.61,0,3.62-5.62,0-5.62s-3.63,5.62,0,5.62Z"/><path class="cls-1" d="M1051.09,162c3.62,0,3.63-5.63,0-5.63s-3.62,5.63,0,5.63Z"/><path class="cls-1" d="M1146.28,157.16c3.62,0,3.62-5.62,0-5.62s-3.63,5.62,0,5.62Z"/><path class="cls-1" d="M1113.67,149.68c3.62,0,3.62-5.63,0-5.63s-3.63,5.63,0,5.63Z"/><path class="cls-1" d="M1119.86,164.51c3.62,0,3.63-5.62,0-5.62s-3.62,5.62,0,5.62Z"/><path class="cls-1" d="M1226.74,161.24c3.62,0,3.62-5.63,0-5.63s-3.63,5.63,0,5.63Z"/><path class="cls-1" d="M1194.13,153.75c3.61,0,3.62-5.62,0-5.62s-3.63,5.62,0,5.62Z"/><path class="cls-1" d="M1200.32,168.59c3.62,0,3.63-5.63,0-5.63s-3.62,5.63,0,5.63Z"/><path class="cls-1" d="M1295.51,163.78c3.62,0,3.62-5.62,0-5.62s-3.63,5.62,0,5.62Z"/><path class="cls-1" d="M1262.9,156.3c3.62,0,3.62-5.63,0-5.63s-3.63,5.63,0,5.63Z"/><path class="cls-1" d="M1269.09,171.13c3.62,0,3.63-5.63,0-5.63s-3.62,5.63,0,5.63Z"/><path class="cls-1" d="M1360,173.13c3.62,0,3.62-5.63,0-5.63s-3.63,5.63,0,5.63Z"/><path class="cls-1" d="M1327.43,165.64c3.62,0,3.62-5.62,0-5.62s-3.63,5.62,0,5.62Z"/><path class="cls-1" d="M1333.62,180.47c3.62,0,3.63-5.62,0-5.62s-3.62,5.62,0,5.62Z"/><path class="cls-1" d="M1428.81,175.67c3.62,0,3.62-5.62,0-5.62s-3.63,5.62,0,5.62Z"/><path class="cls-1" d="M1396.2,168.18c3.62,0,3.62-5.62,0-5.62s-3.63,5.62,0,5.62Z"/><path class="cls-1" d="M1402.39,183c3.62,0,3.63-5.63,0-5.63s-3.62,5.63,0,5.63Z"/><path class="cls-1" d="M1509.55,167.5c3.62,0,3.63-5.63,0-5.63s-3.62,5.63,0,5.63Z"/><path class="cls-1" d="M1476.33,163.55c3.62,0,3.62-5.62,0-5.62s-3.63,5.62,0,5.62Z"/><path class="cls-1" d="M1484.08,177.64c3.62,0,3.63-5.63,0-5.63s-3.63,5.63,0,5.63Z"/><path class="cls-1" d="M1578.2,162.65c3.62,0,3.63-5.62,0-5.62s-3.62,5.62,0,5.62Z"/><path class="cls-1" d="M1545,158.71c3.62,0,3.62-5.63,0-5.63s-3.63,5.63,0,5.63Z"/><path class="cls-1" d="M1552.73,172.79c3.62,0,3.62-5.63,0-5.63s-3.63,5.63,0,5.63Z"/><path class="cls-1" d="M1643.36,165c3.62,0,3.63-5.62,0-5.62s-3.62,5.62,0,5.62Z"/><path class="cls-1" d="M1610.14,161.07c3.62,0,3.62-5.62,0-5.62s-3.63,5.62,0,5.62Z"/><path class="cls-1" d="M1617.89,175.16c3.62,0,3.62-5.63,0-5.63s-3.63,5.63,0,5.63Z"/><path class="cls-1" d="M1712,160.17c3.62,0,3.62-5.62,0-5.62s-3.63,5.62,0,5.62Z"/><path class="cls-1" d="M1678.78,156.23c3.62,0,3.63-5.63,0-5.63s-3.62,5.63,0,5.63Z"/><path class="cls-1" d="M1686.53,170.31c3.62,0,3.63-5.62,0-5.62s-3.62,5.62,0,5.62Z"/><path class="cls-1" d="M1789.09,156.78c3.62,0,3.63-5.63,0-5.63s-3.62,5.63,0,5.63Z"/><path class="cls-1" d="M1756.48,149.29c3.62,0,3.63-5.62,0-5.62s-3.62,5.62,0,5.62Z"/><path class="cls-1" d="M1762.68,164.13c3.62,0,3.63-5.63,0-5.63s-3.63,5.63,0,5.63Z"/><path class="cls-1" d="M1857.87,159.32c3.62,0,3.62-5.62,0-5.62s-3.63,5.62,0,5.62Z"/><path class="cls-1" d="M1825.26,151.84c3.61,0,3.62-5.63,0-5.63s-3.63,5.63,0,5.63Z"/><path class="cls-1" d="M1831.45,166.67c3.62,0,3.63-5.63,0-5.63s-3.62,5.63,0,5.63Z"/><path class="cls-1" d="M1922.4,168.67c3.62,0,3.62-5.63,0-5.63s-3.63,5.63,0,5.63Z"/><path class="cls-1" d="M1889.79,161.18c3.62,0,3.62-5.62,0-5.62s-3.63,5.62,0,5.62Z"/><path class="cls-1" d="M1896,176c3.62,0,3.63-5.62,0-5.62s-3.62,5.62,0,5.62Z"/><path class="cls-1" d="M1958.56,163.72c3.62,0,3.62-5.62,0-5.62s-3.63,5.62,0,5.62Z"/><path class="cls-1" d="M1964.75,178.56c3.62,0,3.63-5.63,0-5.63s-3.62,5.63,0,5.63Z"/><path class="cls-1" d="M2033.27,157.68c3.62,0,3.62-5.62,0-5.62s-3.63,5.62,0,5.62Z"/><path class="cls-1" d="M2000.66,150.19c3.62,0,3.62-5.62,0-5.62s-3.63,5.62,0,5.62Z"/><path class="cls-1" d="M2006.85,165c3.62,0,3.63-5.63,0-5.63s-3.62,5.63,0,5.63Z"/><path class="cls-1" d="M2102,160.22c3.62,0,3.62-5.62,0-5.62s-3.63,5.62,0,5.62Z"/><path class="cls-1" d="M2069.43,152.74c3.62,0,3.62-5.63,0-5.63s-3.63,5.63,0,5.63Z"/><path class="cls-1" d="M2075.62,167.57c3.62,0,3.63-5.62,0-5.62s-3.62,5.62,0,5.62Z"/><path class="cls-1" d="M2166.57,169.57c3.62,0,3.62-5.63,0-5.63s-3.63,5.63,0,5.63Z"/><path class="cls-1" d="M2134,162.08c3.62,0,3.62-5.62,0-5.62s-3.63,5.62,0,5.62Z"/><path class="cls-1" d="M2140.15,176.92c3.62,0,3.63-5.63,0-5.63s-3.62,5.63,0,5.63Z"/><path class="cls-1" d="M2202.73,164.63c3.62,0,3.62-5.63,0-5.63s-3.63,5.63,0,5.63Z"/><path class="cls-1" d="M2208.92,179.46c3.62,0,3.63-5.62,0-5.62s-3.62,5.62,0,5.62Z"/><path class="cls-1" d="M2286.24,170.48c3.62,0,3.62-5.62,0-5.62s-3.63,5.62,0,5.62Z"/><path class="cls-1" d="M2253.63,163c3.62,0,3.62-5.62,0-5.62s-3.63,5.62,0,5.62Z"/><path class="cls-1" d="M2259.82,177.83c3.62,0,3.63-5.63,0-5.63s-3.62,5.63,0,5.63Z"/><path class="cls-1" d="M2355,173c3.62,0,3.62-5.62,0-5.62s-3.63,5.62,0,5.62Z"/><path class="cls-1" d="M2322.4,165.54c3.62,0,3.62-5.63,0-5.63s-3.63,5.63,0,5.63Z"/><path class="cls-1" d="M2328.59,180.37c3.62,0,3.63-5.62,0-5.62s-3.62,5.62,0,5.62Z"/><path class="cls-1" d="M2419.54,182.37c3.62,0,3.62-5.63,0-5.63s-3.63,5.63,0,5.63Z"/><path class="cls-1" d="M2386.93,174.88c3.62,0,3.62-5.62,0-5.62s-3.63,5.62,0,5.62Z"/><path class="cls-1" d="M2393.12,189.72c3.62,0,3.63-5.63,0-5.63s-3.62,5.63,0,5.63Z"/><path class="cls-1" d="M2455.7,177.43c3.62,0,3.62-5.63,0-5.63s-3.63,5.63,0,5.63Z"/><path class="cls-1" d="M2461.89,192.26c3.62,0,3.63-5.62,0-5.62s-3.62,5.62,0,5.62Z"/><path class="cls-1" d="M2459.11,185.29c3.62,0,3.62-5.62,0-5.62s-3.63,5.62,0,5.62Z"/><path class="cls-1" d="M2510,183.66c3.62,0,3.63-5.62,0-5.62s-3.62,5.62,0,5.62Z"/><path class="cls-1" d="M2329.76,147.75c2.71,0,2.72-4.22,0-4.22s-2.72,4.22,0,4.22Z"/><path class="cls-1" d="M2405.65,156.65c2.71,0,2.72-4.22,0-4.22s-2.72,4.22,0,4.22Z"/><path class="cls-1" d="M2381.29,150.59c2.72,0,2.72-4.22,0-4.22s-2.71,4.22,0,4.22Z"/><path class="cls-1" d="M2453.91,164.53c2.71,0,2.72-4.22,0-4.22s-2.72,4.22,0,4.22Z"/><path class="cls-1" d="M2429.56,158.48c2.71,0,2.72-4.22,0-4.22s-2.72,4.22,0,4.22Z"/><path class="cls-1" d="M2505.44,167.37c2.72,0,2.72-4.21,0-4.21s-2.71,4.21,0,4.21Z"/><path class="cls-1" d="M2481.09,161.32c2.72,0,2.72-4.22,0-4.22s-2.72,4.22,0,4.22Z"/><path class="cls-1" d="M2518.76,149.92c2.71,0,2.72-4.22,0-4.22s-2.72,4.22,0,4.22Z"/><path class="cls-1" d="M2442.87,141c2.72,0,2.72-4.22,0-4.22s-2.72,4.22,0,4.22Z"/><path class="cls-1" d="M2467.22,147.08c2.72,0,2.72-4.22,0-4.22s-2.72,4.22,0,4.22Z"/><path class="cls-1" d="M2394.61,133.13c2.71,0,2.72-4.21,0-4.21s-2.72,4.21,0,4.21Z"/><path class="cls-1" d="M2419,139.19c2.72,0,2.72-4.22,0-4.22s-2.72,4.22,0,4.22Z"/><path class="cls-1" d="M2343.07,130.29c2.72,0,2.72-4.22,0-4.22s-2.72,4.22,0,4.22Z"/><path class="cls-1" d="M2367.43,136.35c2.71,0,2.71-4.22,0-4.22s-2.72,4.22,0,4.22Z"/><path class="cls-1" d="M2134,152.17c2.71,0,2.71-4.22,0-4.22s-2.72,4.22,0,4.22Z"/><path class="cls-1" d="M2210.38,151.49c2.71,0,2.72-4.22,0-4.22s-2.72,4.22,0,4.22Z"/><path class="cls-1" d="M2185.46,148.53c2.71,0,2.72-4.21,0-4.21s-2.72,4.21,0,4.21Z"/><path class="cls-1" d="M2259.25,153.27c2.71,0,2.72-4.22,0-4.22s-2.72,4.22,0,4.22Z"/><path class="cls-1" d="M2234.33,150.31c2.72,0,2.72-4.22,0-4.22s-2.72,4.22,0,4.22Z"/><path class="cls-1" d="M2310.74,149.63c2.71,0,2.71-4.21,0-4.21s-2.72,4.21,0,4.21Z"/><path class="cls-1" d="M2285.82,146.68c2.71,0,2.72-4.22,0-4.22s-2.72,4.22,0,4.22Z"/><path class="cls-1" d="M2321.76,130.65c2.71,0,2.72-4.22,0-4.22s-2.72,4.22,0,4.22Z"/><path class="cls-1" d="M2245.35,131.32c2.72,0,2.72-4.22,0-4.22s-2.72,4.22,0,4.22Z"/><path class="cls-1" d="M2270.27,134.28c2.72,0,2.72-4.22,0-4.22s-2.72,4.22,0,4.22Z"/><path class="cls-1" d="M2196.48,129.55c2.72,0,2.72-4.22,0-4.22s-2.72,4.22,0,4.22Z"/><path class="cls-1" d="M2221.4,132.51c2.72,0,2.72-4.22,0-4.22s-2.72,4.22,0,4.22Z"/><path class="cls-1" d="M2145,133.18c2.71,0,2.72-4.22,0-4.22s-2.72,4.22,0,4.22Z"/><path class="cls-1" d="M2169.92,136.14c2.71,0,2.72-4.22,0-4.22s-2.72,4.22,0,4.22Z"/><path class="cls-1" d="M1961.08,140.22c2.71,0,2.71-4.22,0-4.22s-2.72,4.22,0,4.22Z"/><path class="cls-1" d="M2037.48,139.55c2.71,0,2.72-4.22,0-4.22s-2.72,4.22,0,4.22Z"/><path class="cls-1" d="M2012.56,136.59c2.71,0,2.72-4.22,0-4.22s-2.72,4.22,0,4.22Z"/><path class="cls-1" d="M2086.35,141.32c2.71,0,2.72-4.22,0-4.22s-2.72,4.22,0,4.22Z"/><path class="cls-1" d="M2061.43,138.36c2.72,0,2.72-4.22,0-4.22s-2.72,4.22,0,4.22Z"/><path class="cls-1" d="M2137.84,137.69c2.71,0,2.71-4.22,0-4.22s-2.72,4.22,0,4.22Z"/><path class="cls-1" d="M2112.92,134.73c2.71,0,2.72-4.22,0-4.22s-2.72,4.22,0,4.22Z"/><path class="cls-1" d="M2148.86,118.7c2.71,0,2.72-4.22,0-4.22s-2.72,4.22,0,4.22Z"/><path class="cls-1" d="M2072.45,119.38c2.72,0,2.72-4.22,0-4.22s-2.72,4.22,0,4.22Z"/><path class="cls-1" d="M2097.37,122.33c2.72,0,2.72-4.21,0-4.21s-2.72,4.21,0,4.21Z"/><path class="cls-1" d="M2023.58,117.6c2.72,0,2.72-4.22,0-4.22s-2.72,4.22,0,4.22Z"/><path class="cls-1" d="M2048.5,120.56c2.72,0,2.72-4.22,0-4.22s-2.72,4.22,0,4.22Z"/><path class="cls-1" d="M1972.1,121.24c2.71,0,2.72-4.22,0-4.22s-2.72,4.22,0,4.22Z"/><path class="cls-1" d="M1997,124.19c2.71,0,2.72-4.21,0-4.21s-2.72,4.21,0,4.21Z"/><path class="cls-1" d="M1759.52,146c2.71,0,2.71-4.22,0-4.22s-2.72,4.22,0,4.22Z"/><path class="cls-1" d="M1835.92,145.28c2.71,0,2.72-4.22,0-4.22s-2.72,4.22,0,4.22Z"/><path class="cls-1" d="M1811,142.32c2.71,0,2.72-4.22,0-4.22s-2.72,4.22,0,4.22Z"/><path class="cls-1" d="M1884.79,147.06c2.71,0,2.72-4.22,0-4.22s-2.72,4.22,0,4.22Z"/><path class="cls-1" d="M1859.87,144.1c2.72,0,2.72-4.22,0-4.22s-2.72,4.22,0,4.22Z"/><path class="cls-1" d="M1936.27,143.42c2.72,0,2.72-4.22,0-4.22s-2.71,4.22,0,4.22Z"/><path class="cls-1" d="M1911.36,140.46c2.71,0,2.71-4.22,0-4.22s-2.72,4.22,0,4.22Z"/><path class="cls-1" d="M1947.3,124.43c2.71,0,2.72-4.22,0-4.22s-2.72,4.22,0,4.22Z"/><path class="cls-1" d="M1870.89,125.11c2.72,0,2.72-4.22,0-4.22s-2.72,4.22,0,4.22Z"/><path class="cls-1" d="M1895.81,128.07c2.72,0,2.72-4.22,0-4.22s-2.72,4.22,0,4.22Z"/><path class="cls-1" d="M1822,123.33c2.72,0,2.72-4.22,0-4.22s-2.72,4.22,0,4.22Z"/><path class="cls-1" d="M1846.94,126.29c2.72,0,2.72-4.22,0-4.22s-2.72,4.22,0,4.22Z"/><path class="cls-1" d="M1770.54,127c2.71,0,2.72-4.22,0-4.22s-2.72,4.22,0,4.22Z"/><path class="cls-1" d="M1795.46,129.93c2.71,0,2.72-4.22,0-4.22s-2.72,4.22,0,4.22Z"/><path class="cls-1" d="M1588.16,143.88c2.71,0,2.72-4.22,0-4.22s-2.72,4.22,0,4.22Z"/><path class="cls-1" d="M1664.56,143.2c2.72,0,2.72-4.22,0-4.22s-2.72,4.22,0,4.22Z"/><path class="cls-1" d="M1639.64,140.24c2.72,0,2.72-4.22,0-4.22s-2.71,4.22,0,4.22Z"/><path class="cls-1" d="M1713.43,145c2.72,0,2.72-4.21,0-4.21s-2.71,4.21,0,4.21Z"/><path class="cls-1" d="M1688.51,142c2.72,0,2.72-4.22,0-4.22s-2.71,4.22,0,4.22Z"/><path class="cls-1" d="M1764.92,141.34c2.71,0,2.72-4.22,0-4.22s-2.72,4.22,0,4.22Z"/><path class="cls-1" d="M1740,138.38c2.71,0,2.72-4.22,0-4.22s-2.72,4.22,0,4.22Z"/><path class="cls-1" d="M1775.94,122.35c2.72,0,2.72-4.22,0-4.22s-2.72,4.22,0,4.22Z"/><path class="cls-1" d="M1699.54,123c2.71,0,2.72-4.22,0-4.22s-2.72,4.22,0,4.22Z"/><path class="cls-1" d="M1724.46,126c2.71,0,2.72-4.22,0-4.22s-2.72,4.22,0,4.22Z"/><path class="cls-1" d="M1650.67,121.25c2.71,0,2.72-4.22,0-4.22s-2.72,4.22,0,4.22Z"/><path class="cls-1" d="M1675.59,124.21c2.71,0,2.72-4.22,0-4.22s-2.72,4.22,0,4.22Z"/><path class="cls-1" d="M1592.59,124.89c2.71,0,2.71-4.22,0-4.22s-2.72,4.22,0,4.22Z"/><path class="cls-1" d="M1624.1,127.85c2.72,0,2.72-4.22,0-4.22s-2.72,4.22,0,4.22Z"/><path class="cls-1" d="M1393.92,153c2.72,0,2.72-4.22,0-4.22s-2.71,4.22,0,4.22Z"/><path class="cls-1" d="M1470.33,152.35c2.71,0,2.72-4.22,0-4.22s-2.72,4.22,0,4.22Z"/><path class="cls-1" d="M1445.41,149.39c2.71,0,2.72-4.22,0-4.22s-2.72,4.22,0,4.22Z"/><path class="cls-1" d="M1519.2,154.13c2.71,0,2.72-4.22,0-4.22s-2.72,4.22,0,4.22Z"/><path class="cls-1" d="M1494.28,151.17c2.71,0,2.72-4.22,0-4.22s-2.72,4.22,0,4.22Z"/><path class="cls-1" d="M1570.68,150.49c2.72,0,2.72-4.22,0-4.22s-2.71,4.22,0,4.22Z"/><path class="cls-1" d="M1545.77,147.53c2.71,0,2.71-4.22,0-4.22s-2.72,4.22,0,4.22Z"/><path class="cls-1" d="M1581.71,131.5c2.71,0,2.72-4.22,0-4.22s-2.72,4.22,0,4.22Z"/><path class="cls-1" d="M1505.3,132.18c2.72,0,2.72-4.22,0-4.22s-2.72,4.22,0,4.22Z"/><path class="cls-1" d="M1530.22,135.14c2.72,0,2.72-4.22,0-4.22s-2.72,4.22,0,4.22Z"/><path class="cls-1" d="M1456.43,130.4c2.72,0,2.72-4.22,0-4.22s-2.72,4.22,0,4.22Z"/><path class="cls-1" d="M1481.35,133.36c2.72,0,2.72-4.22,0-4.22s-2.72,4.22,0,4.22Z"/><path class="cls-1" d="M1405,134c2.71,0,2.72-4.22,0-4.22s-2.72,4.22,0,4.22Z"/><path class="cls-1" d="M1429.87,137c2.71,0,2.72-4.22,0-4.22s-2.72,4.22,0,4.22Z"/><path class="cls-1" d="M1208.12,156.45c2.72,0,2.72-4.21,0-4.21s-2.72,4.21,0,4.21Z"/><path class="cls-1" d="M1284.53,155.78c2.71,0,2.72-4.22,0-4.22s-2.72,4.22,0,4.22Z"/><path class="cls-1" d="M1259.61,152.82c2.71,0,2.72-4.22,0-4.22s-2.72,4.22,0,4.22Z"/><path class="cls-1" d="M1333.4,157.55c2.71,0,2.72-4.21,0-4.21s-2.72,4.21,0,4.21Z"/><path class="cls-1" d="M1308.48,154.6c2.71,0,2.72-4.22,0-4.22s-2.72,4.22,0,4.22Z"/><path class="cls-1" d="M1384.88,153.92c2.72,0,2.72-4.22,0-4.22s-2.72,4.22,0,4.22Z"/><path class="cls-1" d="M1360,151c2.72,0,2.72-4.22,0-4.22s-2.71,4.22,0,4.22Z"/><path class="cls-1" d="M1395.91,134.93c2.71,0,2.72-4.22,0-4.22s-2.72,4.22,0,4.22Z"/><path class="cls-1" d="M1319.5,135.61c2.72,0,2.72-4.22,0-4.22s-2.72,4.22,0,4.22Z"/><path class="cls-1" d="M1344.42,138.57c2.72,0,2.72-4.22,0-4.22s-2.72,4.22,0,4.22Z"/><path class="cls-1" d="M1270.63,133.83c2.72,0,2.72-4.22,0-4.22s-2.72,4.22,0,4.22Z"/><path class="cls-1" d="M1295.55,136.79c2.71,0,2.72-4.22,0-4.22s-2.72,4.22,0,4.22Z"/><path class="cls-1" d="M1219.15,137.47c2.71,0,2.72-4.22,0-4.22s-2.72,4.22,0,4.22Z"/><path class="cls-1" d="M1244.07,140.43c2.71,0,2.71-4.22,0-4.22s-2.72,4.22,0,4.22Z"/><path class="cls-1" d="M1006.46,142c2.72,0,2.72-4.22,0-4.22s-2.71,4.22,0,4.22Z"/><path class="cls-1" d="M1082.75,146.33c2.71,0,2.72-4.22,0-4.22s-2.72,4.22,0,4.22Z"/><path class="cls-1" d="M1058.08,141.73c2.71,0,2.72-4.21,0-4.21s-2.72,4.21,0,4.21Z"/><path class="cls-1" d="M1131.4,151.31c2.71,0,2.72-4.22,0-4.22s-2.72,4.22,0,4.22Z"/><path class="cls-1" d="M1106.73,146.72c2.71,0,2.71-4.22,0-4.22s-2.72,4.22,0,4.22Z"/><path class="cls-1" d="M1183,151.07c2.71,0,2.72-4.22,0-4.22s-2.72,4.22,0,4.22Z"/><path class="cls-1" d="M1158.34,146.48c2.71,0,2.72-4.22,0-4.22s-2.72,4.22,0,4.22Z"/><path class="cls-1" d="M1195.26,132.85c2.71,0,2.72-4.22,0-4.22s-2.72,4.22,0,4.22Z"/><path class="cls-1" d="M1119,128.5c2.72,0,2.72-4.22,0-4.22s-2.72,4.22,0,4.22Z"/><path class="cls-1" d="M1143.64,133.09c2.72,0,2.72-4.22,0-4.22s-2.72,4.22,0,4.22Z"/><path class="cls-1" d="M1070.33,123.51c2.71,0,2.71-4.22,0-4.22s-2.72,4.22,0,4.22Z"/><path class="cls-1" d="M1095,128.1c2.71,0,2.72-4.22,0-4.22s-2.72,4.22,0,4.22Z"/><path class="cls-1" d="M1018.71,123.75c2.72,0,2.72-4.21,0-4.21s-2.72,4.21,0,4.21Z"/><path class="cls-1" d="M1043.38,128.35c2.72,0,2.72-4.22,0-4.22s-2.72,4.22,0,4.22Z"/><path class="cls-1" d="M77,55.89c2.71,0,2.72-4.22,0-4.22s-2.72,4.22,0,4.22Z"/><path class="cls-1" d="M153.27,59.94c2.71,0,2.72-4.22,0-4.22s-2.72,4.22,0,4.22Z"/><path class="cls-1" d="M128.58,55.44c2.72,0,2.72-4.22,0-4.22s-2.72,4.22,0,4.22Z"/><path class="cls-1" d="M201.94,64.74c2.71,0,2.72-4.22,0-4.22s-2.72,4.22,0,4.22Z"/><path class="cls-1" d="M177.25,60.24c2.71,0,2.72-4.22,0-4.22s-2.72,4.22,0,4.22Z"/><path class="cls-1" d="M253.55,64.29c2.71,0,2.72-4.22,0-4.22s-2.72,4.22,0,4.22Z"/><path class="cls-1" d="M228.86,59.8c2.71,0,2.72-4.22,0-4.22s-2.72,4.22,0,4.22Z"/><path class="cls-1" d="M265.73,46c2.71,0,2.71-4.22,0-4.22S263,46,265.73,46Z"/><path class="cls-1" d="M189.43,42c2.71,0,2.71-4.22,0-4.22s-2.72,4.22,0,4.22Z"/><path class="cls-1" d="M214.11,46.47c2.72,0,2.72-4.22,0-4.22s-2.72,4.22,0,4.22Z"/><path class="cls-1" d="M140.76,37.17c2.71,0,2.72-4.21,0-4.21s-2.72,4.21,0,4.21Z"/><path class="cls-1" d="M165.45,41.67c2.71,0,2.72-4.22,0-4.22s-2.72,4.22,0,4.22Z"/><path class="cls-1" d="M89.15,37.62c2.71,0,2.72-4.22,0-4.22s-2.72,4.22,0,4.22Z"/><path class="cls-1" d="M113.84,42.11c2.71,0,2.71-4.22,0-4.22s-2.72,4.22,0,4.22Z"/><path class="cls-1" d="M265.63,73.52c2.72,0,2.72-4.22,0-4.22s-2.72,4.22,0,4.22Z"/><path class="cls-1" d="M342,72.84c2.71,0,2.72-4.22,0-4.22s-2.72,4.22,0,4.22Z"/><path class="cls-1" d="M317.12,69.88c2.71,0,2.72-4.22,0-4.22s-2.72,4.22,0,4.22Z"/><path class="cls-1" d="M390.91,74.62c2.71,0,2.72-4.22,0-4.22s-2.72,4.22,0,4.22Z"/><path class="cls-1" d="M366,71.66c2.71,0,2.72-4.22,0-4.22s-2.72,4.22,0,4.22Z"/><path class="cls-1" d="M442.39,71c2.72,0,2.72-4.22,0-4.22s-2.72,4.22,0,4.22Z"/><path class="cls-1" d="M417.47,68c2.72,0,2.72-4.22,0-4.22s-2.71,4.22,0,4.22Z"/><path class="cls-1" d="M453.42,52c2.71,0,2.72-4.22,0-4.22s-2.72,4.22,0,4.22Z"/><path class="cls-1" d="M377,52.67c2.72,0,2.72-4.22,0-4.22s-2.72,4.22,0,4.22Z"/><path class="cls-1" d="M401.93,55.63c2.72,0,2.72-4.22,0-4.22s-2.72,4.22,0,4.22Z"/><path class="cls-1" d="M328.14,50.89c2.72,0,2.72-4.22,0-4.22s-2.72,4.22,0,4.22Z"/><path class="cls-1" d="M353.06,53.85c2.72,0,2.72-4.22,0-4.22s-2.72,4.22,0,4.22Z"/><path class="cls-1" d="M276.66,54.53c2.71,0,2.72-4.22,0-4.22s-2.72,4.22,0,4.22Z"/><path class="cls-1" d="M301.58,57.49c2.71,0,2.71-4.22,0-4.22s-2.72,4.22,0,4.22Z"/><path class="cls-1" d="M444.81,77.81c2.72,0,2.72-4.22,0-4.22s-2.72,4.22,0,4.22Z"/><path class="cls-1" d="M520.58,87.63c2.72,0,2.72-4.22,0-4.22s-2.71,4.22,0,4.22Z"/><path class="cls-1" d="M496.31,81.28c2.71,0,2.72-4.22,0-4.22s-2.72,4.22,0,4.22Z"/><path class="cls-1" d="M568.75,96.1c2.71,0,2.72-4.22,0-4.22s-2.72,4.22,0,4.22Z"/><path class="cls-1" d="M544.47,89.75c2.72,0,2.72-4.22,0-4.22s-2.72,4.22,0,4.22Z"/><path class="cls-1" d="M620.24,99.57c2.72,0,2.72-4.22,0-4.22s-2.71,4.22,0,4.22Z"/><path class="cls-1" d="M596,93.22c2.71,0,2.72-4.22,0-4.22s-2.72,4.22,0,4.22Z"/><path class="cls-1" d="M633.77,82.28c2.72,0,2.72-4.22,0-4.22s-2.72,4.22,0,4.22Z"/><path class="cls-1" d="M558,72.45c2.71,0,2.72-4.21,0-4.21s-2.72,4.21,0,4.21Z"/><path class="cls-1" d="M582.27,78.81c2.72,0,2.72-4.22,0-4.22s-2.71,4.22,0,4.22Z"/><path class="cls-1" d="M509.83,64c2.72,0,2.72-4.22,0-4.22s-2.71,4.22,0,4.22Z"/><path class="cls-1" d="M534.11,70.34c2.72,0,2.72-4.22,0-4.22s-2.72,4.22,0,4.22Z"/><path class="cls-1" d="M458.34,60.51c2.71,0,2.72-4.22,0-4.22s-2.72,4.22,0,4.22Z"/><path class="cls-1" d="M482.61,66.87c2.72,0,2.72-4.22,0-4.22s-2.71,4.22,0,4.22Z"/><path class="cls-1" d="M647,96.14A1.59,1.59,0,0,0,647,93a1.59,1.59,0,0,0,0,3.17Z"/><path class="cls-1" d="M703.84,103.46a1.58,1.58,0,0,0,0-3.16,1.58,1.58,0,0,0,0,3.16Z"/><path class="cls-1" d="M685.63,98.71a1.58,1.58,0,0,0,0-3.16,1.58,1.58,0,0,0,0,3.16Z"/><path class="cls-1" d="M740,109.79a1.59,1.59,0,0,0,0-3.17,1.59,1.59,0,0,0,0,3.17Z"/><path class="cls-1" d="M721.75,105a1.59,1.59,0,0,0,0-3.17,1.59,1.59,0,0,0,0,3.17Z"/><path class="cls-1" d="M778.59,112.36a1.58,1.58,0,0,0,0-3.16,1.58,1.58,0,0,0,0,3.16Z"/><path class="cls-1" d="M760.38,107.61a1.58,1.58,0,0,0,0-3.16,1.58,1.58,0,0,0,0,3.16Z"/><path class="cls-1" d="M788.72,99.38a1.58,1.58,0,0,0,0-3.16,1.58,1.58,0,0,0,0,3.16Z"/><path class="cls-1" d="M731.89,92.06a1.59,1.59,0,0,0,0-3.17,1.59,1.59,0,0,0,0,3.17Z"/><path class="cls-1" d="M750.1,96.81a1.58,1.58,0,0,0,0-3.16,1.58,1.58,0,0,0,0,3.16Z"/><path class="cls-1" d="M695.76,85.73a1.58,1.58,0,0,0,0-3.16,1.58,1.58,0,0,0,0,3.16Z"/><path class="cls-1" d="M714,90.48a1.58,1.58,0,0,0,0-3.16,1.58,1.58,0,0,0,0,3.16Z"/><path class="cls-1" d="M657.14,83.16a1.59,1.59,0,0,0,0-3.17,1.59,1.59,0,0,0,0,3.17Z"/><path class="cls-1" d="M675.35,87.91a1.58,1.58,0,0,0,0-3.16,1.58,1.58,0,0,0,0,3.16Z"/><path class="cls-1" d="M810.67,112a1.58,1.58,0,0,0,0-3.16,1.58,1.58,0,0,0,0,3.16Z"/><path class="cls-1" d="M867.5,119.3a1.59,1.59,0,0,0,0-3.17,1.59,1.59,0,0,0,0,3.17Z"/><path class="cls-1" d="M849.29,114.54a1.58,1.58,0,0,0,0-3.16,1.58,1.58,0,0,0,0,3.16Z"/><path class="cls-1" d="M903.63,125.62a1.58,1.58,0,0,0,0-3.16,1.58,1.58,0,0,0,0,3.16Z"/><path class="cls-1" d="M885.42,120.87a1.58,1.58,0,0,0,0-3.16,1.58,1.58,0,0,0,0,3.16Z"/><path class="cls-1" d="M942.25,128.19a1.58,1.58,0,0,0,0-3.16,1.58,1.58,0,0,0,0,3.16Z"/><path class="cls-1" d="M924,123.44a1.58,1.58,0,0,0,0-3.16,1.58,1.58,0,0,0,0,3.16Z"/><path class="cls-1" d="M952.39,115.22a1.59,1.59,0,0,0,0-3.17,1.59,1.59,0,0,0,0,3.17Z"/><path class="cls-1" d="M895.55,107.89a1.58,1.58,0,0,0,0-3.16,1.58,1.58,0,0,0,0,3.16Z"/><path class="cls-1" d="M913.77,112.64a1.58,1.58,0,0,0,0-3.16,1.58,1.58,0,0,0,0,3.16Z"/><path class="cls-1" d="M859.43,101.57a1.59,1.59,0,0,0,0-3.17,1.59,1.59,0,0,0,0,3.17Z"/><path class="cls-1" d="M877.64,106.32a1.59,1.59,0,0,0,0-3.17,1.59,1.59,0,0,0,0,3.17Z"/><path class="cls-1" d="M820.8,99a1.58,1.58,0,0,0,0-3.16,1.58,1.58,0,0,0,0,3.16Z"/><path class="cls-1" d="M839,103.74a1.58,1.58,0,0,0,0-3.16,1.58,1.58,0,0,0,0,3.16Z"/><path class="cls-1" d="M964.34,121.74a1.58,1.58,0,0,0,0-3.16,1.58,1.58,0,0,0,0,3.16Z"/><path class="cls-1" d="M1016.93,123.35a1.59,1.59,0,0,0,0-3.17,1.59,1.59,0,0,0,0,3.17Z"/><path class="cls-1" d="M998.72,118.6a1.59,1.59,0,0,0,0-3.17,1.59,1.59,0,0,0,0,3.17Z"/><path class="cls-1" d="M1053.06,129.67a1.58,1.58,0,0,0,0-3.16,1.58,1.58,0,0,0,0,3.16Z"/><path class="cls-1" d="M1034.85,124.92a1.58,1.58,0,0,0,0-3.16,1.58,1.58,0,0,0,0,3.16Z"/><path class="cls-1" d="M1091.69,132.25a1.59,1.59,0,0,0,0-3.17,1.59,1.59,0,0,0,0,3.17Z"/><path class="cls-1" d="M1073.47,127.49a1.58,1.58,0,0,0,0-3.16,1.58,1.58,0,0,0,0,3.16Z"/><path class="cls-1" d="M1101.82,119.27a1.59,1.59,0,0,0,0-3.17,1.59,1.59,0,0,0,0,3.17Z"/><path class="cls-1" d="M1045,111.94a1.58,1.58,0,0,0,0-3.16,1.58,1.58,0,0,0,0,3.16Z"/><path class="cls-1" d="M1063.2,116.7a1.59,1.59,0,0,0,0-3.17,1.59,1.59,0,0,0,0,3.17Z"/><path class="cls-1" d="M1008.86,105.62a1.59,1.59,0,0,0,0-3.17,1.59,1.59,0,0,0,0,3.17Z"/><path class="cls-1" d="M1027.07,110.37a1.59,1.59,0,0,0,0-3.17,1.59,1.59,0,0,0,0,3.17Z"/><path class="cls-1" d="M961.49,109.49a1.58,1.58,0,0,0,0-3.16,1.58,1.58,0,0,0,0,3.16Z"/><path class="cls-1" d="M988.44,107.8a1.59,1.59,0,0,0,0-3.17,1.59,1.59,0,0,0,0,3.17Z"/><path class="cls-1" d="M1135.17,122.81a1.58,1.58,0,0,0,0-3.16,1.58,1.58,0,0,0,0,3.16Z"/><path class="cls-1" d="M1192.43,125a1.58,1.58,0,0,0,0-3.16,1.58,1.58,0,0,0,0,3.16Z"/><path class="cls-1" d="M1173.87,121.91a1.58,1.58,0,0,0,0-3.16,1.58,1.58,0,0,0,0,3.16Z"/><path class="cls-1" d="M1229,128.08a1.59,1.59,0,0,0,0-3.17,1.59,1.59,0,0,0,0,3.17Z"/><path class="cls-1" d="M1210.42,125a1.59,1.59,0,0,0,0-3.17,1.59,1.59,0,0,0,0,3.17Z"/><path class="cls-1" d="M1267.68,127.18a1.59,1.59,0,0,0,0-3.17,1.59,1.59,0,0,0,0,3.17Z"/><path class="cls-1" d="M1249.12,124.08a1.59,1.59,0,0,0,0-3.17,1.59,1.59,0,0,0,0,3.17Z"/><path class="cls-1" d="M1276.61,113.34a1.58,1.58,0,0,0,0-3.16,1.58,1.58,0,0,0,0,3.16Z"/><path class="cls-1" d="M1111.26,114.41a1.58,1.58,0,0,0,0-3.16,1.58,1.58,0,0,0,0,3.16Z"/><path class="cls-1" d="M1237.91,114.24a1.58,1.58,0,0,0,0-3.16,1.58,1.58,0,0,0,0,3.16Z"/><path class="cls-1" d="M1182.8,108.08a1.58,1.58,0,0,0,0-3.16,1.58,1.58,0,0,0,0,3.16Z"/><path class="cls-1" d="M1068.5,112.31a1.59,1.59,0,0,0,0-3.17,1.59,1.59,0,0,0,0,3.17Z"/><path class="cls-1" d="M1144.1,109a1.58,1.58,0,0,0,0-3.16,1.58,1.58,0,0,0,0,3.16Z"/><path class="cls-1" d="M1085.19,113.55a1.59,1.59,0,0,0,0-3.17,1.59,1.59,0,0,0,0,3.17Z"/><path class="cls-1" d="M1293.73,129.31a1.59,1.59,0,0,0,0-3.17,1.59,1.59,0,0,0,0,3.17Z"/><path class="cls-1" d="M1351,131.75a1.59,1.59,0,0,0,0-3.17,1.59,1.59,0,0,0,0,3.17Z"/><path class="cls-1" d="M1332.43,128.57a1.59,1.59,0,0,0,0-3.17,1.59,1.59,0,0,0,0,3.17Z"/><path class="cls-1" d="M1387.52,135a1.58,1.58,0,0,0,0-3.16,1.58,1.58,0,0,0,0,3.16Z"/><path class="cls-1" d="M1369,131.78a1.58,1.58,0,0,0,0-3.16,1.58,1.58,0,0,0,0,3.16Z"/><path class="cls-1" d="M1426.22,134.23a1.59,1.59,0,0,0,0-3.17,1.59,1.59,0,0,0,0,3.17Z"/><path class="cls-1" d="M1407.67,131.05a1.59,1.59,0,0,0,0-3.17,1.59,1.59,0,0,0,0,3.17Z"/><path class="cls-1" d="M1435.21,120.43a1.58,1.58,0,0,0,0-3.16,1.58,1.58,0,0,0,0,3.16Z"/><path class="cls-1" d="M1378,118a1.59,1.59,0,0,0,0-3.17,1.59,1.59,0,0,0,0,3.17Z"/><path class="cls-1" d="M1396.51,121.17a1.59,1.59,0,0,0,0-3.17,1.59,1.59,0,0,0,0,3.17Z"/><path class="cls-1" d="M1341.42,114.77a1.58,1.58,0,0,0,0-3.16,1.58,1.58,0,0,0,0,3.16Z"/><path class="cls-1" d="M1360,118a1.58,1.58,0,0,0,0-3.16,1.58,1.58,0,0,0,0,3.16Z"/><path class="cls-1" d="M1302.72,115.51a1.59,1.59,0,0,0,0-3.17,1.59,1.59,0,0,0,0,3.17Z"/><path class="cls-1" d="M1321.27,118.69a1.59,1.59,0,0,0,0-3.17,1.59,1.59,0,0,0,0,3.17Z"/><path class="cls-1" d="M1448,129.16a1.58,1.58,0,0,0,0-3.16,1.58,1.58,0,0,0,0,3.16Z"/><path class="cls-1" d="M1505.32,129.19a1.59,1.59,0,0,0,0-3.17,1.59,1.59,0,0,0,0,3.17Z"/><path class="cls-1" d="M1486.65,126.79a1.58,1.58,0,0,0,0-3.16,1.58,1.58,0,0,0,0,3.16Z"/><path class="cls-1" d="M1542,130.86a1.58,1.58,0,0,0,0-3.16,1.58,1.58,0,0,0,0,3.16Z"/><path class="cls-1" d="M1523.29,128.47a1.59,1.59,0,0,0,0-3.17,1.59,1.59,0,0,0,0,3.17Z"/><path class="cls-1" d="M1580.6,128.49a1.58,1.58,0,0,0,0-3.16,1.58,1.58,0,0,0,0,3.16Z"/><path class="cls-1" d="M1561.93,126.1a1.58,1.58,0,0,0,0-3.16,1.58,1.58,0,0,0,0,3.16Z"/><path class="cls-1" d="M1589,114.33a1.58,1.58,0,0,0,0-3.16,1.58,1.58,0,0,0,0,3.16Z"/><path class="cls-1" d="M1531.69,114.3a1.58,1.58,0,0,0,0-3.16,1.58,1.58,0,0,0,0,3.16Z"/><path class="cls-1" d="M1550.36,116.7a1.59,1.59,0,0,0,0-3.17,1.59,1.59,0,0,0,0,3.17Z"/><path class="cls-1" d="M1495.05,112.63a1.58,1.58,0,0,0,0-3.16,1.58,1.58,0,0,0,0,3.16Z"/><path class="cls-1" d="M1513.72,115a1.58,1.58,0,0,0,0-3.16,1.58,1.58,0,0,0,0,3.16Z"/><path class="cls-1" d="M1456.41,115a1.59,1.59,0,0,0,0-3.17,1.59,1.59,0,0,0,0,3.17Z"/><path class="cls-1" d="M1475.08,117.39a1.58,1.58,0,0,0,0-3.16,1.58,1.58,0,0,0,0,3.16Z"/><path class="cls-1" d="M1613.33,119.78a1.59,1.59,0,0,0,0-3.17,1.59,1.59,0,0,0,0,3.17Z"/><path class="cls-1" d="M1670.64,119.38a1.59,1.59,0,0,0,0-3.17,1.59,1.59,0,0,0,0,3.17Z"/><path class="cls-1" d="M1652,117.12a1.58,1.58,0,0,0,0-3.16,1.58,1.58,0,0,0,0,3.16Z"/><path class="cls-1" d="M1707.29,120.78a1.59,1.59,0,0,0,0-3.17,1.59,1.59,0,0,0,0,3.17Z"/><path class="cls-1" d="M1688.6,118.52a1.58,1.58,0,0,0,0-3.16,1.58,1.58,0,0,0,0,3.16Z"/><path class="cls-1" d="M1745.91,118.12a1.58,1.58,0,0,0,0-3.16,1.58,1.58,0,0,0,0,3.16Z"/><path class="cls-1" d="M1727.22,115.87a1.59,1.59,0,0,0,0-3.17,1.59,1.59,0,0,0,0,3.17Z"/><path class="cls-1" d="M1754.2,103.9a1.59,1.59,0,0,0,0-3.17,1.59,1.59,0,0,0,0,3.17Z"/><path class="cls-1" d="M1696.9,104.3a1.59,1.59,0,0,0,0-3.17,1.59,1.59,0,0,0,0,3.17Z"/><path class="cls-1" d="M1715.58,106.55a1.58,1.58,0,0,0,0-3.16,1.58,1.58,0,0,0,0,3.16Z"/><path class="cls-1" d="M1660.25,102.9a1.59,1.59,0,0,0,0-3.17,1.59,1.59,0,0,0,0,3.17Z"/><path class="cls-1" d="M1678.93,105.15a1.58,1.58,0,0,0,0-3.16,1.58,1.58,0,0,0,0,3.16Z"/><path class="cls-1" d="M1621.63,105.55a1.58,1.58,0,0,0,0-3.16,1.58,1.58,0,0,0,0,3.16Z"/><path class="cls-1" d="M1640.31,107.81a1.59,1.59,0,0,0,0-3.17,1.59,1.59,0,0,0,0,3.17Z"/><path class="cls-1" d="M1778.23,113.83a1.58,1.58,0,0,0,0-3.16,1.58,1.58,0,0,0,0,3.16Z"/><path class="cls-1" d="M1835.52,115.08a1.59,1.59,0,0,0,0-3.17,1.59,1.59,0,0,0,0,3.17Z"/><path class="cls-1" d="M1816.91,112.29a1.59,1.59,0,0,0,0-3.17,1.59,1.59,0,0,0,0,3.17Z"/><path class="cls-1" d="M1872.11,117.53a1.58,1.58,0,0,0,0-3.16,1.58,1.58,0,0,0,0,3.16Z"/><path class="cls-1" d="M1853.5,114.74a1.58,1.58,0,0,0,0-3.16,1.58,1.58,0,0,0,0,3.16Z"/><path class="cls-1" d="M1910.79,116a1.59,1.59,0,0,0,0-3.17,1.59,1.59,0,0,0,0,3.17Z"/><path class="cls-1" d="M1892.18,113.2a1.59,1.59,0,0,0,0-3.17,1.59,1.59,0,0,0,0,3.17Z"/><path class="cls-1" d="M1919.49,102a1.59,1.59,0,0,0,0-3.17,1.59,1.59,0,0,0,0,3.17Z"/><path class="cls-1" d="M1862.2,100.76a1.58,1.58,0,0,0,0-3.16,1.58,1.58,0,0,0,0,3.16Z"/><path class="cls-1" d="M1880.81,103.55a1.58,1.58,0,0,0,0-3.16,1.58,1.58,0,0,0,0,3.16Z"/><path class="cls-1" d="M1825.61,98.31a1.59,1.59,0,0,0,0-3.17,1.59,1.59,0,0,0,0,3.17Z"/><path class="cls-1" d="M1844.22,101.1a1.59,1.59,0,0,0,0-3.17,1.59,1.59,0,0,0,0,3.17Z"/><path class="cls-1" d="M1786.93,99.85a1.58,1.58,0,0,0,0-3.16,1.58,1.58,0,0,0,0,3.16Z"/><path class="cls-1" d="M1805.54,102.64a1.58,1.58,0,0,0,0-3.16,1.58,1.58,0,0,0,0,3.16Z"/><path class="cls-1" d="M2077.84,104.17a1.59,1.59,0,0,0,0-3.17,1.59,1.59,0,0,0,0,3.17Z"/><path class="cls-1" d="M2021,111.49a1.58,1.58,0,0,0,0-3.16,1.58,1.58,0,0,0,0,3.16Z"/><path class="cls-1" d="M2039.21,106.74a1.58,1.58,0,0,0,0-3.16,1.58,1.58,0,0,0,0,3.16Z"/><path class="cls-1" d="M1984.87,117.82a1.59,1.59,0,0,0,0-3.17,1.59,1.59,0,0,0,0,3.17Z"/><path class="cls-1" d="M2003.08,113.07a1.59,1.59,0,0,0,0-3.17,1.59,1.59,0,0,0,0,3.17Z"/><path class="cls-1" d="M1946.25,120.39a1.58,1.58,0,0,0,0-3.16,1.58,1.58,0,0,0,0,3.16Z"/><path class="cls-1" d="M1964.46,115.64a1.58,1.58,0,0,0,0-3.16,1.58,1.58,0,0,0,0,3.16Z"/><path class="cls-1" d="M1938.1,101.65a1.58,1.58,0,0,0,0-3.16,1.58,1.58,0,0,0,0,3.16Z"/><path class="cls-1" d="M1993,100.09a1.59,1.59,0,0,0,0-3.17,1.59,1.59,0,0,0,0,3.17Z"/><path class="cls-1" d="M1974.74,104.84a1.58,1.58,0,0,0,0-3.16,1.58,1.58,0,0,0,0,3.16Z"/><path class="cls-1" d="M2029.08,93.76a1.58,1.58,0,0,0,0-3.16,1.58,1.58,0,0,0,0,3.16Z"/><path class="cls-1" d="M2010.87,98.51a1.58,1.58,0,0,0,0-3.16,1.58,1.58,0,0,0,0,3.16Z"/><path class="cls-1" d="M2067.7,91.19a1.59,1.59,0,0,0,0-3.17,1.59,1.59,0,0,0,0,3.17Z"/><path class="cls-1" d="M2049.49,95.94a1.58,1.58,0,0,0,0-3.16,1.58,1.58,0,0,0,0,3.16Z"/><path class="cls-1" d="M2096.73,110.47a1.59,1.59,0,0,0,0-3.17,1.59,1.59,0,0,0,0,3.17Z"/><path class="cls-1" d="M2153.56,117.79a1.58,1.58,0,0,0,0-3.16,1.58,1.58,0,0,0,0,3.16Z"/><path class="cls-1" d="M2135.35,113a1.59,1.59,0,0,0,0-3.17,1.59,1.59,0,0,0,0,3.17Z"/><path class="cls-1" d="M2189.69,124.12a1.59,1.59,0,0,0,0-3.17,1.59,1.59,0,0,0,0,3.17Z"/><path class="cls-1" d="M2171.48,119.37a1.59,1.59,0,0,0,0-3.17,1.59,1.59,0,0,0,0,3.17Z"/><path class="cls-1" d="M2228.31,126.69a1.58,1.58,0,0,0,0-3.16,1.58,1.58,0,0,0,0,3.16Z"/><path class="cls-1" d="M2210.1,121.94a1.59,1.59,0,0,0,0-3.17,1.59,1.59,0,0,0,0,3.17Z"/><path class="cls-1" d="M2242,111a1.59,1.59,0,0,0,0-3.17,1.59,1.59,0,0,0,0,3.17Z"/><path class="cls-1" d="M2181.61,106.39a1.59,1.59,0,0,0,0-3.17,1.59,1.59,0,0,0,0,3.17Z"/><path class="cls-1" d="M2199.82,111.14a1.59,1.59,0,0,0,0-3.17,1.59,1.59,0,0,0,0,3.17Z"/><path class="cls-1" d="M2145.48,100.06a1.58,1.58,0,0,0,0-3.16,1.58,1.58,0,0,0,0,3.16Z"/><path class="cls-1" d="M2163.7,104.81a1.58,1.58,0,0,0,0-3.16,1.58,1.58,0,0,0,0,3.16Z"/><path class="cls-1" d="M2106.86,97.49a1.59,1.59,0,0,0,0-3.17,1.59,1.59,0,0,0,0,3.17Z"/><path class="cls-1" d="M2125.07,102.24a1.58,1.58,0,0,0,0-3.16,1.58,1.58,0,0,0,0,3.16Z"/><path class="cls-1" d="M2263.11,121.24a1.59,1.59,0,0,0,0-3.17,1.59,1.59,0,0,0,0,3.17Z"/><path class="cls-1" d="M2320.66,124.22a1.58,1.58,0,0,0,0-3.16,1.58,1.58,0,0,0,0,3.16Z"/><path class="cls-1" d="M2302.45,119.47a1.58,1.58,0,0,0,0-3.16,1.58,1.58,0,0,0,0,3.16Z"/><path class="cls-1" d="M2356.79,130.55a1.58,1.58,0,0,0,0-3.16,1.58,1.58,0,0,0,0,3.16Z"/><path class="cls-1" d="M2338.58,125.8a1.59,1.59,0,0,0,0-3.17,1.59,1.59,0,0,0,0,3.17Z"/><path class="cls-1" d="M2395.41,133.12a1.58,1.58,0,0,0,0-3.16,1.58,1.58,0,0,0,0,3.16Z"/><path class="cls-1" d="M2377.2,128.37a1.58,1.58,0,0,0,0-3.16,1.58,1.58,0,0,0,0,3.16Z"/><path class="cls-1" d="M2405.55,120.15a1.59,1.59,0,0,0,0-3.17,1.59,1.59,0,0,0,0,3.17Z"/><path class="cls-1" d="M2348.71,112.82a1.58,1.58,0,0,0,0-3.16,1.58,1.58,0,0,0,0,3.16Z"/><path class="cls-1" d="M2366.92,117.57a1.58,1.58,0,0,0,0-3.16,1.58,1.58,0,0,0,0,3.16Z"/><path class="cls-1" d="M2312.59,106.49a1.58,1.58,0,0,0,0-3.16,1.58,1.58,0,0,0,0,3.16Z"/><path class="cls-1" d="M2330.8,111.25a1.59,1.59,0,0,0,0-3.17,1.59,1.59,0,0,0,0,3.17Z"/><path class="cls-1" d="M2274,103.92a1.58,1.58,0,0,0,0-3.16,1.58,1.58,0,0,0,0,3.16Z"/><path class="cls-1" d="M2292.17,108.67a1.58,1.58,0,0,0,0-3.16,1.58,1.58,0,0,0,0,3.16Z"/><path class="cls-1" d="M2413.76,128.21a1.58,1.58,0,0,0,0-3.16,1.58,1.58,0,0,0,0,3.16Z"/><path class="cls-1" d="M2470.59,135.54a1.59,1.59,0,0,0,0-3.17,1.59,1.59,0,0,0,0,3.17Z"/><path class="cls-1" d="M2452.38,130.78a1.58,1.58,0,0,0,0-3.16,1.58,1.58,0,0,0,0,3.16Z"/><path class="cls-1" d="M2506.72,141.86a1.58,1.58,0,0,0,0-3.16,1.58,1.58,0,0,0,0,3.16Z"/><path class="cls-1" d="M2488.51,137.11a1.58,1.58,0,0,0,0-3.16,1.58,1.58,0,0,0,0,3.16Z"/><path class="cls-1" d="M2545.34,144.43a1.58,1.58,0,0,0,0-3.16,1.58,1.58,0,0,0,0,3.16Z"/><path class="cls-1" d="M2527.13,139.68a1.58,1.58,0,0,0,0-3.16,1.58,1.58,0,0,0,0,3.16Z"/><path class="cls-1" d="M2555.48,131.46a1.59,1.59,0,0,0,0-3.17,1.59,1.59,0,0,0,0,3.17Z"/><path class="cls-1" d="M2498.64,124.13a1.58,1.58,0,0,0,0-3.16,1.58,1.58,0,0,0,0,3.16Z"/><path class="cls-1" d="M2516.85,128.88a1.58,1.58,0,0,0,0-3.16,1.58,1.58,0,0,0,0,3.16Z"/><path class="cls-1" d="M2462.52,117.81a1.59,1.59,0,0,0,0-3.17,1.59,1.59,0,0,0,0,3.17Z"/><path class="cls-1" d="M2480.73,122.56a1.59,1.59,0,0,0,0-3.17,1.59,1.59,0,0,0,0,3.17Z"/><path class="cls-1" d="M2423.89,115.23a1.58,1.58,0,0,0,0-3.16,1.58,1.58,0,0,0,0,3.16Z"/><path class="cls-1" d="M2442.1,120a1.58,1.58,0,0,0,0-3.16,1.58,1.58,0,0,0,0,3.16Z"/><path class="cls-1" d="M2225.25,102.83a1.21,1.21,0,0,0,0-2.41,1.21,1.21,0,0,0,0,2.41Z"/><path class="cls-1" d="M2210.21,102.41a1.21,1.21,0,0,0,0-2.41,1.21,1.21,0,0,0,0,2.41Z"/><path class="cls-1" d="M2250.81,111.43a1.21,1.21,0,0,0,0-2.41,1.21,1.21,0,0,0,0,2.41Z"/><path class="cls-1" d="M2238.89,104a1.21,1.21,0,0,0,0-2.41,1.21,1.21,0,0,0,0,2.41Z"/><path class="cls-1" d="M2284.74,103.45a1.21,1.21,0,0,0,0-2.41,1.21,1.21,0,0,0,0,2.41Z"/><path class="cls-1" d="M2246.6,94.15a1.21,1.21,0,0,0,0-2.41,1.21,1.21,0,0,0,0,2.41Z"/><path class="cls-1" d="M2260.46,97.76a1.2,1.2,0,0,0,0-2.4,1.2,1.2,0,0,0,0,2.4Z"/><path class="cls-1" d="M2219.1,89.33a1.21,1.21,0,0,0,0-2.41,1.21,1.21,0,0,0,0,2.41Z"/><path class="cls-1" d="M2233,93a1.21,1.21,0,0,0,0-2.41,1.21,1.21,0,0,0,0,2.41Z"/><path class="cls-1" d="M2211.26,84.09a1.21,1.21,0,0,0,0-2.41,1.21,1.21,0,0,0,0,2.41Z"/><path class="cls-1" d="M2203.57,91a1.21,1.21,0,0,0,0-2.41,1.21,1.21,0,0,0,0,2.41Z"/><path class="cls-1" d="M2460.65,110.81a1.21,1.21,0,0,0,0-2.41,1.21,1.21,0,0,0,0,2.41Z"/><path class="cls-1" d="M2446.79,107.19a1.21,1.21,0,0,0,0-2.41,1.21,1.21,0,0,0,0,2.41Z"/><path class="cls-1" d="M2488.15,115.62a1.21,1.21,0,0,0,0-2.41,1.21,1.21,0,0,0,0,2.41Z"/><path class="cls-1" d="M2474.29,112a1.21,1.21,0,0,0,0-2.41,1.21,1.21,0,0,0,0,2.41Z"/><path class="cls-1" d="M2520.13,111.43a1.21,1.21,0,0,0,0-2.41,1.21,1.21,0,0,0,0,2.41Z"/><path class="cls-1" d="M2482,102.13a1.21,1.21,0,0,0,0-2.41,1.21,1.21,0,0,0,0,2.41Z"/><path class="cls-1" d="M2495.86,105.74a1.2,1.2,0,0,0,0-2.4,1.2,1.2,0,0,0,0,2.4Z"/><path class="cls-1" d="M2454.5,97.31a1.2,1.2,0,0,0,0-2.4,1.2,1.2,0,0,0,0,2.4Z"/><path class="cls-1" d="M2468.36,100.93a1.21,1.21,0,0,0,0-2.41,1.21,1.21,0,0,0,0,2.41Z"/><path class="cls-1" d="M2425.11,95.36a1.21,1.21,0,0,0,0-2.41,1.21,1.21,0,0,0,0,2.41Z"/><path class="cls-1" d="M2439,99a1.21,1.21,0,0,0,0-2.41,1.21,1.21,0,0,0,0,2.41Z"/><path class="cls-1" d="M2359.53,101.34a1.21,1.21,0,0,0,0-2.41,1.21,1.21,0,0,0,0,2.41Z"/><path class="cls-1" d="M2345.67,97.73a1.21,1.21,0,0,0,0-2.41,1.21,1.21,0,0,0,0,2.41Z"/><path class="cls-1" d="M2387,106.16a1.21,1.21,0,0,0,0-2.41,1.21,1.21,0,0,0,0,2.41Z"/><path class="cls-1" d="M2373.73,108.43a1.21,1.21,0,0,0,0-2.41,1.21,1.21,0,0,0,0,2.41Z"/><path class="cls-1" d="M2419,102a1.21,1.21,0,0,0,0-2.41,1.21,1.21,0,0,0,0,2.41Z"/><path class="cls-1" d="M2380.88,92.66a1.2,1.2,0,0,0,0-2.4,1.2,1.2,0,0,0,0,2.4Z"/><path class="cls-1" d="M2394.74,96.28a1.21,1.21,0,0,0,0-2.41,1.21,1.21,0,0,0,0,2.41Z"/><path class="cls-1" d="M2353.38,87.85a1.21,1.21,0,0,0,0-2.41,1.21,1.21,0,0,0,0,2.41Z"/><path class="cls-1" d="M2367.24,91.46a1.2,1.2,0,0,0,0-2.4,1.2,1.2,0,0,0,0,2.4Z"/><path class="cls-1" d="M2324,85.89a1.21,1.21,0,0,0,0-2.41,1.21,1.21,0,0,0,0,2.41Z"/><path class="cls-1" d="M2337.85,89.51a1.21,1.21,0,0,0,0-2.41,1.21,1.21,0,0,0,0,2.41Z"/><path class="cls-1" d="M2257.74,92.07a1.21,1.21,0,0,0,0-2.41,1.21,1.21,0,0,0,0,2.41Z"/><path class="cls-1" d="M2243.88,88.45a1.21,1.21,0,0,0,0-2.41,1.21,1.21,0,0,0,0,2.41Z"/><path class="cls-1" d="M2285.23,96.88a1.21,1.21,0,0,0,0-2.41,1.21,1.21,0,0,0,0,2.41Z"/><path class="cls-1" d="M2271.37,93.26a1.2,1.2,0,0,0,0-2.4,1.2,1.2,0,0,0,0,2.4Z"/><path class="cls-1" d="M2317.22,92.69a1.21,1.21,0,0,0,0-2.41,1.21,1.21,0,0,0,0,2.41Z"/><path class="cls-1" d="M2279.09,83.39a1.21,1.21,0,0,0,0-2.41,1.21,1.21,0,0,0,0,2.41Z"/><path class="cls-1" d="M2293,87a1.2,1.2,0,0,0,0-2.4,1.2,1.2,0,0,0,0,2.4Z"/><path class="cls-1" d="M2251.59,78.57a1.21,1.21,0,0,0,0-2.41,1.21,1.21,0,0,0,0,2.41Z"/><path class="cls-1" d="M2265.45,82.19a1.21,1.21,0,0,0,0-2.41,1.21,1.21,0,0,0,0,2.41Z"/><path class="cls-1" d="M2222.19,76.61a1.2,1.2,0,0,0,0-2.4,1.2,1.2,0,0,0,0,2.4Z"/><path class="cls-1" d="M2236.05,80.23a1.21,1.21,0,0,0,0-2.41,1.21,1.21,0,0,0,0,2.41Z"/><path class="cls-1" d="M2480.76,94.69a1.21,1.21,0,0,0,0-2.41,1.21,1.21,0,0,0,0,2.41Z"/><path class="cls-1" d="M2466.9,91.07a1.21,1.21,0,0,0,0-2.41,1.21,1.21,0,0,0,0,2.41Z"/><path class="cls-1" d="M2508.25,99.5a1.2,1.2,0,0,0,0-2.4,1.2,1.2,0,0,0,0,2.4Z"/><path class="cls-1" d="M2494.39,95.89a1.21,1.21,0,0,0,0-2.41,1.21,1.21,0,0,0,0,2.41Z"/><path class="cls-1" d="M2540.24,95.31a1.21,1.21,0,0,0,0-2.41,1.21,1.21,0,0,0,0,2.41Z"/><path class="cls-1" d="M2502.11,86a1.21,1.21,0,0,0,0-2.41,1.21,1.21,0,0,0,0,2.41Z"/><path class="cls-1" d="M2516,89.63a1.21,1.21,0,0,0,0-2.41,1.21,1.21,0,0,0,0,2.41Z"/><path class="cls-1" d="M2474.61,81.19a1.2,1.2,0,0,0,0-2.4,1.2,1.2,0,0,0,0,2.4Z"/><path class="cls-1" d="M2488.47,84.81a1.21,1.21,0,0,0,0-2.41,1.21,1.21,0,0,0,0,2.41Z"/><path class="cls-1" d="M2441.77,81.86a1.21,1.21,0,0,0,0-2.41,1.21,1.21,0,0,0,0,2.41Z"/><path class="cls-1" d="M2459.07,82.85a1.21,1.21,0,0,0,0-2.41,1.21,1.21,0,0,0,0,2.41Z"/><path class="cls-1" d="M2367.93,84.92a1.21,1.21,0,0,0,0-2.41,1.21,1.21,0,0,0,0,2.41Z"/><path class="cls-1" d="M2354.07,81.3a1.2,1.2,0,0,0,0-2.4,1.2,1.2,0,0,0,0,2.4Z"/><path class="cls-1" d="M2395.43,89.74a1.21,1.21,0,0,0,0-2.41,1.21,1.21,0,0,0,0,2.41Z"/><path class="cls-1" d="M2381.57,86.12a1.21,1.21,0,0,0,0-2.41,1.21,1.21,0,0,0,0,2.41Z"/><path class="cls-1" d="M2427.42,85.55a1.21,1.21,0,0,0,0-2.41,1.21,1.21,0,0,0,0,2.41Z"/><path class="cls-1" d="M2389.28,76.24a1.21,1.21,0,0,0,0-2.41,1.21,1.21,0,0,0,0,2.41Z"/><path class="cls-1" d="M2403.14,79.86a1.21,1.21,0,0,0,0-2.41,1.21,1.21,0,0,0,0,2.41Z"/><path class="cls-1" d="M2361.79,71.43a1.21,1.21,0,0,0,0-2.41,1.21,1.21,0,0,0,0,2.41Z"/><path class="cls-1" d="M2375.65,75a1.2,1.2,0,0,0,0-2.4,1.2,1.2,0,0,0,0,2.4Z"/><path class="cls-1" d="M2321.76,80.4a1.21,1.21,0,0,0,0-2.41,1.21,1.21,0,0,0,0,2.41Z"/><path class="cls-1" d="M2346.25,73.09a1.21,1.21,0,0,0,0-2.41,1.21,1.21,0,0,0,0,2.41Z"/><path class="cls-1" d="M2114.66,93.57a1.2,1.2,0,0,0,0-2.4,1.2,1.2,0,0,0,0,2.4Z"/><path class="cls-1" d="M2100.8,90a1.21,1.21,0,0,0,0-2.41,1.21,1.21,0,0,0,0,2.41Z"/><path class="cls-1" d="M2142.15,98.39a1.21,1.21,0,0,0,0-2.41,1.21,1.21,0,0,0,0,2.41Z"/><path class="cls-1" d="M2128.29,94.77a1.2,1.2,0,0,0,0-2.4,1.2,1.2,0,0,0,0,2.4Z"/><path class="cls-1" d="M2174.14,94.2a1.21,1.21,0,0,0,0-2.41,1.21,1.21,0,0,0,0,2.41Z"/><path class="cls-1" d="M2136,84.9a1.21,1.21,0,0,0,0-2.41,1.21,1.21,0,0,0,0,2.41Z"/><path class="cls-1" d="M2149.87,88.51a1.21,1.21,0,0,0,0-2.41,1.21,1.21,0,0,0,0,2.41Z"/><path class="cls-1" d="M2108.51,80.08a1.21,1.21,0,0,0,0-2.41,1.21,1.21,0,0,0,0,2.41Z"/><path class="cls-1" d="M2122.37,83.7a1.21,1.21,0,0,0,0-2.41,1.21,1.21,0,0,0,0,2.41Z"/><path class="cls-1" d="M2079.12,78.12a1.21,1.21,0,0,0,0-2.41,1.21,1.21,0,0,0,0,2.41Z"/><path class="cls-1" d="M2093,81.74a1.21,1.21,0,0,0,0-2.41,1.21,1.21,0,0,0,0,2.41Z"/><path class="cls-1" d="M2148.89,79.63a1.21,1.21,0,0,0,0-2.41,1.21,1.21,0,0,0,0,2.41Z"/><path class="cls-1" d="M2135,76a1.21,1.21,0,0,0,0-2.41,1.21,1.21,0,0,0,0,2.41Z"/><path class="cls-1" d="M2176.38,84.44a1.2,1.2,0,0,0,0-2.4,1.2,1.2,0,0,0,0,2.4Z"/><path class="cls-1" d="M2162.52,80.83a1.21,1.21,0,0,0,0-2.41,1.21,1.21,0,0,0,0,2.41Z"/><path class="cls-1" d="M2208.37,80.25a1.21,1.21,0,0,0,0-2.41,1.21,1.21,0,0,0,0,2.41Z"/><path class="cls-1" d="M2170.23,71a1.21,1.21,0,0,0,0-2.41,1.21,1.21,0,0,0,0,2.41Z"/><path class="cls-1" d="M2184.09,74.57a1.21,1.21,0,0,0,0-2.41,1.21,1.21,0,0,0,0,2.41Z"/><path class="cls-1" d="M2156.6,69.75a1.21,1.21,0,0,0,0-2.41,1.21,1.21,0,0,0,0,2.41Z"/><path class="cls-1" d="M2127.2,67.79a1.21,1.21,0,0,0,0-2.41,1.21,1.21,0,0,0,0,2.41Z"/><path class="cls-1" d="M2041.17,76.39a1.21,1.21,0,0,0,0-2.41,1.21,1.21,0,0,0,0,2.41Z"/><path class="cls-1" d="M2027,74.37a1.21,1.21,0,0,0,0-2.41,1.21,1.21,0,0,0,0,2.41Z"/><path class="cls-1" d="M2069,78.05a1.2,1.2,0,0,0,0-2.4,1.2,1.2,0,0,0,0,2.4Z"/><path class="cls-1" d="M2054.85,76a1.2,1.2,0,0,0,0-2.4,1.2,1.2,0,0,0,0,2.4Z"/><path class="cls-1" d="M2100.34,70.26a1.21,1.21,0,0,0,0-2.41,1.21,1.21,0,0,0,0,2.41Z"/><path class="cls-1" d="M2075.58,67.36a1.2,1.2,0,0,0,0-2.4,1.2,1.2,0,0,0,0,2.4Z"/><path class="cls-1" d="M2044,84.39a1.21,1.21,0,0,0,0-2.41,1.21,1.21,0,0,0,0,2.41Z"/><path class="cls-1" d="M2047,79.75a1.21,1.21,0,0,0,0-2.41,1.21,1.21,0,0,0,0,2.41Z"/><path class="cls-1" d="M1972.32,90.8a1.21,1.21,0,0,0,0-2.41,1.21,1.21,0,0,0,0,2.41Z"/><path class="cls-1" d="M1958.14,88.78a1.21,1.21,0,0,0,0-2.41,1.21,1.21,0,0,0,0,2.41Z"/><path class="cls-1" d="M2000.19,92.46a1.21,1.21,0,0,0,0-2.41,1.21,1.21,0,0,0,0,2.41Z"/><path class="cls-1" d="M1986,90.44a1.2,1.2,0,0,0,0-2.4,1.2,1.2,0,0,0,0,2.4Z"/><path class="cls-1" d="M2031.49,84.67a1.21,1.21,0,0,0,0-2.41,1.21,1.21,0,0,0,0,2.41Z"/><path class="cls-1" d="M1992.55,79.75a1.2,1.2,0,0,0,0-2.4,1.2,1.2,0,0,0,0,2.4Z"/><path class="cls-1" d="M2006.73,81.77a1.2,1.2,0,0,0,0-2.4,1.2,1.2,0,0,0,0,2.4Z"/><path class="cls-1" d="M1964.68,78.09a1.21,1.21,0,0,0,0-2.41,1.21,1.21,0,0,0,0,2.41Z"/><path class="cls-1" d="M1978.87,80.11a1.21,1.21,0,0,0,0-2.41,1.21,1.21,0,0,0,0,2.41Z"/><path class="cls-1" d="M1935.26,79.48a1.2,1.2,0,0,0,0-2.4,1.2,1.2,0,0,0,0,2.4Z"/><path class="cls-1" d="M1949.44,81.5a1.2,1.2,0,0,0,0-2.4,1.2,1.2,0,0,0,0,2.4Z"/><path class="cls-1" d="M1869.2,92.92a1.21,1.21,0,0,0,0-2.41,1.21,1.21,0,0,0,0,2.41Z"/><path class="cls-1" d="M1855,90.9a1.2,1.2,0,0,0,0-2.4,1.2,1.2,0,0,0,0,2.4Z"/><path class="cls-1" d="M1897.07,94.58a1.2,1.2,0,0,0,0-2.4,1.2,1.2,0,0,0,0,2.4Z"/><path class="cls-1" d="M1882.89,92.57a1.21,1.21,0,0,0,0-2.41,1.21,1.21,0,0,0,0,2.41Z"/><path class="cls-1" d="M1928.37,86.79a1.21,1.21,0,0,0,0-2.41,1.21,1.21,0,0,0,0,2.41Z"/><path class="cls-1" d="M1889.43,81.88a1.21,1.21,0,0,0,0-2.41,1.21,1.21,0,0,0,0,2.41Z"/><path class="cls-1" d="M1903.61,83.9a1.21,1.21,0,0,0,0-2.41,1.21,1.21,0,0,0,0,2.41Z"/><path class="cls-1" d="M1861.56,80.21a1.2,1.2,0,0,0,0-2.4,1.2,1.2,0,0,0,0,2.4Z"/><path class="cls-1" d="M1875.74,82.23a1.2,1.2,0,0,0,0-2.4,1.2,1.2,0,0,0,0,2.4Z"/><path class="cls-1" d="M1832.13,81.61a1.21,1.21,0,0,0,0-2.41,1.21,1.21,0,0,0,0,2.41Z"/><path class="cls-1" d="M1846.32,83.63a1.21,1.21,0,0,0,0-2.41,1.21,1.21,0,0,0,0,2.41Z"/><path class="cls-1" d="M1764.74,93.6a1.21,1.21,0,0,0,0-2.41,1.21,1.21,0,0,0,0,2.41Z"/><path class="cls-1" d="M1750.56,91.58a1.21,1.21,0,0,0,0-2.41,1.21,1.21,0,0,0,0,2.41Z"/><path class="cls-1" d="M1792.6,95.26a1.2,1.2,0,0,0,0-2.4,1.2,1.2,0,0,0,0,2.4Z"/><path class="cls-1" d="M1778.42,93.24a1.2,1.2,0,0,0,0-2.4,1.2,1.2,0,0,0,0,2.4Z"/><path class="cls-1" d="M1823.91,87.47a1.21,1.21,0,0,0,0-2.41,1.21,1.21,0,0,0,0,2.41Z"/><path class="cls-1" d="M1657.07,97.29a1.2,1.2,0,0,0,0-2.4,1.2,1.2,0,0,0,0,2.4Z"/><path class="cls-1" d="M1642.89,95.28a1.21,1.21,0,0,0,0-2.41,1.21,1.21,0,0,0,0,2.41Z"/><path class="cls-1" d="M1684.94,99a1.21,1.21,0,0,0,0-2.41,1.21,1.21,0,0,0,0,2.41Z"/><path class="cls-1" d="M1670.76,96.94a1.21,1.21,0,0,0,0-2.41,1.21,1.21,0,0,0,0,2.41Z"/><path class="cls-1" d="M1716.24,91.16a1.21,1.21,0,0,0,0-2.41,1.21,1.21,0,0,0,0,2.41Z"/><path class="cls-1" d="M1620,86a1.21,1.21,0,0,0,0-2.41,1.21,1.21,0,0,0,0,2.41Z"/><path class="cls-1" d="M1634.19,88a1.21,1.21,0,0,0,0-2.41,1.21,1.21,0,0,0,0,2.41Z"/><path class="cls-1" d="M909.84,103a1.21,1.21,0,0,0,0-2.41,1.21,1.21,0,0,0,0,2.41Z"/><path class="cls-1" d="M895.66,100.94a1.21,1.21,0,0,0,0-2.41,1.21,1.21,0,0,0,0,2.41Z"/><path class="cls-1" d="M937.7,104.62a1.21,1.21,0,0,0,0-2.41,1.21,1.21,0,0,0,0,2.41Z"/><path class="cls-1" d="M923.52,102.6a1.2,1.2,0,0,0,0-2.4,1.2,1.2,0,0,0,0,2.4Z"/><path class="cls-1" d="M969,96.83a1.21,1.21,0,0,0,0-2.41,1.21,1.21,0,0,0,0,2.41Z"/><path class="cls-1" d="M816.75,95.56a1.21,1.21,0,0,0,0-2.41,1.21,1.21,0,0,0,0,2.41Z"/><path class="cls-1" d="M802.57,93.54a1.21,1.21,0,0,0,0-2.41,1.21,1.21,0,0,0,0,2.41Z"/><path class="cls-1" d="M844.61,97.22a1.21,1.21,0,0,0,0-2.41,1.21,1.21,0,0,0,0,2.41Z"/><path class="cls-1" d="M830.43,95.2a1.21,1.21,0,0,0,0-2.41,1.21,1.21,0,0,0,0,2.41Z"/><path class="cls-1" d="M809.11,82.85a1.21,1.21,0,0,0,0-2.41,1.21,1.21,0,0,0,0,2.41Z"/><path class="cls-1" d="M823.29,84.87a1.21,1.21,0,0,0,0-2.41,1.21,1.21,0,0,0,0,2.41Z"/><path class="cls-1" d="M714,83.47a1.21,1.21,0,0,0,0-2.41,1.21,1.21,0,0,0,0,2.41Z"/><path class="cls-1" d="M756,87.15a1.21,1.21,0,0,0,0-2.41,1.21,1.21,0,0,0,0,2.41Z"/><path class="cls-1" d="M691.11,74.17a1.21,1.21,0,0,0,0-2.41,1.21,1.21,0,0,0,0,2.41Z"/><path class="cls-1" d="M705.29,76.19a1.21,1.21,0,0,0,0-2.41,1.21,1.21,0,0,0,0,2.41Z"/><path class="cls-1" d="M644.12,74.45a1.21,1.21,0,0,0,0-2.41,1.21,1.21,0,0,0,0,2.41Z"/><path class="cls-1" d="M629.94,72.43a1.21,1.21,0,0,0,0-2.41,1.21,1.21,0,0,0,0,2.41Z"/><path class="cls-1" d="M672,76.11a1.21,1.21,0,0,0,0-2.41,1.21,1.21,0,0,0,0,2.41Z"/><path class="cls-1" d="M657.8,74.09a1.21,1.21,0,0,0,0-2.41,1.21,1.21,0,0,0,0,2.41Z"/><path class="cls-1" d="M703.29,68.32a1.21,1.21,0,0,0,0-2.41,1.21,1.21,0,0,0,0,2.41Z"/><path class="cls-1" d="M753,90.71a1.21,1.21,0,0,0,0-2.41,1.21,1.21,0,0,0,0,2.41Z"/><path class="cls-1" d="M636.48,61.74a1.21,1.21,0,0,0,0-2.41,1.21,1.21,0,0,0,0,2.41Z"/><path class="cls-1" d="M650.66,63.76a1.21,1.21,0,0,0,0-2.41,1.21,1.21,0,0,0,0,2.41Z"/><path class="cls-1" d="M607.05,63.13a1.2,1.2,0,0,0,0-2.4,1.2,1.2,0,0,0,0,2.4Z"/><path class="cls-1" d="M488.51,56.14a1.21,1.21,0,0,0,0-2.41,1.21,1.21,0,0,0,0,2.41Z"/><path class="cls-1" d="M474.33,54.12a1.21,1.21,0,0,0,0-2.41,1.21,1.21,0,0,0,0,2.41Z"/><path class="cls-1" d="M516.38,57.8a1.2,1.2,0,0,0,0-2.4,1.2,1.2,0,0,0,0,2.4Z"/><path class="cls-1" d="M502.2,55.79a1.21,1.21,0,0,0,0-2.41,1.21,1.21,0,0,0,0,2.41Z"/><path class="cls-1" d="M566,67.07a1.21,1.21,0,0,0,0-2.41,1.21,1.21,0,0,0,0,2.41Z"/><path class="cls-1" d="M508.74,45.1a1.21,1.21,0,0,0,0-2.41,1.21,1.21,0,0,0,0,2.41Z"/><path class="cls-1" d="M522.92,47.11a1.2,1.2,0,0,0,0-2.4,1.2,1.2,0,0,0,0,2.4Z"/><path class="cls-1" d="M483.2,39.19a1.2,1.2,0,0,0,0-2.4,1.2,1.2,0,0,0,0,2.4Z"/><path class="cls-1" d="M495.05,45.45a1.21,1.21,0,0,0,0-2.41,1.21,1.21,0,0,0,0,2.41Z"/><path class="cls-1" d="M451.44,44.83a1.21,1.21,0,0,0,0-2.41,1.21,1.21,0,0,0,0,2.41Z"/><path class="cls-1" d="M465.63,46.84a1.2,1.2,0,0,0,0-2.4,1.2,1.2,0,0,0,0,2.4Z"/><path class="cls-1" d="M397.18,46.29a1.21,1.21,0,0,0,0-2.41,1.21,1.21,0,0,0,0,2.41Z"/><path class="cls-1" d="M383,44.27a1.21,1.21,0,0,0,0-2.41,1.21,1.21,0,0,0,0,2.41Z"/><path class="cls-1" d="M425.05,48a1.21,1.21,0,0,0,0-2.41,1.21,1.21,0,0,0,0,2.41Z"/><path class="cls-1" d="M410.87,45.93a1.21,1.21,0,0,0,0-2.41,1.21,1.21,0,0,0,0,2.41Z"/><path class="cls-1" d="M456.35,40.15a1.2,1.2,0,0,0,0-2.4,1.2,1.2,0,0,0,0,2.4Z"/><path class="cls-1" d="M417.41,35.24a1.21,1.21,0,0,0,0-2.41,1.21,1.21,0,0,0,0,2.41Z"/><path class="cls-1" d="M431.59,37.26a1.21,1.21,0,0,0,0-2.41,1.21,1.21,0,0,0,0,2.41Z"/><path class="cls-1" d="M389.55,33.58a1.21,1.21,0,0,0,0-2.41,1.21,1.21,0,0,0,0,2.41Z"/><path class="cls-1" d="M403.73,35.6a1.21,1.21,0,0,0,0-2.41,1.21,1.21,0,0,0,0,2.41Z"/><path class="cls-1" d="M360.12,35a1.21,1.21,0,0,0,0-2.41,1.21,1.21,0,0,0,0,2.41Z"/><path class="cls-1" d="M374.3,37a1.21,1.21,0,0,0,0-2.41,1.21,1.21,0,0,0,0,2.41Z"/><path class="cls-1" d="M295,47.08a1.21,1.21,0,0,0,0-2.41,1.21,1.21,0,0,0,0,2.41Z"/><path class="cls-1" d="M280.84,45.06a1.21,1.21,0,0,0,0-2.41,1.21,1.21,0,0,0,0,2.41Z"/><path class="cls-1" d="M322.88,48.74a1.21,1.21,0,0,0,0-2.41,1.21,1.21,0,0,0,0,2.41Z"/><path class="cls-1" d="M308.7,46.72a1.21,1.21,0,0,0,0-2.41,1.21,1.21,0,0,0,0,2.41Z"/><path class="cls-1" d="M354.19,40.94a1.2,1.2,0,0,0,0-2.4,1.2,1.2,0,0,0,0,2.4Z"/><path class="cls-1" d="M315.24,36a1.21,1.21,0,0,0,0-2.41,1.21,1.21,0,0,0,0,2.41Z"/><path class="cls-1" d="M329.42,38.05a1.21,1.21,0,0,0,0-2.41,1.21,1.21,0,0,0,0,2.41Z"/><path class="cls-1" d="M287.38,34.37a1.21,1.21,0,0,0,0-2.41,1.21,1.21,0,0,0,0,2.41Z"/><path class="cls-1" d="M301.56,36.39a1.21,1.21,0,0,0,0-2.41,1.21,1.21,0,0,0,0,2.41Z"/><path class="cls-1" d="M258,35.76a1.21,1.21,0,0,0,0-2.41,1.21,1.21,0,0,0,0,2.41Z"/><path class="cls-1" d="M272.13,37.78a1.21,1.21,0,0,0,0-2.41,1.21,1.21,0,0,0,0,2.41Z"/><path class="cls-1" d="M91.9,30.61a1.2,1.2,0,0,0,0-2.4,1.2,1.2,0,0,0,0,2.4Z"/><path class="cls-1" d="M77.72,28.6a1.21,1.21,0,0,0,0-2.41,1.21,1.21,0,0,0,0,2.41Z"/><path class="cls-1" d="M119.77,32.28a1.21,1.21,0,0,0,0-2.41,1.21,1.21,0,0,0,0,2.41Z"/><path class="cls-1" d="M105.59,30.26a1.21,1.21,0,0,0,0-2.41,1.21,1.21,0,0,0,0,2.41Z"/><path class="cls-1" d="M151.07,24.48a1.21,1.21,0,0,0,0-2.41,1.21,1.21,0,0,0,0,2.41Z"/><path class="cls-1" d="M112.13,19.57a1.21,1.21,0,0,0,0-2.41,1.21,1.21,0,0,0,0,2.41Z"/><path class="cls-1" d="M126.31,21.59a1.21,1.21,0,0,0,0-2.41,1.21,1.21,0,0,0,0,2.41Z"/><path class="cls-1" d="M84.26,17.91a1.21,1.21,0,0,0,0-2.41,1.21,1.21,0,0,0,0,2.41Z"/><path class="cls-1" d="M98.45,19.93a1.21,1.21,0,0,0,0-2.41,1.21,1.21,0,0,0,0,2.41Z"/><path class="cls-1" d="M54.84,19.3a1.21,1.21,0,0,0,0-2.41,1.21,1.21,0,0,0,0,2.41Z"/><path class="cls-1" d="M69,21.32a1.21,1.21,0,0,0,0-2.41,1.21,1.21,0,0,0,0,2.41Z"/><path class="cls-1" d="M199.72,32.71a1.21,1.21,0,0,0,0-2.41,1.21,1.21,0,0,0,0,2.41Z"/><path class="cls-1" d="M185.54,30.69a1.2,1.2,0,0,0,0-2.4,1.2,1.2,0,0,0,0,2.4Z"/><path class="cls-1" d="M227.58,34.37a1.2,1.2,0,0,0,0-2.4,1.2,1.2,0,0,0,0,2.4Z"/><path class="cls-1" d="M213.4,32.36a1.21,1.21,0,0,0,0-2.41,1.21,1.21,0,0,0,0,2.41Z"/><path class="cls-1" d="M258.89,26.58a1.21,1.21,0,0,0,0-2.41,1.21,1.21,0,0,0,0,2.41Z"/><path class="cls-1" d="M220,21.67a1.21,1.21,0,0,0,0-2.41,1.21,1.21,0,0,0,0,2.41Z"/><path class="cls-1" d="M234.13,23.69a1.21,1.21,0,0,0,0-2.41,1.21,1.21,0,0,0,0,2.41Z"/><path class="cls-1" d="M192.08,20a1.2,1.2,0,0,0,0-2.4,1.2,1.2,0,0,0,0,2.4Z"/><path class="cls-1" d="M206.26,22a1.2,1.2,0,0,0,0-2.4,1.2,1.2,0,0,0,0,2.4Z"/><path class="cls-1" d="M162.65,21.4a1.21,1.21,0,0,0,0-2.41,1.21,1.21,0,0,0,0,2.41Z"/><path class="cls-1" d="M176.83,23.42a1.21,1.21,0,0,0,0-2.41,1.21,1.21,0,0,0,0,2.41Z"/><path class="cls-1" d="M144.63,17.37a1.2,1.2,0,0,0,0-2.4,1.2,1.2,0,0,0,0,2.4Z"/><path class="cls-1" d="M130.45,15.35a1.2,1.2,0,0,0,0-2.4,1.2,1.2,0,0,0,0,2.4Z"/><path class="cls-1" d="M172.49,19a1.21,1.21,0,0,0,0-2.41,1.21,1.21,0,0,0,0,2.41Z"/><path class="cls-1" d="M158.31,17a1.21,1.21,0,0,0,0-2.41,1.21,1.21,0,0,0,0,2.41Z"/><path class="cls-1" d="M203.8,11.24a1.21,1.21,0,0,0,0-2.41,1.21,1.21,0,0,0,0,2.41Z"/><path class="cls-1" d="M164.86,6.33a1.21,1.21,0,0,0,0-2.41,1.21,1.21,0,0,0,0,2.41Z"/><path class="cls-1" d="M179,8.35a1.21,1.21,0,0,0,0-2.41,1.21,1.21,0,0,0,0,2.41Z"/><path class="cls-1" d="M137,4.67a1.21,1.21,0,0,0,0-2.41,1.21,1.21,0,0,0,0,2.41Z"/><path class="cls-1" d="M151.17,6.68a1.2,1.2,0,0,0,0-2.4,1.2,1.2,0,0,0,0,2.4Z"/><path class="cls-1" d="M107.56,6.06a1.21,1.21,0,0,0,0-2.41,1.21,1.21,0,0,0,0,2.41Z"/><path class="cls-1" d="M121.74,8.08a1.21,1.21,0,0,0,0-2.41,1.21,1.21,0,0,0,0,2.41Z"/><path class="cls-1" d="M38.23,15.12a1.21,1.21,0,0,0,0-2.41,1.21,1.21,0,0,0,0,2.41Z"/><path class="cls-1" d="M67.51,43.77a1.2,1.2,0,0,0,0-2.4,1.2,1.2,0,0,0,0,2.4Z"/><path class="cls-1" d="M66.1,16.78a1.21,1.21,0,0,0,0-2.41,1.21,1.21,0,0,0,0,2.41Z"/><path class="cls-1" d="M51.91,14.76a1.21,1.21,0,0,0,0-2.41,1.21,1.21,0,0,0,0,2.41Z"/><path class="cls-1" d="M97.4,9a1.2,1.2,0,0,0,0-2.4,1.2,1.2,0,0,0,0,2.4Z"/><path class="cls-1" d="M58.46,4.07a1.21,1.21,0,0,0,0-2.41,1.21,1.21,0,0,0,0,2.41Z"/><path class="cls-1" d="M72.64,6.09a1.21,1.21,0,0,0,0-2.41,1.21,1.21,0,0,0,0,2.41Z"/><path class="cls-1" d="M30.59,2.41a1.21,1.21,0,0,0,0-2.41,1.21,1.21,0,0,0,0,2.41Z"/><path class="cls-1" d="M44.77,4.43a1.21,1.21,0,0,0,0-2.41,1.21,1.21,0,0,0,0,2.41Z"/><path class="cls-1" d="M1.16,3.8a1.21,1.21,0,0,0,0-2.41,1.21,1.21,0,0,0,0,2.41Z"/><path class="cls-1" d="M60.39,40.29a1.21,1.21,0,0,0,0-2.41,1.21,1.21,0,0,0,0,2.41Z"/><path class="cls-1" d="M253.3,18.81a1.21,1.21,0,0,0,0-2.41,1.21,1.21,0,0,0,0,2.41Z"/><path class="cls-1" d="M239.12,16.79a1.21,1.21,0,0,0,0-2.41,1.21,1.21,0,0,0,0,2.41Z"/><path class="cls-1" d="M281.16,20.47a1.21,1.21,0,0,0,0-2.41,1.21,1.21,0,0,0,0,2.41Z"/><path class="cls-1" d="M267,18.45A1.21,1.21,0,0,0,267,16a1.21,1.21,0,0,0,0,2.41Z"/><path class="cls-1" d="M312.47,12.68a1.21,1.21,0,0,0,0-2.41,1.21,1.21,0,0,0,0,2.41Z"/><path class="cls-1" d="M273.52,7.76a1.2,1.2,0,0,0,0-2.4,1.2,1.2,0,0,0,0,2.4Z"/><path class="cls-1" d="M287.7,9.78a1.21,1.21,0,0,0,0-2.41,1.21,1.21,0,0,0,0,2.41Z"/><path class="cls-1" d="M245.66,6.1a1.21,1.21,0,0,0,0-2.41,1.21,1.21,0,0,0,0,2.41Z"/><path class="cls-1" d="M259.84,8.12a1.21,1.21,0,0,0,0-2.41,1.21,1.21,0,0,0,0,2.41Z"/><path class="cls-1" d="M216.23,7.49a1.2,1.2,0,0,0,0-2.4,1.2,1.2,0,0,0,0,2.4Z"/><path class="cls-1" d="M230.41,9.51a1.21,1.21,0,0,0,0-2.41,1.21,1.21,0,0,0,0,2.41Z"/><path class="cls-1" d="M312,29.75a1.21,1.21,0,0,0,0-2.41,1.21,1.21,0,0,0,0,2.41Z"/><path class="cls-1" d="M297.83,27.73a1.21,1.21,0,0,0,0-2.41,1.21,1.21,0,0,0,0,2.41Z"/><path class="cls-1" d="M339.87,31.41a1.21,1.21,0,0,0,0-2.41,1.21,1.21,0,0,0,0,2.41Z"/><path class="cls-1" d="M325.69,29.39a1.21,1.21,0,0,0,0-2.41,1.21,1.21,0,0,0,0,2.41Z"/><path class="cls-1" d="M371.18,23.62a1.21,1.21,0,0,0,0-2.41,1.21,1.21,0,0,0,0,2.41Z"/><path class="cls-1" d="M332.24,18.7a1.2,1.2,0,0,0,0-2.4,1.2,1.2,0,0,0,0,2.4Z"/><path class="cls-1" d="M346.42,20.72a1.21,1.21,0,0,0,0-2.41,1.21,1.21,0,0,0,0,2.41Z"/><path class="cls-1" d="M304.37,17a1.21,1.21,0,0,0,0-2.41,1.21,1.21,0,0,0,0,2.41Z"/><path class="cls-1" d="M318.55,19.06a1.21,1.21,0,0,0,0-2.41,1.21,1.21,0,0,0,0,2.41Z"/><path class="cls-1" d="M274.94,18.43a1.2,1.2,0,0,0,0-2.4,1.2,1.2,0,0,0,0,2.4Z"/><path class="cls-1" d="M289.12,20.45a1.21,1.21,0,0,0,0-2.41,1.21,1.21,0,0,0,0,2.41Z"/><path class="cls-1" d="M420.17,29.49a1.21,1.21,0,0,0,0-2.41,1.21,1.21,0,0,0,0,2.41Z"/><path class="cls-1" d="M406,27.47a1.21,1.21,0,0,0,0-2.41,1.21,1.21,0,0,0,0,2.41Z"/><path class="cls-1" d="M448,31.15a1.21,1.21,0,0,0,0-2.41,1.21,1.21,0,0,0,0,2.41Z"/><path class="cls-1" d="M433.85,29.13a1.21,1.21,0,0,0,0-2.41,1.21,1.21,0,0,0,0,2.41Z"/><path class="cls-1" d="M479.34,23.35a1.2,1.2,0,0,0,0-2.4,1.2,1.2,0,0,0,0,2.4Z"/><path class="cls-1" d="M440.39,18.44a1.21,1.21,0,0,0,0-2.41,1.21,1.21,0,0,0,0,2.41Z"/><path class="cls-1" d="M545.6,61.85a1.21,1.21,0,0,0,0-2.41,1.21,1.21,0,0,0,0,2.41Z"/><path class="cls-1" d="M412.53,16.78a1.21,1.21,0,0,0,0-2.41,1.21,1.21,0,0,0,0,2.41Z"/><path class="cls-1" d="M426.71,18.8a1.21,1.21,0,0,0,0-2.41,1.21,1.21,0,0,0,0,2.41Z"/><path class="cls-1" d="M383.1,18.17a1.21,1.21,0,0,0,0-2.41,1.21,1.21,0,0,0,0,2.41Z"/><path class="cls-1" d="M397.28,20.19a1.21,1.21,0,0,0,0-2.41,1.21,1.21,0,0,0,0,2.41Z"/><path class="cls-1" d="M532.69,33.39a1.21,1.21,0,0,0,0-2.41,1.21,1.21,0,0,0,0,2.41Z"/><path class="cls-1" d="M507.93,30.5a1.21,1.21,0,0,0,0-2.41,1.21,1.21,0,0,0,0,2.41Z"/><path class="cls-1" d="M545.12,29.65a1.21,1.21,0,0,0,0-2.41,1.21,1.21,0,0,0,0,2.41Z"/><path class="cls-1" d="M2337,75.2a1.21,1.21,0,0,0,0-2.41,1.21,1.21,0,0,0,0,2.41Z"/><path class="cls-1" d="M2323.38,74a1.21,1.21,0,0,0,0-2.41,1.21,1.21,0,0,0,0,2.41Z"/><path class="cls-1" d="M2442.87,76.61a1.2,1.2,0,0,0,0-2.4,1.2,1.2,0,0,0,0,2.4Z"/><path class="cls-1" d="M2294,72a1.2,1.2,0,0,0,0-2.4,1.2,1.2,0,0,0,0,2.4Z"/><path class="cls-1" d="M2267.12,74.51a1.21,1.21,0,0,0,0-2.41,1.21,1.21,0,0,0,0,2.41Z"/><path class="cls-1" d="M2228.17,69.6a1.21,1.21,0,0,0,0-2.41,1.21,1.21,0,0,0,0,2.41Z"/><path class="cls-1" d="M2242.35,71.62a1.21,1.21,0,0,0,0-2.41,1.21,1.21,0,0,0,0,2.41Z"/><path class="cls-1" d="M2202.46,70a1.2,1.2,0,0,0,0-2.4,1.2,1.2,0,0,0,0,2.4Z"/><path class="cls-1" d="M2214.49,70a1.2,1.2,0,0,0,0-2.4,1.2,1.2,0,0,0,0,2.4Z"/><path class="cls-1" d="M2427.42,85.55a1.21,1.21,0,0,0,0-2.41,1.21,1.21,0,0,0,0,2.41Z"/><path class="cls-1" d="M2389.28,76.24a1.21,1.21,0,0,0,0-2.41,1.21,1.21,0,0,0,0,2.41Z"/><path class="cls-1" d="M2403.14,79.86a1.21,1.21,0,0,0,0-2.41,1.21,1.21,0,0,0,0,2.41Z"/><path class="cls-1" d="M2361.79,71.43a1.21,1.21,0,0,0,0-2.41,1.21,1.21,0,0,0,0,2.41Z"/><path class="cls-1" d="M2375.65,75a1.2,1.2,0,0,0,0-2.4,1.2,1.2,0,0,0,0,2.4Z"/><path class="cls-1" d="M2321.76,80.4a1.21,1.21,0,0,0,0-2.41,1.21,1.21,0,0,0,0,2.41Z"/><path class="cls-1" d="M2346.25,73.09a1.21,1.21,0,0,0,0-2.41,1.21,1.21,0,0,0,0,2.41Z"/><path class="cls-1" d="M2114.66,93.57a1.2,1.2,0,0,0,0-2.4,1.2,1.2,0,0,0,0,2.4Z"/><path class="cls-1" d="M2100.8,90a1.21,1.21,0,0,0,0-2.41,1.21,1.21,0,0,0,0,2.41Z"/><path class="cls-1" d="M2142.15,98.39a1.21,1.21,0,0,0,0-2.41,1.21,1.21,0,0,0,0,2.41Z"/><path class="cls-1" d="M2128.29,94.77a1.2,1.2,0,0,0,0-2.4,1.2,1.2,0,0,0,0,2.4Z"/><path class="cls-1" d="M2174.14,94.2a1.21,1.21,0,0,0,0-2.41,1.21,1.21,0,0,0,0,2.41Z"/><path class="cls-1" d="M2136,84.9a1.21,1.21,0,0,0,0-2.41,1.21,1.21,0,0,0,0,2.41Z"/><path class="cls-1" d="M2149.87,88.51a1.21,1.21,0,0,0,0-2.41,1.21,1.21,0,0,0,0,2.41Z"/><path class="cls-1" d="M2108.51,80.08a1.21,1.21,0,0,0,0-2.41,1.21,1.21,0,0,0,0,2.41Z"/><path class="cls-1" d="M2122.37,83.7a1.21,1.21,0,0,0,0-2.41,1.21,1.21,0,0,0,0,2.41Z"/><path class="cls-1" d="M2079.12,78.12a1.21,1.21,0,0,0,0-2.41,1.21,1.21,0,0,0,0,2.41Z"/><path class="cls-1" d="M2093,81.74a1.21,1.21,0,0,0,0-2.41,1.21,1.21,0,0,0,0,2.41Z"/><path class="cls-1" d="M2148.89,79.63a1.21,1.21,0,0,0,0-2.41,1.21,1.21,0,0,0,0,2.41Z"/><path class="cls-1" d="M2135,76a1.21,1.21,0,0,0,0-2.41,1.21,1.21,0,0,0,0,2.41Z"/><path class="cls-1" d="M2176.38,84.44a1.2,1.2,0,0,0,0-2.4,1.2,1.2,0,0,0,0,2.4Z"/><path class="cls-1" d="M2162.52,80.83a1.21,1.21,0,0,0,0-2.41,1.21,1.21,0,0,0,0,2.41Z"/><path class="cls-1" d="M2208.37,80.25a1.21,1.21,0,0,0,0-2.41,1.21,1.21,0,0,0,0,2.41Z"/><path class="cls-1" d="M2170.23,71a1.21,1.21,0,0,0,0-2.41,1.21,1.21,0,0,0,0,2.41Z"/><path class="cls-1" d="M2184.09,74.57a1.21,1.21,0,0,0,0-2.41,1.21,1.21,0,0,0,0,2.41Z"/><path class="cls-1" d="M2156.6,69.75a1.21,1.21,0,0,0,0-2.41,1.21,1.21,0,0,0,0,2.41Z"/><path class="cls-1" d="M2127.2,67.79a1.21,1.21,0,0,0,0-2.41,1.21,1.21,0,0,0,0,2.41Z"/><path class="cls-1" d="M2041.17,76.39a1.21,1.21,0,0,0,0-2.41,1.21,1.21,0,0,0,0,2.41Z"/><path class="cls-1" d="M2027,74.37a1.21,1.21,0,0,0,0-2.41,1.21,1.21,0,0,0,0,2.41Z"/><path class="cls-1" d="M2069,78.05a1.2,1.2,0,0,0,0-2.4,1.2,1.2,0,0,0,0,2.4Z"/><path class="cls-1" d="M2054.85,76a1.2,1.2,0,0,0,0-2.4,1.2,1.2,0,0,0,0,2.4Z"/><path class="cls-1" d="M2100.34,70.26a1.21,1.21,0,0,0,0-2.41,1.21,1.21,0,0,0,0,2.41Z"/><path class="cls-1" d="M2075.58,67.36a1.2,1.2,0,0,0,0-2.4,1.2,1.2,0,0,0,0,2.4Z"/><path class="cls-1" d="M2044,84.39a1.21,1.21,0,0,0,0-2.41,1.21,1.21,0,0,0,0,2.41Z"/><path class="cls-1" d="M2047,79.75a1.21,1.21,0,0,0,0-2.41,1.21,1.21,0,0,0,0,2.41Z"/><path class="cls-1" d="M1972.32,90.8a1.21,1.21,0,0,0,0-2.41,1.21,1.21,0,0,0,0,2.41Z"/><path class="cls-1" d="M1958.14,88.78a1.21,1.21,0,0,0,0-2.41,1.21,1.21,0,0,0,0,2.41Z"/><path class="cls-1" d="M2000.19,92.46a1.21,1.21,0,0,0,0-2.41,1.21,1.21,0,0,0,0,2.41Z"/><path class="cls-1" d="M1986,90.44a1.2,1.2,0,0,0,0-2.4,1.2,1.2,0,0,0,0,2.4Z"/><path class="cls-1" d="M2031.49,84.67a1.21,1.21,0,0,0,0-2.41,1.21,1.21,0,0,0,0,2.41Z"/><path class="cls-1" d="M1992.55,79.75a1.2,1.2,0,0,0,0-2.4,1.2,1.2,0,0,0,0,2.4Z"/><path class="cls-1" d="M2006.73,81.77a1.2,1.2,0,0,0,0-2.4,1.2,1.2,0,0,0,0,2.4Z"/><path class="cls-1" d="M1964.68,78.09a1.21,1.21,0,0,0,0-2.41,1.21,1.21,0,0,0,0,2.41Z"/><path class="cls-1" d="M1978.87,80.11a1.21,1.21,0,0,0,0-2.41,1.21,1.21,0,0,0,0,2.41Z"/><path class="cls-1" d="M1935.26,79.48a1.2,1.2,0,0,0,0-2.4,1.2,1.2,0,0,0,0,2.4Z"/><path class="cls-1" d="M1949.44,81.5a1.2,1.2,0,0,0,0-2.4,1.2,1.2,0,0,0,0,2.4Z"/><path class="cls-1" d="M1869.2,92.92a1.21,1.21,0,0,0,0-2.41,1.21,1.21,0,0,0,0,2.41Z"/><path class="cls-1" d="M1855,90.9a1.2,1.2,0,0,0,0-2.4,1.2,1.2,0,0,0,0,2.4Z"/><path class="cls-1" d="M1897.07,94.58a1.2,1.2,0,0,0,0-2.4,1.2,1.2,0,0,0,0,2.4Z"/><path class="cls-1" d="M1882.89,92.57a1.21,1.21,0,0,0,0-2.41,1.21,1.21,0,0,0,0,2.41Z"/><path class="cls-1" d="M1928.37,86.79a1.21,1.21,0,0,0,0-2.41,1.21,1.21,0,0,0,0,2.41Z"/><path class="cls-1" d="M1889.43,81.88a1.21,1.21,0,0,0,0-2.41,1.21,1.21,0,0,0,0,2.41Z"/><path class="cls-1" d="M1903.61,83.9a1.21,1.21,0,0,0,0-2.41,1.21,1.21,0,0,0,0,2.41Z"/><path class="cls-1" d="M1861.56,80.21a1.2,1.2,0,0,0,0-2.4,1.2,1.2,0,0,0,0,2.4Z"/><path class="cls-1" d="M1875.74,82.23a1.2,1.2,0,0,0,0-2.4,1.2,1.2,0,0,0,0,2.4Z"/><path class="cls-1" d="M1832.13,81.61a1.21,1.21,0,0,0,0-2.41,1.21,1.21,0,0,0,0,2.41Z"/><path class="cls-1" d="M1846.32,83.63a1.21,1.21,0,0,0,0-2.41,1.21,1.21,0,0,0,0,2.41Z"/><path class="cls-1" d="M1764.74,93.6a1.21,1.21,0,0,0,0-2.41,1.21,1.21,0,0,0,0,2.41Z"/><path class="cls-1" d="M1750.56,91.58a1.21,1.21,0,0,0,0-2.41,1.21,1.21,0,0,0,0,2.41Z"/><path class="cls-1" d="M1792.6,95.26a1.2,1.2,0,0,0,0-2.4,1.2,1.2,0,0,0,0,2.4Z"/><path class="cls-1" d="M1778.42,93.24a1.2,1.2,0,0,0,0-2.4,1.2,1.2,0,0,0,0,2.4Z"/><path class="cls-1" d="M1823.91,87.47a1.21,1.21,0,0,0,0-2.41,1.21,1.21,0,0,0,0,2.41Z"/><path class="cls-1" d="M1657.07,97.29a1.2,1.2,0,0,0,0-2.4,1.2,1.2,0,0,0,0,2.4Z"/><path class="cls-1" d="M1642.89,95.28a1.21,1.21,0,0,0,0-2.41,1.21,1.21,0,0,0,0,2.41Z"/><path class="cls-1" d="M1684.94,99a1.21,1.21,0,0,0,0-2.41,1.21,1.21,0,0,0,0,2.41Z"/><path class="cls-1" d="M1670.76,96.94a1.21,1.21,0,0,0,0-2.41,1.21,1.21,0,0,0,0,2.41Z"/><path class="cls-1" d="M1716.24,91.16a1.21,1.21,0,0,0,0-2.41,1.21,1.21,0,0,0,0,2.41Z"/><path class="cls-1" d="M1620,86a1.21,1.21,0,0,0,0-2.41,1.21,1.21,0,0,0,0,2.41Z"/><path class="cls-1" d="M1634.19,88a1.21,1.21,0,0,0,0-2.41,1.21,1.21,0,0,0,0,2.41Z"/><path class="cls-1" d="M909.84,103a1.21,1.21,0,0,0,0-2.41,1.21,1.21,0,0,0,0,2.41Z"/><path class="cls-1" d="M895.66,100.94a1.21,1.21,0,0,0,0-2.41,1.21,1.21,0,0,0,0,2.41Z"/><path class="cls-1" d="M937.7,104.62a1.21,1.21,0,0,0,0-2.41,1.21,1.21,0,0,0,0,2.41Z"/><path class="cls-1" d="M923.52,102.6a1.2,1.2,0,0,0,0-2.4,1.2,1.2,0,0,0,0,2.4Z"/><path class="cls-1" d="M969,96.83a1.21,1.21,0,0,0,0-2.41,1.21,1.21,0,0,0,0,2.41Z"/><path class="cls-1" d="M816.75,95.56a1.21,1.21,0,0,0,0-2.41,1.21,1.21,0,0,0,0,2.41Z"/><path class="cls-1" d="M802.57,93.54a1.21,1.21,0,0,0,0-2.41,1.21,1.21,0,0,0,0,2.41Z"/><path class="cls-1" d="M844.61,97.22a1.21,1.21,0,0,0,0-2.41,1.21,1.21,0,0,0,0,2.41Z"/><path class="cls-1" d="M830.43,95.2a1.21,1.21,0,0,0,0-2.41,1.21,1.21,0,0,0,0,2.41Z"/><path class="cls-1" d="M809.11,82.85a1.21,1.21,0,0,0,0-2.41,1.21,1.21,0,0,0,0,2.41Z"/><path class="cls-1" d="M823.29,84.87a1.21,1.21,0,0,0,0-2.41,1.21,1.21,0,0,0,0,2.41Z"/><path class="cls-1" d="M714,83.47a1.21,1.21,0,0,0,0-2.41,1.21,1.21,0,0,0,0,2.41Z"/><path class="cls-1" d="M756,87.15a1.21,1.21,0,0,0,0-2.41,1.21,1.21,0,0,0,0,2.41Z"/><path class="cls-1" d="M691.11,74.17a1.21,1.21,0,0,0,0-2.41,1.21,1.21,0,0,0,0,2.41Z"/><path class="cls-1" d="M705.29,76.19a1.21,1.21,0,0,0,0-2.41,1.21,1.21,0,0,0,0,2.41Z"/><path class="cls-1" d="M644.12,74.45a1.21,1.21,0,0,0,0-2.41,1.21,1.21,0,0,0,0,2.41Z"/><path class="cls-1" d="M629.94,72.43a1.21,1.21,0,0,0,0-2.41,1.21,1.21,0,0,0,0,2.41Z"/><path class="cls-1" d="M672,76.11a1.21,1.21,0,0,0,0-2.41,1.21,1.21,0,0,0,0,2.41Z"/><path class="cls-1" d="M657.8,74.09a1.21,1.21,0,0,0,0-2.41,1.21,1.21,0,0,0,0,2.41Z"/><path class="cls-1" d="M703.29,68.32a1.21,1.21,0,0,0,0-2.41,1.21,1.21,0,0,0,0,2.41Z"/><path class="cls-1" d="M753,90.71a1.21,1.21,0,0,0,0-2.41,1.21,1.21,0,0,0,0,2.41Z"/><path class="cls-1" d="M636.48,61.74a1.21,1.21,0,0,0,0-2.41,1.21,1.21,0,0,0,0,2.41Z"/><path class="cls-1" d="M650.66,63.76a1.21,1.21,0,0,0,0-2.41,1.21,1.21,0,0,0,0,2.41Z"/><path class="cls-1" d="M607.05,63.13a1.2,1.2,0,0,0,0-2.4,1.2,1.2,0,0,0,0,2.4Z"/><path class="cls-1" d="M488.51,56.14a1.21,1.21,0,0,0,0-2.41,1.21,1.21,0,0,0,0,2.41Z"/><path class="cls-1" d="M474.33,54.12a1.21,1.21,0,0,0,0-2.41,1.21,1.21,0,0,0,0,2.41Z"/><path class="cls-1" d="M516.38,57.8a1.2,1.2,0,0,0,0-2.4,1.2,1.2,0,0,0,0,2.4Z"/><path class="cls-1" d="M502.2,55.79a1.21,1.21,0,0,0,0-2.41,1.21,1.21,0,0,0,0,2.41Z"/><path class="cls-1" d="M566,67.07a1.21,1.21,0,0,0,0-2.41,1.21,1.21,0,0,0,0,2.41Z"/><path class="cls-1" d="M508.74,45.1a1.21,1.21,0,0,0,0-2.41,1.21,1.21,0,0,0,0,2.41Z"/><path class="cls-1" d="M522.92,47.11a1.2,1.2,0,0,0,0-2.4,1.2,1.2,0,0,0,0,2.4Z"/><path class="cls-1" d="M483.2,39.19a1.2,1.2,0,0,0,0-2.4,1.2,1.2,0,0,0,0,2.4Z"/><path class="cls-1" d="M495.05,45.45a1.21,1.21,0,0,0,0-2.41,1.21,1.21,0,0,0,0,2.41Z"/><path class="cls-1" d="M451.44,44.83a1.21,1.21,0,0,0,0-2.41,1.21,1.21,0,0,0,0,2.41Z"/><path class="cls-1" d="M465.63,46.84a1.2,1.2,0,0,0,0-2.4,1.2,1.2,0,0,0,0,2.4Z"/><path class="cls-1" d="M397.18,46.29a1.21,1.21,0,0,0,0-2.41,1.21,1.21,0,0,0,0,2.41Z"/><path class="cls-1" d="M383,44.27a1.21,1.21,0,0,0,0-2.41,1.21,1.21,0,0,0,0,2.41Z"/><path class="cls-1" d="M425.05,48a1.21,1.21,0,0,0,0-2.41,1.21,1.21,0,0,0,0,2.41Z"/><path class="cls-1" d="M410.87,45.93a1.21,1.21,0,0,0,0-2.41,1.21,1.21,0,0,0,0,2.41Z"/><path class="cls-1" d="M456.35,40.15a1.2,1.2,0,0,0,0-2.4,1.2,1.2,0,0,0,0,2.4Z"/><path class="cls-1" d="M417.41,35.24a1.21,1.21,0,0,0,0-2.41,1.21,1.21,0,0,0,0,2.41Z"/><path class="cls-1" d="M431.59,37.26a1.21,1.21,0,0,0,0-2.41,1.21,1.21,0,0,0,0,2.41Z"/><path class="cls-1" d="M389.55,33.58a1.21,1.21,0,0,0,0-2.41,1.21,1.21,0,0,0,0,2.41Z"/><path class="cls-1" d="M403.73,35.6a1.21,1.21,0,0,0,0-2.41,1.21,1.21,0,0,0,0,2.41Z"/><path class="cls-1" d="M360.12,35a1.21,1.21,0,0,0,0-2.41,1.21,1.21,0,0,0,0,2.41Z"/><path class="cls-1" d="M374.3,37a1.21,1.21,0,0,0,0-2.41,1.21,1.21,0,0,0,0,2.41Z"/><path class="cls-1" d="M295,47.08a1.21,1.21,0,0,0,0-2.41,1.21,1.21,0,0,0,0,2.41Z"/><path class="cls-1" d="M280.84,45.06a1.21,1.21,0,0,0,0-2.41,1.21,1.21,0,0,0,0,2.41Z"/><path class="cls-1" d="M322.88,48.74a1.21,1.21,0,0,0,0-2.41,1.21,1.21,0,0,0,0,2.41Z"/><path class="cls-1" d="M308.7,46.72a1.21,1.21,0,0,0,0-2.41,1.21,1.21,0,0,0,0,2.41Z"/><path class="cls-1" d="M354.19,40.94a1.2,1.2,0,0,0,0-2.4,1.2,1.2,0,0,0,0,2.4Z"/><path class="cls-1" d="M315.24,36a1.21,1.21,0,0,0,0-2.41,1.21,1.21,0,0,0,0,2.41Z"/><path class="cls-1" d="M329.42,38.05a1.21,1.21,0,0,0,0-2.41,1.21,1.21,0,0,0,0,2.41Z"/><path class="cls-1" d="M287.38,34.37a1.21,1.21,0,0,0,0-2.41,1.21,1.21,0,0,0,0,2.41Z"/><path class="cls-1" d="M301.56,36.39a1.21,1.21,0,0,0,0-2.41,1.21,1.21,0,0,0,0,2.41Z"/><path class="cls-1" d="M258,35.76a1.21,1.21,0,0,0,0-2.41,1.21,1.21,0,0,0,0,2.41Z"/><path class="cls-1" d="M272.13,37.78a1.21,1.21,0,0,0,0-2.41,1.21,1.21,0,0,0,0,2.41Z"/><path class="cls-1" d="M91.9,30.61a1.2,1.2,0,0,0,0-2.4,1.2,1.2,0,0,0,0,2.4Z"/><path class="cls-1" d="M77.72,28.6a1.21,1.21,0,0,0,0-2.41,1.21,1.21,0,0,0,0,2.41Z"/><path class="cls-1" d="M119.77,32.28a1.21,1.21,0,0,0,0-2.41,1.21,1.21,0,0,0,0,2.41Z"/><path class="cls-1" d="M105.59,30.26a1.21,1.21,0,0,0,0-2.41,1.21,1.21,0,0,0,0,2.41Z"/><path class="cls-1" d="M151.07,24.48a1.21,1.21,0,0,0,0-2.41,1.21,1.21,0,0,0,0,2.41Z"/><path class="cls-1" d="M112.13,19.57a1.21,1.21,0,0,0,0-2.41,1.21,1.21,0,0,0,0,2.41Z"/><path class="cls-1" d="M126.31,21.59a1.21,1.21,0,0,0,0-2.41,1.21,1.21,0,0,0,0,2.41Z"/><path class="cls-1" d="M84.26,17.91a1.21,1.21,0,0,0,0-2.41,1.21,1.21,0,0,0,0,2.41Z"/><path class="cls-1" d="M98.45,19.93a1.21,1.21,0,0,0,0-2.41,1.21,1.21,0,0,0,0,2.41Z"/><path class="cls-1" d="M54.84,19.3a1.21,1.21,0,0,0,0-2.41,1.21,1.21,0,0,0,0,2.41Z"/><path class="cls-1" d="M69,21.32a1.21,1.21,0,0,0,0-2.41,1.21,1.21,0,0,0,0,2.41Z"/><path class="cls-1" d="M199.72,32.71a1.21,1.21,0,0,0,0-2.41,1.21,1.21,0,0,0,0,2.41Z"/><path class="cls-1" d="M185.54,30.69a1.2,1.2,0,0,0,0-2.4,1.2,1.2,0,0,0,0,2.4Z"/><path class="cls-1" d="M227.58,34.37a1.2,1.2,0,0,0,0-2.4,1.2,1.2,0,0,0,0,2.4Z"/><path class="cls-1" d="M213.4,32.36a1.21,1.21,0,0,0,0-2.41,1.21,1.21,0,0,0,0,2.41Z"/><path class="cls-1" d="M258.89,26.58a1.21,1.21,0,0,0,0-2.41,1.21,1.21,0,0,0,0,2.41Z"/><path class="cls-1" d="M220,21.67a1.21,1.21,0,0,0,0-2.41,1.21,1.21,0,0,0,0,2.41Z"/><path class="cls-1" d="M234.13,23.69a1.21,1.21,0,0,0,0-2.41,1.21,1.21,0,0,0,0,2.41Z"/><path class="cls-1" d="M192.08,20a1.2,1.2,0,0,0,0-2.4,1.2,1.2,0,0,0,0,2.4Z"/><path class="cls-1" d="M206.26,22a1.2,1.2,0,0,0,0-2.4,1.2,1.2,0,0,0,0,2.4Z"/><path class="cls-1" d="M162.65,21.4a1.21,1.21,0,0,0,0-2.41,1.21,1.21,0,0,0,0,2.41Z"/><path class="cls-1" d="M176.83,23.42a1.21,1.21,0,0,0,0-2.41,1.21,1.21,0,0,0,0,2.41Z"/><path class="cls-1" d="M144.63,17.37a1.2,1.2,0,0,0,0-2.4,1.2,1.2,0,0,0,0,2.4Z"/><path class="cls-1" d="M130.45,15.35a1.2,1.2,0,0,0,0-2.4,1.2,1.2,0,0,0,0,2.4Z"/><path class="cls-1" d="M172.49,19a1.21,1.21,0,0,0,0-2.41,1.21,1.21,0,0,0,0,2.41Z"/><path class="cls-1" d="M158.31,17a1.21,1.21,0,0,0,0-2.41,1.21,1.21,0,0,0,0,2.41Z"/><path class="cls-1" d="M203.8,11.24a1.21,1.21,0,0,0,0-2.41,1.21,1.21,0,0,0,0,2.41Z"/><path class="cls-1" d="M164.86,6.33a1.21,1.21,0,0,0,0-2.41,1.21,1.21,0,0,0,0,2.41Z"/><path class="cls-1" d="M179,8.35a1.21,1.21,0,0,0,0-2.41,1.21,1.21,0,0,0,0,2.41Z"/><path class="cls-1" d="M137,4.67a1.21,1.21,0,0,0,0-2.41,1.21,1.21,0,0,0,0,2.41Z"/><path class="cls-1" d="M151.17,6.68a1.2,1.2,0,0,0,0-2.4,1.2,1.2,0,0,0,0,2.4Z"/><path class="cls-1" d="M107.56,6.06a1.21,1.21,0,0,0,0-2.41,1.21,1.21,0,0,0,0,2.41Z"/><path class="cls-1" d="M121.74,8.08a1.21,1.21,0,0,0,0-2.41,1.21,1.21,0,0,0,0,2.41Z"/><path class="cls-1" d="M38.23,15.12a1.21,1.21,0,0,0,0-2.41,1.21,1.21,0,0,0,0,2.41Z"/><path class="cls-1" d="M67.51,43.77a1.2,1.2,0,0,0,0-2.4,1.2,1.2,0,0,0,0,2.4Z"/><path class="cls-1" d="M66.1,16.78a1.21,1.21,0,0,0,0-2.41,1.21,1.21,0,0,0,0,2.41Z"/><path class="cls-1" d="M51.91,14.76a1.21,1.21,0,0,0,0-2.41,1.21,1.21,0,0,0,0,2.41Z"/><path class="cls-1" d="M97.4,9a1.2,1.2,0,0,0,0-2.4,1.2,1.2,0,0,0,0,2.4Z"/><path class="cls-1" d="M58.46,4.07a1.21,1.21,0,0,0,0-2.41,1.21,1.21,0,0,0,0,2.41Z"/><path class="cls-1" d="M72.64,6.09a1.21,1.21,0,0,0,0-2.41,1.21,1.21,0,0,0,0,2.41Z"/><path class="cls-1" d="M30.59,2.41a1.21,1.21,0,0,0,0-2.41,1.21,1.21,0,0,0,0,2.41Z"/><path class="cls-1" d="M44.77,4.43a1.21,1.21,0,0,0,0-2.41,1.21,1.21,0,0,0,0,2.41Z"/><path class="cls-1" d="M1.16,3.8a1.21,1.21,0,0,0,0-2.41,1.21,1.21,0,0,0,0,2.41Z"/><path class="cls-1" d="M60.39,40.29a1.21,1.21,0,0,0,0-2.41,1.21,1.21,0,0,0,0,2.41Z"/><path class="cls-1" d="M253.3,18.81a1.21,1.21,0,0,0,0-2.41,1.21,1.21,0,0,0,0,2.41Z"/><path class="cls-1" d="M239.12,16.79a1.21,1.21,0,0,0,0-2.41,1.21,1.21,0,0,0,0,2.41Z"/><path class="cls-1" d="M281.16,20.47a1.21,1.21,0,0,0,0-2.41,1.21,1.21,0,0,0,0,2.41Z"/><path class="cls-1" d="M267,18.45A1.21,1.21,0,0,0,267,16a1.21,1.21,0,0,0,0,2.41Z"/><path class="cls-1" d="M312.47,12.68a1.21,1.21,0,0,0,0-2.41,1.21,1.21,0,0,0,0,2.41Z"/><path class="cls-1" d="M273.52,7.76a1.2,1.2,0,0,0,0-2.4,1.2,1.2,0,0,0,0,2.4Z"/><path class="cls-1" d="M287.7,9.78a1.21,1.21,0,0,0,0-2.41,1.21,1.21,0,0,0,0,2.41Z"/><path class="cls-1" d="M245.66,6.1a1.21,1.21,0,0,0,0-2.41,1.21,1.21,0,0,0,0,2.41Z"/><path class="cls-1" d="M259.84,8.12a1.21,1.21,0,0,0,0-2.41,1.21,1.21,0,0,0,0,2.41Z"/><path class="cls-1" d="M216.23,7.49a1.2,1.2,0,0,0,0-2.4,1.2,1.2,0,0,0,0,2.4Z"/><path class="cls-1" d="M230.41,9.51a1.21,1.21,0,0,0,0-2.41,1.21,1.21,0,0,0,0,2.41Z"/><path class="cls-1" d="M312,29.75a1.21,1.21,0,0,0,0-2.41,1.21,1.21,0,0,0,0,2.41Z"/><path class="cls-1" d="M297.83,27.73a1.21,1.21,0,0,0,0-2.41,1.21,1.21,0,0,0,0,2.41Z"/><path class="cls-1" d="M339.87,31.41a1.21,1.21,0,0,0,0-2.41,1.21,1.21,0,0,0,0,2.41Z"/><path class="cls-1" d="M325.69,29.39a1.21,1.21,0,0,0,0-2.41,1.21,1.21,0,0,0,0,2.41Z"/><path class="cls-1" d="M371.18,23.62a1.21,1.21,0,0,0,0-2.41,1.21,1.21,0,0,0,0,2.41Z"/><path class="cls-1" d="M332.24,18.7a1.2,1.2,0,0,0,0-2.4,1.2,1.2,0,0,0,0,2.4Z"/><path class="cls-1" d="M346.42,20.72a1.21,1.21,0,0,0,0-2.41,1.21,1.21,0,0,0,0,2.41Z"/><path class="cls-1" d="M304.37,17a1.21,1.21,0,0,0,0-2.41,1.21,1.21,0,0,0,0,2.41Z"/><path class="cls-1" d="M318.55,19.06a1.21,1.21,0,0,0,0-2.41,1.21,1.21,0,0,0,0,2.41Z"/><path class="cls-1" d="M274.94,18.43a1.2,1.2,0,0,0,0-2.4,1.2,1.2,0,0,0,0,2.4Z"/><path class="cls-1" d="M289.12,20.45a1.21,1.21,0,0,0,0-2.41,1.21,1.21,0,0,0,0,2.41Z"/><path class="cls-1" d="M420.17,29.49a1.21,1.21,0,0,0,0-2.41,1.21,1.21,0,0,0,0,2.41Z"/><path class="cls-1" d="M406,27.47a1.21,1.21,0,0,0,0-2.41,1.21,1.21,0,0,0,0,2.41Z"/><path class="cls-1" d="M448,31.15a1.21,1.21,0,0,0,0-2.41,1.21,1.21,0,0,0,0,2.41Z"/><path class="cls-1" d="M433.85,29.13a1.21,1.21,0,0,0,0-2.41,1.21,1.21,0,0,0,0,2.41Z"/><path class="cls-1" d="M479.34,23.35a1.2,1.2,0,0,0,0-2.4,1.2,1.2,0,0,0,0,2.4Z"/><path class="cls-1" d="M440.39,18.44a1.21,1.21,0,0,0,0-2.41,1.21,1.21,0,0,0,0,2.41Z"/><path class="cls-1" d="M545.6,61.85a1.21,1.21,0,0,0,0-2.41,1.21,1.21,0,0,0,0,2.41Z"/><path class="cls-1" d="M412.53,16.78a1.21,1.21,0,0,0,0-2.41,1.21,1.21,0,0,0,0,2.41Z"/><path class="cls-1" d="M426.71,18.8a1.21,1.21,0,0,0,0-2.41,1.21,1.21,0,0,0,0,2.41Z"/><path class="cls-1" d="M383.1,18.17a1.21,1.21,0,0,0,0-2.41,1.21,1.21,0,0,0,0,2.41Z"/><path class="cls-1" d="M397.28,20.19a1.21,1.21,0,0,0,0-2.41,1.21,1.21,0,0,0,0,2.41Z"/><path class="cls-1" d="M532.69,33.39a1.21,1.21,0,0,0,0-2.41,1.21,1.21,0,0,0,0,2.41Z"/><path class="cls-1" d="M507.93,30.5a1.21,1.21,0,0,0,0-2.41,1.21,1.21,0,0,0,0,2.41Z"/><path class="cls-1" d="M545.12,29.65a1.21,1.21,0,0,0,0-2.41,1.21,1.21,0,0,0,0,2.41Z"/><path class="cls-1" d="M2337,75.2a1.21,1.21,0,0,0,0-2.41,1.21,1.21,0,0,0,0,2.41Z"/><path class="cls-1" d="M2323.38,74a1.21,1.21,0,0,0,0-2.41,1.21,1.21,0,0,0,0,2.41Z"/><path class="cls-1" d="M2442.87,76.61a1.2,1.2,0,0,0,0-2.4,1.2,1.2,0,0,0,0,2.4Z"/><path class="cls-1" d="M2294,72a1.2,1.2,0,0,0,0-2.4,1.2,1.2,0,0,0,0,2.4Z"/><path class="cls-1" d="M2267.12,74.51a1.21,1.21,0,0,0,0-2.41,1.21,1.21,0,0,0,0,2.41Z"/><path class="cls-1" d="M2228.17,69.6a1.21,1.21,0,0,0,0-2.41,1.21,1.21,0,0,0,0,2.41Z"/><path class="cls-1" d="M2242.35,71.62a1.21,1.21,0,0,0,0-2.41,1.21,1.21,0,0,0,0,2.41Z"/><path class="cls-1" d="M2202.46,70a1.2,1.2,0,0,0,0-2.4,1.2,1.2,0,0,0,0,2.4Z"/><path class="cls-1" d="M2214.49,70a1.2,1.2,0,0,0,0-2.4,1.2,1.2,0,0,0,0,2.4Z"/></g></g></svg>