<svg xmlns="http://www.w3.org/2000/svg" viewBox="0 0 2541.42 247.5"><defs><style>.cls-1{fill:#eeeae4;}</style></defs><title>white</title><g id="Layer_2" data-name="Layer 2"><g id="Flowers_Dots" data-name="Flowers Dots"><path class="cls-1" d="M775.73,153a3.75,3.75,0,1,0-3.75-3.75,3.79,3.79,0,0,0,3.75,3.75Z"/><path class="cls-1" d="M705.88,130.67a3.75,3.75,0,1,0-3.75-3.75,3.8,3.8,0,0,0,3.75,3.75Z"/><path class="cls-1" d="M711.82,154.45a3.75,3.75,0,1,0-3.75-3.75,3.8,3.8,0,0,0,3.75,3.75Z"/><path class="cls-1" d="M685.08,138.76a3.75,3.75,0,1,0-3.75-3.75,3.79,3.79,0,0,0,3.75,3.75Z"/><path class="cls-1" d="M615.23,116.47a3.75,3.75,0,1,0-3.75-3.75,3.8,3.8,0,0,0,3.75,3.75Z"/><path class="cls-1" d="M621.17,140.25a3.75,3.75,0,1,0-3.75-3.75,3.8,3.8,0,0,0,3.75,3.75Z"/><path class="cls-1" d="M598.24,134.54a3.75,3.75,0,1,0-3.75-3.75,3.79,3.79,0,0,0,3.75,3.75Z"/><path class="cls-1" d="M528.39,112.25a3.75,3.75,0,1,0-3.75-3.75,3.79,3.79,0,0,0,3.75,3.75Z"/><path class="cls-1" d="M534.33,136a3.75,3.75,0,1,0-3.75-3.75,3.82,3.82,0,0,0,3.75,3.75Z"/><path class="cls-1" d="M507.59,120.34a3.75,3.75,0,1,0-3.75-3.75,3.79,3.79,0,0,0,3.75,3.75Z"/><path class="cls-1" d="M364.07,107.59a3.75,3.75,0,1,0-3.75-3.75,3.8,3.8,0,0,0,3.75,3.75Z"/><path class="cls-1" d="M443.68,121.83a3.75,3.75,0,1,0-3.75-3.75,3.79,3.79,0,0,0,3.75,3.75Z"/><path class="cls-1" d="M439.31,146.46a3.75,3.75,0,1,0-3.75-3.75,3.82,3.82,0,0,0,3.75,3.75Z"/><path class="cls-1" d="M369.46,124.16a3.75,3.75,0,1,0-3.75-3.75,3.79,3.79,0,0,0,3.75,3.75Z"/><path class="cls-1" d="M375.41,147.94a3.75,3.75,0,1,0-3.75-3.75,3.79,3.79,0,0,0,3.75,3.75Z"/><path class="cls-1" d="M348.66,132.26a3.75,3.75,0,1,0-3.75-3.75,3.8,3.8,0,0,0,3.75,3.75Z"/><path class="cls-1" d="M278.81,110a3.75,3.75,0,1,0-3.75-3.75,3.79,3.79,0,0,0,3.75,3.75Z"/><path class="cls-1" d="M284.75,133.74A3.75,3.75,0,1,0,281,130a3.82,3.82,0,0,0,3.75,3.75Z"/><path class="cls-1" d="M261.83,128a3.75,3.75,0,1,0-3.75-3.75,3.79,3.79,0,0,0,3.75,3.75Z"/><path class="cls-1" d="M192,105.75a3.75,3.75,0,1,0-3.75-3.75,3.79,3.79,0,0,0,3.75,3.75Z"/><path class="cls-1" d="M197.92,129.53a3.75,3.75,0,1,0-3.75-3.75,3.8,3.8,0,0,0,3.75,3.75Z"/><path class="cls-1" d="M171.18,113.84a3.75,3.75,0,1,0-3.75-3.75,3.79,3.79,0,0,0,3.75,3.75Z"/><path class="cls-1" d="M56.93,105.75A3.75,3.75,0,1,0,53.18,102a3.8,3.8,0,0,0,3.75,3.75Z"/><path class="cls-1" d="M107.27,115.33a3.75,3.75,0,1,0-3.75-3.75,3.8,3.8,0,0,0,3.75,3.75Z"/><path class="cls-1" d="M1153.81,194.7a3.75,3.75,0,1,0-3.75-3.75,3.8,3.8,0,0,0,3.75,3.75Z"/><path class="cls-1" d="M1084,172.4a3.75,3.75,0,1,0-3.75-3.75,3.79,3.79,0,0,0,3.75,3.75Z"/><path class="cls-1" d="M1089.9,196.18a3.75,3.75,0,1,0-3.75-3.75,3.79,3.79,0,0,0,3.75,3.75Z"/><path class="cls-1" d="M1063.16,180.5a3.75,3.75,0,1,0-3.75-3.75,3.8,3.8,0,0,0,3.75,3.75Z"/><path class="cls-1" d="M993.31,158.2a3.75,3.75,0,1,0-3.75-3.75,3.79,3.79,0,0,0,3.75,3.75Z"/><path class="cls-1" d="M999.25,182a3.75,3.75,0,1,0-3.75-3.75,3.79,3.79,0,0,0,3.75,3.75Z"/><path class="cls-1" d="M976.32,176.28a3.75,3.75,0,1,0-3.75-3.75,3.8,3.8,0,0,0,3.75,3.75Z"/><path class="cls-1" d="M906.47,154a3.75,3.75,0,1,0-3.75-3.75,3.8,3.8,0,0,0,3.75,3.75Z"/><path class="cls-1" d="M912.41,177.76a3.75,3.75,0,1,0-3.75-3.75,3.82,3.82,0,0,0,3.75,3.75Z"/><path class="cls-1" d="M885.67,162.08a3.75,3.75,0,1,0-3.75-3.75,3.8,3.8,0,0,0,3.75,3.75Z"/><path class="cls-1" d="M860.82,154.6a3.75,3.75,0,1,0-3.75-3.75,3.79,3.79,0,0,0,3.75,3.75Z"/><path class="cls-1" d="M821.76,163.57a3.75,3.75,0,1,0-3.75-3.75,3.8,3.8,0,0,0,3.75,3.75Z"/><path class="cls-1" d="M1475.29,218.14a3.75,3.75,0,1,0-3.75-3.75,3.79,3.79,0,0,0,3.75,3.75Z"/><path class="cls-1" d="M1405.44,195.85a3.75,3.75,0,1,0-3.75-3.75,3.79,3.79,0,0,0,3.75,3.75Z"/><path class="cls-1" d="M1411.38,219.63a3.75,3.75,0,1,0-3.75-3.75,3.79,3.79,0,0,0,3.75,3.75Z"/><path class="cls-1" d="M1384.64,203.94a3.75,3.75,0,1,0-3.75-3.75,3.79,3.79,0,0,0,3.75,3.75Z"/><path class="cls-1" d="M1314.78,181.65a3.75,3.75,0,1,0-3.75-3.75,3.78,3.78,0,0,0,3.75,3.75Z"/><path class="cls-1" d="M1320.73,205.43a3.75,3.75,0,1,0-3.75-3.75,3.79,3.79,0,0,0,3.75,3.75Z"/><path class="cls-1" d="M1297.8,199.73a3.75,3.75,0,1,0-3.75-3.75,3.8,3.8,0,0,0,3.75,3.75Z"/><path class="cls-1" d="M1228,177.43a3.75,3.75,0,1,0-3.75-3.75,3.79,3.79,0,0,0,3.75,3.75Z"/><path class="cls-1" d="M1233.89,201.21a3.75,3.75,0,1,0-3.75-3.75,3.79,3.79,0,0,0,3.75,3.75Z"/><path class="cls-1" d="M1207.15,185.53a3.75,3.75,0,1,0-3.75-3.75,3.8,3.8,0,0,0,3.75,3.75Z"/><path class="cls-1" d="M1137.3,163.23a3.75,3.75,0,1,0-3.75-3.75,3.79,3.79,0,0,0,3.75,3.75Z"/><path class="cls-1" d="M1143.24,187a3.75,3.75,0,1,0-3.75-3.75,3.79,3.79,0,0,0,3.75,3.75Z"/><path class="cls-1" d="M1373.93,195.67a3.75,3.75,0,1,0-3.75-3.75,3.79,3.79,0,0,0,3.75,3.75Z"/><path class="cls-1" d="M1445.4,179.29a3.75,3.75,0,1,0-3.75-3.75,3.79,3.79,0,0,0,3.75,3.75Z"/><path class="cls-1" d="M1437.49,202.49a3.75,3.75,0,1,0-3.75-3.75,3.79,3.79,0,0,0,3.75,3.75Z"/><path class="cls-1" d="M1465.45,189.09a3.75,3.75,0,1,0-3.75-3.75,3.79,3.79,0,0,0,3.75,3.75Z"/><path class="cls-1" d="M1536.92,172.71a3.75,3.75,0,1,0-3.75-3.75,3.8,3.8,0,0,0,3.75,3.75Z"/><path class="cls-1" d="M1529,195.91a3.75,3.75,0,1,0-3.75-3.75,3.8,3.8,0,0,0,3.75,3.75Z"/><path class="cls-1" d="M1552.33,192.14a3.75,3.75,0,1,0-3.75-3.75,3.79,3.79,0,0,0,3.75,3.75Z"/><path class="cls-1" d="M1623.8,175.75a3.75,3.75,0,1,0-3.75-3.75,3.78,3.78,0,0,0,3.75,3.75Z"/><path class="cls-1" d="M1615.9,199a3.75,3.75,0,1,0-3.75-3.75,3.79,3.79,0,0,0,3.75,3.75Z"/><path class="cls-1" d="M1643.85,185.56a3.75,3.75,0,1,0-3.75-3.75,3.82,3.82,0,0,0,3.75,3.75Z"/><path class="cls-1" d="M1715.32,169.17a3.75,3.75,0,1,0-3.75-3.75,3.82,3.82,0,0,0,3.75,3.75Z"/><path class="cls-1" d="M1707.42,192.37a3.75,3.75,0,1,0-3.75-3.75,3.79,3.79,0,0,0,3.75,3.75Z"/><path class="cls-1" d="M1723.11,176.32a3.75,3.75,0,1,0-3.75-3.75,3.82,3.82,0,0,0,3.75,3.75Z"/><path class="cls-1" d="M1795.51,164.7a3.75,3.75,0,1,0-3.75-3.75,3.8,3.8,0,0,0,3.75,3.75Z"/><path class="cls-1" d="M1786.09,187.33a3.75,3.75,0,1,0-3.75-3.75,3.8,3.8,0,0,0,3.75,3.75Z"/><path class="cls-1" d="M1826.78,193.57a3.75,3.75,0,1,0-3.75-3.75,3.8,3.8,0,0,0,3.75,3.75Z"/><path class="cls-1" d="M1887.27,164.18a3.75,3.75,0,1,0-3.75-3.75,3.79,3.79,0,0,0,3.75,3.75Z"/><path class="cls-1" d="M1877.84,186.81a3.75,3.75,0,1,0-3.75-3.75,3.8,3.8,0,0,0,3.75,3.75Z"/><path class="cls-1" d="M1901.36,184.59a3.75,3.75,0,1,0-3.75-3.75,3.8,3.8,0,0,0,3.75,3.75Z"/><path class="cls-1" d="M1973.76,173a3.75,3.75,0,1,0-3.75-3.75,3.8,3.8,0,0,0,3.75,3.75Z"/><path class="cls-1" d="M1964.33,195.59a3.75,3.75,0,1,0-3.75-3.75,3.78,3.78,0,0,0,3.75,3.75Z"/><path class="cls-1" d="M1993.12,184.07a3.75,3.75,0,1,0-3.75-3.75,3.79,3.79,0,0,0,3.75,3.75Z"/><path class="cls-1" d="M2065.52,172.45a3.75,3.75,0,1,0-3.75-3.75,3.79,3.79,0,0,0,3.75,3.75Z"/><path class="cls-1" d="M2056.09,195.08a3.75,3.75,0,1,0-3.75-3.75,3.8,3.8,0,0,0,3.75,3.75Z"/><path class="cls-1" d="M2061.6,200.74a3.75,3.75,0,1,0-3.75-3.75,3.8,3.8,0,0,0,3.75,3.75Z"/><path class="cls-1" d="M2133.07,184.35a3.75,3.75,0,1,0-3.75-3.75,3.79,3.79,0,0,0,3.75,3.75Z"/><path class="cls-1" d="M2125.16,207.55a3.75,3.75,0,1,0-3.75-3.75,3.79,3.79,0,0,0,3.75,3.75Z"/><path class="cls-1" d="M2153.12,194.16a3.75,3.75,0,1,0-3.75-3.75,3.8,3.8,0,0,0,3.75,3.75Z"/><path class="cls-1" d="M2224.59,177.77a3.75,3.75,0,1,0-3.75-3.75,3.79,3.79,0,0,0,3.75,3.75Z"/><path class="cls-1" d="M2216.68,201a3.75,3.75,0,1,0-3.75-3.75,3.79,3.79,0,0,0,3.75,3.75Z"/><path class="cls-1" d="M2235.69,193.57a3.75,3.75,0,1,0-3.75-3.75,3.8,3.8,0,0,0,3.75,3.75Z"/><path class="cls-1" d="M2311.48,180.82a3.75,3.75,0,1,0-3.75-3.75,3.8,3.8,0,0,0,3.75,3.75Z"/><path class="cls-1" d="M2303.57,204a3.75,3.75,0,1,0-3.75-3.75,3.8,3.8,0,0,0,3.75,3.75Z"/><path class="cls-1" d="M2331.53,190.62a3.75,3.75,0,1,0-3.75-3.75,3.8,3.8,0,0,0,3.75,3.75Z"/><path class="cls-1" d="M2370.23,163.34a3.75,3.75,0,1,0-3.75-3.75,3.79,3.79,0,0,0,3.75,3.75Z"/><path class="cls-1" d="M2395.09,197.43a3.75,3.75,0,1,0-3.75-3.75,3.79,3.79,0,0,0,3.75,3.75Z"/><path class="cls-1" d="M2267.75,221.87a3.75,3.75,0,1,0-3.75-3.75,3.79,3.79,0,0,0,3.75,3.75Z"/><path class="cls-1" d="M2339.22,205.49a3.75,3.75,0,1,0-3.75-3.75,3.8,3.8,0,0,0,3.75,3.75Z"/><path class="cls-1" d="M2331.31,228.69a3.75,3.75,0,1,0-3.75-3.75,3.8,3.8,0,0,0,3.75,3.75Z"/><path class="cls-1" d="M2359.27,215.29a3.75,3.75,0,1,0-3.75-3.75,3.8,3.8,0,0,0,3.75,3.75Z"/><path class="cls-1" d="M2430.74,198.9a3.75,3.75,0,1,0-3.75-3.75,3.79,3.79,0,0,0,3.75,3.75Z"/><path class="cls-1" d="M2422.83,222.1a3.75,3.75,0,1,0-3.75-3.75,3.79,3.79,0,0,0,3.75,3.75Z"/><path class="cls-1" d="M2446.15,218.33a3.75,3.75,0,1,0-3.75-3.75,3.79,3.79,0,0,0,3.75,3.75Z"/><path class="cls-1" d="M2517.62,202a3.75,3.75,0,1,0-3.75-3.75,3.79,3.79,0,0,0,3.75,3.75Z"/><path class="cls-1" d="M2509.71,225.15a3.75,3.75,0,1,0-3.75-3.75,3.79,3.79,0,0,0,3.75,3.75Z"/><path class="cls-1" d="M2537.67,211.75a3.75,3.75,0,1,0-3.75-3.75,3.79,3.79,0,0,0,3.75,3.75Z"/><path class="cls-1" d="M2446,224.3a3.75,3.75,0,1,0-3.75-3.75,3.8,3.8,0,0,0,3.75,3.75Z"/><path class="cls-1" d="M2438.1,247.5a3.75,3.75,0,1,0-3.75-3.75,3.8,3.8,0,0,0,3.75,3.75Z"/><path class="cls-1" d="M53.61,74.53c3.62,0,3.63-5.63,0-5.63s-3.62,5.63,0,5.63Z"/><path class="cls-1" d="M108.23,68.13c3.62,0,3.63-5.63,0-5.63s-3.62,5.63,0,5.63Z"/><path class="cls-1" d="M100.45,84.78c3.62,0,3.62-5.62,0-5.62s-3.63,5.62,0,5.62Z"/><path class="cls-1" d="M122.39,77.07c3.62,0,3.62-5.63,0-5.63s-3.63,5.63,0,5.63Z"/><path class="cls-1" d="M177,70.67c3.61,0,3.62-5.62,0-5.62s-3.63,5.62,0,5.62Z"/><path class="cls-1" d="M169.22,87.33c3.62,0,3.63-5.63,0-5.63s-3.63,5.63,0,5.63Z"/><path class="cls-1" d="M186.92,86.41c3.62,0,3.62-5.62,0-5.62s-3.63,5.62,0,5.62Z"/><path class="cls-1" d="M241.54,80c3.62,0,3.62-5.63,0-5.63s-3.63,5.63,0,5.63Z"/><path class="cls-1" d="M233.75,96.67c3.62,0,3.63-5.62,0-5.62s-3.63,5.62,0,5.62Z"/><path class="cls-1" d="M255.69,89c3.62,0,3.62-5.63,0-5.63s-3.63,5.63,0,5.63Z"/><path class="cls-1" d="M310.31,82.56c3.62,0,3.62-5.62,0-5.62s-3.63,5.62,0,5.62Z"/><path class="cls-1" d="M302.52,99.21c3.62,0,3.63-5.62,0-5.62s-3.62,5.62,0,5.62Z"/><path class="cls-1" d="M331.82,90.49c3.62,0,3.63-5.63,0-5.63s-3.62,5.63,0,5.63Z"/><path class="cls-1" d="M386.44,84.09c3.62,0,3.63-5.63,0-5.63s-3.62,5.63,0,5.63Z"/><path class="cls-1" d="M378.66,100.74c3.62,0,3.62-5.62,0-5.62s-3.63,5.62,0,5.62Z"/><path class="cls-1" d="M400.6,93c3.61,0,3.62-5.62,0-5.62S397,93,400.6,93Z"/><path class="cls-1" d="M410.59,79c3.62,0,3.62-5.62,0-5.62S407,79,410.59,79Z"/><path class="cls-1" d="M447.43,103.29c3.62,0,3.62-5.63,0-5.63s-3.63,5.63,0,5.63Z"/><path class="cls-1" d="M465.13,102.38c3.62,0,3.62-5.63,0-5.63s-3.63,5.63,0,5.63Z"/><path class="cls-1" d="M513.32,95.85c3.62,0,3.62-5.63,0-5.63s-3.63,5.63,0,5.63Z"/><path class="cls-1" d="M512,112.63c3.62,0,3.63-5.62,0-5.62s-3.63,5.62,0,5.62Z"/><path class="cls-1" d="M533.9,104.92c3.62,0,3.62-5.63,0-5.63s-3.63,5.63,0,5.63Z"/><path class="cls-1" d="M588.52,98.52c3.62,0,3.62-5.62,0-5.62s-3.63,5.62,0,5.62Z"/><path class="cls-1" d="M580.73,115.18c3.62,0,3.63-5.63,0-5.63s-3.62,5.63,0,5.63Z"/><path class="cls-1" d="M601,114.54c3.62,0,3.63-5.63,0-5.63s-3.62,5.63,0,5.63Z"/><path class="cls-1" d="M655.57,108.14c3.62,0,3.63-5.62,0-5.62s-3.62,5.62,0,5.62Z"/><path class="cls-1" d="M647.79,124.8c3.62,0,3.62-5.63,0-5.63s-3.63,5.63,0,5.63Z"/><path class="cls-1" d="M669.72,117.08c3.62,0,3.63-5.62,0-5.62s-3.62,5.62,0,5.62Z"/><path class="cls-1" d="M724.34,110.69c3.62,0,3.63-5.63,0-5.63s-3.62,5.63,0,5.63Z"/><path class="cls-1" d="M716.56,127.34c3.62,0,3.62-5.63,0-5.63s-3.63,5.63,0,5.63Z"/><path class="cls-1" d="M734.25,126.43c3.62,0,3.63-5.63,0-5.63s-3.62,5.63,0,5.63Z"/><path class="cls-1" d="M788.87,120c3.62,0,3.63-5.62,0-5.62s-3.62,5.62,0,5.62Z"/><path class="cls-1" d="M781.09,136.68c3.62,0,3.62-5.62,0-5.62s-3.63,5.62,0,5.62Z"/><path class="cls-1" d="M803,129c3.62,0,3.63-5.62,0-5.62S799.4,129,803,129Z"/><path class="cls-1" d="M857.64,122.57c3.62,0,3.63-5.62,0-5.62s-3.62,5.62,0,5.62Z"/><path class="cls-1" d="M849.86,139.23c3.62,0,3.62-5.63,0-5.63s-3.63,5.63,0,5.63Z"/><path class="cls-1" d="M877.58,137.5c3.62,0,3.63-5.62,0-5.62s-3.62,5.62,0,5.62Z"/><path class="cls-1" d="M932.2,131.11c3.62,0,3.63-5.63,0-5.63s-3.62,5.63,0,5.63Z"/><path class="cls-1" d="M924.42,147.76c3.62,0,3.62-5.62,0-5.62s-3.63,5.62,0,5.62Z"/><path class="cls-1" d="M946.36,140.05c3.61,0,3.62-5.63,0-5.63s-3.63,5.63,0,5.63Z"/><path class="cls-1" d="M1001,133.65c3.61,0,3.62-5.62,0-5.62s-3.63,5.62,0,5.62Z"/><path class="cls-1" d="M993.19,150.3c3.62,0,3.62-5.62,0-5.62s-3.63,5.62,0,5.62Z"/><path class="cls-1" d="M1010.89,149.39c3.62,0,3.62-5.62,0-5.62s-3.63,5.62,0,5.62Z"/><path class="cls-1" d="M1065.51,143c3.62,0,3.62-5.63,0-5.63s-3.63,5.63,0,5.63Z"/><path class="cls-1" d="M1057.72,159.65c3.62,0,3.63-5.63,0-5.63s-3.63,5.63,0,5.63Z"/><path class="cls-1" d="M1079.66,151.94c3.62,0,3.62-5.63,0-5.63s-3.63,5.63,0,5.63Z"/><path class="cls-1" d="M1134.28,145.54c3.62,0,3.62-5.63,0-5.63s-3.63,5.63,0,5.63Z"/><path class="cls-1" d="M1126.49,162.19c3.62,0,3.63-5.62,0-5.62s-3.62,5.62,0,5.62Z"/><path class="cls-1" d="M1160.12,156c3.62,0,3.62-5.62,0-5.62s-3.63,5.62,0,5.62Z"/><path class="cls-1" d="M1214.74,149.61c3.62,0,3.62-5.62,0-5.62s-3.63,5.62,0,5.62Z"/><path class="cls-1" d="M1207,166.27c3.62,0,3.63-5.63,0-5.63s-3.63,5.63,0,5.63Z"/><path class="cls-1" d="M1228.89,158.55c3.62,0,3.62-5.62,0-5.62s-3.63,5.62,0,5.62Z"/><path class="cls-1" d="M1283.51,152.16c3.62,0,3.62-5.63,0-5.63s-3.63,5.63,0,5.63Z"/><path class="cls-1" d="M1275.72,168.81c3.62,0,3.63-5.63,0-5.63s-3.62,5.63,0,5.63Z"/><path class="cls-1" d="M1293.42,167.9c3.62,0,3.62-5.63,0-5.63s-3.63,5.63,0,5.63Z"/><path class="cls-1" d="M1348,161.5c3.62,0,3.62-5.62,0-5.62s-3.63,5.62,0,5.62Z"/><path class="cls-1" d="M1340.25,178.16c3.62,0,3.63-5.63,0-5.63s-3.62,5.63,0,5.63Z"/><path class="cls-1" d="M1362.19,170.44c3.62,0,3.62-5.62,0-5.62s-3.63,5.62,0,5.62Z"/><path class="cls-1" d="M1416.81,164c3.62,0,3.62-5.62,0-5.62s-3.63,5.62,0,5.62Z"/><path class="cls-1" d="M1409,180.7c3.62,0,3.63-5.63,0-5.63s-3.62,5.63,0,5.63Z"/><path class="cls-1" d="M1442.84,169c3.62,0,3.62-5.63,0-5.63s-3.63,5.63,0,5.63Z"/><path class="cls-1" d="M1496.46,156.81c3.62,0,3.62-5.63,0-5.63s-3.63,5.63,0,5.63Z"/><path class="cls-1" d="M1490.5,174.2c3.62,0,3.63-5.62,0-5.62s-3.62,5.62,0,5.62Z"/><path class="cls-1" d="M1511.48,164.18c3.62,0,3.63-5.62,0-5.62s-3.62,5.62,0,5.62Z"/><path class="cls-1" d="M1565.1,152c3.62,0,3.63-5.62,0-5.62s-3.62,5.62,0,5.62Z"/><path class="cls-1" d="M1559.15,169.35c3.62,0,3.62-5.62,0-5.62s-3.63,5.62,0,5.62Z"/><path class="cls-1" d="M1576.65,166.55c3.61,0,3.62-5.63,0-5.63s-3.63,5.63,0,5.63Z"/><path class="cls-1" d="M1630.26,154.33c3.62,0,3.63-5.63,0-5.63s-3.62,5.63,0,5.63Z"/><path class="cls-1" d="M1624.31,171.72c3.62,0,3.62-5.62,0-5.62s-3.63,5.62,0,5.62Z"/><path class="cls-1" d="M1645.29,161.7c3.62,0,3.63-5.62,0-5.62s-3.62,5.62,0,5.62Z"/><path class="cls-1" d="M1698.91,149.48c3.62,0,3.63-5.62,0-5.62s-3.62,5.62,0,5.62Z"/><path class="cls-1" d="M1695,160.23c3.62,0,3.63-5.63,0-5.63s-3.63,5.63,0,5.63Z"/><path class="cls-1" d="M1766.68,191.3a3.75,3.75,0,1,0-3.75-3.75,3.8,3.8,0,0,0,3.75,3.75Z"/><path class="cls-1" d="M1722.47,151.55c3.62,0,3.63-5.62,0-5.62s-3.62,5.62,0,5.62Z"/><path class="cls-1" d="M1769.31,161.81c3.62,0,3.62-5.63,0-5.63s-3.63,5.63,0,5.63Z"/><path class="cls-1" d="M1817.91,170.67c3.62,0,3.63-5.62,0-5.62s-3.62,5.62,0,5.62Z"/><path class="cls-1" d="M1845.87,147.7c3.61,0,3.62-5.63,0-5.63s-3.63,5.63,0,5.63Z"/><path class="cls-1" d="M1838.08,164.35c3.62,0,3.63-5.62,0-5.62s-3.63,5.62,0,5.62Z"/><path class="cls-1" d="M1855.78,163.44c3.62,0,3.62-5.63,0-5.63s-3.63,5.63,0,5.63Z"/><path class="cls-1" d="M1910.4,157c3.62,0,3.62-5.62,0-5.62s-3.63,5.62,0,5.62Z"/><path class="cls-1" d="M1902.61,173.7c3.62,0,3.63-5.63,0-5.63s-3.63,5.63,0,5.63Z"/><path class="cls-1" d="M1924.55,166c3.62,0,3.62-5.62,0-5.62s-3.63,5.62,0,5.62Z"/><path class="cls-1" d="M1991,174.82c3.62,0,3.62-5.63,0-5.63s-3.63,5.63,0,5.63Z"/><path class="cls-1" d="M2020.71,179a3.75,3.75,0,1,0-3.75-3.75,3.79,3.79,0,0,0,3.75,3.75Z"/><path class="cls-1" d="M1942.76,149.82c3.62,0,3.62-5.62,0-5.62s-3.63,5.62,0,5.62Z"/><path class="cls-1" d="M2021.27,146.06c3.62,0,3.62-5.63,0-5.63s-3.63,5.63,0,5.63Z"/><path class="cls-1" d="M2013.48,162.71c3.62,0,3.63-5.63,0-5.63s-3.62,5.63,0,5.63Z"/><path class="cls-1" d="M2035.42,155c3.62,0,3.62-5.63,0-5.63s-3.63,5.63,0,5.63Z"/><path class="cls-1" d="M2100.83,146.8c3.62,0,3.63-5.62,0-5.62s-3.63,5.62,0,5.62Z"/><path class="cls-1" d="M2082.25,165.25c3.62,0,3.63-5.62,0-5.62s-3.62,5.62,0,5.62Z"/><path class="cls-1" d="M2100,164.34c3.62,0,3.62-5.62,0-5.62s-3.63,5.62,0,5.62Z"/><path class="cls-1" d="M2154.57,157.94c3.62,0,3.62-5.62,0-5.62s-3.63,5.62,0,5.62Z"/><path class="cls-1" d="M2146.78,174.6c3.62,0,3.63-5.63,0-5.63s-3.62,5.63,0,5.63Z"/><path class="cls-1" d="M2168.72,166.89c3.62,0,3.62-5.63,0-5.63s-3.63,5.63,0,5.63Z"/><path class="cls-1" d="M2237.63,156.6c3.62,0,3.63-5.63,0-5.63s-3.62,5.63,0,5.63Z"/><path class="cls-1" d="M2267.32,182.27a3.75,3.75,0,1,0-3.75-3.75,3.78,3.78,0,0,0,3.75,3.75Z"/><path class="cls-1" d="M2219.62,165.25c3.62,0,3.62-5.62,0-5.62s-3.63,5.62,0,5.62Z"/><path class="cls-1" d="M2274.24,158.86c3.62,0,3.62-5.63,0-5.63s-3.63,5.63,0,5.63Z"/><path class="cls-1" d="M2266.45,175.51c3.62,0,3.63-5.63,0-5.63s-3.62,5.63,0,5.63Z"/><path class="cls-1" d="M2288.39,167.8c3.62,0,3.62-5.63,0-5.63s-3.63,5.63,0,5.63Z"/><path class="cls-1" d="M2343,161.4c3.62,0,3.62-5.63,0-5.63s-3.63,5.63,0,5.63Z"/><path class="cls-1" d="M2335.22,178.05c3.62,0,3.63-5.62,0-5.62s-3.62,5.62,0,5.62Z"/><path class="cls-1" d="M2352.92,177.14c3.62,0,3.62-5.62,0-5.62s-3.63,5.62,0,5.62Z"/><path class="cls-1" d="M2407.54,170.74c3.62,0,3.62-5.62,0-5.62s-3.63,5.62,0,5.62Z"/><path class="cls-1" d="M2399.75,187.4c3.62,0,3.63-5.63,0-5.63s-3.62,5.63,0,5.63Z"/><path class="cls-1" d="M2421.69,179.68c3.62,0,3.62-5.62,0-5.62s-3.63,5.62,0,5.62Z"/><path class="cls-1" d="M2468.52,189.94c3.62,0,3.63-5.62,0-5.62s-3.62,5.62,0,5.62Z"/><path class="cls-1" d="M2476,185.92c3.62,0,3.63-5.63,0-5.63s-3.62,5.63,0,5.63Z"/><path class="cls-1" d="M2354.78,151.64c2.72,0,2.72-4.22,0-4.22s-2.72,4.22,0,4.22Z"/><path class="cls-1" d="M2395.83,147.58c2.71,0,2.72-4.22,0-4.22s-2.72,4.22,0,4.22Z"/><path class="cls-1" d="M2428.25,166.17c2.72,0,2.72-4.22,0-4.22s-2.71,4.22,0,4.22Z"/><path class="cls-1" d="M2454.58,162.36c2.72,0,2.72-4.22,0-4.22s-2.72,4.22,0,4.22Z"/><path class="cls-1" d="M2495.63,158.31c2.71,0,2.71-4.22,0-4.22s-2.72,4.22,0,4.22Z"/><path class="cls-1" d="M2471.26,150.73c2.71,0,2.72-4.22,0-4.22s-2.72,4.22,0,4.22Z"/><path class="cls-1" d="M2486,144.12c2.71,0,2.72-4.22,0-4.22s-2.72,4.22,0,4.22Z"/><path class="cls-1" d="M2445,148.18c2.72,0,2.72-4.22,0-4.22s-2.71,4.22,0,4.22Z"/><path class="cls-1" d="M2386.22,133.4c2.72,0,2.72-4.22,0-4.22s-2.72,4.22,0,4.22Z"/><path class="cls-1" d="M2345.18,137.45c2.71,0,2.72-4.22,0-4.22s-2.72,4.22,0,4.22Z"/><path class="cls-1" d="M2119.79,148.38c2.71,0,2.72-4.22,0-4.22s-2.72,4.22,0,4.22Z"/><path class="cls-1" d="M2175.23,153.17c2.71,0,2.71-4.22,0-4.22s-2.72,4.22,0,4.22Z"/><path class="cls-1" d="M2199.59,143.24c2.72,0,2.72-4.22,0-4.22s-2.72,4.22,0,4.22Z"/><path class="cls-1" d="M2248.46,145c2.72,0,2.72-4.21,0-4.21s-2.72,4.21,0,4.21Z"/><path class="cls-1" d="M2259.73,150.54c2.72,0,2.72-4.22,0-4.22s-2.72,4.22,0,4.22Z"/><path class="cls-1" d="M2300,141.38c2.71,0,2.72-4.22,0-4.22s-2.72,4.22,0,4.22Z"/><path class="cls-1" d="M2299.91,134c2.72,0,2.72-4.21,0-4.21s-2.72,4.21,0,4.21Z"/><path class="cls-1" d="M2288.64,128.51c2.71,0,2.72-4.22,0-4.22s-2.72,4.22,0,4.22Z"/><path class="cls-1" d="M2199.56,135.89c2.71,0,2.71-4.21,0-4.21s-2.72,4.21,0,4.21Z"/><path class="cls-1" d="M2188.28,130.37c2.72,0,2.72-4.22,0-4.22s-2.71,4.22,0,4.22Z"/><path class="cls-1" d="M2148.07,139.53c2.71,0,2.72-4.22,0-4.22s-2.72,4.22,0,4.22Z"/><path class="cls-1" d="M1975.21,134.93c2.71,0,2.72-4.22,0-4.22s-2.72,4.22,0,4.22Z"/><path class="cls-1" d="M1986.48,140.45c2.71,0,2.72-4.21,0-4.21s-2.72,4.21,0,4.21Z"/><path class="cls-1" d="M2075.56,133.07c2.72,0,2.72-4.22,0-4.22s-2.72,4.22,0,4.22Z"/><path class="cls-1" d="M2086.83,138.59c2.72,0,2.72-4.21,0-4.21s-2.72,4.21,0,4.21Z"/><path class="cls-1" d="M2127.05,129.43c2.71,0,2.72-4.22,0-4.22s-2.72,4.22,0,4.22Z"/><path class="cls-1" d="M2127,122.09c2.72,0,2.72-4.22,0-4.22s-2.72,4.22,0,4.22Z"/><path class="cls-1" d="M2115.74,116.56c2.71,0,2.72-4.22,0-4.22s-2.72,4.22,0,4.22Z"/><path class="cls-1" d="M2075.53,125.72c2.71,0,2.71-4.22,0-4.22s-2.72,4.22,0,4.22Z"/><path class="cls-1" d="M2026.66,124c2.71,0,2.71-4.22,0-4.22s-2.72,4.22,0,4.22Z"/><path class="cls-1" d="M2015.38,118.42c2.72,0,2.72-4.22,0-4.22s-2.72,4.22,0,4.22Z"/><path class="cls-1" d="M1975.17,127.58c2.71,0,2.72-4.22,0-4.22s-2.72,4.22,0,4.22Z"/><path class="cls-1" d="M1798,139.75c2.71,0,2.72-4.21,0-4.21s-2.72,4.21,0,4.21Z"/><path class="cls-1" d="M1784.92,146.19c2.71,0,2.72-4.22,0-4.22s-2.72,4.22,0,4.22Z"/><path class="cls-1" d="M1825.13,137c2.72,0,2.72-4.22,0-4.22s-2.72,4.22,0,4.22Z"/><path class="cls-1" d="M1874,138.8c2.72,0,2.72-4.22,0-4.22s-2.72,4.22,0,4.22Z"/><path class="cls-1" d="M1885.27,144.33c2.72,0,2.72-4.22,0-4.22s-2.72,4.22,0,4.22Z"/><path class="cls-1" d="M1925.49,135.16c2.71,0,2.72-4.22,0-4.22s-2.72,4.22,0,4.22Z"/><path class="cls-1" d="M1914.18,122.29c2.71,0,2.72-4.22,0-4.22s-2.72,4.22,0,4.22Z"/><path class="cls-1" d="M1874,131.46c2.71,0,2.71-4.22,0-4.22s-2.72,4.22,0,4.22Z"/><path class="cls-1" d="M1825.1,129.68c2.71,0,2.71-4.22,0-4.22s-2.72,4.22,0,4.22Z"/><path class="cls-1" d="M1813.82,124.15c2.72,0,2.72-4.22,0-4.22s-2.72,4.22,0,4.22Z"/><path class="cls-1" d="M1773.61,133.32c2.71,0,2.72-4.22,0-4.22s-2.72,4.22,0,4.22Z"/><path class="cls-1" d="M1602.29,138.58c2.72,0,2.72-4.22,0-4.22s-2.72,4.22,0,4.22Z"/><path class="cls-1" d="M1613.56,144.11c2.72,0,2.72-4.22,0-4.22s-2.72,4.22,0,4.22Z"/><path class="cls-1" d="M1653.78,134.94c2.71,0,2.71-4.22,0-4.22s-2.72,4.22,0,4.22Z"/><path class="cls-1" d="M1713.92,142.25c2.71,0,2.72-4.22,0-4.22s-2.72,4.22,0,4.22Z"/><path class="cls-1" d="M1754.13,133.08c2.72,0,2.72-4.22,0-4.22s-2.72,4.22,0,4.22Z"/><path class="cls-1" d="M1754.1,125.74c2.71,0,2.71-4.22,0-4.22s-2.72,4.22,0,4.22Z"/><path class="cls-1" d="M1742.82,120.21c2.72,0,2.72-4.22,0-4.22s-2.72,4.22,0,4.22Z"/><path class="cls-1" d="M1702.61,129.38c2.71,0,2.72-4.22,0-4.22s-2.72,4.22,0,4.22Z"/><path class="cls-1" d="M1653.74,127.6c2.71,0,2.72-4.22,0-4.22s-2.72,4.22,0,4.22Z"/><path class="cls-1" d="M1642.47,122.07c2.71,0,2.72-4.22,0-4.22s-2.72,4.22,0,4.22Z"/><path class="cls-1" d="M1602.25,131.23c2.72,0,2.72-4.21,0-4.21s-2.71,4.21,0,4.21Z"/><path class="cls-1" d="M1408.06,147.73c2.71,0,2.71-4.22,0-4.22s-2.72,4.22,0,4.22Z"/><path class="cls-1" d="M1419.33,153.26c2.71,0,2.72-4.22,0-4.22s-2.72,4.22,0,4.22Z"/><path class="cls-1" d="M1459.54,144.09c2.72,0,2.72-4.22,0-4.22s-2.72,4.22,0,4.22Z"/><path class="cls-1" d="M1508.41,145.87c2.72,0,2.72-4.22,0-4.22s-2.72,4.22,0,4.22Z"/><path class="cls-1" d="M1519.68,151.4c2.72,0,2.72-4.22,0-4.22s-2.72,4.22,0,4.22Z"/><path class="cls-1" d="M1559.9,142.23c2.71,0,2.72-4.21,0-4.21s-2.72,4.21,0,4.21Z"/><path class="cls-1" d="M1559.86,134.89c2.71,0,2.72-4.22,0-4.22s-2.72,4.22,0,4.22Z"/><path class="cls-1" d="M1548.59,129.36c2.71,0,2.72-4.22,0-4.22s-2.72,4.22,0,4.22Z"/><path class="cls-1" d="M1508.38,138.53c2.71,0,2.71-4.22,0-4.22s-2.72,4.22,0,4.22Z"/><path class="cls-1" d="M1459.5,136.75c2.72,0,2.72-4.22,0-4.22s-2.71,4.22,0,4.22Z"/><path class="cls-1" d="M1448.23,131.22c2.72,0,2.72-4.22,0-4.22s-2.72,4.22,0,4.22Z"/><path class="cls-1" d="M1408,140.39c2.71,0,2.72-4.22,0-4.22s-2.72,4.22,0,4.22Z"/><path class="cls-1" d="M1222.25,151.16c2.72,0,2.72-4.22,0-4.22s-2.71,4.22,0,4.22Z"/><path class="cls-1" d="M1233.53,156.69c2.71,0,2.71-4.22,0-4.22s-2.72,4.22,0,4.22Z"/><path class="cls-1" d="M1273.74,147.52c2.71,0,2.72-4.22,0-4.22s-2.72,4.22,0,4.22Z"/><path class="cls-1" d="M1322.61,149.3c2.71,0,2.72-4.22,0-4.22s-2.72,4.22,0,4.22Z"/><path class="cls-1" d="M1333.88,154.83c2.72,0,2.72-4.22,0-4.22s-2.72,4.22,0,4.22Z"/><path class="cls-1" d="M1374.1,145.66c2.71,0,2.71-4.22,0-4.22s-2.72,4.22,0,4.22Z"/><path class="cls-1" d="M1374.06,138.32c2.71,0,2.72-4.22,0-4.22s-2.72,4.22,0,4.22Z"/><path class="cls-1" d="M1362.79,132.79c2.71,0,2.72-4.22,0-4.22s-2.72,4.22,0,4.22Z"/><path class="cls-1" d="M1322.57,142c2.72,0,2.72-4.21,0-4.21s-2.72,4.21,0,4.21Z"/><path class="cls-1" d="M1273.7,140.18c2.72,0,2.72-4.22,0-4.22s-2.72,4.22,0,4.22Z"/><path class="cls-1" d="M1262.43,134.65c2.72,0,2.72-4.22,0-4.22s-2.72,4.22,0,4.22Z"/><path class="cls-1" d="M1222.22,143.81c2.71,0,2.72-4.21,0-4.21s-2.72,4.21,0,4.21Z"/><path class="cls-1" d="M1020.84,137.87c2.72,0,2.72-4.22,0-4.22s-2.72,4.22,0,4.22Z"/><path class="cls-1" d="M1031.73,144.13c2.71,0,2.72-4.22,0-4.22s-2.72,4.22,0,4.22Z"/><path class="cls-1" d="M1072.46,137.63c2.71,0,2.71-4.22,0-4.22s-2.72,4.22,0,4.22Z"/><path class="cls-1" d="M1121.1,142.62c2.72,0,2.72-4.22,0-4.22s-2.72,4.22,0,4.22Z"/><path class="cls-1" d="M1132,148.87c2.71,0,2.72-4.22,0-4.22s-2.72,4.22,0,4.22Z"/><path class="cls-1" d="M1172.72,142.37c2.71,0,2.72-4.21,0-4.21s-2.72,4.21,0,4.21Z"/><path class="cls-1" d="M1173.16,135c2.72,0,2.72-4.21,0-4.21s-2.72,4.21,0,4.21Z"/><path class="cls-1" d="M1162.28,128.79c2.71,0,2.72-4.22,0-4.22s-2.72,4.22,0,4.22Z"/><path class="cls-1" d="M1121.55,135.29c2.71,0,2.72-4.22,0-4.22s-2.72,4.22,0,4.22Z"/><path class="cls-1" d="M1072.9,130.3c2.72,0,2.72-4.22,0-4.22s-2.72,4.22,0,4.22Z"/><path class="cls-1" d="M1062,124c2.71,0,2.72-4.22,0-4.22s-2.72,4.22,0,4.22Z"/><path class="cls-1" d="M1021.29,130.54c2.71,0,2.72-4.22,0-4.22s-2.72,4.22,0,4.22Z"/><path class="cls-1" d="M91.34,51.71c2.71,0,2.71-4.22,0-4.22s-2.72,4.22,0,4.22Z"/><path class="cls-1" d="M102.24,57.93c2.72,0,2.72-4.22,0-4.22s-2.72,4.22,0,4.22Z"/><path class="cls-1" d="M191.61,56.06c2.72,0,2.72-4.21,0-4.21s-2.71,4.21,0,4.21Z"/><path class="cls-1" d="M214,67.74c2.72,0,2.72-4.22,0-4.22s-2.72,4.22,0,4.22Z"/><path class="cls-1" d="M243.23,55.62c2.71,0,2.71-4.22,0-4.22s-2.72,4.22,0,4.22Z"/><path class="cls-1" d="M243.64,48.29c2.72,0,2.72-4.22,0-4.22s-2.72,4.22,0,4.22Z"/><path class="cls-1" d="M232.74,42.07c2.71,0,2.72-4.21,0-4.21s-2.72,4.21,0,4.21Z"/><path class="cls-1" d="M143.37,43.94c2.71,0,2.71-4.22,0-4.22s-2.72,4.22,0,4.22Z"/><path class="cls-1" d="M132.46,37.72c2.71,0,2.72-4.22,0-4.22s-2.72,4.22,0,4.22Z"/><path class="cls-1" d="M91.75,44.38c2.72,0,2.72-4.22,0-4.22s-2.72,4.22,0,4.22Z"/><path class="cls-1" d="M291,73.75c2.71,0,2.72-4.22,0-4.22s-2.72,4.22,0,4.22Z"/><path class="cls-1" d="M331.25,64.58c2.71,0,2.72-4.21,0-4.21s-2.72,4.21,0,4.21Z"/><path class="cls-1" d="M380.12,66.36c2.72,0,2.72-4.22,0-4.22s-2.72,4.22,0,4.22Z"/><path class="cls-1" d="M350.12,80.32c2.71,0,2.71-4.22,0-4.22s-2.72,4.22,0,4.22Z"/><path class="cls-1" d="M431.61,62.72c2.71,0,2.71-4.21,0-4.21s-2.72,4.21,0,4.21Z"/><path class="cls-1" d="M431.57,55.38c2.71,0,2.72-4.22,0-4.22s-2.72,4.22,0,4.22Z"/><path class="cls-1" d="M420.3,49.85c2.71,0,2.72-4.22,0-4.22s-2.72,4.22,0,4.22Z"/><path class="cls-1" d="M380.08,59c2.72,0,2.72-4.22,0-4.22s-2.71,4.22,0,4.22Z"/><path class="cls-1" d="M331.21,57.24c2.72,0,2.72-4.22,0-4.22s-2.72,4.22,0,4.22Z"/><path class="cls-1" d="M319.94,51.71c2.72,0,2.72-4.22,0-4.22s-2.72,4.22,0,4.22Z"/><path class="cls-1" d="M279.73,60.88c2.71,0,2.72-4.22,0-4.22s-2.72,4.22,0,4.22Z"/><path class="cls-1" d="M459.37,75c2.71,0,2.72-4.22,0-4.22s-2.72,4.22,0,4.22Z"/><path class="cls-1" d="M456.5,85.59c2.72,0,2.72-4.22,0-4.22s-2.72,4.22,0,4.22Z"/><path class="cls-1" d="M510.87,78.49c2.71,0,2.71-4.22,0-4.22s-2.72,4.22,0,4.22Z"/><path class="cls-1" d="M559,87c2.71,0,2.72-4.22,0-4.22S556.31,87,559,87Z"/><path class="cls-1" d="M569.43,94c2.72,0,2.72-4.22,0-4.22s-2.72,4.22,0,4.22Z"/><path class="cls-1" d="M611.5,83.15c2.71,0,2.72-4.21,0-4.21s-2.72,4.21,0,4.21Z"/><path class="cls-1" d="M601.09,76.13c2.72,0,2.72-4.22,0-4.22s-2.72,4.22,0,4.22Z"/><path class="cls-1" d="M560,79.68c2.72,0,2.72-4.21,0-4.21s-2.72,4.21,0,4.21Z"/><path class="cls-1" d="M511.84,71.21c2.71,0,2.72-4.22,0-4.22s-2.72,4.22,0,4.22Z"/><path class="cls-1" d="M501.43,64.19c2.72,0,2.72-4.22,0-4.22s-2.72,4.22,0,4.22Z"/><path class="cls-1" d="M657,93.8a1.59,1.59,0,0,0,0-3.17,1.59,1.59,0,0,0,0,3.17Z"/><path class="cls-1" d="M664.76,99.06a1.58,1.58,0,0,0,0-3.16,1.58,1.58,0,0,0,0,3.16Z"/><path class="cls-1" d="M695.58,96.37a1.58,1.58,0,0,0,0-3.16,1.58,1.58,0,0,0,0,3.16Z"/><path class="cls-1" d="M731.71,102.7a1.59,1.59,0,0,0,0-3.17,1.59,1.59,0,0,0,0,3.17Z"/><path class="cls-1" d="M739.51,108a1.58,1.58,0,0,0,0-3.16,1.58,1.58,0,0,0,0,3.16Z"/><path class="cls-1" d="M770.33,105.27a1.58,1.58,0,0,0,0-3.16,1.58,1.58,0,0,0,0,3.16Z"/><path class="cls-1" d="M771.06,99.81a1.58,1.58,0,0,0,0-3.16,1.58,1.58,0,0,0,0,3.16Z"/><path class="cls-1" d="M763.25,94.55a1.58,1.58,0,0,0,0-3.16,1.58,1.58,0,0,0,0,3.16Z"/><path class="cls-1" d="M732.43,97.24a1.58,1.58,0,0,0,0-3.16,1.58,1.58,0,0,0,0,3.16Z"/><path class="cls-1" d="M696.3,90.91a1.58,1.58,0,0,0,0-3.16,1.58,1.58,0,0,0,0,3.16Z"/><path class="cls-1" d="M688.5,85.65a1.58,1.58,0,0,0,0-3.16,1.58,1.58,0,0,0,0,3.16Z"/><path class="cls-1" d="M657.68,88.34a1.58,1.58,0,0,0,0-3.16,1.58,1.58,0,0,0,0,3.16Z"/><path class="cls-1" d="M820.62,109.63a1.58,1.58,0,0,0,0-3.16,1.58,1.58,0,0,0,0,3.16Z"/><path class="cls-1" d="M828.43,114.89a1.58,1.58,0,0,0,0-3.16,1.58,1.58,0,0,0,0,3.16Z"/><path class="cls-1" d="M859.24,112.21a1.59,1.59,0,0,0,0-3.17,1.59,1.59,0,0,0,0,3.17Z"/><path class="cls-1" d="M895.37,118.53a1.58,1.58,0,0,0,0-3.16,1.58,1.58,0,0,0,0,3.16Z"/><path class="cls-1" d="M903.18,123.79a1.58,1.58,0,0,0,0-3.16,1.58,1.58,0,0,0,0,3.16Z"/><path class="cls-1" d="M934,121.11a1.59,1.59,0,0,0,0-3.17,1.59,1.59,0,0,0,0,3.17Z"/><path class="cls-1" d="M934.72,115.65a1.59,1.59,0,0,0,0-3.17,1.59,1.59,0,0,0,0,3.17Z"/><path class="cls-1" d="M926.91,110.38a1.58,1.58,0,0,0,0-3.16,1.58,1.58,0,0,0,0,3.16Z"/><path class="cls-1" d="M896.1,113.07a1.58,1.58,0,0,0,0-3.16,1.58,1.58,0,0,0,0,3.16Z"/><path class="cls-1" d="M860,106.75a1.59,1.59,0,0,0,0-3.17,1.59,1.59,0,0,0,0,3.17Z"/><path class="cls-1" d="M852.16,101.48a1.58,1.58,0,0,0,0-3.16,1.58,1.58,0,0,0,0,3.16Z"/><path class="cls-1" d="M821.35,104.17a1.58,1.58,0,0,0,0-3.16,1.58,1.58,0,0,0,0,3.16Z"/><path class="cls-1" d="M970.05,113.68a1.58,1.58,0,0,0,0-3.16,1.58,1.58,0,0,0,0,3.16Z"/><path class="cls-1" d="M977.86,119a1.59,1.59,0,0,0,0-3.17,1.59,1.59,0,0,0,0,3.17Z"/><path class="cls-1" d="M1008.68,116.26a1.59,1.59,0,0,0,0-3.17,1.59,1.59,0,0,0,0,3.17Z"/><path class="cls-1" d="M1044.8,122.58a1.58,1.58,0,0,0,0-3.16,1.58,1.58,0,0,0,0,3.16Z"/><path class="cls-1" d="M1052.61,127.85a1.59,1.59,0,0,0,0-3.17,1.59,1.59,0,0,0,0,3.17Z"/><path class="cls-1" d="M1083.43,125.16a1.59,1.59,0,0,0,0-3.17,1.59,1.59,0,0,0,0,3.17Z"/><path class="cls-1" d="M1084.15,119.7a1.59,1.59,0,0,0,0-3.17,1.59,1.59,0,0,0,0,3.17Z"/><path class="cls-1" d="M1076.34,114.44a1.59,1.59,0,0,0,0-3.17,1.59,1.59,0,0,0,0,3.17Z"/><path class="cls-1" d="M1045.53,117.12a1.58,1.58,0,0,0,0-3.16,1.58,1.58,0,0,0,0,3.16Z"/><path class="cls-1" d="M1009.4,110.8a1.59,1.59,0,0,0,0-3.17,1.59,1.59,0,0,0,0,3.17Z"/><path class="cls-1" d="M1001.59,105.54a1.59,1.59,0,0,0,0-3.17,1.59,1.59,0,0,0,0,3.17Z"/><path class="cls-1" d="M970.78,108.22a1.58,1.58,0,0,0,0-3.16,1.58,1.58,0,0,0,0,3.16Z"/><path class="cls-1" d="M1144.94,119.24a1.58,1.58,0,0,0,0-3.16,1.58,1.58,0,0,0,0,3.16Z"/><path class="cls-1" d="M1153.19,123.78a1.58,1.58,0,0,0,0-3.16,1.58,1.58,0,0,0,0,3.16Z"/><path class="cls-1" d="M1183.64,118.34a1.58,1.58,0,0,0,0-3.16,1.58,1.58,0,0,0,0,3.16Z"/><path class="cls-1" d="M1228.44,126a1.59,1.59,0,0,0,0-3.17,1.59,1.59,0,0,0,0,3.17Z"/><path class="cls-1" d="M1247.82,132a1.58,1.58,0,0,0,0-3.16,1.58,1.58,0,0,0,0,3.16Z"/><path class="cls-1" d="M1259.12,115a1.59,1.59,0,0,0,0-3.17,1.59,1.59,0,0,0,0,3.17Z"/><path class="cls-1" d="M1114.9,115.65a1.59,1.59,0,0,0,0-3.17,1.59,1.59,0,0,0,0,3.17Z"/><path class="cls-1" d="M1220.43,115.9a1.58,1.58,0,0,0,0-3.16,1.58,1.58,0,0,0,0,3.16Z"/><path class="cls-1" d="M1183.88,112.84a1.58,1.58,0,0,0,0-3.16,1.58,1.58,0,0,0,0,3.16Z"/><path class="cls-1" d="M1175.63,108.3a1.58,1.58,0,0,0,0-3.16,1.58,1.58,0,0,0,0,3.16Z"/><path class="cls-1" d="M1303.51,125.79a1.58,1.58,0,0,0,0-3.16,1.58,1.58,0,0,0,0,3.16Z"/><path class="cls-1" d="M1311.74,130.37a1.59,1.59,0,0,0,0-3.17,1.59,1.59,0,0,0,0,3.17Z"/><path class="cls-1" d="M1342.22,125.06a1.59,1.59,0,0,0,0-3.17,1.59,1.59,0,0,0,0,3.17Z"/><path class="cls-1" d="M1378.75,128.27a1.58,1.58,0,0,0,0-3.16,1.58,1.58,0,0,0,0,3.16Z"/><path class="cls-1" d="M1387,132.85a1.59,1.59,0,0,0,0-3.17,1.59,1.59,0,0,0,0,3.17Z"/><path class="cls-1" d="M1417.46,127.53a1.58,1.58,0,0,0,0-3.16,1.58,1.58,0,0,0,0,3.16Z"/><path class="cls-1" d="M1409.48,117.46a1.59,1.59,0,0,0,0-3.17,1.59,1.59,0,0,0,0,3.17Z"/><path class="cls-1" d="M1379,122.77a1.58,1.58,0,0,0,0-3.16,1.58,1.58,0,0,0,0,3.16Z"/><path class="cls-1" d="M1334.24,115a1.59,1.59,0,0,0,0-3.17,1.59,1.59,0,0,0,0,3.17Z"/><path class="cls-1" d="M1303.77,120.29a1.58,1.58,0,0,0,0-3.16,1.58,1.58,0,0,0,0,3.16Z"/><path class="cls-1" d="M1457.68,125.07a1.58,1.58,0,0,0,0-3.16,1.58,1.58,0,0,0,0,3.16Z"/><path class="cls-1" d="M1466.09,129.3a1.59,1.59,0,0,0,0-3.17,1.59,1.59,0,0,0,0,3.17Z"/><path class="cls-1" d="M1496.32,122.71a1.59,1.59,0,0,0,0-3.17,1.59,1.59,0,0,0,0,3.17Z"/><path class="cls-1" d="M1533,124.38a1.58,1.58,0,0,0,0-3.16,1.58,1.58,0,0,0,0,3.16Z"/><path class="cls-1" d="M1541.37,128.61a1.59,1.59,0,0,0,0-3.17,1.59,1.59,0,0,0,0,3.17Z"/><path class="cls-1" d="M1571.59,122a1.58,1.58,0,0,0,0-3.16,1.58,1.58,0,0,0,0,3.16Z"/><path class="cls-1" d="M1563.2,112.28a1.58,1.58,0,0,0,0-3.16,1.58,1.58,0,0,0,0,3.16Z"/><path class="cls-1" d="M1533,118.87a1.58,1.58,0,0,0,0-3.16,1.58,1.58,0,0,0,0,3.16Z"/><path class="cls-1" d="M1549.07,114.44a1.59,1.59,0,0,0,0-3.17,1.59,1.59,0,0,0,0,3.17Z"/><path class="cls-1" d="M1487.93,113a1.59,1.59,0,0,0,0-3.17,1.59,1.59,0,0,0,0,3.17Z"/><path class="cls-1" d="M1457.7,119.57a1.59,1.59,0,0,0,0-3.17,1.59,1.59,0,0,0,0,3.17Z"/><path class="cls-1" d="M1631.42,119.75a1.58,1.58,0,0,0,0-3.16,1.58,1.58,0,0,0,0,3.16Z"/><path class="cls-1" d="M1661.59,112.93a1.58,1.58,0,0,0,0-3.16,1.58,1.58,0,0,0,0,3.16Z"/><path class="cls-1" d="M1698.24,114.34a1.59,1.59,0,0,0,0-3.17,1.59,1.59,0,0,0,0,3.17Z"/><path class="cls-1" d="M1706.69,118.5a1.59,1.59,0,0,0,0-3.17,1.59,1.59,0,0,0,0,3.17Z"/><path class="cls-1" d="M1736.86,111.68a1.58,1.58,0,0,0,0-3.16,1.58,1.58,0,0,0,0,3.16Z"/><path class="cls-1" d="M1736.85,106.17a1.58,1.58,0,0,0,0-3.16,1.58,1.58,0,0,0,0,3.16Z"/><path class="cls-1" d="M1728.4,102a1.58,1.58,0,0,0,0-3.16,1.58,1.58,0,0,0,0,3.16Z"/><path class="cls-1" d="M1698.23,108.83a1.59,1.59,0,0,0,0-3.17,1.59,1.59,0,0,0,0,3.17Z"/><path class="cls-1" d="M1653.13,103.27a1.59,1.59,0,0,0,0-3.17,1.59,1.59,0,0,0,0,3.17Z"/><path class="cls-1" d="M1623,110.08a1.58,1.58,0,0,0,0-3.16,1.58,1.58,0,0,0,0,3.16Z"/><path class="cls-1" d="M1788,110a1.58,1.58,0,0,0,0-3.16,1.58,1.58,0,0,0,0,3.16Z"/><path class="cls-1" d="M1796.28,114.44a1.59,1.59,0,0,0,0-3.17,1.59,1.59,0,0,0,0,3.17Z"/><path class="cls-1" d="M1826.63,108.49a1.58,1.58,0,0,0,0-3.16,1.58,1.58,0,0,0,0,3.16Z"/><path class="cls-1" d="M1863.23,111a1.59,1.59,0,0,0,0-3.17,1.59,1.59,0,0,0,0,3.17Z"/><path class="cls-1" d="M1871.55,115.35a1.59,1.59,0,0,0,0-3.17,1.59,1.59,0,0,0,0,3.17Z"/><path class="cls-1" d="M1901.91,109.4a1.58,1.58,0,0,0,0-3.16,1.58,1.58,0,0,0,0,3.16Z"/><path class="cls-1" d="M1902.05,103.9a1.59,1.59,0,0,0,0-3.17,1.59,1.59,0,0,0,0,3.17Z"/><path class="cls-1" d="M1893.73,99.49a1.58,1.58,0,0,0,0-3.16,1.58,1.58,0,0,0,0,3.16Z"/><path class="cls-1" d="M1863.37,105.44a1.58,1.58,0,0,0,0-3.16,1.58,1.58,0,0,0,0,3.16Z"/><path class="cls-1" d="M1826.78,103a1.59,1.59,0,0,0,0-3.17,1.59,1.59,0,0,0,0,3.17Z"/><path class="cls-1" d="M1818.45,98.58a1.58,1.58,0,0,0,0-3.16,1.58,1.58,0,0,0,0,3.16Z"/><path class="cls-1" d="M1788.1,104.53a1.58,1.58,0,0,0,0-3.16,1.58,1.58,0,0,0,0,3.16Z"/><path class="cls-1" d="M2060.17,101.83a1.59,1.59,0,0,0,0-3.17,1.59,1.59,0,0,0,0,3.17Z"/><path class="cls-1" d="M2052.36,107.09a1.58,1.58,0,0,0,0-3.16,1.58,1.58,0,0,0,0,3.16Z"/><path class="cls-1" d="M2021.54,104.4a1.58,1.58,0,0,0,0-3.16,1.58,1.58,0,0,0,0,3.16Z"/><path class="cls-1" d="M1985.42,110.73a1.59,1.59,0,0,0,0-3.17,1.59,1.59,0,0,0,0,3.17Z"/><path class="cls-1" d="M1977.61,116a1.58,1.58,0,0,0,0-3.16,1.58,1.58,0,0,0,0,3.16Z"/><path class="cls-1" d="M1946.79,113.3a1.58,1.58,0,0,0,0-3.16,1.58,1.58,0,0,0,0,3.16Z"/><path class="cls-1" d="M1946.07,107.84a1.58,1.58,0,0,0,0-3.16,1.58,1.58,0,0,0,0,3.16Z"/><path class="cls-1" d="M1953.87,102.58a1.58,1.58,0,0,0,0-3.16,1.58,1.58,0,0,0,0,3.16Z"/><path class="cls-1" d="M1984.69,105.27a1.59,1.59,0,0,0,0-3.17,1.59,1.59,0,0,0,0,3.17Z"/><path class="cls-1" d="M2020.82,98.94a1.58,1.58,0,0,0,0-3.16,1.58,1.58,0,0,0,0,3.16Z"/><path class="cls-1" d="M2028.63,93.68a1.58,1.58,0,0,0,0-3.16,1.58,1.58,0,0,0,0,3.16Z"/><path class="cls-1" d="M2059.44,96.37a1.58,1.58,0,0,0,0-3.16,1.58,1.58,0,0,0,0,3.16Z"/><path class="cls-1" d="M2106.68,108.13a1.59,1.59,0,0,0,0-3.17,1.59,1.59,0,0,0,0,3.17Z"/><path class="cls-1" d="M2114.49,113.39a1.58,1.58,0,0,0,0-3.16,1.58,1.58,0,0,0,0,3.16Z"/><path class="cls-1" d="M2145.3,110.7a1.58,1.58,0,0,0,0-3.16,1.58,1.58,0,0,0,0,3.16Z"/><path class="cls-1" d="M2181.43,117a1.59,1.59,0,0,0,0-3.17,1.59,1.59,0,0,0,0,3.17Z"/><path class="cls-1" d="M2189.24,122.29a1.58,1.58,0,0,0,0-3.16,1.58,1.58,0,0,0,0,3.16Z"/><path class="cls-1" d="M2220.05,119.6a1.58,1.58,0,0,0,0-3.16,1.58,1.58,0,0,0,0,3.16Z"/><path class="cls-1" d="M2220.78,114.14a1.58,1.58,0,0,0,0-3.16,1.58,1.58,0,0,0,0,3.16Z"/><path class="cls-1" d="M2213,108.88a1.59,1.59,0,0,0,0-3.17,1.59,1.59,0,0,0,0,3.17Z"/><path class="cls-1" d="M2182.16,111.57a1.59,1.59,0,0,0,0-3.17,1.59,1.59,0,0,0,0,3.17Z"/><path class="cls-1" d="M2146,105.24a1.58,1.58,0,0,0,0-3.16,1.58,1.58,0,0,0,0,3.16Z"/><path class="cls-1" d="M2138.22,100a1.58,1.58,0,0,0,0-3.16,1.58,1.58,0,0,0,0,3.16Z"/><path class="cls-1" d="M2107.4,102.67a1.59,1.59,0,0,0,0-3.17,1.59,1.59,0,0,0,0,3.17Z"/><path class="cls-1" d="M2268.86,124.24a1.58,1.58,0,0,0,0-3.16,1.58,1.58,0,0,0,0,3.16Z"/><path class="cls-1" d="M2281.59,119.82a1.58,1.58,0,0,0,0-3.16,1.58,1.58,0,0,0,0,3.16Z"/><path class="cls-1" d="M2312.4,117.13a1.58,1.58,0,0,0,0-3.16,1.58,1.58,0,0,0,0,3.16Z"/><path class="cls-1" d="M2348.53,123.46a1.58,1.58,0,0,0,0-3.16,1.58,1.58,0,0,0,0,3.16Z"/><path class="cls-1" d="M2356.34,128.72a1.58,1.58,0,0,0,0-3.16,1.58,1.58,0,0,0,0,3.16Z"/><path class="cls-1" d="M2387.15,126a1.58,1.58,0,0,0,0-3.16,1.58,1.58,0,0,0,0,3.16Z"/><path class="cls-1" d="M2387.88,120.57a1.58,1.58,0,0,0,0-3.16,1.58,1.58,0,0,0,0,3.16Z"/><path class="cls-1" d="M2380.07,115.31a1.58,1.58,0,0,0,0-3.16,1.58,1.58,0,0,0,0,3.16Z"/><path class="cls-1" d="M2349.26,118a1.58,1.58,0,0,0,0-3.16,1.58,1.58,0,0,0,0,3.16Z"/><path class="cls-1" d="M2313.13,111.67a1.58,1.58,0,0,0,0-3.16,1.58,1.58,0,0,0,0,3.16Z"/><path class="cls-1" d="M2305.32,106.41a1.58,1.58,0,0,0,0-3.16,1.58,1.58,0,0,0,0,3.16Z"/><path class="cls-1" d="M2274.5,109.1a1.58,1.58,0,0,0,0-3.16,1.58,1.58,0,0,0,0,3.16Z"/><path class="cls-1" d="M2423.71,125.87a1.58,1.58,0,0,0,0-3.16,1.58,1.58,0,0,0,0,3.16Z"/><path class="cls-1" d="M2431.52,131.13a1.58,1.58,0,0,0,0-3.16,1.58,1.58,0,0,0,0,3.16Z"/><path class="cls-1" d="M2462.33,128.45a1.59,1.59,0,0,0,0-3.17,1.59,1.59,0,0,0,0,3.17Z"/><path class="cls-1" d="M2498.46,134.77a1.58,1.58,0,0,0,0-3.16,1.58,1.58,0,0,0,0,3.16Z"/><path class="cls-1" d="M2506.27,140a1.58,1.58,0,0,0,0-3.16,1.58,1.58,0,0,0,0,3.16Z"/><path class="cls-1" d="M2537.09,137.35a1.59,1.59,0,0,0,0-3.17,1.59,1.59,0,0,0,0,3.17Z"/><path class="cls-1" d="M2537.81,131.89a1.59,1.59,0,0,0,0-3.17,1.59,1.59,0,0,0,0,3.17Z"/><path class="cls-1" d="M2530,126.62a1.58,1.58,0,0,0,0-3.16,1.58,1.58,0,0,0,0,3.16Z"/><path class="cls-1" d="M2499.19,129.31a1.58,1.58,0,0,0,0-3.16,1.58,1.58,0,0,0,0,3.16Z"/><path class="cls-1" d="M2463.06,123a1.59,1.59,0,0,0,0-3.17,1.59,1.59,0,0,0,0,3.17Z"/><path class="cls-1" d="M2455.25,117.72a1.58,1.58,0,0,0,0-3.16,1.58,1.58,0,0,0,0,3.16Z"/><path class="cls-1" d="M2424.43,120.41a1.58,1.58,0,0,0,0-3.16,1.58,1.58,0,0,0,0,3.16Z"/><path class="cls-1" d="M2190.23,96.69a1.21,1.21,0,0,0,0-2.41,1.21,1.21,0,0,0,0,2.41Z"/><path class="cls-1" d="M2218.59,94.41a1.21,1.21,0,0,0,0-2.41,1.21,1.21,0,0,0,0,2.41Z"/><path class="cls-1" d="M2251.48,106a1.21,1.21,0,0,0,0-2.41,1.21,1.21,0,0,0,0,2.41Z"/><path class="cls-1" d="M2274.94,104a1.21,1.21,0,0,0,0-2.41,1.21,1.21,0,0,0,0,2.41Z"/><path class="cls-1" d="M2273.38,99.49a1.21,1.21,0,0,0,0-2.41,1.21,1.21,0,0,0,0,2.41Z"/><path class="cls-1" d="M2246.09,97.86a1.21,1.21,0,0,0,0-2.41,1.21,1.21,0,0,0,0,2.41Z"/><path class="cls-1" d="M2212.65,89a1.21,1.21,0,0,0,0-2.41,1.21,1.21,0,0,0,0,2.41Z"/><path class="cls-1" d="M2189.2,91.09a1.21,1.21,0,0,0,0-2.41,1.21,1.21,0,0,0,0,2.41Z"/><path class="cls-1" d="M2454,102.39a1.2,1.2,0,0,0,0-2.4,1.2,1.2,0,0,0,0,2.4Z"/><path class="cls-1" d="M2486.88,114a1.2,1.2,0,0,0,0-2.4,1.2,1.2,0,0,0,0,2.4Z"/><path class="cls-1" d="M2510.33,112a1.21,1.21,0,0,0,0-2.41,1.21,1.21,0,0,0,0,2.41Z"/><path class="cls-1" d="M2508.78,107.47a1.2,1.2,0,0,0,0-2.4,1.2,1.2,0,0,0,0,2.4Z"/><path class="cls-1" d="M2481.49,105.84a1.2,1.2,0,0,0,0-2.4,1.2,1.2,0,0,0,0,2.4Z"/><path class="cls-1" d="M2448.05,97a1.2,1.2,0,0,0,0-2.4,1.2,1.2,0,0,0,0,2.4Z"/><path class="cls-1" d="M2424.6,99.07a1.21,1.21,0,0,0,0-2.41,1.21,1.21,0,0,0,0,2.41Z"/><path class="cls-1" d="M2324.51,95.21a1.21,1.21,0,0,0,0-2.41,1.21,1.21,0,0,0,0,2.41Z"/><path class="cls-1" d="M2352.86,92.93a1.21,1.21,0,0,0,0-2.41,1.21,1.21,0,0,0,0,2.41Z"/><path class="cls-1" d="M2385.76,104.54a1.21,1.21,0,0,0,0-2.41,1.21,1.21,0,0,0,0,2.41Z"/><path class="cls-1" d="M2407.84,105.84a1.2,1.2,0,0,0,0-2.4,1.2,1.2,0,0,0,0,2.4Z"/><path class="cls-1" d="M2407.66,98a1.21,1.21,0,0,0,0-2.41,1.21,1.21,0,0,0,0,2.41Z"/><path class="cls-1" d="M2380.37,96.38a1.21,1.21,0,0,0,0-2.41,1.21,1.21,0,0,0,0,2.41Z"/><path class="cls-1" d="M2346.93,87.56a1.21,1.21,0,0,0,0-2.41,1.21,1.21,0,0,0,0,2.41Z"/><path class="cls-1" d="M2323.48,89.61a1.21,1.21,0,0,0,0-2.41,1.21,1.21,0,0,0,0,2.41Z"/><path class="cls-1" d="M2222.72,85.93a1.21,1.21,0,0,0,0-2.41,1.21,1.21,0,0,0,0,2.41Z"/><path class="cls-1" d="M2251.07,83.65a1.21,1.21,0,0,0,0-2.41,1.21,1.21,0,0,0,0,2.41Z"/><path class="cls-1" d="M2284,95.26a1.21,1.21,0,0,0,0-2.41,1.21,1.21,0,0,0,0,2.41Z"/><path class="cls-1" d="M2307.42,93.22a1.21,1.21,0,0,0,0-2.41,1.21,1.21,0,0,0,0,2.41Z"/><path class="cls-1" d="M2305.87,88.73a1.21,1.21,0,0,0,0-2.41,1.21,1.21,0,0,0,0,2.41Z"/><path class="cls-1" d="M2278.58,87.1a1.21,1.21,0,0,0,0-2.41,1.21,1.21,0,0,0,0,2.41Z"/><path class="cls-1" d="M2245.14,78.28a1.21,1.21,0,0,0,0-2.41,1.21,1.21,0,0,0,0,2.41Z"/><path class="cls-1" d="M2221.68,80.33a1.21,1.21,0,0,0,0-2.41,1.21,1.21,0,0,0,0,2.41Z"/><path class="cls-1" d="M2445.74,88.55a1.2,1.2,0,0,0,0-2.4,1.2,1.2,0,0,0,0,2.4Z"/><path class="cls-1" d="M2474.09,86.27a1.2,1.2,0,0,0,0-2.4,1.2,1.2,0,0,0,0,2.4Z"/><path class="cls-1" d="M2507,97.88a1.2,1.2,0,0,0,0-2.4,1.2,1.2,0,0,0,0,2.4Z"/><path class="cls-1" d="M2530.44,95.84a1.21,1.21,0,0,0,0-2.41,1.21,1.21,0,0,0,0,2.41Z"/><path class="cls-1" d="M2528.89,91.35a1.2,1.2,0,0,0,0-2.4,1.2,1.2,0,0,0,0,2.4Z"/><path class="cls-1" d="M2501.6,89.72a1.2,1.2,0,0,0,0-2.4,1.2,1.2,0,0,0,0,2.4Z"/><path class="cls-1" d="M2468.16,80.9a1.2,1.2,0,0,0,0-2.4,1.2,1.2,0,0,0,0,2.4Z"/><path class="cls-1" d="M2444.71,83a1.21,1.21,0,0,0,0-2.41,1.21,1.21,0,0,0,0,2.41Z"/><path class="cls-1" d="M2332.91,78.79a1.21,1.21,0,0,0,0-2.41,1.21,1.21,0,0,0,0,2.41Z"/><path class="cls-1" d="M2361.27,76.51a1.21,1.21,0,0,0,0-2.41,1.21,1.21,0,0,0,0,2.41Z"/><path class="cls-1" d="M2394.17,88.12a1.21,1.21,0,0,0,0-2.41,1.21,1.21,0,0,0,0,2.41Z"/><path class="cls-1" d="M2416.07,81.59a1.21,1.21,0,0,0,0-2.41,1.21,1.21,0,0,0,0,2.41Z"/><path class="cls-1" d="M2388.78,80a1.21,1.21,0,0,0,0-2.41,1.21,1.21,0,0,0,0,2.41Z"/><path class="cls-1" d="M2355.34,71.14a1.21,1.21,0,0,0,0-2.41,1.21,1.21,0,0,0,0,2.41Z"/><path class="cls-1" d="M2331.88,73.18a1.2,1.2,0,0,0,0-2.4,1.2,1.2,0,0,0,0,2.4Z"/><path class="cls-1" d="M2079.64,87.44a1.21,1.21,0,0,0,0-2.41,1.21,1.21,0,0,0,0,2.41Z"/><path class="cls-1" d="M2108,85.16a1.21,1.21,0,0,0,0-2.41,1.21,1.21,0,0,0,0,2.41Z"/><path class="cls-1" d="M2140.89,96.77a1.21,1.21,0,0,0,0-2.41,1.21,1.21,0,0,0,0,2.41Z"/><path class="cls-1" d="M2164.34,94.72a1.2,1.2,0,0,0,0-2.4,1.2,1.2,0,0,0,0,2.4Z"/><path class="cls-1" d="M2162.79,90.24a1.21,1.21,0,0,0,0-2.41,1.21,1.21,0,0,0,0,2.41Z"/><path class="cls-1" d="M2135.5,88.61a1.21,1.21,0,0,0,0-2.41,1.21,1.21,0,0,0,0,2.41Z"/><path class="cls-1" d="M2102.06,79.79a1.21,1.21,0,0,0,0-2.41,1.21,1.21,0,0,0,0,2.41Z"/><path class="cls-1" d="M2078.61,81.84a1.21,1.21,0,0,0,0-2.41,1.21,1.21,0,0,0,0,2.41Z"/><path class="cls-1" d="M2113.86,73.49a1.2,1.2,0,0,0,0-2.4,1.2,1.2,0,0,0,0,2.4Z"/><path class="cls-1" d="M2142.22,71.21a1.2,1.2,0,0,0,0-2.4,1.2,1.2,0,0,0,0,2.4Z"/><path class="cls-1" d="M2175.12,82.82a1.2,1.2,0,0,0,0-2.4,1.2,1.2,0,0,0,0,2.4Z"/><path class="cls-1" d="M2198.57,80.78a1.21,1.21,0,0,0,0-2.41,1.21,1.21,0,0,0,0,2.41Z"/><path class="cls-1" d="M2197,76.29a1.2,1.2,0,0,0,0-2.4,1.2,1.2,0,0,0,0,2.4Z"/><path class="cls-1" d="M2169.73,74.66a1.2,1.2,0,0,0,0-2.4,1.2,1.2,0,0,0,0,2.4Z"/><path class="cls-1" d="M2136.29,65.84a1.2,1.2,0,0,0,0-2.4,1.2,1.2,0,0,0,0,2.4Z"/><path class="cls-1" d="M2112.83,67.89a1.21,1.21,0,0,0,0-2.41,1.21,1.21,0,0,0,0,2.41Z"/><path class="cls-1" d="M2005.76,73.83a1.21,1.21,0,0,0,0-2.41,1.21,1.21,0,0,0,0,2.41Z"/><path class="cls-1" d="M2033.67,68.34a1.2,1.2,0,0,0,0-2.4,1.2,1.2,0,0,0,0,2.4Z"/><path class="cls-1" d="M2067.68,76.14a1.2,1.2,0,0,0,0-2.4,1.2,1.2,0,0,0,0,2.4Z"/><path class="cls-1" d="M2090.75,71.45a1.21,1.21,0,0,0,0-2.41,1.21,1.21,0,0,0,0,2.41Z"/><path class="cls-1" d="M2088.7,67.17a1.21,1.21,0,0,0,0-2.41,1.21,1.21,0,0,0,0,2.41Z"/><path class="cls-1" d="M2061.39,68.65a1.21,1.21,0,0,0,0-2.41,1.21,1.21,0,0,0,0,2.41Z"/><path class="cls-1" d="M2081.66,93.39a1.21,1.21,0,0,0,0-2.41,1.21,1.21,0,0,0,0,2.41Z"/><path class="cls-1" d="M2064,83.14a1.21,1.21,0,0,0,0-2.41,1.21,1.21,0,0,0,0,2.41Z"/><path class="cls-1" d="M1937.05,94.25a1.2,1.2,0,0,0,0-2.4,1.2,1.2,0,0,0,0,2.4Z"/><path class="cls-1" d="M1971.22,83.49a1.21,1.21,0,0,0,0-2.41,1.21,1.21,0,0,0,0,2.41Z"/><path class="cls-1" d="M1998.83,90.55a1.2,1.2,0,0,0,0-2.4,1.2,1.2,0,0,0,0,2.4Z"/><path class="cls-1" d="M2021.9,85.86a1.21,1.21,0,0,0,0-2.41,1.21,1.21,0,0,0,0,2.41Z"/><path class="cls-1" d="M2019.85,81.58a1.21,1.21,0,0,0,0-2.41,1.21,1.21,0,0,0,0,2.41Z"/><path class="cls-1" d="M1992.55,83.06a1.21,1.21,0,0,0,0-2.41,1.21,1.21,0,0,0,0,2.41Z"/><path class="cls-1" d="M1960.83,81.36a1.21,1.21,0,0,0,0-2.41,1.21,1.21,0,0,0,0,2.41Z"/><path class="cls-1" d="M1937.23,86.62a1.21,1.21,0,0,0,0-2.41,1.21,1.21,0,0,0,0,2.41Z"/><path class="cls-1" d="M1833.79,90.36a1.21,1.21,0,0,0,0-2.41,1.21,1.21,0,0,0,0,2.41Z"/><path class="cls-1" d="M1861.71,84.88a1.21,1.21,0,0,0,0-2.41,1.21,1.21,0,0,0,0,2.41Z"/><path class="cls-1" d="M1895.71,92.68a1.21,1.21,0,0,0,0-2.41,1.21,1.21,0,0,0,0,2.41Z"/><path class="cls-1" d="M1918.78,88a1.21,1.21,0,0,0,0-2.41,1.21,1.21,0,0,0,0,2.41Z"/><path class="cls-1" d="M1916.73,83.7a1.21,1.21,0,0,0,0-2.41,1.21,1.21,0,0,0,0,2.41Z"/><path class="cls-1" d="M1889.43,85.18a1.21,1.21,0,0,0,0-2.41,1.21,1.21,0,0,0,0,2.41Z"/><path class="cls-1" d="M1855.2,80.21a1.2,1.2,0,0,0,0-2.4,1.2,1.2,0,0,0,0,2.4Z"/><path class="cls-1" d="M1832.13,84.91a1.21,1.21,0,0,0,0-2.41,1.21,1.21,0,0,0,0,2.41Z"/><path class="cls-1" d="M1729.33,91a1.21,1.21,0,0,0,0-2.41,1.21,1.21,0,0,0,0,2.41Z"/><path class="cls-1" d="M1772.4,100.32a1.21,1.21,0,0,0,0-2.41,1.21,1.21,0,0,0,0,2.41Z"/><path class="cls-1" d="M1791.24,93.35a1.2,1.2,0,0,0,0-2.4,1.2,1.2,0,0,0,0,2.4Z"/><path class="cls-1" d="M1814.31,88.66a1.21,1.21,0,0,0,0-2.41,1.21,1.21,0,0,0,0,2.41Z"/><path class="cls-1" d="M1812.26,84.38a1.21,1.21,0,0,0,0-2.41,1.21,1.21,0,0,0,0,2.41Z"/><path class="cls-1" d="M1785,85.86a1.21,1.21,0,0,0,0-2.41,1.21,1.21,0,0,0,0,2.41Z"/><path class="cls-1" d="M1621.67,94.73a1.21,1.21,0,0,0,0-2.41,1.21,1.21,0,0,0,0,2.41Z"/><path class="cls-1" d="M1649.58,89.25a1.21,1.21,0,0,0,0-2.41,1.21,1.21,0,0,0,0,2.41Z"/><path class="cls-1" d="M1683.58,97.05a1.21,1.21,0,0,0,0-2.41,1.21,1.21,0,0,0,0,2.41Z"/><path class="cls-1" d="M1706.65,92.35a1.21,1.21,0,0,0,0-2.41,1.21,1.21,0,0,0,0,2.41Z"/><path class="cls-1" d="M1698.7,90a1.21,1.21,0,0,0,0-2.41,1.21,1.21,0,0,0,0,2.41Z"/><path class="cls-1" d="M1677.3,89.55a1.21,1.21,0,0,0,0-2.41,1.21,1.21,0,0,0,0,2.41Z"/><path class="cls-1" d="M1620,89.28a1.21,1.21,0,0,0,0-2.41,1.21,1.21,0,0,0,0,2.41Z"/><path class="cls-1" d="M874.43,100.4a1.21,1.21,0,0,0,0-2.41,1.21,1.21,0,0,0,0,2.41Z"/><path class="cls-1" d="M936.35,102.71a1.2,1.2,0,0,0,0-2.4,1.2,1.2,0,0,0,0,2.4Z"/><path class="cls-1" d="M959.42,98a1.21,1.21,0,0,0,0-2.41,1.21,1.21,0,0,0,0,2.41Z"/><path class="cls-1" d="M852.45,94.6a1.21,1.21,0,0,0,0-2.41,1.21,1.21,0,0,0,0,2.41Z"/><path class="cls-1" d="M872.77,95a1.21,1.21,0,0,0,0-2.41,1.21,1.21,0,0,0,0,2.41Z"/><path class="cls-1" d="M781.34,93a1.21,1.21,0,0,0,0-2.41,1.21,1.21,0,0,0,0,2.41Z"/><path class="cls-1" d="M809.25,87.51a1.21,1.21,0,0,0,0-2.41,1.21,1.21,0,0,0,0,2.41Z"/><path class="cls-1" d="M843.26,95.31a1.21,1.21,0,0,0,0-2.41,1.21,1.21,0,0,0,0,2.41Z"/><path class="cls-1" d="M802.75,82.85a1.21,1.21,0,0,0,0-2.41,1.21,1.21,0,0,0,0,2.41Z"/><path class="cls-1" d="M779.68,87.55a1.21,1.21,0,0,0,0-2.41,1.21,1.21,0,0,0,0,2.41Z"/><path class="cls-1" d="M692.77,82.93a1.21,1.21,0,0,0,0-2.41,1.21,1.21,0,0,0,0,2.41Z"/><path class="cls-1" d="M714.18,72.78a1.21,1.21,0,0,0,0-2.41,1.21,1.21,0,0,0,0,2.41Z"/><path class="cls-1" d="M691.11,77.48a1.21,1.21,0,0,0,0-2.41,1.21,1.21,0,0,0,0,2.41Z"/><path class="cls-1" d="M608.71,71.89a1.21,1.21,0,0,0,0-2.41,1.21,1.21,0,0,0,0,2.41Z"/><path class="cls-1" d="M595.21,66.11a1.21,1.21,0,0,0,0-2.41,1.21,1.21,0,0,0,0,2.41Z"/><path class="cls-1" d="M670.62,74.2a1.21,1.21,0,0,0,0-2.41,1.21,1.21,0,0,0,0,2.41Z"/><path class="cls-1" d="M693.69,69.51a1.21,1.21,0,0,0,0-2.41,1.21,1.21,0,0,0,0,2.41Z"/><path class="cls-1" d="M630.12,61.74a1.21,1.21,0,0,0,0-2.41,1.21,1.21,0,0,0,0,2.41Z"/><path class="cls-1" d="M607.05,66.44a1.21,1.21,0,0,0,0-2.41,1.21,1.21,0,0,0,0,2.41Z"/><path class="cls-1" d="M453.1,53.58a1.21,1.21,0,0,0,0-2.41,1.21,1.21,0,0,0,0,2.41Z"/><path class="cls-1" d="M481,48.1a1.21,1.21,0,0,0,0-2.41,1.21,1.21,0,0,0,0,2.41Z"/><path class="cls-1" d="M515,55.9a1.21,1.21,0,0,0,0-2.41,1.21,1.21,0,0,0,0,2.41Z"/><path class="cls-1" d="M538.09,51.2a1.21,1.21,0,0,0,0-2.41,1.21,1.21,0,0,0,0,2.41Z"/><path class="cls-1" d="M583.37,71.72a1.21,1.21,0,0,0,0-2.41,1.21,1.21,0,0,0,0,2.41Z"/><path class="cls-1" d="M508.74,48.4a1.21,1.21,0,0,0,0-2.41,1.21,1.21,0,0,0,0,2.41Z"/><path class="cls-1" d="M474.51,43.43a1.2,1.2,0,0,0,0-2.4,1.2,1.2,0,0,0,0,2.4Z"/><path class="cls-1" d="M451.44,48.13a1.21,1.21,0,0,0,0-2.41,1.21,1.21,0,0,0,0,2.41Z"/><path class="cls-1" d="M361.78,43.72a1.2,1.2,0,0,0,0-2.4,1.2,1.2,0,0,0,0,2.4Z"/><path class="cls-1" d="M389.69,38.24a1.21,1.21,0,0,0,0-2.41,1.21,1.21,0,0,0,0,2.41Z"/><path class="cls-1" d="M423.69,46a1.21,1.21,0,0,0,0-2.41,1.21,1.21,0,0,0,0,2.41Z"/><path class="cls-1" d="M446.76,41.34a1.2,1.2,0,0,0,0-2.4,1.2,1.2,0,0,0,0,2.4Z"/><path class="cls-1" d="M444.71,37.06a1.2,1.2,0,0,0,0-2.4,1.2,1.2,0,0,0,0,2.4Z"/><path class="cls-1" d="M417.41,38.54a1.2,1.2,0,0,0,0-2.4,1.2,1.2,0,0,0,0,2.4Z"/><path class="cls-1" d="M383.19,33.58a1.21,1.21,0,0,0,0-2.41,1.21,1.21,0,0,0,0,2.41Z"/><path class="cls-1" d="M360.12,38.27a1.2,1.2,0,0,0,0-2.4,1.2,1.2,0,0,0,0,2.4Z"/><path class="cls-1" d="M259.61,44.52a1.21,1.21,0,0,0,0-2.41,1.21,1.21,0,0,0,0,2.41Z"/><path class="cls-1" d="M287.52,39a1.21,1.21,0,0,0,0-2.41,1.21,1.21,0,0,0,0,2.41Z"/><path class="cls-1" d="M321.53,46.83a1.21,1.21,0,0,0,0-2.41,1.21,1.21,0,0,0,0,2.41Z"/><path class="cls-1" d="M344.6,42.13a1.2,1.2,0,0,0,0-2.4,1.2,1.2,0,0,0,0,2.4Z"/><path class="cls-1" d="M342.55,37.86a1.21,1.21,0,0,0,0-2.41,1.21,1.21,0,0,0,0,2.41Z"/><path class="cls-1" d="M315.24,39.34a1.21,1.21,0,0,0,0-2.41,1.21,1.21,0,0,0,0,2.41Z"/><path class="cls-1" d="M281,34.37A1.21,1.21,0,0,0,281,32a1.21,1.21,0,0,0,0,2.41Z"/><path class="cls-1" d="M258,39.07a1.21,1.21,0,0,0,0-2.41,1.21,1.21,0,0,0,0,2.41Z"/><path class="cls-1" d="M56.5,28.05a1.21,1.21,0,0,0,0-2.41,1.21,1.21,0,0,0,0,2.41Z"/><path class="cls-1" d="M84.41,22.57a1.21,1.21,0,0,0,0-2.41,1.21,1.21,0,0,0,0,2.41Z"/><path class="cls-1" d="M118.41,30.37a1.21,1.21,0,0,0,0-2.41,1.21,1.21,0,0,0,0,2.41Z"/><path class="cls-1" d="M141.48,25.67a1.21,1.21,0,0,0,0-2.41,1.21,1.21,0,0,0,0,2.41Z"/><path class="cls-1" d="M139.43,21.39a1.21,1.21,0,0,0,0-2.41,1.21,1.21,0,0,0,0,2.41Z"/><path class="cls-1" d="M112.13,22.87a1.21,1.21,0,0,0,0-2.41,1.21,1.21,0,0,0,0,2.41Z"/><path class="cls-1" d="M77.91,17.91a1.21,1.21,0,0,0,0-2.41,1.21,1.21,0,0,0,0,2.41Z"/><path class="cls-1" d="M54.84,22.6a1.21,1.21,0,0,0,0-2.41,1.21,1.21,0,0,0,0,2.41Z"/><path class="cls-1" d="M164.31,30.15a1.21,1.21,0,0,0,0-2.41,1.21,1.21,0,0,0,0,2.41Z"/><path class="cls-1" d="M192.23,24.67a1.21,1.21,0,0,0,0-2.41,1.21,1.21,0,0,0,0,2.41Z"/><path class="cls-1" d="M226.23,32.47a1.21,1.21,0,0,0,0-2.41,1.21,1.21,0,0,0,0,2.41Z"/><path class="cls-1" d="M249.3,27.77a1.21,1.21,0,0,0,0-2.41,1.21,1.21,0,0,0,0,2.41Z"/><path class="cls-1" d="M245.8,16.19a1.21,1.21,0,0,0,0-2.41,1.21,1.21,0,0,0,0,2.41Z"/><path class="cls-1" d="M220,25a1.21,1.21,0,0,0,0-2.41A1.21,1.21,0,0,0,220,25Z"/><path class="cls-1" d="M162.65,24.7a1.21,1.21,0,0,0,0-2.41,1.21,1.21,0,0,0,0,2.41Z"/><path class="cls-1" d="M109.22,14.81a1.21,1.21,0,0,0,0-2.41,1.21,1.21,0,0,0,0,2.41Z"/><path class="cls-1" d="M137.14,9.33a1.21,1.21,0,0,0,0-2.41,1.21,1.21,0,0,0,0,2.41Z"/><path class="cls-1" d="M171.14,17.13a1.21,1.21,0,0,0,0-2.41,1.21,1.21,0,0,0,0,2.41Z"/><path class="cls-1" d="M194.21,12.43a1.21,1.21,0,0,0,0-2.41,1.21,1.21,0,0,0,0,2.41Z"/><path class="cls-1" d="M192.16,8.15a1.21,1.21,0,0,0,0-2.41,1.21,1.21,0,0,0,0,2.41Z"/><path class="cls-1" d="M164.86,9.63a1.21,1.21,0,0,0,0-2.41,1.21,1.21,0,0,0,0,2.41Z"/><path class="cls-1" d="M130.63,4.67a1.21,1.21,0,0,0,0-2.41,1.21,1.21,0,0,0,0,2.41Z"/><path class="cls-1" d="M107.56,9.36a1.21,1.21,0,0,0,0-2.41,1.21,1.21,0,0,0,0,2.41Z"/><path class="cls-1" d="M77.42,40.11a1.21,1.21,0,0,0,0-2.41,1.21,1.21,0,0,0,0,2.41Z"/><path class="cls-1" d="M30.74,7.07a1.21,1.21,0,0,0,0-2.41,1.21,1.21,0,0,0,0,2.41Z"/><path class="cls-1" d="M64.74,14.87a1.21,1.21,0,0,0,0-2.41,1.21,1.21,0,0,0,0,2.41Z"/><path class="cls-1" d="M87.81,10.17a1.21,1.21,0,0,0,0-2.41,1.21,1.21,0,0,0,0,2.41Z"/><path class="cls-1" d="M85.76,5.89a1.2,1.2,0,0,0,0-2.4,1.2,1.2,0,0,0,0,2.4Z"/><path class="cls-1" d="M58.46,7.37a1.2,1.2,0,0,0,0-2.4,1.2,1.2,0,0,0,0,2.4Z"/><path class="cls-1" d="M24.23,2.41a1.21,1.21,0,0,0,0-2.41,1.21,1.21,0,0,0,0,2.41Z"/><path class="cls-1" d="M1.16,7.1a1.2,1.2,0,0,0,0-2.4,1.2,1.2,0,0,0,0,2.4Z"/><path class="cls-1" d="M204.9,16.82a1.2,1.2,0,0,0,0-2.4,1.2,1.2,0,0,0,0,2.4Z"/><path class="cls-1" d="M245.8,10.76a1.21,1.21,0,0,0,0-2.41,1.21,1.21,0,0,0,0,2.41Z"/><path class="cls-1" d="M279.81,18.56a1.21,1.21,0,0,0,0-2.41,1.21,1.21,0,0,0,0,2.41Z"/><path class="cls-1" d="M302.88,13.87a1.21,1.21,0,0,0,0-2.41,1.21,1.21,0,0,0,0,2.41Z"/><path class="cls-1" d="M273.52,11.07a1.21,1.21,0,0,0,0-2.41,1.21,1.21,0,0,0,0,2.41Z"/><path class="cls-1" d="M239.3,6.1a1.21,1.21,0,0,0,0-2.41,1.21,1.21,0,0,0,0,2.41Z"/><path class="cls-1" d="M216.23,10.8a1.21,1.21,0,0,0,0-2.41,1.21,1.21,0,0,0,0,2.41Z"/><path class="cls-1" d="M276.6,27.19a1.21,1.21,0,0,0,0-2.41,1.21,1.21,0,0,0,0,2.41Z"/><path class="cls-1" d="M304.52,21.7a1.21,1.21,0,0,0,0-2.41,1.21,1.21,0,0,0,0,2.41Z"/><path class="cls-1" d="M317.89,14.87a1.21,1.21,0,0,0,0-2.41,1.21,1.21,0,0,0,0,2.41Z"/><path class="cls-1" d="M361.59,24.81a1.21,1.21,0,0,0,0-2.41,1.21,1.21,0,0,0,0,2.41Z"/><path class="cls-1" d="M359.54,20.53a1.21,1.21,0,0,0,0-2.41,1.21,1.21,0,0,0,0,2.41Z"/><path class="cls-1" d="M332.24,22a1.21,1.21,0,0,0,0-2.41,1.21,1.21,0,0,0,0,2.41Z"/><path class="cls-1" d="M298,17a1.21,1.21,0,0,0,0-2.41A1.21,1.21,0,0,0,298,17Z"/><path class="cls-1" d="M267.05,21.07a1.21,1.21,0,0,0,0-2.41,1.21,1.21,0,0,0,0,2.41Z"/><path class="cls-1" d="M384.76,26.93a1.21,1.21,0,0,0,0-2.41,1.21,1.21,0,0,0,0,2.41Z"/><path class="cls-1" d="M412.67,21.44a1.21,1.21,0,0,0,0-2.41,1.21,1.21,0,0,0,0,2.41Z"/><path class="cls-1" d="M446.67,29.24a1.21,1.21,0,0,0,0-2.41,1.21,1.21,0,0,0,0,2.41Z"/><path class="cls-1" d="M469.74,24.54a1.2,1.2,0,0,0,0-2.4,1.2,1.2,0,0,0,0,2.4Z"/><path class="cls-1" d="M467.69,20.27a1.21,1.21,0,0,0,0-2.41,1.21,1.21,0,0,0,0,2.41Z"/><path class="cls-1" d="M440.39,21.75a1.21,1.21,0,0,0,0-2.41,1.21,1.21,0,0,0,0,2.41Z"/><path class="cls-1" d="M331.46,14.59a1.21,1.21,0,0,0,0-2.41,1.21,1.21,0,0,0,0,2.41Z"/><path class="cls-1" d="M383.1,21.48a1.21,1.21,0,0,0,0-2.41,1.21,1.21,0,0,0,0,2.41Z"/><path class="cls-1" d="M523.1,34.58a1.21,1.21,0,0,0,0-2.41,1.21,1.21,0,0,0,0,2.41Z"/><path class="cls-1" d="M521.05,30.3a1.2,1.2,0,0,0,0-2.4,1.2,1.2,0,0,0,0,2.4Z"/><path class="cls-1" d="M602,55.93a1.21,1.21,0,0,0,0-2.41,1.21,1.21,0,0,0,0,2.41Z"/><path class="cls-1" d="M545.12,33a1.21,1.21,0,0,0,0-2.41,1.21,1.21,0,0,0,0,2.41Z"/><path class="cls-1" d="M2309,75.47a1.21,1.21,0,0,0,0-2.41,1.21,1.21,0,0,0,0,2.41Z"/><path class="cls-1" d="M2429.38,75.66a1.21,1.21,0,0,0,0-2.41,1.21,1.21,0,0,0,0,2.41Z"/><path class="cls-1" d="M2279.61,72.14a1.2,1.2,0,0,0,0-2.4,1.2,1.2,0,0,0,0,2.4Z"/><path class="cls-1" d="M2200.45,72.6a1.21,1.21,0,0,0,0-2.41,1.21,1.21,0,0,0,0,2.41Z"/><path class="cls-1" d="M2257.52,75.7a1.21,1.21,0,0,0,0-2.41,1.21,1.21,0,0,0,0,2.41Z"/><path class="cls-1" d="M2255.47,71.42a1.21,1.21,0,0,0,0-2.41,1.21,1.21,0,0,0,0,2.41Z"/><path class="cls-1" d="M2228.17,72.9a1.21,1.21,0,0,0,0-2.41,1.21,1.21,0,0,0,0,2.41Z"/><path class="cls-1" d="M2394.17,88.12a1.21,1.21,0,0,0,0-2.41,1.21,1.21,0,0,0,0,2.41Z"/><path class="cls-1" d="M2416.07,81.59a1.21,1.21,0,0,0,0-2.41,1.21,1.21,0,0,0,0,2.41Z"/><path class="cls-1" d="M2388.78,80a1.21,1.21,0,0,0,0-2.41,1.21,1.21,0,0,0,0,2.41Z"/><path class="cls-1" d="M2355.34,71.14a1.21,1.21,0,0,0,0-2.41,1.21,1.21,0,0,0,0,2.41Z"/><path class="cls-1" d="M2331.88,73.18a1.2,1.2,0,0,0,0-2.4,1.2,1.2,0,0,0,0,2.4Z"/><path class="cls-1" d="M2079.64,87.44a1.21,1.21,0,0,0,0-2.41,1.21,1.21,0,0,0,0,2.41Z"/><path class="cls-1" d="M2108,85.16a1.21,1.21,0,0,0,0-2.41,1.21,1.21,0,0,0,0,2.41Z"/><path class="cls-1" d="M2140.89,96.77a1.21,1.21,0,0,0,0-2.41,1.21,1.21,0,0,0,0,2.41Z"/><path class="cls-1" d="M2164.34,94.72a1.2,1.2,0,0,0,0-2.4,1.2,1.2,0,0,0,0,2.4Z"/><path class="cls-1" d="M2162.79,90.24a1.21,1.21,0,0,0,0-2.41,1.21,1.21,0,0,0,0,2.41Z"/><path class="cls-1" d="M2135.5,88.61a1.21,1.21,0,0,0,0-2.41,1.21,1.21,0,0,0,0,2.41Z"/><path class="cls-1" d="M2102.06,79.79a1.21,1.21,0,0,0,0-2.41,1.21,1.21,0,0,0,0,2.41Z"/><path class="cls-1" d="M2078.61,81.84a1.21,1.21,0,0,0,0-2.41,1.21,1.21,0,0,0,0,2.41Z"/><path class="cls-1" d="M2113.86,73.49a1.2,1.2,0,0,0,0-2.4,1.2,1.2,0,0,0,0,2.4Z"/><path class="cls-1" d="M2142.22,71.21a1.2,1.2,0,0,0,0-2.4,1.2,1.2,0,0,0,0,2.4Z"/><path class="cls-1" d="M2175.12,82.82a1.2,1.2,0,0,0,0-2.4,1.2,1.2,0,0,0,0,2.4Z"/><path class="cls-1" d="M2198.57,80.78a1.21,1.21,0,0,0,0-2.41,1.21,1.21,0,0,0,0,2.41Z"/><path class="cls-1" d="M2197,76.29a1.2,1.2,0,0,0,0-2.4,1.2,1.2,0,0,0,0,2.4Z"/><path class="cls-1" d="M2169.73,74.66a1.2,1.2,0,0,0,0-2.4,1.2,1.2,0,0,0,0,2.4Z"/><path class="cls-1" d="M2136.29,65.84a1.2,1.2,0,0,0,0-2.4,1.2,1.2,0,0,0,0,2.4Z"/><path class="cls-1" d="M2112.83,67.89a1.21,1.21,0,0,0,0-2.41,1.21,1.21,0,0,0,0,2.41Z"/><path class="cls-1" d="M2005.76,73.83a1.21,1.21,0,0,0,0-2.41,1.21,1.21,0,0,0,0,2.41Z"/><path class="cls-1" d="M2033.67,68.34a1.2,1.2,0,0,0,0-2.4,1.2,1.2,0,0,0,0,2.4Z"/><path class="cls-1" d="M2067.68,76.14a1.2,1.2,0,0,0,0-2.4,1.2,1.2,0,0,0,0,2.4Z"/><path class="cls-1" d="M2090.75,71.45a1.21,1.21,0,0,0,0-2.41,1.21,1.21,0,0,0,0,2.41Z"/><path class="cls-1" d="M2088.7,67.17a1.21,1.21,0,0,0,0-2.41,1.21,1.21,0,0,0,0,2.41Z"/><path class="cls-1" d="M2061.39,68.65a1.21,1.21,0,0,0,0-2.41,1.21,1.21,0,0,0,0,2.41Z"/><path class="cls-1" d="M2081.66,93.39a1.21,1.21,0,0,0,0-2.41,1.21,1.21,0,0,0,0,2.41Z"/><path class="cls-1" d="M2064,83.14a1.21,1.21,0,0,0,0-2.41,1.21,1.21,0,0,0,0,2.41Z"/><path class="cls-1" d="M1937.05,94.25a1.2,1.2,0,0,0,0-2.4,1.2,1.2,0,0,0,0,2.4Z"/><path class="cls-1" d="M1971.22,83.49a1.21,1.21,0,0,0,0-2.41,1.21,1.21,0,0,0,0,2.41Z"/><path class="cls-1" d="M1998.83,90.55a1.2,1.2,0,0,0,0-2.4,1.2,1.2,0,0,0,0,2.4Z"/><path class="cls-1" d="M2021.9,85.86a1.21,1.21,0,0,0,0-2.41,1.21,1.21,0,0,0,0,2.41Z"/><path class="cls-1" d="M2019.85,81.58a1.21,1.21,0,0,0,0-2.41,1.21,1.21,0,0,0,0,2.41Z"/><path class="cls-1" d="M1992.55,83.06a1.21,1.21,0,0,0,0-2.41,1.21,1.21,0,0,0,0,2.41Z"/><path class="cls-1" d="M1960.83,81.36a1.21,1.21,0,0,0,0-2.41,1.21,1.21,0,0,0,0,2.41Z"/><path class="cls-1" d="M1937.23,86.62a1.21,1.21,0,0,0,0-2.41,1.21,1.21,0,0,0,0,2.41Z"/><path class="cls-1" d="M1833.79,90.36a1.21,1.21,0,0,0,0-2.41,1.21,1.21,0,0,0,0,2.41Z"/><path class="cls-1" d="M1861.71,84.88a1.21,1.21,0,0,0,0-2.41,1.21,1.21,0,0,0,0,2.41Z"/><path class="cls-1" d="M1895.71,92.68a1.21,1.21,0,0,0,0-2.41,1.21,1.21,0,0,0,0,2.41Z"/><path class="cls-1" d="M1918.78,88a1.21,1.21,0,0,0,0-2.41,1.21,1.21,0,0,0,0,2.41Z"/><path class="cls-1" d="M1916.73,83.7a1.21,1.21,0,0,0,0-2.41,1.21,1.21,0,0,0,0,2.41Z"/><path class="cls-1" d="M1889.43,85.18a1.21,1.21,0,0,0,0-2.41,1.21,1.21,0,0,0,0,2.41Z"/><path class="cls-1" d="M1855.2,80.21a1.2,1.2,0,0,0,0-2.4,1.2,1.2,0,0,0,0,2.4Z"/><path class="cls-1" d="M1832.13,84.91a1.21,1.21,0,0,0,0-2.41,1.21,1.21,0,0,0,0,2.41Z"/><path class="cls-1" d="M1729.33,91a1.21,1.21,0,0,0,0-2.41,1.21,1.21,0,0,0,0,2.41Z"/><path class="cls-1" d="M1772.4,100.32a1.21,1.21,0,0,0,0-2.41,1.21,1.21,0,0,0,0,2.41Z"/><path class="cls-1" d="M1791.24,93.35a1.2,1.2,0,0,0,0-2.4,1.2,1.2,0,0,0,0,2.4Z"/><path class="cls-1" d="M1814.31,88.66a1.21,1.21,0,0,0,0-2.41,1.21,1.21,0,0,0,0,2.41Z"/><path class="cls-1" d="M1812.26,84.38a1.21,1.21,0,0,0,0-2.41,1.21,1.21,0,0,0,0,2.41Z"/><path class="cls-1" d="M1785,85.86a1.21,1.21,0,0,0,0-2.41,1.21,1.21,0,0,0,0,2.41Z"/><path class="cls-1" d="M1621.67,94.73a1.21,1.21,0,0,0,0-2.41,1.21,1.21,0,0,0,0,2.41Z"/><path class="cls-1" d="M1649.58,89.25a1.21,1.21,0,0,0,0-2.41,1.21,1.21,0,0,0,0,2.41Z"/><path class="cls-1" d="M1683.58,97.05a1.21,1.21,0,0,0,0-2.41,1.21,1.21,0,0,0,0,2.41Z"/><path class="cls-1" d="M1706.65,92.35a1.21,1.21,0,0,0,0-2.41,1.21,1.21,0,0,0,0,2.41Z"/><path class="cls-1" d="M1698.7,90a1.21,1.21,0,0,0,0-2.41,1.21,1.21,0,0,0,0,2.41Z"/><path class="cls-1" d="M1677.3,89.55a1.21,1.21,0,0,0,0-2.41,1.21,1.21,0,0,0,0,2.41Z"/><path class="cls-1" d="M1620,89.28a1.21,1.21,0,0,0,0-2.41,1.21,1.21,0,0,0,0,2.41Z"/><path class="cls-1" d="M874.43,100.4a1.21,1.21,0,0,0,0-2.41,1.21,1.21,0,0,0,0,2.41Z"/><path class="cls-1" d="M936.35,102.71a1.2,1.2,0,0,0,0-2.4,1.2,1.2,0,0,0,0,2.4Z"/><path class="cls-1" d="M959.42,98a1.21,1.21,0,0,0,0-2.41,1.21,1.21,0,0,0,0,2.41Z"/><path class="cls-1" d="M852.45,94.6a1.21,1.21,0,0,0,0-2.41,1.21,1.21,0,0,0,0,2.41Z"/><path class="cls-1" d="M872.77,95a1.21,1.21,0,0,0,0-2.41,1.21,1.21,0,0,0,0,2.41Z"/><path class="cls-1" d="M781.34,93a1.21,1.21,0,0,0,0-2.41,1.21,1.21,0,0,0,0,2.41Z"/><path class="cls-1" d="M809.25,87.51a1.21,1.21,0,0,0,0-2.41,1.21,1.21,0,0,0,0,2.41Z"/><path class="cls-1" d="M843.26,95.31a1.21,1.21,0,0,0,0-2.41,1.21,1.21,0,0,0,0,2.41Z"/><path class="cls-1" d="M802.75,82.85a1.21,1.21,0,0,0,0-2.41,1.21,1.21,0,0,0,0,2.41Z"/><path class="cls-1" d="M779.68,87.55a1.21,1.21,0,0,0,0-2.41,1.21,1.21,0,0,0,0,2.41Z"/><path class="cls-1" d="M692.77,82.93a1.21,1.21,0,0,0,0-2.41,1.21,1.21,0,0,0,0,2.41Z"/><path class="cls-1" d="M714.18,72.78a1.21,1.21,0,0,0,0-2.41,1.21,1.21,0,0,0,0,2.41Z"/><path class="cls-1" d="M691.11,77.48a1.21,1.21,0,0,0,0-2.41,1.21,1.21,0,0,0,0,2.41Z"/><path class="cls-1" d="M608.71,71.89a1.21,1.21,0,0,0,0-2.41,1.21,1.21,0,0,0,0,2.41Z"/><path class="cls-1" d="M595.21,66.11a1.21,1.21,0,0,0,0-2.41,1.21,1.21,0,0,0,0,2.41Z"/><path class="cls-1" d="M670.62,74.2a1.21,1.21,0,0,0,0-2.41,1.21,1.21,0,0,0,0,2.41Z"/><path class="cls-1" d="M693.69,69.51a1.21,1.21,0,0,0,0-2.41,1.21,1.21,0,0,0,0,2.41Z"/><path class="cls-1" d="M630.12,61.74a1.21,1.21,0,0,0,0-2.41,1.21,1.21,0,0,0,0,2.41Z"/><path class="cls-1" d="M607.05,66.44a1.21,1.21,0,0,0,0-2.41,1.21,1.21,0,0,0,0,2.41Z"/><path class="cls-1" d="M453.1,53.58a1.21,1.21,0,0,0,0-2.41,1.21,1.21,0,0,0,0,2.41Z"/><path class="cls-1" d="M481,48.1a1.21,1.21,0,0,0,0-2.41,1.21,1.21,0,0,0,0,2.41Z"/><path class="cls-1" d="M515,55.9a1.21,1.21,0,0,0,0-2.41,1.21,1.21,0,0,0,0,2.41Z"/><path class="cls-1" d="M538.09,51.2a1.21,1.21,0,0,0,0-2.41,1.21,1.21,0,0,0,0,2.41Z"/><path class="cls-1" d="M583.37,71.72a1.21,1.21,0,0,0,0-2.41,1.21,1.21,0,0,0,0,2.41Z"/><path class="cls-1" d="M508.74,48.4a1.21,1.21,0,0,0,0-2.41,1.21,1.21,0,0,0,0,2.41Z"/><path class="cls-1" d="M474.51,43.43a1.2,1.2,0,0,0,0-2.4,1.2,1.2,0,0,0,0,2.4Z"/><path class="cls-1" d="M451.44,48.13a1.21,1.21,0,0,0,0-2.41,1.21,1.21,0,0,0,0,2.41Z"/><path class="cls-1" d="M361.78,43.72a1.2,1.2,0,0,0,0-2.4,1.2,1.2,0,0,0,0,2.4Z"/><path class="cls-1" d="M389.69,38.24a1.21,1.21,0,0,0,0-2.41,1.21,1.21,0,0,0,0,2.41Z"/><path class="cls-1" d="M423.69,46a1.21,1.21,0,0,0,0-2.41,1.21,1.21,0,0,0,0,2.41Z"/><path class="cls-1" d="M446.76,41.34a1.2,1.2,0,0,0,0-2.4,1.2,1.2,0,0,0,0,2.4Z"/><path class="cls-1" d="M444.71,37.06a1.2,1.2,0,0,0,0-2.4,1.2,1.2,0,0,0,0,2.4Z"/><path class="cls-1" d="M417.41,38.54a1.2,1.2,0,0,0,0-2.4,1.2,1.2,0,0,0,0,2.4Z"/><path class="cls-1" d="M383.19,33.58a1.21,1.21,0,0,0,0-2.41,1.21,1.21,0,0,0,0,2.41Z"/><path class="cls-1" d="M360.12,38.27a1.2,1.2,0,0,0,0-2.4,1.2,1.2,0,0,0,0,2.4Z"/><path class="cls-1" d="M259.61,44.52a1.21,1.21,0,0,0,0-2.41,1.21,1.21,0,0,0,0,2.41Z"/><path class="cls-1" d="M287.52,39a1.21,1.21,0,0,0,0-2.41,1.21,1.21,0,0,0,0,2.41Z"/><path class="cls-1" d="M321.53,46.83a1.21,1.21,0,0,0,0-2.41,1.21,1.21,0,0,0,0,2.41Z"/><path class="cls-1" d="M344.6,42.13a1.2,1.2,0,0,0,0-2.4,1.2,1.2,0,0,0,0,2.4Z"/><path class="cls-1" d="M342.55,37.86a1.21,1.21,0,0,0,0-2.41,1.21,1.21,0,0,0,0,2.41Z"/><path class="cls-1" d="M315.24,39.34a1.21,1.21,0,0,0,0-2.41,1.21,1.21,0,0,0,0,2.41Z"/><path class="cls-1" d="M281,34.37A1.21,1.21,0,0,0,281,32a1.21,1.21,0,0,0,0,2.41Z"/><path class="cls-1" d="M258,39.07a1.21,1.21,0,0,0,0-2.41,1.21,1.21,0,0,0,0,2.41Z"/><path class="cls-1" d="M56.5,28.05a1.21,1.21,0,0,0,0-2.41,1.21,1.21,0,0,0,0,2.41Z"/><path class="cls-1" d="M84.41,22.57a1.21,1.21,0,0,0,0-2.41,1.21,1.21,0,0,0,0,2.41Z"/><path class="cls-1" d="M118.41,30.37a1.21,1.21,0,0,0,0-2.41,1.21,1.21,0,0,0,0,2.41Z"/><path class="cls-1" d="M141.48,25.67a1.21,1.21,0,0,0,0-2.41,1.21,1.21,0,0,0,0,2.41Z"/><path class="cls-1" d="M139.43,21.39a1.21,1.21,0,0,0,0-2.41,1.21,1.21,0,0,0,0,2.41Z"/><path class="cls-1" d="M112.13,22.87a1.21,1.21,0,0,0,0-2.41,1.21,1.21,0,0,0,0,2.41Z"/><path class="cls-1" d="M77.91,17.91a1.21,1.21,0,0,0,0-2.41,1.21,1.21,0,0,0,0,2.41Z"/><path class="cls-1" d="M54.84,22.6a1.21,1.21,0,0,0,0-2.41,1.21,1.21,0,0,0,0,2.41Z"/><path class="cls-1" d="M164.31,30.15a1.21,1.21,0,0,0,0-2.41,1.21,1.21,0,0,0,0,2.41Z"/><path class="cls-1" d="M192.23,24.67a1.21,1.21,0,0,0,0-2.41,1.21,1.21,0,0,0,0,2.41Z"/><path class="cls-1" d="M226.23,32.47a1.21,1.21,0,0,0,0-2.41,1.21,1.21,0,0,0,0,2.41Z"/><path class="cls-1" d="M249.3,27.77a1.21,1.21,0,0,0,0-2.41,1.21,1.21,0,0,0,0,2.41Z"/><path class="cls-1" d="M245.8,16.19a1.21,1.21,0,0,0,0-2.41,1.21,1.21,0,0,0,0,2.41Z"/><path class="cls-1" d="M220,25a1.21,1.21,0,0,0,0-2.41A1.21,1.21,0,0,0,220,25Z"/><path class="cls-1" d="M162.65,24.7a1.21,1.21,0,0,0,0-2.41,1.21,1.21,0,0,0,0,2.41Z"/><path class="cls-1" d="M109.22,14.81a1.21,1.21,0,0,0,0-2.41,1.21,1.21,0,0,0,0,2.41Z"/><path class="cls-1" d="M137.14,9.33a1.21,1.21,0,0,0,0-2.41,1.21,1.21,0,0,0,0,2.41Z"/><path class="cls-1" d="M171.14,17.13a1.21,1.21,0,0,0,0-2.41,1.21,1.21,0,0,0,0,2.41Z"/><path class="cls-1" d="M194.21,12.43a1.21,1.21,0,0,0,0-2.41,1.21,1.21,0,0,0,0,2.41Z"/><path class="cls-1" d="M192.16,8.15a1.21,1.21,0,0,0,0-2.41,1.21,1.21,0,0,0,0,2.41Z"/><path class="cls-1" d="M164.86,9.63a1.21,1.21,0,0,0,0-2.41,1.21,1.21,0,0,0,0,2.41Z"/><path class="cls-1" d="M130.63,4.67a1.21,1.21,0,0,0,0-2.41,1.21,1.21,0,0,0,0,2.41Z"/><path class="cls-1" d="M107.56,9.36a1.21,1.21,0,0,0,0-2.41,1.21,1.21,0,0,0,0,2.41Z"/><path class="cls-1" d="M77.42,40.11a1.21,1.21,0,0,0,0-2.41,1.21,1.21,0,0,0,0,2.41Z"/><path class="cls-1" d="M30.74,7.07a1.21,1.21,0,0,0,0-2.41,1.21,1.21,0,0,0,0,2.41Z"/><path class="cls-1" d="M64.74,14.87a1.21,1.21,0,0,0,0-2.41,1.21,1.21,0,0,0,0,2.41Z"/><path class="cls-1" d="M87.81,10.17a1.21,1.21,0,0,0,0-2.41,1.21,1.21,0,0,0,0,2.41Z"/><path class="cls-1" d="M85.76,5.89a1.2,1.2,0,0,0,0-2.4,1.2,1.2,0,0,0,0,2.4Z"/><path class="cls-1" d="M58.46,7.37a1.2,1.2,0,0,0,0-2.4,1.2,1.2,0,0,0,0,2.4Z"/><path class="cls-1" d="M24.23,2.41a1.21,1.21,0,0,0,0-2.41,1.21,1.21,0,0,0,0,2.41Z"/><path class="cls-1" d="M1.16,7.1a1.2,1.2,0,0,0,0-2.4,1.2,1.2,0,0,0,0,2.4Z"/><path class="cls-1" d="M204.9,16.82a1.2,1.2,0,0,0,0-2.4,1.2,1.2,0,0,0,0,2.4Z"/><path class="cls-1" d="M245.8,10.76a1.21,1.21,0,0,0,0-2.41,1.21,1.21,0,0,0,0,2.41Z"/><path class="cls-1" d="M279.81,18.56a1.21,1.21,0,0,0,0-2.41,1.21,1.21,0,0,0,0,2.41Z"/><path class="cls-1" d="M302.88,13.87a1.21,1.21,0,0,0,0-2.41,1.21,1.21,0,0,0,0,2.41Z"/><path class="cls-1" d="M273.52,11.07a1.21,1.21,0,0,0,0-2.41,1.21,1.21,0,0,0,0,2.41Z"/><path class="cls-1" d="M239.3,6.1a1.21,1.21,0,0,0,0-2.41,1.21,1.21,0,0,0,0,2.41Z"/><path class="cls-1" d="M216.23,10.8a1.21,1.21,0,0,0,0-2.41,1.21,1.21,0,0,0,0,2.41Z"/><path class="cls-1" d="M276.6,27.19a1.21,1.21,0,0,0,0-2.41,1.21,1.21,0,0,0,0,2.41Z"/><path class="cls-1" d="M304.52,21.7a1.21,1.21,0,0,0,0-2.41,1.21,1.21,0,0,0,0,2.41Z"/><path class="cls-1" d="M317.89,14.87a1.21,1.21,0,0,0,0-2.41,1.21,1.21,0,0,0,0,2.41Z"/><path class="cls-1" d="M361.59,24.81a1.21,1.21,0,0,0,0-2.41,1.21,1.21,0,0,0,0,2.41Z"/><path class="cls-1" d="M359.54,20.53a1.21,1.21,0,0,0,0-2.41,1.21,1.21,0,0,0,0,2.41Z"/><path class="cls-1" d="M332.24,22a1.21,1.21,0,0,0,0-2.41,1.21,1.21,0,0,0,0,2.41Z"/><path class="cls-1" d="M298,17a1.21,1.21,0,0,0,0-2.41A1.21,1.21,0,0,0,298,17Z"/><path class="cls-1" d="M267.05,21.07a1.21,1.21,0,0,0,0-2.41,1.21,1.21,0,0,0,0,2.41Z"/><path class="cls-1" d="M384.76,26.93a1.21,1.21,0,0,0,0-2.41,1.21,1.21,0,0,0,0,2.41Z"/><path class="cls-1" d="M412.67,21.44a1.21,1.21,0,0,0,0-2.41,1.21,1.21,0,0,0,0,2.41Z"/><path class="cls-1" d="M446.67,29.24a1.21,1.21,0,0,0,0-2.41,1.21,1.21,0,0,0,0,2.41Z"/><path class="cls-1" d="M469.74,24.54a1.2,1.2,0,0,0,0-2.4,1.2,1.2,0,0,0,0,2.4Z"/><path class="cls-1" d="M467.69,20.27a1.21,1.21,0,0,0,0-2.41,1.21,1.21,0,0,0,0,2.41Z"/><path class="cls-1" d="M440.39,21.75a1.21,1.21,0,0,0,0-2.41,1.21,1.21,0,0,0,0,2.41Z"/><path class="cls-1" d="M331.46,14.59a1.21,1.21,0,0,0,0-2.41,1.21,1.21,0,0,0,0,2.41Z"/><path class="cls-1" d="M383.1,21.48a1.21,1.21,0,0,0,0-2.41,1.21,1.21,0,0,0,0,2.41Z"/><path class="cls-1" d="M523.1,34.58a1.21,1.21,0,0,0,0-2.41,1.21,1.21,0,0,0,0,2.41Z"/><path class="cls-1" d="M521.05,30.3a1.2,1.2,0,0,0,0-2.4,1.2,1.2,0,0,0,0,2.4Z"/><path class="cls-1" d="M602,55.93a1.21,1.21,0,0,0,0-2.41,1.21,1.21,0,0,0,0,2.41Z"/><path class="cls-1" d="M545.12,33a1.21,1.21,0,0,0,0-2.41,1.21,1.21,0,0,0,0,2.41Z"/><path class="cls-1" d="M2309,75.47a1.21,1.21,0,0,0,0-2.41,1.21,1.21,0,0,0,0,2.41Z"/><path class="cls-1" d="M2429.38,75.66a1.21,1.21,0,0,0,0-2.41,1.21,1.21,0,0,0,0,2.41Z"/><path class="cls-1" d="M2279.61,72.14a1.2,1.2,0,0,0,0-2.4,1.2,1.2,0,0,0,0,2.4Z"/><path class="cls-1" d="M2200.45,72.6a1.21,1.21,0,0,0,0-2.41,1.21,1.21,0,0,0,0,2.41Z"/><path class="cls-1" d="M2257.52,75.7a1.21,1.21,0,0,0,0-2.41,1.21,1.21,0,0,0,0,2.41Z"/><path class="cls-1" d="M2255.47,71.42a1.21,1.21,0,0,0,0-2.41,1.21,1.21,0,0,0,0,2.41Z"/><path class="cls-1" d="M2228.17,72.9a1.21,1.21,0,0,0,0-2.41,1.21,1.21,0,0,0,0,2.41Z"/></g></g></svg>