<svg xmlns="http://www.w3.org/2000/svg" viewBox="0 0 2272.86 172.24"><defs><style>.cls-1{fill:#d6d6d6;}.cls-2{fill:#d5d5d5;}.cls-3{fill:#cbcbcb;}.cls-4{fill:#b8b8b8;}.cls-5{fill:#d1d1d1;}.cls-6{fill:#c2c2c2;}.cls-7{fill:#d4d4d4;}.cls-8{fill:#666;}.cls-9{fill:#929292;}.cls-10{fill:#c9c9c9;}.cls-11{fill:#b1b1b1;}.cls-12{fill:#c4c4c4;}.cls-13{fill:#9e9e9e;}.cls-14{fill:#747474;}.cls-15{fill:#a5a5a5;}.cls-16{fill:#8c8c8c;}.cls-17{fill:#888;}.cls-18{fill:#656565;}.cls-19{fill:#818181;}.cls-20{fill:#5f5f5f;}.cls-21{fill:#6a6a6a;}.cls-22{fill:#d2d2d2;}.cls-23{fill:#c8c8c8;}.cls-24{fill:#959595;}.cls-25{fill:#707070;}.cls-26{fill:#8d8d8d;}.cls-27{fill:#6c6c6c;}.cls-28{fill:#7d7d7d;}.cls-29{fill:#a7a7a7;}.cls-30{fill:#7f7f7f;}.cls-31{fill:#b6b6b6;}.cls-32{fill:#adadad;}.cls-33{fill:#b4b4b4;}.cls-34{fill:#767676;}.cls-35{fill:#969696;}.cls-36{fill:#828282;}.cls-37{fill:#424242;}.cls-38{fill:#757575;}.cls-39{fill:#bababa;}.cls-40{fill:#bebebe;}.cls-41{fill:#b0b0b0;}.cls-42{fill:#ababab;}.cls-43{fill:#898989;}.cls-44{fill:#a9a9a9;}.cls-45{fill:#949494;}.cls-46{fill:#7a7a7a;}.cls-47{fill:#727272;}.cls-48{fill:#6f6f6f;}.cls-49{fill:#5d5d5d;}.cls-50{fill:#9f9f9f;}.cls-51{fill:#7e7e7e;}.cls-52{fill:#a6a6a6;}.cls-53{fill:#989898;}.cls-54{fill:#a0a0a0;}.cls-55{fill:#777;}.cls-56{fill:gray;}.cls-57{fill:#b7b7b7;}.cls-58{fill:#515151;}.cls-59{fill:#c6c6c6;}.cls-60{fill:#b5b5b5;}.cls-61{fill:#a8a8a8;}.cls-62{fill:#838383;}.cls-63{fill:#8a8a8a;}.cls-64{fill:#494949;}.cls-65{fill:#717171;}.cls-66{fill:#595959;}.cls-67{fill:#9a9a9a;}.cls-68{fill:#919191;}.cls-69{fill:#7b7b7b;}.cls-70{fill:#878787;}.cls-71{fill:#686868;}.cls-72{fill:#4a4a4a;}.cls-73{fill:silver;}.cls-74{fill:#737373;}.cls-75{fill:#3e3e3e;}.cls-76{fill:#afafaf;}.cls-77{fill:#9d9d9d;}.cls-78{fill:#636363;}.cls-79{fill:#565656;}.cls-80{fill:#858585;}.cls-81{fill:#676767;}.cls-82{fill:#626262;}.cls-83{fill:#848484;}.cls-84{fill:#9c9c9c;}.cls-85{fill:#909090;}.cls-86{fill:#8b8b8b;}.cls-87{fill:#cdcdcd;}.cls-88{fill:#6b6b6b;}.cls-89{fill:#797979;}.cls-90{fill:#606060;}.cls-91{fill:#a4a4a4;}.cls-92{fill:#b9b9b9;}.cls-93{fill:#acacac;}.cls-94{fill:#3b3b3b;}.cls-95{fill:#c7c7c7;}.cls-96{fill:#555;}.cls-97{fill:#535353;}.cls-98{fill:#a3a3a3;}.cls-99{fill:#9b9b9b;}.cls-100{fill:#6d6d6d;}.cls-101{fill:#b3b3b3;}.cls-102{fill:#aeaeae;}.cls-103{fill:#bfbfbf;}.cls-104{fill:#8f8f8f;}.cls-105{fill:#939393;}.cls-106{fill:#c1c1c1;}.cls-107{fill:#505050;}.cls-108{fill:#4c4c4c;}</style></defs><title>Asset 2</title><g id="Layer_2" data-name="Layer 2"><g id="Layer_1-2" data-name="Layer 1"><path class="cls-1" d="M1673.82,172.24h-10.25c-.58-6.45-6.63-5.17-11-5.39-15.17-.77-30.94-5.11-44.62,4.74l-3.35-.14c0-1.63.54-4.36-.24-4.68-1.72-.72-4.19-.51-6.17-.07-.49.11-.29,2.55-.4,3.92l-7.71,1.62h-2.56l-3.47-5.88c.85.06,1.88.4,2.51.11a10.9,10.9,0,0,0,2.34-2l-4.85,1.91-1.62,0c-3.41-1.23-6.7-3-10.25-3.61-10.3-1.88-20.7-3.3-31.06-4.93a10.87,10.87,0,0,1-1.52-.63c-2.34-.82-4.73-1.57-7-2.46a22.15,22.15,0,0,1-2.45-1.48c-2.12-1.14-4.27-2.24-6.41-3.35-.57,1.68-1.14,3.35-1.68,5-.29.88-.21,2.35-.8,2.59-4.93,2-8.92,6.89-15.71,3.14-2.17-1.2-5.66-.61-8.55-.83,2.19.81,4.38,1.62,6.55,2.46.15.06.15.4.15.41L1460.07,167q2.27-2.21,4.55-4.39c8.72-5.77,19.13-1.2,28.47-5.13H1452.5c-1.8-1.41-3.35-3.3-5.46-4.11-4.29-1.65-8.88-2.72-13.34-4l8.56.76h2.53c2,.81,4.07,1.66,6.15,2.41,2.43.87,4.84,2.1,7.37,2.34a61.26,61.26,0,0,0,10.65-.28,17,17,0,0,0,4-1.31c-.8-.6-1.87-1.06-2.32-1.82a23.39,23.39,0,0,1-2.31-5.2,6,6,0,0,1,3-1.24c4.09-.19,8.2-.18,12.3-.18q14.87,0,29.72,0c0-.46,0-.91,0-1.37l-4.9-2c1.8-.49,3.58-1.1,5.42-1.42,2.06-.36,4.23-.27,6.25-.71,2.52-.54,4.93-1.42,7.39-2.15-2-.23-4-.49-6-.68-2.21-.2-4.58-.83-6.62-.38-2.67.58-5,2.7-7.64,3-3.88.39-7.93-.58-11.87-.41-8.45.36-16.88,1.23-25.33,1.57-4.54.19-9.12-.3-13.69-.49.77-5.35-3.88-4.16-7.27-4.5l-17.24-3.66c-1.75-.05-3.74.34-5.2-.24-4.85-1.95-9.5-4.26-14.22-6.42l-4.28-3c.24-.66.41-1.87.73-1.9,3.08-.29,6.19-.37,9.3-.54a6.48,6.48,0,0,0,2.47-.37c1-.56,2-2.13,2.79-2,5.56.73,11.06,1.77,16.58,2.72l-5.72.45c0,.8-.09,1.6-.13,2.4l33.81,2.24c0,.24-.14.56,0,.72,2.89,3.56,9.7,4,10.15,9.55a5.38,5.38,0,0,0,1.2.16l-4.4,1.21.91,1.67,5.61-2.88c-.91-4.28-1.83-8.56-2.86-13.43,3.17,1.27,5.86,3.26,8.47,3.18,4-.12,7.93-2,12-2.5,6.66-.78,13.39-1.08,20.11-1.41.85,0,1.77,1,3,1.47a5.84,5.84,0,0,0-1.11.08c-.48.17-.93.39-1.39.59l.53.75a17.46,17.46,0,0,0,2-1.42c3.4.75,7.11,1.49,10.81,2.23q16.17,3.39,32.33,6.75a27.93,27.93,0,0,0,3.67.27c-.4-.92-.79-1.85-1.16-2.69,4.36-1.71,7.6,5.39,12.88.83,1.4-1.2,7.2-.42,9.28,1.14,5.61,4.21-5.44,1.38-3.14,4.75l-31.49-1-.06,2.23c11.85,0,23.7,0,35.56,0a34,34,0,0,1,5.24.84c-1.49.75-3,1.54-4.49,2.23-.48.22-1.21,0-1.65.3a22.34,22.34,0,0,0-2.29,1.71c1,.33,2,1,2.92.92,2.23-.2,4.41-.75,6.61-1.16,1.38,4.67,13.11,5.77,19.6,1.51L1602,141.8c5.57-3.55,10.8-2.66,15.88.86,2.05,1.41,4.56,3.73,4.05-1.26,0-.42.58-.89.89-1.34.58.31,1.48.51,1.68.95.58,1.24.55,3.5,1.33,3.7a52.87,52.87,0,0,0,9.13,1.1c.3,0,1-1.07,1-1.1-6.44-5,2.24-3.7,3.13-5.61l10.73,3.07.53-2.1-9.83-1.19c4.6-.36,9.21-1.07,13.81-1,13.37.19,26.73.68,40.09,1.06q2.1,3.6,4.21,7.2l-2.63,1c-1-.07-2.08-.43-2.89-.15-5.6,1.93-11.14,4-16.7,6l-8.52,3.51,8.59,1q-2.65,2.58-5.33,5.14c.14-5.76-6-4-9.24-5.83l-4.71-1.21-.24,1.18h5c-2,.86-4,1.68-6,2.6-1.17.55-2.25,1.24-3.37,1.87a19.28,19.28,0,0,0,4.46,1.28c4.46.21,8.94.14,13.41.19l-5.05,2.25a49.51,49.51,0,0,0,5.25.75c3.16.12,6.33,0,9.44,0Zm-176.58-39.6-3.5-2.33a37.53,37.53,0,0,0-1.3,4.41c-.07.38.83.88,1.28,1.33Zm-69.57-2.42c.82-.93,1.73-1.76,1.62-1.87a16,16,0,0,0-2.79-2.3c-.09,0-1.29.84-1.22.94C1425.89,128,1426.66,128.9,1427.67,130.22Zm-1.05-7.13c0,.2,0,.4,0,.61h2.89c0-.21,0-.41,0-.61ZM1476.26,162c-.39.44-.69.66-.8.94s.21.39.32.59c.32-.14.81-.23.92-.45S1476.49,162.47,1476.26,162Z"/><path class="cls-2" d="M1205.54,172.24h-75.2l-6-1.47a29.67,29.67,0,0,0-1-3.84,38.71,38.71,0,0,0-2-3.76l2.83-.31c.75,5.37,6,2.53,8.93,3.82.64.28.24,2.33.36,4.15,2.21.1,5.38.7,8.3.19,2-.35,3.68-2.24,5.5-3.44-1.71-.59-3.38-1.29-5.13-1.75-3.65-1-7.37-1.72-11-2.7-.66-.18-1.1-1-1.64-1.48.48-.38.94-.79,1.45-1.14,1.41-1,2.85-1.92,4.28-2.88l-4-3.09c.35-2,7.74-.76,3.21-5.09,5.33-.31,10.66-.54,16-1,.9-.08,1.7-1.11,2.54-1.7-.36-.32-1-.66-1-1a21.37,21.37,0,0,1,.65-3.12l3.1,1.2c.11-.3.21-.61.32-.92l-3.43-.28c0-.16,0-.33,0-.5,1-.63,2-1.32,3.1-1.87,1.59-.79,3.25-1.48,4.88-2.22l-2.32,2.22,3.48.43c-.18-.83-.37-1.66-.55-2.5l3.36-4.41c7,0,14.07,0,21.11,0a13.72,13.72,0,0,1,3.43,1,13.32,13.32,0,0,1-2.55,2.21,15.79,15.79,0,0,1-3.92,1.27c-7.31,1.65-14.63,3.24-22.81,5,7.07.73,13,1.39,19,1.9.62.05,1.29-.85,2-1.15,2-.77,3.9-1.88,6-2.1,4.91-.52,10.11.06,14.78-1.07,3.86-.93,7.24-3.56,10.54-5.76.54-.36-1.14-3.25-.62-3.57,4.3-2.74,8.45-6.46,14.66-3.75l4.29.69,2.55-1.4,5.13.72h4.28l.86-1.44,3.35-.11,11.16-.65,8.55.69,3.42.74,6.11-1.35,9.25,3.64,12.86,3.63c-3,2.83-5.77,6.09-11.07,3.41-.34-.17-1.35.24-1.75.62-4.47,4.32-9.8,4-15.48,2.35a11,11,0,0,0-4-.65c-6,.59-12,1.25-17.88,2.09-4.46.63-12.09.77-12.68,2.54-1.81,5.41-4.82,4-8.64,3.06a8.79,8.79,0,0,0-2.63.15c.61.57,1.19,1.16,1.83,1.7,7.16,6.09,15,2.55,22.81,1.35,1.19-.19,2.56.43,3.84.67-1,1-2,2.7-3.19,2.81-9.51.87-19.06,1.36-28.58,2.12-6,.49-12,1.2-18,1.92-.91.11-1.68,1-2.61,1.18-3.2.71-6.48,1.9-9.68,1.8-8.31-.26-16.6-1.15-24.91-1.65-.68,0-1.48.89-2.11,1.47-.08.08.52,1.05.85,1.07,8.43.5,16.85,1.22,25.28,1.29,6.94.06,13.88-.71,20.83-1,.91,0,1.86.81,2.79,1.24-.91.46-1.8,1.28-2.73,1.32-4,.18-8,.1-12,.2a19.51,19.51,0,0,0-3,.55c.76.75,1.4,2,2.31,2.15,3.82.74,7.71,1.16,11.57,1.69ZM1187.28,147c5,.92,7.44,1.3,9.83,1.83a19,19,0,0,1,2.94,1.17c.08-.44.42-1,.22-1.32-.84-1.28-1.8-3.51-2.77-3.53C1194.9,145.1,1192.27,146,1187.28,147Z"/><path class="cls-3" d="M1698.58,146.14q-2.11-3.6-4.21-7.2l3.34.07c.3.8.61,1.6.92,2.4l3.42-2.37,6.8,0h6l11.35.75c0-.4,0-.8.07-1.2l-7.94-.85,6.76-.92a57.48,57.48,0,0,0,5.66,1.05c7.82.67,15.65,1.24,23.48,1.85,2.94.24,5.88.51,8.84.64a11.56,11.56,0,0,0,.48-2.09l3.82-.85-1.3-1.32,15.46,1.34-7.31,1.72c4.16.28,6.51.3,8.8.64,2.61.4,6.56.39,7.51,1.78,3.88,5.7,4.16,6.15,9.72,4.18,1.49.64,3,1.84,4.47,1.84,5.34,0,10.69-.28,16-.7,10.51-.82,17.23,10.77,28.82,6.56.6-.22,2,1.18,3,1.82q-1.82,3.74-3.64,7.45l-13.54,2.85-1.54,3.66-16.41-2.84c-.72-.69-1.36-1.87-2.18-2-6.16-.79-12.36-1.37-18.54-2-.11.28-.21.55-.31.83l20,6.21,3.55,2.86h-89.73c-1.65-1-3.21-2.61-5-2.82-4.58-.53-9.28-.27-13.89-.68-1.27-.11-2.4-1.45-3.59-2.23,2-.69,4-2,6-1.95,7.38.32,14.78,1.87,22.07,1.5,9.12-.46,18.14-2.39,27.21-3.62a13.71,13.71,0,0,1,2.36.37c5.59.3,11.18.56,16.78.84l.18-3.15,4.18-.21.12-1L1774,157.43c-.1.65-.21,1.29-.32,1.94l7,1c-8.75-.54-17.58-1.93-26.23-1.36-8.45.55-16.5,1.79-23.86-3.05-.31-.2-1.71.45-2.25,1-1.29,1.26-2.38,2.68-3.55,4-.22-.8-.16-2-.75-2.3a3.78,3.78,0,0,0-2.9,0,16.07,16.07,0,0,0-3.08,2.4c-.95-1.18-1.62-3-2.91-3.41-3.73-1.31-7.72-2.09-11.6-3.08l12.76-4.72c3.48.43,7,.95,10.46,1.24.91.07,1.9-.57,2.86-.89-.77-.32-1.55-.62-2.29-1-3.94-2-7.85-4-11.81-5.88a3.17,3.17,0,0,0-2.19-.32c-.55.25-.71,1.14-1.09,1.73-.82,1.31-1.68,2.62-2.52,3.92l-5.19-4.45.58-1.55-1.54.12.27,1.49Zm131.61,15-1.47-1.15-.51.76,2,.34,4.63,3.18,1.15-1.25Zm-51-17.38c-1.45-.25-3.23-.66-5-.83a12.6,12.6,0,0,0-2.82.36,11.15,11.15,0,0,0,.49,1.91,14.15,14.15,0,0,0,1.06,1.78,11,11,0,0,1-2.74.37c-6.05-.73-12.09-1.56-17.32-2.26.69.93,1.81,2.49,3,4,.75.94,1.63,1.81,2.46,2.71.34-.87.41-2,1.09-2.56a4.81,4.81,0,0,1,3.11-1.12c6.25.58,12.45,1.47,18.7,2,1.12.09,2.5-1,3.53-1.83.46-.36.36-1.27.52-1.92a12.86,12.86,0,0,1-3.14.77,26.76,26.76,0,0,1-4.13-.62C1778.31,145.76,1778.65,145,1779.18,143.8Zm-32.57,15,3.57-1.35c-1.06-.81-2.16-2.33-3.18-2.29-1.81.07-3.58,1.08-5.37,1.7Z"/><path class="cls-4" d="M2119.91,118.3l.85,0c3.31.09,6.93,1,9.89.1,7.38-2.11,14.46-5,21.67-7.58l.39.57.28-.25-.65-.33c3-1.12,5.91-3,9-3.19,7.26-.35,14.57.14,21.85.29,1,1.43,2.49,4.2,2.82,4.1,6.7-2.08,13.27-4.47,19.85-6.85.34-.12.5-.65.86-1.15L2196,105l21.4-6.61c7.32-3.92,14.07-4.36,19.49-1.37a3.43,3.43,0,0,0,2,0c2.75-.59,5.52-1.16,8.21-1.93a34,34,0,0,0,4.28-1.9c-1.57-.49-3.15-1-4.73-1.46-1.08-.34-2.16-.7-3.24-1.06.87-.55,1.68-1.47,2.62-1.6,4.31-.58,8.65-1.06,13-1.32a35.21,35.21,0,0,1,5.84.62c-1.78.48-3.59.88-5.32,1.46a24.54,24.54,0,0,0-3.14,1.52c1,.41,2.13,1.25,3.1,1.16,4.47-.39,8.91-1,13.36-1.59v1.47a87.56,87.56,0,0,0-10,2.9c-.78.32-1.07,2.77-.59,3.92.81,1.94,2.43,3.63,3.71,5.42-3.14.25-6.28.53-9.43.71a9.28,9.28,0,0,1-2.29-.41c.05.43.3.94.11,1.26-.62,1-1.41,2.82-2.11,2.81a65.72,65.72,0,0,1-8.34-1l-.09-4.12c-3.49,1-7,1.94-10.45,3-.17,0,.11,1.16.19,1.78-2.85.43-5.74.7-8.52,1.33a26.25,26.25,0,0,0-4.61,2c1.09.48,2.22.92,3.27,1.46s2.05,1.24,3.08,1.87c-7.1-.17-14.19-.38-21.28-.43-.73,0-1.47,1-2.2,1.48.46.35,1,1.07,1.39,1,8.74-1.54,8.09-.08,1.5,3.42-.41.23-.56.83-.83,1.26,3.37.4,6.75.74,10.1,1.22a10.94,10.94,0,0,1,2.6,1.06c-.77.43-1.54,1.22-2.32,1.23-8.72.09-17.44.06-27.32.06,2.37-2.44,3.37-3.49,4.38-4.53-1.28.3-2.56.63-3.85.89a34.51,34.51,0,0,0-3.75.69c-.78.27-1.91,1-1.91,1.48,0,.83.79,1.66,1.25,2.49a21.81,21.81,0,0,0-4-.61,35.16,35.16,0,0,0-7.2.69,65,65,0,0,0-7.34,2.65,30.78,30.78,0,0,0-5.54-2.55c-.9-.24-2.24.79-3.38,1.25q4,4.76,7.93,9.52l.82.68c-.24.74-.48,1.48-.71,2.22h0a32.22,32.22,0,0,1-3.79-2.7c-1.94-1.85-4-5.66-5.47-5.48-5.61.69-11,2.66-14.79,3.69l8.61,6.07c-.74.6-1.86,1.84-2.17,1.7-5.69-2.5-4.63,1.38-5.08,3.89a5.78,5.78,0,0,1-.92,2.8,37.16,37.16,0,0,1-3.92,3.43c-.22-1.51-.44-3-.65-4.54l2.12-3.58c-.63,0-1.81-.11-1.81-.07-.17,1.21-.22,2.44-.29,3.66-3.16-1.1-5.77-6.45-10.92-.41-3.65-2.69-7.65-5.66-11.7-8.6a2.81,2.81,0,0,0-1.55-.51c-4.51,0-9-.22-13.5.21-2.18.22-4.11,1.9-6.29,2.57-8.7,2.67-19.76-1.73-26.61,6.63-.08.09-.92-.37-1.43-.44a19.63,19.63,0,0,0-2.18-.13c.54.61,1,1.69,1.61,1.76,2.07.24,4.27-.17,6.29.21,4.47.83,8.86,2,13.29,3l-37.7-2.78c4.6-.22,10.07,1.28,11.59-4.76.17-.67,1.74-1.15,2.74-1.58,1.59-.67,3.26-1.23,4.9-1.83-2.13-.44-4.25-.9-6.38-1.3-.82-.15-1.68-.15-2.52-.22l26.53-5.86c-3,1.47-5.93,2.91-8.85,4.41-1,.51-1.89,1.18-2.84,1.77,1.22.23,2.59.88,3.63.61,5.51-1.43,10.95-3,16.35-4.74.58-.18.74-1.37,1.09-2.09,7.68-1.57,15.38-3.07,23-4.76,1.3-.29,2.38-1.36,3.57-2.07a33.75,33.75,0,0,0-4.41-.72c-2.25-.07-4.51.13-6.76.22l5.6-2.77-9.23-.92c-1.31-.14-2.61-.3-3.92-.46l2.4-1.77,6-1.52.87,0,2.58-.7.84-.1Zm34.26,2.24a66.94,66.94,0,0,0,7-1.19,148.37,148.37,0,0,0,14.46-4.6c1.29-.51,1.79-2.59,2.51-4a2.36,2.36,0,0,0-1.41-.93c-4,.44-8.53.2-12,1.72-4.57,2-8.32,5.41-12.42,8.21l-6.37-1.89c-1.81-.52-4.28-1.94-5.32-1.38-4.62,2.5-8.83,5.55-13.17,8.43a16.75,16.75,0,0,0-1.84,1.63c1,.16,2.08.65,3,.44C2137.16,124.89,2145.66,122.7,2154.17,120.54Zm-1.88-6-1.18.73a4.3,4.3,0,0,0,1,.92c.18.08.64-.31,1-.48Z"/><path class="cls-5" d="M593.68,172.24H580.87l.87-5.05c0,.25,0,.5,0,.76.43.66.85,1.32,1.27,2l2.12-1.4.74-.85,4.41-4.24-1.1-1.38c-.16.14-.49.37-.47.41a14,14,0,0,0,.95,1.11l-4.72-.86a6.15,6.15,0,0,0,.65-.82,4.83,4.83,0,0,0-.58-.39l-.75,1c-4.36-.29-6.43,1.39-6,5.21-3.12,2-11.35-4.78-10.22,4.47h-4.27l-6.84-3-1.18-.89-.22.26,1.4.62-6,3h-3.42l-5.4-3.24v-5l6.16,3.24c0-1.28,0-2.56.07-3.84l.88-.79,5.94-1.13-6-2.58,2.56-2.32a28.19,28.19,0,0,0-3.67-1.12c-1.49-.24-3.43.24-4.48-.42-1.42-.89-2.19-2.56-3.24-3.9,1.77-.35,3.58-1.1,5.31-1,6.63.43,12.79,1.79,16.84,7.1.76,1,2.81,1.25,6.49,2.76l-9-8.34c2.86.67,4.7,1.22,6.58,1.52a48.92,48.92,0,0,0,5.82.45s.41-1.77.2-1.85a55.54,55.54,0,0,0-6.61-2,8.15,8.15,0,0,0-2.62.31c.45-1,.79-2.82,1.36-2.88,4.26-.4,7.87-5.72,13-1.13,1.1,1,4.18.33,6.36.43-1-1.53-1.54-3.41-3-4.5-1.74-1.36-4.16-2.06-6.29-3l-.87-6.65-.84-3,3.41-1.47c5.81,3.16,4.63-1.89,6.07-3.86l2.32,1.68-1,.94,2.76-.08a12.7,12.7,0,0,0-.47-2.22c-.6-1.55-1.32-3.07-2-4.6l3.39-.58c1.34,2.49,1.61,4,2.64,4.71,3.65,2.37,6.56,1.7,11.05-.09,4.77-1.9,11.52-.08,17.41.16.52,0,1.49.38,1.47.53-.58,6.94,6.29,4.87,10.19,6.36l2.4,1.25.42-.83-2.83-.41c3.74.36,7.48.69,11.2,1.11,3.55.4,7.08.92,10.62,1.32.13,0,.26-.66.54-.86,1.46-1,2.9-2.78,4.49-2.91,7-.53,14.07-.59,21.11-.82a41.12,41.12,0,0,0-4,1.22,16.35,16.35,0,0,0-2.54,1.51l3.08.31c-.49,1.83-1.1,3.64-1.41,5.5-.16,1,.47,2.8.32,2.84-4.18.92-8.4,1.71-12.64,2.42-1.54.26-3.13.27-4.7.39.07.61.14,1.22.22,1.82l14.71-.6,1.77,0,.85.83-1.74,2.2-1.69,0c0,1.22,0,2.43,0,3.65h0l3.46,1.42.8.08,1.67,2.33L672.24,156l-1.64.7-10.49-2,2.78-2.36c0,.24,0,.49,0,.73l2.56.74c-1.41-2.25-2.2-5.33-4.38-6.55-2.7-1.51-8.61,1.18-7.9-4.85a6,6,0,0,0-2.25-.7c-6-.89-12.08-1.79-18.14-2.53-.94-.12-2,.57-3,.88.48.65,1,1.3,1.45,2l.88,1.46-12-2.25-2.55-1.47-7.16-1c-.06.41-.11.82-.17,1.23l4.75.5-.87,1.47c0,.45,0,.91,0,1.36l-6.49.05c-1.74.19-4.94.21-5,.61-.79,5-4.64,2.65-7.35,2.36a73.53,73.53,0,0,1-8.17-1.81l2.77,3.73h-17.2l4.7,3.32L576,156.33l2.46.25-1-5c3,.54,6,1.1,9.09,1.63,1.5.26,4,4.29,4.05-1.08,0-2.72,2.27-3.94,5.86-1.59a63.58,63.58,0,0,0,13.5,6.37c1.12.39,3.63-1.57,5.14-2.78.88-.7,1-2.07,1.53-3.14a22.63,22.63,0,0,0,1.82,3.4c1.16,1.56-.91,6,5,3.57,2.47-1,6.55.91,9.89,1.49-2.56,1.18-4.49.9-6.23,1.28-1,.22-1.71,1.5-2.54,2.3a25.59,25.59,0,0,0,4.7,1.34,23.4,23.4,0,0,0,6.69-.09c.9-.17,1.44-1.77,2.15-2.72.27,1.11.55,2.22.82,3.33a72.21,72.21,0,0,1-8.83,2.54c-1.22.21-2.76-.94-4.15-1.48-.13.67-.59,1.77-.32,1.93a48.72,48.72,0,0,0,4.78,2.27c0,.71,0,1.42,0,2.13h-8.55l-.42-.71,1.26-5.19L620.86,165l-3.24-.16.94-2.26c-6-1.48-11.92-3-17.9-4.4-.19-.05-.53.54-.87.74-3.08,1.87-6.18,3.71-9.26,5.55l5.64,3.2-6.06,1.38Zm-3.41-29.57,4.4,1.67.33-.88-4.74-.79-4.34-1.83-.36,1.07Zm-15.33,22.21.66.41-.68-.39-5.85-3.24-.59,1.35Zm18.74-5.95,1.24.77.17-.26-1.41-.5a51.7,51.7,0,0,0-7.27-3.69c-1-.36-2.75.69-5.51,1.49,3.6.31,5.43.33,7.17.66C590,157.76,591.82,158.41,593.68,158.93Zm5.26-20.15c1.26-1.78,2-2.5,1.87-2.69-1.47-1.84-3.09-3.6-4.67-5.38-.43.55-1.37,1.29-1.2,1.6C595.92,134.19,597.15,136,598.94,138.78Zm-2.24,16.37,1.09-.93-3.41-2.73-.79.72Zm-20.27,4.71-.33,1.28c1.11.13,2.21.28,3.33.34.1,0,.24-.59.36-.91ZM585.74,130v-.73h-2.91V130Zm46,5.63c.33-.76.65-1.15.61-1.51s-.65-.66-.84-.6c-.4.12-1,.53-1,.78S631.09,134.94,631.73,135.6Zm-79.15,17.93c-.78-.6-1.12-1.07-1.51-1.1s-.79.42-1,.74c-.07.11.39.68.67.73A7.23,7.23,0,0,0,552.58,153.53Zm9.85,10.74c.31-.44.67-.78.59-.9a1.51,1.51,0,0,0-.88-.6c-.26,0-.59.25-.89.39Zm-16.85-10.64c-.26-.1-.51-.29-.72-.25s-.29.31-.44.48c.24.1.49.29.69.26S545.42,153.82,545.58,153.63Zm46.36-18.38c0-.22,0-.49-.08-.59s-.44,0-.66-.07c0,.2-.06.47.06.58S591.69,135.23,591.94,135.25Zm-37.13,23.42c-.11.06-.27.1-.3.18s.06.2.1.3l.5-.3Zm44.65-17.58.75-.09c-.2-.16-.37-.4-.6-.46s-.45.13-.67.21Zm-10.56-2.81-.72-.22a1.46,1.46,0,0,0-.11.31c.23.09.47.16.71.24C588.82,138.5,588.86,138.4,588.9,138.28Zm-4.63.12c0-.09,0-.23-.11-.27s-.22,0-.34,0l.17.44Z"/><path class="cls-5" d="M719.29,158.22l-7.72-4.46v-1.47h1.75l8.55,0,5.64,1.54-3.94-4.47-9.39-8.88h0l9.41,3c1.69,1.87,3.34,3.78,5.11,5.6.35.36,1.15.4,1.74.59v-1.74l5.11,0,8.55-2.95,11.95.77q.81,2.45,1.63,4.89l-4.13.32-1.35-2.15-.87.66,2.23,1.48,12.62.77,1.65-1.3-.93-.68-1.44,1.93-6-1-.84-4.25,19.67.73,2.54-.72,6.82-.7c-2.35,1-5.2,1.51-6.91,3a25.62,25.62,0,0,0-6,7.9c-.22.45,4,2.62,6.32,3.86,1.54.84,3.26,1.42,4.9,2.12l-4.5,3.57,13.89,3.77-3.43,2.35h-6l-5.43-3.3-.66.74,2.67,2.56H759.47a11.51,11.51,0,0,1,1.79-1.9,10.6,10.6,0,0,1,2.34-.94c-.47-.89-.69-2.05-1.48-2.59a35,35,0,0,0-4.91-2.37c.17,1,.91,2.45.46,3.52a5.88,5.88,0,0,1-3.27,2.58c-.65.23-2.12-.69-2.87-1.38-1.27-1.14-2-3.18-3.41-3.67-4.21-1.41-8.67-2.23-13-3.28,1.37,1.53,3.55,2.22,5.3,3.39,3.08,2.05,5.89,4.41,8.82,6.64h-5.13l-2.82-3.48c-.77,1.16-1.54,2.32-2.3,3.48h-.86l-2.77-1.39.21-2.3,1-1.94-1.51-.31.48,2.25-1.77.72-1.65,0h0L726,166.38l1.1-.73-1.14-.9c-.23.48-.45.95-.67,1.43l-7.93,1.34c1.83-1.33,2.75-2,3.66-2.68.82-.91,2.37-1.87,2.29-2.72-.11-1.1-1.52-2.1-2.36-3.14Zm20.6-6.52,1,1.2a14.36,14.36,0,0,1-3.6-.82c-.8-.42-1.44-2.15-1.68-2.08a50.6,50.6,0,0,0-5.32,2.09c.87,1.23,1.52,3.32,2.66,3.54,6.27,1.2,11,11.73,18.59,1.9.5,1.56.54,3.06,1.11,3.24q9.72,2.92,19.6,5.44c.72.18,1.82-.76,2.74-1.18-.49-.53-.86-1.32-1.49-1.54-7.51-2.57-15-5.06-22.59-7.57l-9.49-5.27-1.32-.48C740,150.68,740,151.19,739.89,151.7Zm-10.26,7.59c-.27.43-.5.78-.72,1.14.35.1.81.37,1,.27a3.62,3.62,0,0,0,.91-.92Zm17.46-11.13c.59.32,1,.53,1.43.75.08-.31.32-.66.22-.91s-.55-.45-.84-.66Zm26.63,1.3c-.15-.19-.26-.48-.43-.51s-.47.15-.71.24c.14.18.24.47.41.5S773.46,149.55,773.72,149.46Zm-11.1-.88c0-.1,0-.23-.1-.28s-.24,0-.36,0l.17.45Z"/><path class="cls-6" d="M1131.21,154.54l4,3.09c-1.43,1-2.87,1.91-4.28,2.88-.51.35-1,.76-1.45,1.14.54.51,1,1.3,1.64,1.48,3.64,1,7.36,1.75,11,2.7,1.75.46,3.42,1.16,5.13,1.75-1.82,1.2-3.48,3.09-5.5,3.44-2.92.51-6.09-.09-8.3-.19-.12-1.82.28-3.87-.36-4.15-3-1.29-8.18,1.55-8.93-3.82l-2.83.31a38.71,38.71,0,0,1,2,3.76,29.67,29.67,0,0,1,1,3.84c-6.68-2.42-15.61,2.72-21-4.69-.43-.6-3.34-.15-4.93.26-2.07.53-3.9,1.94-6,2.24-9.29,1.36-18.63,2.47-28,3.66h-6.84c8.1-2,16.21-4,24.28-6.11a11.14,11.14,0,0,0,2.81-1.68l-2.36-.55c5.43-1.25,11-2.22,16.23-3.92,1.59-.52,2.31-3.06,3.42-4.67l11.12-3.13-1-2-10.19,5.05-6.78-1.51,6.63-4.17c-6.4-.57-12.57-1.08-18.73-1.69-2.17-.22-4.3-.7-6.45-1.06,1.79-.22,3.61-.37,5.37-.73.49-.1.83-.8,1.24-1.22s.57-1,.86-1.52c4.59,1.45,9.06,3.5,13.8,4.17,4.41.63,9.1-.19,13.67-.38,3.67,5,7.31,3.17,10.94,0l10.34,2.24a9.79,9.79,0,0,0-2.55,1.26c-2.1,2.07-4.05,4.25-6,6.43-.09.1.33.55.51.84Z"/><path class="cls-7" d="M2272.86,114.57v16.27l-43.66,8.77c-.26,0-.52.06-.78.11a16.78,16.78,0,0,1-2.52.29c-1.58-.06-3.15-.25-4.73-.39a18.81,18.81,0,0,1,3.68-2.11c7.08-2.14,14.23-4.11,21.32-6.21a33.47,33.47,0,0,0,3.93-1.73c-2-.65-4.32-2.17-6-1.79-4.63,1-8.91,3.25-13.54,4.33-6.88,1.61-12.72,7.56-20.91,3.94,1.22-.61,2.48-1.17,3.65-1.85,1.63-.95,3.12-2.09,4.79-3a12.74,12.74,0,0,1,4.27-1.54c1.12-.13,2.36.56,3.55.88-5.55-3.87-1.4-3.7,1.81-4.53,4-1,7.84-2.71,11.74-4.11Z"/><path class="cls-8" d="M2228.42,139.72c.26-.05.52-.08.78-.11,5.84,3.51,14.1,6,16.83,10.82,2.6,4.59,5.32,4.95,9.34,5.1,1.49.06,3.06-1.36,4.6-2.1-.67-.57-1.32-1.61-2-1.62-8.1,0-7.51-7.94-10.71-8.91a126.26,126.26,0,0,0,13.44,2.3c2.19.19,4.58-1.44,6.88-2.24-1.39-1.58-2.53-3.41-4.23-4.68-2.25-1.69-4.93-2.94-9.61-5.64,4.25.79,6.32.82,8,1.54,3.81,1.67,7.43,3.67,11.13,5.53V158.2h-22.22l-13.75.08c-.27,0-.53,0-.79-.06,2-2.14,3.83-4.36,6-6.34.53-.49,2-.22,3.05-.3-.74-1.23-1.21-2.7-2.29-3.65a24.41,24.41,0,0,0-4.59-2.56c-1-.54-2.07-1.05-3.11-1.58v3l-1.32.69Z"/><path class="cls-9" d="M2272.86,139.71c-3.7-1.86-7.32-3.86-11.13-5.53-1.66-.72-3.73-.75-8-1.54,4.68,2.7,7.36,4,9.61,5.64,1.7,1.27,2.84,3.1,4.23,4.68-2.3.8-4.69,2.43-6.88,2.24a126.26,126.26,0,0,1-13.44-2.3c3.2,1,2.61,8.87,10.71,8.91.67,0,1.32,1.05,2,1.62-1.54.74-3.11,2.16-4.6,2.1-4-.15-6.74-.51-9.34-5.1-2.73-4.82-11-7.31-16.83-10.82l43.66-8.77v.74l-2.46,3,2.46.71Z"/><path class="cls-10" d="M1334.57,172.24l-1.73-2.24,3.72-6.71h14.76c0-.26,0-.52,0-.78l-5.73-1.1c1.75-.38,3.81-.36,5.18-1.2,3.56-2.19,6.8-4.74,10.18-7.15l4.93,4.57c.06-1,.13-2.1.19-3.16l6.09.87c-.25.63-.89,1.68-.68,1.83,2,1.44,4.22,2.73,8.12,5.16L1343,167l.69-2.74-3.39,1.05,1.85,2.28,6.11,4.66Z"/><path class="cls-11" d="M2234.29,121.85l38.57-11v3.69l-33.44,7.36Z"/><path class="cls-12" d="M1937,167.06l5.13,5.18h-21.36l-2.45-3.51c1.51.38,3,.82,4.52,1.13,1.31.27,2.65.39,4,.57a15.67,15.67,0,0,1-.23-2.63c.09-1.28.38-2.54.58-3.81l3.94,1.21C1933.1,165.81,1935.06,166.44,1937,167.06Z"/><path class="cls-13" d="M639,164.85l17.1,7.39h-7.7l-2.1-1.4c-.15.46-.31.93-.46,1.4H644.1c-2.67-1.2-5.23-2.8-8.07-3.45-1.61-.37-3.7.83-5.58,1.32a48.72,48.72,0,0,1-4.78-2.27c-.27-.16.19-1.26.32-1.93,1.39.54,2.93,1.69,4.15,1.48A72.21,72.21,0,0,0,639,164.85Z"/><path class="cls-14" d="M1082.43,163.9l2.36.55a11.14,11.14,0,0,1-2.81,1.68c-8.07,2.1-16.18,4.09-24.28,6.11h-8.55l10.18-2.54-4.43-1.85.26-1.09,5.84,1.14c3-.48,6.12-.89,9.16-1.46,3.83-.72,7.63-1.57,11.44-2.37A7.63,7.63,0,0,0,1082.43,163.9Z"/><path class="cls-15" d="M1570.42,172.24l-2.36-3.64c1.31.21,2.72.81,3.9.56,3.54-.75,7-1.83,10.47-2.78l1.62,0h0l3.47,5.88Z"/><path class="cls-16" d="M834.64,170l-11.08,2.24h-17.1l28.23-2.19Z"/><path class="cls-17" d="M581.74,167.19l-.87,5.05h-3.42l.82-4.47c-.42-3.82,1.65-5.5,6-5.21a5.2,5.2,0,0,0,.68.17l4.72.86c.21,0,.41-.08.62-.14l-4.41,4.24Z"/><path class="cls-4" d="M2272.86,88l-8.08-2.84,8.08-2.34Z"/><path class="cls-18" d="M1214.84,168.59l1,3.65h-10.25l3.4-3.73Z"/><path class="cls-15" d="M1608,171.59a3.59,3.59,0,0,1,.07.65h-17.94l7.71-1.62,6.81.83Z"/><path class="cls-19" d="M1824.18,169.43l4.32,2.81H1820l-3.55-2.86,3.58-.84c.24,0,.48.06.72.07Z"/><path class="cls-4" d="M2272.86,98.31c-2.21.06-4.41.16-6.61.12-.18,0-.33-1-.5-1.48l7.11-1.6Z"/><path class="cls-12" d="M1984.88,172.24h0Z"/><path class="cls-20" d="M791.94,172.24l3.43-2.35,3.4,2.35Z"/><path class="cls-8" d="M2272.86,135.28l-2.46-.71,2.46-3Z"/><path class="cls-21" d="M1510.61,172.24c.4-.66.8-1.33,1.21-2l2.2,2Z"/><path class="cls-7" d="M181.77,67.3,174,66.54l-1.21-2.06-3,2q-3.92-3.66-7.81-7.34l-1.57,0,.57,7.2c-.78-1.69-1.56-3.39-2.33-5.08l-2.57-3.57-2.7.73-.76-.75A26.39,26.39,0,0,1,155.28,54a12.73,12.73,0,0,1,3-1.72c-1-1.35-1.83-3.73-3-3.85-4.53-.47-9.16-.23-13.76-.26L138.18,45c-.63-1.13-1.21-2.29-1.91-3.39-.55-.86-1.25-1.65-1.89-2.47,6.24-3.1.59-4.21-1.33-5.94a69,69,0,0,0,8.66-.51c1.79-.32,3.36-1.58,5-2.42.7-2,1.4-4.06,2.27-6.56l-4.73-2.55c7.37,2.49,11,0,11.69-6,.08-.7-3.77-1.75-5.8-2.64h0c10-.61,19.86-2.87,29.9-.73a5.24,5.24,0,0,0,.72.91c4,3.3,4,3.27-.28,4.63a2.65,2.65,0,0,0-1.22,1.12c-.31.52-.48,1.66-.57,1.65-1.25-.15-3.54-.48-3.53-.72.11-4.28-3-4.16-6.53-4a32.63,32.63,0,0,1-5.34-.62,21.52,21.52,0,0,1,3.52,2.63A12.5,12.5,0,0,1,168.76,21c.06.13-1.08.8-1.11.77a20.88,20.88,0,0,0-2.34-2.36c-1.61-1.1-3.41-2-5.59-3.22,1.31,2.7,2.11,4.34,2.9,6l-5.83.87c2.41,1.68,5.25,2.08,8,2.73a15.76,15.76,0,0,1,3.91,1.75c.51.28.77.9,1.15,1.36,2.19-1.82,4.41-3.62,6.54-5.5.4-.35.55-1.49.58-1.48,5,1.14,10,2.29,15,3.6a30.89,30.89,0,0,1,6.46,2.36,81.62,81.62,0,0,1,8.4,5.32c.36.25-.07,1.36-.13,2.07a17.11,17.11,0,0,0-2-.81c-1.82-.45-3.67-.82-5.51-1.23,3.58,2.74,7.24,5.1,11.36,6.1,3.87.93,8.22.42,12.36.55l5.68,2.12-2.23,1.79c-6.78-4.21-6.32,5.93-11.74,4.43.07.23.06.58.23.67,2.2,1.18,4.42,2.32,6.64,3.48l1.53-4.9,3.24.6,0,0c3.25,1.25,6.95,2.2,5.8,6.42a15.44,15.44,0,0,0,1.9.34c3.69.22,7.39.41,11.09.61,1.72,1.29,3.45,2.56,5.16,3.86.7.53,1.34,1.12,2,1.69-1,.45-1.91,1.24-2.87,1.25s-1.68-.86-2.48-1.38c-1.52-1-2.93-2.66-4.53-2.8-2.27-.19-4.58-1.44-6,3C234.22,67.76,226,65,220,64.85a6.64,6.64,0,0,1-2.85-1.29c-.07,0,.52-1.36.85-1.38a20.53,20.53,0,0,1,3,.4c2.88.27,6,1.14,8.55.48,1.48-.39,2.13-3.26,3.06-5.05.06-.11-.92-.79-1-.76a14.54,14.54,0,0,0-2.49,2.16,30.35,30.35,0,0,0-2.06,3.27l-4.27-2a29.39,29.39,0,0,0,3.83-3,9.45,9.45,0,0,0,1.32-2.94c-1.07,0-2.38-.32-3.17.09-3.95,2.07-7.75,3.09-11.69,0a6.28,6.28,0,0,0-2.17-.55c.1.53,0,1.2.32,1.59,4,4.8,2.29,8.69-4.64,10.65l-2.66-1.14-.43,1,3.09.15,4.35,3-1.49,1.31a79.77,79.77,0,0,0-8.36-1.11,77.67,77.67,0,0,0-8.46.55c1.17,2.3,2,4.85,3.67,6.79,1,1.17,3.49,1.4,4.75,1.85l-3,3.78-5-.37a39,39,0,0,1-2.81-3.86,2.4,2.4,0,0,1,.07-2.15c.33-.55,1.26-.84,1.92-1.24-1.17-.32-2.47-1.08-3.51-.87a29,29,0,0,0-5.22,2l-2.4-3.09c.28-.68.55-1.36.82-2l-1-.09L181,73l-5.93.87-4.43.4c.08.4,0,1,.25,1.17,2.2,1.14,4.46,2.2,7.49,3.66v2.21l-14.61-6.64c.3-1.25.61-2.49.91-3.73l1.75-.07,6-.68L181.78,68c3.84,5.26,6.84,2.13,9.63-.84.77-.81,1.32-3,1.08-3.09-2-.93-4.76-2.55-6.18-2C184.3,62.93,183.24,65.48,181.77,67.3Zm19.68-14.09c-3.68-.48-5.9.84-3.37,3.68,1.92,2.15,5.51,3.2,8.4,4.68.17.09,1-.36,1-.46a4.74,4.74,0,0,0-.77-1.92c-1.68-2-3.47-4-5.22-6l5.05,2.91.75-1.63ZM140.1,36.75l1.52,1,3.51,2.86,2.44.87c3.91.92,7.81,1.87,11.74,2.74.77.17,2.05.33,2.37,0,1.48-1.6,2.71-3.37,3.93-4.95-7-1.78-16.59,2.54-24-3.46A10.2,10.2,0,0,0,140.1,36.75Zm50.25,21.68,4.27-1.37c-1.21-.72-2.33-1.86-3.66-2.09-4.15-.74-8.39-1.14-12.6-1.67,2.31-.6,4.63-1.18,6.92-1.83a11,11,0,0,0,1.74-.81c-.4-.55-.67-1.42-1.21-1.58a20.48,20.48,0,0,0-5-.87c-2.11-.07-4.24.19-6.36.32l2.36,5.55A9.46,9.46,0,0,1,175,55c-1.46.37-3,.62-4.47.92.31.8.54,2.25,1,2.29,1.7.17,3.45-.19,5.18-.16,4,.07,8,.24,12,.37l5,4.66.69-.55Zm-.3-29.37c-.49,2.1-1.52,3.78-1,4.47,4.21,5,7.45,11.28,16.59,10.85,2-.09,4.11.81,6.19,1.1a18.07,18.07,0,0,0,3.28-.1,12.92,12.92,0,0,0-2.32-2c-6.58-3.35-15.44-4-18.24-11.82C194.33,30.81,192.65,30.44,190.05,29.06Zm19.3,19.15-.45-1.73c-4.1,0-8.2.13-12.28,0-3.25-.14-7.51.74-6.2-4.64.36-1.47-2-3.44-3.35-5.49-1.56,6.06-2.92,12.52,4.48,14C197,51.44,203.38,49.05,209.35,48.21ZM161.93,36.49c0,.13.75-1.46.35-1.73-3.82-2.55-7.85-4.87-11.81-7.26a13,13,0,0,0-1.13,2.2C153.35,32,157.45,34.12,161.93,36.49Zm-1.17,7.2,7.09,6.78,4-3.87Zm18-7.3,2.22-.72A34,34,0,0,0,183.6,31c.15-.38-1.17-1.2-1.81-1.82A46.39,46.39,0,0,0,178,34C177.63,34.53,178.44,35.58,178.72,36.39ZM203,62.8c-.92-.35-1.47-.75-1.77-.64a5.53,5.53,0,0,0-1.39,1.09c.4.24.87.73,1.19.66A7.73,7.73,0,0,0,203,62.8Zm-5.82,3.41-1.36.88a4.85,4.85,0,0,0,1.51.75c.32,0,.73-.46,1.09-.72ZM169,62c.38-.38.61-.62.85-.85a3.64,3.64,0,0,0-.92-.47c-.14,0-.57.31-.54.41A3.85,3.85,0,0,0,169,62Zm38.85-10c.14-.3.35-.54.28-.66a1,1,0,0,0-.64-.4c-.16,0-.36.22-.55.34Z"/><path class="cls-22" d="M221.13,106.49l1.65,0a14.68,14.68,0,0,0-2-1.55c-.2-.11-.84.37-1.27.57Zm-61.71-26a4.8,4.8,0,0,0-1.11-.25c-.14,0-.27.32-.4.5a4.59,4.59,0,0,0,1,.33C159,81.07,159.19,80.75,159.42,80.47Z"/><path class="cls-23" d="M84.39,53.18,89,50.73l-3.1-.43a12.53,12.53,0,0,1-.44-2.94,9.14,9.14,0,0,1,.94-3.28,2.78,2.78,0,0,1,2.06.05c5.81,7.2,10.67.41,15.81-.88.75-.19,1-1.83,1.5-2.79a19.76,19.76,0,0,1-3.39-.38c-3.26-1-6.51-2-9.62-3.31-.37-.15.15-2.83.27-2.83,7.93-.08,15.87,0,23.8.07,0,1-.52,2.53,0,2.79.89.49,2.33.22,3.54.27-.28-1.26-.57-2.53-.85-3.8l4.18.75,6.86,6.37-5.37-.89-.47,1.2L138.18,45l3.39,3.09Q129.8,45,118,41.84a12.91,12.91,0,0,1-2-.89,15.79,15.79,0,0,0,.64,2.16c.13.31.7.45.91.75,1.34,1.91,2.63,3.84,3.94,5.76-2.89-.61-5.78-1.26-8.69-1.82-3.34-.65-6.69-1.25-10.06-1.78-.34-.05-1.21.59-1.17.79,1.39,5.56-.68,9-7.63,9.58l.63,2.72-2.71.79c-1.53-1.72-3-3.5-4.63-5.12A12.85,12.85,0,0,0,84.39,53.18Z"/><path class="cls-23" d="M309.22,71.62c-2.05,3-4.18,6.06-6.1,9.18-.39.64,0,1.63,0,2.45.8,0,1.78-.33,2.39,0,5.31,2.48,12.81-3.47,17.14,3.37.39.62,3.52-.06,5.38-.14a8.25,8.25,0,0,1-.33-1.88,4.28,4.28,0,0,1,.59-1.39l5,2.77c-2.19,1.32,3.14,7.89-4.88,5.28a12.4,12.4,0,0,0-1.3,2c-4.76.8-13.74-2.41-9.22,7.24l-8.74-8.7c2.22,0,4.45.09,6.65-.1a16.15,16.15,0,0,0,3.49-1.13,31.84,31.84,0,0,0-3.65-1.1c-5.68-1-11.44-1.75-17-3-1.25-.28-2-2.22-3-3.4.59-.68,1.16-1.39,1.79-2,4.84-5.13,3.9-7.94-3.24-9.86a40.6,40.6,0,0,1-3.85-1.46l6.79-.18.92.6.25-.45-1.14-.15-2.49-2.92,7,.86Z"/><path class="cls-24" d="M62,67.29c1.58-.57,4.17-2,4.58-1.58a59.45,59.45,0,0,1,7.77,8.69c.62.87-.76,2.67-.53,3.94s1,3.18,2.15,3.74,3.12-.27,4.7-.58a29.77,29.77,0,0,0,2.92-.89c-.07.9-.14,1.81-.33,4.35l3.64-4.42,4,1.06c-.8,2.14-.94,4.81-2.55,6.3-2.45,2.27-20.58.64-23.66-1.75,6.8,0,9.36-2.25,5.46-7.68C67.39,74.73,64.66,71,62,67.29Z"/><path class="cls-25" d="M295.56,83c1,1.18,1.73,3.12,3,3.4,5.6,1.25,11.36,2,17,3a31.84,31.84,0,0,1,3.65,1.1,16.15,16.15,0,0,1-3.49,1.13c-2.2.19-4.43.08-6.65.1l0-.07h-6.87l0,0c-.86,2.94-1.71,5.88-2.57,8.82-.91-1-1.63-2.21-2.79-2.82s-3.39-.94-3.79-.49c-3.71,4.22-8.37,3.56-11.47-1.78a6.66,6.66,0,0,1,2-1c1.64-.14,3.49.31,4.89-.22.71-.26.62-2.11.89-3.25l-.07,0c1.7-1.17,3.75-2.11,5-3.58C295.26,86.25,295.18,84.47,295.56,83Z"/><path class="cls-22" d="M227.64,98.44V90.87c4,1.45,8.82,3.31,13.74,4.84,1.31.41,3-.19,4.58-.33.55,2.74,1.09,5.47,1.64,8.21-2.19.82-4.37,2.27-6.57,2.3-2.93,0-5.87-1.06-8.8-1.66Z"/><path class="cls-26" d="M116,76.09l12.11,8.75-13.84,1.88c-7.43,2.1-10.65-1.21-12-7-.12-.52-.32-1-.49-1.56a20.71,20.71,0,0,1,3.28-.46c.49,0,.9.8,1.46,1,1.14.36,2.62,1,3.49.69A43.94,43.94,0,0,0,116,76.09Z"/><path class="cls-27" d="M144.19,93.86c-2.15-.9-4.4-1.66-6.42-2.74-2.62-1.4-5.06-3.07-7.58-4.62l10.3.14,6.29.69,3.63,1.34,4,.81h0c.54.5,1.65,1.16,1.53,1.47-.75,2-1.77,3.92-2.88,6.23l-4.6-1.79Z"/><path class="cls-28" d="M91.93,59.9l2.71-.79h0l1.89.11,2.36-.07L104,60.46c4.12,1.67,8.84,2.73,12.16,5.2,2.28,1.7,2.62,5.35,3.83,8.13l-2.36.19-10.09-5.5c-3.87-2.21-7.72-4.43-11.61-6.61C94.67,61.15,93.28,60.55,91.93,59.9Z"/><path class="cls-29" d="M376.74,97.64h-1l-2.58-.18V92.21c-.57-1-1.14-1.95-1.7-2.93L373.26,88l4.23.67,4.06-.8c-.83-.83-1.65-1.67-2.57-2.61-.62,1.42-1.06,2.43-1.51,3.43q-1.73-2.59-3.46-5.19l3.19.09c-.23-.52-.45-1-.68-1.57l-.75-2.21c0-1,.05-2,.07-3l1.58.89q.88,2.19,1.76,4.38c-.18,3.1,10.7,3.8,2.53,8.67,0,0,.16.41.28.62C384.9,96.35,380.93,97.07,376.74,97.64Z"/><path class="cls-14" d="M208.41,105.63c-3.17-2-6.25-4.2-9.57-6-1-.55-2.67-.13-4-.26a2.42,2.42,0,0,1-1.5-.66c-1.56-1.87-3-3.79-4.44-5.61,9.25-3.35,13.29-1.17,16.88,7.87.86,2.18,6.16,3,9,4.33l-1.39.57Z"/><path class="cls-30" d="M317.83,100.4c-4.52-9.65,4.46-6.44,9.22-7.24l5.77,6.5-10.08,5,4-4.28Z"/><path class="cls-31" d="M337.4,99c.11-.36.37-.74.29-1.06-2.87-10.91,6.42-5.2,10.26-5,4.35.17,6.69-.35,7.31-4.18L357,90.16l1.65,1.51c0,3.26,2.94,8-5,7.3l-2.43-5c-.6,2.25-.86,3.26-1.13,4.28h0c-3.42-4.79-6-1.89-8.67.68Zm16.52-3.41a5.58,5.58,0,0,0,1.23.29c.18,0,.56-.33.53-.42a4.15,4.15,0,0,0-.58-.78Z"/><path class="cls-32" d="M299.66,100.46c.86-2.94,1.71-5.88,2.57-8.82,2.27,1,4.84,1.81,6.68,3.26.87.68.4,2.68.4,4.09,0,.16-1.29.5-1.31.46-.63-1-1.16-2.06-1.27-2.28Z"/><path class="cls-33" d="M146.69,67.28c-1.46-1-2.95-2-4.37-3a31.65,31.65,0,0,1-3.26-2.71c-.15-.14.35-.79.55-1.2,1.33.53,2.68,1,4,1.6.57.24,1.06.62,2.61,1.54l-3.31-5h5.51c.84,1,1.67,2,2.5,3,0,1.64,0,3.28,0,4.92l-3.54,1.57Z"/><path class="cls-34" d="M247.6,103.59c-.55-2.74-1.09-5.47-1.64-8.21l1.88-1c.39.8.77,1.6,1.15,2.4a55,55,0,0,0,4.78,3.81,45.23,45.23,0,0,0,5.09,2.48c-1.94.18-3.89.43-5.84.53S249.41,103.58,247.6,103.59Z"/><path class="cls-32" d="M125.35,71.7c.07-.36.15-.72.2-1.09.29-2.14.56-4.28.84-6.42,2.09,2.64,8.47,2.36,6.8,7.53l-2.71.78-3.44.65Z"/><path class="cls-35" d="M158.7,61.26c.77,1.69,1.55,3.39,2.33,5.08-2.44-.31-8.44,3.66-5.31-3.46.48-1.08-1.46-3-2.29-4.46l2.7-.73Z"/><path class="cls-32" d="M136.52,71l.42-5.24,4.63,3Z"/><path class="cls-36" d="M150.3,104.4,156,104l-5,3.19Z"/><path class="cls-37" d="M373.13,92.21v5.25c-.23,0-.46,0-.69,0l-4.15-4.26Z"/><path class="cls-30" d="M356.49,84.89l2.32-2.43c.24,1.35.49,2.69.73,4Z"/><path class="cls-29" d="M368.28,93.22l4.15,4.26-6.11-.64Z"/><path class="cls-38" d="M81.68,95l-2.05-1.41c.65-.39,1.32-1.1,2-1.07s1.26.77,1.89,1.21Z"/><path class="cls-30" d="M317.58,102.9h3.27l-.06.91-3.26-.25Z"/><path class="cls-32" d="M302.26,91.62h0Z"/><path class="cls-5" d="M960.31,108h5.92L964.55,109a6.39,6.39,0,0,0,2,1,23.51,23.51,0,0,1,5.45.86H918.29c-7.55-.15-15.1-.42-22.64-.3-.93,0-1.82,2.1-2.74,3.22l-4.56.73c-1.17-.6-2.39-1.78-3.51-1.71-11.9.74-23.78,1.67-35.67,2.55l-.37-.62-.31.29.74.29-11.82,2.15c-6.76,0-13.55.36-20.28,0-3.15-.2-6.13-2-9.28-2.78s-6.53-1.3-9.82-1.89a4.42,4.42,0,0,0-.39.88c2.41.58,4.82,1.16,7.21,1.78.32.08.55.41,2.12,1.65L789.27,116l-19.39-4.4-16.39-1.45-3.42.75-6.82-2.23,0-4.4h1.3l-1.28-.67-4.29-.82-7.67-5.18c3.69.8,7.41,1.56,11.09,2.42,3.41.79,6.82,1.59,10.16,2.58,2.1.62,4.06,1.59,6.09,2.4l-2,.09c.27.49.44,1.34.83,1.43,3.46.76,7,1.38,10.47,2.05l.42-2.05L758.6,105l15.68-1.83c-4.44-1.1-7.16-1.64-9.73-2.49-.76-.26-1.13-1.4-1.68-2.13.88-.18,1.9-.71,2.62-.49,3.25,1,6.41,2.23,9.61,3.37l-.42-1.66,5.27-1.4,10.25,4.5c-1.72,1.26-3.08,1.12-4.38,1.3A28,28,0,0,0,782,105.2a14.44,14.44,0,0,0,3.14,1.63c3.67.89,7.38,1.66,11.1,2.36a28.64,28.64,0,0,0,4,.19,31.2,31.2,0,0,0-2.38-3.11c-1.93-2-4.35-3.66-5.9-5.82-1.12-1.56-1.16-3.7-1.55-5.12,8.27,0,17.51-.16,26.73.13a7.81,7.81,0,0,1,5.42,2.79c2.32,3.6,5.51,3.19,7.27.73,2.45-3.42,5-2.6,8.57-2.36,16.24,1.11,32.51,1.94,48.78,2.6,15,.61,29.93.87,44.9,1.29l3.57.67,2.44-1.43c0-.23,0-.45,0-.68a43,43,0,0,0,4.77.64c.38,0,.81-.92,1.22-1.42,0-.48,0-1,0-1.44l1.71,0,16.18,9.58-3.36.76h-6.85l-3.41-.72H944.9l-2.56-.73-4.28.72-12.8-.72-11.69-4.86c2.35,2.26,3.15,3,3.94,3.79l-5.26,1.07c-.87.17-1.74.29-2.62.43.61.74,1.16,2.07,1.82,2.11,4.87.29,9.76.32,14.65.43l32.48-.05,1.16.81Z"/><path class="cls-39" d="M1035.45,139.78c2.89-1.7,5.7-3.52,8.72-5,1-.48,2.5-.1,3.78-.11l8.84-.05c3,.27,6,.41,9,.87,1,.16,1.9,1.1,2.83,1.68-1,.22-1.93.42-2.89.67s-1.66.48-2.49.72c.6.45,1.12,1.18,1.8,1.31,6.37,1.23,12.76,2.37,19.15,3.53-.29.51-.58,1-.86,1.52-7.58-.49-15.15-1.12-22.74-1.4-3.83-.14-7.76.81-11.53.43-4.31-.43-8.5-1.79-12.75-2.75Zm12,2.14,1.15.9.22-.25-1.39-.63-3.06-1.44c-.13.32-.26.64-.38.95Z"/><path class="cls-40" d="M1081.6,164.07c-3.81.8-7.61,1.65-11.44,2.37-3,.57-6.11,1-9.16,1.46a37,37,0,0,0,3.57-2.59,43.46,43.46,0,0,0-6.71-7.64c-1.8-1.49-4.57-2.11-6.34-4.37,1.57.46,3.11,1,4.71,1.33s3.22.35,4.83.5l-2.83-4.09,22.2,6.18c-.17.48-.33,1-.49,1.45l-4.72-.49Z"/><path class="cls-41" d="M971.28,134.24,988,137.55l-.24,1.19c-5.35-1-10.67-2.55-16-2.73-9.8-.32-19.64.17-29.47.37-6,.12-12.05.35-18.08.46-.51,0-1-.55-1.55-.84a22,22,0,0,1,1.86-1.29c2.64-1.43,5.3-2.83,8-4.23.35-.18.8-.5,1.11-.43,2.89.65,5.71,1.73,8.64,2,6.36.56,12.78.88,19.17.84.81,0,1.6-2.78,2.39-4.27.81,1.58,1.51,4.44,2.46,4.51,3,.21,6.21-.58,9.32-1.05,1.28-.19,2.52-.59,3.8-.8a7.42,7.42,0,0,1,.49,1.23c-1.53.45-3.06.92-4.6,1.34C974.67,134,974.09,134,971.28,134.24Z"/><path class="cls-42" d="M952.61,156c-3.25-1.53-6.51-3-9.72-4.61a12.05,12.05,0,0,1-2-1.51c1-.08,2.23-.48,3.06-.16,2.15.82,4.13,2.76,6.19,2.79,4.19.05,8.4-.88,11.81-1.31l-.73.56.6,1c2.3-1.07,4.49-2.76,6.91-3.07a160.59,160.59,0,0,1,16.44-.86c1.08,0,2.18.85,3.26,1.31-.94.58-1.82,1.55-2.84,1.68-7.2.93-14.44,1.64-21.65,2.51-3.82.46-7.61,1.11-11.41,1.68Z"/><path class="cls-43" d="M845.76,118.38l-8.35-.93,11.82-2.15-.06,0c11.89-.88,23.77-1.81,35.67-2.55,1.12-.07,2.34,1.11,3.51,1.71Z"/><path class="cls-42" d="M870.71,156.85l30.81,8.06H869.44C873.1,163.94,876.65,161.87,870.71,156.85Z"/><path class="cls-42" d="M952.55,156c.11.72.23,1.44.34,2.16h-27.8l-.2-1.95c5.86-.65,11.71-1.62,17.6-1.82,3.34-.11,6.74,1,10.12,1.64Z"/><path class="cls-44" d="M837.4,149c6,1.82,11.8,4.42,17.94,5.2,4.71.59,9.8-1.17,14.73-1.76a7.71,7.71,0,0,1,2.58.65,6.62,6.62,0,0,1-1.37,1.28C862.06,159.34,845.66,157.22,837.4,149Z"/><path class="cls-16" d="M838.05,131.87H808l0-1.39,30-1.27C838,130.1,838,131,838.05,131.87Z"/><path class="cls-36" d="M1152.51,142.17l-5-.26,11.08-8.1h5.9l-3.36,4.41a3.2,3.2,0,0,0-.61-.15c-1.63.74-3.29,1.43-4.88,2.22C1154.53,140.85,1153.54,141.54,1152.51,142.17Z"/><path class="cls-42" d="M926.1,161.12c-7.56-.84-13.48-1.48-19.39-2.22-.45-.06-.77-.85-1.15-1.3,1-.42,2.07-1.21,3.09-1.19a92,92,0,0,1,12.11.74C922.24,157.38,923.43,159.06,926.1,161.12Z"/><path class="cls-45" d="M892.91,113.77c.92-1.12,1.81-3.2,2.74-3.22,7.54-.12,15.09.15,22.64.3Z"/><path class="cls-35" d="M1035.45,139.78l.86,1.4-14.56,3.42-.54-1.79,9.17-3.19Z"/><path class="cls-46" d="M880.07,128.11c2.17.14,3,.25,3.84.23,1.57,0,3.13-.15,4.7-.23-1.54.84-3,2.18-4.64,2.41a56.86,56.86,0,0,1-8.76.06c-.31,0-.61-.36-.91-.56.41-.42.74-1.12,1.25-1.23C877.46,128.4,879.43,128.2,880.07,128.11Z"/><path class="cls-26" d="M1167.23,128a18.24,18.24,0,0,1,3.78-.42,7,7,0,0,1,2.36,1.18,7.66,7.66,0,0,1-2.25.91c-4.13.2-8.27.28-12.4.4Z"/><path class="cls-47" d="M1121.81,147a4.46,4.46,0,0,0,.79.17c-3.63,3.21-7.27,5.07-10.94,0Z"/><path class="cls-21" d="M1100.54,126.66l-3.73-2.42c.56-.35,1.23-1.07,1.64-1,1.79.43,3.5,1.1,5.24,1.68Z"/><path class="cls-16" d="M855.35,128.15l3,1.46a15.86,15.86,0,0,1-3.53,1.53c-.64.11-1.5-.71-2.27-1.11Z"/><path class="cls-48" d="M805.35,133l5.76.84c-.16.39-.34,1.13-.46,1.12-1.85-.09-3.69-.29-5.54-.46Z"/><path class="cls-16" d="M843.34,129.41l3.27-.88,2.93,1.42c-.45.4-1,1.22-1.33,1.15C846.55,130.65,845,130,843.34,129.41Z"/><path class="cls-49" d="M1077.37,118.86l2.26.3c-.06,1-.12,2-.19,3l-3.83-1.79Z"/><path class="cls-42" d="M893.64,167.8l-6.71-1.11c.22-.55.45-1.11.68-1.66l6,2.79Z"/><path class="cls-16" d="M834.69,170.05l3.84-1.66.49,1.42-4.38.19Z"/><path class="cls-16" d="M845.52,169.11l-1.27.49a2.81,2.81,0,0,1-.31-.88c0-.12.5-.39.64-.34A3.87,3.87,0,0,1,845.52,169.11Z"/><path class="cls-16" d="M839.82,129.48c.15-.14.3-.39.45-.39s.39.21.59.33l-.55.54C840.14,129.8,840,129.65,839.82,129.48Z"/><path class="cls-16" d="M804.83,130.71c-.13-.29-.27-.59-.41-.88l.34-.05.06.89Z"/><path class="cls-42" d="M893.62,167.82l.64.29-.29.25-.33-.56Z"/><path class="cls-40" d="M78.32,13.37l2.54-.2c3.89-.37,7.81-1.12,11.68-1,3,.1,5.94,1.29,8.91,2v0l4.54,3.4,2.21,5.6a1.2,1.2,0,0,1,.2.43l-2-.09c-5.37-1.06-9.5-.55-9.26,5.05l5.35.36h0c.38,1.85.76,3.71,1.21,6,.57-.21-.56.22-1.68.66L100.39,37l1.75.76,7.7-.52h.81c.33.72.67,1.43,1,2.15v0l-5.47-.59,1.53,5.33-4.43-2a35,35,0,0,1-4.83-2.79c-2.73-2.24-5.24-4.68-7.79-7.08-.06-.06.54-.55.68-.88.39-.94.69-1.91,1-2.86a35.78,35.78,0,0,0-5.71.67c-.58.15-.64,1.61-1.13,2.39-.34.54-1,1.34-1.53,1.34-5.35,0-10.69-.1-16-.14-1.37,0-2.74.14-4.11.22.17-.56.15-1.46.54-1.62A28,28,0,0,1,68.79,30a15.76,15.76,0,0,1,2.58-.22c-.3-.8-.37-1.78-1-2.35a3.17,3.17,0,0,0-2.42-.7,16,16,0,0,0-3.31,1.66l-.08-.86q2.22-5.68,4.45-11.38l2.49-.07c1.1,3.06,1.29,8,3.5,8.79,4.32,1.52,9.78.86,14.77.78,1.73,0,3.45-1,5.17-1.59a46.7,46.7,0,0,1-5.89-1.56C87.69,22,85.67,21,85.59,20c-.1-1.29,1.38-2.69,2.63-4.81a78,78,0,0,0-6.91,3.85,35.37,35.37,0,0,0-4.14,4c-.11-2.17-.17-4.35-.38-6.52-.05-.53-.6-1-.92-1.52L75,13.65ZM95.52,31.5c0-.1-.06-.25-.14-.29s-.26,0-.39,0l.22.49Z"/><path class="cls-50" d="M27.05,16c1.22.88,3.17,1.58,3.52,2.69,1.34,4.25,4.11,5.82,9,4.5.24,0,.48.06.72.08L39.64,25l-2.51-.72c-.82,1-1.64,2.1-2.45,3.16l-1-.77L30.64,29l1.78,1.43-.91.93-1.76-.74c-.22-1.32-.53-2.63-.65-4S29.05,24,29,22.66c-1.72.42-4.71.54-5,1.31C21.47,31.6,14.78,27.09,10,28c-1.88-.33-3.78-.6-5.65-1-1.47-.31-2.89-.77-4.33-1.16C1.06,24.52,1.84,22.43,3.23,22,11.09,19.78,19.09,17.94,27.05,16Z"/><path class="cls-10" d="M1532.83,124.92c-2.7-1.71-5.38-3.45-8.12-5.13-1.24-.76-2.59-1.4-3.89-2.09,9.18.59,18.39,1,27.52,2,1.55.16,2.73,2.9,4.08,4.46l3-4.2c4.6,3.92,7.76-6.3,13.48-.68,3.64,3.57,20.32.91,23.62-2.52l6.13,3.68c3.91-.41,10.85-.12,11.23-1.35,2.06-6.67,7.66-2.7,9.43-1.86,9.25,4.42,19.12,5.1,29.22,5.18,1.64,0,4.19-.41,4.72-1.33.81-1.39.22-3.39.22-6.92l-2.24,7.11c-.76-1.76-2.68-4-2-5.17,1.44-2.56,4.17-4.58,6.38-6.82l3.58.22c-.57,1.36-1.22,2.71-1.72,4.1-2.89,8-.73,10.32,8.4,9l5.54.78a44.63,44.63,0,0,0,26.1,9.16L1697,136l-76.37-1.57c-2.69-.94-5.29-2.21-8.08-2.73s-5.82-.32-8.74-.44l6.85,3.28-5.15,1.52h-7.72l-11.06-.08c-2.3-3.37,8.75-.54,3.14-4.75-2.08-1.56-7.88-2.34-9.28-1.14-5.28,4.56-8.52-2.54-12.88-.83.37.84.76,1.77,1.16,2.69a27.93,27.93,0,0,1-3.67-.27Q1549,128.34,1532.83,124.92Zm63.27,10,.81-.93a4,4,0,0,0-.93-.46c-.14,0-.54.33-.51.45A3.7,3.7,0,0,0,1596.1,134.94Z"/><path class="cls-3" d="M1366.08,154.47l-1.59-2.19,7.71,0c20.27-4.56,40.8-5.05,61.5-2.93,4.46,1.31,9,2.38,13.34,4,2.11.81,3.66,2.7,5.46,4.11-6.92-.16-13.84-.22-20.76-.49-8.43-.33-16.88-.61-25.27-1.34-6.8-.6-13.51-1.89-20.29-2.7-.82-.1-1.81.83-2.71,1.3s-1.52,1.1-2.3,1.13c-3,.11-6,0-9,0Z"/><path class="cls-3" d="M1676.36,153c5.56-2,11.1-4.08,16.7-6,.81-.28,1.92.08,2.89.15,4.31,1,8.18,2.36,6.81,7.34l-11.33,1.47,2.1,5.25-6.81-5.87Z"/><path class="cls-51" d="M1439.93,119.86c6.15.83,12.33,1.52,18.43,2.54,3.24.55,6.36,1.68,9.53,2.55l-33.81-2.24c0-.8.08-1.6.13-2.4Z"/><path class="cls-31" d="M1460.07,167l-12.76,1.5-.9-4.57c5.71-4.08,11.9-3.27,18.21-1.32Q1462.34,164.78,1460.07,167Z"/><path class="cls-52" d="M1676.36,153l10.36,2.33-3.5,5.89-6.79-3.75-8.59-1Z"/><path class="cls-53" d="M1671.1,162.56a5.4,5.4,0,0,0-.69.08c-4.47,0-9,0-13.41-.19a19.28,19.28,0,0,1-4.46-1.28c1.12-.63,2.2-1.32,3.37-1.87,2-.92,4-1.74,6-2.6l0,0C1665.07,158.52,1671.24,156.8,1671.1,162.56Z"/><path class="cls-54" d="M1597,142l4.94-.24,14.66,1.75C1610.15,147.81,1598.42,146.71,1597,142Z"/><path class="cls-55" d="M1702.76,154.43c1.37-5-2.5-6.31-6.81-7.34l2.63-1,5.3-1.88a2.69,2.69,0,0,0,.69-.06l5.19,4.45,6.58,1.18-12.76,4.72A5.59,5.59,0,0,1,1702.76,154.43Z"/><path class="cls-56" d="M1436.39,133l-4.62-1.42,17.23,3.66Z"/><path class="cls-18" d="M1639,139.1l1.43-.22,9.83,1.19-.53,2.1Z"/><path class="cls-21" d="M1479.22,135.38h2.12l-5.61,2.88-.91-1.67Z"/><path class="cls-53" d="M1661.88,156.7h-5l.24-1.18,4.71,1.21Z"/><path class="cls-3" d="M1442.26,150.08h0Z"/><path class="cls-22" d="M2171.9,62.85l-3.32,2.95c-2-3.48-4.22-5.68-8.3-1.69a3.25,3.25,0,0,1-2.71-.37c-2.33-2.67-11.09-2.39-12.88.7-.47.8.29,2.12.43,3.21.16,1.35.26,2.7.39,4-1.13-1.26-2.18-2.58-3.39-3.77-.78-.77-1.86-2-2.65-1.91-1.22.12-3.4,1.48-3.28,1.82.86,2.43,1.77,5.06,3.65,6.86.54.52,4.3-1.47,6.59-2.31a62.93,62.93,0,0,0,6.49-.9c1.39-.33,2.54-1.34,3.91-1.81,3.88-1.36,7.82-2.6,11.74-3.88,3.77,7.3,11.83,3,17.62,4.77,1.92.61,4.23.3,6.36.4l-1.54,3.6-5.77-2.2,3.82,7.41c-2.7,2.68-5.61,5.22-8,8.1-.67.81.23,2.59.41,3.93a30,30,0,0,1,3.59-.72c2.91-.25,5.83-.37,9,1l-3,1.56,4.74,3a11.84,11.84,0,0,1,1.83-2.42,4.08,4.08,0,0,1,2.4-.74c2.08,2.44,2.82,6.73,8.24,2.45,1.2-.94,6,1.48,9.08,2.35L2196,105l-12.8,3c-7.28-.15-14.59-.64-21.85-.29-3.05.15-6,2.07-9,3.19h0c-7.21,2.58-14.29,5.47-21.67,7.58-3,.85-6.58,0-9.89-.1,1-3.1,2.07-6.2,3.15-9.29a15.35,15.35,0,0,1,1-1.89c.44.63.87,1.28,1.34,1.9.71.93,1.46,1.83,2.19,2.74.41-.88.53-2.22,1.28-2.58,2.66-1.3,5.53-2.28,8.34-3.34,4.33-1.63,8.75-3.12,13-4.93,1.07-.46,1.59-1.89,2.37-2.88-1.67-.59-4.58-2-4.83-1.67-4.14,5-10.11,3.15-15.57,3.71-10.11,1-20.13,2.71-30.19,4.12l.72-2.24c8.29,2.12.15-3,2.14-3.77.39-.16.25-1.29.35-2l2.79,2.8,1.91,2.87,21.86-5.26,8.06-3.51-7.6-6,13.69,2.26c-.44-4.53-11.9-6.81-3.76-13-2.1-.48-3.93-1.28-5.75-1.25-3.22.06-6.44.63-9.66,1l-5.92,1.45c-5.18,2.92-14.42-2.4-16.89,6.18a8.84,8.84,0,0,1-1.62,0c-7.75.35-15.51.77-23.27,1-5.18.18-10.37.16-15.56.23,1.17-1.14,2.69-3.41,3.48-3.23a30.6,30.6,0,0,0,22.85-3.59c1.11-.63,3.31.09,5,.31s3.73,1.3,5.09.84a99.27,99.27,0,0,0,10.56-4.79c.28-.13.32-.64.48-1l1.33-2.76a10.71,10.71,0,0,0,1.82,2.39c.68.53,2,1.12,2.61.86a3.34,3.34,0,0,0,1.13-2.19,26.3,26.3,0,0,0-6.35-2.71,49.21,49.21,0,0,0-7.72-.44c0-.24,0-.47,0-.7l1.77-2.17,8.65-3.65-3.46-1c.31-.48.64-.95.91-1.45,1.07-1.92,2.12-3.85,3.17-5.78l6.82.61,11.13-5.26h2.52l5.27-1.89,5.85-.83-.47,2.85c.39,0,1.12.07,1.12,0,.12-1,.17-1.95.24-2.93l9.41.13c-.28.27-.85.59-.8.81a66.64,66.64,0,0,0,2.06,8.33c0,.15,3.33-.94,4.9-.63,1.32.26,2.33,1.71,3.47,2.64a18,18,0,0,0,2.36,1.84c.14.08.94-1,1.59-1.28,2.84-1.07,5.74-2,8.62-3l-1.5,5.8-2.39,0,.45,1.71Zm1,15.74,1.27-.8c-.85-1-2.06-3-2.49-2.91-3.14.88-6.12,2.19-9.16,3.34-1.15.43-2.35,1.19-3.47,1.13-2.08-.11-4.43-1.46-6.07-.92-1.83.6-3.1,2.65-4.35,4.22-.42.52-.32,2.07,0,2.21,4.6,1.86,8.42,6.11,14.65,2.87,3.33-1.73,7.43-2.32,11.14-3.53a39.5,39.5,0,0,0,4-1.81,28.86,28.86,0,0,1-3.73-1.71A9.61,9.61,0,0,1,2172.9,78.59Zm-41.32-12.75,3.06-1.93c-1.3-1.36-2.32-3.3-4-3.95a11.58,11.58,0,0,0-7-.5c-2.41.76-4.29,2.78-6.39,4.26,3,.87,5.91,1.83,8.91,2.58C2127.09,66.52,2128.15,66.16,2131.58,65.84Zm26-13.19c-2.84-.56-3.88-1-4.71-.86a11.65,11.65,0,0,0-2.88,1.58,8,8,0,0,0,2.7.93C2153.7,54.26,2154.72,53.65,2157.54,52.65ZM2137.85,51c-.06.08-.18.16-.18.24s.12.16.18.24l.31-.37Z"/><path class="cls-52" d="M2129.43,162.6,2115.72,159l.74-2.21-4.27-.67-3.31-.16-5.23-1.38-19.64-.89c-4.43-1-8.82-2.19-13.29-3-2-.38-4.22,0-6.29-.21-.62-.07-1.07-1.15-1.61-1.76a19.63,19.63,0,0,1,2.18.13c.51.07,1.35.53,1.43.44,6.85-8.36,17.91-4,26.61-6.63,2.18-.67,4.11-2.35,6.29-2.57,4.45-.43,9-.21,13.5-.21a2.81,2.81,0,0,1,1.55.51c4,2.94,8,5.91,11.7,8.6,5.15-6,7.76-.69,10.92.41h0c.21,1.51.43,3,.65,4.54a37.16,37.16,0,0,0,3.92-3.43,5.78,5.78,0,0,0,.92-2.8c.45-2.51-.61-6.39,5.08-3.89.31.14,1.43-1.1,2.17-1.7,1.69,1.58,3.68,3,5,4.81.91,1.26,1.75,3.41,1.1,4.49-1.48,2.49-3.88,4.56-5.91,6.8-5.06-.45-10.12-.88-15.17-1.37a2.31,2.31,0,0,1-1.14-.72c-1.45-1.39-3.3-4.17-4.22-4-3,.71-5.67,2.51-8.47,3.89.5.55.86,1.43,1.5,1.6,4.55,1.29,9.15,2.43,13.74,3.62Z"/><path class="cls-57" d="M1985,136.22c7.69,1.21,15.44,2.21,23,3.75,2.28.47,4.14,2.46,6.2,3.75-1.83,1-3.7,2.94-5.49,2.88-12.85-.43-25.68-1.32-38.53-1.93-3.6-.16-7.29.51-10.84.12-2.72-.29-5.29-1.66-8-2.57-3.43,7.09-9.19,2.32-14.37,1.17-1.44-1.46-3.22-2.76-4.24-4.41a91.19,91.19,0,0,1-4.16-8.41c2.25-.37,4.93-1.61,6.66-1,6.13,2.32,11.94,5.28,17.29,7.73l1.56-3.54c10.27,2.4,19.68,8.66,28.85,6.64.64-2.74.84-3.6,1-4.45Zm-7.72,8.43c-.14-.19-.22-.43-.4-.5s-.37.15-.56.24c.12.17.2.42.37.49S1977.05,144.74,1977.26,144.65Z"/><path class="cls-58" d="M1897.68,139.75c-13.77-1.19-27.55-2.29-41.31-3.59-6.47-.62-12.89-1.62-19.34-2.44l-1-3.67,3.66,1.47c4.68.26,9.36.48,14,.79a19.45,19.45,0,0,1,3.07.7l-1.73-3c2.89-2.5,5.75-5.59,8.61.09a2.84,2.84,0,0,0,2.32.58c3.48-1,7.06-2.93,9.3,1.54l2.2-1.58c.18.47.19,1,.47,1.13,2.1,1.28,4.1,3.11,6.43,3.54,1.65.3,3.77-1.31,5.69-2.06-1.31-1.47-2.65-2.92-3.92-4.42-.72-.85-1.31-1.78-2-2.68,1,.09,2,.17,3,.27,2.38.21,4.76.44,7.14.66l4.21,1.64,4.32-.12h0c1.17,1.19,2.36,3.37,3.49,3.35,2.56-.05,5.08-1.19,7.62-1.88l14.45,6.6-1,1.7c-.92-.35-1.87-.67-2.76-1.07-2.5-1.11-5-2.26-7.44-3.4,1.88,1.45,3.75,2.91,5.65,4.36.86.66,1.75,1.28,3.78,2.75l-6.47-1.63c-.76-.19-1.52-.4-2.27-.6l.27,2.36-3.55-.52ZM1908.6,138c-1.43-.58-2.15-1.11-2.81-1.07s-1.13.72-1.7,1.12c.57.28,1.12.78,1.7.79A11.31,11.31,0,0,0,1908.6,138Z"/><path class="cls-53" d="M1918.17,141.12l-.27-2.36c.75.2,1.51.41,2.27.6l6.47,1.63c-2-1.47-2.92-2.09-3.78-2.75-1.9-1.45-3.77-2.91-5.65-4.36,2.48,1.14,4.94,2.29,7.44,3.4.89.4,1.84.72,2.76,1.07l1-1.7-14.45-6.6-4.49-.81-5.68-.74-.94.08h0l.84-3.67,0,0,3.09,0c-.47-1.16-.94-2.32-1.42-3.48l6,4.34,3,3,1.2-3.15-.72-3.65c-.37-.73-.73-1.47-1.09-2.2l-1.51,1.46-6.88-3.17,5.17-1.24.86,0,9.43-.71,21.46,2-.3.38c-4.34,0-8.69-.08-13,.06a31.91,31.91,0,0,0-5,.91c1.47,1.33,2.81,3.65,4.42,3.8,4,.37,8.09-.25,12.16-.47,3.4,2.48,6.76,5,10.28,7.34.22.14,1.62-1,2.47-1.6l.76-.64,2,.72,1.46.07c.06.44.13.89.19,1.33l1.42-.58-5.05,4.36-1.56,3.54c-5.35-2.45-11.16-5.41-17.29-7.73-1.73-.65-4.41.59-6.66,1a91.19,91.19,0,0,0,4.16,8.41c1,1.65,2.8,3,4.24,4.41Z"/><path class="cls-59" d="M1914.84,122l.72,3.65-4.22.13-6-4.34-.85-.13c-.94-1-1.87-2-2.8-3.07a34.83,34.83,0,0,1-1.58,3.18,6.6,6.6,0,0,1-1.47,1.27l0,0c-.81-1.59-1.62-3.19-2.44-4.78l-1.09,2.45c-13.57-2.46-26.33,1.65-39.25,3.14h0c0-.51-.07-1-.1-1.53h0l5.56-3.2-5.4.24,0,0h-1.8l-5.13-2.19,0-1.52,59-2.85,4.43.61-1.89,3.82-5.17,1.24,6.88,3.17Z"/><path class="cls-60" d="M1988.3,122.7c7.32-.07,14.65-.3,22-.14a35.19,35.19,0,0,1,8.92,1.59c1.25.36,2.1,1.8,3.13,2.74-1.2.94-2.24,2.41-3.62,2.73-5.8,1.33-11.71,2.32-17.58,3.44-1.54-2.19-3-4.41-4.68-6.55-.12-.16-1.2.08-1.71.33-1.48.71-2.89,1.52-4.33,2.29Z"/><path class="cls-52" d="M2056.64,141.17c.84.07,1.7.07,2.52.22,2.13.4,4.25.86,6.38,1.3-1.64.6-3.31,1.16-4.9,1.83-1,.43-2.57.91-2.74,1.58-1.52,6-7,4.54-11.59,4.76l-18.83-1.65c1-.37,2.57-1,4.19-1.47C2040,145.51,2048.31,143.35,2056.64,141.17Z"/><path class="cls-61" d="M2044.74,112.39q-1.71-1.81-3.4-3.64l3.38,0,3.39-.13,1.59-.79,2.75,0c1.94,0,4.16.53,5.71-.13.9-.38.73-2.64,1.06-4.06a4.61,4.61,0,0,1,.44-1.15c1,.19,2.07.46,3.09.72a31.25,31.25,0,0,0,.75,3.18c.05.13,1,0,1.48,0l-.62-2.29c2.57-.42,5.13-.92,7.72-1.25s7.38,2.77,6.93-3.07a4.41,4.41,0,0,1,2.88-.77,24.94,24.94,0,0,1,5.26,3,41,41,0,0,1,3.75,3.46c-6.19-2.61-11.4,1.1-17,2C2064.15,109.16,2054.45,110.79,2044.74,112.39Z"/><path class="cls-30" d="M1988.3,122.7l2.09,6.43c1.44-.77,2.85-1.58,4.33-2.29.51-.25,1.59-.49,1.71-.33,1.63,2.14,3.14,4.36,4.68,6.55L1985,136.22l-1-.23c-.91-1.07-1.81-2.13-2.73-3.19-1.64-1.89-3.3-3.77-5-5.65l11.78,4.92c2.35-2.89-1.52-7.22-10.12-8.55l-4.26-1.51,3.59-.12Z"/><path class="cls-35" d="M1977.32,121.89l-3.59.12c-2.36.41-4.86,1.48-7.06,1.13-8.28-1.29-16.47-3-24.69-4.64l.3-.38Z"/><path class="cls-22" d="M2119.91,118.3l-6.84,1.37c2.73-4.65-.18-5.78-4.87-6.09-1.44-.1-2.82-.93-4.23-1.42,1.34-.26,2.7-.47,4-.8,1.82-.47,3.63-1,5.38-1.57,1.47-.53,2.83-1.28,4.25-1.93.49,2.12,1,4.24,1.49,6.36C2119.4,115.58,2119.64,116.94,2119.91,118.3Z"/><path class="cls-56" d="M2108,127.94c2.25-.09,4.51-.29,6.76-.22a33.75,33.75,0,0,1,4.41.72c-1.19.71-2.27,1.78-3.57,2.07-7.65,1.69-15.35,3.19-23,4.76l0-2.19,5.12-2.22Z"/><path class="cls-26" d="M2043.85,170.06l-2.58-6.66,11.08,1.47a26.89,26.89,0,0,1,4.8,1.34c.78.37,1,1.54,1.53,2.35a7.64,7.64,0,0,1-2.38,1C2052.16,169.83,2048,169.92,2043.85,170.06Z"/><path class="cls-52" d="M1962.61,115.47l35.25-1.51,1.9,2.21a8.78,8.78,0,0,1-2.34.57Q1980,116.16,1962.61,115.47Z"/><path class="cls-52" d="M2092.58,133.08l0,2.19c-.35.72-.51,1.91-1.09,2.09-5.4,1.7-10.84,3.31-16.35,4.74-1,.27-2.41-.38-3.63-.61.95-.59,1.84-1.26,2.84-1.77,2.92-1.5,5.9-2.94,8.85-4.41v0l3.38-.7,3.42-2.3Z"/><path class="cls-15" d="M2098.51,104.93c-.14-2.08-.2-4.16-.46-6.22-.05-.46-1.24-1-1.14-1.26.2-.6.91-1.52,1.43-1.53,2.55,0,5.11.19,7.66.32-.1.68,0,1.81-.35,2-2,.79,6.15,5.89-2.14,3.77l-.72,2.24Z"/><path class="cls-55" d="M1916.29,146.49c-5.92.45-11.84,1-17.78,1.26-1.37.05-2.79-.93-4.2-1.43l14.51-2.17,1.78-.05Z"/><path class="cls-53" d="M1910.6,144.1l-1.78.05-11.14-4.4,16.94.85Z"/><path class="cls-4" d="M2092.58,133.08l-2.61-.79,7.73-1.43Z"/><path class="cls-22" d="M2108.78,120.5l-6,1.52Z"/><path class="cls-12" d="M2103.65,154.53l5.23,1.38Z"/><path class="cls-59" d="M1920.82,116.08l-9.43.71Z"/><path class="cls-22" d="M2112.23,119.77l-2.58.7Z"/><path class="cls-12" d="M2097,164.47c.14.17.26.35.38.52-.21.08-.47.25-.64.2s-.26-.32-.39-.49Z"/><path class="cls-12" d="M2112.19,156.07l4.27.67Z"/><path class="cls-4" d="M2086.55,134.59l-3.38.7Z"/><path class="cls-12" d="M1952.56,150.64l3.35.79-.16.2-3.44-.7Z"/><path class="cls-12" d="M2103.48,164.88c-.09.06-.19.19-.25.17s-.17-.14-.24-.22c.08-.06.19-.19.25-.17S2103.4,164.8,2103.48,164.88Z"/><path class="cls-62" d="M1132.94,149.37l1.48.08c4.53,4.33-2.86,3.05-3.21,5.09l-6.32,3.36c-.18-.29-.6-.74-.51-.84,2-2.18,3.91-4.36,6-6.43A9.79,9.79,0,0,1,1132.94,149.37Z"/><path class="cls-63" d="M1187.28,147c5-1,7.62-1.91,10.22-1.85,1,0,1.93,2.25,2.77,3.53.2.31-.14.88-.22,1.32a19,19,0,0,0-2.94-1.17C1194.72,148.31,1192.29,147.93,1187.28,147Z"/><path class="cls-49" d="M1284.07,126.46c.31,1,.62,2,.92,2.94l-9.25-3.64-.15,0Z"/><path class="cls-64" d="M1821,144.32c6.74.65,13.6.82,20.16,2.14,4,.79,7.5,3.35,11.23,5.12l6.91,2.14-6.77,1.5c-1-.64-2.4-2-3-1.82-11.59,4.21-18.31-7.38-28.82-6.56-5.31.42-10.66.69-16,.7-1.49,0-3-1.2-4.47-1.84l-5.16-3.73,5.33-2.39,3.27.9c4.83,1.62,9.62,3.32,14.51,4.8C1818.91,145.49,1820.05,144.66,1821,144.32Z"/><path class="cls-65" d="M1852.53,155.22l6.77-1.5,26.47,5.94L1884,162c-2-.67-3.89-1.86-5.86-1.93-7.17-.22-14.8-6.5-21.44,1l.06.08-1,.62-2.6,2.3-1.59.82a4,4,0,0,0-.78-.13l-1.86-2.07,0,0Q1850.72,159,1852.53,155.22Z"/><path class="cls-66" d="M1702.76,154.43a5.59,5.59,0,0,0,.82.12c3.88,1,7.87,1.77,11.6,3.08,1.29.45,2,2.23,2.91,3.41-4.45-.79-8.89-1.67-13.37-2.27-.88-.12-1.9,1-3,1.3-2.38.67-4.83,1.17-7.24,1.74l-1-.66-2.1-5.25Z"/><path class="cls-67" d="M1779.18,143.8c-.53,1.19-.87,2-1.21,2.74a26.76,26.76,0,0,0,4.13.62,12.86,12.86,0,0,0,3.14-.77c-.16.65-.06,1.56-.52,1.92-1,.79-2.41,1.92-3.53,1.83-6.25-.51-12.45-1.4-18.7-2a4.81,4.81,0,0,0-3.11,1.12c-.68.58-.75,1.69-1.09,2.56-.83-.9-1.71-1.77-2.46-2.71-1.21-1.51-2.33-3.07-3-4,5.23.7,11.27,1.53,17.32,2.26a11,11,0,0,0,2.74-.37,14.15,14.15,0,0,1-1.06-1.78,11.15,11.15,0,0,1-.49-1.91,12.6,12.6,0,0,1,2.82-.36C1776,143.14,1777.73,143.55,1779.18,143.8Z"/><path class="cls-17" d="M1800.41,139.58l-5.33,2.39,5.16,3.73c-5.56,2-5.84,1.52-9.72-4.18-1-1.39-4.9-1.38-7.51-1.78-2.29-.34-4.64-.36-8.8-.64l7.31-1.72Z"/><path class="cls-26" d="M1715.71,134.52l9.37,2.24-6.76.92-2.72,0L1697,136l.57-3.5h2.19c1.88.62,3.71,1.58,5.64,1.77C1708.78,134.58,1712.25,134.46,1715.71,134.52Z"/><path class="cls-68" d="M1820,168.54l-3.58.84-20-6.21c.1-.28.2-.55.31-.83,6.18.65,12.38,1.23,18.54,2,.82.11,1.46,1.29,2.18,2h0l-1.29.74,3.82.83C1819.94,168.12,1820,168.33,1820,168.54Z"/><path class="cls-38" d="M1716.34,149.83l-6.58-1.18c.84-1.3,1.7-2.61,2.52-3.92.38-.59.54-1.48,1.09-1.73a3.17,3.17,0,0,1,2.19.32c4,1.92,7.87,3.92,11.81,5.88.74.36,1.52.66,2.29,1-1,.32-2,1-2.86.89C1723.3,150.78,1719.82,150.26,1716.34,149.83Z"/><path class="cls-19" d="M1782.31,160.5l-1.6-.14-7-1c.11-.65.22-1.29.32-1.94l12.57,1.86-.12,1Z"/><path class="cls-43" d="M1746.61,158.82l-5-1.94c1.79-.62,3.56-1.63,5.37-1.7,1,0,2.12,1.48,3.18,2.29Z"/><path class="cls-43" d="M1840.44,170l-6.63-.83,1.54-3.66,4.18,1.59C1839.83,168.08,1840.14,169.05,1840.44,170Z"/><path class="cls-69" d="M1763.54,138.21a11.56,11.56,0,0,1-.48,2.09c-3-.13-5.9-.4-8.84-.64l0,0,9.35-1.44Z"/><path class="cls-43" d="M1830.19,161.18l5.83,1.88-1.15,1.25-4.63-3.18Z"/><path class="cls-69" d="M1764.47,135.75l1.59.29,1.3,1.32-3.82.85,0,0-2.52-2.93a4.41,4.41,0,0,0,.73-.09Z"/><path class="cls-1" d="M1697.71,139l4.34,0-3.42,2.37C1698.32,140.61,1698,139.81,1697.71,139Z"/><path class="cls-1" d="M1704.57,144.2a2.69,2.69,0,0,1-.69.06l-.27-1.49,1.54-.12Z"/><path class="cls-43" d="M1830.24,161.13l-2-.34.51-.76,1.47,1.15Z"/><path class="cls-9" d="M2149.88,158.14c2-2.24,4.43-4.31,5.91-6.8.65-1.08-.19-3.23-1.1-4.49-1.29-1.8-3.28-3.23-5-4.81l-8.61-6.07c3.78-1,9.18-3,14.79-3.69,1.48-.18,3.53,3.63,5.47,5.48a32.22,32.22,0,0,0,3.79,2.7l1.76,1.46,5.49,4.31-1.91,2.06,9.76,6.46c1.49-2.77,3-5.54,4.45-8.33a18.38,18.38,0,0,1,1.87-3.64c.21-.24,2.93.45,3,1,.22,1-.78,2.09-.94,3.19-.26,1.73-.25,3.49-.35,5.23.92-.91,1.82-1.85,2.78-2.73a2.47,2.47,0,0,1,1.24-.78c8.61-.89,13.31-6,17.29-11.92l0-.68c8.19,3.62,14-2.33,20.91-3.94,4.63-1.08,8.91-3.29,13.54-4.33,1.72-.38,4,1.14,6,1.79a33.47,33.47,0,0,1-3.93,1.73c-7.09,2.1-14.24,4.07-21.32,6.21a18.81,18.81,0,0,0-3.68,2.11c1.58.14,3.15.33,4.73.39a16.78,16.78,0,0,0,2.52-.29l5.4,7.78,1.32-.69v-3c1,.53,2.09,1,3.11,1.58a24.41,24.41,0,0,1,4.59,2.56c1.08,1,1.55,2.42,2.29,3.65-1,.08-2.52-.19-3.05.3-2.15,2-4,4.2-6,6.34-10.94-.4-21.89-1-32.84-1.11-4.87,0-9.74,1-14.62,1.53-1.83.19-3.67.24-5.51.35-3.3-.57-6.61-1.09-9.88-1.74a14.21,14.21,0,0,1-2.74-1.15c-.09.93-.18,1.85-.26,2.78l-3.31.14c-3.29.7-6.59,2-9.86,1.9C2154.66,160.88,2152.28,159.13,2149.88,158.14Zm2.42-17.54,3.78-2.24,2.27-1.36c-.52-.48-1.09-1.4-1.54-1.35-2.57.26-5.11.75-7.65,1.16Z"/><path class="cls-70" d="M2209.61,136.05l0,.68-2.7-1.3,9.22-4.65c-5.45.91-8.95,1.29-12.29,2.14-1.69.44-8.37-5.41-4.82,2.55a8,8,0,0,1-2.44.91c-4.19.43-8.49.37-12.56,1.18-5.8,1.14-11.43,2.88-17.13,4.36l-1.76-1.46h0c.23-.74.47-1.48.71-2.22l-.82-.68,4.27-3,2.72,1.5,3.42,2.16c2.4-.54,4.81-1,7.17-1.64,1.63-.44,3.18-1.11,4.76-1.67-1.54-1.55-3-3.15-4.66-4.62-.37-.34-1.24-.26-1.88-.36.88,1.39,1.77,2.77,2.62,4.18.1.17,0,.45-.05.58l-7.82-1.89-.27.94-6.59-1.37-2.7-3a65,65,0,0,1,7.34-2.65,35.16,35.16,0,0,1,7.2-.69,21.81,21.81,0,0,1,4,.61c-.46-.83-1.26-1.66-1.25-2.49,0-.51,1.13-1.21,1.91-1.48A34.51,34.51,0,0,1,2189,122c1.29-.26,2.57-.59,3.85-.89-1,1-2,2.09-4.38,4.53,9.88,0,18.6,0,27.32-.06.78,0,1.55-.8,2.32-1.23a10.94,10.94,0,0,0-2.6-1.06c-3.35-.48-6.73-.82-10.1-1.22,2.23-.36,5.08-.09,6.57-1.2,6.71-5,13.41-5.66,20.65-1.11l-.78.76-3.37,1.47c.16.34.31.68.47,1l4.65-1c.25,0,.49-.07.74-.12l5.13.08c-3.9,1.4-7.71,3.07-11.74,4.11-3.21.83-7.36.66-1.81,4.53-1.19-.32-2.43-1-3.55-.88a12.74,12.74,0,0,0-4.27,1.54c-1.67.88-3.16,2-4.79,3C2212.09,134.88,2210.83,135.44,2209.61,136.05Z"/><path class="cls-11" d="M2232.58,119.71c-7.24-4.55-13.94-3.89-20.65,1.11-1.49,1.11-4.34.84-6.57,1.2.27-.43.42-1,.83-1.26,6.59-3.5,7.24-5-1.5-3.42-.37.07-.93-.65-1.39-1,.73-.52,1.47-1.48,2.2-1.48,7.09,0,14.18.26,21.28.43l16.31-2.82.6,1.1Z"/><path class="cls-63" d="M2152.36,119.74c4.1-2.8,7.85-6.21,12.42-8.21,3.45-1.52,7.94-1.28,12-1.72a2.36,2.36,0,0,1,1.41.93c-.72,1.42-1.22,3.5-2.51,4a148.37,148.37,0,0,1-14.46,4.6,66.94,66.94,0,0,1-7,1.19Z"/><path class="cls-26" d="M2152.36,119.74l1.81.8c-8.51,2.16-17,4.35-25.56,6.43-.87.21-2-.28-3-.44a16.75,16.75,0,0,1,1.84-1.63c4.34-2.88,8.55-5.93,13.17-8.43,1-.56,3.51.86,5.32,1.38Z"/><path class="cls-17" d="M2183.15,107.94l12.8-3,10.73-.93c-.36.5-.52,1-.86,1.15-6.58,2.38-13.15,4.77-19.85,6.85C2185.64,112.14,2184.12,109.37,2183.15,107.94Zm3,2c-.09,0-.24.08-.26.15s.06.18.09.27l.42-.23Z"/><path class="cls-9" d="M2169.31,134.57l-4.27,3q-4-4.76-7.93-9.52c1.14-.46,2.48-1.49,3.38-1.25a30.78,30.78,0,0,1,5.54,2.55l2.7,3C2168.92,133.11,2169.11,133.84,2169.31,134.57Zm-4.66-2.36-.39-.77a4.64,4.64,0,0,0-1,.42c-.06,0,.17.58.27.58A5.11,5.11,0,0,0,2164.65,132.21Z"/><path class="cls-51" d="M2243.91,108l-10.35.68c-.08-.62-.36-1.73-.19-1.78,3.45-1.08,7-2,10.45-3Z"/><path class="cls-52" d="M2137,149.33c.07-1.22.12-2.45.29-3.66,0,0,1.18,0,1.81.07l-2.12,3.58Z"/><path class="cls-22" d="M2152.29,114.53l.83,1.17c-.33.17-.79.56-1,.48a4.3,4.3,0,0,1-1-.92Z"/><path class="cls-9" d="M2165.86,138.24c-.24.74-.48,1.48-.71,2.22C2165.38,139.72,2165.62,139,2165.86,138.24Z"/><path class="cls-63" d="M2152.34,110.84l.65.33-.28.25-.39-.57Z"/><path class="cls-39" d="M1436.43,168.47a14.63,14.63,0,0,0-2.19-1.42c-4-1.69-8-3.32-14-5.82l25.26,2.3Z"/><path class="cls-71" d="M1436.43,168.47l9.07-4.94.91.38.9,4.57Z"/><path class="cls-72" d="M1342.13,167.58l-1.85-2.28,3.39-1.05L1343,167Z"/><path class="cls-1" d="M559.27,121.05l.37-.14a5.56,5.56,0,0,0-.42-.54s-.23.08-.35.13C559,120.68,559.13,120.87,559.27,121.05Zm-.59-9.13-.48-.44a2.65,2.65,0,0,0-.31.46s.17.22.22.21A3.24,3.24,0,0,0,558.68,111.92Z"/><path class="cls-73" d="M516.84,141.3l.85,1.92-4.39,1.68-1,1.07,2.2.23,1.46.91c1.54,1.29,2.82,3.22,4.65,3.74,6,1.7,12.28,2.9,18.44,4.29l10.24,7.51-.88.79-19.6-3.59,3.83-1.72-6.74-.28-9.92-.47-3.37,2.22-3.05,2.19c-.42-1.38-.91-2.74-1.24-4.13q-1.14-4.93-2.15-9.88c-.23-1.14-.32-2.31-.47-3.47ZM535.06,155c-.54.88-1.16,1.45-1,1.77.26.6,1,1,1.51,1.55.38-.44,1.14-.93,1.06-1.3C536.49,156.44,535.82,155.94,535.06,155Z"/><path class="cls-74" d="M615.85,143.59c6,4.1,13.31,4.52,20.52,5.32,1.41.16,2.6,1.82,3.15,4.32l-17.68-3.15L615.9,147H616l-6.14-2.81-2.15-.9,6.49-.05Z"/><path class="cls-69" d="M621.46,171.53c-3.05-.38-6.38-.25-9.06-1.33-1.84-.75-2.79-3.16-4.14-4.83,2.14-.31,4.27-.71,6.43-.9a13,13,0,0,1,2.93.38l3.24.16,1.86,1.33Z"/><path class="cls-27" d="M582.66,124,570,120l-.12-.82,14.43.61c.67,1.53,1.39,3,2,4.6a12.7,12.7,0,0,1,.47,2.22l-1.76-.86Z"/><path class="cls-65" d="M549.25,162.65,539,155.14l10.23,3.8,6,2.58Z"/><path class="cls-17" d="M585.15,168.54l-2.12,1.4c-.42-.67-.84-1.33-1.27-2Z"/><path class="cls-17" d="M574.92,164.9l.68.39-.66-.41Z"/><path class="cls-25" d="M1776.27,128.74c-.27-1.24-.55-2.49-.83-3.73l1.76,2.31.93-2.41h0c5.92-5.13,11.35-1.43,16.87,1,.1-1.32.18-2.36.26-3.4,6.93-1.11,13.19-.21,18.25,4.48a1.84,1.84,0,0,0,1.4-.14c1.83-5,4.31-2.43,7.33-.81,2.07,1.12,5,1,7.36,1.79,3.43,1.09,6.74,2.47,10.1,3.72l-3.66-1.47,1,3.67-53-3.75-6.91-.55Z"/><path class="cls-3" d="M1742.11,126.51c.05.19.1.38.16.57.66.66,1.2,1.76,2,1.92,4.8,1,9.76,1.46,14.43,2.74,2.19.6,3.86,2.63,5.77,4l-2.67-.52-1.24-.61.51.7,2.52,2.93-9.35,1.44-17.07-7.33c-1.18-.79-2.25-2.05-3.57-2.3-6.82-1.28-13.74-2.24-14.34-10.14-.06-.81-1.25-1.56-1.92-2.34a16.12,16.12,0,0,1,3.62,1.81,17,17,0,0,1,2.42,3.32,5.58,5.58,0,0,1,.1.68c.26.77.51,1.54.77,2.3l3.31.17,1.8.54,7.62.15Zm-2,4.21.34.07c0-.09.08-.22,0-.26a.76.76,0,0,0-.33-.08C1740.09,130.54,1740.07,130.63,1740.06,130.72Z"/><path class="cls-41" d="M1885.77,159.66l-26.47-5.94-6.91-2.14c2.09,0,4.18,0,6.27-.09,1.41-.06,2.95-.69,4.19-.36,11.38,3,22.79,5.85,34,9.32,2.77.86,4.72,3.71,7,5.65l-2,1.64c-.68-.8-1.15-2-2.07-2.34C1895.19,163.38,1890.46,161.55,1885.77,159.66Z"/><path class="cls-41" d="M1856.66,161.09c6.64-7.53,14.27-1.25,21.44-1,2,.07,3.91,1.26,5.86,1.93l-1,5.14a22.48,22.48,0,0,1-3.19,1.48c-1.55.45-3.57,1.36-4.74.87C1868.82,166.89,1862.78,163.93,1856.66,161.09Zm20.76,5.74a72.07,72.07,0,0,0-5.33-5.82c-.25-.22-2.14.91-3.27,1.42,2.23,1.75,4.45,3.52,6.74,5.2C1875.72,167.75,1876.49,167.25,1877.42,166.83Z"/><path class="cls-75" d="M1883,167.13l1-5.14,1.81-2.33c4.69,1.89,9.42,3.72,14,5.74.92.39,1.39,1.54,2.07,2.34l-13.56,1-3.42,0Z"/><path class="cls-76" d="M1821,144.32c-1,.34-2.09,1.17-2.81,1-4.89-1.48-9.68-3.18-14.51-4.8C1810.18,139.31,1817.25,136.22,1821,144.32Z"/><path class="cls-77" d="M1850.17,141.57c7.66.93,12.77,1.48,17.84,2.19a15.4,15.4,0,0,1,3.81,1.33c.1,0-.18,1.19-.36,1.21a20.18,20.18,0,0,1-4,.07c-3.55-.39-7.14-.72-10.62-1.45C1855.19,144.57,1853.72,143.4,1850.17,141.57Z"/><path class="cls-78" d="M1943,167.07l-6-.77-1.88-3.69Z"/><path class="cls-3" d="M1851.57,164.91l1.59-.82,2.6-2.3,1-.62c-1,2.66-2,5.32-3.32,8.78C1852.65,167.87,1852.11,166.39,1851.57,164.91Z"/><path class="cls-3" d="M1840.44,170c-.3-1-.61-1.93-.91-2.9l5.21,2.1Z"/><path class="cls-3" d="M1848.93,162.71l1.86,2.07-3,1.93C1848.16,165.38,1848.54,164,1848.93,162.71Z"/><path class="cls-13" d="M1777.16,129.42l6.91.55Z"/><path class="cls-3" d="M1819.93,167.91l-3.82-.83,1.29-.74Z"/><path class="cls-3" d="M1824.18,169.43l-3.48-.82Z"/><path class="cls-41" d="M1884.9,168.69l3.42,0Z"/><path class="cls-53" d="M497.93,141.92l9.29-1.55,5.29-2.89a24.64,24.64,0,0,1,5.19-1.24c1.15,0,2.34.89,3.51,1.38a9.93,9.93,0,0,0-2.88.91c-.5.34-.41,1.31-.58,2l-.91.77-11.18,3Z"/><path class="cls-79" d="M512.57,159.6l3.37-2.22,5.11,2.29-6,2.14.09.05-2.63-2.26Z"/><path class="cls-73" d="M515.07,161.81l6-2.14,3,3.38a19.88,19.88,0,0,1-3.77.08A53.74,53.74,0,0,1,515.07,161.81Z"/><path class="cls-74" d="M506.48,168.42c-2.61-.21-5.22-.4-7.83-.67a4.9,4.9,0,0,1-.08-1.16h8C506.55,167.2,506.51,167.81,506.48,168.42Z"/><path class="cls-53" d="M491.39,142l6.63-.1Z"/><path class="cls-73" d="M512.53,159.6l2.63,2.26Z"/><path class="cls-5" d="M609.85,144.23,616,147Z"/><path class="cls-5" d="M615.9,147l5.94,3.05Z"/><path class="cls-60" d="M2189.06,79.78l-3.82-7.41,5.77,2.2,1.54-3.6h0l3.4-1.5c2.3.75,4.6,1.52,6.9,2.25.73.23,1.49.4,2.23.59,1.46-6.21,4.62-.44,6.92-.74q1,2.24,2,4.47l-17.15,2.29-7.71,1.47Z"/><path class="cls-80" d="M2214,76q-1-2.24-2-4.47l.91-.73,8.68-1.37,3.76,4.17a48.27,48.27,0,0,1-5.89,2A34.43,34.43,0,0,1,2214,76Z"/><path class="cls-22" d="M2189.09,79.8l7.71-1.47Z"/><path class="cls-80" d="M1973.72,167.78a122,122,0,0,0-12.17-2.59c-1.52-.18-3.25,1.4-5,1.94a28.48,28.48,0,0,1-4.18.69l-2.87-5.52c2.81.2,5.62.53,8.43.58,4,.07,8.07-.27,12.08,0,2.44.15,4.82,1.07,7.22,1.64Z"/><path class="cls-21" d="M1952.31,150.93l3.44.7-4.21,2.15h0l-7-.89-.13-1Z"/><path class="cls-36" d="M1345.6,161.41l-2.3-.38-5.76-3.55c6.61,1.32,11.33,2.51,10.69-3.78l3.42-1.35c1.3.66,2.56,1.81,3.9,1.87,1.53.07,3.12-.83,4.68-1.3l.73.14c-3.38,2.41-6.62,5-10.18,7.15C1349.41,161.05,1347.35,161,1345.6,161.41Z"/><path class="cls-63" d="M1236.3,164.85l-13.45-2.67,15-1.71Z"/><path class="cls-56" d="M750.92,155.92l-10-3-1-1.2,1.54-1Z"/><path class="cls-81" d="M766.16,151.61l-12.62-.77h0l4.13-.32,1.79.07,6,1,.36.05Z"/><path class="cls-34" d="M2198.47,167c-1.54,1-3.15,2.81-4.61,2.72-11.26-.66-22.49-1.7-33.73-2.63l-1.07-1-.35.43,1.42.52-6.33.14c.09-.85.19-1.69.29-2.54a42.53,42.53,0,0,1,6-.44c12.8.87,25.6,1.86,38.39,2.81Z"/><path class="cls-82" d="M2154.09,164.72c-.1.85-.2,1.69-.29,2.54-2.92.05-6.07-.49-8.73.26-6.93,2-11.15-1.6-15.64-4.92l6.69-1.39,1.62,0,5.13.89Z"/><path class="cls-34" d="M2198.52,167.09c4.37-.3,8.74-.65,13.12-.76.2,0,.48,2.14.73,3.29-1.1-.12-2.22-.15-3.29-.36-3.55-.71-7.07-1.48-10.61-2.23Z"/><path class="cls-52" d="M2142.87,162.12l-5.13-.89Z"/><path class="cls-27" d="M1102.05,155.28l10.19-5.05,1,2-11.12,3.13Z"/><path class="cls-12" d="M2170.25,158.87c.08-.93.17-1.85.26-2.78a14.21,14.21,0,0,0,2.74,1.15c3.27.65,6.58,1.17,9.88,1.74Z"/><path class="cls-9" d="M2236.89,158.27l13.75-.08Z"/><path class="cls-1" d="M1693.53,161.15l1,.66-11.31-.64,3.5-5.89Z"/><path class="cls-11" d="M2233.55,122l-4.65,1c-.16-.33-.31-.67-.47-1l3.37-1.47Z"/><path class="cls-69" d="M609,169c.12.21.37.48.3.58s-.45.24-.69.35c0-.21-.17-.43-.12-.62S608.81,169.06,609,169Z"/><path class="cls-46" d="M151,79.82a2.24,2.24,0,0,0,.08-.72c-.59-2.46,1.11-6.42,3.38-7,1.1-.28,2.56.22,3.77.59,1.88.56,3.69,1.32,5.53,2l14.61,6.64,8.59,2.1c-1.41,1.43-2.57,3.18-4.29,4.21-1.93,1.16-4.37,1.67-6.58,2.47a32.14,32.14,0,0,0,2.52-3.77c.25-.51-.14-1.81-.55-1.93-7.22-2.05-14.4-4.39-21.81-5.64-2-.34-4.74,2.72-7.21,4.14-.49.29-1.27.19-3.2.42C148.24,81.71,149.63,80.76,151,79.82Z"/><path class="cls-83" d="M178.36,53.3c4.21.53,8.45.93,12.6,1.67,1.33.23,2.45,1.37,3.66,2.09l-4.27,1.37-1.7,0c-4-.13-8-.3-12-.37-1.73,0-3.48.33-5.18.16-.41,0-.64-1.49-1-2.29,1.5-.3,3-.55,4.47-.92a9.46,9.46,0,0,0,1.83-.91Z"/><path class="cls-63" d="M145.13,40.56l-3.51-2.86-1.52-1a10.2,10.2,0,0,1,1.47-1c7.45,6,17,1.68,24,3.46-1.22,1.58-2.45,3.35-3.93,4.95-.32.34-1.6.18-2.37,0-3.93-.87-7.83-1.82-11.74-2.74Z"/><path class="cls-82" d="M192.25,82.86l.8-.54,5,.37,8.2,5.41L204,91Z"/><path class="cls-84" d="M222.86,39.82l-1.53-.7c6.4-1.69,14.34,1.18,14.27,5.15L225.46,45a4,4,0,0,1-.05-.69l.9-.62,2.23-1.79Z"/><path class="cls-9" d="M210.93,69.52l10.49,4-.38.7-11.6-3.41Z"/><path class="cls-30" d="M183.5,76.19l-8.43-2.31L181,73l.1.09Z"/><path class="cls-7" d="M235.6,44.27c.07-4-7.87-6.84-14.27-5.15l-7.21-2.72,19.43-1.5c-2.55-.45-3.84-.81-5.14-.89-5.74-.34-11.5-.47-17.21-1-1.22-.11-2.32-1.54-3.39-2.44-3.48-2.94-6.8-6-10.46-8.79-.64-.48-2.57.44-3.91.46a16,16,0,0,1-4.38-.44c-.7-.19-1.74-1.3-1.58-1.68a54.58,54.58,0,0,1,2.86-5.45c2.15-.72,4.42-2.26,6.43-2,9.22,1,18.58,1.93,27.47,4.13,6.27,1.55,5.4-2.86,7.12-4.88.61-.71-1.09-2.89-1.74-4.4,4.93-.51,10.09-.44,14.71-1.76,2.92-.83,5-3.75,7.54-5.73a20.8,20.8,0,0,1,2.58,3.13c1,1.87,1.77,3.86,2.62,5.79L256,10.23l-.69,1.56-3.69,3.58c1.66.43,3.34.84,5,1.31.78.23,1.52.57,2.27.87.36,5.74,4.72,8.05,10.72,6.16l-2.54-5c4,.43,8.08.69,12,1.4,1.26.22,2.45,1.51,3.26,2.56.51.66.24,1.76.32,2.66,1.48-.46,3-.87,4.43-1.4,1.09-.41,2-1.29,3.15-1.43,4-.48,8-.74,12-1.09.8.69,1.64,2,2.39,1.94A28.42,28.42,0,0,0,310,22.14l22.25,1.53c-.28-1.24-1.53-3.3-.82-4.16,4.85-5.93,7.57,1.15,11.43,1.75,1.12.18,1.93,1.8,2.89,2.77,2.11-.24,5-.44,7.78-.91,2.53-.43,5-1.14,7.49-1.73.33,1.37.58,3.89,1,3.91,3.94.22,7.92,0,11.89-.15a3.25,3.25,0,0,0,0-1.64c-.72-1.71-1.59-3.38-2.41-5.07l.05,0c.14-1.89.29-3.79.5-6.38l-3.21-1.51c-.31-.8-.63-1.61-1-2.41l-5.85-2.36,11.32-.77,2.45.79c2.88,1.7,4.74,7.57,9.48,1.74a14.4,14.4,0,0,1,1.47-1.65h9.5l-3.45,3.5.24.34-5.19,6.51L383.74,19c1.3,4.51,1.15,10.89,10,8.3l8.92.19c-.73-1.27-1.49-2.54-2.19-3.83-.08-.16.15-.45.23-.68l7.54-3,.06,5.16-1,2.84c1.17.28,2.66,1.09,3.45.74,2.72-1.23,5.2-2.86,7.77-4.34.24.05.49.1.73.13.89,1.71,1.56,4.75,2.72,4.9,6.79.88,13.7,1.08,20.58,1.51l9.39.8c5.41,2.77,10.51,5.2,15,9.86,3.8,4,13.17,4,20.07,5.76l-11,2.13c-6.61-.74-13.29-1.18-19.83-2.28C445,45.3,434,43,422.91,40.84c-2.16-.43-4.18-1.41-6.35-1.77a19.1,19.1,0,0,0-4.49.28l1.1,3.38c3.45-2.62,1.53,7.65,6.64,2.05.83-.91,4.36-.64,6.22,0,2.65.9,4.92,2.64,7.35,4l-4.79,2.4c7.71,1.11,15,2,22.18,3.26,7,1.23,14,2.65,20.92,4.4,1.45.37,2.29,2.52,3.41,3.85L472,63c1.8,7.53,9.15,2.38,13.42,4.37,1.6.74,3.24,1.39,4.87,2.08l0,.8c-6.39-.27-12.77-.62-19.16-.73-1.27,0-2.56.83-3.83,1.29L451.92,65.9,450.51,65l.45,1.53,3.53,1.36,2.42,3.22-3.36,1.36c-3.67-1.85-7.31-3.73-11.05-5.47-.24-.11-1.33.83-1.74,1.43-.25.36.09,1.45.12,1.45,4.52-.19,7.09,6.91,12.68,2.58l2.6,1.44c-.72.85-2.26,2.11-2,2.49,1.66,2.53,3,6.1,7.79,3.38l2.69-.66c2.94-.48,5.9-.91,8.82-1.47,2.21-.42,4.39-1,6.58-1.49v.72l2.56,3.72c.29.74.57,1.47.85,2.21l-.82.78-5.18.74-2.56-2.25,3.76-.9c-.45-.43-1-1.29-1.34-1.22a37.42,37.42,0,0,0-4.11,1.38l-1.68,1.49L463.79,85c0,4,2.87,3.67,6,3l-.9,4.43-5.93.75-2.56.75L455.3,91.5l-5.19-4.28-8.45-1.5-1.72,1.48a20.41,20.41,0,0,0-3.75-.58c-2.3.08-4.6.41-6.9.64,1.48,1.22,3.46,2.22,4.32,3.71,1,1.76,1.85,5.52,1.41,5.68-3.76,1.4-5.17,8.3-11.43,4l.05-.11c.33-.51.65-1,1-1.54l4.6-1.18-6.4-6.56-3.46,3.35-1.71-.74c-.27-.5-.54-1-.82-1.49,1.94-1.9,3.92-3.78,5.81-5.71a18.1,18.1,0,0,0,2.26-2.86c.13-.2-.5-.76-.77-1.15a20.15,20.15,0,0,1-2.73,1.67c-.84.36-2.08.8-2.73.51s-1.09-1.41-1.55-2.19c-1.11-1.88-1.73-4.89-3.41-5.43-2.91-.93-6.48-.33-9.77-.37l-6-.71c-.26-1-.51-2-.77-3l2.61-1.42L405.71,74l1.57,1.58c0-.52,0-1.05.05-1.57L409,72.59l1.76.56,7,1.72a38.88,38.88,0,0,1-1-5.34c0-.38,1.55-1.3,2-1.14,1.22.47,3.09,1.3,3.17,2.09.31,3.33,1.38,4.36,5.87,5.28a7.44,7.44,0,0,1,4.2,2.16c3.33,4.57,7.34,7.73,14.12,6.85.91-.12,1.86-.06,2.79-.09-.2-.91,0-2.15-.66-2.67-5.93-4.91-12.06-9.65-18-14.56a15.62,15.62,0,0,1-2.86-3.91c-.12-.19.47-.72.73-1.09,1,.63,1.93,1.29,2.94,1.88a13.26,13.26,0,0,0,1.72.73,6.3,6.3,0,0,0,.42-2,37.63,37.63,0,0,0-1-4.07c-3.18-1.68-7.79,4.13-12.39-1.16-1.5-1.72-8.91.1-13.52.8-3.39.51-6.62,1.82-9.92,2.77l4.24-2.23-.9-1.55c-3.62-.8-7.22-1.8-10.9-2.25-.71-.09-1.78,2-2.68,3-5.76-.71-11.5-1.59-17.29-2.08-4.73-.39-7.52,1.18-5.85,5.84l-7.72-4.06c1.66,1.4,3.35,2.77,4.95,4.22a6.22,6.22,0,0,1,1,1.61l2-1.08c7.68.06,7.66.07,12.26,5.58.26.31,1.31.06,1.95.19,4.66,1,9.32,1.92,13.94,3,.15,0,.26,1.43-.06,1.62-5.33,3.19-1.1,4,1.68,5.14l-10.3,0c-1.13,1.24-2.27,2.47-3.41,3.71q-.87-2.19-1.76-4.38c0-.43.05-.85.08-1.28l-1.66.39c0,1,0,2-.07,3-.3.54-.61,1.08-.92,1.62l1.67.59c.23.52.45,1,.68,1.57L374,83.52l-.75,4.5-1.83,1.26a21,21,0,0,0-2.69-3.19c-1.79-1.46-4.14-2.57.59-3.35.4-.07-.24-4.8-.39-7.36l3.23-2.85,3,.3c-.05-.34-.1-.68-.14-1l-2.94.71c-4.94-2.71-9.13-2.11-12.5,2.12-3.45-1.46-8.52-2.15-10-4.53-3.59-5.61-7.84-4-13-3-2.2.41-4.85-1.16-7.34-1.64a12.93,12.93,0,0,0-3.26.18c.37.74.8,1.46,1.1,2.22s.45,1.55.67,2.33c-.83-.25-1.65-.53-2.5-.72-2-.45-4-.84-6.06-1.27-1.1-.24-2.45-.25-3.23-.82-4.24-3.12-4.76-3.09-8.54,1.25l-5.85-1.23-7-.86c-2.81-1.11-7,2.16-8.95-2.32-.53-1.19-3.25-1.66-5-2.46.15.59.29,1.18.44,1.77-3,5.06-5.73,2.11-8.27-.34a3.23,3.23,0,0,1-.67-2.45,12.11,12.11,0,0,1,1-2.86,33.2,33.2,0,0,0-4.54.95c-.33.11-.2,1.33-.19,2,0,.34.4.88.25,1-2.17,1.84-4.08,4.49-6.69,5.2-2.9.79-6.45-.26-9.72-.39-2.71-.1-5.42,0-8.14,0L239,66.44c4.82-.86,9.65-1.69,14.45-2.61a5,5,0,0,0,2.46-1.1c.23-.23-.65-1.2-.82-1.87-1.22-4.8-5.94-4.7-10.07-5.43-3-3.71-1.7-5.94,3.34-5.37,4.75.53,9.27,2.62,14,3.12,4.55.48,9.28-.39,13.91-.27,1.78.05,3.59,1.07,5.27,1.85,2.22,1,4.22,2.52,6.56,3.19.46.13,2-2.59,3.05-4a48.75,48.75,0,0,0,4.14,2.69c3.82-3.64,4.4-1.55,4.73,1.76,0,.41,2,1.18,2.63,1,2.07-.76,3.94-1.91,8.18-4.08C303.38,54,297.86,53,292.37,52a6.88,6.88,0,0,1-2-1.2,79.48,79.48,0,0,0-9.12-5.17c-.75-.32-2.7,1.56-4.16,2.34-.66.35-1.75.91-2.16.69C269.55,45.81,264.3,42.88,259,40a3.35,3.35,0,0,0-1.38-.46,2.82,2.82,0,0,0-.78,1.57c.17,6.24-3.81,8.49-12.25,6l7.52-1.8ZM456.11,83.5l-3.56,2.35,7.92,1.9-1.82-4.23-3.39-1.16ZM348.55,64.17l10.1,2.39,4,.49c-4.27-3-7.84-8-14.26-3.48l-2.32-1.51-.46.72,2.82.76C348.5,63.75,348.52,64,348.55,64.17Zm-24.22-22-12.71-1.58c-.11.56-.21,1.13-.31,1.69l18.05,3.41c.14-.56.28-1.13.41-1.69l-3.58-1c5.17-3.55,6.91-6.61-1.52-8.31a30.57,30.57,0,0,1-2.95-.93c.7.75,1.34,1.55,2.11,2.25s1.88,1.52,2.82,2.28l-3.41.71ZM343.15,57l24.11-3.14c.07-.29.13-.58.19-.87l-12.19-2h0c-6.75-1-13.47-2.18-20.26-2.79-2-.18-4.28,1.29-6.43,2,4.86,5.07-1.79,3.12-3.44,4.14a19.38,19.38,0,0,1-3.28,1.25l-8.12,1.06,6.84,2.77,3.68,1.49V57a8.22,8.22,0,0,0,2.19,1.11c4.21.71,8.46,1.23,12.66,2a34.19,34.19,0,0,1,4.48,1.41l-2.88-3ZM442,59.89a11.87,11.87,0,0,0,2.7-.29c.59-.17.95-1,1.41-1.48-2.11-1-4.11-2.47-6.38-3-.93-.2-2.43,1.63-3.68,2.54l6.67,6.39C442.54,62.8,442.32,61.51,442,59.89ZM316.9,47.29l-5,3.37c.71.51,1.56,1.55,2.11,1.45,3.54-.68,7-1.62,10.5-2.47ZM458,61.6c-2.73-1.1-4.18-1.8-5.73-2.24-.6-.17-1.43.28-2.16.45A41.58,41.58,0,0,0,454.36,63C454.71,63.21,455.82,62.47,458,61.6Zm-6.4,15.48c-.68,1.08-1.45,1.77-1.43,2.45,0,.48,1.09,1,1.69,1.42.46-.65,1.21-1.27,1.31-2C453.21,78.52,452.35,78,451.58,77.08Zm13.85-17-.66,1c1.19.55,2.37,1.11,3.59,1.6a10.21,10.21,0,0,0,.74-1.06ZM428.65,92.43a3,3,0,0,0-.12,1c0,.17.36.28.56.41.19-.22.58-.5.53-.65S429.13,92.82,428.65,92.43ZM447,76l-1.15-.29c0,.18-.15.44-.06.52a1.11,1.11,0,0,0,.71.24C446.65,76.51,446.79,76.26,447,76Z"/><path class="cls-4" d="M239,66.44l5.11.17c3.6,1.81,4.54,8.06,11.13,5,.07,0,1.18,1,1.12,1.52-.15,1.28-.23,3.19-1.15,3.65-1.85,1-4.25,1.11-6.42,1.59a29.38,29.38,0,0,1,3.11,3.44,13.84,13.84,0,0,1,1.2,3.3c-1.11-.58-2.27-1.09-3.32-1.74-3.79-2.36-7.55-4.77-10.92-6.9-.16,0,.56,0,1.28,0l6.91.41a67.89,67.89,0,0,1-4.82-5.1A49.75,49.75,0,0,1,239,66.44Z"/><path class="cls-4" d="M230.75,79.4c2.94,4.83,8.08,1.56,12.78,1.89.87.06,2.49,3.63,1.91,5-.75,1.79-3.23,3.14-5.23,4.36a3.58,3.58,0,0,1-3.08-.61C234.84,86.58,232.85,83,230.75,79.4Z"/><path class="cls-33" d="M262.49,69.8c4.6,2.81,7.8,4.71,10.9,6.72.33.21.35,1.45.09,1.57-1.73.83-3.57,1.49-5,2L270.92,84c-.72.28-1.85,1-2.1.77-2.2-1.68-4.25-3.51-6.34-5.3,1-.67,2.28-1.19,2.91-2.07.4-.54,0-1.65-.35-2.43C264.51,73.63,263.78,72.37,262.49,69.8Z"/><path class="cls-85" d="M281.11,63.49c-.15-.59-.29-1.18-.44-1.77,1.72.8,4.44,1.27,5,2.46,2,4.48,6.14,1.21,8.95,2.32l2.49,2.92h0l-6.79.18C286,69,281.27,68.76,281.11,63.49Z"/><path class="cls-9" d="M218.06,66.74l7.15,4.07c-.71.23-1.56.8-2.12.64-2.85-.83-5.64-1.84-8.45-2.79Z"/><path class="cls-25" d="M289.41,90.94c-1.79-2.43-3.64-4.83-5.31-7.33-.3-.46.13-1.28.22-1.94.59.42,1.47.75,1.72,1.29,1.19,2.64,2.22,5.33,3.3,8Z"/><path class="cls-14" d="M221.13,106.49l-1.6-1c.43-.2,1.07-.68,1.27-.57a14.68,14.68,0,0,1,2,1.55Z"/><path class="cls-46" d="M143.47,78.91,145,76.14Z"/><path class="cls-46" d="M159.42,80.47c-.23.28-.39.6-.5.58a4.59,4.59,0,0,1-1-.33c.13-.18.26-.5.4-.5A4.8,4.8,0,0,1,159.42,80.47Z"/><path class="cls-86" d="M162.09,102.72v1l-.65-.28.73-.69Z"/><path class="cls-87" d="M491.16,122l9.56.8c9.93,2.75,19.84,3.89,30.36,2,4.34-.77,9.31.94,13.95,1.74.61.11.92,1.54,2.46,4.33h6.86l-4.24,3-10.25-.08-6,.1-3.36,1.27c-4.88-1.43-10.24-2.22-14.48-4.53-2.59-1.41-3.63-2-4.75.38-.24.52,1.87,1.86,2.9,2.83-.57,1.21-1.13,2.43-1.69,3.65l-5.29,2.89-4.12-2.12L507,137a23.33,23.33,0,0,0-3.17-1.84,34.9,34.9,0,0,0-5.18-1.59,35.36,35.36,0,0,0-4.15-.48l-.55,4.27-2.74-.61-3.46-5.81,2.37-2.94L499,130.2Z"/><path class="cls-14" d="M372.17,72.53l-3.23,2.85-9.32-.74c3.37-4.23,7.56-4.83,12.5-2.12Z"/><path class="cls-85" d="M301.59,67.36l5.85,1.23c.6,1,1.19,2,1.78,3Z"/><path class="cls-88" d="M327.7,74.62l4.76.29c-.15.4-.28,1.14-.46,1.15-1.45.09-2.92,0-4.37,0Z"/><path class="cls-45" d="M146.23,54.88c-3.08.12-4.86.29-6.61.22a14.7,14.7,0,0,1-3-.74,14.11,14.11,0,0,1,1.44-3.62c.19-.26,2,.46,3.1.53,2.6.19,5.21.25,7.82.39.62,0,1.24.16,1.85.24-.1.56,0,1.26-.35,1.65a4.86,4.86,0,0,1-2.38,1.74A2.83,2.83,0,0,1,146.23,54.88Z"/><path class="cls-85" d="M124.76,57c-1-1.27-2.14-2.09-2.08-2.83.09-1,1.13-1.88,1.76-2.82l3.42,3.31Z"/><path class="cls-23" d="M104,60.46,98.9,59.15l9.5-4.08Z"/><path class="cls-23" d="M96.54,59.22l-1.89-.11Z"/><path class="cls-63" d="M133,75.28l4.29,3.47-8.88.86L133,75.35Z"/><path class="cls-69" d="M133.15,80.7l2.23,2A9.68,9.68,0,0,1,132.93,84c-.47.11-1.17-.57-1.77-.9Z"/><path class="cls-85" d="M54.5,55.26l6.75.68c-.54.84-1.08,1.68-1.63,2.52Z"/><path class="cls-22" d="M150.41,88.67l4,.81Z"/><path class="cls-2" d="M1227.75,121.94l-1.61,1.46L1227,125l-10.44,1-.17-2h4.87c0-.31,0-.62,0-.94l-5.59-.32c1.63-1.09,3.9-1.93,4.64-3.36.41-.79-1.78-2.57-2.8-3.9l3.4-.78,3.41,1.48,5,.87c.06,1,.13,2.27.2,3.55Z"/><path class="cls-29" d="M1170.33,87.31l3.58,5.13-1.64-.08c-4.1-1.22-8.23-2.37-12.27-3.72a13.65,13.65,0,0,1-3.13-2.13Z"/><path class="cls-2" d="M1204.16,131c.14,1.53.65,2.69.2,3.38-.74,1.11-2.4,2.83-3.16,2.65-1.91-.45-3.53-1.82-5.26-2.82.68-.66,1.22-1.7,2.06-1.93C1200.48,131.63,1203.07,131.26,1204.16,131Z"/><path class="cls-76" d="M1048.21,93.1c5.61.18,11.23.32,16.83.62.63,0,1.79,1.08,1.68,1.44-.2.69-1.21,1.8-1.73,1.74-5.84-.66-11.65-1.51-17.47-2.32Z"/><path class="cls-43" d="M1217.51,115.37c1,1.33,3.21,3.11,2.8,3.9-.74,1.43-3,2.27-4.64,3.36l-3-.79a3.71,3.71,0,0,0-.28-.61l-.83-2.24,5-2.95Z"/><path class="cls-2" d="M1255.17,125l-8.59.61c0-.24,0-.48,0-.72l2.57-3c2,.27,3.94.45,5.84.9C1255.23,122.92,1255.1,124.28,1255.17,125Z"/><path class="cls-76" d="M1038.14,93.08l0-1.35c3.49-2.55,6.22-1.68,8.46,1.41l-1.79.69Z"/><path class="cls-89" d="M1173.07,111.61c-.13-.94-.25-1.89-.38-2.84l6.35.63Z"/><path class="cls-90" d="M1051.68,89.43l.88-.76,5.44,2.07a20.63,20.63,0,0,1-4.69,1C1052.78,91.77,1052.23,90.25,1051.68,89.43Z"/><path class="cls-47" d="M1134.7,85.85l11.91,3.6Z"/><path class="cls-5" d="M924.4,107.92l.87-1.49Z"/><path class="cls-91" d="M789.27,116c-5.64.52-11.27,1.1-16.92,1.5-.88.06-1.83-.73-2.74-1.12a9,9,0,0,0,2.43-.75c.57-.38,1.26-1.53,1.09-1.69a26.9,26.9,0,0,0-3.25-2.34Z"/><path class="cls-43" d="M849.23,115.3l-.74-.29.31-.29.37.62Z"/><path class="cls-5" d="M718.44,115.33c.81,1,1.36,2.52,2.47,3,6.5,2.6,13.16,4.9,19.7,7.42a12,12,0,0,1,2.71,2c-7.28.81-14.2.79-20.59-3.38-1.91-1.24-5.46-.5-8.23-.87-8.11-1.09-16.23-2.15-24.29-3.49-2.4-.39-4.55-2.17-6.93-2.37-2.64-.23-5.41.63-8.12,1l4,4.08-6,0c-1.56-2.06.75-6.66-5.14-5.88l-9-4,4.16-.24-8-5.45-9.19,1.44-18.78-5.65.54-1.8c6,1.23,11.92,2.54,17.92,3.64a18,18,0,0,0,4.42-.27l1.81-.57-5.22-1.26,8.88-1.2-1.19,2.74,12.77,4.4.51-1.06-3.87-2c4.26,1.14,8.61,2.09,12.74,3.52,2.19.75,4,2.33,6,3.53l2-2.34-3.87-1.43,1.11-1.31,17.7,7.26.51-1.24c1.53.2,3.06.37,4.58.61,1,.17,2,.45,3,.68a31.67,31.67,0,0,0-1-3c-.81-1.9-1.73-3.76-2.6-5.64,1.8,1.24,3.53,2.55,5.42,3.68a16.5,16.5,0,0,0,3.13,1.1Z"/><path class="cls-31" d="M1365.2,130.81c-7.71,1.72-14.36,4.58-15.91,12.85-.9-.87-.77-.61-.56-.56,1.89.52,3.8,1,5.7,1.49a46,46,0,0,1-6.31,1.16q-12.51.6-25,.85c-1.17,0-2.36-.81-3.54-1.25a10.25,10.25,0,0,1,3-1.15c5.46-.24,11.19.48,16.31-.75,2.68-.65,4.3-4.61,6.4-7.07l-3.94-2.47c-.25-1.24-.51-2.49-.76-3.74a20.41,20.41,0,0,0,1.27-4.59c.05-.83-1-1.71-1.57-2.57a55.58,55.58,0,0,1,6.61.57c.75.15,1.91,1.49,1.74,2-2.32,7.83,4.78,5.26,8.67,5.74C1359.87,131.67,1362.57,131,1365.2,130.81Z"/><path class="cls-56" d="M1363.51,122.18l6,7.09c-4.53-1.38-9.11-2.65-13.56-4.23-.83-.29-1.1-1.77-1.63-2.7a15.62,15.62,0,0,1,3.8-.93A39.18,39.18,0,0,1,1363.51,122.18Z"/><path class="cls-70" d="M1327.86,135.3l-6.95.78-3.75-3.66c2.21-.66,4.41-1.33,6.63-1.95.13,0,.39.28.59.43C1318.64,136.44,1328.51,132.76,1327.86,135.3Z"/><path class="cls-92" d="M1210.65,87.27l6-2.3a3.88,3.88,0,0,1,.26.31c0,.63-.11,1.26-.16,1.88l-.11.11c-.9,1-1.59,2.39-2.77,2.85-1.73.68-3.81.68-7.13,1.18Z"/><path class="cls-93" d="M1259.35,89.43l-.45,2.6c-.91-.22-1.84-.42-2.74-.67-1.17-.33-2.32-.71-3.48-1.06l-.31-.29.89-2,6.13,1.42Z"/><path class="cls-94" d="M1340.6,130.17c.25,1.25.51,2.5.76,3.74l-3.57-1.25Z"/><path class="cls-95" d="M1385.84,133.05l11.08,10.34c-9.08.77-17.83.71-25.89-4.14-2.64-1.59-6.64-1.47-8.61-1.85,3.66-1.2,8.28-2.72,12.94-4.17a1.68,1.68,0,0,1,1.35.47C1380.24,138.33,1383.14,136.86,1385.84,133.05Z"/><path class="cls-10" d="M1360.23,152.92c-1.56.47-3.15,1.37-4.68,1.3-1.34-.06-2.6-1.21-3.9-1.87Z"/><path class="cls-10" d="M1372.2,152.25l-7.71,0Z"/><path class="cls-2" d="M1299.53,138.5c-1.2.38-1.88.82-2.35.7a6.08,6.08,0,0,1-1.72-1.2c.54-.29,1.13-.85,1.61-.8A9.25,9.25,0,0,1,1299.53,138.5Z"/><path class="cls-61" d="M1665.89,122.54c2.33-2.4,3.95-4.8.24-7.41-.12-.08,1-2,1.37-2,4.1.64,8.16,1.48,12.24,2.27.51,4.36-1.07,7-6.83,6.54-.44,0-1,.9-1.48,1.38Z"/><path class="cls-52" d="M1592.57,116.74c.08-1.68.08-3.35.27-5s.56-3,.85-4.48l9.49,3.12c-1,1.86-2.17,3.69-3,5.6a34.92,34.92,0,0,0-1.43,4.45Z"/><path class="cls-96" d="M1620.59,134.41l-10,.11-6.85-3.28c2.92.12,5.92-.09,8.74.44S1617.9,133.47,1620.59,134.41Z"/><path class="cls-1" d="M1605.47,136l-.8.67-3.49,1.53-3.43-2.19Z"/><path class="cls-1" d="M1596.1,134.94a3.7,3.7,0,0,1-.63-.94c0-.12.37-.47.51-.45a4,4,0,0,1,.93.46Z"/><path class="cls-10" d="M1601.18,138.24l3.49-1.53Z"/><path class="cls-15" d="M2041.28,86.52l23-1.48c5.19-.06,10.38,0,15.56-.22,7.76-.27,15.52-.69,23.27-1a8.84,8.84,0,0,0,1.62,0c2.47-8.58,11.71-3.26,16.89-6.18,1.64.26,3.27.58,4.91.77,1.32.15,2.66.14,4,.2l-3-2.42c3.22-.35,6.44-.92,9.66-1,1.82,0,3.65.77,5.75,1.25-8.14,6.24,3.32,8.52,3.76,13L2133,87.2l7.6,6-8.06,3.51c-3.54-5.1-10.67-6.55-16.66-3.67l2.43,3-6.14-.61c-5-.38-10-.71-15-1.14-4.36-.36-8.73-1.28-13.06-1.1-3.11.13-6.09,1.9-9.23,2.48-2,.37-4.16-.1-6.25-.19l-15.39-2.31-2.65-2.16-5.91-3-1.8,2.33-4.25-3Zm69.61-5.34c-2,2.16-3.51,3.72-4.88,5.36-.1.13.8,1.28,1.18,1.26a149.28,149.28,0,0,0,15.73-1.15c2-.32,3.6-2.41,5.47-3.59a12.74,12.74,0,0,1,2.49-1,11.44,11.44,0,0,0-3-.88C2122.47,81.14,2117,81.18,2110.89,81.18Z"/><path class="cls-62" d="M2172.9,78.59a9.61,9.61,0,0,0,1.87,2.09,28.86,28.86,0,0,0,3.73,1.71,39.5,39.5,0,0,1-4,1.81c-3.71,1.21-7.81,1.8-11.14,3.53-6.23,3.24-10.05-1-14.65-2.87-.36-.14-.46-1.69,0-2.21,1.25-1.57,2.52-3.62,4.35-4.22,1.64-.54,4,.81,6.07.92,1.12.06,2.32-.7,3.47-1.13,3-1.15,6-2.46,9.16-3.34.43-.12,1.64,1.89,2.49,2.91Z"/><path class="cls-66" d="M2112.19,95.36l6.14.61-2.43-3c6-2.88,13.12-1.43,16.66,3.67l-21.86,5.26c-.06-.74-.11-1.48-.17-2.22C2111.09,98.25,2111.64,96.8,2112.19,95.36Z"/><path class="cls-15" d="M2110.53,99.7c.06.74.11,1.48.17,2.22l-1.91-2.87Z"/><path class="cls-51" d="M2053.24,93.1l15.39,2.31c-.67,1.85-1.64,5.35-2,5.31a90.4,90.4,0,0,1-13.71-3C2052.49,97.62,2053.12,94.72,2053.24,93.1Z"/><path class="cls-97" d="M1942,118.5c8.22,1.59,16.41,3.35,24.69,4.64,2.2.35,4.7-.72,7.06-1.13l4.26,1.51-12.64,2,.15,1.58h10.83c1.65,1.88,3.31,3.76,5,5.65.92,1.06,1.82,2.12,2.73,3.19-.21.85-.41,1.71-1,4.45-9.17,2-18.58-4.24-28.85-6.64l5.05-4.36-1.61-.75-1.46-.07-2.58-3.2.54,2.48-.76.64c-2.48-4.87-6.76-6.73-12.75-5.74-4.07.22-8.18.84-12.16.47-1.61-.15-3-2.47-4.42-3.8a31.91,31.91,0,0,1,5-.91C1933.29,118.42,1937.64,118.51,1942,118.5Zm28.18,12a81.51,81.51,0,0,0,4.45,8.21c.27.4,2.37.05,3.5-.28a2,2,0,0,0,.19-2C1976.32,134.77,1974.13,133.32,1970.16,130.49Z"/><path class="cls-59" d="M1839.7,131.52c-3.36-1.25-6.67-2.63-10.1-3.72-2.39-.76-5.29-.67-7.36-1.79-3-1.62-5.5-4.18-7.33.81a1.84,1.84,0,0,1-1.4.14c-5.06-4.69-11.32-5.59-18.25-4.48-2-1.14-3.94-3.12-6-3.28-5.92-.45-11.92-.16-17.9-.16l-.17-.17c1.65-.88,3.3-2.55,4.94-2.53,12.56.11,25.11.73,37.67.85,11.5.11,23-.21,34.49-.35l-.15,2.82c-1.41-.35-2.88-1.1-4.21-1-1.51.17-2.9,1.15-4.34,1.77.79,6.54,7.24,5.47,12,6.69l3.54,2.82,1.73,3a19.45,19.45,0,0,0-3.07-.7C1849.06,132,1844.38,131.78,1839.7,131.52Z"/><path class="cls-25" d="M1855.07,130l-3.54-2.82c.26-.09.53-.15.77-.26.07,0,.11-.27.06-.3-.69-.39-1.38-.8-2.11-1.15-3.56-1.67-7.14-3.32-10.71-5,1.44-.62,2.83-1.6,4.34-1.77,1.33-.15,2.8.6,4.21,1l6-.71h1.8l0,0c-.06,1-.11,2-.16,3h0l-3,1.31,3,.22h0c3.19.71,6.37,2,9.57,2a33.62,33.62,0,0,0,11.82-1.58c5.22-2,15.24-.56,17.11,3.21-2.38-.22-4.76-.45-7.14-.66-1-.1-2-.18-3-.27.65.9,1.24,1.83,2,2.68,1.27,1.5,2.61,2.95,3.92,4.42-1.92.75-4,2.36-5.69,2.06-2.33-.43-4.33-2.26-6.43-3.54-.28-.17-.29-.66-.47-1.13l-2.2,1.58c-2.24-4.47-5.82-2.53-9.3-1.54a2.84,2.84,0,0,1-2.32-.58C1860.82,124.4,1858,127.49,1855.07,130Z"/><path class="cls-53" d="M1894.35,127.06c-1.87-3.77-11.89-5.17-17.11-3.21a33.62,33.62,0,0,1-11.82,1.58c-3.2,0-6.38-1.28-9.57-2,12.92-1.49,25.68-5.6,39.25-3.14l1.09-2.45c.82,1.59,1.63,3.19,2.44,4.78l-.62.35.25.21.39-.53a6.6,6.6,0,0,0,1.47-1.27,34.83,34.83,0,0,0,1.58-3.18c.93,1,1.86,2.05,2.8,3.07-.27,1.22-.55,2.44-.82,3.66l0,0c-2.92,0-6.94-1-5.16,3.79Z"/><path class="cls-25" d="M1902.88,128.58l.94-.08,5.68.74,4.49.81c-2.54.69-5.06,1.83-7.62,1.88C1905.24,132,1904.05,129.77,1902.88,128.58Z"/><path class="cls-25" d="M1898.56,128.7c-1.78-4.82,2.24-3.75,5.16-3.79l-.84,3.67Z"/><path class="cls-53" d="M1908.6,138a11.31,11.31,0,0,1-2.81.84c-.58,0-1.13-.51-1.7-.79.57-.4,1.1-1.07,1.7-1.12S1907.17,137.41,1908.6,138Z"/><path class="cls-57" d="M1940.54,122.8c6-1,10.27.87,12.75,5.74-.85.56-2.25,1.74-2.47,1.6C1947.3,127.79,1943.94,125.28,1940.54,122.8Z"/><path class="cls-12" d="M1911.34,125.75l4.22-.13-1.2,3.15Z"/><path class="cls-25" d="M1903.68,124.94c.27-1.22.55-2.44.82-3.66l.85.13c.48,1.16,1,2.32,1.42,3.48Z"/><path class="cls-12" d="M1909.5,129.24l-5.68-.74Z"/><path class="cls-57" d="M1954.05,127.9l-.54-2.48,2.58,3.2Z"/><path class="cls-12" d="M1914.84,122l-2.6-.74,1.51-1.46C1914.11,120.5,1914.47,121.24,1914.84,122Z"/><path class="cls-57" d="M1957.55,128.69l1.61.75-1.42.58C1957.68,129.58,1957.61,129.13,1957.55,128.69Z"/><path class="cls-53" d="M1848.24,116.84l.74-.08,5.13,2.19-6,.71Z"/><path class="cls-53" d="M1855.77,121.92c0-1,.1-2,.16-3l5.4-.24Z"/><path class="cls-53" d="M1855.85,123.44l-3-.22,3-1.31C1855.78,122.42,1855.82,122.93,1855.85,123.44Z"/><path class="cls-53" d="M1855.91,118.94h0Z"/><path class="cls-31" d="M1976.33,127.15H1965.5l-.15-1.58,12.64-2c8.6,1.33,12.47,5.66,10.12,8.55Z"/><path class="cls-25" d="M1717.34,117.58c.67.78,1.86,1.53,1.92,2.34.6,7.9,7.52,8.86,14.34,10.14,1.32.25,2.39,1.51,3.57,2.3l-23.07-5.64,4.91-.19.06-.63c-4.48-.29-9-.47-13.44-.94-1.58-.16-3.05-1-4.58-1.56a31.17,31.17,0,0,0,4.62-1.49c1.44-.72,2.47-2.18,4-2.68A64.12,64.12,0,0,1,1717.34,117.58Z"/><path class="cls-10" d="M1699.72,132.47l4.08-.89c3.67.18,7.35.28,11,.63.4,0,.61,1.51.91,2.31-3.46-.06-6.93.06-10.35-.28C1703.43,134.05,1701.6,133.09,1699.72,132.47Z"/><path class="cls-41" d="M1855.76,161.79l-2.6,2.3Z"/><path class="cls-81" d="M2166.92,141.92c5.7-1.48,11.33-3.22,17.13-4.36,4.07-.81,8.37-.75,12.56-1.18a8,8,0,0,0,2.44-.91c-3.55-8,3.13-2.11,4.82-2.55,3.34-.85,6.84-1.23,12.29-2.14l-9.22,4.65,2.7,1.3c-4,5.9-8.68,11-17.29,11.92a2.47,2.47,0,0,0-1.24.78c-1,.88-1.86,1.82-2.78,2.73.1-1.74.09-3.5.35-5.23.16-1.1,1.16-2.22.94-3.19-.11-.51-2.83-1.2-3-1a18.38,18.38,0,0,0-1.87,3.64c-1.45,2.79-3,5.56-4.45,8.33l-9.76-6.46,1.91-2.06Z"/><path class="cls-4" d="M2152.3,140.6l-3.14-3.79c2.54-.41,5.08-.9,7.65-1.16.45-.05,1,.87,1.54,1.35l-2.27,1.36Z"/><path class="cls-4" d="M2169.31,134.57c-.2-.73-.39-1.46-.58-2.19l6.59,1.37.27-.94,7.82,1.89c0-.13.15-.41.05-.58-.85-1.41-1.74-2.79-2.62-4.18.64.1,1.51,0,1.88.36,1.63,1.47,3.12,3.07,4.66,4.62-1.58.56-3.13,1.23-4.76,1.67-2.36.63-4.77,1.1-7.17,1.64l-3.42-2.16Z"/><path class="cls-9" d="M2172,136.07l3.42,2.16Z"/><path class="cls-4" d="M2186.13,109.9l.25.19-.42.23c0-.09-.12-.2-.09-.27S2186,110,2186.13,109.9Z"/><path class="cls-4" d="M2164.65,132.21a5.11,5.11,0,0,1-1.08.23c-.1,0-.33-.55-.27-.58a4.64,4.64,0,0,1,1-.42Z"/><path class="cls-5" d="M850.07,90.2c-14.82-.59-29.63-1.24-44.45-1.77-8.58-.31-17.18-.69-25.76-.52-4.47.08-8.9,1.32-13.37,1.92-.67.09-1.45-.45-2.18-.69.73-.4,1.49-1.16,2.18-1.12,2.11.12,4.17.69,6.28.81a8.89,8.89,0,0,0,2.86-.83l-2.58-.93c-.12,0-.29.06-.42,0-6.94-1.66-13.14-.07-19.39,2.65-2.27,1-5.48.36-8.26.47l-.66-5.32c1.08.8,2,2,3.26,2.26s2.62-.54,3.73-1.17c.35-.2.1-1.38-.08-2.08-.29-1.12-.75-2.21-1.13-3.31,11.09,1.06,22.17,2.61,33.3,3,8.4.31,16.93-1.56,25.3-1.06,4.46.27,8.69,3.51,13.9,4l-4.16-2.34c.39-.27.89-.84,1.16-.76,2.88.78,5.75,1.59,8.55,2.57.82.29,1.31,1.56,2.08,1.66,5.73.7,11.5,1.22,17.25,1.79Z"/><path class="cls-5" d="M660.33,120.48c-1.94-.33-4.12-.29-5.79-1.07-3.42-1.58-6.31-4.41-9.89-5.26-8.76-2.09-17.79-3.34-28.11-5.18,1.22,1.9,1.38,2.21,1.6,2.49l4.24,5.27c-1.3-.15-3.36.08-3.77-.52a77.54,77.54,0,0,1-4.37-8c2.49-.1,5-.53,7.46-.25,9.93,1.14,19.87,2.29,29.7,3.9,3.16.52,6,2.47,9,3.84.07,0-.67,1-.64,1.56a22.67,22.67,0,0,0,.61,3.23Z"/><path class="cls-5" d="M669.75,121.87l-2.69,1.56-2.42,2.79a106.28,106.28,0,0,1-10.63-.7c-1.78-.27-3.32-1.68-5-2.58a26.56,26.56,0,0,1,4.57-1.14c4.81-.33,9.64-.47,14.47-.68Z"/><path class="cls-91" d="M456.16,73.88l-2.6-1.44h0l3.36-1.36,3.53.18c-.76-.92-1.31-2.1-2.32-2.69s-2.4-.5-3.63-.71L451,66.51l1-.61,15.34,4.89c.61,1.24,1.22,2.48,1.84,3.72-1.42-.15-2.83-.39-4.26-.45C462,74,459.05,73.93,456.16,73.88Z"/><path class="cls-5" d="M638.4,124.18l-5.3-7.93c1.31-.59,3.16-2,3.83-1.62a66.92,66.92,0,0,1,7.61,5.05Z"/><path class="cls-42" d="M490.25,70.23l0-.8A95.84,95.84,0,0,1,500,67.62c1-.09,2.16,1.39,3.25,2.15-1.17.64-2.39,1.87-3.52,1.81A95.66,95.66,0,0,1,490.25,70.23Z"/><path class="cls-53" d="M544.33,51.66c.43-.49.9-1.44,1.27-1.41,5.38.42,10.74,1,16.09,1.55.42,0,.73.82,1.09,1.26-.86.36-1.73,1-2.57,1-4.23-.18-8.45-.55-12.67-.85Z"/><path class="cls-36" d="M602.47,96.6,599.23,95l3.79-.21,18.9,5.84-8.54.43-6.92-3.18Z"/><path class="cls-98" d="M628.1,75.87c-3.55.73-7.06,1.66-10.66,2-1,.1-2.18-1.42-3.28-2.2a11.1,11.1,0,0,1,3.22-1c3.55,0,7.1.24,10.64.39Z"/><path class="cls-53" d="M508.29,61.5,495,60.84l.49-3.06,13.57,3.56A6.91,6.91,0,0,0,508.29,61.5Z"/><path class="cls-1" d="M464.63,79.09l-2.69.66-7-4.55c4.21.54,7.16.91,10.09,1.41C465.09,76.62,464.77,78.23,464.63,79.09Z"/><path class="cls-17" d="M573,89.53l4,2.38-.43.93-12.3-4.16.27-1,6.87,1.22Z"/><path class="cls-62" d="M489.46,47.18a5.45,5.45,0,0,0,.81.12l-14.33,2.16,11-2.13Z"/><path class="cls-1" d="M463.79,85l7.72-2.2Z"/><path class="cls-99" d="M645.93,108.58l9.19-1.44h.07l-2.63,1.5Z"/><path class="cls-100" d="M650.65,93l-3.11.23-4.69-2.12c.26-.51.53-1,.79-1.51Z"/><path class="cls-1" d="M473.19,81.31a37.42,37.42,0,0,1,4.11-1.38c.3-.07.89.79,1.34,1.22l-3.76.9Z"/><path class="cls-1" d="M483.44,82.78c-.28-.74-.56-1.47-.85-2.21l4.05,1.74Z"/><path class="cls-99" d="M646.62,102.67l5.22,1.26-1.81.57Z"/><path class="cls-1" d="M477.44,84.3l5.18-.74Z"/><path class="cls-1" d="M480,76.85v-.72l2.3.11Z"/><path class="cls-5" d="M652.56,108.63l2.63-1.5Z"/><path class="cls-7" d="M415.69,40.1c-.11,0-.21.16-.31.15s-.2-.11-.3-.17l.49-.28Z"/><path class="cls-101" d="M455.3,91.5l5.08,2.38,2.56-.75,5.93-.75-1.61.1-1,1.32,1.83.1c3.63,2.79,7.26,5.58,10.84,8.42.12.1-.4.81-.61,1.23L465.5,99.8c-1.78,0-3.55-.09-5.33-.08a5.6,5.6,0,0,0-.15,1l5.51-.92,4.21,7c-4.63-.48-10.45-.16-15.25-1.91-3.08-1.12-4.67-5.29-6.92-8.1l1.71.82,5.14.79L457,96.83c-.57-.74-1.15-1.47-1.73-2.21l-2.55-.72-3.45-.72c-.24-.06-.49-.1-.74-.14,0-.22-.07-.45-.1-.68l-.76-1.49h.78Z"/><path class="cls-102" d="M528.64,113.78c-10.59,1.78-19-2.36-27.17-7.38a15.59,15.59,0,0,1,1.75-2.24c3.26,1.32,6.37,2.93,9.66,4.2,1.38.54,3.24.13,4.63.65C521.29,110.46,524.94,112.18,528.64,113.78Z"/><path class="cls-41" d="M531.36,80.62l18.76,3.63,3.33,1.59-8.56,1.75,5,2.74-.48,1.06c-4.09-1-8.21-2-12.26-3.17-.56-.15-.82-1.07-1.22-1.63l5-1.87Z"/><path class="cls-102" d="M545.15,113.09a19.19,19.19,0,0,0-.11,3.21,30.49,30.49,0,0,0,.9,3.81,43.38,43.38,0,0,1-6.41-2.29c-.45-.24.26-2.12.44-3.24l.24-1.56a7.21,7.21,0,0,0-2.35-.24c-1.86.46-3.66,1.13-5.48,1.71a75.41,75.41,0,0,1,9-4.71C542,109.56,543.88,111.92,545.15,113.09Z"/><path class="cls-7" d="M468.08,93.9l-1.83-.1,1-1.32Z"/><path class="cls-87" d="M534.07,119.49l-16.41,1.57C525.93,117.09,525.93,117.09,534.07,119.49Z"/><path class="cls-1" d="M448.4,92.36c0,.23.06.46.1.68-1.52,2-3,4.07-4.59,6a2.82,2.82,0,0,1-1.75.45,18,18,0,0,1-2.34-4.73c-.15-.67,1.19-1.6,1.85-2.41Z"/><path class="cls-7" d="M455.24,94.62c.58.74,1.16,1.47,1.73,2.21l-2.55,1.52-5.14-.79c0-.74,0-1.48,0-2.22V93.18l3.45.72Z"/><path class="cls-34" d="M448.4,92.36h-6.73c-.58-1.72-1.16-3.45-1.73-5.17l1.72-1.48,6,5.15Z"/><path class="cls-103" d="M418.6,103.55l-1.83,0h0l2.55-3.69C419.09,101.05,418.85,102.3,418.6,103.55Z"/><path class="cls-1" d="M449.24,95.34c0,.74,0,1.48,0,2.22l-1.71-.82Z"/><path class="cls-53" d="M514.2,133.83c-1-1-3.14-2.31-2.9-2.83,1.12-2.41,2.16-1.79,4.75-.38,4.24,2.31,9.6,3.1,14.48,4.53l3.18,2.39-2.58,1.54Z"/><path class="cls-73" d="M514.2,133.83l16.93,5.25-13.38,1.45c.17-.69.08-1.66.58-2a9.93,9.93,0,0,1,2.88-.91c-1.17-.49-2.36-1.42-3.51-1.38a24.64,24.64,0,0,0-5.19,1.24C513.07,136.26,513.63,135,514.2,133.83Z"/><path class="cls-34" d="M513.3,144.9l4.39-1.68,1.57.26,2.47,2.28-5.81,1.35-1.46-.91Z"/><path class="cls-73" d="M521.73,145.76l-2.47-2.28Z"/><path class="cls-8" d="M1742.11,126.51l-5.13,0-7.62-.15-1.8-.54-1.57-.27-2.51-2.2a5.58,5.58,0,0,0-.1-.68c1.92-4.91,4.36-2.89,7.64-.83,1.8,1.13,4.88.66,7.33,1.13,2,.39,3.87,1.1,5.8,1.66Z"/><path class="cls-59" d="M1764.36,118.32l6.78.55.17.17,6.82,5.86h0l-.93,2.41-1.76-2.31-6.77-.78Z"/><path class="cls-13" d="M1778.13,124.9l-6.82-5.86c6,0,12-.29,17.9.16,2.11.16,4,2.14,6,3.28-.08,1-.16,2.08-.26,3.4C1789.48,123.47,1784.05,119.77,1778.13,124.9Z"/><path class="cls-13" d="M1777.2,127.32l.93-2.41Z"/><path class="cls-13" d="M1726,125.59l-1.74.1c-.26-.76-.51-1.53-.77-2.3Z"/><path class="cls-66" d="M1877.42,166.83c-.93.42-1.7.92-1.86.8-2.29-1.68-4.51-3.45-6.74-5.2,1.13-.51,3-1.64,3.27-1.42A72.07,72.07,0,0,1,1877.42,166.83Z"/><path class="cls-51" d="M493.9,137.34l.55-4.27a35.36,35.36,0,0,1,4.15.48,34.9,34.9,0,0,1,5.18,1.59A23.33,23.33,0,0,1,507,137l-3.85,1.27Z"/><path class="cls-82" d="M2160.13,167.12l-1.42-.52.35-.43,1.07,1Z"/><path class="cls-86" d="M290.33,50.76a6.88,6.88,0,0,0,2,1.2c5.49,1,11,2,18.49,3.31-4.24,2.17-6.11,3.32-8.18,4.08-.65.23-2.59-.54-2.63-1-.33-3.31-.91-5.4-4.73-1.76A48.75,48.75,0,0,1,291.18,54l-4.87.71.66-2.19Z"/><path class="cls-7" d="M267.41,50.17,260.63,48l.48-1.26,7.05,1.74Z"/><path class="cls-7" d="M287,52.47l-.66,2.19Z"/><path class="cls-7" d="M226.21,48l.39-.55.3.27-.65.32Z"/><path class="cls-7" d="M225.41,44.35a4,4,0,0,0,.05.69l-1.53-.46Z"/><path class="cls-39" d="M397.19,73.11c-4.09-2.2-8.2-4.37-12.24-6.63a44.79,44.79,0,0,1-3.76-2.67l10.69-1.25-5.8-4.21c.9-1.06,2-3.11,2.68-3,3.68.45,7.28,1.45,10.9,2.25l.9,1.55-4.24,2.23c4.75,2.86,9.57,5.65,14.18,8.67.63.42.19,2,.25,3.12L409,72.59a58.16,58.16,0,0,0-6.4-4.13,55.47,55.47,0,0,0-7.11-2.4l4.32,5.63Z"/><path class="cls-103" d="M392.89,78.3c4.54,3.26,8.89,6.75,13.69,9.69,3.07,1.88,6.81,3,10.24,4.39.28.49.55,1,.82,1.49-.28.48-.57,1-.86,1.44-6.74.79-11.8-.51-12.51-7.42,0-.34-1.32-.59-2-.88a10.34,10.34,0,0,1-.11,1.85,16.35,16.35,0,0,1-1.06,3.64,16.31,16.31,0,0,1-2.1,2.75c-.69-1-2.11-2.12-2-3,1.29-7.32-5.73-7.81-10.62-10.21-1.57-.77-2.55-2.42-3.81-3.67Z"/><path class="cls-104" d="M326.19,43l-1.86-.83L323.24,39l3.41-.71c-.94-.76-1.94-1.48-2.82-2.28s-1.41-1.5-2.11-2.25a30.57,30.57,0,0,0,2.95.93C333.1,36.37,331.36,39.43,326.19,43Z"/><path class="cls-86" d="M321.86,55.59l2.4,1.39v3.93l-3.68-1.49-6.84-2.77Z"/><path class="cls-105" d="M348.43,63.57c6.42-4.48,10,.52,14.26,3.48l-4-.49-10.1-2.39c0-.21-.05-.42-.08-.63Z"/><path class="cls-62" d="M362.94,62.11a2.7,2.7,0,0,0,.18.69l-2,1.08a6.22,6.22,0,0,0-1-1.61c-1.6-1.45-3.29-2.82-4.95-4.22Z"/><path class="cls-1" d="M458.65,83.52l1.82,4.23-7.92-1.9,3.56-2.35Z"/><path class="cls-1" d="M448.42,90.88c.56-1.22,1.12-2.44,1.69-3.66l5.19,4.28Z"/><path class="cls-80" d="M340.71,58.47,335,54l.44-.76L343.15,57Z"/><path class="cls-39" d="M403.93,76.85l-6-.71Z"/><path class="cls-105" d="M348.47,63.54l-2.82-.76.46-.72,2.32,1.51Z"/><path class="cls-39" d="M405.71,74h1.62c0,.52,0,1-.05,1.57Z"/><path class="cls-103" d="M422.78,98.29l1.83.71c-.32.51-.64,1-1,1.54C423.36,99.79,423.07,99,422.78,98.29Z"/><path class="cls-1" d="M462.94,93.13l-2.56.75Z"/><path class="cls-103" d="M420.19,96.12c-.09.33-.19.66-.29,1l-.48-.22.77-.77Z"/><path class="cls-103" d="M398.22,95.31c-1.73.38-2.86.92-3.26.65-1.78-1.21-3.35-2.65-5-4a15.91,15.91,0,0,1,1.78-1.51C393.42,91.57,395,92.82,398.22,95.31Z"/><path class="cls-106" d="M894.58,83.48l6-3.6-.75,3.32a7.15,7.15,0,0,0,2.43-.71,38.86,38.86,0,0,0,3.3-3.37l12,2.74-.32,1.44a47.53,47.53,0,0,0-7.06-1c-1,0-1.94,1.26-2.91,1.95Z"/><path class="cls-5" d="M759.23,95.46c4.1,0,8.2,0,12.29,0,.36,0,.71.53,1.07.81-.79.35-1.61,1.07-2.35,1-3.68-.33-7.33-.86-11-1.31Z"/><path class="cls-15" d="M1542.49,103.1c.61,1.79,1.24,4,2.1,6.07a26.37,26.37,0,0,0,2,3.45c-2.44.12-4.89.27-7.33.34-.88,0-1.76-.2-2.64-.24-1.11-.06-3,.21-3.18-.12a12.66,12.66,0,0,1-.47-3.77c-.09-1-.23-2-.48-4.13Z"/><path class="cls-12" d="M1273.52,90.28c.16.15.43.3.42.44s-.28.29-.44.43c-.15-.15-.4-.29-.42-.46S1273.35,90.42,1273.52,90.28Z"/><path class="cls-47" d="M1252.4,87.4l.87.64-.9,2Z"/><path class="cls-61" d="M1679.72,114l1.79-1.63-1.71,2.23C1679.77,114.39,1679.75,114.19,1679.72,114Z"/><path class="cls-61" d="M1674.66,112.43l4.12.8Z"/><path class="cls-107" d="M2110.89,81.18c6.13,0,11.58,0,17,0a11.44,11.44,0,0,1,3,.88,12.74,12.74,0,0,0-2.49,1c-1.87,1.18-3.47,3.27-5.47,3.59a149.28,149.28,0,0,1-15.73,1.15c-.38,0-1.28-1.13-1.18-1.26C2107.38,84.9,2108.88,83.34,2110.89,81.18Z"/><path class="cls-108" d="M1824.21,113.21l-5.12-.21-4.47-.51a1.75,1.75,0,0,1-.65-.13Z"/><path class="cls-59" d="M1848.31,115.25l-9.52-.54Z"/><path class="cls-52" d="M1970.16,130.49c4,2.83,6.16,4.28,8.14,5.91a2,2,0,0,1-.19,2c-1.13.33-3.23.68-3.5.28A81.51,81.51,0,0,1,1970.16,130.49Z"/><path class="cls-58" d="M1839.54,120.48c3.57,1.66,7.15,3.31,10.71,5,.73.35,1.42.76,2.11,1.15.05,0,0,.27-.06.3-.24.11-.51.17-.77.26C1846.78,126,1840.33,127,1839.54,120.48Z"/><path class="cls-25" d="M1898.65,122.66l-.39.53L1898,123l.62-.35Z"/><path class="cls-74" d="M1814.62,112.49l4.47.51Z"/><path class="cls-1" d="M454.42,98.35,457,96.83Z"/><path class="cls-1" d="M455.24,94.62l-2.55-.72Z"/><path class="cls-7" d="M355.26,51l-.78,1.76-.67-.36,1.46-1.4Z"/><path class="cls-49" d="M905.52,79.12a38.86,38.86,0,0,1-3.3,3.37,7.15,7.15,0,0,1-2.43.71l.75-3.32,1.5-1.57,2.72.75A3.21,3.21,0,0,0,905.52,79.12Z"/><path class="cls-106" d="M904.76,79.06,902,78.31c-.27-.79-.54-1.59-.8-2.39l3.82-.3Z"/></g></g></svg>