<svg xmlns="http://www.w3.org/2000/svg" xmlns:xlink="http://www.w3.org/1999/xlink" viewBox="0 0 97.82 56.84"><defs><style>.cls-1{fill:url(#linear-gradient);}.cls-2{fill:url(#linear-gradient-2);}.cls-3{fill:url(#linear-gradient-3);}.cls-4{fill:url(#linear-gradient-4);}</style><linearGradient id="linear-gradient" x1="288.91" x2="288.91" y2="48.48" gradientTransform="matrix(-1, 0, 0, 1, 337.82, 0)" gradientUnits="userSpaceOnUse"><stop offset="0" stop-color="#c7c8ca"/><stop offset="0.05" stop-color="#b2b9bd"/><stop offset="0.17" stop-color="#8397a0"/><stop offset="0.3" stop-color="#5b7a87"/><stop offset="0.43" stop-color="#3a6272"/><stop offset="0.56" stop-color="#205062"/><stop offset="0.7" stop-color="#0e4257"/><stop offset="0.84" stop-color="#043b50"/><stop offset="1" stop-color="#00384e"/></linearGradient><linearGradient id="linear-gradient-2" x1="263.64" y1="38.54" x2="263.64" y2="56.84" xlink:href="#linear-gradient"/><linearGradient id="linear-gradient-3" x1="313.93" y1="38.71" x2="313.93" y2="56.83" xlink:href="#linear-gradient"/><linearGradient id="linear-gradient-4" x1="50.88" y1="18.2" x2="71.36" y2="18.2" gradientUnits="userSpaceOnUse"><stop offset="0" stop-color="#0085cd"/><stop offset="0.17" stop-color="#379fd8"/><stop offset="0.35" stop-color="#69b7e2"/><stop offset="0.49" stop-color="#88c6e8"/><stop offset="0.57" stop-color="#94ccea"/><stop offset="0.67" stop-color="#69b7e1"/><stop offset="0.83" stop-color="#319ad5"/><stop offset="0.94" stop-color="#0d89ce"/><stop offset="1" stop-color="#0082cb"/></linearGradient></defs><title>box-truck_2</title><g id="Layer_2" data-name="Layer 2"><g id="City"><path class="cls-1" d="M66.16,43.57l-1.83,4.75H34l-4-7c-5-4.12-11.35-3.05-13.69,1.57l-2.87,5.63c-.84,0-2.2,0-3.57,0-3.48,0-9.88-1.54-9.89-5C0,33.86.53,0,.53,0S37.42.22,50.28,0l.09,10.88c1.34.09,3.36,0,7,.27,4.26.33,7.87,1.36,11,4.14s6.13,5.5,9.87,8.87c3.26.64,7.73,1.31,12.07,2.47,3.28.89,6.42,2.69,7,6.38.87,5.19.39,9.75.32,15.15-4.08,0-10.12.07-13.53.07l-2.74-6C76,36.85,69.77,37.4,66.16,43.57ZM51.22,12.82v10.8H71.36C67.39,14.15,60.66,12.53,51.22,12.82Z"/><path class="cls-2" d="M82.34,45.26c1.47,4.84-1.45,10.21-6.15,11.34a8.55,8.55,0,0,1-10.45-7c-.31-2,.25-4,.42-6.06,3.61-6.17,9.79-6.72,15.2-1.35C81.69,43.24,82,44.25,82.34,45.26ZM70.13,48A3.92,3.92,0,0,0,74,52a4,4,0,0,0,4-4.41,3.89,3.89,0,0,0-4-3.81A4.1,4.1,0,0,0,70.13,48Z"/><path class="cls-3" d="M31.34,43.85a9.06,9.06,0,0,1-4.51,12.32c-4.37,1.88-10-.38-11.1-5.1-.61-2.55.35-5.47.6-8.22C18.67,38.23,25,37.16,30,41.28,30.46,42.13,30.92,43,31.34,43.85ZM23.59,52a4.24,4.24,0,0,0,4.1-4.15,4.34,4.34,0,0,0-3.9-4.08,4.24,4.24,0,0,0-4.23,4A4.18,4.18,0,0,0,23.59,52Z"/><path class="cls-4" d="M71.36,23.62S69,17.88,66.07,16a16.88,16.88,0,0,0-9.74-3.19H50.88l.34,10.83Z"/></g></g></svg>