<?xml version="1.0" encoding="utf-8"?>
<!-- Generator: Adobe Illustrator 24.0.1, SVG Export Plug-In . SVG Version: 6.00 Build 0)  -->
<svg version="1.1"
	 id="svg2" inkscape:output_extension="org.inkscape.output.svg.inkscape" inkscape:version="0.46" sodipodi:docname="Monarch_Butterfly.svg" sodipodi:version="0.32" xmlns:cc="http://creativecommons.org/ns#" xmlns:dc="http://purl.org/dc/elements/1.1/" xmlns:inkscape="http://www.inkscape.org/namespaces/inkscape" xmlns:rdf="http://www.w3.org/1999/02/22-rdf-syntax-ns#" xmlns:sodipodi="http://sodipodi.sourceforge.net/DTD/sodipodi-0.dtd" xmlns:svg="http://www.w3.org/2000/svg"
	 xmlns="http://www.w3.org/2000/svg" xmlns:xlink="http://www.w3.org/1999/xlink" x="0px" y="0px" viewBox="0 0 1448.6 606.5"
	 style="enable-background:new 0 0 1448.6 606.5;" xml:space="preserve">
<style type="text/css">
	.st0{fill:#FFFFFF;stroke:#000000;stroke-width:4.6;stroke-linecap:round;}
	.st1{stroke:#000000;stroke-width:1.1324;stroke-linecap:round;}
	.st2{fill-rule:evenodd;clip-rule:evenodd;}
	.st3{opacity:0.94;fill-rule:evenodd;clip-rule:evenodd;fill:#C97D00;enable-background:new    ;}
	.st4{fill-rule:evenodd;clip-rule:evenodd;fill:url(#path4328_1_);}
	.st5{fill-rule:evenodd;clip-rule:evenodd;fill:#C97D00;}
	.st6{fill-rule:evenodd;clip-rule:evenodd;fill:#FFC143;}
	.st7{fill-rule:evenodd;clip-rule:evenodd;fill:#FFFFFF;}
	.st8{opacity:0.94;fill-rule:evenodd;clip-rule:evenodd;fill:#FFFFFF;enable-background:new    ;}
	.st9{opacity:0.6591;fill-rule:evenodd;clip-rule:evenodd;fill:#FFFFFF;enable-background:new    ;}
	.st10{fill-rule:evenodd;clip-rule:evenodd;fill:url(#path3280_1_);}
	.st11{opacity:0.5381;fill-rule:evenodd;clip-rule:evenodd;stroke:#000000;stroke-width:1.3792;enable-background:new    ;}
	.st12{opacity:0.4708;fill-rule:evenodd;clip-rule:evenodd;fill:#9B9898;stroke:#C8C8C8;enable-background:new    ;}
	.st13{fill-rule:evenodd;clip-rule:evenodd;fill:#565656;stroke:#777474;}
	.st14{opacity:0.94;fill-rule:evenodd;clip-rule:evenodd;enable-background:new    ;}
	.st15{fill:url(#path4064_1_);}
	.st16{fill:url(#path4077_1_);}
	.st17{fill:#FFFFFF;}
	.st18{fill:url(#path4177_1_);}
	.st19{fill-rule:evenodd;clip-rule:evenodd;fill:url(#path4271_1_);}
	.st20{fill-rule:evenodd;clip-rule:evenodd;fill:url(#path4293_1_);}
	.st21{fill-rule:evenodd;clip-rule:evenodd;fill:url(#path4297_1_);}
	.st22{fill-rule:evenodd;clip-rule:evenodd;fill:url(#path4301_1_);}
	.st23{fill-rule:evenodd;clip-rule:evenodd;fill:url(#path4305_1_);}
</style>
<sodipodi:namedview  bordercolor="#666666" borderopacity="1.0" gridtolerance="10.0" guidetolerance="10.0" id="base" inkscape:current-layer="svg2" inkscape:cx="336.70275" inkscape:cy="275.97723" inkscape:pageopacity="0.0" inkscape:pageshadow="2" inkscape:window-height="850" inkscape:window-width="1440" inkscape:window-x="-8" inkscape:window-y="-8" inkscape:zoom="0.29679242" objecttolerance="10.0" pagecolor="#ffffff" showgrid="false">
	</sodipodi:namedview>
<defs>
	
		<inkscape:perspective  id="perspective306" inkscape:persp3d-origin="168.32251 : 129.7203 : 1" inkscape:vp_x="0 : 194.58044 : 1" inkscape:vp_y="0 : 1000 : 0" inkscape:vp_z="336.64502 : 194.58044 : 1" sodipodi:type="inkscape:persp3d">
		</inkscape:perspective>
	
		<inkscape:perspective  id="perspective3636" inkscape:persp3d-origin="372.04724 : 350.78739 : 1" inkscape:vp_x="0 : 526.18109 : 1" inkscape:vp_y="0 : 1000 : 0" inkscape:vp_z="744.09448 : 526.18109 : 1" sodipodi:type="inkscape:persp3d">
		</inkscape:perspective>
	
		<inkscape:perspective  id="perspective3623" inkscape:persp3d-origin="372.04724 : 350.78739 : 1" inkscape:vp_x="0 : 526.18109 : 1" inkscape:vp_y="0 : 1000 : 0" inkscape:vp_z="744.09448 : 526.18109 : 1" sodipodi:type="inkscape:persp3d">
		</inkscape:perspective>
	
		<inkscape:perspective  id="perspective3335" inkscape:persp3d-origin="372.04724 : 350.78739 : 1" inkscape:vp_x="0 : 526.18109 : 1" inkscape:vp_y="0 : 1000 : 0" inkscape:vp_z="744.09448 : 526.18109 : 1" sodipodi:type="inkscape:persp3d">
		</inkscape:perspective>
	
		<inkscape:perspective  id="perspective3320" inkscape:persp3d-origin="372.04724 : 350.78739 : 1" inkscape:vp_x="0 : 526.18109 : 1" inkscape:vp_y="0 : 1000 : 0" inkscape:vp_z="744.09448 : 526.18109 : 1" sodipodi:type="inkscape:persp3d">
		</inkscape:perspective>
	
		<inkscape:perspective  id="perspective3307" inkscape:persp3d-origin="372.04724 : 350.78739 : 1" inkscape:vp_x="0 : 526.18109 : 1" inkscape:vp_y="0 : 1000 : 0" inkscape:vp_z="744.09448 : 526.18109 : 1" sodipodi:type="inkscape:persp3d">
		</inkscape:perspective>
	
		<inkscape:perspective  id="perspective2403" inkscape:persp3d-origin="372.04724 : 350.78739 : 1" inkscape:vp_x="0 : 526.18109 : 1" inkscape:vp_y="0 : 1000 : 0" inkscape:vp_z="744.09448 : 526.18109 : 1" sodipodi:type="inkscape:persp3d">
		</inkscape:perspective>
	
		<inkscape:perspective  id="perspective2390" inkscape:persp3d-origin="372.04724 : 350.78739 : 1" inkscape:vp_x="0 : 526.18109 : 1" inkscape:vp_y="0 : 1000 : 0" inkscape:vp_z="744.09448 : 526.18109 : 1" sodipodi:type="inkscape:persp3d">
		</inkscape:perspective>
	
		<inkscape:perspective  id="perspective10" inkscape:persp3d-origin="372.04724 : 350.78739 : 1" inkscape:vp_x="0 : 526.18109 : 1" inkscape:vp_y="0 : 1000 : 0" inkscape:vp_z="744.09448 : 526.18109 : 1" sodipodi:type="inkscape:persp3d">
		</inkscape:perspective>
</defs>
<g id="layer5" transform="matrix(0.6654301,0.7464602,-0.7464602,0.6654301,676.49637,-98.036165)">
</g>
<g id="layer1" transform="translate(557.07761,144.13832)">
</g>
<path id="path4580" sodipodi:cx="388.9523" sodipodi:cy="-202.92157" sodipodi:end="6.3847271" sodipodi:open="true" sodipodi:rx="6.4289637" sodipodi:ry="33.216312" sodipodi:start="0.10187223" sodipodi:type="arc" d="
	M725.3,374.2c94.8-71.9-53.2,2.6-61.1,30.4C669,409.2,698.7,392.6,725.3,374.2"/>
<path id="path4582" sodipodi:cx="388.9523" sodipodi:cy="-202.92157" sodipodi:end="6.3847271" sodipodi:open="true" sodipodi:rx="6.4289637" sodipodi:ry="33.216312" sodipodi:start="0.10187223" sodipodi:type="arc" d="
	M725.3,374.2c94.8-71.9-53.2,2.6-61.1,30.4C669,409.2,698.7,392.6,725.3,374.2"/>
<path id="path4584" sodipodi:nodetypes="csssscc" class="st0" d="M548,498.6c7.8-6.6,130.7-86.5,98.6-51.8
	C591.8,479.2,556.7,510.7,548,498.6z"/>
<path id="path4586" sodipodi:cx="388.9523" sodipodi:cy="-202.92157" sodipodi:end="6.3847271" sodipodi:open="true" sodipodi:rx="6.4289637" sodipodi:ry="33.216312" sodipodi:start="0.10187223" sodipodi:type="arc" d="
	M684,272.6c85.4-13.7-34.7-40.3-33.9-9.5C652.8,269,666.9,273.1,684,272.6"/>
<path id="path4588" sodipodi:cx="388.9523" sodipodi:cy="-202.92157" sodipodi:end="6.3847271" sodipodi:open="true" sodipodi:rx="8.7639503" sodipodi:ry="33.216312" sodipodi:start="0.10187223" sodipodi:type="arc" class="st1" d="
	M641.8,282.4c7.8-5.7,13.9-14.9,13.3-19.6C640.8,238.2,584.7,314.6,641.8,282.4"/>
<path id="path4590" sodipodi:nodetypes="csssscc" d="M549.4,273.4c20.9,1.1,60.7,3.6,69.9,10.6c9.2,21.4-32.9,6.3-44.1,7.2
	C560.4,288.7,541.8,293.7,549.4,273.4z"/>
<path id="path4592" inkscape:transform-center-x="89.22036" inkscape:transform-center-y="35.727666" sodipodi:cx="388.9523" sodipodi:cy="-202.92157" sodipodi:end="6.3847271" sodipodi:open="true" sodipodi:rx="6.4289637" sodipodi:ry="33.216312" sodipodi:start="0.10187223" sodipodi:type="arc" d="
	M789.9,263.5c-86.5,38.5,32.7-63.6,28.8-26.4C815.4,244.6,804.2,254.8,789.9,263.5"/>
<path id="path4594" inkscape:transform-center-x="24.656344" inkscape:transform-center-y="14.772198" sodipodi:cx="388.9523" sodipodi:cy="-202.92157" sodipodi:end="6.3847271" sodipodi:open="true" sodipodi:rx="6.4289637" sodipodi:ry="33.216312" sodipodi:start="0.10187223" sodipodi:type="arc" d="
	M828.7,248c-31.9-8-20.1-25,6.5-19.6C867,236.4,855.3,253.5,828.7,248"/>
<path id="path4596" inkscape:transform-center-x="-50.445184" inkscape:transform-center-y="-22.287787" sodipodi:nodetypes="csssscc" d="
	M911.4,186c-7.9,3.3-94.6,67.2-52.8,57.6C901.6,206.8,924.4,202.4,911.4,186z"/>
<path id="path4598" sodipodi:cx="388.9523" sodipodi:cy="-202.92157" sodipodi:end="6.3847271" sodipodi:open="true" sodipodi:rx="6.4289637" sodipodi:ry="33.216312" sodipodi:start="0.10187223" sodipodi:type="arc" d="
	M783.7,226.1c-98.6,37.6,48.7-67.7,34.1-25.9C812.6,208,799.5,217.9,783.7,226.1"/>
<path id="path4600" sodipodi:cx="388.9523" sodipodi:cy="-202.92157" sodipodi:end="6.3847271" sodipodi:open="true" sodipodi:rx="6.4289637" sodipodi:ry="33.216312" sodipodi:start="0.10187223" sodipodi:type="arc" d="
	M830.2,194.1c-57.9,51.9,29.2-82.1,15.5-24.8C842.5,177.2,837.1,185.7,830.2,194.1"/>
<path id="path4602" sodipodi:nodetypes="csssscc" d="M902.1,68.6c-6.9,7.4-92.9,128.5-53.5,96.6C889.3,102.2,916.6,77.2,902.1,68.6z
	"/>
<path id="path4604" sodipodi:cx="388.9523" sodipodi:cy="-202.92157" sodipodi:end="6.3847271" sodipodi:open="true" sodipodi:rx="6.4289637" sodipodi:ry="33.216312" sodipodi:start="0.10187223" sodipodi:type="arc" d="
	M673.7,233.2c74.5,67.8,5.4-40.3-29-47.5C635.6,187.2,654.5,213.9,673.7,233.2"/>
<path id="path4606" sodipodi:cx="388.9523" sodipodi:cy="-202.92157" sodipodi:end="6.3847271" sodipodi:open="true" sodipodi:rx="6.4289637" sodipodi:ry="33.216312" sodipodi:start="0.10187223" sodipodi:type="arc" d="
	M631.8,199.2c46.2,7.1,9-28.3-21.1-24.2C591.9,179,613.5,195.3,631.8,199.2"/>
<path id="path4608" sodipodi:nodetypes="csssscc" d="M543.6,96.3c7.6,6.2,99.6,111.6,56.2,85C554.8,124.1,528.5,107.3,543.6,96.3z"
	/>
<path id="path4610" sodipodi:cx="388.9523" sodipodi:cy="-202.92157" sodipodi:end="6.3847271" sodipodi:open="true" sodipodi:rx="6.4289637" sodipodi:ry="33.216312" sodipodi:start="0.10187223" sodipodi:type="arc" d="
	M673.7,417c18.2-55-58.7,28.8-23.4,25C658.1,438.9,667.9,428.5,673.7,417"/>
<path id="path4335" sodipodi:cx="388.9523" sodipodi:cy="-202.92157" sodipodi:end="6.3847271" sodipodi:open="true" sodipodi:rx="6.4289637" sodipodi:ry="33.216312" sodipodi:start="0.10187223" sodipodi:type="arc" d="
	M810.1,375.6c-105.1-42,51.3-13.3,65,11.6C871.5,393.2,839.4,385.7,810.1,375.6"/>
<path id="path4337" sodipodi:cx="388.9523" sodipodi:cy="-202.92157" sodipodi:end="6.3847271" sodipodi:open="true" sodipodi:rx="6.4289637" sodipodi:ry="33.216312" sodipodi:start="0.10187223" sodipodi:type="arc" d="
	M810.1,375.6c-105.1-42,51.3-13.3,65,11.6C871.5,393.2,839.4,385.7,810.1,375.6"/>
<path id="path4339" sodipodi:nodetypes="csssscc" class="st0" d="M1005.3,444.7c-8.9-4.2-143.1-45.9-105.5-21.5
	C960.6,439.1,999.2,458.9,1005.3,444.7z"/>
<path id="path4341" sodipodi:cx="388.9523" sodipodi:cy="-202.92157" sodipodi:end="6.3847271" sodipodi:open="true" sodipodi:rx="6.4289637" sodipodi:ry="33.216312" sodipodi:start="0.10187223" sodipodi:type="arc" d="
	M868,402.1c-20.2-30.7,19.9-17.5,31.2,1.5C915.4,432.1,877.7,416.9,868,402.1"/>
<path id="path3815" class="st2" d="M1012.7,117.6c92.9-3.6,186.9-0.2,278.5,18.9c70.6,17,204.8,64.6,129.1,122.8
	c-38.2,41.2-61.3,35.9-104.8,45.6c-18,6.2-24.2,28.8-50.3,20.2c-34-6.7-42,36.7-76.6,31.6c-34.1,23.2-71.5,54.9-116,53.5
	c5.6,11.8,17.4,21.4,12.6,34.7c-12.3,21.6-12.6,48.9-37.4,63.7c-16.3,16.5-14.7,54.2-48.8,52.3c-26.7-2.7-34,38.5-65.1,22.9
	c-25.1-19-48.2,15.3-74.5-0.6c-28.5-8-54.7,19.9-84,3.2c-22.1-9.8-25.6-42.8-30.4-58.1c-1.3-123.5-2.7-247-4-370.5
	C828.1,130.7,921.4,122.7,1012.7,117.6z"/>
<path id="path2470" class="st2" d="M422,145.1c91.2-3.3,184.7-4.1,274.8,14.9c11.9,123,23.7,246,35.7,369
	c-3.2,15.7-3.2,48.9-24.2,60.7c-27.4,19.3-56.4-6.1-83.9,4.5c-24.4,18.3-51.1-13.7-74.1,7.4c-29.3,18.4-41-22-67.3-16.8
	c-33.8,5-36.1-32.6-54.1-47.5c-26.2-12.4-29.5-39.5-44-59.8c-6.2-12.8,4.6-23.5,8.8-35.7c-43.4,5.7-84.7-22.4-121.2-42.5
	c-35.5,8.6-48.2-38.8-85.8-22.3c-39.2,2-11-19.7-101.6-23.9C-70.6,293.5,32,230.9,146.6,189.5C235.9,162,328.7,150.2,422,145.1z"/>
<path id="path4314" class="st3" d="M763.8,244.5c5.6,95.3,16,192.3,5.9,284.6c-46.2-29.5-30.9-92.9-30.1-139.2
	C745,330.3,748.9,264.4,763.8,244.5z"/>
<radialGradient id="path4328_1_" cx="232.9565" cy="482.6093" r="102.6518" gradientTransform="matrix(-1.9647 2.2861 -1.9274 -1.425 2184.8555 478.5887)" gradientUnits="userSpaceOnUse">
	<stop  offset="0" style="stop-color:#D7A801"/>
	<stop  offset="1" style="stop-color:#E3700D"/>
</radialGradient>
<path id="path4328" class="st4" d="M1075.5,143.7c18.9,3.9,42.1,26,47.8,33.7c-0.3,1.4-0.4,2.7-0.4,3.9
	c-80.6,18.6-76.1,12-145.2,11.7c-47-9.7-133.4-24-202.7-27.3c-0.4-0.7-0.8-1.5-1.3-2.2C875.6,142.8,964,118.5,1075.5,143.7z
	 M799.5,176.6c59,4.8,115.7,12,167.1,24.3l-0.1,0.1c44.5,56.4,137.6,111.1,147.2,134.1c-35.2,86.1-83.5-0.1-125.2-21.2
	c-29.2-20.1-62-39.5-99.3-58.7C858.6,229,836.8,195.8,799.5,176.6z M780.1,177.6c33.6,13.7,56.4,38.1,80.5,63.5
	c-55.8-28.2-63.6-39.2-78.3-52.6C782,184.8,781.2,181.2,780.1,177.6z M1128.2,189.4c40.6,9.6,32.5,5.5,55.1,24.3
	c40.4,36.6,10.9,39.4,35.9,67c-10.6,0.3-30.3-23.2-41.3-12.3c-42.9-14.3-73.9-44.2-110.9-66.3L1128.2,189.4z M979.9,202.1l76.2,1.3
	l-1.3,1.7c36.7,26,85.3,49.3,110.2,77.9c-0.6,29.5-18.6,29-37.3,40.2C1125.2,328.7,1022.6,253.7,979.9,202.1z M788.9,224.8
	c25.1-0.8,33.4,25.1,51,39.2c16.3,18.4,40,27.1,52,34.7l8.4,23.2c-10.1,14.9-2.1,30.3,8.8,47.6c-3.3,17.6-5,35.2-3.4,52.8
	c-6.2-3-13-6-20.4-4.5c-37.3-55.9-37.5-47.7-50.5-62.3c-10.8-44-32.4-87.1-52.9-130C783.9,225.2,786.9,224.9,788.9,224.8z
	 M774.5,228c20.7,43.3,42.3,86.3,52.9,129.6l-0.7,0c0.8,56-2.8,111.2-17.6,164c-9.3-8.2-23.1,10.7-34.3,8.3
	c10.8-97.1,2-197-3.6-296.2C772.3,231.8,773.4,229.9,774.5,228z M902.5,304.9c20.7,12.3,47.1,29.9,119,81
	c-4.2,4.9-6.8,10.9-7.2,17.3c-35.4-28.7-72.2-61.8-105.9-81.8C908.4,320.9,902.7,305.8,902.5,304.9z M905.5,328.4
	c34.1,20.6,72.8,55.7,110.1,85.4c10.6,18.2,2.4,30.8-12.2,41.6c-0.1,4.4,0.6,2.8,0.7,7.9c-14.8-3.7-48.9-52-86.8-95
	C908.5,353.4,900.1,342.1,905.5,328.4z M834.5,365.6c8.4,7.7,13.5,10.1,44.2,56.2l-1.2,0.1c3.5,36.5-1.7,73.6-6.1,111.1
	c-30.7,2.8-37.6,15.2-55.7-6C830.9,474.7,834.9,420.4,834.5,365.6z M916,377.7c28.6,34.8,59.1,69,87.4,105
	c-2.2,29.8-15,34.1-39.5,36.5c-14.3-5.7-27.1-69.3-49.5-89.8C911.8,413.7,913.1,394.7,916,377.7z M888.7,424.8c5.4,0,10.1,2,19,7.1
	l-0.7,0.8c20.7,17.1,30.3,55.4,41.5,91.7c-20.8,4.9-42.5,9.8-64.7,8c-5.8-11.8,4.6-71.3,1.8-107.2
	C886.6,425,887.6,424.8,888.7,424.8z M1339,179.4c11.2,12.3,35.6,22.9,32.5,41.3c-35.8-11.3-74.8-33.5-115.6-61.4
	C1286.8,146.7,1313.5,164.6,1339,179.4z M1234,171.8c52.1,9.9,85.9,39.2,115.6,73c-0.6,0.4-1.1,0.8-1.7,1.2
	c-43.2-18.7-85.1-34.7-122.4-68.1C1227.4,176.6,1230.5,174.1,1234,171.8z M1186.4,187.2c47.5,15.3,91.7,46.7,115.7,78.5
	c-1.2,0.1-2.7,0.2-5,0.3C1234.1,241.9,1166.8,184.6,1186.4,187.2z"/>
<path id="path4282" class="st5" d="M683.3,248.4c4.6,95.4,4.6,192.8,24.5,283.8c42.5-33.3,21-94.2,15.5-139.1
	C711.6,333.6,700.4,266.9,683.3,248.4z"/>
<path id="path3345" class="st6" d="M1256,177.3c-44.9-35.6-54.9-0.2-35.3,7.8c5.4,3.5,16.9,12.4,18.9,2.2
	C1252.7,187.7,1245.1,181.2,1256,177.3z M1245.1,210.3c15.5-2.7,40.3,23.8,34.6,29.6c-7.4,0.2-12.1,4.9-19.9,3
	c4.9,20.4-47.5-13.1-18.3-21.4C1244.1,218.2,1241.7,213.3,1245.1,210.3z M1150.4,168.2c10.9,4.2,27.2,8,32.4,20.3
	C1181.6,201.8,1121.3,170.4,1150.4,168.2z M1130.2,145.1c8.3-4.3,43.1-2.6,29.8,10.8C1159.5,171,1125.8,153.9,1130.2,145.1
	L1130.2,145.1z"/>
<path id="path4104" class="st7" d="M1033.4,120c41.3-2.2,10.2,18.3-2.2,0.7C1031.8,120.1,1032.6,120,1033.4,120z"/>
<path id="path4102" class="st7" d="M1124.8,121c31.2,0.5,18.3,9.7,1.8,6.3c6.8,1.1,28.5,3.6,23.8,6.3c-8.3,2.3-53.5-2.8-23.9-6.3
	c-2.3-1-3.9-2.8-3.9-5.6C1123.3,121.2,1124,121,1124.8,121z"/>
<path id="path4100" class="st7" d="M1207.3,129c12-1.5,19.4,3.8,8,9.2C1208.8,153.6,1179.1,128.7,1207.3,129z"/>
<path id="path4098" class="st7" d="M1246.3,148.2c24.1-1.6,16.8,35.1-7.6,9.3C1211.8,156.9,1228.7,147.2,1246.3,148.2z"/>
<path id="path4096" class="st7" d="M1356.7,161.3c35.3,6.8,6.5,23.4-5.5,1.4L1356.7,161.3z"/>
<path id="path4094" class="st7" d="M1381.6,178.4c38.4-1.3,5,32.3-9.5,16.9C1372.4,189.7,1372.8,176.6,1381.6,178.4z"/>
<path id="path4092" class="st7" d="M1425,204.9C1438.5,204.3,1423.4,213.5,1425,204.9z"/>
<path id="path4090" class="st7" d="M1378.4,208.3c53.9,17-7.8,34.1-4.7,2.6L1378.4,208.3z"/>
<path id="path4088" class="st7" d="M1441.6,216.2l5.7,2.4c3.3,12.4-0.2,19.5-4.1,26.4l-7.2-3.2l3.5-8.9l3.7,0.8l1.7-8.6l-2.3-1.4
	L1441.6,216.2z"/>
<path id="path4086" class="st7" d="M1416.9,218.3C1437.8,220.3,1415.9,230.9,1416.9,218.3z"/>
<path id="path4084" class="st7" d="M1353.3,241.2c15.3-0.4,16,15.9,8.5,19.2C1353,264.6,1336.8,242.6,1353.3,241.2z"/>
<path id="path4082" class="st7" d="M1404.7,243.8C1433.3,242.3,1405.1,261.6,1404.7,243.8z"/>
<path id="path4080" class="st7" d="M1314.3,262C1351.6,276.3,1296.5,283.1,1314.3,262z"/>
<path id="path4078" class="st7" d="M1278.5,264.6C1292.3,272.3,1263.2,264.5,1278.5,264.6z"/>
<path id="path4075" class="st7" d="M1419.1,258.3l6.8,1.9l-6.7,5.2l-5.1-1.9L1419.1,258.3z"/>
<path id="path4073" class="st7" d="M1245.9,270.5c39.5,7-5.2,34.2-11.2,4.9C1236.7,271.6,1242.2,271.6,1245.9,270.5z"/>
<path id="path4071" class="st7" d="M1406.3,266.5l4.8,3.3l-5.5,3l-3.9-2.3L1406.3,266.5z"/>
<path id="path4069" class="st7" d="M1369.7,270.9C1398,269.5,1370.2,288.4,1369.7,270.9z"/>
<path id="path4067" class="st7" d="M1200.8,279.7C1242.8,297.4,1174.3,296.2,1200.8,279.7z"/>
<path id="path4065" class="st7" d="M1298.7,283.7C1324.3,288.7,1288.1,300.7,1298.7,283.7z"/>
<path id="path4062" class="st7" d="M1324.4,285.2C1352.8,283.9,1324.7,302.8,1324.4,285.2z"/>
<path id="path4060" class="st7" d="M1380.2,284.5l6.8,2.9l-8.7,4.1l-4.8-3.3L1380.2,284.5z"/>
<path id="path4058" class="st7" d="M1363.8,288.8l5,3.8l-5.7,2l-4.5-3.9L1363.8,288.8z"/>
<path id="path4056" class="st7" d="M1339,297.8l4.6,3.6l-14.5-0.2l-1.8-2.7L1339,297.8z"/>
<path id="path4054" class="st7" d="M1313.1,299.2l5.5,4l-8.3,4.4l-6-4.4L1313.1,299.2z"/>
<path id="path4052" class="st7" d="M1255.9,302.9C1294.9,302.3,1260.3,317.7,1255.9,302.9z"/>
<path id="path4050" class="st7" d="M1225.9,304.4C1261,312,1207.4,321.8,1225.9,304.4z"/>
<path id="path4048" class="st7" d="M1188.4,310.7C1216.2,331.4,1155.8,321.7,1188.4,310.7z"/>
<path id="path4046" class="st7" d="M1278.5,315.6l3,3.5l-15.4,2l-4.3-3.9L1278.5,315.6z"/>
<path id="path4044" class="st7" d="M1243.9,319.7l6.9,5.4l-14,7.1l-4.4-4.4L1243.9,319.7z"/>
<path id="path4042" class="st7" d="M1151.2,332.2C1173.8,339.4,1138.3,344.5,1151.2,332.2z"/>
<path id="path4040" class="st7" d="M1195.2,332.2C1223.2,337.7,1185.1,344.9,1195.2,332.2z"/>
<path id="path4038" class="st7" d="M1166.3,347C1196.5,362.7,1144.7,357.7,1166.3,347z"/>
<path id="path4036" class="st7" d="M1202.5,345.9l7.7,3.2l-9.7,6.1l-6.3-3.4L1202.5,345.9z"/>
<path id="path4034" class="st7" d="M1182.7,357l6.6,3.3l-11,9.3l-5.2-3.3L1182.7,357z"/>
<path id="path4032" class="st7" d="M1149.5,381.3l6.7,4.2l-14.3,6.5l-5.2-3.8L1149.5,381.3z"/>
<path id="path4030" class="st7" d="M1125.7,391.2l8.8,4.1l-5.2,2.4l-7.8-4.8L1125.7,391.2z"/>
<path id="path4027" class="st7" d="M1115.4,395.6l8.2,4.9l-2.1,0.9l-7.6-5.1L1115.4,395.6z"/>
<path id="path4025" class="st7" d="M1107.9,398.7l7.9,5.4l-10.9,5.1l-9.6-5.1L1107.9,398.7z"/>
<path id="path4023" class="st7" d="M1066.8,412.2C1092.7,426.9,1050.9,429.6,1066.8,412.2z"/>
<path id="path4021" class="st7" d="M1076.8,424l8.2,6.3l-2.4,17.1l-8.2-5.2L1076.8,424z"/>
<path id="path4019" class="st7" d="M1058.3,440.1C1082.4,455.9,1042.4,456.7,1058.3,440.1z"/>
<path id="path4016" class="st7" d="M1036.4,453.2C1056.2,464.3,1021.2,463.4,1036.4,453.2z"/>
<path id="path4014" class="st7" d="M1070.7,457.1l7.8,6.2l-7.8,21.9l-7-5.3L1070.7,457.1z"/>
<path id="path4012" class="st7" d="M1045,478.9C1084.1,495.9,1023.2,493.2,1045,478.9z"/>
<path id="path4010" class="st7" d="M1053.1,494.4l7,4.2l-12.1,11l-7.5-5.2L1053.1,494.4z"/>
<path id="path4008" class="st7" d="M1022.1,502.6C1039.5,503.9,1021.8,514.2,1022.1,502.6z"/>
<path id="path4006" class="st7" d="M999.8,514.1C1026.8,527.9,981.8,530.5,999.8,514.1z"/>
<path id="path4004" class="st7" d="M762.6,525.3C798.9,538.3,732.8,543,762.6,525.3z"/>
<path id="path4002" class="st7" d="M1033.2,513.4l5.3,6.1l-12.5,19.3l-5.8-3.2C1021.3,528.9,1029.1,518.1,1033.2,513.4z"/>
<path id="path4000" class="st7" d="M799.4,527.2C827.9,536.6,782.5,549.1,799.4,527.2z"/>
<path id="path3998" class="st7" d="M777,531.2C794.3,548.8,763.1,552.6,777,531.2z"/>
<path id="path3996" class="st7" d="M818.9,539.6C840.7,551.3,806.4,556.2,818.9,539.6z"/>
<path id="path3994" class="st7" d="M995.3,536.7C1025.4,543.9,983.3,556.5,995.3,536.7z"/>
<path id="path3992" class="st7" d="M856.4,543.5C877.2,546.4,846.9,553.1,856.4,543.5z"/>
<path id="path3990" class="st7" d="M928.2,541.8C951.5,551.9,916.7,555.7,928.2,541.8z"/>
<path id="path3988" class="st7" d="M756.9,550.8C789.7,564,737.5,573.1,756.9,550.8z"/>
<path id="path3986" class="st7" d="M792.5,556.8C827.4,569.4,771.3,571.6,792.5,556.8z"/>
<path id="path3984" class="st7" d="M961,549.2C984.9,562.9,944.8,563.9,961,549.2z"/>
<path id="path3982" class="st7" d="M1001.8,550.7l7.7,3.9l-18.8,7.1l-6.7-6.3L1001.8,550.7z"/>
<path id="path3980" class="st7" d="M883,557.4C911.9,562.1,868.6,581.7,883,557.4z"/>
<path id="path3978" class="st7" d="M818.5,560.9C842.4,578,803.2,573.2,818.5,560.9z"/>
<path id="path3976" class="st7" d="M845.2,561.7C873.7,570.9,834.5,578.3,845.2,561.7z"/>
<path id="path3974" class="st7" d="M916.8,561.7C936.2,564.4,914,577.1,916.8,561.7z"/>
<path id="path3972" class="st7" d="M754.8,570.4c3.5,2,24.1,10.4,24.8,14.6l-24.2-9.4L754.8,570.4z"/>
<path id="path3970" class="st7" d="M963,568.1l8.7,2.4l-13.4,9.3l-5.5-4.6L963,568.1z"/>
<path id="path3968" class="st7" d="M782.7,577.8l15.1,2.8l7.5,8.1l-16.1-0.6L782.7,577.8z"/>
<path id="path3966" class="st7" d="M905.1,572.9c6,1.6,22,5.4,25.7,11c-5.1,0.7-15.4-1-20.5-2.5L905.1,572.9z"/>
<path id="path3963" class="st7" d="M833.2,576.2c5.2,1.3,19.7,4,22.7,9.4l-11.7-0.5L833.2,576.2z"/>
<path id="path3961" class="st7" d="M889.4,575l7.8,4.9l-17.4,4.6l-8.9-5.4L889.4,575z"/>
<path id="path3423" class="st7" d="M821.7,579.5l7.1,5l-11.8,3.7l-4.6-3.3L821.7,579.5z"/>
<path id="path3957" class="st7" d="M401.8,149.4c-41.3,1.6-8.2,19.2,2.3,0.5C403.4,149.4,402.6,149.3,401.8,149.4z"/>
<path id="path3955" class="st7" d="M310.9,158.8c-31,3.4-17.2,11.3-1.1,6.5c-7.1,1.7-29.5,6.7-22.4,8.5c10.9,0.7,51.8-7.6,22.5-8.5
	c2.2-1.2,3.6-3.1,3.3-5.9C312.4,158.8,311.7,158.7,310.9,158.8z"/>
<path id="path3953" class="st7" d="M229.6,174.3c-12.1-0.4-18.9,5.6-7,9.9C230.8,199,257.7,171.5,229.6,174.3z"/>
<path id="path3951" class="st7" d="M192.9,197c-24.1,0.6-13,36.5,8.5,8.6C228.2,202.5,210.3,194.4,192.9,197z"/>
<path id="path3949" class="st7" d="M84.5,220.2c-34.4,10-3.9,23.9,5.7,0.9L84.5,220.2z"/>
<path id="path3947" class="st7" d="M61.5,239.5c-38.4,2.3-1.5,32.6,11.3,15.9C71.9,250,70,236.9,61.5,239.5z"/>
<path id="path3945" class="st7" d="M21.2,269.9C7.7,270.5,23.7,278.3,21.2,269.9z"/>
<path id="path3943" class="st7" d="M67.9,268.9c-51.9,22,11.5,33.1,4.9,2.2L67.9,268.9z"/>
<path id="path3941" class="st7" d="M5.9,282.7l-5.4,2.9c-2,12.6,2.3,19.4,6.9,25.8l6.8-3.9L9.8,299l-3.6,1.2l-2.6-8.4l2.2-1.7
	L5.9,282.7z"/>
<path id="path3939" class="st7" d="M30.6,282.5C10.1,286.4,33,294.9,30.6,282.5z"/>
<path id="path3937" class="st7" d="M96.4,299.4c-15.6,1-14.1,18.2-5.8,20C100.1,321.6,112.4,299.1,96.4,299.4z"/>
<path id="path3935" class="st7" d="M45.5,306.7C16.9,307.9,47,324.4,45.5,306.7z"/>
<path id="path3933" class="st7" d="M137.5,316.5C101.8,334.2,157.3,335.9,137.5,316.5z"/>
<path id="path3929" class="st7" d="M32.8,322.4l-6.6,2.5l7.2,4.5l4.9-2.3L32.8,322.4z"/>
<path id="path3927" class="st7" d="M206.4,318.7c-38.6,10.6,8.9,33.5,11.6,3.9C215.6,318.9,210.2,319.5,206.4,318.7z"/>
<path id="path3925" class="st7" d="M46.3,329.5l-4.4,3.8l5.8,2.5l3.6-2.6L46.3,329.5z"/>
<path id="path3923" class="st7" d="M83.3,330.4C55,331.7,84.6,348,83.3,330.4z"/>
<path id="path3921" class="st7" d="M252.3,323.7C212.4,345.1,280.4,337.7,252.3,323.7z"/>
<path id="path3919" class="st7" d="M155.3,336.7C130.4,344,167.6,352.6,155.3,336.7z"/>
<path id="path3917" class="st7" d="M129.9,340.5C101.4,341.8,131.4,358.1,129.9,340.5z"/>
<path id="path3915" class="st7" d="M74.3,344.9l-6.4,3.5l9,3.2l4.4-3.8L74.3,344.9z"/>
<path id="path3913" class="st7" d="M91,347.7l-4.6,4.2l5.9,1.5l4.1-4.3L91,347.7z"/>
<path id="path3911" class="st7" d="M116.7,354.4l-4.2,4l14.4-1.6l1.5-2.8L116.7,354.4z"/>
<path id="path3909" class="st7" d="M142.6,353.4l-5.1,4.4l8.8,3.6l5.5-4.9L142.6,353.4z"/>
<path id="path3907" class="st7" d="M199.9,351.9C161.1,354.9,197.2,367,199.9,351.9z"/>
<path id="path3905" class="st7" d="M229.9,350.6C195.8,361.4,250.2,366.2,229.9,350.6z"/>
<path id="path3903" class="st7" d="M267.9,353.4C242.5,376.5,301.5,361.3,267.9,353.4z"/>
<path id="path3901" class="st7" d="M178.8,366.6l-2.7,3.8l15.5,0.6l3.8-4.3L178.8,366.6z"/>
<path id="path3899" class="st7" d="M213.7,367.4l-6.3,6l14.7,5.8l3.9-4.8L213.7,367.4z"/>
<path id="path3897" class="st7" d="M307.3,371.3C285.5,380.6,321.3,382.4,307.3,371.3z"/>
<path id="path3895" class="st7" d="M263.4,375.5C236.2,383.4,274.8,387.1,263.4,375.5z"/>
<path id="path3893" class="st7" d="M293.7,387.5C265.4,405.8,316.4,396.1,293.7,387.5z"/>
<path id="path3891" class="st7" d="M257.7,389.7l-7.3,3.9l10.3,5.2l5.9-3.9L257.7,389.7z"/>
<path id="path3889" class="st7" d="M278.6,398.9l-6.2,3.9l12,8.2l4.8-3.8L278.6,398.9z"/>
<path id="path3887" class="st7" d="M314.1,420l-6.3,4.8l15,5.2l4.8-4.2L314.1,420z"/>
<path id="path3885" class="st7" d="M338.9,427.8l-8.3,4.9l5.4,1.9l7.3-5.5L338.9,427.8z"/>
<path id="path3883" class="st7" d="M349.6,431.1l-7.6,5.7l2.2,0.7l7-5.8L349.6,431.1z"/>
<path id="path3881" class="st7" d="M357.4,433.6l-7.3,6.1l11.4,4l9-6L357.4,433.6z"/>
<path id="path3879" class="st7" d="M399.8,443.2C375.6,460.2,417.4,459.1,399.8,443.2z"/>
<path id="path3877" class="st7" d="M391.1,455.9l-7.5,7l4.3,16.8l7.6-5.9L391.1,455.9z"/>
<path id="path3875" class="st7" d="M411.2,470.2C388.9,488.1,428.8,485.2,411.2,470.2z"/>
<path id="path3873" class="st7" d="M434.4,481.2C415.9,494.1,450.6,490,434.4,481.2z"/>
<path id="path3871" class="st7" d="M400.7,488.2l-7.1,6.9l10.1,21.1l6.4-5.9L400.7,488.2z"/>
<path id="path3869" class="st7" d="M428.6,507.6C391.5,528.1,451.8,519.8,428.6,507.6z"/>
<path id="path3867" class="st7" d="M422.1,523.7l-6.5,4.9l13.2,9.8l6.9-5.9L422.1,523.7z"/>
<path id="path3865" class="st7" d="M453.9,529C436.7,532,455.4,540.5,453.9,529z"/>
<path id="path3863" class="st7" d="M477.4,538.5C451.9,554.7,497,553.1,477.4,538.5z"/>
<path id="path3861" class="st7" d="M714.6,527.8C679.9,544.1,746.1,542.7,714.6,527.8z"/>
<path id="path3859" class="st7" d="M444.1,540.8l-4.6,6.5l14.5,18.1l5.4-3.7C457.5,555.1,448.6,545.1,444.1,540.8z"/>
<path id="path3857" class="st7" d="M678.2,533.1C650.8,545,697.3,553.3,678.2,533.1z"/>
<path id="path3855" class="st7" d="M700.9,534.9C685.5,554.1,717,555,700.9,534.9z"/>
<path id="path3853" class="st7" d="M660.1,547.2C639.6,560.8,674.3,562.6,660.1,547.2z"/>
<path id="path3851" class="st7" d="M484.2,560.5C455,570.4,498.2,579.1,484.2,560.5z"/>
<path id="path3849" class="st7" d="M623.2,554.5C602.8,559.3,633.6,563.2,623.2,554.5z"/>
<path id="path3847" class="st7" d="M551.6,559.4C529.4,571.7,564.5,572.2,551.6,559.4z"/>
<path id="path3845" class="st7" d="M722.9,552.6C691.7,568.8,744.6,573,722.9,552.6z"/>
<path id="path3843" class="st7" d="M688.2,561.9C654.8,577.6,710.8,574.7,688.2,561.9z"/>
<path id="path3841" class="st7" d="M519.7,569.8C497.3,585.6,537.4,583,519.7,569.8z"/>
<path id="path3839" class="st7" d="M479.2,575.1l-7.3,4.5l19.4,5.3l6-6.9L479.2,575.1z"/>
<path id="path3837" class="st7" d="M598.1,570.8C569.9,578.1,615.1,593.7,598.1,570.8z"/>
<path id="path3835" class="st7" d="M662.7,568.4C640.8,587.5,679.3,579.2,662.7,568.4z"/>
<path id="path3833" class="st7" d="M636.2,571.6C608.9,583.4,648.7,587.2,636.2,571.6z"/>
<path id="path3831" class="st7" d="M565,578.2C545.9,582.7,569.4,593.2,565,578.2z"/>
<path id="path3829" class="st8" d="M727.1,572c-3.3,2.3-22.8,12.6-23.2,16.8l23-11.6L727.1,572z"/>
<path id="path3827" class="st7" d="M519.7,588.8l-8.4,3.2l14.3,8l5-5.1L519.7,588.8z"/>
<path id="path3825" class="st7" d="M700.2,581.9l-14.8,4.2l-6.6,8.7l16-2.1L700.2,581.9z"/>
<path id="path3823" class="st7" d="M577.9,588.3c-5.7,2.1-21.3,7.3-24.4,13.3c5.1,0.2,15.2-2.4,20.1-4.4L577.9,588.3z"/>
<path id="path3821" class="st7" d="M649.8,585c-5,1.8-19.2,5.8-21.6,11.4l11.6-1.5L649.8,585z"/>
<path id="path3819" class="st7" d="M593.7,588.9l-7.2,5.5l17.8,3l8.2-6.2L593.7,588.9z"/>
<path id="path3967" class="st7" d="M661.5,587.2l-6.5,5.6l12.2,2.5l4.2-3.7L661.5,587.2z"/>
<path id="path7636" class="st9" d="M1074.2,408.1l13.6,0.6c-27.5,6.6-61.1-21.2-82.5-33.9C1027,388.3,1049,400.9,1074.2,408.1z"/>
<radialGradient id="path3280_1_" cx="265.591" cy="525.4073" r="73.7241" gradientTransform="matrix(-1.9647 2.2861 -3.5504 -2.6249 3034.5073 1106.7644)" gradientUnits="userSpaceOnUse">
	<stop  offset="0" style="stop-color:#D7A801"/>
	<stop  offset="1" style="stop-color:#E3700D"/>
</radialGradient>
<path id="path3280" class="st10" d="M256.7,230.3c-45.6,19.6-86.3,54.9-106.8,88.8c1.2,0,2.8,0,5-0.1
	C215.3,289,275.9,225.9,256.7,230.3z M362.4,176.8c-18.4,5.6-39.1,29.7-43.9,38c0.5,1.4,0.7,2.6,0.8,3.8c82.3,11.1,76.9,5,145.7-1.7
	c45.7-14,130.1-36.2,198.8-45.8c0.3-0.8,0.7-1.6,1.1-2.3C561.5,157.6,470.8,141.5,362.4,176.8z M640.5,184.2
	c-58.2,10.2-113.8,22.6-163.7,39.6l0.1,0.1c-38.3,60.2-125,123.2-132.2,147c44.3,82.2,82.5-7.2,122.2-32.5
	c26.9-22.7,57.5-45,92.7-67.6C587.4,241.8,605.5,206.8,640.5,184.2z M314.8,227.2c-37,13-30.6,6.7-51.1,28.1
	c-37.9,40.7-7.6,41-29.7,71.1c10.7-0.7,27.6-25.8,39.8-16.1c41.1-18.2,68.8-50.8,103.3-76.2L314.8,227.2z M463.8,226.2l-75.7,8.3
	l1.5,1.6c-33.8,29.2-79.6,56.9-101.4,87.6c3.8,29.5,21.8,27.1,41.4,36.5C332.7,365.5,426.7,281.4,463.8,226.2z M656.2,231.2
	c-24.8,1.4-30.5,27.8-46.2,43.2c-14.2,19.9-37.2,31.1-48.5,39.8l-5.9,23.9c11.6,13.8,5.3,29.9-3.6,48.2c5.2,17.2,8.8,34.6,9,52.3
	c5.8-3.5,12.3-7.1,19.8-6.4c31.1-59,32.2-50.9,43.6-66.6c6-44.7,22.9-89.6,38.8-134.2C661.3,231.1,658.3,231.1,656.2,231.2z
	 M671,233c-16,45-32.9,89.8-38.8,133.8l0.7,0c5.2,55.8,14.6,110.4,35.1,161.6c8.4-9,24.1,8.5,35,5.1c-21.1-95.6-23.1-195.9-28-295.1
	C673.5,236.6,672.2,234.8,671,233z M551.8,321.4c-19.3,14.1-43.6,34-109.8,91.5c4.7,4.5,7.9,10.2,9,16.6
	c32.2-31.8,65.2-68.2,96.6-91.2C547.6,337.8,551.6,322.3,551.8,321.4z M551.3,345c-31.8,23.6-66.5,62.2-100.4,95.1
	c-8.6,19.2,0.8,30.8,16.6,40.3c0.6,4.3-0.3,2.8,0.1,7.9c14.3-5,43.1-56.2,76.2-102.5C551,370.1,558.2,358,551.3,345z M625.9,375.5
	c-7.5,8.4-12.3,11.3-38,60l1.2-0.1c0.4,36.6,9.5,73.1,17.9,109.9c31.4-0.1,38.5,11.9,54.8-11.1C641.1,483.7,631.4,430.1,625.9,375.5
	z M546.1,395c-24.7,37.2-51.4,74.1-75.7,112.5c5.5,29.7,18.6,32.5,43.3,32.7c13.6-7,19.5-71.5,39.7-93.9
	C554.2,430.5,550.8,411.7,546.1,395z M578.4,439.3c-5.4,0.5-9.8,3-18.2,8.8l0.8,0.7c-18.8,18.9-24.2,57.9-31.5,95
	c21.2,3,43.3,5.9,65.2,2c4.5-12.3-12.2-70.6-13.2-106.5C580.4,439.3,579.5,439.3,578.4,439.3z M104,236.6c-9.8,13.3-33,26-27.9,44.1
	c34.4-14.6,70.9-40.2,108.5-71.8C152.4,199.3,127.8,219.5,104,236.6z M207.7,219.4c-50.8,14.7-81.3,46.9-107.3,83.2
	c0.6,0.4,1.2,0.7,1.8,1c41-22.6,81-42.4,114.5-79C214.8,223.6,211.4,221.4,207.7,219.4z M173.3,315.8
	C160.5,324.8,188.5,314.4,173.3,315.8z M458.1,397.4c-21,14.2-47.4,40.7-86.7,40.2c42.2,4.6,70.9-29.1,86.9-40.1L458.1,397.4z
	 M659.9,183.4c-32,16.8-52.1,43.1-73.3,70.6c52.5-33.2,59.1-44.8,72.3-59.5C658.9,190.8,659.2,187,659.9,183.4z"/>
<path id="path3965" class="st6" d="M186.4,226.9c41-39.6,54.5-5.2,36,4.5c-5,4-15.5,13.8-18.5,4
	C192.5,237.4,195.9,229.1,186.4,226.9z M200.8,258.7c-15.6-1.3-37.5,27.2-31.3,32.6c7.4-0.5,12.5,3.8,20.1,1.1
	c-2.6,20.7,45.9-17.4,15.9-23C202.6,266.5,204.5,261.4,200.8,258.7z M290.5,208.1c-11.3,4.8-32.8,15.5-29.3,25.2
	C269.8,239.6,317.8,208.4,290.5,208.1z M308.1,183.2c-8.7-3.5-43.2,1.4-28.5,13.5C281.7,211.7,313.4,191.7,308.1,183.2L308.1,183.2z
	"/>
<path id="path4350" class="st11" d="M703.1,152.7l4.3,6.7c6.1-1.3,18.2-1.8,24.4-0.7l3.5-7l3.1,10.6c17.6,0.9,18.3,22,1.1,24
	c2.2,4.6,5.3,5.6,9.1,13c55.8,17.3,6.3,25.2,27.1,43.9c9.9,9.4,21.4,19.1,20.3,34.9c-13.2,3.7-30.2,5.3-40,18.3
	c1.3,50.1,9.5,102.2,8.4,151.1c0.2,0.1,0.4,0.2,0.6,0.3c-0.2-0.1-0.4-0.2-0.6-0.2c0,10-0.2,19.8-0.6,29.7c0.5,0.3,1,0.6,1.5,0.9
	c-0.5-0.2-1.1-0.3-1.6-0.5c-0.3,7.8-0.8,15.6-1.5,23.3c1.2,0.6,2.6,1.2,3.9,1.9c-1.3-0.4-2.6-0.8-3.9-1.2c-0.6,6.6-1.2,13.1-2,19.5
	c0.8-0.4,1.8-0.8,2.6-1.2c-0.9,0.7-1.8,1.3-2.6,1.9c-0.6,4.4-1.3,8.9-2,13.3l-6.3,2.2c5.9,14.9-7.8,32-8,42.9
	c-1.5-10.8-16.3-27.1-12.3-42.4l-6.5-1.6c-1.1-3.8-2.1-7.6-3-11.5c-1.2-0.6-2.6-1.3-3.9-2.1c1.2,0.4,2.4,0.7,3.6,1
	c-1.7-6.8-3.2-13.7-4.7-20.7c-1.2,0.4-2.5,0.7-3.7,1.2c1.2-0.7,2.3-1.4,3.4-2.1c-14.7-65.3-12.2-136.5-18-205.7
	c-26.6-21.7-63.2,2.9-21-50.3c13-19-27.7-26.5,16.4-42.2c2.8-8.3,5.3-9.3,8.5-16c-17.7-0.6-18.6-21.6-1.6-24L703.1,152.7z"/>
<path id="path4029" class="st12" d="M734.7,145.5c19.1,20.6,43.8,13.8,37.5,35.2c-2.5,6.7-8.1,14-1.3,20.6
	c10.1,10.3,24.1,23.2,22.5,40.4c-28.9,6.6-28.7,9.3-42.9,22.3c-51.3,18-53.2-10.4-73.7-13.2c-13.2-2.2-22,2.2-19.2-13.4
	c0.6-8.3,5.8-14.5,10.6-22.3c25.5-23.9-8.8-28.6,6.5-46C727.9,137.1,689.4,151.1,734.7,145.5z"/>
<path id="path4018" class="st13" d="M741.3,572.8c-1.5-11.8-16.3-29.7-12.2-46.4l-6.6-1.8c-28.9-118.9-16.2-169.8-27.7-270
	c-15.3-29.3-13.2-30.9,0.9-52.1c-23.8-43.3,17.6-55.6,2.2-81.8c0.3-1.9,2.4-15.8,2.5-16.2l4.3,7.3c6.1-1.3,18.2-2,24.4-0.8l3.5-7.6
	c6.5,17.4,1.9,22.8,2.2,30.6c14.6,34.5,25.4,36,12.9,66.5c29.1,31.3,4.6,36.7,5.7,60.6c3.9,88.5,15.4,179.5,2.1,262.3l-6.4,2.4
	C755.2,542.1,741.6,560.8,741.3,572.8z"/>
<path id="path4533" class="st14" d="M596.2,22.7c20.4-1,29.2,26.2,46.3,35.5c25.5,19.5,56.4,31.3,69.5,62l-3.1,1.6
	c-10.4-25-36-39.1-58.7-53.9l-0.1,0c-12.5-8.7-24.5-18.3-33.8-30.5l-0.1,0c-2-3.1-7.3-8.4-12.4-10.8c-1.3,2.5-16.4,9.3-15.5,2.5
	C590.4,25.6,593.2,23.5,596.2,22.7z M878.1,23.5c33,1.5,16.9,22.6,0.1,3.2c-4.9,0.2-12.6,2.5-17.8,6.4
	c-66.3,39.2-120.3,54.5-142.1,86l-3-1.4c23.9-32.1,68.6-45.8,98.5-63.1C833.8,46.6,861.5,24.8,878.1,23.5z"/>
<radialGradient id="path4064_1_" cx="460.4877" cy="553.4659" r="3.5793" gradientTransform="matrix(-1.3148 0.5771 -1.6791 -3.2907 2276.6462 1679.5979)" gradientUnits="userSpaceOnUse">
	<stop  offset="0" style="stop-color:#929292"/>
	<stop  offset="1" style="stop-color:#000000;stop-opacity:0.998"/>
</radialGradient>
<path id="path4064" class="st15" d="M734.8,114.9c20.1,0.3,19,26.2,0.5,26.4c0-6.3-3.7-17.7-5.9-25.1
	C731,115.5,732.9,115,734.8,114.9z"/>
<radialGradient id="path4077_1_" cx="403.0187" cy="544.6522" r="3.5806" gradientTransform="matrix(1.37 0.4534 1.319 -3.4289 -576.9741 1811.1498)" gradientUnits="userSpaceOnUse">
	<stop  offset="0" style="stop-color:#929292"/>
	<stop  offset="1" style="stop-color:#000000;stop-opacity:0.998"/>
</radialGradient>
<path id="path4077" class="st16" d="M699.7,116.6c-20.1,2.2-15.9,27.9,2.4,26.3c-0.6-6.2,1.8-17.9,3.2-25.6
	C703.5,116.8,701.6,116.5,699.7,116.6z"/>
<path id="path4089" d="M715.1,115.8c13.5,0.4,14.6,33.9,3.3,36.9c13.6,7.7,11.2,41.6-4.1,39.7c-16-2.9-15.2-38.8-1.2-40.7
	C703.4,145.9,703.6,116.7,715.1,115.8z M714.1,199.1c21.4,0.5,21.1,35.3,2,36.8C694.8,235.4,694.8,200.6,714.1,199.1z M709.9,256.7
	c5.5,1.3,13.8,1.8,21.2-0.6C756,529.6,710,487.9,709.9,256.7z"/>
<g id="g4164" transform="matrix(-3.1480772,0.1451262,0.156467,2.919904,1999.6447,-285.17603)">
	<path id="path4143" class="st17" d="M407.9,136.2c-1.8,2.8-5,1.8-3.1-1.9C406.5,131.5,409.8,132.6,407.9,136.2L407.9,136.2z"/>
	<path id="path4160" class="st17" d="M411.6,128.2c-1.6,2.4-3.8,0.1-1-2.1C411.7,125.6,412.4,126.3,411.6,128.2L411.6,128.2z"/>
	<path id="path4162" class="st17" d="M412.4,118c-0.3,3.8-3.9,0.5-1.2-1.5C411.6,116.4,412.2,116.7,412.4,118L412.4,118z"/>
</g>
<g id="g4169" transform="matrix(3.1480772,-0.1451262,0.156467,2.919904,-602.27219,-165.24517)">
	<path id="path4171" class="st17" d="M407.9,136.2c-1.8,2.8-5,1.8-3.1-1.9C406.5,131.5,409.8,132.6,407.9,136.2L407.9,136.2z"/>
	<path id="path4173" class="st17" d="M411.6,128.2c-1.6,2.4-3.8,0.1-1-2.1C411.7,125.6,412.4,126.3,411.6,128.2L411.6,128.2z"/>
	<path id="path4175" class="st17" d="M412.4,118c-0.3,3.8-3.9,0.5-1.2-1.5C411.6,116.4,412.2,116.7,412.4,118L412.4,118z"/>
</g>
<radialGradient id="path4177_1_" cx="469.9413" cy="535.3283" r="2.0759" gradientTransform="matrix(-3.7219 0.1715 -1.3556 -25.3059 3188.1914 13677.3193)" gradientUnits="userSpaceOnUse">
	<stop  offset="0" style="stop-color:#FFFFFF;stop-opacity:0"/>
	<stop  offset="0.605" style="stop-color:#FFFFFF"/>
	<stop  offset="0.7944" style="stop-color:#FFFFFF;stop-opacity:0.3103"/>
	<stop  offset="0.875" style="stop-color:#FFFFFF;stop-opacity:0.7333"/>
	<stop  offset="1" style="stop-color:#FFFFFF;stop-opacity:0"/>
</radialGradient>
<path id="path4177" class="st18" d="M709.3,212.3c8.7,101.9,8.2,28.8,3.3-39.6C710.6,141.6,706.6,168.6,709.3,212.3z"/>
<radialGradient id="path4271_1_" cx="491.2444" cy="494.8058" r="8.8535" gradientTransform="matrix(0.2326 2.0027 -3.0633 0.306 2133.7959 -745.1242)" gradientUnits="userSpaceOnUse">
	<stop  offset="0" style="stop-color:#FFFFFF;stop-opacity:0"/>
	<stop  offset="0.6623" style="stop-color:#FFFFFF"/>
	<stop  offset="0.7693" style="stop-color:#FFFFFF;stop-opacity:0.3103"/>
	<stop  offset="0.8542" style="stop-color:#FFFFFF;stop-opacity:0.7333"/>
	<stop  offset="1" style="stop-color:#FFFFFF;stop-opacity:0"/>
</radialGradient>
<path id="path4271" class="st19" d="M759,395.8c-17-6.5-36.7-5.1-52.6,1.5C725.5,384.5,738.5,383.8,759,395.8z"/>
<radialGradient id="path4293_1_" cx="491.2444" cy="494.8058" r="8.8535" gradientTransform="matrix(0.2326 2.0027 -3.0633 0.306 2137.3875 -713.3199)" gradientUnits="userSpaceOnUse">
	<stop  offset="0" style="stop-color:#FFFFFF;stop-opacity:0"/>
	<stop  offset="0.6623" style="stop-color:#FFFFFF"/>
	<stop  offset="0.7693" style="stop-color:#FFFFFF;stop-opacity:0.3103"/>
	<stop  offset="0.8542" style="stop-color:#FFFFFF;stop-opacity:0.7333"/>
	<stop  offset="1" style="stop-color:#FFFFFF;stop-opacity:0"/>
</radialGradient>
<path id="path4293" class="st20" d="M762.6,427.6c-17-6.5-36.7-5.1-52.6,1.5C729.1,416.3,742.1,415.6,762.6,427.6z"/>
<radialGradient id="path4297_1_" cx="491.2444" cy="494.8058" r="8.8535" gradientTransform="matrix(0.2326 2.0027 -3.0633 0.306 2137.7048 -680.1184)" gradientUnits="userSpaceOnUse">
	<stop  offset="0" style="stop-color:#FFFFFF;stop-opacity:0"/>
	<stop  offset="0.6623" style="stop-color:#FFFFFF"/>
	<stop  offset="0.7693" style="stop-color:#FFFFFF;stop-opacity:0.3103"/>
	<stop  offset="0.8542" style="stop-color:#FFFFFF;stop-opacity:0.7333"/>
	<stop  offset="1" style="stop-color:#FFFFFF;stop-opacity:0"/>
</radialGradient>
<path id="path4297" class="st21" d="M762.9,460.8c-17-6.5-36.7-5.1-52.6,1.5C729.4,449.5,742.4,448.8,762.9,460.8z"/>
<radialGradient id="path4301_1_" cx="491.2444" cy="494.8058" r="8.8535" gradientTransform="matrix(0.2326 2.0027 -3.0633 0.306 2138.4253 -653.0364)" gradientUnits="userSpaceOnUse">
	<stop  offset="0" style="stop-color:#FFFFFF;stop-opacity:0"/>
	<stop  offset="0.6623" style="stop-color:#FFFFFF"/>
	<stop  offset="0.7693" style="stop-color:#FFFFFF;stop-opacity:0.3103"/>
	<stop  offset="0.8542" style="stop-color:#FFFFFF;stop-opacity:0.7333"/>
	<stop  offset="1" style="stop-color:#FFFFFF;stop-opacity:0"/>
</radialGradient>
<path id="path4301" class="st22" d="M763.6,487.9c-17-6.5-36.7-5.1-52.6,1.5C730.1,476.5,743.1,475.8,763.6,487.9z"/>
<radialGradient id="path4305_1_" cx="413.6979" cy="494.2978" r="8.8535" gradientTransform="matrix(-1.745509e-03 -2.0134 -2.6125 -4.436420e-02 2030.3724 1369.5074)" gradientUnits="userSpaceOnUse">
	<stop  offset="0" style="stop-color:#FFFFFF;stop-opacity:0"/>
	<stop  offset="0.6623" style="stop-color:#FFFFFF"/>
	<stop  offset="0.7693" style="stop-color:#FFFFFF;stop-opacity:0.3103"/>
	<stop  offset="0.8542" style="stop-color:#FFFFFF;stop-opacity:0.7333"/>
	<stop  offset="1" style="stop-color:#FFFFFF;stop-opacity:0"/>
</radialGradient>
<path id="path4305" class="st23" d="M760.2,506.7c-13.7,7.9-30.4,8.2-44.5,3C733.1,520.9,744.2,520.5,760.2,506.7z"/>
</svg>
