<svg xmlns="http://www.w3.org/2000/svg" viewBox="0 0 385.19 104.58">
  <defs>
    <style>
      .crunch-cls-1{fill:#002f5e;}
      .crunch-cls-2{fill:#007ac8;}
    </style>
  </defs>
  <title>crunching-the-numbers
  </title>
    <g id="Layer_1-2" data-name="Layer 1">
      <path class="crunch-cls-1" d="M49.24,2.24a35.26,35.26,0,0,1,7.9,3.42,44.13,44.13,0,0,1-1.67,5.79A22.23,22.23,0,0,0,51,9.28a12.11,12.11,0,0,0-4.06-.69c-2.71,0-4.07,1.27-4.54,3.68s.14,6.09.18,11.06-.59,8.52,0,10.91,1.93,3.61,4.71,3.65a11.53,11.53,0,0,0,4.4-.84,31.27,31.27,0,0,0,4.89-2.51,41.28,41.28,0,0,1,1.52,5.85,34.14,34.14,0,0,1-8,3.86,24.87,24.87,0,0,1-8.48,1.39c-3.85-.08-6.44-1-7.88-2.75S32,38.6,32.2,35.27s.85-7.3.84-11.94-.63-8.42-.76-11.73S32.39,5.75,33.86,4,37.8,1.27,41.45,1.2A26.35,26.35,0,0,1,49.24,2.24Z"/>
      <path class="crunch-cls-1" d="M74.85,28.52H71.28A43.33,43.33,0,0,1,65,45l-9.77-.16Q69.92,23.44,55.2,2L68.73,1.8c5.64-.09,10.53.94,14.26,3.1a14.31,14.31,0,0,1,7.17,10,9.82,9.82,0,0,1-1,7,13,13,0,0,1-5.71,4.75,59.12,59.12,0,0,1,4.81,18.67l-11-.14A47.26,47.26,0,0,0,74.85,28.52Zm-3.25-7h3.83a5.75,5.75,0,0,0,4.47-1.57c.92-1.05,1.26-2.7.78-5a7,7,0,0,0-2.93-4.57A10.12,10.12,0,0,0,72.05,9L68.67,9A38.1,38.1,0,0,1,71.6,21.47Z"/>
      <path class="crunch-cls-1" d="M121.26,30.89a16.42,16.42,0,0,1-9.64,13.72,21.66,21.66,0,0,1-9.59,2c-5.3,0-8.66-1.52-10.24-4.37S90.21,35.55,91,30.79q2.34-14.62-4.63-29.24l9.77-.11a55.77,55.77,0,0,1,4.09,29c-.37,2.84-.38,4.94.25,6.33s2,2.08,4.09,2.1a6.59,6.59,0,0,0,5.15-2,11,11,0,0,0,2.42-6.34,68.55,68.55,0,0,0-3.31-29.11l9.77-.08A83.22,83.22,0,0,1,121.26,30.89Z"/>
      <path class="crunch-cls-1" d="M153.1,45.77l-12.45,0c-2.43-11.54-5.21-23.06-10.31-34.55a80.12,80.12,0,0,1,1.51,9,58.71,58.71,0,0,1,.2,9.22A115.22,115.22,0,0,1,130,45.69l-8.7,0a88.91,88.91,0,0,0,0-44.43l12.16-.07c6.13,11.51,9.79,23.06,13,34.62q-.74-8.83-.92-16.62-.19-9-1.19-18l8.76,0A394.24,394.24,0,0,1,153.1,45.77Z"/>
      <path class="crunch-cls-1" d="M180.05,1.23a15.65,15.65,0,0,1,5.21,3.69c-1.75,2-3.42,4-5,6a13.22,13.22,0,0,0-3.33-2.33,8.48,8.48,0,0,0-3.63-.78,7.23,7.23,0,0,0-6.42,3.8c-1.57,2.54-2.34,6.45-2.34,11.74s.77,9.06,2.33,11.58a7.33,7.33,0,0,0,6.52,3.77,8.06,8.06,0,0,0,3.9-.94,19.32,19.32,0,0,0,3.64-2.68q2.25,3,4.72,6a15.21,15.21,0,0,1-5.08,4.14,15.52,15.52,0,0,1-7.17,1.63,18.12,18.12,0,0,1-10-2.7,16.42,16.42,0,0,1-6.31-8A34.29,34.29,0,0,1,155,23.34a32.65,32.65,0,0,1,2.13-12.58,16.93,16.93,0,0,1,6.4-8A17.58,17.58,0,0,1,173.25,0,17.2,17.2,0,0,1,180.05,1.23Z"/>
      <path class="crunch-cls-1" d="M208.28,45.61a81.62,81.62,0,0,1-3.09-19H193.63a110.82,110.82,0,0,0,2.25,19.08l-9.77.05a153.66,153.66,0,0,1,0-44.61l9.77.05A110.2,110.2,0,0,0,193.7,18.4l11.59,0a81.5,81.5,0,0,1,3-17.15l9.77.08a65.88,65.88,0,0,0,0,44.2C214.79,45.56,211.54,45.58,208.28,45.61Z"/>
      <path class="crunch-cls-1" d="M231.1,1.46a53.49,53.49,0,0,0,0,43.93l-9.77.1a62.27,62.27,0,0,1,0-44.14Z"/>
      <path class="crunch-cls-1" d="M266.14,44.91l-12.45.2C243.24,34,238.66,22.74,238,11.43a53.89,53.89,0,0,0-.67,8.79,70.06,70.06,0,0,0,.58,9,50.26,50.26,0,0,0,5.14,16l-8.7.11q-9.87-21.93,0-43.86l12.16.15c-1.9,11.33,0,22.57,7.63,33.71a28.81,28.81,0,0,1-3-16.09,43.42,43.42,0,0,1,6.28-17.47l8.76.14Q251.9,23.43,266.14,44.91Z"/>
      <path class="crunch-cls-1" d="M297.63,6.71c-2.89,1.71-5.53,3.43-7.95,5.16a8.84,8.84,0,0,0-2.62-2.5,7.78,7.78,0,0,0-3.73-.82,13.13,13.13,0,0,0-8.82,3.6,14.85,14.85,0,0,0-4.84,11.24A16.21,16.21,0,0,0,274,34.94a10.88,10.88,0,0,0,7.87,3.31,7,7,0,0,0,4.62-1.47,29.5,29.5,0,0,1-3.3-9.51l-5,0a27.27,27.27,0,0,1-1-7.07l14.73.05q-1.43,10.29,6.48,20.58A9.93,9.93,0,0,1,294,44.24a18.28,18.28,0,0,1-6.79,1.32,29.8,29.8,0,0,1-18-5.42c-5.16-3.76-9-9.36-9-16.75A18.06,18.06,0,0,1,265,11.28,29.36,29.36,0,0,1,276,3.7a30.8,30.8,0,0,1,12.08-2.41C293.51,1.42,296.43,3.25,297.63,6.71Z"/>
      <path class="crunch-cls-1" d="M324.07,35.73a6.47,6.47,0,0,1-3.78,1.15A4.45,4.45,0,0,1,317,35.65a4.91,4.91,0,0,1-1.2-3.57V21.9h-2.94V19.63h2.94V15.82l2.94-.35v4.16h4l-.32,2.27h-3.68V32a3.13,3.13,0,0,0,.46,1.9,1.84,1.84,0,0,0,1.55.59,4.8,4.8,0,0,0,2.24-.67Z"/>
      <path class="crunch-cls-1" d="M337.94,20.62a5.32,5.32,0,0,1,1.3,3.78V36.5H336.3V24.82a3.68,3.68,0,0,0-.69-2.53,2.62,2.62,0,0,0-2-.74,3.82,3.82,0,0,0-2.34.77,8.2,8.2,0,0,0-1.92,2.18v12h-2.94V12.88l2.94-.32V22a6,6,0,0,1,5-2.72A4.75,4.75,0,0,1,337.94,20.62Z"/>
      <path class="crunch-cls-1" d="M355.62,29.07H344.87a6.6,6.6,0,0,0,1.41,4.1,4.07,4.07,0,0,0,3.14,1.31,7,7,0,0,0,2.24-.35A8.84,8.84,0,0,0,353.8,33l1.28,1.76a9.3,9.3,0,0,1-5.89,2.11,6.84,6.84,0,0,1-5.49-2.3,9.47,9.47,0,0,1-2-6.34,12,12,0,0,1,.85-4.66A7.35,7.35,0,0,1,345,20.4a6.17,6.17,0,0,1,3.73-1.15,6.25,6.25,0,0,1,5.15,2.21,9.46,9.46,0,0,1,1.79,6.11Q355.68,28.31,355.62,29.07Zm-2.85-2.37a6.27,6.27,0,0,0-1-3.81,3.5,3.5,0,0,0-3-1.31q-3.62,0-3.94,5.31h7.9V26.7Z"/>
      <path class="crunch-cls-2" d="M49.68,53v50.4h-14L16.56,80.52v22.9H0V53H14l19.15,22.9V53Z"/>
      <path class="crunch-cls-2" d="M64.3,98.31Q57.82,92,57.82,80.74V53h17V80.24c0,3.7.66,6.38,2,8.06a7.75,7.75,0,0,0,11.44,0q2-2.52,2-8.06V53h16.7V80.74q0,11.31-6.48,17.57t-18.07,6.26Q70.78,104.57,64.3,98.31Z"/>
      <path class="crunch-cls-2" d="M160.06,103.42l-.14-23L149,98.88h-7.49L130.55,81.24v22.18H115.07V53h14l16.42,26.86,16-26.86h14l.14,50.4Z"/>
      <path class="crunch-cls-2" d="M231.34,81.89a12.13,12.13,0,0,1,2.45,7.63,11.61,11.61,0,0,1-5.47,10.26q-5.48,3.63-15.84,3.64H184.1V53H211q10.08,0,15.23,3.6a11.15,11.15,0,0,1,5.15,9.58,11.67,11.67,0,0,1-1.77,6.34,12.77,12.77,0,0,1-5.22,4.54A15,15,0,0,1,231.34,81.89Zm-30.53-17v7.49h7.92c3.7,0,5.54-1.25,5.54-3.74s-1.85-3.74-5.54-3.74h-7.92Zm15.84,22.68q0-4-5.62-4H200.81v7.92H211Q216.66,91.54,216.65,87.58Z"/>
      <path class="crunch-cls-2" d="M282,90.6v12.82h-41.9V53h41V65.84H256.83v5.9h21.31V84H256.83V90.6Z"/>
      <path class="crunch-cls-2" d="M310.53,90.75h-4.61v12.67h-17V53h24.26a29.86,29.86,0,0,1,12.17,2.3,17.91,17.91,0,0,1,8,6.62A18.1,18.1,0,0,1,336.16,72a17.81,17.81,0,0,1-2.45,9.43,17.27,17.27,0,0,1-7.06,6.41l10.58,15.55H319.1Zm6.77-23.08a7.56,7.56,0,0,0-5.18-1.55h-6.19V77.93h6.19a7.56,7.56,0,0,0,5.18-1.55,6.35,6.35,0,0,0,0-8.71Z"/>
      <path class="crunch-cls-2" d="M349.52,103.17a33,33,0,0,1-9.76-3.78L345.23,87a35.06,35.06,0,0,0,8.06,3.35,31.53,31.53,0,0,0,8.57,1.26,13.43,13.43,0,0,0,5-.68,2.2,2.2,0,0,0,1.51-2c0-1.06-.66-1.85-2-2.38a42.89,42.89,0,0,0-6.52-1.73,73.69,73.69,0,0,1-9.72-2.63,16.59,16.59,0,0,1-6.77-4.61q-2.88-3.21-2.88-8.68a15,15,0,0,1,2.66-8.64,17.65,17.65,0,0,1,8-6.12A33,33,0,0,1,364,51.87,46.32,46.32,0,0,1,374.2,53,31.7,31.7,0,0,1,383,56.27l-5.11,12.31a31.16,31.16,0,0,0-14-3.74q-6.56,0-6.55,3.17c0,1,.65,1.76,1.94,2.27a40.67,40.67,0,0,0,6.41,1.62,66.7,66.7,0,0,1,9.72,2.48A17,17,0,0,1,382.27,79c1.94,2.11,2.92,5,2.92,8.64a14.79,14.79,0,0,1-2.66,8.6,17.93,17.93,0,0,1-8,6.12,32.61,32.61,0,0,1-12.85,2.27A53.77,53.77,0,0,1,349.52,103.17Z"/>
    </g>
</svg>
