<svg xmlns="http://www.w3.org/2000/svg" xmlns:xlink="http://www.w3.org/1999/xlink" viewBox="0 0 322.44 338.17"><defs><style>.cls-1,.cls-2,.cls-3{fill:none;stroke:#75bee9;}.cls-1,.cls-10,.cls-11,.cls-12,.cls-13,.cls-14,.cls-15,.cls-16,.cls-2,.cls-3,.cls-4,.cls-5,.cls-6,.cls-7,.cls-8,.cls-9{stroke-miterlimit:10;}.cls-1{stroke-width:2px;opacity:0.75;}.cls-2{stroke-width:2.12px;opacity:0.5;}.cls-3{stroke-width:2.19px;opacity:0.35;}.cls-4{fill:#bb8269;}.cls-10,.cls-11,.cls-12,.cls-13,.cls-14,.cls-15,.cls-16,.cls-4,.cls-5,.cls-6,.cls-7,.cls-8,.cls-9{stroke:#231f20;}.cls-14,.cls-15,.cls-16,.cls-4{stroke-width:0.75px;}.cls-10,.cls-11,.cls-12,.cls-13,.cls-5,.cls-6,.cls-7,.cls-8,.cls-9{stroke-width:0.5px;}.cls-5{fill:url(#New_Gradient_Swatch);}.cls-6{fill:url(#New_Gradient_Swatch-2);}.cls-7{fill:url(#New_Gradient_Swatch-3);}.cls-8{fill:url(#New_Gradient_Swatch-4);}.cls-9{fill:url(#New_Gradient_Swatch-5);}.cls-10{fill:url(#New_Gradient_Swatch-6);}.cls-11{fill:url(#New_Gradient_Swatch-7);}.cls-12{fill:url(#New_Gradient_Swatch-8);}.cls-13{fill:url(#New_Gradient_Swatch-9);}.cls-14{fill:url(#linear-gradient);}.cls-15{fill:url(#linear-gradient-2);}.cls-16{fill:url(#linear-gradient-3);}</style><linearGradient id="New_Gradient_Swatch" x1="242.72" y1="249.01" x2="255.54" y2="249.01" gradientUnits="userSpaceOnUse"><stop offset="0" stop-color="#a1d2ed"/><stop offset="0.29" stop-color="#9fd1ed"/><stop offset="0.45" stop-color="#97cdeb"/><stop offset="0.57" stop-color="#89c6e8"/><stop offset="0.68" stop-color="#76bce4"/><stop offset="0.78" stop-color="#5cb0df"/><stop offset="0.87" stop-color="#3da1d8"/><stop offset="0.95" stop-color="#198fd0"/><stop offset="1" stop-color="#0082cb"/></linearGradient><linearGradient id="New_Gradient_Swatch-2" x1="242.72" y1="278.41" x2="255.54" y2="278.41" xlink:href="#New_Gradient_Swatch"/><linearGradient id="New_Gradient_Swatch-3" x1="268.71" y1="249.01" x2="281.53" y2="249.01" xlink:href="#New_Gradient_Swatch"/><linearGradient id="New_Gradient_Swatch-4" x1="268.71" y1="278.41" x2="281.53" y2="278.41" xlink:href="#New_Gradient_Swatch"/><linearGradient id="New_Gradient_Swatch-5" x1="295.02" y1="249.01" x2="307.85" y2="249.01" xlink:href="#New_Gradient_Swatch"/><linearGradient id="New_Gradient_Swatch-6" x1="242.72" y1="163.4" x2="255.54" y2="163.4" xlink:href="#New_Gradient_Swatch"/><linearGradient id="New_Gradient_Swatch-7" x1="268.71" y1="163.4" x2="281.53" y2="163.4" xlink:href="#New_Gradient_Swatch"/><linearGradient id="New_Gradient_Swatch-8" x1="295.02" y1="163.4" x2="307.85" y2="163.4" xlink:href="#New_Gradient_Swatch"/><linearGradient id="New_Gradient_Swatch-9" x1="295.02" y1="278.41" x2="307.85" y2="278.41" xlink:href="#New_Gradient_Swatch"/><linearGradient id="linear-gradient" x1="36.85" y1="293.07" x2="73.26" y2="293.07" gradientUnits="userSpaceOnUse"><stop offset="0" stop-color="#b1b3b6"/><stop offset="0.02" stop-color="#b4b6b9"/><stop offset="0.2" stop-color="#cacccd"/><stop offset="0.36" stop-color="#d7d9da"/><stop offset="0.52" stop-color="#dcddde"/><stop offset="0.54" stop-color="#d9dadb"/><stop offset="0.7" stop-color="#c3c4c7"/><stop offset="0.86" stop-color="#b6b7ba"/><stop offset="1" stop-color="#b1b3b6"/></linearGradient><linearGradient id="linear-gradient-2" x1="89.98" y1="293.07" x2="126.4" y2="293.07" xlink:href="#linear-gradient"/><linearGradient id="linear-gradient-3" x1="143.48" y1="293.07" x2="179.89" y2="293.07" xlink:href="#linear-gradient"/></defs><title>factory_1</title><g id="Layer_2" data-name="Layer 2"><g id="City"><ellipse class="cls-1" cx="55.06" cy="322.52" rx="20.53" ry="7.75"/><ellipse class="cls-2" cx="55.06" cy="323.57" rx="23.47" ry="9.94"/><ellipse class="cls-3" cx="55.06" cy="325.35" rx="25.84" ry="11.73"/><polygon class="cls-4" points="322.06 302.4 0.38 302.4 0.38 135.94 93.79 135.94 93.79 0.38 118.79 0.38 118.79 135.94 150.32 135.94 150.32 0.38 175.32 0.38 175.32 135.94 207.13 135.94 207.13 0.38 232.13 0.38 232.13 135.94 322.06 135.94 322.06 302.4"/><rect class="cls-5" x="242.72" y="238.45" width="12.83" height="21.12"/><rect class="cls-6" x="242.72" y="267.85" width="12.83" height="21.12"/><rect class="cls-7" x="268.71" y="238.45" width="12.83" height="21.12"/><rect class="cls-8" x="268.71" y="267.85" width="12.83" height="21.12"/><rect class="cls-9" x="295.02" y="238.45" width="12.83" height="21.12"/><rect class="cls-10" x="242.72" y="152.85" width="12.83" height="21.12"/><rect class="cls-11" x="268.71" y="152.85" width="12.83" height="21.12"/><rect class="cls-12" x="295.02" y="152.85" width="12.83" height="21.12"/><rect class="cls-13" x="295.02" y="267.85" width="12.83" height="21.12"/><path class="cls-14" d="M55.06,327.71c-12.68,0-18.21-4.66-18.21-14.68V276.62a18.26,18.26,0,0,1,18.21-18.2h0a18.25,18.25,0,0,1,18.2,18.2V313C73.26,323.05,67.73,327.71,55.06,327.71Z"/><ellipse class="cls-1" cx="108.19" cy="322.52" rx="20.53" ry="7.75"/><ellipse class="cls-2" cx="108.19" cy="323.57" rx="23.47" ry="9.94"/><ellipse class="cls-3" cx="108.19" cy="325.35" rx="25.84" ry="11.73"/><ellipse class="cls-1" cx="161.68" cy="322.52" rx="20.53" ry="7.75"/><ellipse class="cls-2" cx="161.68" cy="323.57" rx="23.47" ry="9.94"/><ellipse class="cls-3" cx="161.68" cy="325.35" rx="25.84" ry="11.73"/><path class="cls-15" d="M108.19,327.71C95.51,327.71,90,323.05,90,313V276.62a18.26,18.26,0,0,1,18.21-18.2h0a18.26,18.26,0,0,1,18.21,18.2V313C126.4,323.05,120.86,327.71,108.19,327.71Z"/><path class="cls-16" d="M161.68,327.71c-12.67,0-18.2-4.66-18.2-14.68V276.62a18.25,18.25,0,0,1,18.2-18.2h0a18.26,18.26,0,0,1,18.21,18.2V313C179.89,323.05,174.36,327.71,161.68,327.71Z"/></g></g></svg>