
<svg xmlns="http://www.w3.org/2000/svg" viewBox="0 0 140.36 101.07">
  <defs>
    <style>.flames-cls-1{fill:#ed5e2a;}.flames-cls-2{fill:#f49224;}.flames-cls-3{fill:#f9e728;}
    </style>
  </defs>
  <title>flames
  </title>
  <path class="flames-cls-1" d="M52.06,86.88c-12.77-6.8-17.35-18.53-13.57-30.52,1.83-5.81,4.6-11.36,2.63-17.7a1.81,1.81,0,0,1,.31-1.09c.59.08,1.46.1,1.68.48a37.36,37.36,0,0,1,3.77,7.22c.59,1.84-3.52,11.46.12,6.92s2.94-17.75.2-26.38c6.43,3.39,10.69,20.43,13.32,14.84S70.83,30,75.51,24.23C80.84,17.66,81.4,10,79.16,2a12.66,12.66,0,0,1-.26-2A6.66,6.66,0,0,1,81,1a33.81,33.81,0,0,1,9.65,19.5c1.08,8.39-.66,29.32,2,26.19s3.16-7.09,4.77-10.7c.39.5.87.84.94,1.25C101.27,54.11,99.85,70,87,82.94a52.13,52.13,0,0,1-5.27,4.13c1.61-4.5,3.57-8.9,4.7-13.51a20.27,20.27,0,0,0-.76-12.35c-.66,1.45-1.31,2.9-2.1,4.63-.64-5.3-1.08-10.15-1.85-15s-2.66-9.16-5.93-12c-.63,4.1-.33,8.71-2.14,12.25C71.57,55.22,66.46,61.41,64.41,62s-1.48-.45-2-1c-2.07-2.3-4-4.7-6-7.07l-.88.58c.74,4.88,3.64,9.79.28,14.52l-2.44-7C52,64.74,51.65,67.14,51,69.44,49.15,75.42,48.2,81.29,52.06,86.88Z"/>
  <path class="flames-cls-2" d="M52.06,86.88C48.2,81.29,49.15,75.42,51,69.44c.7-2.3,1.06-4.7,2.43-7.39l2.44,7c3.36-4.73.46-9.64-.28-14.52l.88-.58c2,2.37,5.26,7,8.33,6.25s6.82-5,8.93-9.09c1.81-3.54,1.51-8.15,2.14-12.25,3.27,2.88,5.16,7.21,5.93,12s1.21,9.66,1.85,15c.79-1.73,1.44-3.18,2.1-4.63a20.27,20.27,0,0,1,.76,12.35c-1.13,4.61-3.09,9-4.7,13.51l-3.73,2Q79.2,83,80.38,76.89l-1.09-.29-2,2.45a43.58,43.58,0,0,0,0-5.66c-.57-4-.61-8.19-4.48-10.79a.63.63,0,0,0-.1-.25s-.12,0-.19,0l.29.29c1.33,6.74-3.57,10.27-7.29,14.27l-5-5.42c.23,3.47.43,6.32.63,9.17l-.68-.07L58.31,76c-.65,2.92-1.29,5.15-1.62,7.43a53,53,0,0,0-.25,5.65Z"/>
  <path class="flames-cls-3" d="M76.53,90.47c-6,3.94-12,2.87-17.94,0l-2.14-1.4a50.54,50.54,0,0,1,.24-5.65c.33-2.28,1-4.51,1.62-7.43l2.1,4.55.68.07c-.2-2.85-.4-5.7-.63-9.17l5,5.42c3.72-4,8.62-7.53,7.29-14.27h0c3.87,2.6,3.91,6.84,4.48,10.79a43.58,43.58,0,0,1,0,5.66l2-2.45,1.09.29Q79.2,83,78,89.08Z"/>
  <path class="flames-cls-1" d="M112.2,97.72c-3-2.38-6.37-4.45-9-7.23A9,9,0,0,1,101.78,80a26.23,26.23,0,0,0,1.34-19.46l.59-.31,5.74,6.68c6.5-7.42,8.15-15.6,2.26-24.68,9.1,3.1,19.24,12.15,16.77,28.39l.6.28,3.09-6.64c1.23,2.43.87,5.27.4,8.76,3.94-4,4-8.56,4.49-13,4.93,10.45,5.49,26-6.42,35.76a8.09,8.09,0,0,1,.74-1.81c2.06-2.79,1.93-12.07-.32-14.79-.47,1.88-.94,3.82-1.42,5.77L129,84.8c-.17-1.14-.34-2.29-.57-3.89l-1.74,3.34c-.3-.38-.45-.48-.46-.6a15.16,15.16,0,0,1-.09-1.78c.21-5.66-2.34-9.69-7.23-12.36a9.3,9.3,0,0,0-1.4-.5,9.36,9.36,0,0,0,.25,1.6,10.49,10.49,0,0,1-1.7,10.73c-.59.72-1.09,1.61-1.82,0a11.24,11.24,0,0,0-2.08-2.43l-.69.27c1.94,4,.49,7.79-.71,11.52A5.87,5.87,0,0,0,112,96.33a10.82,10.82,0,0,1,.73,1.34Z"/>
  <path class="flames-cls-2" d="M112.69,97.67a10.82,10.82,0,0,0-.73-1.34,5.87,5.87,0,0,1-1.17-5.65c1.2-3.73,2.65-7.47.71-11.52l.69-.27a11.24,11.24,0,0,1,2.08,2.43c.73,1.63,1.23.74,1.82,0a10.49,10.49,0,0,0,1.7-10.73,9.36,9.36,0,0,1-.25-1.6,9.3,9.3,0,0,1,1.4.5c4.89,2.67,7.44,6.7,7.23,12.36a15.16,15.16,0,0,0,.09,1.78c0,.12.16.22.46.6l1.74-3.34c.23,1.6.4,2.75.57,3.89l.61.15c.48-2,1-3.89,1.42-5.77,2.25,2.72,2.38,12,.32,14.79a8.09,8.09,0,0,0-.74,1.81l-1.85,1.89-1.69.83c1.87-3.48,2.52-7,.59-10.84l-1,3.42-.35,0L126,89l-1.33,1.46c-.8-6.13-2.48-8.77-5.78-9,.31.82.94,1.65.8,2.31-.39,1.83-1.1,3.6-1.67,5.39-.71-.45-1.41-.91-2.12-1.35-.09-.06-.26,0-.28,0-.09,1.72.24,3.57-.35,5a7.23,7.23,0,0,0,.11,6Z"/>
  <path class="flames-cls-3" d="M127.1,98.5c-2.78,2.84-6.07,3.34-9.82,1.44-.66-.33-1.28-.76-1.93-1.14a7.27,7.27,0,0,1-.1-6c.59-1.48.26-3.33.35-5,0,0,.19-.07.28,0,.71.44,1.41.9,2.12,1.35.57-1.79,1.28-3.56,1.67-5.39.14-.66-.49-1.49-.8-2.31,3.3.28,5,2.92,5.78,9L126,89l.35,2.05.35,0,1-3.42C129.62,91.47,129,95,127.1,98.5Z"/>
  <path class="flames-cls-1" d="M10.43,59.39c-2.75-2.17-5.8-4.06-8.16-6.59A8.23,8.23,0,0,1,.93,43.27,23.9,23.9,0,0,0,2.15,25.53l.54-.28,5.23,6.09C13.84,24.58,15.35,17.12,10,8.85c8.29,2.82,17.53,11.07,15.28,25.87l.55.26,2.81-6c1.12,2.21.8,4.8.37,8,3.59-3.6,3.66-7.8,4.09-11.87,4.5,9.51,5,23.69-5.85,32.58A7.31,7.31,0,0,1,27.9,56c1.88-2.55,1.76-11-.29-13.48l-1.3,5.26-.55-.13-.51-3.55-1.59,3c-.27-.34-.41-.43-.42-.54a11.13,11.13,0,0,1-.08-1.63c.19-5.15-2.14-8.83-6.59-11.26a8.82,8.82,0,0,0-1.28-.46,9.67,9.67,0,0,0,.23,1.46A9.57,9.57,0,0,1,14,44.46c-.54.66-1,1.46-1.66,0a10.28,10.28,0,0,0-1.89-2.21l-.63.25c1.77,3.69.45,7.1-.65,10.5a5.32,5.32,0,0,0,1.07,5.14,10.33,10.33,0,0,1,.66,1.23Z"/>
  <path class="flames-cls-2" d="M10.87,59.35a10.33,10.33,0,0,0-.66-1.23A5.32,5.32,0,0,1,9.14,53c1.1-3.4,2.42-6.81.65-10.5l.63-.25a10.28,10.28,0,0,1,1.89,2.21c.67,1.48,1.12.68,1.66,0a9.57,9.57,0,0,0,1.55-9.78,9.67,9.67,0,0,1-.23-1.46,8.82,8.82,0,0,1,1.28.46c4.45,2.43,6.78,6.11,6.59,11.26a11.13,11.13,0,0,0,.08,1.63c0,.11.15.2.42.54l1.59-3,.51,3.55.55.13,1.3-5.26C29.66,45,29.78,53.42,27.9,56a7.31,7.31,0,0,0-.67,1.65l-1.68,1.72L24,60.1c1.71-3.18,2.3-6.41.54-9.88l-.92,3.12-.32,0L23,51.43l-1.21,1.34c-.74-5.6-2.27-8-5.28-8.26.28.75.86,1.51.73,2.11-.35,1.67-1,3.28-1.52,4.92-.64-.42-1.28-.84-1.93-1.24-.08,0-.23,0-.26,0-.08,1.57.22,3.25-.32,4.6a6.68,6.68,0,0,0,.1,5.47Z"/>
  <path class="flames-cls-3" d="M24,60.1c-2.53,2.59-5.53,3-8.94,1.31-.61-.3-1.17-.69-1.76-1a6.65,6.65,0,0,1-.1-5.46c.54-1.35.24-3,.32-4.6,0,0,.18-.06.26,0,.65.4,1.29.82,1.93,1.24.52-1.64,1.17-3.25,1.52-4.92.13-.6-.45-1.36-.73-2.11,3,.26,4.54,2.66,5.28,8.26L23,51.43l.31,1.87.32,0,.92-3.12C26.3,53.69,25.71,56.92,24,60.1Z"/>  
</svg>
