<svg xmlns="http://www.w3.org/2000/svg" xmlns:xlink="http://www.w3.org/1999/xlink" viewBox="0 0 1751.83 93.28"><defs><style>.cls-1{fill:url(#linear-gradient);}.cls-2{fill:url(#linear-gradient-2);}</style><linearGradient id="linear-gradient" x1="1.15" y1="92.64" x2="1.15" y2="93.28" gradientUnits="userSpaceOnUse"><stop offset="0" stop-color="#c9e59f"/><stop offset="0.17" stop-color="#b8d68e"/><stop offset="0.73" stop-color="#85a95d"/><stop offset="1" stop-color="#71984a"/></linearGradient><linearGradient id="linear-gradient-2" x1="875.91" y1="0" x2="875.91" y2="93.28" xlink:href="#linear-gradient"/></defs><title>grass</title><g id="Layer_2" data-name="Layer 2"><g id="The_Marsh" data-name="The Marsh"><path class="cls-1" d="M.29,92.64l.88.64H2Z"/><path class="cls-2" d="M43.09,93.28a27.9,27.9,0,0,1-.27-5.7,13.5,13.5,0,0,1,1.4,5.7h1707.2c0-.16,0-.31,0-.49-.08-7.11.27-14.24-.06-21.34a55.15,55.15,0,0,0-2.18-14.1,24.34,24.34,0,0,1-.68-13c1.19-5.62,2.21-11.27,3.31-16.91l-.94-.32c-2.31,6.21-4.63,12.42-7,18.89-1.3-1.48-2.5-2.86-3.78-4.34,1.53-2.33,3-4.51,4.4-6.68l-.59-.49-8.34,8c-4.3-3.56-6-7.74-4.81-13.11A8.33,8.33,0,0,0,1729,32.9c-1,5.49-2,11-2.72,16.53-.35,2.88-1.74,4.5-5,6.19.55-4.48,1-8.19,1.46-11.9l-.77-.23q-3.3,9.81-6.61,19.63l-1-.37c.35-10.45,3.77-19.93,9.47-28.72-9.7,8.7-13.64,20.12-15.15,32.07-2.32-5.39-4.73-11-7.13-16.57l-.63.33q1.65,10,3.32,20l-.9.17-2.35-7-.68.11c-.09,1.56-.17,3.13-.26,4.69-1.86-7.9-3.67-15.73-7.93-22.75,1.1,10.14,2.2,20.28,3.37,31.15-5-10.76-9.51-20.59-14.06-30.42,0-.07-.21-.08-.56-.22.21,2,.42,4,.7,6.62-1.77-1.22-2.89-2-4-2.76s-2.31-1.42-3.47-2.13c8.4,9.82,8.4,9.82,6.8,13.75l-4.84-6.13a42.76,42.76,0,0,0,2.65,9.28c1.19,3.13,1.47,6.17-.59,9.29l-2.69-10.35-.9.12c-.13,2.23-.26,4.46-.43,7.57l-5-13.54-.93.22c.92,7.79,3.15,15.57.78,24.34-.62-6.57-1.16-12.24-1.7-17.91l-.86,0c-.37,1.35-.74,2.69-1.32,4.78-1.55-16.85-2.23-19.87-5.5-23.55,2.9,10.07.93,19.19-2.2,28.68l-2.94-10.76-1,.22V74.91l-1.86-6c-.74,3-1.22,5-1.7,6.9-.69-6.76.32-13.65-2.72-20-.26,2-.21,4-.28,5.95a33.43,33.43,0,0,1-.49,5.57,43.32,43.32,0,0,1-1.79,5.21l-.71-.11V63.13l-.86-.09c-.9,3.42-1.79,6.84-2.79,10.67-3.6-7,1.3-12.49,2.09-18.74l-5,6.15c-.56-2-.79-3.82-.12-5.26.75-1.63,2.26-2.94,3.53-4.29,1.09-1.16,2.32-2.18,3.49-3.26-.21-.23-.42-.45-.64-.67l-7,4.55c.45-2.91.8-5.15,1.08-6.92-3.6,7-7.36,14.27-11.06,21.57a21.29,21.29,0,0,0-1.28,3.62c-.52,1.76-1,3.55-1.43,5.33l-1-.19q1.76-15.55,3.5-31.11l-.94-.25c-2.32,7.25-4.63,14.51-6.93,21.7l-.47-2.83-.69-.12q-1.18,3.58-2.35,7.18l-1-.24,3.42-20.16-.66-.3-7,16.31c-4.27-18.23-9.48-28.68-17.23-33.52,9.67,12.17,12.36,25.73,11.54,40.26-1.5-9.95-3.71-19.69-8.46-28.69l1.26,11.4v0c-1.31,3.09-2.61,6.19-4,9.54-.55-12.11-.62-24-4.81-35.59-.57.37-.72.42-.72.48a4.5,4.5,0,0,0-.06,1.36c.87,3.56-.14,6.4-2.45,9.29a34.09,34.09,0,0,0-7.35,21.45c0,1.6,0,3.21,0,4.81-1.38-4.86-2.83-9.86-2.34-14.65.4-3.87,3.14-7.5,4.84-11.23l-.64-.73-4.75,6.48c-2.65-7.07-5-13.21-7.27-19.35l-1.26.34c2.22,7.65,4.8,15.32-1,22.23l-4.33-22-.76.16q.55,15,1.1,30l-1.08.13-1-3.54c-1.11-3.68-2.42-7.31-3.27-11.05a32.1,32.1,0,0,1-1.09-9.11c.42-6.38,1.38-12.72,2.12-19.08-5.79,12.28-7.69,25.48-10.1,38.64-.8-14.66-1.37-29.25-5-43.52q-.54,10.32-.31,20.59c.08,3.15-1.35,5.18-4.46,7.65.31-6.74.59-12.63.87-18.53-3.53,7.05-4.75,14.5-4.78,22.27,0,2.59-1.08,5.17-1.67,7.76l-1.69-.07c1.29-10.42.57-20.51-4-30a10.52,10.52,0,0,0-.18,2.78c-.05,7.55-.05,15.1-.25,22.65,0,1.18-1,2.35-1.52,3.52l-1.55-.36V9.94l-1.71-.06-4,43.69c-1.33-6.56-1.6-13.38-3.07-19.92-1.44-6.37-4.12-12.46-6.26-18.67.17,6.85,1,13.53,1.72,20.22a14.4,14.4,0,0,1-.08,5.16c-1.45,5.27-3.17,10.46-4.84,15.66a11,11,0,0,1-1.07,1.92l-.73-.18,1.14-29.9-.75-.19c-1.46,7.34-2.92,14.68-4.5,22.59-1.07-2.62-1.84-4.69-2.76-6.68s-1.87-3.63-2.94-5.68c1.46,10.23,2.86,20,4.25,29.67l-1.08.16a36.19,36.19,0,0,0-4.83-20.61c.32,5.76.63,11.45.94,17.14l-.89,0c-.37-2.4-.75-4.79-1.12-7.19l-.49,0q-1.3,6.78-2.59,13.55l-.28-.18V37.91c-3.71,9.18-3.74,19-5.7,29.08-1.5-4.07-2.77-7.49-4-10.92l-.82.25c.33,2.48.76,5,1,7.46a77,77,0,0,1,.3,8c-.06,2.4-.44,4.79-.67,7.19,1.17-20.21-4.2-29.22-10.85-31.62,6,11.89,6,11.89,3,13.14V56.14l-.79-.21-5,15.82c-1-4.68-1.95-9-5.25-12.37.92,4.95,1.45,9.78,0,14.5h-1c-.42-2-.85-4-1.41-6.56-1.63,3.14-3,5.72-4.33,8.31l-.86,0-2-15.61-.73.06q-.9,6-1.79,12.1l-.63,0c-.49-1.61-1-3.22-1.67-5.54l-1.28,2.81-3.28-25.62h-1.06l-1.56,26.39-5.71-11.53c-.48,4-.92,7.69-1.35,11.36l-.64-.16L1423,56.68l-.85.23c1,8.3,3.51,16.59.63,25-.33-3-.16-5.94-.38-8.89s-.81-6-1.24-9l-.72.07c-.33,1.3-.67,2.6-1.12,4.33-.49-3.11-.9-5.71-1.32-8.31l-.93.13c-.35,1.89-.69,3.78-1,5.24-1.51-5.64-3.09-11.51-4.66-17.39l-1,.23a53.07,53.07,0,0,1,.65,22.92l-2.6-8.1-.87.17V74h-.38l-1.44-4.92c-.75,2.55-1.26,4.26-1.76,6a54.69,54.69,0,0,1-.48-7.46c-.12-2.56-.36-5.12-.69-7.66-.17-1.25-.49-3.46-1-3.54-3.55-.55-2.38-3.81-3.51-5.66-2.24-3.68-4-7.65-6.28-11.27a49.81,49.81,0,0,0-5-5.92c2.52,6,5.26,12.28,7.66,18.64a6.93,6.93,0,0,1-.33,4.92,32.58,32.58,0,0,0-3.66,15.49c0,1.06-.16,2.13-.24,3.2h-.73q-1.07-6.54-2.12-13.08l-.61.16q-1.12,8.31-2.26,16.62c-2-5.9-3.48-11.67-4.86-17.45a25.26,25.26,0,0,0-8.68-14.39,13,13,0,0,0-2.15-1.15,42.82,42.82,0,0,1,7.06,18.68c.4,3.63-.78,6.43-3.41,9.22-.53-4.93-1-9.51-1.52-14.09l-.85.09c-.8,4-1.6,8-2.56,12.72-1-4-1.81-7-2.77-10.81-.9,3.74-1.57,6.53-2.23,9.32l-1.15-.13q-.86-5.61-1.72-11.2l-.64,0c-.37,1.52-.75,3-1.12,4.57l-.75,0q-2.13-10.7-4.27-21.38l-.35-.06c-.52,6-1,12-1.58,18.56-1.43-1.92-2.52-3.36-3.6-4.8l-.56.29,1.83,5.4-.4.16-1.85-3.12c0,6.27,2,11.9-.52,17.22h-1.13V56.27l-1.12-.13c-.76,2.47-1.53,4.94-2.41,7.8-.47-1.44-.84-2.56-1.2-3.68l-.53,0-1.74,11.88-1.23.14c-.79-3-1.57-6.06-2.53-9.78l-2.58,8.33-.67,0q-1-5.25-2.09-10.51H1328c-.49,4.62-1,9.23-1.52,14.42a12.2,12.2,0,0,1-1-1.5c-2.15-4.85-4.44-9.64-6.33-14.59a9,9,0,0,1-.2-5.55,88.46,88.46,0,0,1,4.11-9.39c-9.29,9.4-11.85,20.89-10,33.75l-1.13-.19V57l-.63-.13c-.59,1.08-1.19,2.15-1.76,3.19-.32-6.79-.64-13.45-1-20.12l-.39.08-4.5,29.38-1.33-.1-.45-5.49-.73-.15c-.83,2.66-1.66,5.31-2.48,8H1298q-1.05-5.25-2.09-10.51h-.82c-.44,3.46-.89,6.93-1.38,10.69l-1.66-2.42-1.73,10-.8.06q-1.1-8.23-2.2-16.49h-.88l-1.83,13.91a5.54,5.54,0,0,1-1.36-3.21c-.14-1.85.07-3.74-.12-5.59-.46-4.45-1.49-8.72-4.47-12.31.47,4.62.92,9.06,1.37,13.51l-1.26.22-2.3-4.39c-.52,6-1,11.47-1.51,17l-.37-.05q-1.26-7.38-2.51-14.76l-.79.07-1.9,6.28c-.71-5-1.31-9.12-1.9-13.29l-1.16,0c-.44,6.42-.88,12.85-1.33,19.53-1.79-2.34-3.06-4.69-5-6.29a4.22,4.22,0,0,1-1.47-5.15c1.33-4.23,2.63-8.48,4.16-13.43l-12.51,7.31,1.34-7.69-.85-.2-4.53,10.78c.56-6.2,1.07-11.89,1.59-17.58l-.89-.13-9.12,26.19c-.44-4.71-.38-9.35-.49-14,0-.74-.69-1.46-1.09-2.19l0,0,7.27-9.42-.33-.48-12.31,9.83c-1-2.33-2-4.73-3-7.13-.42,3.5.3,6.85,0,10.09s-1.78,6.53-2.74,9.78l-.84-.17V58.15l-1-.18q-1.68,6.74-3.37,13.49l-1.07-.23,4.59-24.44c-.14-.09-.28-.18-.41-.28l-4.5,7.36-.74-.16V46c-1-1.44-1.81-2.53-2.86-4-.24,2.82-.46,5.31-.68,7.81l-1.56-.14c.24-4.3.48-8.6.72-12.72l-1.34-.07-5.38,8.7-7.36-7.84-1,.4c5.75,6.38,7.58,13.12,2.14,20.4a97.39,97.39,0,0,0-11.63-27.24c.2,2.54.34,4.23.48,5.92h0l-6,5.59c-5.1-3.84,1.61-6.39.77-10.84-3.57,5.19-6.59,9.67-9.71,14.07a20.49,20.49,0,0,1-2.76,2.66l.56,0L1168.23,60c-.52-8.88,3-16.53,6.88-24.07l-1-.52-8.65,14.77c-2-4-1.1-9.21-4-12.51l-4.64,13-1.44-.24V35.5l-1.2-.13q-.84,4-1.7,8.08l-.93.07q-.81-5.46-1.61-10.92c-1,7.5-1.91,14.92-5.65,21.9-5.2-6.92-.79-12.89.83-19.28-1.7,2.81-3.39,5.63-5.32,8.85l-5.69-15.55a9.49,9.49,0,0,0,0,4c.19,1.26.46,2.52.69,3.78,1,5.39.9,5.56-4.29,8.76-3.2-2.39-1.29-5.06-.4-7.77-3.91,4-6.66,8.68-7.26,14.17a34.35,34.35,0,0,1-4.68,14.45l-.82-.27q1.86-4.62,3.7-9.23l-.56-.26-3.85,4.28c2.67-10.41,5.18-20.18,7.68-30l-1.16-.37q-4.51,11.51-9,23l-.88-.16c.17-6.61-3-13.11-.53-19.09l-1.82-3.25c-1.7,5.26-3.54,11-5.61,17.36-3.57-5.58-2.82-10.44-.82-15.41-7.16,8.59-8.15,19.05-9,30.17-5.51-9.82-5.62-11.26-1.54-20.55C1094.77,40,1096,38,1097,36c.36-.7.67-1.43,1-2.14a26.17,26.17,0,0,0-5.85,6.6c-1.52,2.39-2.69,5-4.25,8-1.86-3.18-3.48-5.95-5.11-8.72a30.81,30.81,0,0,0,2.68,8.57c1.25,2.79,2.17,5.53.17,8.44-6.07-3.95-7.71-10.45-10.47-16.37v28.1l-.41,0q-1.49-4.83-3-9.66l-1,.24c.21,2.95.43,5.9.63,8.61-5.36-9-3.39-18,1.39-26.95l-1.25-.3L1065.68,51l-4.59-8.06c.88,4.43,3.12,8.71,2.9,12.86s-2.91,8.19-4.52,12.27l-1.67-.36c0-4.28.4-8.6-.11-12.81s-2-8.17-3-12.25l-.24.26v27.2l-.54,0q-1.53-5.62-3-11.24l-1,.25.81,12.38c-3.09-6.59-8.89-12.66-3-20.77h-1.27l-4.07,6.65L1038,53.59c.6,2.06,1.9,3.57,2.65,5.31a5.06,5.06,0,0,1,0,3.75c-1.31,2.65-3,5.1-4.48,7.45-.88-5.06-1.81-10.37-2.74-15.68l-.66.16V68.46l-1.3.21c-.58-2.7-1.57-5.38-1.67-8.09A34.62,34.62,0,0,0,1025.77,45c.31,4.83.72,9,.72,13.14,0,1-1.31,2.09-2.13,3.29,3.53,5.26-1.68,9.45-2.65,14.34l-1.07.09q-1.07-7.93-2.12-15.87l-.71.09-1.8,12.5h-.51q-.78-2.49-1.58-5l-.73.09c-.45,2.22-.91,4.45-1.36,6.67l-.55-.12q-1.28-6.07-2.54-12.15h-.88l-1.4,7.85a13.07,13.07,0,0,1-1.75-12.2c1.85-5.84,3.65-11.7,5.47-17.56a59.81,59.81,0,0,0-11.33,29.72l-4.71-12.63-.9.32c.55,3.9,1.32,7.79,1.6,11.71s.06,7.73.06,11.59h-1.53c0-2.77.15-5.56,0-8.32s-.76-5.53-1.16-8.29l-.79.09c-.29,1-.58,2.1-1,3.78-.58-3.13-1-5.59-1.48-8.05l-.75.07c-.25.73-.49,1.46-1,3.06-1-7.09-1.78-13.24-2.61-19.39l-1,0c-.52,8.75-1,17.5-1.61,26.82-1-2.94-1.71-5.27-2.46-7.6l-.88.19V74.06h-.31L977,69.62l-.55,0-1.28,4.85c-.5-6.23.16-12.48-2.5-18.95-.62,6.89-1.19,13.09-1.75,19.3l-1.16,0c-.53-3-1.07-6-1.66-9.25l-2.06,3.23L965,68.51l1.92-13.37c-3.83,5-5,10.7-5,16.73a33.72,33.72,0,0,1-.53,4.23l-.67-.15q-1.06-6.74-2.14-13.46l-.8.09c-.16.72-.33,1.43-.5,2.2-3.14-7.34-6.22-14.56-9.3-21.79a28.26,28.26,0,0,0,1.2,7.36,5.55,5.55,0,0,1,.1,3.29c-2,4.16-4.21,8.2-6.22,12-.31-1.5-.69-3.41-1.08-5.32l-.69.08q-1.05,5.28-2.11,10.57a11.73,11.73,0,0,1-1.77-4c-.43-1.36-1-2.68-1.28-3.45-1.55,4.09-3.13,8.28-4.72,12.47-2.77-16.07-1.88-14.65-6-20.21.16,2.73.33,5,.4,7.27s0,4.37,0,7c-9.4-13.06-2.94-24.13,2.46-35.41-9.86,11.84-14.69,25.7-16.05,41l-1.08.06c-1.47-4.12-2.94-8.24-4.48-12.53-.77,2.57-1.62,5.36-2.75,9.11-.93-4.6-1.68-8.29-2.43-12l-.88,0c-.48,4.68-1,9.36-1.47,14.25l-5.93-8.18c-.64,2.73-1.16,5-1.77,7.57l-1.27-3.91-.66,0-1.59,9.33-.79.07L884.84,63,884,63q-.93,6.57-1.85,13.15c-1.95-6.85-.78-14.56-6.57-21,1,5,2.74,9.15,1.23,14.43l-2.15-4.49-.71.16q1.17,6.48,2.35,13l-1,.16c-6-6.53-4.37-14.79-5.28-22.62q-2.62,8.87-5.23,17.72l-.48,0V63.18l-1-.17c-.94,3.53-1.89,7.07-2.92,10.92-3.34-9.57-4.93-19-2.54-28.84-4.65,6.78-3.94,14.78-5.28,23.17l-1.21-3.92-1,.07c-.54,5.66-1.07,11.32-1.69,17.87-2-9.11-.32-17.19,1.12-25.28l-1-.27-5,13.53c-.64-1.87-1.59-3.63-1.78-5.47s.32-3.9.53-5.85l-.59-.28c-1.85,3.71-3.69,7.42-5.71,11.46-.46-3.07-.86-5.65-1.25-8.24l-.72-.07c-.64,2.3-1.28,4.61-2,7.29L829,44.16l-1.12.07c-.49,7.86-1,15.73-1.48,23.94l-1.76-1.51c-.55,2.3-1.06,4.46-1.68,7-.56-1.56-.94-2.61-1.32-3.65l-.61,0-1.62,9.38-.79.09-2.22-16.82-.74-.05q-1,6.72-2,13.45l-1,.23c-.56-7.33,0-15-5.12-21q.86,6.63,1.69,13.22l-1.13.18c-.66-1.12-1.31-2.25-2-3.44-.56,4-1.09,7.75-1.61,11.49l-1.14,0q-1.08-10.37-2.14-20.72a30.5,30.5,0,0,0-1.87,8.24c-.23,2.78-.05,5.58-.05,8.38l-.49,0c-.34-1.08-.68-2.16-1.3-4.08-.59,2.53-1,4.22-1.39,5.92l-.34,0V63.21l-1-.18L791.9,73.79c-3.69-6.86,1.24-12.49,2.11-18.87l-5.24,6.59c-2-7.62,5-9.66,8.06-14.9l-8.53,5.63c.43-2.78.76-4.93,1.1-7.08l-.84-.2c-1.11,3.52-1.47,7.56-3.49,10.45-4.39,6.26-8,12.72-9.28,20.4l-1.24-.25Q776.32,60,778.08,44.5l-1-.28c-2.4,7.82-4.81,15.63-7,22.82,0-.83-.14-2.37-.23-3.91l-.78-.12c-.77,2.34-1.53,4.69-2.3,7l-.83-.15q1.51-9.73,3-19.48l-.86-.28-6.31,15.4c-1.46-5-2.83-11.13-5.07-17-2.8-7.27-7.67-13.24-11.46-15.11a52.22,52.22,0,0,1,10.59,29.39l-1.07.42-6.42-19.13-.84.28c.37,3.55.75,7.1,1.21,11.42-3.31-2-4.72-3.73-5-6.62-.4-4.4-1.07-8.79-1.86-13.15a53.91,53.91,0,0,0-2-6.42l-1.35,0c2.14,5.59-.32,9.43-5,13.78l-7.86-8.08,4.25,6.4-3.81,4.22-7.19-19-.8.33Q720.36,39,722.58,50.7l-.92.26c-.84-2-1.84-4-2.48-6s-.49-2.15-4-4.46c1.64,3.34,2.69,6.46-.78,10.42-.69-3.72-1.62-6.59-1.67-9.47-.12-7.53-1.3-14.75-4.78-21.52.33,5.92.67,11.84,1.05,18.59-3.31-2.49-4.73-4.61-4.63-7.91.21-6.74.06-13.49.06-20.23-3.82,14.26-4.73,28.79-5.42,43.43-1.4-6.8-1.55-13.76-3.05-20.4-1.46-6.41-4.31-12.51-6.55-18.75.06,4.52,0,9.06,1.21,13.26,3,10.67-2.63,19.75-4.76,29.47-.05.24-.47.4-1.28,1,.4-10.5.78-20.46,1.17-30.42l-.84-.13c-1.44,7.39-2.88,14.78-4.34,22.25l-5.68-12.4-.49.22q2.18,11.75,4.33,23.47h-.33l-4.64-13.79-.6.3q.47,7.47.92,14.94c-4.75-7.88-3.17-16.32-3.5-24.67-.89,3-1.77,6-2.66,9l-1.26-.44,10.71-29.47-.79-.4-13,24.44c-4.49-5.17-9.58-9.73-15.9-12.71a27.9,27.9,0,0,0,2.16,2.71c3.74,4.6,7.69,9.06,11.09,13.9,2.49,3.55.55,6.49-3.68,6.59a6.8,6.8,0,0,1-5.86-2.31,21.07,21.07,0,0,0-3.28-2.62l-.41.52,2.52,4.41c-11.34.81-20.53,5.93-29.72,11.32l14.42-18.75-.9-.76c-6.29,6.36-12.59,12.71-19.13,19.31-.47-1.72-.85-3.12-1.31-4.83-1.93,3.93-.2,8.93-5.43,11q2.34-6.6,4.69-13.21l-.77-.43c-2.4,4.29-4.79,8.59-7.21,12.92-.38-1.72-.76-3.47-1.15-5.22l-.87,0c-.51,2.78-1,5.56-1.52,8.33-.5,2.57.56,5.54-1.73,8.54-1.36-6.87-2.19-12.77,3-17.89l-1-.23-4,3.2c-.37-1.9-.65-3.3-.9-4.54l-5.77,4.57c.43-4.79.77-8.54,1.11-12.29-4.55,7.63-4.73,17-10.82,23.87,1.53-14.18,1.27-18.08-1-20.9-1.25,5.92-2.59,12.31-3.93,18.7l-1.17-.18c0-3.73.22-7.47-.05-11.18-.44-5.88-1-11.68,4.35-15.94,0,0,0-.2-.14-.55l-3.77,2.12c-.11-1.39-.21-2.49-.3-3.59-1.08,2-1.18,4.56-2.51,6a49.36,49.36,0,0,0-11,18c.64-10.66,5.05-20,10.23-29-7.93,6.51-12.2,15.26-15.09,24.3-2.41-3.35-4.81-6.45-6.9-9.74a4.19,4.19,0,0,1-.24-3.55,76.73,76.73,0,0,1,4.55-6.9l-.36-.39c-2.12,1.83-4.23,3.67-6.44,5.57-2.16-3.3-4.23-6.44-6.29-9.58a78.25,78.25,0,0,0,2.8,10.46A5.76,5.76,0,0,1,544,54c-2.19,4.71-4.64,9.29-7.36,14.63.47-6.43.89-12.23,1.31-18a20.79,20.79,0,0,0-3.2,6.38c-.74,2.3-1.23,4.67-2.09,8-1.85-12.2-2.65-23.32.25-34.44-7.22,11.15-5.59,23.74-5.95,33.37-1.26-6.55-2.94-15.56-4.76-24.53-.5-2.47,0-4.18,2.14-5.69a83.7,83.7,0,0,1,24.09-11.57c-9,.78-16.83,4.61-25.26,9.36,1.4-5.27,2.58-9.69,3.76-14.12l-.67-.2L519.77,31c-2.91-5-5.67-9.81-8.42-14.59l-.84.44c1.69,4.53,3.48,9,5.06,13.6,2,5.79,1.68,6.42-4.1,9.52-1.57-6.27-3-12.61-4.77-18.83-1.65-5.72-1.83-5.66,2.66-9.51.11-.09.06-.37.12-.81l-5,2.84L493.69,0l-.91.7c1.73,2.84,3.28,5.81,5.24,8.49,2.71,3.71,1.75,7.07-.71,10.18-2.05,2.59-4.53,4.85-7.13,7.58-3.38-7.15-6.93-13.41-12.61-18.14A13.1,13.1,0,0,0,478.89,12c2.57,5.23,5.16,10.44,7.64,15.71.41.88.81,2.25.42,2.95-2.39,4.3-5,8.47-7.73,13-3.48-5.63-7.28-10.44-12-14.07l.34-.44c.5-.66,1.06-1.27,1.6-1.9l-.52-.44-2,2.31-.17-.13a2,2,0,0,1,.11.2q-3.88,4.46-7.78,8.89c-.64-5.35-1.33-10.6-1.87-15.87a4.56,4.56,0,0,1,.76-2.58c.92-1.52,2-2.93,3.08-4.39l-.54-.39c-2.39,3.22-4.93,6.35-7.12,9.69s-4.06,6.9-6.12,10.47l-1.76-3.37c.42,2.23,1.26,4,.91,5.44A64.33,64.33,0,0,1,443,45.16l-.72-.14q2.57-18.56,5.12-37.11l-.7-.16q-2.62,10.4-5.25,20.82c-.46-2.43-.81-4.88-1.42-7.26a51.61,51.61,0,0,0-2.2-6.89c-.88-2.2-2.05-4.28-3.1-6.42l-.68.25c6,16.81,4.79,33.93,2.51,51.09-.34-13.76-.61-27.52-2.86-41.43,0,4.11-.19,7.93.06,11.73.19,2.9-1.32,4.84-2.71,7-.19-.16-.26-.19-.28-.24-.67-2.67-1.39-5.32-2-8-.47-2.09-1.68-4.22,0-6.37l-1.21,1c-.32-.8-.61-1.5-1-2.59-.11,5-.51,6.29-2.76,9-1.39-5.63-2.75-11.16-4.12-16.69l-.55.09,1.05,11.67h-.31l-2.13-3.63a19.6,19.6,0,0,0,.9,4.15c.28,1,.87,2.24.56,3.09-.91,2.46-2.21,4.78-3.54,7.53-.59-2.21-1.07-4-1.54-5.75l-.3.07.93,9.3-.84.07c-.78-7-5-13.51-2.72-21l-1.47,2.85-1.14-2.62a38.75,38.75,0,0,1,.25,6.05c-.71,6.13-1.62,12.23-2.47,18.34-.07.53-.2,1.06-.3,1.59l-.65.13a42.33,42.33,0,0,1-2-4c-1.47-3.89-2.71-7.86-4.27-11.71a63.75,63.75,0,0,0-3.36-6.25,3.12,3.12,0,0,0,.24,2,113.84,113.84,0,0,1,6,21.28c.4,2.17-.47,3.52-1.84,5.26-.64-3.21-1.21-6.12-1.78-9-.69,4.75,1.2,9.53-.6,14.19a19.12,19.12,0,0,1-1.56-5.85,28.43,28.43,0,0,1,.8-5.74c.31-1.89.65-3.78,1-5.67l-.47-.1-2.6,6.42L390,31.19l-.48.15c.06.31.12.62.19.93,1.07,5.39,2.25,10.77,3.15,16.2.29,1.72-.15,3.56-.26,5.35H392q-2.59-7.29-5.21-14.57l-.77.22c1.37,7.11,2.73,14.23,4,20.82L384.54,46l-.64.22.39,2.14c1.13,6.35,2.28,12.68,3.34,19a22.34,22.34,0,0,1,0,3.75l-.68.13c-.89-1.91-2.25-3.75-2.58-5.75-.72-4.43-.88-9-1.35-13.42-.39-3.72-.89-7.43-1.34-11.14l-.66,0V60l-.51.06q-5.31-6.71-10.63-13.42l-.43.31.95,1.63c2.87,4.7,5.57,9.51,8.65,14.06,2.24,3.31,1,6.57.78,9.93-.49-1.34-1-2.67-1.54-4,.23-.72.45-1.45.68-2.18l-.25-.09L378,67.85c-2-4.66-4.48-9-8.5-12.41a64.94,64.94,0,0,1,6.85,16q-.63,1.35-1.26,2.73A8.44,8.44,0,0,1,374,72.86c-.25-2.58-.5-5.12-.74-7.65l-.29,0a42.22,42.22,0,0,0-.52,4.61c-.57-1.5-1-3.07-1.64-4.54.29-.47.59-.93.92-1.39-.38.35-.72.7-1.06,1.07a11.69,11.69,0,0,0-.94-1.74c.08.83.16,1.67.24,2.55A16.08,16.08,0,0,0,368.43,68l-5.52-5.3a9.74,9.74,0,0,0,2.29,3.73,22.36,22.36,0,0,1,2.57,2.79,18,18,0,0,0-1.65,8.8l-.27-.27c-1-2.3-2-4.57-2.89-6.85a1,1,0,0,1,.3-.84c.79-.85,1.64-1.65,2.47-2.48l-.17-.2-3.19,2.26c-.54-1.21-1.1-2.34-1.53-3.51a2.22,2.22,0,0,1,0-1.44,24.34,24.34,0,0,1,1.21-2.39,16.36,16.36,0,0,0-4.48,7.46l-.9-.47c1.24,2,0,4,.22,5.85.26,2.18-1.44,3.61-2,5.57-.87-1.07-.92-1.33-.5-2.34.67-1.6,1.35-3.18,2-4.77a8.81,8.81,0,0,0-1.72,1.79c-.49.65-.93,1.33-1.39,2,1-4.85,2.3-9.59,3-14.46l-.27-.07c-1.4,4.09-2.81,8.17-4.25,12.37-1.07-1.4-2-2.7-3-4a1.42,1.42,0,0,1-.32-1.51c.95-2.67,1.88-5.35,2.83-8,.21-.6.47-1.18.72-1.77a20.43,20.43,0,0,0-4.76,9.1c-.43-2.3-.55-4.59-1.16-6.75a10.88,10.88,0,0,1,.76-7.29c.19-.47.34-1,.51-1.43l-.18-.07c-.65,1.17-1.3,2.34-2,3.63l-.55-2.1a4,4,0,0,0-.12,1.56,6.69,6.69,0,0,1-.53,3.74,17.26,17.26,0,0,0-1.19,3.53c-.41,2.18-.64,4.4-.9,6.61-.13,1.07-.15,2.15-.22,3.22a1.1,1.1,0,0,1-.64-.59c-.51-1.34-1-2.68-1.49-4a1.54,1.54,0,0,1,0-1c.77-1.77,1.54-3.53,2.39-5.25.48-1,1.13-1.88,1.7-2.81a21.61,21.61,0,0,0-5.13,6.45c-1.85-4.11-3.62-8-5.4-12a1.73,1.73,0,0,0,.09,1c1.38,4.18,2.78,8.35,4.12,12.54a6.48,6.48,0,0,1,0,1.79c-2-1.5-3.72-2.86-5.49-4.15a2.2,2.2,0,0,1-.94-1.47c-.33-1.57-.73-3.12-1.1-4.67l-.24,0c.11,1.5.21,3,.33,4.71l-1.7-1.1c.09-.37.16-.69.24-1l-.12-.07-.52.77-5-2.75-.12.21,4.55,3.06-3.36,7.17L321,65.22l-.21.09c.41,1.08.8,2.16,1.23,3.23.94,2.38,1.71,4.76.63,7.33a7.2,7.2,0,0,0-.24,1.26,2.1,2.1,0,0,1-.22.59c-.86,1.42-1.73,2.82-2.48,4,0-5.36.55-11.13-2.71-16.25a2.82,2.82,0,0,0,.12.87,26.23,26.23,0,0,1,.93,9.53c-.3,2.89-.57,5.78-.85,8.66-.15-3.51-.48-7-2.31-10.14.24,3.17.48,6.31.71,9.45l-.26,0a1.27,1.27,0,0,1-.15-.31,24.25,24.25,0,0,0-3-6.84,1.25,1.25,0,0,1-.15-.94c.51-1.75,1.08-3.49,1.65-5.22a7.43,7.43,0,0,1,.34-.82l-.29-.15q-1.55,2.52-3.06,5l-3.43-3c.88,1.49,1.89,2.84,2.74,4.28a2,2,0,0,1-.07,1.57,21.68,21.68,0,0,1-1.31,1.76,12.15,12.15,0,0,0-1,2.07,19.85,19.85,0,0,0-.5,2c-.21-1-.31-1.94-.43-2.9s-.22-1.89-.37-2.82-.32-1.93-.53-2.89-.47-1.8-.71-2.7l-.13,0c.16,3.31.32,6.61.48,10-1-1.32-1.76-2.58-2.72-3.7A8.66,8.66,0,0,0,299,75.9a10.76,10.76,0,0,0,1.18,1.16,12.79,12.79,0,0,1,3.67,5.51,1.88,1.88,0,0,1,.05,1.05c-.46,1.69-1,3.37-1.46,5-.5-2.59-1-5.27-1.58-8.18-.82,2.11-.49,4.08-.57,6L299.48,83h-.25c-.21,1-.43,1.94-.67,3l-1-1.78c-.08,1.82-.15,3.36-.22,4.9h-.18c-.38-3.32-.75-6.64-1.13-10l-.37,0c-.24,1.65-.47,3.3-.71,5l-.52-3c-1.06,3.09-1,6.24-1.1,9.39a16.07,16.07,0,0,1-.57-6.53c.22-2.15.62-4.27.93-6.41l-.29-.09-2.61,7.33-.54-3.39H290c-.1,1-.24,2.1-.29,3.16s0,2.08,0,3.12,0,2,0,3.08c-1.34-4.16-.38-8.18.79-12.19l-.35-.12-2.87,6-.59-4.41-.36,0c-.45,2.39-.89,4.78-1.36,7.31-.28-1.64-.55-3.17-.82-4.7l-.22,0c-.31,1.14-.62,2.27-1,3.67-.34-2.57-.64-4.86-.94-7.15-1,3.28-.89,6.64-.95,10l-2.92-4-.28.18c.35,1.06.74,2.11,1,3.18s.44,2.15.65,3.22l-.27.06c-.09-.14-.2-.28-.28-.43a11.8,11.8,0,0,1-.75-9.43c.42-1.43,1-2.82,1.44-4.23a17.61,17.61,0,0,0-3.36,5.77c-.14-.89-.29-1.77-.41-2.66a.51.51,0,0,1,.15-.41q1.8-1.43,3.62-2.83c-.25,0-.57-.17-.74-.07-1.38.83-3,1.19-4.16,2.45a6.39,6.39,0,0,1-.83.63c.29-1.51.53-2.77.77-4l-.32-.1c-.87,2.21-1.73,4.41-2.6,6.61l-.26-.07a37.19,37.19,0,0,0,.85-9.8c-1.52,4.49-3.05,9-4.61,13.59V77.87c-1.36,2.46-1.68,5-2,7.82-.69-3.64-.38-5,1.73-7.84a28.28,28.28,0,0,1,2-2.37c.62-.65,1.32-1.23,2-1.84a18,18,0,0,0-6.5,5l-1.65-4.13-.24.08c0,.24.06.48.08.72.15,1.61.34,3.22.42,4.83a5.3,5.3,0,0,1-.4,1.55l-.29,0c.34-5.26-2.38-9.08-5.89-12.43l.66-1.12-.28-.21L253.94,72c-.16-.32-.3-.57-.43-.83-.59-1.18-1.11-2.4-1.79-3.52a1.64,1.64,0,0,1,0-1.92c.41-.68.73-1.4,1.09-2.1l-.17-.1c-.61.71-1.22,1.43-1.85,2.19l-.58-.6c.39.81,0,1.38-.34,2.06-1.17,2.07-2.25,4.2-3.33,6.32-.34.67-.57,1.4-.86,2.14-.85-.61-1-1.22-.31-2A20.78,20.78,0,0,0,246.55,72l-.28-.24L244.33,74c-1.18-1-1.21-1-.66-2.2.73-1.63,1.52-3.24,2.28-4.86l-.21-.15c-1.24,1.66-2.47,3.32-3.74,5-.83-.67-1.67-1.35-2.52-2a20.18,20.18,0,0,0,1.72,2.57c.17.24.4.57.34.79-.31,1.23-.71,2.44-1.1,3.72-.44-.5-.84-1-1.29-1.44-.87-.83-2-1.48-1.8-3-.88,4.29-.82,8.6-1,12.9-2.36-7.29-.53-14,2.71-20.6a22.78,22.78,0,0,0-4.81,9.83c-.59-2.19-.92-4.21-2.16-6.11.31,4.11.59,8,.88,11.9l-.3.05q-2.5-4.66-5-9.31l-.29.1c.51,1.74.88,3.53,1.55,5.2,1.07,2.66,2.37,5.24,3.53,7.86a7.89,7.89,0,0,1,.32,1.55c-.59-1-1-2.12-1.54-3.12s-1.37-1.94-2-3-1-2-1.54-2.93l-.23.12.66,2.09L226,77.72c.6,1,1.33,1.78,2,2.65a2.2,2.2,0,0,1,.51,1.32c-.14,2-.4,4-.61,6h-.34c-.29-1.34-.57-2.67-.86-4h-.27c-.25,1.57-.51,3.14-.77,4.71l-.3,0V77.33l-.29,0c-1.48,3.39-1.52,7.06-1.92,10.68-.85-2.47-3.14-4.42-2.32-7.46l-.49,0c-.4,1.75-.79,3.51-1.25,5.52-.45-2.46-.86-4.67-1.27-6.88h-.31c-.24,2.46-.47,4.93-.71,7.47-.36-.62-.65-1.19-1-1.72s-.72-1-1.09-1.5a27.08,27.08,0,0,0,.53,3c.17,1,.22,2,.32,3l-.3,0-1.08-7H214c-.25,1.29-.49,2.57-.73,3.86l-.13,0c-.15-.79-.31-1.58-.47-2.38l-.3,0c-.26,1.72-.52,3.44-.82,5.38-1.05-3-1.12-6-1.43-8.94a22.07,22.07,0,0,0-.83,3.8c-.16,1.31-.17,2.65-.24,4a3.33,3.33,0,0,1-.85-2.42,18.67,18.67,0,0,0-.31-4.28,10.22,10.22,0,0,0-2.29-4.77,33.15,33.15,0,0,1,1,3.85,30.56,30.56,0,0,1,0,3.83l-.43.07c-.41-1-.81-2-1.2-3a6.74,6.74,0,0,0,.79,4.76,10.07,10.07,0,0,1,.39,1.09,26.85,26.85,0,0,1-2-3.17,4.18,4.18,0,0,1-.61-1.73c-.09-1.72,0-3.45,0-5.24a10.62,10.62,0,0,0-1.12,4.66c-.13,1.63-.16,3.26-.23,4.88l-.09,0c-.2-1-.4-2-.59-3h-.26c-.19,1.22-.37,2.44-.56,3.66h-.09V80.5a14.57,14.57,0,0,0-1.75,6c-.76-1.87-1.13-3.55-.31-5.35.62-1.38,1.09-2.83,1.62-4.25l-.19-.15-2.68,3.57c-.52-2.29-.52-2.44.94-4,.82-.9,1.75-1.7,2.64-2.54.17-.17.36-.33.54-.49-.05-.07-.11-.13-.17-.2L196.88,76c.3-1.55.56-2.92.82-4.28l-.24-.08c-.56,1.69-1.12,3.38-1.7,5.07a3.82,3.82,0,0,1-.58,1.2,18.33,18.33,0,0,0-3.89,8.3c-.09.47-.19.94-.29,1.41-.47-5.41.68-10.64,1.41-16-1.33,1.84-2.71,6.38-4,12.88V80.52l-.28,0-1.34,4.61c-.28-3.89.66-7.43,1.54-11-1.71,3-3.58,5.93-3.69,9.58-.65-6.91-3-13-8.41-17.59a23.82,23.82,0,0,1,4.1,7.07,21.53,21.53,0,0,1,1.4,8,4.32,4.32,0,0,1-1-1.5c-.85-2.52-1.66-5-2.49-7.58a4.45,4.45,0,0,0-.32-.66l-.16.06c.3,2.08.61,4.15.92,6.23a4.35,4.35,0,0,1-2.45-3.5,69.85,69.85,0,0,0-1.4-7.65,10.37,10.37,0,0,0-.72-1.78l-.22.07c.08,1,.17,1.94.23,2.91a1.46,1.46,0,0,1-.12.87c-.66,1-1.38,1.85-2.12,2.82-1.55-1.55-3.07-3-4.58-4.55a1.37,1.37,0,0,0,.27.77c.62.91,1.26,1.8,1.86,2.72.12.19.22.58.11.7-.55.7-1.18,1.34-1.8,2-.49-1.65-.87-3.22-1.43-4.73s-1.28-3-1.94-4.46l-.2.1,2.13,10.9L166,75c-.55-1.41-1.09-2.82-1.61-4.16l-.23.28c-.43-.57-.82-1.1-1.21-1.64a14.45,14.45,0,0,1,.84,2.8,9.32,9.32,0,0,1-.85,2.79h-.27c-.38-1.09-1.07-2.17-1.06-3.25a27.91,27.91,0,0,0-.7-7.36c-.38-1.44-1-2.82-1.46-4.22a54.86,54.86,0,0,1,.32,9.29c-1.18-1.25-2.32-2.26-2-4a4.62,4.62,0,0,0,0-.91l0-6.28v-3a.89.89,0,0,0-.3.55c-.39,2.5-.92,5-1.13,7.5-.36,4.17-.51,8.36-.77,12.54a4.46,4.46,0,0,1-.2.86l-.25,0c-.06-.35-.14-.7-.19-1-.33-2.06-.55-4.13-1-6.16a4.46,4.46,0,0,1,.49-3.74s0-.11-.06-.22l-.87,1.13c-.91-3-1.8-6-2.69-8.92l-.29.08c.13.67.29,1.34.37,2q.51,4.55,1,9.09a3.06,3.06,0,0,1-.14,1.16c-.75,2.45-1.53,4.89-2.31,7.33a11.63,11.63,0,0,1-.56,1.25l-.33-.09c.18-4.86.36-9.72.55-14.74a52.46,52.46,0,0,0-2.29,11.27l-3-6.68-.22.1c.57,2.58,1.24,5.14,1.66,7.74a21.74,21.74,0,0,1,.21,7.84A18.39,18.39,0,0,0,142.82,73c.25,1.54.57,2.94.69,4.35s0,2.88,0,4.33c-2.08-4.31-1.67-8.76-1.05-13.23l-.27,0-1.52,5.36-.27,0a3.12,3.12,0,0,1,0-1.06q2.28-6.48,4.65-12.92a11.5,11.5,0,0,1,.85-1.58l-.37-.19-6.94,12.79a23.31,23.31,0,0,0-7.33-6A11.92,11.92,0,0,0,132.57,66a22.74,22.74,0,0,1,5.19,6.12,2,2,0,0,1,.21,1.35c-.56,2.18-.58,2.15-2.83,2.18a2.24,2.24,0,0,1-1.91-.78A19.09,19.09,0,0,0,131,73l-.14.18,1.72,2.5c-5.72.34-10.22,3-14.65,5.9l7.57-9.76-9.79,9-.33-2.52a15.06,15.06,0,0,0-.78,3.61c-.1,1.26-1,1.91-1.83,3a18.36,18.36,0,0,1,2.63-7.93,15.75,15.75,0,0,0-4.19,7c-.19-1.1-.39-2.19-.58-3.28a1.3,1.3,0,0,0-.43.8c-.26,2-.54,4-.74,6-.07.69-.25,1.15-.94,1.3-.12-1.39-.26-2.73-.32-4.07a2.87,2.87,0,0,1,.25-1.36c.57-1.16,1.22-2.28,1.84-3.42l-.17-.11-2.3,2.49c-.41-1.62-.41-1.62.45-2.55-.81.58-1,.11-1.11-.39-.26,1.62-1.74,1.8-2.64,2.63l-.2-.13c.24-2.12.47-4.25.71-6.38l-.25-.06c-.58,2-1.18,4-1.75,6a12.09,12.09,0,0,1-.57,2.39c-.75,1.45-1.68,2.8-2.59,4.27.81-4,1.44-7.92-.55-11.72.6,3.94-1,7.47-2,11.32,0-1.13,0-2,0-3,0-2.42-.06-4.83-.17-7.25a3.21,3.21,0,0,1,1-2.63c.55-.55,1-1.16,1.56-1.75l-.12-.14-2.31,1.49c.07-.93.13-1.69.18-2.45A6.09,6.09,0,0,0,96.68,74a4.54,4.54,0,0,1-1.14,2.12,25,25,0,0,0-2.94,4.18,46.9,46.9,0,0,0-1.95,5C90.92,79.83,93,74.71,96,69.89A23.21,23.21,0,0,0,88.72,82a35.23,35.23,0,0,0-2.45-4.1C84.82,76,84.72,76,86.12,74c.55-.77,1.15-1.51,1.73-2.26l-.16-.14-3.32,2.93-3.21-4.95-.25.15c.11.28.24.54.34.82.56,1.62,1.17,3.22,1.65,4.85A2.51,2.51,0,0,1,82.64,77c-.83,1.87-1.73,3.7-2.58,5.56a12,12,0,0,0-.44,1.32l-.32,0c.24-3.08.48-6.15.72-9.38a23.27,23.27,0,0,0-2.52,8.23c-.72-6-1.54-11.71.29-17.42a1.2,1.2,0,0,0-.44.5,20.82,20.82,0,0,0-2.42,10.06c0,1.46,0,2.93,0,4.4v4.39h-.29A51.51,51.51,0,0,0,72.5,69.47a1.74,1.74,0,0,1,.78-2.14c1.43-.88,2.81-1.85,4.27-2.67a32.51,32.51,0,0,1,9-3.25A32.37,32.37,0,0,0,73,66c.65-2.34,1.29-4.68,1.94-7l-.21-.09-3.39,7.37A25.4,25.4,0,0,0,67,58.91a3.84,3.84,0,0,0,.3,1c.91,2.49,1.84,5,2.73,7.49.1.28.17.78,0,.93-.8.75-1.68,1.42-2.66,2.23A47.51,47.51,0,0,0,64.52,59a.93.93,0,0,1,.33-.79c1.2-1,2.45-1.87,3.68-2.8l-.08-.13L64.14,58c-.8-1.23-1.49-2.5-2.37-3.61s-2-2.09-3-3.13l-.24.22a8.3,8.3,0,0,1,.5.71c1,1.67,2,3.34,3,5a1.56,1.56,0,0,1,.06,1.11c-.75,2.44-2.91,3.74-4.51,5.71a25.77,25.77,0,0,0-6.33-9.15,1.52,1.52,0,0,0,.24.6,45.4,45.4,0,0,1,4.65,9.33A1.73,1.73,0,0,1,56,66.06c-1,1.82-2.06,3.6-3.1,5.4a5.22,5.22,0,0,1-.34.46A23.89,23.89,0,0,0,46,64.49c0,.12-.07.15-.06.17.14.19.28.39.43.58a30.19,30.19,0,0,1,4.79,8,3.38,3.38,0,0,1-.46,3.56L48.89,72a4.59,4.59,0,0,0-.12,1.9c.35,1.73.83,3.44,1.2,5.17a8.43,8.43,0,0,1,0,1.6A3.46,3.46,0,0,1,47.88,78c-.15-.84-.34-1.68-.55-2.52l.88-.51,0,0-.92.32c-.35-1.39-.74-2.78-1.1-4.17a11.35,11.35,0,0,0-.47-1.22l-.2.07c.11,1.28.22,2.57.34,3.87l-.18-.12A6.34,6.34,0,0,1,41.38,78c-.43-3-.21-4.08,1.42-6.46.64-.92,1.34-1.8,2-2.69.21-.27.44-.52.65-.78l-.21-.18-4,4.6c-.26-2.18-.54-4.32-.76-6.47a1.77,1.77,0,0,1,.31-1c.37-.62.83-1.2,1.25-1.79L41.82,63c-1,1.31-2,2.59-2.9,4s-1.66,2.81-2.5,4.27l-.71-1.37a6.53,6.53,0,0,1,.37,2.21,27.53,27.53,0,0,1-1.26,3.34l-.3-.06q1-7.56,2.09-15.13l-.28-.06q-1.08,4.23-2.14,8.49c-.19-1-.34-2-.58-3a21.36,21.36,0,0,0-.9-2.81c-.36-.89-.84-1.74-1.26-2.61l-.28.1c2.44,6.85,1.95,13.83,1,20.83A123.57,123.57,0,0,0,31,64.29c0,1.67-.08,3.23,0,4.78a4.55,4.55,0,0,1-1.11,2.86c-.07-.07-.1-.08-.11-.1-.27-1.09-.57-2.17-.81-3.26-.19-.85-.68-1.72,0-2.6l-.5.42c-.13-.33-.24-.62-.42-1.06,0,2-.21,2.57-1.13,3.67-.56-2.3-1.12-4.55-1.68-6.81l-.22,0c.14,1.58.29,3.17.43,4.76h-.13l-.87-1.48a8.41,8.41,0,0,0,.37,1.7c.11.41.36.91.23,1.25a33.16,33.16,0,0,1-1.45,3.07L23,69.19l-.12,0L23.29,73l-.35,0c-.32-2.85-2.05-5.51-1.11-8.57l-.6,1.16-.46-1.07a16.39,16.39,0,0,1,.1,2.47c-.29,2.5-.66,5-1,7.48,0,.21-.08.43-.12.64l-.27.06c-.27-.55-.59-1.07-.8-1.63-.6-1.59-1.1-3.21-1.74-4.78a26.12,26.12,0,0,0-1.37-2.55,1.3,1.3,0,0,0,.1.84,46.32,46.32,0,0,1,2.44,8.67,2.45,2.45,0,0,1-.75,2.14c-.26-1.3-.5-2.49-.73-3.67-.28,1.94.49,3.89-.24,5.78a8,8,0,0,1-.64-2.38,11.88,11.88,0,0,1,.33-2.34c.12-.77.26-1.54.4-2.31l-.2,0c-.33.83-.67,1.66-1.06,2.61-.7-2-1.34-4-2-5.85l-.19.06c0,.13.05.26.08.38.43,2.2.91,4.39,1.28,6.61a9.47,9.47,0,0,1-.11,2.18H14L11.89,73l-.32.09c.56,2.9,1.12,5.8,1.63,8.49-.68-1.82-1.45-3.83-2.21-5.85l-.26.09c0,.29.11.59.16.88.46,2.58.93,5.17,1.36,7.76a9.75,9.75,0,0,1,0,1.53L12,86a9.84,9.84,0,0,1-1.06-2.35c-.29-1.8-.35-3.65-.55-5.47-.15-1.51-.36-3-.54-4.54H9.57v7.75l-.21,0L5,76l-.17.12.39.67c1.17,1.91,2.27,3.87,3.53,5.73.91,1.35.42,2.68.31,4-1-2.61-2-5.12-4.21-7a28.47,28.47,0,0,1,3.27,8.29c-2.31-1-2.1-3.44-3.2-5.11.08.81.15,1.61.25,2.66l-3-2.9a4,4,0,0,0,.94,1.52,10.63,10.63,0,0,1,3.16,6.38c.1.59.27,1.17.41,1.76C4.54,90,2.74,87.62.21,86L0,86.15l5.43,7.13ZM1738.45,43.22l1,0c1.21,2.35,2.43,4.69,3.6,7.06.24.5.57,1.29.35,1.65-2.93,4.82.21,10.51-1.62,14-1.31-5.67-3-12.47-4.37-19.33C1737.19,45.61,1738.07,44.36,1738.45,43.22ZM1736,53.13c1.35,5.92.28,11.81-1.25,17.79V53.12Zm-.65-4.71c-1.72,5.15-3.3,9.88-4.72,14.15C1728.57,56.42,1729.61,52.73,1735.35,48.42ZM1721.67,63.1v17C1719.5,74.93,1719.46,66.15,1721.67,63.1Zm-36.66.72,1.08-.12q1.59,6.83,3.16,13.64l-1,.25C1687.13,73,1682.88,69.24,1685,63.82Zm-53-.19,1.11.25c2.1,5.26-2.16,9-3.14,13.52l-1-.23Q1630.54,70.41,1632.06,63.63Zm-35.21-8.19c1.86,8.42,1.52,16.86,0,25.31Zm-12.66-10.37a53.2,53.2,0,0,1,2.64-5.94l.88.16V62.61c-1.47-3.93-3.22-7.85-4.33-11.93C1582.92,49,1583.62,46.87,1584.19,45.07Zm-2,7.94c2.55,5.81,2.12,11.78,1,17.78l-1,.11Zm-41.67-15.13V48.64C1536.59,46.78,1536.63,42.31,1540.55,37.88Zm-31.33,9,.92,0q.7,7.31,1.42,14.61l-1.27.12V57.87l-2.47,1.6C1508.31,55,1508.76,51,1509.22,46.87Zm-38.34,14.75V74.37C1469.81,70.26,1467,66.12,1470.88,61.62ZM1316.61,60c2.9,5.09,2.07,10.19,0,15.3Zm-80.51-2.39q-1.71,7.32-3.43,14.63C1231.35,66.81,1231.63,61.74,1236.1,57.59ZM1214.59,54c1.52,9.85,1,19.76-1.45,25.23C1212.63,70.7,1210.5,62.71,1214.59,54Zm-26.47-14a10.27,10.27,0,0,1,1.14-2.77c.47.42,1.16.76,1.34,1.28a92.09,92.09,0,0,1,5.45,31.37c-1.53-7.92-3.83-15.44-8.29-22.34C1186.65,45.81,1187.81,42.54,1188.12,40Zm-4.27,9.68c1.58,1.38,1.87,15.77.43,21.18C1181.19,63.2,1181,55.82,1183.85,49.68Zm-4.14-6.76c3.3,2.11,2.85,1.45-1.53,10.4C1175.58,51,1175.74,50,1179.71,42.92Zm-5.24,12.37,1.42.33L1170.7,76.3C1170.26,69,1172.52,62.15,1174.47,55.29Zm-39.64-12.66,1.81.35q.93,10.05,1.87,20.11l-.75.14c-2-4.73-4.47-9.35-5.8-14.27C1131.49,47.24,1133.79,44.76,1134.83,42.63Zm-6,20.91c3.2,5.16,0,9.74-.15,15.06C1125.76,72.07,1125.81,68.63,1128.83,63.54Zm-22.6-8.8h1.18c2.37,6.08,1.74,12.17-.26,18.26h-.92Zm-5.6-6.83,1,0V73.71l-1,0ZM949.81,54.47C953,61.63,953.34,66,951.4,74c-.66-2.86-1.16-5-1.7-7.32l-4.21,4.86-.88-.39C946.25,65.88,947.9,60.59,949.81,54.47ZM784,63.57c2.14,4.66,2.14,4.66-2.3,13.61l-1-.09Q782.35,70.32,784,63.57Zm-35.72.3h1.16c1.51,5.59.06,11.2-1.16,16.81Zm-8.57.05-4.93-15.19C741.93,52.39,739.57,58.69,739.69,63.92ZM734,53.42c2.67,5.75,2.16,11.63,1,17.54l-1,0ZM731.55,42.7c.39,1.88,1.25,3.41.81,4.36C729.23,54,729,61.21,729,68.53,728.47,60.1,723.48,51.34,731.55,42.7ZM718,51.56h1.39V64L718,63.92ZM705.1,38.23c3.57,1.74,4.06,8.43,0,10.73Zm-13.35,8.93,1,0c0,4.83,1.88,9.55.13,14.47v-4l-2.5,2.05C690.84,55.18,691.3,51.17,691.75,47.16Zm-27.17,8.93,1.23.15c1,7.47-1.29,14.53-2.95,21.66l-1-.12Q663.22,66.94,664.58,56.09Zm-4.42-3c-.65,3.56-1.19,6.48-1.87,10.19-1.14-3.55-2-6.4-3.12-9.72Zm-6.64,21.58c-1.06-4.45-4.24-8.66,0-13Zm-32.69-6.85a55.43,55.43,0,0,1,27.86-13.71c2-.34,3,.27,3.57,2.23.81,2.73.88,2.88-1.2,4.29-.07-1.49-.13-2.83-.19-4.16l-.81-.28c-1.61,5.08-3.22,10.16-4.94,15.57L641,59.4l-.91.27V76l-.94,0q-.81-4-1.64-8.08l-.9-.16-2.66,12c-1.38-7.2.1-13.15,2.06-19.1-4.45,4-5.58,9.35-6.42,14.85l-1.05.12c-.33-2.78-.66-5.56-1-8.64-4.17,3.65-2.63,8.18-2.13,12.17a68.33,68.33,0,0,1-4.92-7.26C619.92,70.85,620.05,68.49,620.83,67.79ZM571,59.12l1,.18L567.94,84l-1.36-.19A46.38,46.38,0,0,1,571,59.12ZM550,57.6c3.49,6.73,3.09,13.23,0,19.86Zm-5.86,5.14,1.53.18q-1.27,9.89-2.54,19.76l-1.29-.16Q543,72.62,544.12,62.74ZM518.89,52.55l1.31.07q-.63,10.83-1.25,21.64l-1.28,0Q518.27,63.43,518.89,52.55Zm-2.81-11.61-3.3,13C512.46,49.42,509.46,44.23,516.08,40.94ZM504.55,30.66c1.11,5,2.69,9.93,1.58,15.06l-1.58.06Zm-3.21-12c3.83,10.51-1,19.45-5.19,29.3C492.46,36.63,495.79,27.44,501.34,18.69ZM488.68,35.46c1,7.41-3.19,13.9-3.35,21.8C479.46,48.28,485.19,42.07,488.68,35.46ZM463.8,51.68c-1.53,2.3-3.07,4.59-4.7,7C458.67,54.37,458,55.12,463.8,51.68Zm-1.26,25c0-.88.07-1.76.13-2.64.14,1,.29,2,.43,3.08Zm3.19-6.31c-.37-1.13-.75-2.27-1.12-3.41L466,66.3A21.63,21.63,0,0,0,465.73,70.36Zm.47-6.63-2.44.65-.14-.43c.45-1.84.88-3.65,1.31-5.45A7.78,7.78,0,0,1,466.2,63.73Zm-.84-7,.18-.72.06.75Zm7,5.31c-3-3.62-3.66-8.17-4.62-12.78a9.73,9.73,0,0,1,1.79-1.56q.68-.46,1.38-.9l3,14.82Zm3.77-15.6c1.42,2.52,1,4.8-.84,7.42-1.11-2.77-2.12-5.31-3.13-7.81.95-.56,1.9-1.1,2.84-1.64Zm-13.6-10.82c1.37-2,2.87-3.9,4.35-5.82,2.64,4.75,5.29,9.55,8,14.34l-3,1.08c-.05-.14-.11-.29-.17-.43l-.37.11.25-1.19-3.28,2.62c.68-2.08,1.21-3.66,1.73-5.24l-.47-.32A19.37,19.37,0,0,1,467,45.92a22.62,22.62,0,0,0-2.75-6.5c.24,3.09.47,6,.69,8.79a14.77,14.77,0,0,1-5.84,3.28C458,44.21,458.56,41.5,462.57,35.65Zm-8.81,34.12c-.21-3.58-.55-6.75-.47-9.91,0-.84,1.32-1.64,2-2.45l.55.36C455.17,61.61,456.43,65.73,453.76,69.77Zm-1.1-13.65,3.26-8.44C457.08,51.51,456.13,54.15,452.66,56.12Zm-4.18-18.81c2.28-5,4.77-9.9,7.2-14.83.07-.14.29-.21,1-.72,0,6.71,0,13,0,19.26a3,3,0,0,1-.46,1.29c-1.44,2.64-2.91,5.26-4.37,7.88h-.64c-.08-2.19-.52-4.45-.18-6.58.83-5.16,2-10.26,3.07-15.38a1.81,1.81,0,0,0-.18-1.44q-2.3,6.82-4.6,13.64l-.55.07C448.65,39.42,448.1,38.15,448.48,37.31Zm-1.73,4,.78,0a32.07,32.07,0,0,1-.06,5.72c-.78,4.21-1.88,8.35-2.93,12.91C441.63,53,445.78,47.41,446.75,41.35ZM433.5,35.19V47.28C432.08,43.24,430.74,39.21,433.5,35.19Zm-2.14,26,.56,0q.61,6.79,1.24,13.59l-.79.07C431.83,70.32,429.84,65.91,431.36,61.23Zm-1.74-12.77c.57,3.46,1.71,6.55-.11,9.79A13.11,13.11,0,0,1,429.62,48.46Zm-3.34-21.34.54.16c.63,4.77,1.4,9.52,1.82,14.31.14,1.61-.62,3.29-1,4.94l-.55,0c-.93-4.6-2.13-9.18-2.66-13.83C424.26,30.9,425.63,29,426.28,27.12Zm-4.17,15.15v22c-3.05-7.53-2.14-14.77-.58-22Zm-2.23-11.46c.75,2.53,1.69,4.94.54,7.67A71.49,71.49,0,0,0,418.17,46C415.22,40.35,418.06,35.65,419.88,30.81ZM408.79,63.64V53.08C411.83,56.57,408.81,60.1,408.79,63.64Zm3.58,9.06-.48-.12L412.82,60C414.36,64.37,412.62,68.49,412.37,72.7Zm-3.57-27c.39-5,.56-10,1.15-15,.59,6.76,3.29,13.38,1.33,20.59A6.11,6.11,0,0,1,408.8,45.7Zm-6,5.57V65.71h-.64C401.55,60.88,399.94,56.05,402.79,51.27ZM384.44,74.16c2.59,3,.6,5.51.13,8.07l-.64,0C384.09,79.65,384.25,77.09,384.44,74.16Zm-6.39,7c.9,1.72.66,3.81-.55,7q-.36-1.43-.69-2.82c.32-1.12.65-2.24,1-3.35Zm-1.2-8.07c.24.89.47,1.78.69,2.68a9.37,9.37,0,0,1-1.37-.76Zm.56,7.13c-.4.87-.81,1.74-1.22,2.62-.37-1.53-.75-3.07-1.13-4.63A10.58,10.58,0,0,1,377.41,80.22Zm-5-1.07a9.86,9.86,0,0,1-1.23,4.06l0,.12c-.81-.87-1.61-1.75-2.4-2.61l-.27-1.53a4.11,4.11,0,0,1,.4-2.91c.55-1,1-2,1.45-3.07A29.9,29.9,0,0,1,372.38,79.15ZM370,66.61c.09,1,.19,2,.29,3.14l-1.21-1.17A18.52,18.52,0,0,1,370,66.61Zm-1.48,3.6a23.33,23.33,0,0,1,1.59,2.68L368,75.35A13.77,13.77,0,0,1,368.53,70.21Zm-4.45,9.84c.11.6.22,1.19.34,1.79l-.42,0c-.09-.94-.49-1.84-.64-2.78Zm-1.49-5.5c-.58-.51-1.17-1-1.78-1.49.32-.5.7-1,1.09-1.47A4.43,4.43,0,0,1,362.59,74.55ZM359,69.86c.44-1.28.79-2.59,1.18-3.88l.28,0c.39,1.31.79,2.62,1.15,3.94a.65.65,0,0,1-.13.56c-.58.55-1.19,1-1.82,1.59A1.8,1.8,0,0,1,359,69.86Zm.69,5.13c.85,1.92,2.13,3.65,1.35,6a32.53,32.53,0,0,0-.89,4.17h-.24c-.4-2.73-.87-5.45-1.15-8.19C358.65,76.3,359.24,75.62,359.65,75ZM357,80.75l.24,0,.72,8-.24,0-.6-1.84a8,8,0,0,0-.54-1.56C355.61,83.74,356.44,82.27,357,80.75Zm-4.27,1.88c.91.74.87,1.24-.24,3.34C351.64,84.65,352.79,83.75,352.72,82.63Zm-5.1-9.24a3.63,3.63,0,0,1,.21-.88l.23-.06c.9,1.68,1.81,3.36,2.7,5.06a.82.82,0,0,1,.08.61c-.42,1.32-.87,2.63-1.38,4.14-1-1.11-2-1.82-1.89-3.41C347.72,77,347.6,75.21,347.62,73.39Zm-2.32,9.46c-.14,1.27-.23,2.54-.34,3.82l-.21,0c-.32-2.19-.63-4.37-.94-6.56l.27-.09C344.6,80.92,345.44,81.62,345.3,82.85Zm-.45-20c.09,1.18.18,2.36.28,3.7C343.63,65.34,344.67,64.07,344.85,62.87ZM343.56,74c.25-2.48.3-5,.43-7.49l.35-.11a6.28,6.28,0,0,1,.92,2c.17,3,.19,5.93.26,8.89a1,1,0,0,1-.1.33A3.74,3.74,0,0,1,343.56,74Zm-5.17-1.13.25-.06a6.58,6.58,0,0,1,.31.8c.33,1.21.64,2.42.95,3.63.25,1,.21,1.12-.43,2.09C337.36,77.48,338,75.16,338.39,72.89ZM338,81.2c1.16,2.08.15,4.14.24,6.17H338Zm-5.8,4.25V75.76C332.67,76.92,332.89,83,332.19,85.45Zm3.44-7.7a20.28,20.28,0,0,0-.22,2.92.32.32,0,0,1,0,.09l0,0c-.54-2.41-1.08-4.78-1.66-7.38C334.67,74.83,336,75.85,335.63,77.75Zm.87-7a.71.71,0,0,1,.18.57c-.21,1-.46,2.07-.71,3.17-2.8-2-4.5-4.4-4.35-8C333.25,68,334.89,69.34,336.5,70.76Zm-11.42,1.92c.84-2.9,1.74-5.78,2.62-8.67L328,64c.64.77,2.17.81,1.88,2.42l-.56-.24c0,.18.07.29.09.4a12.66,12.66,0,0,1,.53,2.73c-.11,5-.31,10-.47,14.5-.17-1.24-.27-2.94-.65-4.58s-1-3.21-1.57-4.81l-.22.08.57,7.59-.28,0c-.12-.7-.19-1.41-.37-2.09-.56-2-1.17-4-1.73-6.08A2.52,2.52,0,0,1,325.08,72.68ZM324.19,78l.3,0c.2,2.81.39,5.62.59,8.44l-.25,0A28.21,28.21,0,0,1,324.19,78Zm-12.25,2.34a24.8,24.8,0,0,1,1.43,8.5c-.55-2.82-1.11-5.64-1.66-8.46Zm-2.22-.74c.31,3.48.6,6.8.9,10.12C309.44,86.49,308.31,83.25,309.72,79.62Zm-35.49,3.15c.09-.13.18-.24.42-.55-.11,2.87-.22,5.51-.33,8.22C273.28,88.33,273.25,84.26,274.23,82.77Zm-15.45-9.43a16.52,16.52,0,0,1,1.78,5.36c.33,1.66-.15,3.2-.36,4.79-.17,1.3-.23,2.62-.38,3.92a13.32,13.32,0,0,1-.34,1.49A44.9,44.9,0,0,0,258.63,75,3.7,3.7,0,0,1,258.78,73.34Zm-1.54,13.88c-.25-2.3-.35-4.45-.77-6.53-.31-1.54.32-2.7.93-4C257.79,80.2,258.24,83.64,257.24,87.22Zm-2.48-13.79c.62-1.29,1.26-2.55,1.9-3.82h.3a4.24,4.24,0,0,1,.46,1.27c.12,3.23-.06,3.75-1.81,5.76-.31-.9-.61-1.7-.87-2.51A1.11,1.11,0,0,1,254.76,73.43Zm-2.11,9,.75-5.13C254.5,79.24,253.56,80.84,252.65,82.45Zm-1.8-14.83.28,0c.6,2,1.25,4,1.77,6,.09.38-.31.89-.5,1.34a7.18,7.18,0,0,1-.82,1.54c-.18-2.65-.35-5.31-.53-8h-.16c-.26,2.33-.45,4.67-.79,7s-.83,4.6-1.25,6.89l-.48,0a7.86,7.86,0,0,1,0-1.61c.57-2.5,1.2-5,1.81-7.48,0-.17.07-.34.1-.51l-.25-.12-2.42,4.2A47.32,47.32,0,0,1,250.85,67.62Zm-4.8,15.61.22,0c-.45,1.82.53,3.79-.6,5.53l-.28,0Zm-2.11-6.77a3.06,3.06,0,0,1,.7,3c-.5,1.61-.74,3.3-1.13,5.17C242.43,81.72,241.79,79,243.94,76.46Zm-6-1a15.09,15.09,0,0,1,1.93,4c.57,1.64-.84,2.76-1.06,4.17q-.56-4-1.1-8Zm-7.82,9.78a8.9,8.9,0,0,1-.36,5.25C229.91,88.6,230,86.9,230.14,85.22Zm-34.75-4.55c.65,2.16.17,4.24-1.78,7.48A16.26,16.26,0,0,1,195.39,80.67Zm-16.68.84h.23v6.23h-.23Zm-1.89-2.25a1.4,1.4,0,0,1,.77,1.85,25.74,25.74,0,0,0-.61,2.63h-.16Zm-4.09-7.43c.42-.92.87-1.83,1.31-2.75l.24.07c.09,1.55.18,3.11.28,4.92-.7-.67-1.23-1.16-1.72-1.68A.66.66,0,0,1,172.73,71.83ZM172,74c1,1.34,2.85,2.09,2.63,4.24-.14,1.44,0,2.91,0,4.36h-.28a18.82,18.82,0,0,0-2.22-7.38A1.81,1.81,0,0,1,172,74Zm-.39,1.47c1.56,3.93,1.19,7.7.58,11.47C171.56,83.19,170.9,79.48,171.63,75.43Zm-3.34-.56c.55-1.15,1.15-2.28,1.74-3.44,1.22,1,1.25,1.14.72,2.36a19.81,19.81,0,0,0-1.35,9.14c0,.73.07,1.46.11,2.19l-.17,0c-.42-3.1-.84-6.21-1.24-9.32A1.88,1.88,0,0,1,168.29,74.87Zm-3.76-.58c1.51,2.65.41,5.32,0,8A12.88,12.88,0,0,1,164.53,74.29Zm-3.53,2h.36a13.27,13.27,0,0,1,.19,3c-.24,1.62-.75,3.19-1.15,4.78h-.17Q160.62,80.19,161,76.28Zm-2.67,2.45c.1-1.33-.78-2.81.37-4l.29.07Zm-.34-10c1.89,1.8,2,4.8,0,5.7ZM153.5,83.54c.2,1.45.37,2.76.55,4.07C153.55,86.35,152.58,85.15,153.5,83.54Zm-1.59-10.92.29,0c.26,2.19.55,4.39.74,6.59a3.93,3.93,0,0,1-.43,1.38l-.29-.07c0-.7.06-1.41.1-2.12l-.22-.11-.82,1.54-.19,0Q151.51,76.22,151.91,72.62Zm-12.62,3.93.43,0a6.08,6.08,0,0,1,.34,1.92c-.53,3.21-1.17,6.41-1.77,9.61a2.47,2.47,0,0,1-.19.49l-.34-.07Zm-2.15-.26c-.32,1.68-.64,3.34-1,5l-.12,0c-.18-.83-.3-1.67-.55-2.48s-.59-1.58-.95-2.5ZM134,87.17a18.6,18.6,0,0,1-1.2-5.56c0-.62.54-1.23.83-1.84l.37.07ZM118.61,83a27,27,0,0,1,13.12-6.36c1.26-.21,1.26-.23,1.66,1,.07.2.12.4.18.61.29,1.1.29,1.1-.95,1.71.07-.89.13-1.67.2-2.65a4.4,4.4,0,0,0-1.23,2.42c-.53,1.89-1.07,3.78-1.76,5.68-.21-2.45-.69-4.75-2.42-6.64a14.73,14.73,0,0,1-.1,8.67c-.29-1.54-.59-3.08-.88-4.61l-.34,0c-.39,2.08-.79,4.16-1.22,6.39a14.85,14.85,0,0,1,1.31-9.9c-1.69,1-2.84,3.75-3.39,8-.81-.92-1-2.43-.66-4.94a3.93,3.93,0,0,0-1.6,3.37c.07,1.24.32,2.47.43,3.73a10.29,10.29,0,0,0-2.4-4.25,11.14,11.14,0,0,1,.08,6c0-1.12.07-2.25,0-3.37s-.29-2.37-.48-3.54A1.2,1.2,0,0,1,118.61,83Zm-2.38,2.58c0-.35.32-.69.49-1l.21.12c-.21,2.4-.41,4.8-.62,7.2h-.11C116.2,89.78,116.18,87.68,116.23,85.59Zm-2.47,1.65.25.11v3.8l-.27.08a16,16,0,0,1-.7-2.68C113,88.14,113.5,87.68,113.76,87.24Zm-8.28,4.17c-.81-2-.76-2.36.51-3.84C105.85,88.91,106.33,90.11,105.48,91.41Zm.91-9.91a4.79,4.79,0,0,1-1.87,4.55C104.1,83.84,104.53,82.82,106.39,81.5Zm-10.63-3c-.43,4.33-.7,8.7-2.32,12.8A20.61,20.61,0,0,1,95.76,78.45Zm-10.07,10c0-1.6,0-3.42,0-5.23s-.17-3.68-.25-5.44C87.46,81.36,87,85,85.69,88.5Zm-2.42-8.56C83.7,81.41,82.82,89,82,91A29.48,29.48,0,0,1,83.27,79.94ZM71.09,75.06l.34,0a43.86,43.86,0,0,1-.69,12.1l-.32,0Q70.75,81.11,71.09,75.06Zm-3.15-3.12c.57-.6,1.18-1.14,2-1.88L68,77.56c-.13-1.8-.25-3.35-.33-4.9A1.06,1.06,0,0,1,67.94,71.94Zm-3.6-7.32.08,0c.2,1.24.43,2.48.6,3.73.14,1.09.19,2.19.34,3.28.1.71-.18,1.14-1,1.55Zm-1.77,18.2a20.75,20.75,0,0,1-.36-4.65l.37,0c.07,1.55.14,3.09.22,4.64ZM60.24,65.7c.26-1,.62-2.05.83-3.1a4.55,4.55,0,0,1,2-2.75c.61,1.6,1.1,3,.54,4.7-.42,1.23-.5,2.57-.8,3.85a17.51,17.51,0,0,1-.74,2.22c-.52,1.38-1.07,2.75-1.6,4.09a40.6,40.6,0,0,1-1-5.36A13,13,0,0,1,60.24,65.7ZM58.79,87.82l-.21,0c-.38-1-.8-1.93-1.14-2.92-.07-.22.13-.57.28-.8.3-.48.66-.92,1.07-1.47Zm-.55-13.47h.23a35.9,35.9,0,0,1,.29,4.5c0,.64-.7,1.26-1.08,1.89l-.38-.14C57.61,78.52,57.92,76.43,58.24,74.35Zm-3.92-1.47c.89-1.76,1.62-3.6,2.42-5.4a3,3,0,0,1,.43,2.74c-.76,2.63-1.38,5.3-2.11,8.18C54.81,76.45,53.28,74.93,54.32,72.88Zm-1.41,5.68.87,4.84-.25,0C52.81,82,51.92,80.5,52.91,78.56Zm-4.1,3.61c1.2,1.46.18,2.94.18,4.33-.12-1.36-.25-2.73-.38-4.27ZM43,85.75c0-.15,0-.29,0-.43,0-.33.15-.8.38-.92l1.11-.52c.18,1.31.37,2.63.56,4A20.74,20.74,0,0,0,43,85.75Zm3.36-.63c-.17-.56-.36-1.18-.55-1.82l.55-.24Zm-.48-11.34L46,75.23l-.82.66Zm-.18,2.67.39-.25c.06.68.12,1.34.18,2l-1.59-.68A2.82,2.82,0,0,1,45.66,76.45Zm-1.11,1.4c.4.35.81.66,1.2,1a1.39,1.39,0,0,1,.55.79c0,1,0,1.9,0,2.79l-.75.21-1.22-4C44.42,78.35,44.48,78.1,44.55,77.85ZM44.37,83l-1.19.31c.27-1.09.53-2.16.79-3.22C44.1,81,44.24,82,44.37,83Zm-1.06-4.89-1.92,2.86C41.22,79.15,41,79.46,43.31,78.06Zm-4.1,7.37c0-.55-.07-1.08-.1-1.59.22.13.43.27.64.41A4.14,4.14,0,0,1,39.21,85.43Zm.6-1.47a5.73,5.73,0,0,0-.7-.13C39.05,83,39,82.19,39,81.39c0-.34.54-.67.83-1l.23.15C39.87,81.64,40.06,82.8,39.81,84Zm-1-4.09c.48-1.25.88-2.3,1.33-3.44A2.62,2.62,0,0,1,38.77,79.87ZM37.06,72.2c.93-2,1.94-4,2.93-6,0-.06.12-.09.42-.29,0,2.73,0,5.29,0,7.85a1.17,1.17,0,0,1-.19.53c-.59,1.07-1.18,2.14-1.78,3.21h-.26a14.3,14.3,0,0,1-.07-2.69c.34-2.1.82-4.18,1.25-6.27a.76.76,0,0,0-.07-.58q-.95,2.78-1.88,5.56l-.22,0C37.13,73.06,36.91,72.54,37.06,72.2Zm-.7,1.64.31,0a12.93,12.93,0,0,1,0,2.33c-.32,1.71-.77,3.4-1.2,5.26C34.27,78.59,36,76.32,36.36,73.84ZM31,71.33v4.93C30.37,74.62,29.83,73,31,71.33ZM30.08,82l.23,0c.17,1.85.34,3.69.5,5.54l-.32,0C30.27,85.66,29.46,83.86,30.08,82Zm-.71-5.21c.23,1.41.7,2.68,0,4A5.37,5.37,0,0,1,29.37,76.74ZM28,68l.22.07c.26,1.94.57,3.88.74,5.83a7.29,7.29,0,0,1-.39,2l-.23,0c-.38-1.88-.87-3.74-1.08-5.64C27.19,69.59,27.74,68.8,28,68Zm-1.7,6.18v9c-1.25-3.07-.87-6-.24-9Zm-.91-4.67a4.33,4.33,0,0,1,.22,3.13,27.93,27.93,0,0,0-.92,3.07C23.5,73.44,24.66,71.52,25.4,69.55ZM22.34,86.63l-.2,0c.13-1.7.25-3.41.38-5.11C23.15,83.23,22.44,84.91,22.34,86.63Zm-1-17.14c.24,2.76,1.34,5.46.54,8.4a2.52,2.52,0,0,1-1-2.27C21,73.58,21.11,71.54,21.35,69.49Zm-.47,9.14c1.24,1.42,0,2.86,0,4.3Zm-2.45-.74v5.89h-.26C17.93,81.81,17.27,79.84,18.43,77.89ZM11,87.22c1.05,1.24.24,2.25.05,3.29h-.26C10.81,89.46,10.87,88.42,11,87.22ZM8.12,92.93c-.34-1.39-.66-2.7-1-4.05C8.69,89.91,8.92,90.83,8.12,92.93Z"/></g></g></svg>