<svg xmlns="http://www.w3.org/2000/svg" xmlns:xlink="http://www.w3.org/1999/xlink" x="0px" y="0px" viewBox="0 0 2460 597.36">
	<defs>
		<style>
		.mountain-fill-1{fill:url(#linear-gradient);}
		.mountain-fill-2{fill:url(#linear-gradient-2);}
		.mountain-fill-3{fill:url(#linear-gradient-3);}
		.mountain-fill-4{fill:url(#linear-gradient-4);}
		.mountain-fill-5{fill:url(#linear-gradient-5);}
		.mountain-fill-6{fill:url(#linear-gradient-6);}
		.mountain-fill-7{fill:url(#linear-gradient-7);}
		.mountain-fill-8{fill:url(#linear-gradient-8);}
		</style>
		<linearGradient id="linear-gradient" x1="1230" y1="186.32" x2="1230" y2="-420.95" gradientTransform="matrix(1, 0, 0, -1, 0, 186.32)" gradientUnits="userSpaceOnUse">
			<stop offset="0.15" stop-color="#fff"/>
			<stop offset="0.49" stop-color="#f6f6f6"/>
			<stop offset="1" stop-color="#e8e8e8"/>
		</linearGradient>
		<linearGradient id="linear-gradient-2" x1="938.97" y1="269.79" x2="938.97" y2="51.39" gradientUnits="userSpaceOnUse">
			<stop offset="0" stop-color="#ccc"/>
			<stop offset="0.19" stop-color="#c9c9c9"/>
			<stop offset="0.36" stop-color="#bebebe"/>
			<stop offset="0.52" stop-color="#acacac"/>
			<stop offset="0.67" stop-color="#939393"/>
			<stop offset="0.82" stop-color="#737373"/>
			<stop offset="0.87" stop-color="#666"/>
		</linearGradient>
		<linearGradient id="linear-gradient-3" x1="1171.16" y1="226.73" x2="1171.16" y2="101.25" xlink:href="#linear-gradient-2"/>
		<linearGradient id="linear-gradient-4" x1="1148.76" y1="319.15" x2="1148.76" y2="203" xlink:href="#linear-gradient-2"/>
		<linearGradient id="linear-gradient-5" x1="1431.15" y1="341.17" x2="1431.15" y2="99.5" xlink:href="#linear-gradient-2"/>
		<linearGradient id="linear-gradient-6" x1="1653.92" y1="366.07" x2="1653.92" y2="171.45" xlink:href="#linear-gradient-2"/>
		<linearGradient id="linear-gradient-7" x1="1939.13" y1="387.3" x2="1939.13" y2="222.49" xlink:href="#linear-gradient-2"/>
		<linearGradient id="linear-gradient-8" x1="394.42" y1="337.3" x2="394.42" y2="269.79" xlink:href="#linear-gradient-2"/>
	</defs>
	<title>Peak of a snowy mountain</title>
	<g id="Layer_2" data-name="Layer 2">
		<g id="Mountain">
			<path class="mountain-fill-1" d="M2460,400.38c-34.17-5.4-208.43-48.75-270.54-77.05s-378-108-453.61-154.58c-41.14-25.34-122.95-98.82-159-99.59-23.54-.5-23.28,13.87-38.81,17.24-3.91.85-5.82-2.23-8.17-5.79A9.06,9.06,0,0,0,1517.33,78a9.24,9.24,0,0,0-2.46,2.41c-13.78,20.18-51.06-.79-51.06-.79S1355.82-.06,1292.37,0c-81,.08-94.5,24.3-113.4,35.1s-83.71,43.2-102.61,37.8c-13.5,2.7-36.45,29.7-59.4,24.3-24.3,8.1-210.6,129.61-313.21,156.61C652.27,267.35,542.93,277,529.76,266c-7.63-6.38-34.63,4.93-51.49,5.2-15.26.24-25.84,8.27-29.67,8.27-16.2,0-88.82-25-102.32-25s-31.61,32-47.54,29c-21.6-4.05-64.8,35.1-72.9,43.2s-48.6-21.6-48.6-21.6l-24.3,21.6s-67.5-21.6-75.6-21.6S0,275.7,0,275.7V607.27H2460Z"/>
		</g>
		<g id="Mountain_Top_Rocks" data-name="Mountain Top Rocks">
			<path class="mountain-fill-2" d="M1160.19,51.39c-1.35,4,3.46,6.66-1.94,16.11s-29.7,25.65-47.25,29.7-35.1,2.7-56.7,9.45-27,16.2-52.65,29.7,6.75,32.4-8.1,41.85-12.15,21.6-22.95,25-17.55,19.58-35.1,23.55-41.85,27.08-47.25,27.08,31-29.7,18.9-27.25-39.16,2.95-58.06.17-66.15,31.13-94.5,39.23-1.08,1.87-37.53-4.88c0,0,24.39-10.69,37.23-13.26s52.2-15.4,58.62-24.82,22.25-20.75,38.52-20,41.5-16.8,53.49-27.5,43.64-29.1,58.62-35.94S1012.32,107,1023.45,107s40.23-6.85,44.93-13.27,42.37-14.12,54.78-18.4S1160.19,51.39,1160.19,51.39Z"/>
			<path class="mountain-fill-3" d="M1096.15,220.06s32.4-36.46,41.85-40.51,17.55-4.05,35.1-17.55,35.1-35.1,40.5-45.9,6.75-14.85,13.5-14.85,0,28.35,0,35.1,16.2-5.4,18.9,0-28.35,27-35.1,33.75-24.3,9.45-29.7,13.5-29.7,10.8-37.8,19.58-41.85,23.55-41.85,23.55Z"/>
			<path class="mountain-fill-4" d="M1246.17,203.18c24.13,4.72,40.33,26.33,39,35.78s2.7,18.61-5.4,28.88-28,6.22-33.58,11.62-30.29,10.8-44.25,17.55-45,13.5-53.12,14.85-48.6,9.45-52.65,6.75-5.4-8.1-21.6-13.5-37.8-2.7-45.9-9.45-14.85-13.5-16.2-20.25,5.4,1.35,18.9,2.7,25.65,0,50,0,23,3.76,39.15-10.27,28.56-26.18,39.93-31.58,23.52-1.35,35.67-4,20.25-12.15,28.35-21.61S1246.17,203.18,1246.17,203.18Z"/>
			<path class="mountain-fill-5" d="M1368.86,164c9.45,4.76,40.5,6.11,33.75,15.56s-21.6,62.11-33.75,72.91-22.95,39.15-25.65,51.3,5.4,10.8,13.5,23,24.85,10.8,46.85,9.45,22-11.06,31.45-17,14.85-8.64,37.8-7.29,24.3,10.8,37.8,18.9,21.6,15.21,31.05,6.25-4.05-21.1,0-35.95,2.82-36.21,3.43-48.48,2-30,14.12-25.85,20.25-5.32,9.45-9.37-37.8,1-36.45-14.36,9.45-19.4,10.8-27.5,0-11.67-12.15-26.76-13.5-23.19-35.1-29.94-30.58-8.1-37.57,0-1.58,27.48-8.33,29.94-12.15-16.44-21.6-19.14-14.85-11.16-18.9-16.38,4.05-7.92-12.15-12-34.81-1.35-54.53,10.8-37.27,32.4-40,43.2-4,20.25-10.81,25.65-4,12.15,16.21,12.15,6.75-2.7,28.35-17.55S1368.86,164,1368.86,164Z"/>
			<path class="mountain-fill-6" d="M1590.26,171.45c-6.75,4.05-14.85,9.45-8.1,31.73s32.4,49,41.85,64.66,29.7,40,44.55,40,9.45,56.7,24.3,58.05,33.76-3.48,35.11-24.69-2.7-40-14.86-57.63-25.65-18.93-36.45-39.18-3.64-39.16-22.74-47.26S1590.26,171.45,1590.26,171.45Z"/>
			<path class="mountain-fill-7" d="M1814.37,226.73s-2.7-9.53,20.25,0,39.15,9.84,48.6,25.21,4,6.23,13.5,0,31,12.38,45.9,15.9,16.2,1.88,25.65,0,24.3,19.72,29.7,34.57-1.35,24.3,10.8,27,23,8.67,33.75,11.76,9.45,6.21,18.9,24.9-8.1,21.39-36.45,20-45.9,8.1-55.35-10.8-6.75-31-21.6-44.55-12.15-14.85-41.85-17.55-33.75,4.05-44.55-14.85-1.35-19.21-16.2-37.28S1814.37,226.73,1814.37,226.73Z"/>
			<path class="mountain-fill-8" d="M343.48,269.79c11.56,0,52.64,12.69,68,19.11s19.26,6.42,41.08,6.42,24.39-9.43,38.51-11.78,20.55,5.36,30.82,11.78,11.55,15.57,10.27,23.83-16.69,4.58-20.54,0-38.52-3.57-59.06,4.91-65.47,17.48-109.12,11.06-66.75-3.85-82.16-7.7,7.7-12.84,21.82-18S298.55,294,312.67,294,331.93,269.79,343.48,269.79Z"/>
		</g>
	</g>
</svg>
