<svg xmlns="http://www.w3.org/2000/svg" xmlns:xlink="http://www.w3.org/1999/xlink" viewBox="0 0 711.68 77.58">
  <defs>
    <style>.cls-1{fill:url(#linear-gradient);}
    </style>
    <linearGradient id="linear-gradient" x1="180.43" y1="-125.4" x2="537.35" y2="231.52" gradientUnits="userSpaceOnUse">
      <stop offset="0.09" stop-color="#a1d2ed"/>
      <stop offset="0.15" stop-color="#99cfec"/>
      <stop offset="0.24" stop-color="#84c5e8"/>
      <stop offset="0.24" stop-color="#83c5e8"/>
      <stop offset="0.56" stop-color="#5aa5d6"/>
      <stop offset="0.99" stop-color="#1d76bb"/>
    </linearGradient>
  </defs>
  <title>pond
  </title>
  <g id="Layer_2" data-name="Layer 2">
    <g id="Glacier_Pond" data-name="Glacier Pond">
      <path class="cls-1" d="M282.72.86c-27.5-.58,58.7,3.94-.45,33.35-10.64,5.29-32.15,3.25-67.45,4.58-26.23,1-43.74-.88-73.46,0-27.85.82-55.46.27-74.86,0C37.21,38.38,0,48.29,0,56.52c0,6,68.08,20.88,165.8,20.88,115.92,0,242.86.41,327,0,0,0,96.61-1,158.71-8.91,13.75-1.76,38.95-3.1,55.31-7.6,7.72-2.12,5.56-14.4-1.32-24,0,0-101.29-2.1-174.39-2.1-16.45,0-115.81.88-145.1.91s-56.86,2.75-67.6-.88-5.23-9.42,2.84-16.52S335.72,7.52,384.11,0Z"/>
    </g>
  </g>
</svg>
