
<svg xmlns="http://www.w3.org/2000/svg" xmlns:xlink="http://www.w3.org/1999/xlink" viewBox="0 0 2458.74 868.23">
  <defs>
    <style>
      .cls-1,
      .cls-3{stroke:#a2d45e;stroke-miterlimit:10;stroke-width:1.5px;}
      .cls-1{fill:url(#linear-gradient);}
      .cls-2{opacity:0.99;fill:url(#linear-gradient-2);}
      .cls-3{fill:url(#linear-gradient-3);}
    </style>
    <linearGradient id="linear-gradient" x1="1225.45" y1="0.75" x2="1225.45" y2="867.39" gradientUnits="userSpaceOnUse">
      <stop offset="0" stop-color="#a2d45e"/>
      <stop offset="0.35" stop-color="#8cb955"/>
      <stop offset="0.75" stop-color="#78a14d"/>
      <stop offset="1" stop-color="#5E7F3D"/>
    </linearGradient>
    <linearGradient id="linear-gradient-2" x1="1369.79" y1="817.04" x2="1303.42" y2="613.66" gradientUnits="userSpaceOnUse">
      <stop offset="0.4" stop-color="#32acde"/>
      <stop offset="0.48" stop-color="#51b7e2"/>
      <stop offset="0.57" stop-color="#73c3e7"/>
      <stop offset="0.67" stop-color="#8dccea"/>
      <stop offset="0.78" stop-color="#9fd3ed"/>
      <stop offset="0.88" stop-color="#aad7ef"/>
      <stop offset="1" stop-color="#aed8ef"/>
    </linearGradient>
    <linearGradient id="linear-gradient-3" x1="1819.97" y1="7.1" x2="1819.97" y2="867.48" xlink:href="#linear-gradient"/>
  </defs>
  <title>river-hills--bottom2
  </title>
  <g id="Layer_2" data-name="Layer 2">
    <g id="Layer_1-2" data-name="Layer 1">
      <path class="cls-1" d="M2432.29,635a4021.57,4021.57,0,0,0-485.5-263.56c-63.17-28.87-355.76-160.6-683.94-240.8C1084.76,87.09,472.23-62.6.75,31V867.39H2440.22C2459.57,800.47,2447.25,680.86,2432.29,635Z"/>
      <path class="cls-2" d="M1183.15,868c-5.75-11.17,44-24.8,61-31.4,22.81-8.88,252.94-21.14,355.17-137.4,46.68-53.09,87.3-144.66,47.47-180.43s-83,49.19-83,49.19S1534.06,649.8,1468,649.8c-121.73,0-278.34,42.28-353.58,116.26-60.59,59.57-43.11,86.42-108.73,101.92Z"/>
      <path class="cls-3" d="M2458,42,2450.71,43c1.53-6.6,1.62-4-5.63-4.52,3.28-.33,2.49-3.14,3-10.09-2.46.26-8.18,4.58-1.94-3-3.47,1.57-2.93-.69-1.12-7.24a9.57,9.57,0,0,1-4.61,2.67c.87-2.43,1.67-4.81,3.5-6.73-10.61-1.85-3.15,10.94-14,18.29-1.93.69,12.23,3.28-.08,7-3.61-7.52,2.28-4-9.46-3,1.41-4,5.17,3.23,3.18-13.13-.37.33-11.93,9.44-2.06-2.92-8.51,3.4-.71-.54-1.67-4.21,2.3-5.51-8.84,2-.43-9.06-2.12,1-14.06-.44-7.1,15.05-9.52-2.48,2.83-1.07-10,6.37,3.51.58,6.12-.82,1.61,3.31,3-1.49,10.67,5.87.15,2.51-4.78-1.24,12.07,11.88-4.43.19,2.28,4.27-.76,5.11,3.8,12.44,2.08.65-10.11-1.46-3.29,1.75-3.22,2.23-5,1.26-5.37-3.66,2-.75,9.08-8.63-1.7-7.19,2.15-1.79,3.55-7,1-5.92,3.12-8.39-10.3,3.7-1.36-6.68-8.77,4.23,5.75-11.47-6.44-4.58-1.75-.94,9.44-8.91-.46-5.25-.93.13,7.12-6.5-1.86-1.49-4,9.09,1.86,11.29-9.32,18.29,9-1.31-4.15,5.07,3.43,2.47,11.1,5.14-12.6.1,3,6.21-.13.34-6.19,2.64-6.18-3.67-3.12,1.55-.7-.91-4.61,2.67.87-2.43,1.67-4.81,3.5-6.73-10.61-1.85-3.15,10.94-14,18.29-1.93.69,12.23,3.28-.08,7-3.61-7.52,2.28-4.05-9.46-3,1.41-4,5.17,3.23,3.18-13.13-.37.33-11.93,9.44-2.06-2.92-8.51,3.4-.71-.54-1.67-4.21,2.3-5.51-8.84,2-.43-9.06-2.11,1-14.06-.43-7.1,15-9.52-2.48,2.83-1.07-10,6.37,3.5.59,6.15-.84,1.61,3.31,3-1.48,10.67,5.87.14,2.51-4.77-1.25,12.08,11.88-4.42.19-2,1.45,7,12.57.89,13.17-2.36-2.63-5.28,5.82-5.75-2.64,2-.75,9.08-8.63-1.7-7.19,2.15-1.79,3.55-7,1-5.92,3.12-8.39-10.3,3.7-1.36-6.68-8.77,4.23,5.75-11.47-6.45-4.58-1.74-.94,9.45-8.91-.46-5.25-.92.13,7.13-6.5-1.85-1.49-4,9.09,1.86,11.29-9.32,18.29,1.73.56,6.16-.75,1.7,2.56,3.14-.26,9.16,5.2.22,2.34-8.1.11-6.67,8.19-4.7-8.89-2.47.26-8.19,4.59-1.95-3-3.47,1.58-2.93-.68-1.12-7.23a9.57,9.57,0,0,1-4.61,2.67c.87-2.43,1.67-4.82,3.5-6.73-10.61-1.86-3.15,10.93-14,18.29-1.93.69,12.23,3.27-.08,7-3.61-7.52,2.28-4-9.46-3,1.41-4,5.17,3.24,3.18-13.12-.37.33-11.93,9.44-2.06-2.93-8.51,3.41-.71-.53-1.67-4.2,2.31-5.51-8.84,2-.43-9.07-2.12,1-14.05-.43-7.1,15.06-9.52-2.48,2.83-1.07-10,6.37,3.51.58,6.12-.83,1.61,3.31,3-1.49,10.67,5.86.15,2.5-4.78-1.23,12.08,11.88-4.42.2,2.27,4.27-.77,5.11,3.79,12.44,2.08.64-10.11-1.46-3.29,1.75-3.22,2.23-5,1.26-5.37-3.66,2-.76,9.11-8.65-1.75-7.19,2.82-2.22,4.09-10.34-1.27-3.69,9.95-12.09-10.26,3.2.92-8.91-8.77,4.23,5.75-11.47-6.44-4.59-1.75-.93,9.44-8.9-.46-5.24-.93.12,7.12-6.51-1.85-1.5-4,9.1,1.85,11.29-9.33,18.3,9-1.31-4.15,5.06,3.44,2.47,11.09,5.13-12.61.09,3,6.21-17.22-2.44-1.76-5.93-10.23,15-.47-2.62-14.91,11.09,1.15,17.65-2.73,1.29-6.9-1.4-8.58,2.37,6-.79-14.74,17.68-6.34-3.28,1.07-7.56-12.68,5.31-3.09-7.22-4.49,2.12-3.42-.62-1.4-9.13a12.1,12.1,0,0,1-5.82,3.37c1.1-3.07,2.11-6.07,4.42-8.49.08-.55-9.16,6.83-3.34-.81-2.2-5.64-3.55,12.27-8.92,8.79.55,4.45,9,4.08-5.38,15.09,2.4.65,7.37-1.07.05,4.53,3.81-2.37,12.52.06-.16,4.26-4.54-9.48,2.88-5.1-11.93-3.77,1.78-5,6.52,4.08,4-16.56-.47.42-15,11.92-2.59-3.69-1.49,1.55-11.26,2.51-3.76.23,8.43-13.63-12.36-.53,1.11-17-13.9,7.11,4.89-7.18-8.86-.46,4.18,10.09-12.33,6.45-.11,19.46-12-3.14,3.57-1.36-12.66,8,4.48.78,8-1.23,1.57,4.6,3.55-2.53,14.68,5.25-.46,3.47,6.28,4.7,9.87,11-4.48-.49,2.73,5-.65,6.39,4.79,15.7,2.63.81-12.76-1.84-4.15,2.2-2.38,1-7.48,4.69-6.77-4.61,4.38-.94,3.88-1.06,5-11-2.34-.55-2.18,7.1-9.85,2.4,3.38-1.36,6.94,1.73,3.83-12.89-4.37,3.23-9.53,4.66-1.61-3.46-11.07,5.34,7.26-14.48-8.13-5.78-2.46-.1,12.8-13.87-.53-5.87.49-1.37,5.34-9.23-.89-2.46-8.69,9.8,1.87,14.33-13.26,22.9,11.94-.15-7.53,4.35,6.92,4.05,8.24,7.75-18.09-2.13,1.2,6.91-2.85,4.31-10.66-5.79-11.21-3.21,9.87,9.22-7.09-.74,5.22,12.22-5.79-.25-6-.59-4.89,6-2.67-1.8-.86-.84-8.67,8.19,11.83,9-5.8-.26.09,4.94,4.44,2-7.36,15.85-12.57,9.2,1.13-.27,2.2-.39,3.26-.69-2.89.16,5.21-11.76-2.33-5.51-6.88,3.46,2.9-7.33-1.39-7,2.9-8.19-9.35,3.51-1.2-6.72-3.46,1.58-2.92-.69-1.11-7.24a9.57,9.57,0,0,1-4.61,2.67c.87-2.43,1.67-4.81,3.5-6.72-10.61-1.86-3.15,10.93-14,18.28-1.93.69,12.23,3.28-.08,7-3.61-7.52,2.28-4-9.46-3,1.41-4,5.17,3.23,3.18-13.12-.37.32-11.93,9.44-2.06-2.93-8.51,3.41-.71-.54-1.67-4.21,2.3-5.51-8.84,2-.43-9.06-2.12,1-14.06-.43-7.1,15.06-9.52-2.49,2.83-1.08-10,6.37,3.51.58,6.11-.83,1.61,3.3,3-1.48,10.67,5.87.14,2.51-4.77-1.23,12.08,11.88-4.42.19,2.28,4.28-.76,5.12,3.79,12.45,2.09.64-10.1-1.46-3.28,1.74-3.22,2.24-5,1.27-5.37-3.65,2.15-.81,10-9.62-3.86-6.83,3.24-.91,5.29.38,3-10.22-3.46,2.56-7.54,3.69-1.27-2.74-8.77,4.23,5.75-11.48-6.45-4.59-1.74-.94,9.45-8.9-.46-5.25-.92.13,7.12-6.5-1.85-1.49-4,9.1,1.86,11.29-9.32,18.29,10-1.05-6.06,5.2,4.76,2.29,8.39,7.84-13.72-1.12,1.68,6.4-2.54,2.7-13.07-6.41-6.66-.59-5.66,2.07,7.8,9.13-2.59,7.67-3.14.39,2.47.26.62,4.84-6.1-2.34,2.37,1.45-6.3,4.6,3.83,8.07-1.73,2.36-.51,5.8,6.76.35-23.52,23.21-5.21.28-1.82,1.88-13.74,3.06-4.58.28-1.17-1.31,7.82-18.46-.14-10.85-4.46,3.47-7.55.27,1.49-9.87-17,8.72,6-8.73-10.81-.54,4.79,12.72-15,7.76-.13,23.73-15.37-3.73,5.48-1.71-15.45,9.8,10.26,1.33,8.38-2,1.42,6.06,3.63-4.36,19.17,6-.07,3.78,3.9,3.13,15.62,14.75-3.39,1.15-3-5.83-1.32,9.14,3.09,15.94-6.29.13-12.61,12.23-12.65-1.46,5.35-1.16,4.74-1.31,6.08-13.45-2.85-.68-2.66,8.66-12,2.93,4.67,2.72,10-11.83,4.81-9.67,4.79-12.9-15.85,5.69-2.09-10.28-12.44,5.06,7.38-16.77-9.93-7.06-2.84-1.88,16-15-.71-8.07,6.71-4.12-2.14-8.74-1,.29-13.85,12,5,12.74-16.22,25.57,12.68-2-4.7,7.68,5.29,3.8,0,0,1-1.8,3.17,1.14,8.91,8.8-19.84-1.83,1.46,8.42-3.48,5.26-13-7.06-13.69-3.92,10.59,9.61-4.46,1.48,2.92,11.63,9.37,4.15-4.05,2-4.28,4.53,9.19,4.46-10.2,5.2,1.29,9.65-2.71-2.72-26.39,17.31-10-3.63-1.81,1.88-13.74,3.06-4.58.28-1.16-1.31,7.83-18.46-.13-10.84-4.46,3.46-7.55.26,1.49-9.88-17,8.72,6-8.73-10.81-.54,4.79,12.72-15.05,7.76-.14,23.73-15.36-3.73,5.49-1.71-15.44,9.8,10.26,1.33,8.38-2,1.42,6.06,3.63-4.36,19.17,6.05-.07,3.78,3.9,3.13,15.62,14.75-3.39,1.15-2.9-6.14-1.31,10.38,3,15.46-6.59,1.3-12.12,12.3-12.52-1,5.34-1.16,4.73-1.3,6.08-13.45-2.86-.67-2.66,8.66-12,2.93,5.55,3.06,10.27-15,3.7-8.46,10.24-19.14-17.46,9.65-1-11.49-12.43,5.07,7.38-16.77-9.92-7.06-2.84-1.88,16-15-.71-8.07,6.71-4.12-2.15-8.74-1,.29-13.85,12,5,12.74-16.22,25.57,12.68-2-4.7,7.68,5.29,3.8,0,0,1-1.8,3.16,1.14,8.91,8.8-19.83-1.83,1.46,8.43-3.48,5.25-13-7.07-13.68-3.93,1,1.65,7.71,6.23,0,6.83,4.21,8.33,9.1,6.56-1.34,9.33,7.46,4.29-4.53,3.89-1.51,8.08,3.52,4,0,1.6-5.69,4-1.07-3.86-1.54,8.05-6.24,10.63-.91-.48,4.8,2.43,2.47,3.53-5.81,1.42,1.66-3.43-8.28-1.48,3-1.29,2.18-1.81,1.85-7.75-.23.2-7.28,5.76-1.46-1.6-.89.82-3.79.5-1.14-8.49-1.19.92-9-1.46-4.42,9.38-5.8-1.58,1.54-.66-6.08,3.86,1.3.56,7.82,6,.92,3.73,4,6.75,1,.2-2.43,1.9,4.6,2.64-4.17-.44,2.63,6,1.06.52-7-1.08-2.64,1-2,1.39-3.13.79-3.35-2.27,1.34-.5,6.22-6-2.4-4.26,8.33-5-4.71-3.83,1.1-8.07-5.47,2.63,3.58-7.15-4-2.86,3.16-12.08-2.48,3.23-7.25,7.2,5.6-.82-2.59,3.16,2.14,1.53,6.9,3.2-7.84.07,1.87,3.88-2.62,2.13-7.58-5.48-3.93.83,0,2.7-3.59,5.2-1.46,7.9-.19.08-.12.19-.55,0-13.16,6.9-5.11,14.53-16.11,23.87-1.93.69,12.22,3.28-.08,7-3.61-7.52,2.27-4-9.47-3,1.41-4,5.17,3.23,3.19-13.12-.38.32-11.94,9.44-2.06-2.93-8.51,3.41-.71-.54-1.67-4.21,2.3-5.51-8.85,2-.44-9.06-2.11,1-14.06-.43-7.1,15.06-9.51-2.49,2.83-1.08-10,6.36,3.51.59,6.11-.82,1.61,3.31,3-1.48,10.66,5.87.14,2.51-4.78-1.23,12.08,11.88-4.42.19,2.27,4.28-.77,5.12,3.79,12.45,2.09.64-10.11-1.46-3.28,1.74-3.23,2.24-5,1.27-5.37-3.65,2.14-.81,10-9.62-3.87-6.83,3.25-.9,5.3.37,3-10.22-3.46,2.56-7.55,3.69-1.27-2.74-8.78,4.23,5.75-11.48-6.45-4.59-1.75-.94,9.45-8.9-.46-5.25-.92.13,7.12-6.5-1.85-1.49-4,9.1,1.85,11.29-9.32,18.29,9-1.31-4.15,5.07,3.43,2.47,11.09,5.14-12.6.1,3,6.22-17.23-2.45-1.77-5.93-10.23,15-.47-2.62-14.91,11.09,1.15,17.65-2.73,1.29-6.91-1.41-8.59,2.36,10.28,19.07-10.25-2.05,1.41,13.47,9.72-.21,8.23,21.8-15.24,27.61,5.44-5.63,6.92-1.09,4.9-20.21-3.27,2.43-17.54,14-3.16-4.5-1.82,1.88-13.74,3.06-4.58.28-1.17-1.31,7.82-18.45-.14-10.84-4.46,3.46-7.55.26,1.49-9.87-17,8.71,6-8.74-10.81-.55,4.79,12.72-15,7.77-.13,23.73-15.36-3.72,5.48-1.71-15.45,9.81,10.27,1.32,8.38-2,1.42,6.05,3.63-4.36,19.17,6-.07,3.78,7.67,5.74,12,13.44-5.46-.59.19,1.14,1.09,7.93,5.84,19.16,3.22,1-15.25-2.18-5.24,2.6-1.23.21-8.08,7.94-8.08-5.54,5.34-1.16,4.73-1.3,6.07-13.45-2.85-.67-2.66,8.67-12,2.94,4.67,2.72,10-11.84,4.81-9.68,4.79-12.9-15.85,5.69-2.09-10.27-12.44,5.06,7.38-16.78-9.93-7.07-2.84-1.87,16-14.94-.71-8.07,6.71-4.11-2.14-8.73-1,.29-13.85,12,5,12.75-16.22,25.57,12.68-2-4.7,7.69,5.29,3.8,0,0,.95-1.79,3.17,1.14,8.91,8.81-19.84-1.83,1.46,8.43-3.48,5.26-13-7.06-13.69-3.92,10.59,9.6-4.46,1.47,2.92,11.62,9.37,4.16-4,2-4.28,4.53,9.2,4.46-10.2,5.21,1.29,9.65-19.06.22.61,15.32-8.82,10.36-2.46-6.19-7.88,12.91,8.6,18-6.23,4.37-7.9-4.88-13.21,3.65,12.83,22-16.53,4.36,4.73,21.93-9.17,0,3.49-1.71-9.25,6.88l2.3.12-3.42,3.15c-13.35-.36-5.21,7.88-6.27-13.89-.43.41-13.86,10.95-2.39-3.39-1.37,1.42-10.36,2.31-3.45.21,7.75-12.55-11.39-.49,1-15.63-2.46,1.15-16.32-.5-8.25,17.49-11-2.88,3.29-1.25-11.65,7.4,4.07.67,7.1-1,1.87,3.84,3.49-1.73,12.39,6.81.16,2.91-5.54-1.43,14,13.8-5.13.22,2.64,5-.89,5.94,4.4,14.45,2.43.75-11.74-1.69-3.81,2-2.2.95-6.89,4.31-6.24-4.24,3.39-1.29,10.14-10.16-4.48-7.94,3.76-1,6.15.45,3.52-11.86-4,3-8.76,4.28-1.47-3.18-10.19,4.91,6.67-13.33-7.49-5.33-2-1.09,11-10.34-.54-6.09-1.07.14,8.27-7.56-2.14-1.74-4.64,10.58,2.15,13.11-10.83,21.24,10.43-1.52-4.82,5.89,4,2.87,12.87,6-14.64.11,3.49,7.22-2.63,4-9.82-5.33-10.32-3,9.3,7.65-7.62,1,5.16,10.52-9.21.43-1.81,7.61-11.69,10.78-3.24.48,5.26,11.61-.14,4.62a2.33,2.33,0,0,0-.36,1.14c-1.63-1.26-3.5-.7-.57,2.38-2.11.77,3.78,1.62,1.14,3.54-8.21.33,3.49.49-3.73,10.64,2.52,1.7,1.1,1.71-1.64,1.18,5,6.27-.47,3.85,1.34,7.89-.88-1-3.63-1.79-1.45,1.95-2.41-.74-1-1.67-4.15,2.12,1.14.22.08-.33,4,.39-6.65,5.27-.89-1.22,1.63,5.49-7.3.25-4.21-3-15-2.58,3.34-2,4.27-.2,3-12.45-.38.33-11.93,9.45-2.06-2.92-8.51,3.41-.71-.54-1.67-4.21,2.3-5.51-8.84,2-.43-9.06-2.12,1-14-.43-7.1,15.06-9.52-2.49,2.83-1.08-10,6.36,3.51.59,6.12-.82,1.61,3.31,3-1.49,10.67,5.87.14,2.51-4.77-1.23,12.08,11.88-4.42.19,2.28,4.28-.76,5.12,3.79,12.45,2.09.64-10.1-1.46-3.28,1.74-3.22,2.23-5,1.27-5.37-3.65,2.15-.81,10-9.63-3.86-6.83,3.24-.91,5.29.37,3-10.23-3.47,2.57-7.55,3.7-1.28-2.73-8.77,4.22,5.75-11.48-6.45-4.59-1.74-.94,9.45-8.9-.46-5.25-.92.13,7.13-6.5-1.85-1.49-4,9.1,1.86,11.29-9.32,18.29,10-1.05-6.06,5.2,4.77,2.29,8.38,7.84-13.73-1.12,1.67,6.4-17.23-2.45-1.77-5.93-10.23,15-.81-2.47-14.72,11.27,1.15,17.65-2.73,1.3-6.9-1.4-8.58,2.37,8.4,11-10.91,7.28,3.34,13.5,2.5.32-7.22,3.18,2.91,2.7q-10.45,8-21.31,16c3.78-7.15-8.15,1.42-1.16-6.44-2.41,1.1-2-.48-.77-5.05a6.73,6.73,0,0,1-3.22,1.87A12.46,12.46,0,0,1,1436,613c-7.36-1.28-2.31,7.58-9.74,12.74-1-.53,5.37,2.73,2.76,3.95-6.51,1.59,1.86-3.83-9.27-1.65,2.87-1.4,2.73-1.07,2.07-8.67-.26.23-8.32,6.58-1.43-2-5.93,2.37-.5-.38-1.17-2.94,1.61-3.84-6.16,1.4-.3-6.31-1.36,1-10-1.65-5,10.49-6.49-1.76,1.72-.74-6.81,4.33,1.44.62,8.82,6.8,1,4.17,4.48,7.55,1,.21-2.72,2.12,5.14,3-4.66-.49,2.94,6.74,1.19.58-7.78-1.21-3,1.16-2.25,1.56-3.51.89-3.75-2.54,1.42-.53,6.35-6-1.22-5,1.67-1.59,2.7-6.68-.32-3.06,5.86-9.24-7.66,3.74.08-5.73-6.12,3,4-8-4.49-3.2,3.53-13.52-2.78,3.62-8.12,8.06,6.27-.92-2.89,3.53,2.4,1.72,7.72,3.57-8.78.07,2.09,4.33-1.32,2.49-7-3.75-5.84-1.53,6.91,9.33-15.08,14-.48,24.29-1.91.9-4.82-1-6,1.65,5.34,4.47-7.14,7.76,2.45,9.07,1.33,1.64-104.17,63.15-106.63,65.26,0-5.34-86.09,64.47-93.65,137.09,95.35,0,759.5,0,1276,0ZM1387.65,645.26l0,.19A.35.35,0,0,1,1387.65,645.26Zm-1.63-1h0a.41.41,0,0,0,.21-.1A.41.41,0,0,1,1386,644.29Zm3.17-10.35c.13-.06.22-.24.46,0A.32.32,0,0,0,1389.19,633.94Zm13.6,7.81a.21.21,0,0,1,.21.18A.21.21,0,0,0,1402.79,641.75Zm.72.29c0-.33.19-.35.4-.34C1403.7,641.69,1403.5,641.71,1403.51,642Zm.65-.34h0Zm16.07-11.14a2.43,2.43,0,0,1,.29-.18A.82.82,0,0,1,1420.23,630.56Zm1.76,5.87c1.52-.6-1.29-3,2.1-3.22C1426.75,634.08,1426.41,639.62,1422,636.43Zm45.22-73c.24-.1.32-.35.7.12C1467.85,563.4,1467.62,563.17,1467.21,563.41Zm14.62-9.85,1.84-1.62A14.22,14.22,0,0,1,1481.83,553.56Zm-1.11.91.34-.27A1.68,1.68,0,0,1,1480.72,554.47Zm7.11,20.22c.08-.19.21-.08,1.05-.14C1488.41,574.54,1488.7,574.5,1487.83,574.69ZM1512,558.44a.59.59,0,0,1,.18-.13Zm2.28,8.55c-2.41-3.48,10.9-8.46,0,0Zm5.72-6.38h0a.57.57,0,0,1,.2.33A.57.57,0,0,0,1520,560.61Z"/>
    </g>
  </g>
</svg>
