<svg xmlns="http://www.w3.org/2000/svg" xmlns:xlink="http://www.w3.org/1999/xlink" viewBox="0 0 2463.44 2010.45">
  <defs>
    <style>
      .cls-1,
      .cls-3,
      .cls-4,
      .cls-5 {
        stroke:#a2d45e;stroke-miterlimit:10;stroke-width:1.5px;
      }
      .cls-1{fill:url(#linear-gradient);}
      .cls-2{fill:url(#radial-gradient);}
      .cls-3{fill:url(#linear-gradient-2);}
      .cls-4{fill:url(#linear-gradient-3);}
      .cls-5{fill:url(#linear-gradient-4);}
      .cls-6{fill:url(#linear-gradient-5);}
      .cls-7{fill:url(#radial-gradient-2);}
      .cls-8{fill:url(#linear-gradient-6);}
    </style>
    <linearGradient id="linear-gradient" x1="1732.49" y1="124.17" x2="1732.49" y2="782.12" gradientUnits="userSpaceOnUse">
      <stop offset="0" stop-color="#b1db77"/>
      <stop offset="0.8" stop-color="#86a764"/>
    </linearGradient>
    <radialGradient id="radial-gradient" cx="1318.46" cy="907.12" r="507.15" gradientTransform="matrix(1, 0, 0, 0.73, 0.91, 242.55)" gradientUnits="userSpaceOnUse">
      <stop offset="0" stop-color="#a1d2ed"/>
      <stop offset="0.23" stop-color="#99cfec"/>
      <stop offset="0.58" stop-color="#84c6e8"/>
      <stop offset="1" stop-color="#62b9e3"/>
    </radialGradient>
    <linearGradient id="linear-gradient-2" x1="829.92" x2="829.92" y2="824.29" gradientUnits="userSpaceOnUse">
      <stop offset="0" stop-color="#b1db77"/>
      <stop offset="0.8" stop-color="#86a764"/>
    </linearGradient>
    <linearGradient id="linear-gradient-3" x1="1883.28" y1="416.41" x2="1883.28" y2="1437.4" gradientUnits="userSpaceOnUse">
      <stop offset="0.1" stop-color="#a7d766"/>
      <stop offset="0.36" stop-color="#a5d565"/>
      <stop offset="0.51" stop-color="#9fcd63"/>
      <stop offset="0.63" stop-color="#94bf60"/>
      <stop offset="0.73" stop-color="#85ab5b"/>
      <stop offset="0.77" stop-color="#7ea259"/>
      <stop offset="1" stop-color="#71984a"/>
    </linearGradient>
    <linearGradient id="linear-gradient-4" x1="574.52" y1="415.06" x2="574.52" y2="1243.65" gradientUnits="userSpaceOnUse">
      <stop offset="0" stop-color="#a7d766"/>
      <stop offset="0.8" stop-color="#71984a"/>
    </linearGradient>
    <linearGradient id="linear-gradient-5" x1="1074.53" y1="1100.42" x2="1319.37" y2="1100.42" gradientUnits="userSpaceOnUse">
      <stop offset="0" stop-color="#a1d2ed"/>
      <stop offset="0.08" stop-color="#89c9e9"/>
      <stop offset="0.22" stop-color="#5eb8e3"/>
      <stop offset="0.3" stop-color="#4db2e0"/>
      <stop offset="0.3" stop-color="#51b3e1"/>
      <stop offset="0.35" stop-color="#6ebee5"/>
      <stop offset="0.4" stop-color="#82c5e8"/>
      <stop offset="0.45" stop-color="#8fcae9"/>
      <stop offset="0.5" stop-color="#93cbea"/>
      <stop offset="0.55" stop-color="#89c7e9"/>
      <stop offset="0.64" stop-color="#6ebee5"/>
      <stop offset="0.73" stop-color="#4db2e0"/>
      <stop offset="0.87" stop-color="#76c2e6"/>
      <stop offset="1" stop-color="#a1d2ed"/>
    </linearGradient>
    <radialGradient id="radial-gradient-2" cx="1615.33" cy="1356.72" r="392.28" gradientUnits="userSpaceOnUse">
      <stop offset="0" stop-color="#aed8ef"/>
      <stop offset="0.03" stop-color="#abd7ee"/>
      <stop offset="0.39" stop-color="#8ac8e9"/>
      <stop offset="0.58" stop-color="#7dc2e7"/>
    </radialGradient>
    <linearGradient id="linear-gradient-6" x1="1205.07" y1="1177.39" x2="1205.07" y2="1099.41" gradientUnits="userSpaceOnUse">
      <stop offset="0" stop-color="#62b9e3"/>
      <stop offset="0.12" stop-color="#76c1e6"/>
      <stop offset="0.36" stop-color="#94ceeb"/>
      <stop offset="0.58" stop-color="#aad7ef"/>
      <stop offset="0.8" stop-color="#b7dcf1"/>
      <stop offset="1" stop-color="#bcdef2"/>
    </linearGradient>
  </defs>
  <title>river-hills_2
  </title>
  <g id="Layer_2" data-name="Layer 2">
    <g id="top_hills" data-name="top hills">
      <polygon class="cls-6" points="1074.53 1031.27 1319.37 1031.27 1319.37 1169.57 1075.2 1169.57 1074.53 1031.27"/>
      <path class="cls-1" d="M2461.54,262.8c.09-1.94-4.88.92-2-9.76-.42-.76-2.36,5.13-5.1,2.15,1.27.87,0-1.55,3.48-.94-.9-3.81,7.66-15.15-4.82-5,.21-2.8,2.46-4,3.67-9-2.65-.07-13.6,10.88-.3-6.93-.56-3.37-15.18,14.69-3.31-6.28-1.44.07-8.5,9.08-8.85-1.82,1.83-.43,3.52-.51,5.24-1.37-7.05,4,5.25-13.44-4.19-5.62-7.76,3.91,3.27-8.27-1.57-7.85,3.27-9.23-10.54,4-1.35-7.57-3.9,1.77-3.3-.78-1.25-8.17a10.89,10.89,0,0,1-5.2,3c1-2.75,1.88-5.43,4-7.59.07-.49-8.19,6.09-3-.73-2-5-3.17,11-8,7.86-1.14,1.33,8.55,3.25-4.8,13.49,2.15.58,6.58-1,0,4,3.41-2.11,11.19.06-.13,3.82-4.07-8.48,2.57-4.56-10.67-3.38,1.59-4.46,5.83,3.65,3.59-14.8.5-.36-13.84,11.13-2.33-3.3-5.77,1.87-3.77,1.8-.94-9.88-3.45,4-10.21,5.48-1.42-5.09-1.48-.92-10.2,8.37-2.7-3-4.55-2.32-7.42,21.87-10.06,7.36,1.39,1.12-13.21,7.3-4-.11,3.22-16.59-12.8,1.71-2.25-12.4-3.91,1.78-3.3-.77-1.26-8.16a10.8,10.8,0,0,1-5.2,3c1-2.74,1.88-5.42,3.95-7.58.08-.5-8.19,6.1-3-.73-2-5-3.18,11-8,7.86-1.15,1.33,8.54,3.26-4.81,13.49,2.17.59,6.57-1,0,4,2.82-3.63,13.16,4.29-2,2,.41,1.35,4.85-2.8.39-1.84.13,0-.06-.33.41-.56,1.72-6.85-6.59,6-9.32.1,7.19-3.1,1.9-3.62,4.15-14-.67-1.07-14.57,11.55-3.12-3.33-11.47,7.75,6.74-14.92-6.34-6.42-5-2.08,12.61-11.83-1.68-6.94,5.59-13.66-3.07,10.34-7.79,6.08,1.09,2.76.52,2.53,5.43,9.3-10.74-2.8,3.19-1.21-11.32,7.18,4.16.67,7.17-1.08,1,4.44,1.54,2.58,3.58-7.06,6.84,3.49-14.33-2.22-1.54.35-2.49,4.73-8.45-1.06-8.22-12.22-7.15,1.1-8.39-.92,7.35-6.7-9.73-2.84.13-1.59,4.92,3,2.07-11.49-3.91,2.89-8.52,4.16-1.44-3.09-9.89,4.77,6.48-12.94-7.27-5.18-2-1.07,10.65-10-.52-5.91,5.29-10-3.46,4.61-6.5,6.7-.31-1.65-9.52,9.34-1.9-4-2.34,1.6-5,4.33-5.75-1.19a14.18,14.18,0,0,0,3.4-.88c-1.32-13.45-4,8.31-4.61-13.68-2.54,1.16-2.15-.5-.82-5.3a7,7,0,0,1-3.38,2,13.09,13.09,0,0,1,2.57-4.93c-7.74-1.35-2.44,8-10.24,13.39-1.07-.56,5.64,2.87,2.9,4.15-6.84,1.68,2-4-9.74-1.73,3-1.48,2.87-1.13,2.17-9.12.33-.23-9,7.23-1.5-2.14-8.51,5.1,5.8-9.53-4.59-4.42-1.74-1.15,7.76-7-.62-4.26,2.79-8.47-1.62,6.92-5.06,3.95.74,1.59-.38.12,3.52,6-6.87-1.87,2-.77-7.35,4.67-.83-1.52,10.63,7.42,1.29,4.25,4.7,7.94,1.11.23-2.86,2.23,5.4,3.11-4.9-.51,3.1,7.09,1.24.61-8.18-1.28-3.11,1.22-2.36,1.64-3.69.93-3.94-2.68,1.58-.58,7.31-7-2.83-5,9.8-5.9-5.53-4.5,1.3-9.49-6.43,3.09,4.21-8.41-4.73-3.37-1.28-.68,6.92-6.52-.33-3.84-.68.09,5.21-4.76-1.36-1.09-2.86,6.65,1,8.23-6.83,13.4,6.58-1-3.05,3.71,2.51,1.81,8.12,3.75-9.22.08,2.21,4.55-2.16,2.26-9.19-5.1-5.14-.51,3.9,9.62-11,16.22-29.45,7-.74.35.12.63-2.56,1.8.24-.22.28-.07.24-.83.58.4,0-.7,1.58-.42,3.29-9.4-5.46,3.25-.52-6.34-2.67,1-4.78,3.23-.14-3.14-.26-1.51-6.87,6.65-1.5-2.84-1.63,1.12-3.45,3-4-.83a9.8,9.8,0,0,0,2.38-.61c-.92-9.27-2.75,5.65-3.22-9.54-1.77.81-1.49-.35-.57-3.69a4.85,4.85,0,0,1-2.35,1.36,9,9,0,0,1,1.79-3.44c-5.4-.93-1.7,5.56-7.15,9.34,3.12,3.14,1.79,2.16-4.76,1.69,7.1-6.09-4.56-3.1.46-7.85-5.92,3.56,4.05-6.64-3.2-3.09,2.06-7.07.31-2.71-3.95-.21.51,1.11-.27.09,2.45,4.21-4.67-1.35,1.22-.49-5.12,3.25,2.75,1.51,4.53,5.38-1.1,4.53,3.61,2.14-3.33-.15,2.16,4.94.87.42-5.7-.89-2.17.85-1.66,1.15-2.56.63-2.74-1.87,1.1-.41,5.09-4.91-2-3.49,6.83-4.11-3.86-3.13.9-6.62-4.48,2.16,2.93-5.86-3.3-2.34,2.59-9.9-2,2.65-5.94,5.9,4.59-.67-2.12,2.59,1.76,1.26,5.66,2.62-6.44.06,1.53,3.18-1.15,1.74-4.31-2.34-4.54-1.3,4.14.75-5.14,8-.25,1.68-1.77.81-1.49-.35-.57-3.69a4.85,4.85,0,0,1-2.35,1.36,9.12,9.12,0,0,1,1.78-3.44c-5.39-.93-1.69,5.56-7.14,9.34,3.11,3.15,1.79,2.16-4.76,1.69,7.1-6.09-4.56-3.1.46-7.85-5.92,3.56,4.05-6.64-3.2-3.09,2.06-7.07.31-2.71-4-.21.51,1.11-.27.09,2.45,4.21-4.67-1.35,1.22-.49-5.12,3.25,2.74,1.51,4.53,5.38-1.1,4.53,3.61,2.14-3.33-.15,2.16,4.94.87.42-5.7-.89-2.17.85-1.66,1.15-2.56.63-2.74-1.87,1.1-.41,5.09-4.91-2-3.49,1,1.26,3.5-4.06,1.59-3.2,1.6-4.29-5.26,1.89-.69-3.41-4.48,2.15,2.93-5.86-3.3-2.35,2.59-9.9-2,2.65-5.94,5.9,4.59-.67-2.12,2.59,1.76,1.27,5.65,2.61-6.44.05,1.53,3.17-1,1.82-5.12-2.75-4.28-1.12,1.1,3,.4,3.51,0,6.93-2.11-1.73-7.59,6.52-2.84-3.33-1.72-.05-8.85,7.08-.2-4.5-.37-2.18-9.86,9.54-2.15-4.08-2.34,1.6-5,4.34-5.75-1.18a14.4,14.4,0,0,0,3.41-.89c-1.33-13.45-4,8.32-4.62-13.67-2.54,1.15-2.15-.51-.82-5.31a7,7,0,0,1-3.37,2,12.93,12.93,0,0,1,2.56-4.93c-7.74-1.34-2.44,8-10.24,13.4-1.07-.57,5.65,2.86,2.9,4.15-6.84,1.67,2-4-9.74-1.74,3-1.47,2.87-1.13,2.18-9.11.32-.24-9,7.23-1.51-2.15-8.5,5.11,5.81-9.52-4.59-4.42-1.74-1.15,7.76-7-.62-4.26,2.79-8.47-1.62,6.92-5.06,4,.74,1.59-.38.12,3.53,6-6.88-1.87,1.95-.76-7.36,4.67-.83-1.51,10.64,7.42,1.29,4.26,4.71,7.94,1.11.23-2.86,2.23,5.41,3.1-4.9-.52,3.1,7.08,1.24.61-8.18-1.27-3.11,1.23-2.36,1.63-3.69.93-3.94-2.68,1.58-.59,7.31-7.05-2.82-5,9.8-5.89-5.54-4.5,1.29-9.49-6.43,3.1,4.21-8.4-4.73-3.36-1.28-.69,6.92-6.52-.33-3.84-.68.09,5.21-4.77-1.36-1.1-2.85,6.65,1,8.24-6.83,13.4,6.59-1-3,3.72,2.52,1.81,8.11,3.76-9.23.08,2.2,4.56-1.39,2.61-7.34-4-6.14-1.62.94,0,2.33,9.55-3.5,12.8-1.21,4.11-4.89,5.17.59,11.58q-17,2-34.09,4.58c2.66-9.82-3.29,6.32-3.32-12.89-2.54,1.15-2.15-.51-.82-5.31a7,7,0,0,1-3.37,2,12.93,12.93,0,0,1,2.56-4.93c-7.74-1.34-2.44,8-10.24,13.4-1.07-.57,5.65,2.86,2.9,4.15-6.84,1.67,2-4-9.74-1.74,3-1.47,2.87-1.13,2.18-9.12.32-.23-9,7.24-1.51-2.14-8.5,5.11,5.81-9.52-4.59-4.42-1.74-1.15,7.76-7-.62-4.26,2.79-8.47-1.62,6.92-5.06,3.95.74,1.59-.38.12,3.52,6-6.87-1.87,2-.76-7.35,4.67-.83-1.52,10.63,7.42,1.29,4.26,4.71,7.93,1.11.23-2.86,2.23,5.41,3.11-4.9-.52,3.1,7.08,1.24.61-8.18-1.27-3.11,1.22-2.36,1.64-3.69.94-3.94-2.67,1.58-.59,7.31-7.05-2.83-5,1.49,1.8,5-5.83,2.29-4.6,2.29-6.15-7.54,2.71-1-4.89-6.43,3.1,4.21-8.41-4.73-3.36-1.28-.69,6.92-6.52-.33-3.85-.68.1,5.21-4.76-1.36-1.09-2.85,6.65,1,8.23-6.83,13.4,6.59-1-3.05,3.72,2.52,1.81,8.11,3.76-9.23.08,2.2,4.56-.24.52-5,1.36-4.53-2.7-2.29,1.14-.51-.66-3.38,2a13.09,13.09,0,0,1,2.57-4.93c-7.74-1.34-2.44,8-10.24,13.4-1.07-.57,5.64,2.86,2.9,4.15-6.84,1.67,2-4-9.74-1.74,3-1.47,2.87-1.13,2.17-9.12.33-.23-9,7.23-1.5-2.14-8.51,5.11,5.8-9.52-4.59-4.42-1.74-1.15,7.76-7-.62-4.26,2.79-8.47-1.62,6.92-5.06,4,.74,1.59-.38.12,3.52,6-6.87-1.87,2-.76-7.35,4.67-1.23-.9,11,6,.65,4.68,2.73,2.17,6.63,6.42-2.61-.28-1.67-1.17,7.72,16-3.56,7.72,1.58-.59,7.31-7-2.83-5,1.48,1.8,5-5.83,2.29-4.6,2.29-6.15-7.54,2.71-1-4.89-6.43,3.1,4.21-8.41-4.73-3.36-1.28-.69,6.92-6.52-.33-3.85-.68.1,5.21-4.76-1.36-1.09-2.86,6.65,1,8.23-6.83,13.4.17,2.39,3.75.35,3.93,4.34-2-4.06-8,8-7.4-9.44-2.54,1.15-2.14-.51-.81-5.3a7.12,7.12,0,0,1-3.38,1.95,13,13,0,0,1,2.56-4.93c-7.74-1.34-2.43,8-10.24,13.4-1.07-.56,5.65,2.86,2.91,4.15-6.84,1.67,2-4-9.74-1.73,3-1.48,2.86-1.14,2.17-9.12.33-.24-9,7.23-1.51-2.14-8.5,5.1,5.81-9.53-4.59-4.43-1.73-1.15,7.77-7-.62-4.25,2.79-8.48-1.61,6.91-5.06,3.94.75,1.6-.37.13,3.53,6-6.88-1.88,2-.77-7.35,4.66-.84-1.51,10.63,7.42,1.28,4.26,4.71,7.94,1.11.23-2.86,2.23,5.41,3.11-4.9-.52,3.1,7.08,1.25.61-8.18-1.27-3.11,1.23-2.36,1.63-3.68.93-3.93-2.68,1.57-.59,7.3-7-2.83-5,2.16,1.91,6-9.39.61-3,7.29-8.87-7.51,2.34.68-6.53-6.43,3.1,4.21-8.4-4.72-3.36-1.28-.69,6.92-6.52-.34-3.84-.68.09,5.22-4.77-1.36-1.1-2.85,6.66,1,8.24-6.83,13.41,6.59-1-3,3.71,2.52,1.81,8.12,3.75-9.23.07,2.2,4.55-1.39,2.61-7.34-3.94-6.14-1.61,7.27,9.81-15.85,14.72-.51,25.53-2,.95-5.06-1-6.29,1.73,4.66-1.15-11.62,13.9-4.65-2.4.81-5.55-9.31,3.91-2.25-5.29-3.21,1.46-2.71-.63-1-6.69a8.86,8.86,0,0,1-4.26,2.47c.8-2.25,1.54-4.45,3.23-6.22-9.81-1.71-2.91,10.11-12.92,16.91-1.79.63,11.3,3-.08,6.44-3.33-6.95,2.11-3.74-8.75-2.77,2.06-3.59,4.63,1.87,2.95-12.13.41-.3-11.35,9.12-1.91-2.7-10.73,6.44,7.33-12-5.79-5.59-2.19-1.45,9.8-8.86-.77-5.37,3.51-10.69-2.05,8.73-6.39,5,.94,2-.48.16,4.45,7.63-8.8-2.3,2.61-1-9.28,5.88,3.4.57,5.9-.9.85,3.64,2-3.26,11.38,5.13.77,1.74,1,3.4,6.3,7.92-4.09.18,2.1,3.95-.7,4.73,3.51,11.5,1.56.86-9.72-1.64-3,1.61-3,2.07-4.65,1.17-5-3.37,2-.75,9.21-8.9-3.57-6.32,3-.83,4.89.35,2.8-9.45-3.2,2.37-7,3.42-1.17-2.53-8.11,3.91,5.31-10.61-6-4.24-1.62-.86,8.73-8.23-.43-4.85-.85.12,6.59-6-1.71-1.38-3.68,8.41,1.72,10.44-8.62,16.91,8.31-1.21-3.83,4.69,3.18,2.29,10.25,4.74-11.65.08,2.78,5.74-1.19,3.86-13.22-10-4.4,6.6-6.27-5.6-8.38,27.92-19.07,20.77a14,14,0,0,0,3.4-.88c-1.32-13.45-4,8.31-4.61-13.68-2.54,1.16-2.15-.5-.82-5.3a7,7,0,0,1-3.38,2,13.09,13.09,0,0,1,2.57-4.93c-7.74-1.35-2.44,8-10.25,13.4-1.07-.57,5.65,2.86,2.91,4.15-6.84,1.67,2-4-9.74-1.74,3-1.47,2.87-1.13,2.17-9.12.33-.23-9,7.23-1.5-2.14-8.51,5.11,5.8-9.52-4.59-4.42-1.74-1.15,7.76-7-.62-4.26,2.78-8.47-1.62,6.92-5.06,3.95.74,1.59-.38.12,3.52,6-6.87-1.87,2-.77-7.35,4.67-.83-1.52,10.63,7.42,1.28,4.25,4.72,7.94,1.12.23-2.86,2.24,5.41,3.1-4.89-.52,3.1,7.08,1.25.61-8.17-1.28-3.1,1.22-2.36,1.64-3.69.93-3.94-2.67,1.58-.59,7.31-7.05-2.83-5,9.8-5.9-5.53-4.5,1.29-9.49-6.42,3.09,4.22-8.41-4.72-3.36-1.28-.69,6.92-6.53-.34-3.85-.67.1,5.22-4.76-1.35-1.09-2.86,6.65,1,8.23-6.83,13.4,6.58-1-3.05,3.72,2.51,1.81,8.12,3.75-9.22.08,2.21,4.55-1.66,2.5-6.19-3.36-6.52-1.86,3.65,1.85-1.76,2.87,1.81,5.82.36,1.75-6.52,9.76-7.24,11.82,6.8,1.21-16.24,16.48-3.19.78-11.47,7.75,6.75-14.93-6.34-6.42-4.85-2.43,12.84-12-1.67-6.94,5.59-13.67-3.07,10.34-7.79,6.07,1.09,2.77.51,2.54,5.42,9.31-10.73-2.81,3.19-1.22-11.31,7.18,4.13.69,7.22-1.13,1,4.43,2.65-3.19,14,4.44,0,2.78,10.09,11.58-2.54-2.84-3.42,2.77,5.17-.41-3.1,23.67-6.07,8.67,3.29-1.24,9.85-9.86-4.35-7.7,3.42,2,7.36-8.67,3.52-7.09h0c3.52-9.45-11.61,4.17-1.53-7.53-9.9,4.77,6.48-12.94-7.28-5.17-2-1.06,10.66-10-.51-5.91-1,.14,8-7.34-2.09-1.69-4.5,10.27,2.09,12.73-10.52,20.63,10.14-1.48-4.68,5.72,3.88,2.79,12.5,5.79-14.22.11,3.39,7-3.16,4.41-11.83-8.32-9.46-1,6.48,3.77-4,.21,1.57,6.64,2.38.9,4.93,3.39-2.55,2.34,4.22,3.05-6.21,4.63.36,8.05l-.68-.24c-2-.63-18.56,12.28-6.63-2.42-11.47,7.75,6.74-14.93-6.34-6.42-4.84-2.45,12.8-12-1.68-6.94,5.6-13.67-3.06,10.34-7.78,6.07,1.08,2.77.51,2.54,5.42,9.31-10.73-2.81,3.19-1.22-11.32,7.18,4.13.69,7.23-1.13,1,4.43,1.54,2.59,3.58-7.06,6.85,3.5-14.36-2.22-1.53.35-2.5,4.72-9.71-5.92-9.7-6.06-4.72,6.72-4.82,1-8.87,9-9.16-.72,3.29-1.24,9.85-9.86-4.36-7.7,4.07,2.24,7.53-11,2.71-6.2,6.42-10.73-12,3.8-.72-8.42-9.89,4.77,6.49-12.94-7.27-5.17-2-1.06,10.65-10-.52-5.92-1,.15,8-7.33-2.09-1.68-4.49,10.27,2.1,12.73-10.51,20.63,10.13-1.48-4.68,5.71,3.87,2.79,12.51,5.79-14.21.1,3.39,7-2.14,4-11.3-6.06-9.44-2.48-2.78,2.21,10.73,12.74-2.32,10.57,2.9.88,1.66,7.76-3.08,9.12l-1.46.58c-.66-2.8-1.17,5.86-4.56,7.79,2.77,2.81,1.6,1.92-4.27,1.51,6.36-5.44-4.07-2.77.42-7-5.29,3.18,3.62-5.93-2.86-2.75,1.84-6.33.28-2.43-3.53-.2.46,1-.24.08,2.19,3.77-4-1.25.88-.34-4.58,2.91-.54-1,6.54,4.55.8,2.65,3,5,.68.13-1.78,1.39a4.39,4.39,0,0,1,0,5.17c-1.48,1-2.29.57-2.45-1.66,1-.37,4.55-4.4-1.76-3.12,6.11-3.68-3.45-2.81.8-5.92-4,1.93,2.63-5.23-2.94-2.09,2.31-8.85-1.82,2.37-5.31,5.27,4.1-.6-1.9,2.32,1.57,1.13,5,2.34-5.74.05,1.37,2.84-1.93,1.56-5.55-4-2.88.6,0,2-2.63,3.82-1.07,5.79-.14.06-.09.15-.4,0-9.55,5.16-3.9,10.28-11.81,17.49-1.07-.57,5.65,2.86,2.91,4.15-6.84,1.67,2-4-9.74-1.74,3-1.47,2.86-1.13,2.17-9.12.33-.23-9,7.24-1.51-2.14-8.5,5.11,5.81-9.52-4.59-4.42-1.73-1.15,7.77-7-.61-4.26,2.78-8.47-1.62,6.92-5.06,3.95.74,1.59-.38.12,3.52,6-6.88-1.87,2-.76-7.35,4.67-.83-1.52,10.63,7.42,1.28,4.26,4.72,7.94,1.11.22-2.86,2.23,5.41,3.1-4.89-.52,3.1,7.08,1.25.61-8.17-1.28-3.11,1.22-2.35,1.64-3.68.94-3.93-2.67,1.57-.59,7.3-7.05-2.83-5,9.8-5.9-5.54-4.5,1.29-9.49-6.43,3.1,4.21-8.41-4.72-3.36-1.28-.69,6.92-6.52-.34-3.85-.68.1,5.22-4.76-1.36-1.09-2.85,6.65,1,8.23-6.83,13.4,6.59-1-3,3.72,2.52,1.81,8.12,3.76-9.23.08,2.2,4.56-1.39,2.61-7.34-3.95-6.13-1.62,7.26,9.81-15.86,14.73-.52,25.53-2,.95-5.06-1-6.29,1.74,7.53,14-7.51-1.51,1,9.87,6.71.16,6.88,15.2-11.17,20.22,1.62-4.5,5.83,3.69,3.6-14.8.5-.32-13.84,11.1-2.32-3.3-11.47,7.75,6.74-14.93-6.34-6.42-5-2.08,12.61-11.83-1.68-6.94,5.6-13.67-3.06,10.34-7.78,6.08,1.08,2.76.51,2.53,5.42,9.3-10.73-2.81,3.19-1.22-11.32,7.18,4.15.69,7.2-1.11,1,4.43,2.43-4,13.88,6.26.94,2.12-5.39-1.39,13.62,13.4-5,.22,2.57,4.82-.86,5.77,4.28,14,2.35.72-11.4-1.65-3.71,2-2.13.93-6.69,4.19-6-4.12,3.29-1.24,9.85-9.86-4.36-7.7,3.42,2,7.37-8.67,3.52-7.09,3.52-9.45-11.61,4.17-1.53-7.52-9.89,4.76,6.49-12.95-7.27-5.18-2-1.06,10.65-10-.52-5.91-1,.14,8-7.34-2.09-1.69-4.49,10.27,2.1,12.73-10.51,20.63,10.13-1.48-4.68,5.72,3.87,2.79,12.51,5.79-14.21.11,3.39,7-3.15,4.41-11.82-8.32-9.46-1,6.48,3.77-4,.21,1.58,6.64,2.37.91,4.93,3.39-2.56,2.34,4.23,3.05-6.21,4.63.36,8.05L1433,459c-1.79-.37-16.94,14.58.51,21-3.08,1.46-7.79-1.58-9.68,2.67,10.05,17.23-12.73,2.41,3.47,16.07-4.69.39.91,0-6.78,5.05l1.69.08-2.51,2.31c-.9-6.9-7,13.46-4.59-10.18.39-.26-10.45,8.39-1.75-2.48-9.88,5.92,6.74-11.07-5.33-5.14-2-1.34,9-8.16-.72-4.94,3.24-9.84-1.88,8-5.87,4.58.86,1.85-.44.14,4.09,7-8-2.18,2.27-.89-8.54,5.41,3.13.52,5.43-.83.78,3.35,2.06-3.1,10.28,4.83.71,1.6.89,3.13,5.8,7.29-3.77.16,1.94,3.64-.64,4.36,3.24,10.59,1.43.79-9-1.51-2.8,1.49-2.74,1.9-4.28,1.07-4.57-3.11,1.83-.69,8.48-8.19-3.28-5.81.82-.05,4.74,1,2.58-8.7-3,2.18-6.42,3.14-1.08-2.33-7.47,3.6,4.89-9.76-5.49-3.9-1.49-.8,8-7.58-.39-4.46-.78.1,6.06-5.54-1.57-1.28-3.39,7.74,1.57,9.61-7.94,15.57,7.65-1.12-3.53,4.31,2.93,2.1,9.43,4.37-10.73.08,2.55,5.29-1.92,2.9-7.19-3.91-7.56-2.17,5.19,2.88-4,2.87,3.78,7.71-3.42,1-5.63,2.59-4.92,7.22-7.51-2.25-.67,9-3.74,4.06a1.64,1.64,0,0,0-.27.84c-1.19-.93-2.56-.52-.41,1.74-1.55.56,2.77,1.18.83,2.59-6,.18,2.55.54-2.73,7.8.44,4.16-1.59-2.79-.22,6.64-.65-.74-2.66-1.31-1.07,1.43-1.76-.55-.74-1.23-3,1.55a13.37,13.37,0,0,1,2.94.29c-6.61,3.57,2.94-.15,0,3.86-3.16.27-3.36.66-4.5-3.3,1.36,1.06-8.34,4-4,1,7.38-11-8.36-2.09-.62-10.65-8.5,5.1,5.81-9.53-4.59-4.43-1.74-1.15,7.76-7-.62-4.25,2.79-8.48-1.62,6.92-5.06,3.94.74,1.6-.38.13,3.53,6-6.88-1.88,1.95-.77-7.36,4.66-.83-1.51,10.64,7.42,1.29,4.26,4.71,7.94,1.11.23-2.86,2.23,5.41,3.11-4.9-.51,3.1,7.08,1.24.61-8.18-1.27-3.11,1.23-2.36,1.63-3.69.93-3.94-2.68,1.58-.59,7.31-7.05-2.82-5,9.8-5.9-5.54-4.5,1.29-9.5-6.43,3.1,4.21-8.4-4.73-3.36-1.28-.69,6.92-6.52-.33-3.84-.68.09,5.21-4.77-1.36-1.1-2.85,6.66,1,8.24-6.83,13.41,6.59-1-3,3.71,2.52,1.81,8.11,3.75-9.23.08,2.2,4.55-1.39,2.61-7.34-3.94-6.14-1.61,7.26,9.81-15.85,14.72-.51,25.53-2,.95-5.06-1-6.29,1.73,5.75,5.79-7.48,6.74,2.45,9.89,1.83.24-5.29,2.33,2.13,2q-7.66,5.84-15.61,11.7c2.72-5-5.85.83-.85-4.72-1.77.8-1.49-.36-.57-3.7a4.85,4.85,0,0,1-2.35,1.36,9,9,0,0,1,1.78-3.43c-5.39-.94-1.69,5.55-7.14,9.34,3.11,3.14,1.79,2.15-4.77,1.68,7.11-6.09-4.55-3.1.47-7.85-5.93,3.56,4-6.64-3.2-3.09,2.06-7.07.31-2.71-3.95-.21.51,1.11-.27.09,2.45,4.21-4.67-1.35,1.22-.49-5.12,3.26,2.74,1.5,4.52,5.38-1.1,4.52,3.61,2.14-3.33-.15,2.16,4.94.87.42-5.7-.89-2.17.85-1.66,1.15-2.56.63-2.74-1.87,1.1-.41,5.09-4.91-2-3.48,1.64,1.22,3.67-5.81.84-2.43,4.29-6.77-5.61,2.74.06-4.19-4.48,2.16,2.93-5.86-3.3-2.35,2.59-9.9-2,2.65-5.94,5.9,4.59-.66-2.12,2.6,1.76,1.27,5.65,2.61-6.44.05,1.53,3.17-1,1.82-5.12-2.75-4.28-1.12,5.07,6.83-11,10.27-.36,17.8-1.39.66-3.53-.72-4.38,1.21,5.3,10-6.08-2,1.65,8.22q-13.66,9.23-28.1,18.45c.19-.35.38-.71.59-1.07-3.9,1.77-3.3-.78-1.25-8.17a10.89,10.89,0,0,1-5.2,3c1-2.75,1.88-5.43,4-7.59.07-.5-8.2,6.1-3-.73-2-5-3.17,11-8,7.86-1.22,1.4,8.73,3.1-4.8,13.49,3.33.76,5.77-1.17.56,3.9l-2.61,1.6c3.58-9.63-4.78,3.59-8.48-1.78,3.77-2.25,4.83-.22,3.35-14,.52-.35-13.84,11.12-2.32-3.3-11.46,7.75,6.75-14.92-6.34-6.42-4.85-2.43,12.83-12-1.67-6.94,5.59-13.66-3.07,10.34-7.79,6.08,1.09,2.76.52,2.53,5.42,9.3-10.73-2.8,3.2-1.21-11.31,7.18,4.15.69,7.2-1.1,1,4.44,2.43-4,13.87,6.25.93,2.12-5.38-1.39,13.63,13.4-5,.22,2.56,4.82-.87,5.77,4.27,14,2.36.73-11.4-1.64-3.7,2-2.13.92-6.69,4.19-6.06-4.12,3.29-1.25,9.85-9.86-4.35-7.71,3.65-1,6,.43,3.42-11.52-3.9,2.89-8.51,4.16-1.43-3.09-9.9,4.77,6.48-12.94-7.27-5.17-2-1.06,10.65-10-.52-5.92-1,.14,8-7.34-2.09-1.68-4.5,10.27,2.09,12.73-10.51,20.63,10.13-1.48-4.68,5.71,3.87,2.78,12.5,5.79-14.22.11,3.39,7-2.15,4-11.3-6.07-9.45-2.48-2.88,1.16,9.82,12.87-1,10.47,4.35,11-4.84-1.58-1.1,8.92-13.37-1.86,5.14,13.33-7.41,5.48,9,11.07-7.26,2.11,4.29,12.22-113.15,53.43-159.72,79.69-131,77.23H2451c12.54-1.42,10.57,5.56,10.56-11Zm-383.23-99.5a.45.45,0,0,1-.39.47h0A.45.45,0,0,0,2078.31,163.3Zm13.89-12.4h0Zm.53-.22.16-.09Zm21.45-1.53a.57.57,0,0,1-.13.1Zm-.64.24a1.06,1.06,0,0,0,.31,0A1.06,1.06,0,0,1,2113.54,149.39Zm7.3,5.83h0Zm13.61,6.5a.21.21,0,0,0,.24-.23s-.31.51-.41,0A.2.2,0,0,0,2134.45,161.72Zm-16.52-9.59c.62.2.21.7,2.88,2.94C2119.85,156.85,2111.75,157.28,2117.93,152.13Zm-21,8.91h.19c-.46,0-.14-.07-.82.35C2096.3,160.94,2096.67,161.06,2096.94,161Zm-15.48-8.27a.26.26,0,0,1,.32.26s-.15-.36-.53-.14A.53.53,0,0,1,2081.46,152.77Zm-1.81,11.94a1,1,0,0,1-.16.59c.13,0-.09-.2.27-.71A.63.63,0,0,1,2079.65,164.71Zm295.22,27.61c.05-.12-.25-.08-.19-.58C2374.68,192,2374.63,191.94,2374.87,192.32Zm26,21.89c-.71.45-1,.15,0-1.13A1.25,1.25,0,0,1,2400.84,214.21Zm-26.15-23a1.88,1.88,0,0,1,0,.47c0-.12.14-.23-.1-.72h0A.39.39,0,0,1,2374.69,191.23Zm-4.83,10.22c-.89-.72-.24,0-1.66-2.34A11.84,11.84,0,0,0,2369.86,201.45Zm-3.93-12.1a5.34,5.34,0,0,1-.73.38C2365.43,189.7,2365.2,189.69,2365.93,189.35Zm1-.44a4.8,4.8,0,0,1-.73.33A4.8,4.8,0,0,0,2366.94,188.91Zm49.36,28.66a19.94,19.94,0,0,1-2,1C2415.09,218.2,2414.76,218.28,2416.3,217.57Zm29.83,20a.4.4,0,0,0,.28-.1c-.16,0-.36.25-.56-.19A.32.32,0,0,0,2446.13,237.57ZM2424,221.18c0-.19-.34-.06-.18-.89C2423.88,220.43,2423.58,220.53,2424,221.18Zm-3.29,1.62c.87.36.1.47,4.49,4.75C2423.64,230.11,2412.59,226.18,2420.7,222.8ZM2404,199.1a.9.9,0,0,0,.07-.27c.06.09.11.18.16.27Zm-8.61-.19c.47-.41,2.35-1.34-.25-2.51,1.83-.43,3.52-.51,5.24-1.37-2.79-.57-3.07.67-1.3-4.43C2405,196.69,2401.17,205.2,2395.43,198.91ZM2392,184.32c-.53.41-1.05.82-1.59,1.2a14.91,14.91,0,0,0,3-2.51A13.32,13.32,0,0,1,2392,184.32ZM2373.17,187l-.12.09.09-.28C2373.17,186.9,2373.19,187,2373.17,187Zm-2.54,7.15c1.56,1.32-.54,5.68-1.54,3.15C2371.5,197.53,2366,194.34,2370.63,194.14Zm-100.1-32.94a1.54,1.54,0,0,1,.35-.15A1.54,1.54,0,0,0,2270.53,161.2Zm21.93-1.72-.34.15Zm-.48.2-.13.1Zm20.11,12.47s.08.19.34,0C2312.4,172.17,2312.29,172.35,2312.09,172.15Zm4.85,6.13c1.83.09,1.26-6.51,2.77-.63C2319.52,178.54,2316.69,180.13,2316.94,178.28Zm.69,6c.06-.19,0-.26.77.2Zm12.75.79a3.37,3.37,0,0,1-1,.29A3.46,3.46,0,0,0,2330.38,185.06Zm.57-.52a2.55,2.55,0,0,1-.26.3c.93-.85.11-.11,2.17-1.79A12.7,12.7,0,0,1,2331,184.54Zm-16.4-9.15c.69-7.7,11.61-1.55,5.72-.64C2318.5,171.65,2316.52,177.55,2314.55,175.39Zm-16.83-14a.47.47,0,0,1,.09.12c-.13-.24-.09-.06-.07-.61A4.27,4.27,0,0,1,2297.72,161.36Zm-2,1.29c.58.18.3.76,2.91,3C2297.63,167.22,2289.54,168,2295.73,162.65Zm-21,8.92h.19c-.35,0-.13,0-.77.1C2274.27,171.52,2274.53,171.58,2274.74,171.57Zm-1.2.18a.2.2,0,0,0-.19-.13A.2.2,0,0,1,2273.54,171.75Zm-4.22-15.22a1.37,1.37,0,0,1-1,.53c1.16-.34.43-.08,2.28-1.5A7.8,7.8,0,0,1,2269.32,156.53Zm-10.06,6.77a.26.26,0,0,1,.32.25s-.31-.56-.6.08C2259,163.46,2259.08,163.35,2259.26,163.3ZM2142.82,168h0C2142.84,167.84,2142.79,167.16,2142.82,168Zm9.93-9.74a.65.65,0,0,0,.21,0A.72.72,0,0,1,2152.75,158.23Zm17.24,1.45a1.51,1.51,0,0,1-.62.34A1.51,1.51,0,0,0,2170,159.68Zm-.72.38a.55.55,0,0,1-.45.16C2169,160.23,2168.82,160.22,2169.27,160.06Zm11.83-.28c0,.26.09.37,0,0C2181.39,159.63,2182,160.37,2181.1,159.78Zm11.27-6.93c.18-.14.46-.14.65-.3C2192.83,152.71,2192.55,152.71,2192.37,152.85Zm15.69-1.47c-.16.14-.25.23-1.18.55C2207.16,151.87,2207.11,151.9,2208.06,151.38ZM2212,156h0Zm9.48,4.53a.15.15,0,0,0,.17-.16s-.22.36-.29,0A.14.14,0,0,0,2221.46,160.53Zm-11.52-6.69c.45.15.42.83,2,2C2211.32,157.37,2205.63,157.18,2209.94,153.84Zm-14.63,6.22a.65.65,0,0,1,.2,0c-.33,0-.17-.09-.64.23C2194.86,160,2195.12,160.07,2195.31,160.06Zm-3.77-10.49a1,1,0,0,1-.73.37c.81-.24.29-.06,1.59-1A5.52,5.52,0,0,1,2191.54,149.57Zm-7,4.72a.18.18,0,0,1,.22.18s-.21-.39-.42.05C2184.32,154.4,2184.4,154.33,2184.52,154.29Zm-1.84.41c-.27.7,3.35,1.3.34,1.88C2183,155.61,2181.38,157.13,2182.68,154.7Zm-10.8,7.43c.45.15.42.83,2,2C2173.26,165.66,2167.57,165.48,2171.88,162.13Zm-25.42.45a.18.18,0,0,1,.22.18s-.21-.39-.42.05C2146.26,162.69,2146.34,162.62,2146.46,162.58Zm-161,14.7c-.18.28-.52.25-.86.21C1984.77,177.37,1984.66,177.5,1985.49,177.28Zm-1.15,2.15.06-.57C1984.69,178.8,1984.92,180.2,1984.34,179.43Zm-.3,3.06c-.29-.1-.45-.09,0,0C1984,182.56,1983.68,183.4,1984,182.49ZM1997,172.13c-.1.06-.12.07-.67.19A2.09,2.09,0,0,0,1997,172.13Zm1,4.56h0Zm.53-.22a1.58,1.58,0,0,1,.35-.16A1.58,1.58,0,0,0,1998.55,176.47Zm22.17-1.84a3.79,3.79,0,0,1-.58.26A3.79,3.79,0,0,0,2020.72,174.63Zm-.72.31-.13.1Zm3.75,3c.44.27.51.4,2,2.38C2024.2,181.6,2018.83,179.74,2023.75,177.92ZM1998,171.34a11.53,11.53,0,0,0,1.14-1.06A11.53,11.53,0,0,1,1998,171.34Zm-10.71,7.22a.26.26,0,0,1,.32.26s-.15-.36-.53-.14A.53.53,0,0,1,1987.28,178.56Zm-.33,2.61c.14.32-4.08,1.31-2.13-.11C1985.39,180.7,1985.9,179.27,1987,181.17Zm-1.74-4.94c-.45.58-2,0-.21-.47C1985.13,175.81,1985.34,175.77,1985.21,176.23Zm-16.64,12.66-.13.1Zm.72-.31a3.79,3.79,0,0,1-.58.26A3.79,3.79,0,0,0,1969.29,188.58Zm-33.12,4.19s-.15-.36-.53-.14C1935.85,192.54,1935.89,192.36,1936.17,192.77Zm-3.76,4.07a1.22,1.22,0,0,1-.48-.5C1931.86,196.49,1932.86,196.06,1932.41,196.84Zm13.13-10.76c-.1.06-.13.07-.67.19A2.16,2.16,0,0,0,1945.54,186.08Zm1,4.56a.43.43,0,0,0,.16,0A.43.43,0,0,1,1946.59,190.64Zm.53-.22a1.58,1.58,0,0,1,.35-.16A1.58,1.58,0,0,0,1947.12,190.42Zm0-5.64.55-.55Zm-12.48,3.76c1.6.88.09.08,4,1.68C1938.31,190.62,1934.65,191.69,1934.67,188.54Zm-.59,2.66c0,.06-.07.08-.11.11a4.07,4.07,0,0,1,.06-.61A.53.53,0,0,1,1934.08,191.2Zm-2.19,3.75c.31-.26,1.53-.87-.16-1.63C1934.3,192.54,1937.56,197.4,1931.89,195Zm-15.48-3.21c.7.25,0,.56,2.81,2.85C1918.38,196.8,1910.23,196.53,1916.41,191.74Zm-3-3.28a6.07,6.07,0,0,1-1.36.54C1912.31,189,1912.21,188.93,1913.38,188.46Zm-15.94,16.39a.61.61,0,0,1,.12-.34A.61.61,0,0,0,1897.44,204.85Zm-2-4.19h.2c-.46,0-.14-.07-.83.35C1894.78,200.55,1895.15,200.67,1895.42,200.66Zm-4.57-10.14h0Zm-1.21-4.56a2.68,2.68,0,0,1-.68.18A2.38,2.38,0,0,0,1889.64,186Zm-9.7,6.43a.25.25,0,0,1,.32.25s-.14-.36-.52-.14A.35.35,0,0,1,1879.94,192.39Zm-3.15,10.52c0,.22,0,0-.39.48A.45.45,0,0,0,1876.79,202.91Zm1.23,1.9a.28.28,0,0,1-.38.15A.28.28,0,0,0,1878,204.81Zm.11-.49a.63.63,0,0,0,.11-.12.63.63,0,0,1-.11.12ZM1796.73,241a.33.33,0,0,1-.27.2A.33.33,0,0,0,1796.73,241Zm-.62.13a1.42,1.42,0,0,1-.25-.12A1.42,1.42,0,0,0,1796.11,241.08ZM1795,239c-.07.06,0,0-.29.13A.71.71,0,0,0,1795,239Zm6.49-9.47c0-.12,0-.1-.11-.27C1801.36,229.3,1801.44,229.3,1801.45,229.53Zm9.63-12.26a4.64,4.64,0,0,1-.56.11A4,4,0,0,0,1811.08,217.27Zm1.61,5.62h0Zm28.64-2.59c-.21.14-.36.11-1.42.67C1840.24,220.87,1840.11,220.78,1841.33,220.3Zm20.56-3.76c-.44.33-.87.67-1.31,1a14.88,14.88,0,0,0,2.46-2.06A13.1,13.1,0,0,1,1861.89,216.54Zm-16.74,7.9c1.26,1,2.93,2.81-2,2.73C1845.33,227.22,1839.84,224.72,1845.15,224.44Zm-26.48,11.25h.22c-.5,0-.14-.06-1,.25C1818,235.59,1818.37,235.71,1818.67,235.69Zm.42,0a.86.86,0,0,0-.17,0A.86.86,0,0,1,1819.09,235.73Zm-1.93.19a.24.24,0,0,0-.24-.16A.24.24,0,0,1,1817.16,235.92Zm-5.32-19.2a1.44,1.44,0,0,1-.47.42c.88-.71.3-.26,2-1.64A11.06,11.06,0,0,1,1811.84,216.72Zm-12.7,8.54a.32.32,0,0,1,.4.32c0-.05-.18-.45-.66-.18A.59.59,0,0,1,1799.14,225.26Zm-2.29,15.05h0a1,1,0,0,0,.15-.14A1,1,0,0,1,1796.85,240.31ZM1679.69,280a6.21,6.21,0,0,1-.67.14Zm-24.41,31.33c-.33-.3-.42-.06.09-1A1,1,0,0,1,1655.28,311.37Zm6.58-2.19a.33.33,0,0,0,.15-.05c-.15,0-.11.08-.42,0A.64.64,0,0,0,1661.86,309.18Zm-1.64-2.88c-.08.2,0,0-.54.42A.73.73,0,0,0,1660.22,306.3Zm-6.91,1.15a2.38,2.38,0,0,1,.59.71C1653.58,308,1653.57,308.13,1653.31,307.45Zm71-48.12a.44.44,0,0,1-.38.48h0A.44.44,0,0,0,1724.33,259.33Zm14.43-12.62a.8.8,0,0,1,.16-.08A.8.8,0,0,0,1738.76,246.71Zm-.53.23h0Zm-19.43,26.35a.26.26,0,0,1-.19.21c.07-.13.11-.26.17-.39A1.1,1.1,0,0,1,1718.8,273.29Zm-.66,1.11c.11.13.24.08-.14.33C1718,274.62,1718.09,274.51,1718.14,274.4Zm2.94.94a1.58,1.58,0,0,0-.24-.15,1.58,1.58,0,0,1,.24.15Zm-2.71,2.27c.27-.72.19-.42-.54-2.27C1720.5,276.35,1718.9,281,1718.37,277.61Zm-4.43,3.56c-.18-.85,3.1-2.68,2.45-.44C1716,280.47,1715.75,282.05,1713.94,281.17Zm46.27-36a.83.83,0,0,1-.41.22C1760,245.38,1759.8,245.41,1760.21,245.19Zm6.66,6.06Zm-2.91-3.09c.62.2.21.71,2.88,3C1765.87,252.89,1757.77,253.31,1764,248.16Zm-21,8.92h.19c-.46,0-.14-.08-.82.35C1742.32,257,1742.69,257.1,1743,257.08Zm-15.48-8.27a.26.26,0,0,1,.32.26s-.15-.36-.53-.14A.37.37,0,0,1,1727.49,248.81Zm-1.82,11.93c0,.65-.23.72-.48.65.26.12,0-.11.6-.76A.63.63,0,0,1,1725.67,260.74Zm-9,9.3c1.77-2.1.62-3.75,7,.4C1722.77,269.87,1715.63,272.91,1716.67,270Zm-21.44,21c.06.53.27.31-.81.86Zm-13.32-4.16a.73.73,0,0,0,.25-.08A.73.73,0,0,1,1681.91,286.91Zm.66-.42.06,0Zm-2-7.12a1.84,1.84,0,0,1-.26.29c.92-.84.11-.11,2.16-1.78A12.61,12.61,0,0,1,1680.62,279.37Zm-15.5,10.41a.39.39,0,0,1,.45.22c-.21-.12-.57-.49-.87.29A.51.51,0,0,1,1665.12,289.78ZM1504.52,420a.86.86,0,0,0-.07-.1,8.1,8.1,0,0,1,2.27.37C1506.32,419.92,1505.85,421.89,1504.52,420Zm15.14-37.44a1.25,1.25,0,0,1,.35-.16A1.25,1.25,0,0,0,1519.66,382.57Zm-13.58,14.67a.4.4,0,0,0,.18,0A.4.4,0,0,1,1506.08,397.24Zm-.88-1.85c0,.13,0,0-.36.27A.46.46,0,0,0,1505.2,395.39Zm36.63-14.66c-.15.14-.2,0-.92.46A3.23,3.23,0,0,1,1541.83,380.73Zm-1.37.54a.83.83,0,0,0,.35,0A.83.83,0,0,1,1540.46,381.27Zm18.65-14.09c-.78-.19-1.06-.4,0,0C1559.21,367.23,1556.71,368.14,1559.11,367.18Zm.72,8.78c0-.11-.28-.34.22-.16A.89.89,0,0,1,1559.83,376Zm-2.91-4.14,0-.07S1557,371.78,1556.92,371.82Zm-.72,3.11c.24.2.4.2,0,0C1555.78,375,1557.84,373.35,1556.2,374.93Zm3.59-13.5a1.36,1.36,0,0,0,.25.11A1.36,1.36,0,0,1,1559.79,361.43Zm-.31-1a.29.29,0,0,1-.22.17h0A.29.29,0,0,0,1559.48,360.39Zm-2.67,3.05c.12.4.3.33-.59.82A4.76,4.76,0,0,1,1556.81,363.44Zm-1,1.52c.47,1.52,3.46,1-1.08,2.73A26.27,26.27,0,0,1,1555.85,365Zm4.37,12.61c0,.08.15.11,0,.21A1.55,1.55,0,0,1,1560.22,377.57Zm7.29-27.87a1.5,1.5,0,0,1-.42.11A1.56,1.56,0,0,0,1567.51,349.7Zm.75,2.84a2,2,0,0,1,.6-.29A6.32,6.32,0,0,0,1568.26,352.54Zm14.24-1.44c-.11.15-.19.09-.9.48C1582,351.4,1581.78,351.49,1582.5,351.1Zm16.73-6.08a.22.22,0,0,1,0,.08A.22.22,0,0,0,1599.23,345Zm-.09.4c0,.05-.05.09-.07.13S1599.12,345.47,1599.14,345.42Zm-.17.24a.42.42,0,0,1-.18.08A.42.42,0,0,0,1599,345.66Zm-1.77-3.12a.69.69,0,0,1-.6.74h0A.69.69,0,0,0,1597.2,342.54ZM1617,316.45c-.15.09-.19.1-1,.29A3.46,3.46,0,0,0,1617,316.45Zm1.87,7a.61.61,0,0,0,.34-.17A.61.61,0,0,1,1618.84,323.47Zm.57-.35a1.36,1.36,0,0,1,.24-.13A1.36,1.36,0,0,0,1619.41,323.12Zm-17.36,3.22a.4.4,0,0,1,.45.22c-.22-.12-.57-.49-.88.29A.51.51,0,0,1,1602.05,326.34Zm-2.79,18.37h0a1,1,0,0,0,.18-.17A1,1,0,0,1,1599.26,344.71Zm-7.27,1.86c.25.16,0,0,.4.78C1592.09,347.71,1590.3,347.68,1592,346.57Zm-7.8,6.73c3.38,1.3-1.71,4.87-1,1.35C1584.13,354.51,1581.72,353.28,1584.19,353.3Zm-12.91,5.57-.3,0C1571,358.86,1571,358.84,1571.28,358.87Zm-.3,0a.29.29,0,0,0-.23.07A.29.29,0,0,1,1571,358.85Zm-9.51-5.15a.16.16,0,0,1,.2.16s-.09-.22-.33-.08A.24.24,0,0,1,1561.47,353.7Zm-1.13,7.44h0a.46.46,0,0,1,.07-.07A.46.46,0,0,0,1560.34,361.14Zm-5.93,2.54a10.12,10.12,0,0,1,1.4-1.8C1556.82,362.43,1555.84,365.07,1554.41,363.68ZM1544.85,384c.47.15.56.85,2.92,3.09C1546.85,388.21,1538.63,389.72,1544.85,384Zm-21,8.91h.2a2,2,0,0,0-.77.1C1523.4,392.88,1523.66,392.94,1523.86,392.93Zm-5.41-15a1.36,1.36,0,0,1-1,.53c1.54-.59.63-.22,2.83-2A9.3,9.3,0,0,1,1518.45,377.89Zm-10.07,6.77a.26.26,0,0,1,.32.26s-.31-.57-.6.07A.34.34,0,0,1,1508.38,384.66Zm-72.14,81.41c-.15,0-.11.09-.43,0A.59.59,0,0,0,1436.24,466.07Zm-1.79-2.83c-.08.2,0,0-.55.42A.73.73,0,0,0,1434.45,463.24ZM1453.92,437l-.68.14Zm2.22,6.87a.75.75,0,0,0,.24-.08A.75.75,0,0,1,1456.14,443.85Zm.66-.41.06,0Zm7,16.12,0,0Zm-.61-.1h.29c-.62,0-.2-.08-1.24.31C1462.33,459.34,1462.81,459.48,1463.18,459.46Zm-1.8.31a.39.39,0,0,0-.18-.2A.39.39,0,0,1,1461.38,459.77Zm-6.54-23.46a1.45,1.45,0,0,1-.26.29c.93-.84.12-.11,2.17-1.78A12.7,12.7,0,0,1,1454.84,436.31Zm-15.49,10.42a.39.39,0,0,1,.45.21c-.22-.12-.57-.49-.88.29A.49.49,0,0,1,1439.35,446.73Zm-66.07,81.5a.27.27,0,0,1-.27.08A.27.27,0,0,0,1373.28,528.23Zm-1.41-2.09c-.06.15,0,0-.41.32A.54.54,0,0,0,1371.87,526.14Zm-.7,12.66c-1.54-.41-2.11-.84,0,0C1371.33,538.6,1367.36,541.05,1371.17,538.8Zm15.66-32.58a3.28,3.28,0,0,1-.78.22A3.44,3.44,0,0,0,1386.83,506.22Zm1.91,5,0,0Zm25.67-2.08a5.85,5.85,0,0,1-.68.3A5.85,5.85,0,0,0,1414.41,509.12Zm-.84.36a.72.72,0,0,1-.15.11Zm-20,13.8h0Zm.39,0-.16,0Zm-.64,0a.49.49,0,0,0-.42.13A.49.49,0,0,1,1393.3,523.28Zm-17.73-9.6a.3.3,0,0,1,.37.3c0-.05-.16-.42-.61-.16A.48.48,0,0,1,1375.57,513.68Zm-2.1,13.86h0a.8.8,0,0,0,.13-.13A.8.8,0,0,1,1373.47,527.54Zm-5.92,9.47c1.76-.29,0,2.68-.68,1C1367.15,537.75,1366.7,537.73,1367.55,537Zm-8.25,20h0a.43.43,0,0,1,.14.24A.43.43,0,0,0,1359.3,557Zm0-.34a.38.38,0,0,0,0-.15A.38.38,0,0,1,1359.32,556.67Zm-5.62-1.4a1.26,1.26,0,0,0-.34.2C1353.43,555.47,1353.41,555.38,1353.7,555.27Zm-.44.24a.76.76,0,0,1-.34,0A.76.76,0,0,0,1353.26,555.51Zm-16.94,11.71h.19c-.35,0-.13,0-.77.1C1335.85,567.16,1336.11,567.23,1336.32,567.22Zm-4-10.45-.16.08Zm-.52.31h0Zm-.85-4.9a1.09,1.09,0,0,1-.37.34c1-.8.21-.15,2.17-1.86A9.41,9.41,0,0,1,1330.9,552.18ZM1320.84,559a.25.25,0,0,1,.32.25s-.15-.36-.53-.14A.42.42,0,0,1,1320.84,559Zm-2.3,12.58.18,0Zm.49-.65h0l.11-.11Zm-4.59,14.6-.25-.16A2.56,2.56,0,0,1,1314.44,585.48Zm40.67-23.8c.17.51.33.7,0,0C1353.34,559.14,1363.09,555.49,1355.11,561.68Zm-79.29,57.66a.55.55,0,0,1,.17-.34A.55.55,0,0,0,1275.82,619.34Zm11.33-11.59a1.51,1.51,0,0,1-.62.34A1.51,1.51,0,0,0,1287.15,607.75Zm-.72.38a.53.53,0,0,1-.29.16C1286.25,608.27,1286.14,608.29,1286.43,608.13Zm2.61,2.07c2,.64,1.71,4.7-1.53,2.36C1288.62,612.12,1286.56,610.35,1289,610.2Zm-14.53,6.22h0Zm-.25,0c-.15,0-.3,0-.29.25C1274,616.43,1274.11,616.42,1274.26,616.42Zm-.67.17a.15.15,0,0,0-.15-.13A.15.15,0,0,1,1273.59,616.59Zm-10-5.94a.18.18,0,0,1,.22.18s-.1-.25-.37-.09A.38.38,0,0,1,1263.62,610.65Zm-2.47,7.67h0a.34.34,0,0,0,.16-.07A.34.34,0,0,1,1261.15,618.32Zm1.2.66a.93.93,0,0,1,0,.26s-.08-.13.11-.35A.34.34,0,0,1,1262.35,619Zm-58.59,48.77a11.26,11.26,0,0,0-1.15.54C1202.84,668.29,1202.79,668.08,1203.76,667.75Zm.85-.45a3.12,3.12,0,0,1-.74.4A3.12,3.12,0,0,0,1204.61,667.3Zm-34.23,2.9-.05,0Zm-.47.36a.57.57,0,0,1-.25.08A.57.57,0,0,0,1169.91,670.56Zm-1.54-7.46a2.55,2.55,0,0,1-.26.3,26.64,26.64,0,0,1,2.17-1.79A12.08,12.08,0,0,1,1168.37,663.1Zm-.57.52a3.51,3.51,0,0,1-1,.29A3.53,3.53,0,0,0,1167.8,663.62Zm-14.92,9.9a.37.37,0,0,1,.44.21c-.21-.11-.56-.48-.87.3A.5.5,0,0,1,1152.88,673.52Zm-4.86,16.2c0,.35,0,0-.59.73A.67.67,0,0,0,1148,689.72Zm1.78,3.12a.46.46,0,0,1-.19.08A.46.46,0,0,0,1149.8,692.84Zm.26-.64a.17.17,0,0,0,0,.07A.17.17,0,0,1,1150.06,692.2Zm-.1.4-.06.12Zm.12-.71a.77.77,0,0,0,.18-.18.77.77,0,0,1-.18.18Z"/>
      <path class="cls-2" d="M1023.86,796.39c-26.23,1-148.62,10-178.34,10.89-27.84.82-96.16,7.13-115.57,6.86-29.28-.41-116.58,2.71-116.59,11,0,6,317.67,212.43,415.39,212.43,115.93,0,238.65,1.26,322.76.82,0,0,107-3,169.1-10.94,13.76-1.76,39-3.1,55.31-7.6,7.72-2.12,454.45-233.66,447.56-243.28,0,0-366.78-.72-439.88-.72-16.45,0-319.4,14.47-348.68,14.51S1059.16,795.05,1023.86,796.39Z"/>
      <path class="cls-3" d="M1601.62,773.44c3.27-.58,1,0,7.05-6.05-5.84-.92-1.86-1.87-1.1-9.81.16-.34-4.66,4.92-3.36,1.42.84.57,0-1,2.29-.62,4.62-14.33-7.41,5.79-.76-9.22-1.75,0-9,7.17-.2-4.57-.37-2.22-10,9.68-2.18-4.14-2.37,1.62-5,4.4-5.83-1.2a14.28,14.28,0,0,0,3.45-.91c-1.34-13.64-4,8.45-4.68-13.87-2.57,1.17-2.18-.51-.83-5.38a7.17,7.17,0,0,1-3.43,2,13.36,13.36,0,0,1,2.61-5c-7.86-1.36-2.48,8.1-10.4,13.6-1.08-.58,5.74,2.9,3,4.21-6.94,1.7,2-4.09-9.88-1.76,3-1.5,2.91-1.15,2.2-9.26.33-.23-9.12,7.34-1.53-2.17-8.63,5.18,5.9-9.66-4.66-4.49-1.76-1.17,7.88-7.13-.62-4.32,2.83-8.59-1.64,7-5.14,4,.76,1.61-.38.12,3.58,6.13-7-1.9,2-.78-7.46,4.74,2.73.45,4.75-.74.68,2.92,1.8-2.71,9,4.22.62,1.4,4.79,8,1.13.23-2.9,2.26,5.49,3.16-5-.52,3.15,7.19,1.26.62-8.3-1.3-3.16,1.24,0-.09-3.34,2.39-3.72,0-3.42,3.38,8.37-13.73-.13-7.07.82-3.23-.57,1-3-.71,9.94-6-5.62-4.57,1.31-9.64-6.51,3.12,4.31-8.6-4.79-3.41,5.23-13.47-6.13,6.4-8.61-7,1.83-.42,3.52-.51,5.24-1.37-7,4,5.25-13.44-4.19-5.62-7.76,3.91,3.27-8.27-1.57-7.85,3.27-9.23-10.54,4-1.35-7.57-3.9,1.77-3.3-.78-1.25-8.17a10.82,10.82,0,0,1-5.2,3c1-2.75,1.88-5.43,4-7.59.07-.49-8.19,6.1-3-.73-2-5-3.17,11-8,7.86-1.23,1.4,8.72,3.11-4.81,13.49,2.15.58,6.59-1,0,4.05,3.42-2.12,11.19,0-.13,3.81-4.07-8.48,2.57-4.56-10.67-3.37,1.59-4.47,5.83,3.65,3.59-14.81.5-.36-13.84,11.13-2.33-3.29-11.46,7.75,6.75-14.93-6.34-6.43-4.85-2.42,12.84-12-1.67-6.93,5.59-13.67-3.07,10.33-7.79,6.07,1.09,2.77.52,2.54,5.43,9.3-10.74-2.8,3.19-1.21-11.32,7.18,3.55.88,7.67-1.74,1.33,4.5,2.41-4.08,10.45,4.23,3.69,2.85-4.13-1.16-6.26.88,2.52,4.58-4.15,1.79-14.91-8-7.73.15-1.42-.23-.91-.24-4.8,3.73,6.43-15.4-12.37,3.8,1.37-15.25-2.43-1.3-7.61,7.44-5.31-1.53,1.15-2.8,3.72-6.65-2.45-1.71.17-.31.34-.64.52-1-2.16.48-5.45,2.15-.88-4.57-2.16,1-5.34.89,1.2-.68-7,3.52,6-14.1-5.09-5.07,5.26-8.62-6.51,10.15.74-9.53,1-6.76-11.36,4.77-2.75-6.45-.18-.48-1.25,1.64-1.7-.25-1.79,2.2-1.41-.84.44-7.91a10.88,10.88,0,0,1-5.2,3c1-2.74,1.88-5.43,4-7.59.08-.49-8.19,6.11-3-.72-2-5.05-3.18,11-8,7.85-1.15,1.34,8.54,3.26-4.81,13.49,2.15.58,6.59-1,0,4.05,3.41-2.12,11.19.06-.14,3.81-4.07-8.48,2.57-4.56-10.67-3.37,1.59-4.47,5.83,3.65,3.59-14.8.5-.37-13.84,11.13-2.32-3.3-11.47,7.75,6.74-14.93-6.34-6.42-4.84-2.45,12.8-11.95-1.68-6.94,5.6-13.67-3.07,10.34-7.79,6.07,1.09,2.77.52,2.54,5.43,9.31-10.73-2.81,3.19-1.22-11.32,7.18,4.16.68,7.18-1.1,1,4.43,4.73-1.69,11.11.62.39,4.41,10.88,7.89-4.52-3.94-3.85,1.14-2.69.55,13.1,17.75-4.5,8.45.7-.34,7.78-11-3.59-7.09,1.76-2.75,5.61-17-3.73-8.85a32.35,32.35,0,0,1,3.38-6.16c-9.88,5.45,6.77-13.81-7.27-5.17,7-11.28-1.48-1.18,1.54-9.93,1.39-1.91-14.44,10-4.6-1.44-3.09,1.4-2.61-.61-1-6.45a8.56,8.56,0,0,1-4.11,2.38c.78-2.17,1.49-4.29,3.12-6-9.46-1.65-2.81,9.75-12.46,16.3-1.72.62,10.9,2.92-.07,6.21-3.22-6.7,2-3.6-8.44-2.66,2-3.46,4.47,1.8,2.84-11.71.4-.28-10.94,8.8-1.83-2.6-10.35,6.21,7.06-11.6-5.59-5.39-2.11-1.39,9.45-8.54-.75-5.17,3.39-10.31-2,8.42-6.16,4.8.91,1.94-.46.15,4.29,7.35-4-4.46-5.93,7.06-8.72-2.69a17.07,17.07,0,0,0,4.14-1.08c-5.57,3.16,4.15-10.62-3.32-4.44-6.13,3.09,2.59-6.54-1.24-6.21,2.59-7.3-8.33,3.13-1.06-6-3.08,1.4-2.61-.62-1-6.46a8.48,8.48,0,0,1-4.11,2.38c.77-2.16,1.49-4.29,3.12-6-.84,4.52,0-12.58-11.88,19.7,1.56-3.91,7.85,3.79,1.23,1-2.68-.68-1.68,3.62-3.76-3.41-6.21,4.85-5.84,4.77-2.59-5.87-.14-.14-2.35,2.21-1.82-.43,3.59-6-9.69,4.83-1.15-5.49-10.35,6.21,7.07-11.6-5.58-5.39-2.11-1.4,9.44-8.55-.75-5.18,3.38-10.31-2,8.42-6.16,4.81.9,1.93-.46.14,4.29,7.35-8.49-2.22,2.52-1-9,5.68,3.28.54,5.69-.88.82,3.5,1.92-3.15,11,4.95.74,1.68.93,3.28,6.08,7.64-3.95.17,2,3.81-.67,4.56,3.39,11.1,1.5.82-9.37-1.59-2.93,1.55-2.87,2-4.48,1.13-4.79-3.26,3.1-.67,2.74-.75,3.52-7.78-.64,0-4.27,4.69-7,1.69,4,.27,7-10.1-1.24-7.87a1.59,1.59,0,0,0-.47-.15c1.48-1.26,1.25-.37,3.28-3.53-7.82,3.77,5.13-10.23-5.74-4.09-1.56-.85,8.42-7.93-.41-4.68,3.42-8-1.09,2.94-4.61,4.62,5.39-10.83-3.49,2.91-2.08-10.3,2.6-7.3-8.33,3.12-1.06-6-3.08,1.4-2.6-.62-1-6.46a8.57,8.57,0,0,1-4.11,2.39c.78-2.17,1.49-4.3,3.12-6-9.46-1.66-2.81,9.74-12.46,16.3-1.72.61,10.9,2.92-.07,6.21-3.22-6.7,2-3.6-8.44-2.67,2-3.46,4.47,1.81,2.84-11.7.4-.28-10.94,8.8-1.84-2.6-10.34,6.21,7.07-11.6-5.58-5.39-2.11-1.4,9.45-8.55-.75-5.18,3.39-10.31-2,8.42-6.16,4.81.9,1.93-.46.15,4.29,7.35-8.49-2.21,2.52-1-9,5.68,3.28.54,5.69-.88.82,3.5,1.93-3.15,11,4.95.74,1.68.93,3.28,6.08,7.64-3.94.17,2,3.81-.68,4.56,3.38,11.1,1.51.82-9.37-1.59-2.93,1.55-2.87,2-4.48,1.13-4.78-3.26,1.91-.71,8.88-8.57-3.45-6.09,2.9-.8,4.72.34,2.71-9.11-3.09,2.29-6.73,3.29-1.13-2.44-7.82,3.77,5.12-10.23-5.75-4.09-1.56-.83,8.42-7.93-.41-4.67-.82.11,6.35-5.8-1.65-1.34-3.55,8.11,1.65,10.07-8.31,16.31,6.9-.46-1,2.23,1.79,3.11-2.88,2-5.73,3.55-6-2.77a19.07,19.07,0,0,0,4.58-1.19c-6.15,3.48,4.58-11.73-3.66-4.91-6.77,3.41,2.85-7.22-1.37-6.85,2.86-8.06-9.2,3.45-1.17-6.61-3.41,1.55-2.88-.68-1.1-7.13a9.41,9.41,0,0,1-4.54,2.63c.86-2.39,1.65-4.73,3.45-6.62-10.45-1.82-3.11,10.76-13.76,18-1.9.68,12,3.23-.08,6.86-3.55-7.4,2.24-4-9.32-2.95,1.39-3.89,5.09,3.19,3.14-12.92.44-.31-12.08,9.72-2-2.87-11.42,6.86,7.8-12.8-6.17-6-2.33-1.54,10.44-9.43-.82-5.71,3.74-11.39-2.18,9.29-6.8,5.3,1,2.41.45,2.21,4.73,8.12-9.37-2.45,2.79-1.06-9.88,6.26,3.62.61,6.29-1,.91,3.88,2.12-3.48,12.11,5.45.82,1.85-4.7-1.21,11.89,11.69-4.35.19-3,.58,12.16,19.54-4.79,10.37,2.11-.79,9.81-9.47-3.8-6.73,3.19-.88,5.21.38,3-10.06-3.41,2.53-7.43,3.64-1.26-2.69-8.63,4.16,5.66-11.3-6.34-4.52,7-8.66-4-12.74-4.76,5.35-6.45-.1,9-1.47-12,7.8-1.47-.41-1.88.23,2-4.82,7.06-13.9-4,6-6.25-7.67,1.83-.42,3.52-.5,5.24-1.37-7,4,5.26-13.44-4.19-5.62-7.76,3.91,3.27-8.27-1.57-7.85,3.28-9.23-10.54,4-1.34-7.57-3.91,1.77-3.3-.78-1.26-8.17a10.82,10.82,0,0,1-5.2,3c1-2.75,1.88-5.43,3.95-7.59.08-.49-8.19,6.1-3-.73-2-5-3.18,11-8,7.86-1.23,1.4,8.73,3.1-4.81,13.49,2.15.58,6.59-1,0,4,3.42-2.12,11.2.05-.13,3.81-4.07-8.48,2.57-4.56-10.67-3.37,1.59-4.47,5.83,3.65,3.59-14.81.5-.36-13.84,11.13-2.32-3.29-11.47,7.75,6.74-14.93-6.34-6.43-4.85-2.43,12.81-12-1.68-6.93,5.6-13.67-3.07,10.33-7.79,6.07,1.09,2.77.52,2.54,5.43,9.3-10.74-2.8,3.19-1.21-11.32,7.18,4.15.69,7.2-1.1,1,4.44,2.43-4,13.87,6.25.94,2.12-5.39-1.39,13.62,13.4-5,.22,2.56,4.82-.86,5.77,4.28,14,2.35.73-11.4-1.64-3.71,2-.65-.08-6.09,5-6.06-4.12,3.29-1.25,9.85-9.86-4.35-7.7,3.66-1,6,.42,3.42-11.53-3.9,2.89-8.51,4.17-1.43-3.09-9.89,4.77,6.48-12.94-7.27-5.17,7.13-10.37-1.27-3,1.15-8.22-3.22-3.31-7.56,12.11-6.6,14.34-3.85-1.58-.59-1.82-1.47,4.5-1.34-7.68-8.71,4.56-2.74-6.45-3.91,1.78-3.31-.77-1.26-8.16a10.8,10.8,0,0,1-5.2,3c1-2.74,1.88-5.43,3.95-7.59.08-.49-8.2,6.11-3-.72-2-5-3.18,11-8,7.86-1.15,1.33,8.54,3.25-4.81,13.49,2.15.57,6.59-1,0,4,2.74-4.09,12,5.21.81,1.51-4.15,6.48,4.16-5.68-11.61-1.07,1.59-4.46,5.83,3.65,3.59-14.8.5-.36-13.84,11.13-2.32-3.3-9.57,4.06-.86-1.08-1.89-4.74-6.18,4,5.83-8.29-1.57-3,.43-1-5.61,4.7-2.56-1.57-.27-2.94,8.38-8.69-2-2.84,3.41-7,2.42-7.23-4.1,2.42,0-2.94-8.14,10.18-9-2.28,1.83-.42,3.53-.51,5.25-1.37-7,4,5.25-13.44-4.2-5.62-7.76,3.91,3.27-8.27-1.57-7.85,3.28-9.23-10.54,4-1.34-7.57-3.9,1.77-3.3-.78-1.25-8.17a10.86,10.86,0,0,1-5.2,3c1-2.75,1.88-5.43,3.94-7.59.08-.49-8.19,6.1-3-.73-2-5-3.17,11-8,7.86-1.15,1.34,8.54,3.26-4.8,13.49,2.14.58,6.58-1,0,4.05,3.41-2.12,11.19,0-.14,3.81-4.06-8.48,2.57-4.56-10.67-3.37,1.59-4.47,5.83,3.65,3.59-14.81.51-.36-13.84,11.13-2.32-3.29-11.47,7.74,6.74-14.93-6.34-6.43-4.82-2.46,12.77-11.92-1.67-6.93,5.59-13.67-3.07,10.33-7.79,6.07,1.09,2.76.51,2.54,5.42,9.3-13.41-3.45,9-.17-19,10.6,10.39-12.13-.21-2.49-2.87-11.84,1.83-.43,3.53-.51,5.25-1.37-8.86,1,9.76-12.19-8.27-5.45-.37-2.68,3.48,1.85,3.91-9.15,1-6.76-11.35,4.78-2.75-6.45-3.9,1.78-3.3-.77-1.26-8.16a10.77,10.77,0,0,1-5.19,3c1-2.74,1.88-5.43,3.94-7.58.08-.49-8.19,6.09-3-.73-2-5-3.17,11-8,7.86-1.23,1.4,8.73,3.1-4.8,13.49,2.14.57,6.58-1,0,4,3.41-2.11,11.19.06-.14,3.82-4.06-8.49,2.57-4.56-10.67-3.38,1.59-4.46,5.83,3.65,3.59-14.8.51-.36-13.84,11.13-2.32-3.3-11.47,7.75,6.74-14.92-6.34-6.42-4.49-3.65,12.71-11.54-1.67-6.94,5.59-13.66-3.07,10.34-7.79,6.08,1.08,2.76.51,2.53,5.42,9.3-2.09-7-14.16,18.85-8.56-2.75-.39.24-7.29,7.65-5.1,2.15,1.27.87,0-1.54,3.47-.93-.89-3.82,7.67-15.15-4.81-5,.21-2.8,2.46-4,3.67-9-2.65-.07-13.6,10.88-.3-6.93-.56-3.37-15.18,14.69-3.31-6.28-1.44.07-8.5,9.08-8.85-1.82,1.83-.43,3.52-.51,5.24-1.37-7,4,5.25-13.44-4.19-5.62-7.76,3.9,3.27-8.27-1.57-7.85,3.27-9.24-10.54,3.95-1.35-7.58-3.9,1.78-3.3-.77-1.25-8.16a10.8,10.8,0,0,1-5.2,3c1-2.74,1.88-5.43,3.95-7.59.07-.49-8.2,6.11-3-.72-2-5-3.17,11-8,7.85-1.22,1.4,8.73,3.11-4.8,13.5,2.15.57,6.58-1,0,4,3.41-2.12,11.19.06-.14,3.81-4.06-8.48,2.57-4.55-10.67-3.37,1.6-4.46,5.84,3.65,3.6-14.8.5-.36-13.84,11.13-2.33-3.3-11.46,7.75,6.75-14.92-6.34-6.42-4.84-2.44,12.81-12-1.67-6.94,5.59-13.67-3.07,10.34-7.79,6.08,1.09,2.76.51,2.53,5.42,9.3-4.58-5.62-14.5,19.48-8.4-3.58-.39.24-7.29,7.65-5.11,2.15,1.28.87,0-1.54,3.48-.93-.9-3.82,7.67-15.15-4.81-5,.21-2.8,2.45-4,3.67-9-2.66-.07-13.6,10.88-.31-6.93-.55-3.37-15.18,14.69-3.3-6.28-1.44.07-8.5,9.08-8.86-1.82,1.83-.43,3.53-.51,5.25-1.37-7,4,5.25-13.44-4.2-5.62-7.76,3.9,3.27-8.27-1.57-7.85,3.28-9.23-10.54,3.95-1.34-7.58-3.9,1.78-3.3-.77-1.26-8.16a10.77,10.77,0,0,1-5.19,3c1-2.74,1.88-5.43,3.94-7.59.08-.48-8.19,6.1-3-.72-2-5-3.17,11-8,7.86-1.23,1.4,8.73,3.1-4.8,13.49,2.14.57,6.58-1,0,4,3.41-2.12,11.19.06-.14,3.81-4.06-8.48,2.57-4.55-10.67-3.37,1.59-4.46,5.83,3.65,3.59-14.8.51-.36-13.84,11.13-2.32-3.3-11.47,7.75,6.74-14.92-6.34-6.42-4.86-2.42,12.85-12-1.67-6.94,5.59-13.66-3.07,10.34-7.79,6.08,1.09,2.76.51,2.53,5.42,9.3-9.57-2.5,1.31-1.86-9.5,6.27C784.38,380,778,389,784,378.51c1.68.93.58,3.78.73-4-.39.24-7.29,7.66-5.11,2.16,1.28.87,0-1.55,3.48-.94-.9-3.81,7.67-15.15-4.81-5,.21-2.8,2.45-4,3.67-9-2.66-.07-13.6,10.88-.31-6.93-.55-3.37-15.18,14.69-3.3-6.28-1.44.07-8.5,9.08-8.86-1.82,1.83-.43,3.53-.51,5.25-1.37-7.05,4,5.25-13.44-4.2-5.62-7.76,3.9,3.27-8.27-1.57-7.85,3.28-9.23-10.54,4-1.34-7.58-3.9,1.78-3.3-.77-1.25-8.16a10.84,10.84,0,0,1-5.2,3c1-2.74,1.88-5.42,3.94-7.58.08-.49-8.19,6.09-3-.73-2-5-3.17,11-8,7.86-1.15,1.33,8.54,3.25-4.8,13.49,2.14.57,6.58-1,0,4,3.41-2.11,11.19.06-.14,3.82-4.06-8.49,2.57-4.56-10.67-3.38,1.59-4.46,5.83,3.65,3.59-14.8.51-.36-13.84,11.13-2.32-3.3-11.47,7.75,6.74-14.92-6.34-6.42-4.86-2.42,12.84-12-1.67-6.94,5.59-13.66-3.07,10.34-7.79,6.08,1.09,2.76.51,2.53,5.42,9.3-10.73-2.8,3.19-1.21-11.32,7.18,4.2.65,7.1-1,1,4.44,4.74-1.69,11.11.61.39,4.4,13.83,5.52-12.2,1.57-1.06-8.22-3.66-.61-10.54,6-1.34-7.13-7.77,1.63-1.36.6-.5-9.31-.44.26-8.06,8.45-5.65,2.37,1.42,1,0-1.7,3.85-1,8-18.45-11.31,2.79-2.17-12.74.84-6.52-13.41,8.49.57-10.38-10.7,4.13-10.41,7.78-3.66-6.94-1.59.08-9.39,10-9.78-2,2-.46,3.89-.55,5.79-1.51-9.73,1.3,10.66-13.23-9.14-6,1.06,0,7.6-10.32,2.77-8.86,3.62-10.21-11.64,4.37-1.48-8.37-4.44,2.08-3.38-.62-1.39-9a11.83,11.83,0,0,1-5.74,3.33c1.08-3,2.08-6,4.36-8.38.08-.54-9.06,6.74-3.3-.8-2.17-5.58-3.51,12.12-8.82,8.68.55,4.39,8.92,4-5.31,14.91,2.38.63,7.28-1.06.05,4.47,3.77-2.34,12.37.06-.15,4.21-4.49-9.37,2.84-5-11.79-3.72,1.76-4.94,6.44,4,4-16.37.55-.4-15.3,12.31-2.57-3.64-12.67,8.56,7.45-16.49-7-7.1-5.36-2.68,14.18-13.23-1.85-7.66,6.18-15.11-3.39,11.42-8.61,6.71,1.21,3,.57,2.8,6,10.28-11.86-3.1,3.53-1.34-12.51,7.94,4.52.78,8.08-1.3,1.15,4.9,2.94-3.53,15.52,4.9,0,3.06,6.2,4.65,9.74,10.88-4.43-.48-3.27,2,15,24.57-5.08,13,3.63-1.05,2.6-1.19,3.94-10.76-1.68.21-5.23,7-9.47,2.41,4.37-.95,2.84-.86,11-9.36-6.26-1-2-2-1.18-10.51.17-.36-5,5.28-3.61,1.52.91.61,0-1.09,2.46-.66,5-15.21-7.8,5.28-.81-9.88-1.87-.05-9.61,7.68-.21-4.9-.4-2.37-10.72,10.37-2.34-4.43-2.54,1.74-5.39,4.71-6.25-1.29a15.29,15.29,0,0,0,3.7-1c-1.44-14.62-4.31,9-5-14.86-2.76,1.25-2.33-.55-.88-5.77a7.62,7.62,0,0,1-3.68,2.13,14.26,14.26,0,0,1,2.79-5.36c-8.41-1.46-2.65,8.67-11.13,14.57-1.17-.62,6.14,3.11,3.16,4.51-7.44,1.82,2.12-4.38-10.59-1.89,3.27-1.6,3.11-1.23,2.36-9.91.35-.26-9.78,7.86-1.64-2.33-9.13,5.58,6.23-10.3-5-4.81-1.89-1.25,8.44-7.64-.67-4.63,3-9.21-1.76,7.52-5.5,4.29.8,1.74-.41.14,3.83,6.57-7.48-2,2.12-.83-8,5.08,2.93.48,5.09-.79.74,3.13,1.92-2.91,9.62,4.52.66,1.5,5.12,8.63,1.21.25-3.11,2.42,5.88,3.38-5.32-.56,3.37,7.7,1.36.66-8.89-1.38-3.38,1.33-2.56,1.78-4,1-4.28-2.91,1.72-.64,8-7.66-3.07-5.44.77-.05,4.44,1,2.42-8.14-2.75,2-6,3-1-2.18-7,3.37,4.58-9.14-5.13-3.65.39-2.18,6-7.37-.34-3.71,2.43-2.2.51-5.95-.54-.32-4.69,3.44-3.11,14.38-5,8.49-1-3.22-15.14,14.92-3.31-6.28-1.43.08-8.5,9.08-8.85-1.82,1.83-.43,3.52-.51,5.24-1.37-7,4,5.26-13.44-4.19-5.62-7.76,3.91,3.27-8.27-1.57-7.85,3.28-9.23-10.54,4-1.34-7.57-3.91,1.77-3.3-.78-1.26-8.17a10.89,10.89,0,0,1-5.2,3c1-2.75,1.89-5.43,4-7.59.07-.49-8.19,6.09-3-.73-2-5-3.18,11-8,7.86-1.23,1.4,8.73,3.1-4.81,13.49,2.15.58,6.59-1,0,4,3.41-2.11,11.19.06-.14,3.82-4.07-8.49,2.57-4.56-10.67-3.38,1.59-4.46,5.83,3.65,3.59-14.8.5-.36-13.84,11.13-2.32-3.3-11.47,7.75,6.74-14.92-6.34-6.42-4.87-2.42,12.86-12-1.68-6.94,5.6-13.66-3.06,10.34-7.78,6.08,1.08,2.76.51,2.53,5.42,9.3-10.73-2.8,3.19-1.21-11.32,7.18,4.16.68,7.18-1.09,1,4.44,2.44-4,13.88,6.25.94,2.12-5.39-1.38,13.62,13.39-5,.22-3.86.84,13.26,21.51-1.82,11.19-4.63-3.86,10.06-8.09-8-7,3.42,2,7.37-8.66,3.52-7.08,3.52-9.46-11.61,4.17-1.53-7.53-9.89,4.77,6.49-12.94-7.27-5.17-2-1.07,10.65-10-.52-5.92,5.22-6-1.47-4.91-3.92,6.5-2.05-7.1-13.66,8.61-.71-10.78-10.78,4.16-10.49,7.84-3.68-7-1.61.08-9.48,10.11-9.87-2,2-.48,3.93-.57,5.84-1.53-9.81,1.31,10.75-13.35-9.22-6.07,1.07,0,7.66-10.41,2.8-8.94,3.65-10.29-11.75,4.41-1.5-8.44-4.48,2.1-3.41-.62-1.4-9.1a12.07,12.07,0,0,1-5.79,3.36c1.09-3.06,2.1-6,4.4-8.46.08-.54-9.13,6.8-3.32-.81-2.2-5.62-3.54,12.23-8.9,8.76.56,4.43,9,4.06-5.35,15,2.39.65,7.34-1.07,0,4.51,3.81-2.36,12.48.07-.15,4.25-4.53-9.45,2.87-5.08-11.89-3.76,1.78-5,6.5,4.07,4-16.5.56-.4-15.42,12.41-2.58-3.67-10.67,4.52-1-1.2-2.1-5.29-6.9,4.44,6.49-9.23-1.75-3.33.47-1.1-6.26,5.23-2.86-1.75,1.5-7.5,7.3-5-2.23-4.52,4-13-4.14,12.49-8.68,6.77-7.54,6-3.81,4.16-2.7-11.83-4.34,2.85-10.05,5.83-2.41-3-4.48,2.1-3.41-.62-1.4-9.1a12.12,12.12,0,0,1-5.79,3.36c1.09-3.06,2.09-6,4.39-8.46.09-.55-9.12,6.8-3.32-.81-2.19-5.62-3.54,12.23-8.89,8.76.55,4.42,9,4.06-5.36,15,2.83.16,8.05-.18-2,5.08,1.35-13.31-1.95,5.93-9.76-.93,4.2-2.5,5.38-.25,3.74-15.65.57-.39-15.43,12.4-2.59-3.67-12.78,8.63,7.51-16.63-7.07-7.16-5-4.06,14.19-12.87-1.86-7.73,6.23-15.23-3.42,11.52-8.68,6.77,1.21,3.08.57,2.82,6,10.37-12-3.13,3.56-1.36-12.61,8,4.55.79,8.15-1.31,1.16,4.94,3-3.56,15.65,5-.05,3.09,6.25,4.69,9.83,11-4.46-.48,2.71,5-.66,6.37,4.76,15.64,2.63.81-12.7-1.83-4.13,2.19-.69-1-6.77,7.68-6.75-4.59,4.37-.94,3.87-1.06,5-11-1.18,0-6,7.31-9.82,2.39,7.85-.61,7.19-18.5-1.43-9.88-3.12-1-1.51,1.23,3.65-6.4-11,5.31,7.22-14.43-8.1-5.77-2.32-1.58,13-12.18-.58-6.59,5.25-11.71-1.21,6.24-10.22,3,.6-1.29,4.65,3.11,2.72-11.8-3.56,3.06-8.08,4.39-1.49-2.93-3.91,1.77-3.3-.78-1.26-8.17a10.89,10.89,0,0,1-5.2,3c1-2.75,1.89-5.43,3.95-7.59.08-.49-8.19,6.1-3-.73-2-5-3.18,11-8,7.86-1.23,1.4,8.73,3.1-4.81,13.49,2.15.58,6.59-1,.05,4,3.41-2.11,11.19.06-.14,3.82-4.07-8.48,2.57-4.56-10.67-3.37,1.59-4.47,5.83,3.65,3.59-14.81.5-.36-13.84,11.13-2.32-3.3C293.07,86,311.28,63.3,298.2,71.8c-4.86-2.42,12.84-12-1.68-6.94,5.6-13.66-3.06,10.34-7.78,6.08,1.08,2.76.51,2.53,5.42,9.3-10.73-2.8,3.19-1.21-11.32,7.18,4.15.69,7.21-1.11,1,4.44,2.43-4,13.88,6.25.94,2.12-5.39-1.39,13.62,13.4-5,.22-3.06,1.5,13.57,22.28-5.48,11.88,3.29-1.25,9.85-9.86-4.36-7.71,3.42,2,7.37-8.66,3.52-7.08,3.52-9.46-11.61,4.17-1.53-7.53-9.89,4.77,6.49-12.94-7.27-5.17,7.14-10.4-1.26-3,1.15-8.22-3.19-5-1.39,9.83-14.46,13.78,8.41-13.8,1.67-2.32-3.12-12.6,1.83-.43,3.52-.51,5.24-1.37-7.05,4,5.25-13.44-4.19-5.62-7.76,3.9,3.27-8.27-1.57-7.85,3.27-9.23-10.54,4-1.35-7.58-3.9,1.78-3.3-.77-1.25-8.16a10.8,10.8,0,0,1-5.2,3c1-2.74,1.88-5.42,3.95-7.58.07-.49-8.19,6.1-3-.73-2-5-3.17,11-8,7.86-1.23,1.4,8.72,3.1-4.81,13.49,2.15.57,6.59-1,0,4,3.42-2.11,11.19.06-.13,3.82-4.07-8.49,2.57-4.56-10.67-3.38C219,57,223.21,65.15,221,46.7c.5-.36-13.84,11.13-2.32-3.3-11.47,7.75,6.74-14.92-6.35-6.42-4.85-2.43,12.84-12-1.67-6.94,5.59-13.66-3.07,10.34-7.79,6.08,1.09,2.76.52,2.53,5.43,9.3-10.74-2.8,3.19-1.21-11.32,7.18,4.15.69,7.19-1.1,1,4.44,2.43-4,13.87,6.25.93,2.12-5.38-1.39,13.63,13.4-5,.22,2.56,4.82-.86,5.77,4.27,14,2.36.72-11.4-1.65-3.7,2-1.5.74-5,2.9-6.06-4.12,3.29-1.25,9.85-9.87-4.35-7.71,3.66-1,6,.43,3.42-11.52-3.9,2.89-8.51,4.16-1.43-3.09-9.9,4.77,6.48-12.94-7.27-5.18-2-1,10.65-10-.52-5.91,1.59-.86,4-7.44-.75-1.53-6.28,4.31-.05,16.24-8.89,16.9-3.41,5.28,1.8-5,1.09-11.43-3.89,2.56-9,5.24-2.16-2.74-3.9,1.78-3.3-.77-1.25-8.16a10.8,10.8,0,0,1-5.2,3c1-2.74,1.88-5.43,3.94-7.59.08-.48-8.18,6.1-3-.72-2-5-3.17,11-8,7.86-1.14,1.33,8.55,3.25-4.8,13.49,2.15.57,6.58-1,0,4,3.41-2.12,11.19.06-.14,3.81-4.06-8.48,2.57-4.55-10.67-3.37,1.6-4.46,5.84,3.65,3.59-14.8.51-.36-13.83,11.13-2.32-3.3-11.47,7.75,6.74-14.92-6.34-6.42-4.83-2.45,12.8-11.95-1.67-6.94C137.4,6.3,128.74,30.3,124,26c1.09,2.76.51,2.53,5.42,9.3-5.41-6.8-6.66,11.76-6.15-1.61-4.17,2-9.11,6.13-2.16-2.73-3.9,1.77-3.3-.78-1.25-8.17a10.82,10.82,0,0,1-5.2,3c1-2.75,1.88-5.43,3.95-7.59,2.48,1.77-14.63-4.14-6.55,14.4-9.37-6.09.35,7.2-5.7,1.63-8.6,4.18,5.52-6.32-3.21-2-.73,1,0,.08-3.18,1.36-2-1.07,10.65-10-.51-5.91,3.3-3.75,2.3-6.44-3.29,2.09-1.39-2.15-11.93,7-2.82-4.59C81.9,33,100.11,10.34,87,18.84c-4.83-2.44,12.81-11.95-1.67-6.93C90.94-1.76,82.28,22.24,77.56,18c1.09,2.76.52,2.53,5.43,9.3-10.74-2.8,3.19-1.21-11.32,7.18,4.16.67,7.17-1.08,1,4.44,4.73-1.69,11.11.61.38,4.41,8,2.72,3,5.69-4.43-2.08,3.65,9.54,1.27,2.84-9.84,4.19,3.65-1,6,.42,3.42-11.53-3.9,2.89-8.51,4.16-1.43-3.09-9.9,4.77,6.48-12.94-7.27-5.17,8-11.72-3.17-1.14,2.23-9.94-.09-.84-22.13,25.88-10.63,7.66-3.91,1.77-3.3-.78-1.26-8.17a10.89,10.89,0,0,1-5.2,3c1-2.75,1.89-5.43,4-7.59.08-.49-8.19,6.1-3-.73-2-5-3.18,11-8,7.86-1.23,1.4,8.73,3.1-4.8,13.49,2.14.58,6.58-1,0,4.05,3.41-2.12,11.19,0-.14,3.81-4.07-8.48,2.57-4.56-10.67-3.37,1.59-4.47,5.83,3.65,3.59-14.81.5-.36-13.84,11.13-2.32-3.29C5.9,25.36,24.11,2.69,11,11.19,6.54,7.54,23.73-.34,9.35,4.25,15-9.41,6.29,14.59,1.57,10.33c1.08,2.76.51,2.53,5.42,9.3-10.42-4.39.28,1-6.7,4,1.83,26.77-1.1,38.27,0,125V816.87c-1.82,4.65,5,4,19.12,4.33,12.68,11.59,973.2-13.53,1240.22-8.24C1698.21,818.57,1712.59,836.44,1601.62,773.44ZM1603,768ZM629.47,241.64a.24.24,0,0,0,.18-.06c-.18,0-.26.17-.36-.24A.22.22,0,0,0,629.47,241.64ZM17.53,38.84a1.11,1.11,0,0,1-.51.25A1.11,1.11,0,0,0,17.53,38.84Zm1.08-.49a2.06,2.06,0,0,0,.4-.25A2.06,2.06,0,0,1,18.61,38.35Zm2.45,6.18c-1.77,0,1.52-2.68,3.61,0Zm5.42-3.19a2.46,2.46,0,0,0,0-.26c0,.24-.05.21.2.63A.66.66,0,0,0,26.48,41.34ZM45.3,39.48c-.51-.13-.06.12-1.45-.67C43.57,39.1,46.24,38.19,45.3,39.48Zm1.37-3.23h-.16a2.05,2.05,0,0,1,.75-.46C47.21,36,47.09,36.24,46.67,36.25Zm.76-1.33A1.59,1.59,0,0,1,47.25,33,1.84,1.84,0,0,1,47.43,34.92Zm.47-3.31c1.19-3.05-3.86,1.42-.85-4.05C45.24,27.16,54.16,33.09,47.9,31.61Zm9.55,10.7-.28.06.68-.14A1.77,1.77,0,0,1,57.45,42.31Zm36.39.77c.75,1.86-4.56.32.23-1.17A1.81,1.81,0,0,1,93.84,43.08Zm1-10.86a6.6,6.6,0,0,0,.88-1.32C97.21,31.23,95.26,36.74,94.82,32.22Zm.68,8.15c.24-.21.13-.08,1.29-.71C97.16,40.36,97.85,40.75,95.5,40.37Zm11.64-1.28c.46.18.5,0-.5.91C106.81,39.71,107,39.4,107.14,39.09Zm-.51,0c-.74-.13-.34.95-2.77.54C104.37,38.53,103.7,39,106.63,39.06Zm-1.35-2.71a2.59,2.59,0,0,1-1.46,2A1.58,1.58,0,0,1,105.28,36.35Zm.53,7.68c-.54-.08-2,1.3-3.26.72C100.12,43.93,113.12,38.37,105.81,44Zm3.41,1.48c-.33.12-1.09.59-.77-.89C108.94,44.14,109,43.73,109.22,45.51Zm14.69-2.75a1.68,1.68,0,0,1-.15.3.33.33,0,0,0-.14-.28Zm-.52.63a.66.66,0,0,0,.29-.17c-.37.51,0,0-1.63,1.16A2.87,2.87,0,0,1,123.39,43.39Zm-2.26,3.71c.67.12.07-1.72,2.57-1.57C124.52,46.44,124.61,46.76,121.13,47.1Zm4.54,7.34c-1,.44-.76.64-2.67-1C123.46,53.56,124.39,52.88,125.67,54.44Zm14.43,0a1.23,1.23,0,0,1-.63.34c.23,0,0,0,.73-.38Zm9.74,8.71c-2.32,4.07-13.69-12.27.48.4A1.4,1.4,0,0,0,149.84,63.17Zm21.71-3.51a1.19,1.19,0,0,1,.3.35C171.9,59.93,171.25,60.12,171.55,59.66Zm.9,7.23c-1.61.49-2.55,0-3-1.56A16.65,16.65,0,0,0,173,66.59Zm.53-3.38c-.64.22-.82.59-3.52-2C169.69,61.89,172.11,59.41,173,63.51Zm9.75-3.06a1,1,0,0,1-.28,0,4.78,4.78,0,0,0,.68-.13A2.57,2.57,0,0,1,182.73,60.45Zm1.06-.46A5.29,5.29,0,0,1,185,59,7.66,7.66,0,0,0,183.79,60Zm35,4.67a1.07,1.07,0,0,1-.47.22A1.07,1.07,0,0,0,218.76,64.66Zm9.9,8.59c-4.91,10.32-13-12,.35.25A1.59,1.59,0,0,0,228.66,73.25Zm16.45-13.78a13.32,13.32,0,0,0,1.4-1.31c-.74.61.5-.14-3,2.51C244.06,60.29,244.58,59.88,245.11,59.47Zm5,24.42a.32.32,0,0,1-.28-.29.35.35,0,0,0,.56.19A.4.4,0,0,1,250.12,83.89Zm7.66,11.35c-.14,1.3-1.4,1.91-.22-.65C257.78,94.83,257.91,95.1,257.78,95.24Zm1-7.8c-3,1.57-9.45,3.9-1.43-2.26C258.25,85,257.51,84.93,258.77,87.44ZM258.28,84a5.59,5.59,0,0,0,.9-2.06C259.47,82.46,264.76,87.94,258.28,84Zm10.34,11.29a.92.92,0,0,1-.28,0,4.51,4.51,0,0,0,.68-.13A1.77,1.77,0,0,1,268.62,95.27Zm36.2,4.09a1.16,1.16,0,0,1-.63.34c.23,0,0,0,.73-.38Zm9.74,8.71c-4.92,10.32-13-12,.35.25A2.29,2.29,0,0,0,314.56,108.07Zm23.4-7c.57.81.18,1.16-.3,1.42A8.54,8.54,0,0,1,338,101.06Zm-3.9,8.6,0-.22C334.42,109.55,336.09,114.11,334.06,109.66Zm1-1.08c.38-.9,1.18-1-.91-2.21C335.69,104.38,342.21,113,335.08,108.58Zm11.15,12.32a1.7,1.7,0,0,1-.31.06c.15,0,.13,0,.76-.16A2.11,2.11,0,0,1,346.23,120.9Zm3.45,7.24a3,3,0,0,1,1-.44A3,3,0,0,0,349.68,128.14Zm42.14,2.63c.53.4-.26,1.08-1.37,1.17C390,131.25,388.88,131.13,391.82,130.77Zm-5.25-5.32a1.25,1.25,0,0,1-.7.38c1.05-.5.49-.25,2.49-1.33A4.63,4.63,0,0,1,386.57,125.45Zm4,13.18c0-.95-.86.19-1.44-3.54C388.16,135.26,393.5,137.58,390.59,138.63Zm13.34-14.17c-3.11-1.84-5.84.17-8.72.19C396.11,123.7,402,114.88,403.93,124.46ZM422,131c0,.27,0,0,.1.7C421.82,131.54,421.08,131.63,422,131ZM421.34,147a.35.35,0,0,1-.31-.32.39.39,0,0,0,.6.22A.42.42,0,0,1,421.34,147Zm1.83-.82a1.44,1.44,0,0,0-.48,1C422.27,147.29,422.9,145.31,423.17,146.2Zm.83-9.1c-.81,1.13-.33,2.06-4.8,0-.9-1.18,3.9-1.55.09-3.83C421.54,133.39,423.87,130.75,424,137.1Zm1-4.52c-.06-.25-1.06-.54.17-.84-.61-.27-.58.41-2.81-1,1.06-1.27.61-.49,1.31-3.82.8,1.79-.29-.71,4.74,6.61C427,133.52,425.89,133.62,425,132.58ZM440.11,155a.87.87,0,0,1-.11.09A.87.87,0,0,0,440.11,155Zm7.24,11.28c-4.69,8-7-15.3,3.75-1.68C450.18,166.34,451.34,166.59,447.35,166.23ZM475,176.41c-.2,0-.3-.17-.3-.32,0,0,.12.48.62.21A.46.46,0,0,1,475,176.41Zm9.34,22c-.29-.07,0,0-.76-.35C483.61,197.74,485.29,197.65,484.35,198.45Zm2.1-11.36c-4-1.14-.33,4.15-3.69,2.35C482.27,187.86,486,180.78,486.45,187.09Zm10.18,11a5.44,5.44,0,0,1,1.26-1A7.41,7.41,0,0,0,496.63,198.11Zm44,6.87c0,.25,0,.22.2.64C540.88,205.49,540.55,205.53,540.62,205Zm-8.85-2.32a1.16,1.16,0,0,1-.63.34c.79-.36.46-.28,2-1A5.48,5.48,0,0,1,531.77,202.66ZM542,212c-.71-1-9.48,6.63-7-1.43C534.69,207.75,536.59,204.83,542,212ZM563,222a.31.31,0,0,1-.27-.29s.11.43.55.19A.38.38,0,0,1,563,222Zm8.94-1.5c-.08.34.12.11-.52,1.2A5.74,5.74,0,0,0,571.9,220.51Zm-1.18,13.82h0C570.28,235.33,568.66,233.1,570.72,234.33Zm1.14-2.42a.48.48,0,0,0-.22.13c.22-.1.27-.29.57.15A.29.29,0,0,0,571.86,231.91Zm1-1.82c-1.11-.21-2.7-2.81,2.14-.66A3.08,3.08,0,0,1,572.83,230.09Zm2.15-2.84c-3-2.9-2.85-.65-8.8.44C569.71,222.5,571.68,221.82,575,227.25Zm7.42-2.33c-.11.07-.14.07-.73.21.74-.13.6-.17,1.84-1.07A10.31,10.31,0,0,0,582.4,224.92Zm5.94,16a.33.33,0,0,0-.27.12A.33.33,0,0,1,588.34,240.9Zm.35,0h0Zm18.42-12.71c.12,0,0,0,.33-.21A.84.84,0,0,1,607.11,228.19Zm6.67,1.74c-.14-.25-.1-.06-.08-.65C613.79,229.35,613.53,229.45,613.78,229.93Zm-1.84,5.27c-3,5-4.4-9.7,2.38-1.07C613.73,235.26,614.47,235.42,611.94,235.2Zm55.44,38.29a1.91,1.91,0,0,1-.3.22,5.2,5.2,0,0,1,1.45-.71A9,9,0,0,1,667.38,273.49Zm7,11.29c-4.66,7.89-6.9-15.17,3.71-1.67C677.23,284.89,678.38,285.14,674.43,284.78Zm4-1.45a1.14,1.14,0,0,1,.19.2A1.14,1.14,0,0,0,678.46,283.33Zm23.09,11.23s.07.29.48.28C701.77,294.86,701.82,295,701.55,294.56Zm7.24,34.88h0Zm31.32,10.29a1.16,1.16,0,0,1-.63.34c.21,0,.19-.21,1.07-.51ZM746.49,350c-4.22,7.13-6.24-13.73,3.36-1.51C749,350,750.07,350.27,746.49,350Zm24.82,9.13a.31.31,0,0,1-.28-.29.35.35,0,0,0,.56.19A.41.41,0,0,1,771.31,359.08Zm12,27.88c-1.07-1,7.53-3.41,4,.12C786.57,386.42,787.08,389.8,783.34,387Zm7.85,6.27c.46.7-7.19-4.42-2.32-4.93C789.48,388.74,789.67,389.09,791.19,393.23ZM805,397.46c.1,0,0,0,.3-.22A1.43,1.43,0,0,1,805,397.46ZM815,406c-4.88,10.28-13-12.16.35.24A3.41,3.41,0,0,0,815,406Zm21.46,10.64a.32.32,0,0,1-.28-.29s.11.43.56.19A.41.41,0,0,1,836.48,416.59Zm14,28.27c.36-.17.53-.27,0,0C846.61,444,854.75,440.9,850.5,444.86Zm3.11,2.13c-.84.43-.1.35-2.11-1.24C852.4,445.87,852.73,445.37,853.61,447Zm15,8c.11-.05,0,0,.3-.22A1.05,1.05,0,0,1,868.63,455Zm9.16,2.1c0,.25-.06.22.2.64C878.05,457.58,877.72,457.62,877.79,457.07Zm1.4,7c-1.69-.24-6.85,4.57-7-1.43C871.85,459.84,873.75,456.92,879.19,464.08Zm20.94,10a.33.33,0,0,1-.28-.29s.12.43.56.18A.36.36,0,0,1,900.13,474.1Zm15.35,26.81L914,499.67C913.38,500.23,917.84,498.52,915.48,500.91Zm26.12,12.84c0,.25-.06.22.2.64C941.86,514.26,941.52,514.3,941.6,513.75Zm-9-2.23a1.35,1.35,0,0,1-.51.25A1.35,1.35,0,0,0,932.62,511.52Zm3,5c1.13.78.86-3.37,6.82,3.6a1.87,1.87,0,0,0-.33,1.16C940,519.73,937.81,518.14,935.66,516.54Zm7.34,4.22a.3.3,0,0,0-.07-.27A.3.3,0,0,1,943,520.76Zm28.11,19.89c-.58-.57-.78-.09,1.48-1.22C972.83,540.69,972.57,540.84,971.11,540.65Zm9.12-1.86c-.29.49-2.09.84-3.27.77,1.81-3.93-2,2.44-3.38-4.47C975.3,537,974.13,534.73,980.23,538.79Zm.34-4c-5.33-4.06-19.31,6.45-9.42-2.73,2.33-6.06,9.53-6.89,2.58-.77C975.26,533.88,977.31,524.25,980.57,534.8Zm14.09,4a1.16,1.16,0,0,1-.63.34c.23,0,0,0,.73-.38ZM1001,549c-3.24,7.86-6.9-12,1.69-3.21C1002.88,547.52,1005.8,550.16,1001,549Zm24.82,9.13a.31.31,0,0,1-.28-.29s.11.43.56.19A.41.41,0,0,1,1025.86,558.15Zm4.9,4.88c-.16-.19-.34,2.16-1.68.8C1028.57,563.54,1032,559,1030.76,563Zm-1.14-5.54c1.44-.88,2.13-1.37,0,0C1025.4,562.57,1027.07,551.07,1029.62,557.49Zm1.34-5.4a17.82,17.82,0,0,1,1.93-3.62C1032.85,548.94,1035.24,553,1031,552.09Zm1.84,7.61c.77-.36.87-2.25,1.89.14A8,8,0,0,1,1032.8,559.7Zm43,19.28c-1.46.1-.08,0-3.31-.91,1-.63.1.24,3-2.59C1074.22,576.68,1077.91,577.22,1075.75,579Zm10.66-2.92a.94.94,0,0,1-.28.06l.68-.14A1.77,1.77,0,0,1,1086.41,576.06Zm1.06-.46a5.44,5.44,0,0,1,1.26-1A8.37,8.37,0,0,0,1087.47,575.6Zm34.84,4.78a2.63,2.63,0,0,0,.3-.23A1.5,1.5,0,0,1,1122.31,580.38Zm6.67,10c-4.21,7.13-6.23-13.73,3.37-1.51C1131.52,590.47,1132.56,590.69,1129,590.37Zm3.88-.89a.26.26,0,0,0-.07-.26A.26.26,0,0,1,1132.86,589.48Zm20.94,10c-.18,0-.27-.15-.27-.28a.34.34,0,0,0,.55.18A.38.38,0,0,1,1153.8,599.5Zm10.19-4.18c0,.52,0,0-.49,1.46C1162.77,597.05,1162.7,597.21,1164,595.32Zm3.42,11.32c-.88-.28-4.25,2.54-3.53-1.7a19.37,19.37,0,0,0,3.9,1.48Zm.38-2.91c-6.46-1.06-19.19,3.93-1.64-5.65C1158.76,603.92,1164.9,596.52,1167.79,603.73Zm8.51-2.67a.69.69,0,0,1-.24.05,4.14,4.14,0,0,0,.59-.12A1.36,1.36,0,0,1,1176.3,601.06Zm31.59,3.57a1.18,1.18,0,0,1-.22.17,3.62,3.62,0,0,1,1-.5A7.92,7.92,0,0,1,1207.89,604.63Zm8.5,7.61c-4.28,9-11.36-10.51.31.21A1.49,1.49,0,0,0,1216.39,612.24Zm18.73,9.28a.27.27,0,0,1-.24-.25s.1.37.49.16A.33.33,0,0,1,1235.12,621.52Zm6.1-9.17c-.12,0-.21.11-.32.16A.52.52,0,0,1,1241.22,612.35Zm-5,9.4c-.2-.22,0,0-.16-.75C1236,620.86,1237.62,622.13,1236.23,621.75Zm1.63-2.41a.61.61,0,0,1-.54.32c.18-.28.34-.56.52-.84A.6.6,0,0,1,1237.86,619.34Zm1.39,5.18h-.18C1239.1,624.44,1240.13,623.79,1239.25,624.52Zm2.86-6.23c-.13,2.75-7.35-3.77.46-.4A3.47,3.47,0,0,0,1242.11,618.29Zm1.39-2.57c.85.22-4.71.1-2.68-1.87C1241.11,612.49,1242.27,611.11,1243.5,615.72Zm7.71-2.42a.57.57,0,0,1-.22,0l.54-.1A1.65,1.65,0,0,1,1251.21,613.3Zm.84-.36a4.08,4.08,0,0,1,1-.79A5.92,5.92,0,0,0,1252.05,612.94Zm27.77,3.59a1,1,0,0,1-.78.29c.3,0,.24-.11,1.44-.56Q1280.15,616.41,1279.82,616.53Zm5,8.08c-3.33,5.64-4.92-10.85,2.66-1.19C1286.87,624.69,1287.69,624.87,1284.86,624.61Zm21.39,1.42c-3.51-1.33-1.37,1.93-3.22-4C1303,622.16,1306.22,620.87,1306.25,626Zm40.3,18.48c-1.29.36-3.78-3.09-1,2C1339.78,647.31,1347.63,634.44,1346.55,644.51Zm23,4.23c.54-.42.43-1.31.94-1.83-.18.19.1,1.29-1.09,2A1,1,0,0,1,1369.56,648.74Zm-3.49,3.69a.25.25,0,0,1-.2-.34.27.27,0,0,0,.42.26A.29.29,0,0,1,1366.07,652.43Zm1.07.26h0C1365.37,652.07,1371,649.76,1367.14,652.69Zm2.66,4.62h0C1367.6,657.79,1369.35,653.58,1369.8,657.31Zm11.87,3.24a.82.82,0,0,1-.4.19A.82.82,0,0,0,1381.67,660.55Zm7.11,1.56c.07.07-.17.19.08.55C1388.75,662.46,1388.72,662.58,1388.78,662.11Zm.69,5.25c-3.89,8.16-10.3-9.52.27.2A1.72,1.72,0,0,0,1389.47,667.36Zm12.81-7.25c0-.07,0-.05.3-.17A2.14,2.14,0,0,0,1402.28,660.11Zm2.28-5.82c-.36-.39-.17-.85-.21-1.28C1404.14,653.21,1405.85,653.35,1404.56,654.29Zm7.33,25.24-.05-.07.12,0Zm34.61,1a1.12,1.12,0,0,1-.46.21A1.12,1.12,0,0,0,1446.5,680.57Zm10.43,9.21c-.71-.95-9.48,6.62-7-1.43C1449.59,685.54,1451.49,682.62,1456.93,689.78Zm34.37,18.13c.1-.2.32-.4.35-.61C1492.5,707.9,1489.83,709.52,1491.3,707.91Zm-5.8,4.32c-.35-.06-.75-.17.93-1C1486.16,711.51,1486.43,711.25,1485.5,712.23Zm2.44,6.26c-.44-.43-.32.29-1.79-1.08.78.5,1.31.41,1.44-.34a2,2,0,0,0,1.12.76C1488.46,718.06,1488.2,718.28,1487.94,718.49Zm6.21-2.59c-.71-1-3.52,1.88-2.89-.64-.69-.43.29,2.29-2.77.64a3.55,3.55,0,0,1,1.14.58C1487.12,715.13,1494,711.46,1494.15,715.9Zm19.62-9a1.16,1.16,0,0,1-.63.34c.41-.12.25-.23,1.75-.82A6.51,6.51,0,0,1,1513.77,706.94Zm8.86,2.33c0,.07-.15.14.12.44C1522.76,709.61,1522.54,709.69,1522.63,709.27Zm1.41,6.88c-.9-.54-9.45,6.59-7-1.31C1516.78,712,1518.41,709.19,1524,716.15ZM1545,726.29a.32.32,0,0,1-.28-.29.35.35,0,0,0,.56.19A.4.4,0,0,1,1545,726.29Zm2.35.15h0C1546.14,727.87,1545.37,723.05,1547.32,726.44Zm1.76-1h0C1548,726.25,1546.17,720.82,1549.08,725.42Zm33.3,15.94c-2.78,4.7-4.11-9.05,2.22-1C1584.05,741.42,1584.74,741.57,1582.38,741.36Zm16.36,6a.21.21,0,0,1-.17-.28.23.23,0,0,0,.36.21A.24.24,0,0,1,1598.74,747.38Z"/>
      <path class="cls-4" d="M2461.48,445.86a.26.26,0,0,0-.3.26c.53-.59.23.28.3-2.71-.85.95-.33,1-3.06-.05,3.2.21,5.62-7.06,0-2.18-.45-2.15,6.58-5.31,1.69-9.47-1.06,4.62-1.6-2.49-3.73-7.52.17.95-5.35-9.61-2.32-.68-3.27-2.27-3-1.1.23,3.73-7-4.68-.25,4.28-5.14,3.65,9.68,7.66-10.3-.68,1.41,10.32.61,4.44-9-5.95-5.71,2.05,3,3.3-4,2.1,2.63,3.4-1,1.48,1.54,5.63-4.28,2.91,4.15-1.89-2.17-.35-3.24-2,4.8-1.89,1-3,3.65-9.29-1,2.15-11.84,7.48-2.83.31.32-2-6,2.71-4.54-.71,11.76-4.14-3.82-1.48,5.24-4.38-6.21-.6-2-8-8-5.07,1.67-2.51,1.73-1.21,3.83-6.57-7.45,1.28,1.82-5-9.49-5.43-1.73.15,9.23,8.08-.79,5-1.2,1.7,7.19,9.45-.88,5.55,9.78,10.64-9.07-3.76.89,12.78-5.64-2.3-7.78,3.16-11.49.29,6-3.15-1.55-1.27,3.89-3.45-10-3.93.87-11.82-11.13-14.57a14.31,14.31,0,0,1,2.78,5.36,7.69,7.69,0,0,1-3.67-2.12c-1.26-.76,4.33,8.43-.89,5.76,9,11.05-7.82-6.81.83,11-7.2-1-3.48-2.84-5.84,3.86a15.75,15.75,0,0,0,3.7,1c-.64,5.19.36,3.09-5.92,2.51-1.69.31,11,11-2.67,3.22,9.46,13.81-3-1.3,2.44,11.87-1.73-.76-6.79-7.92-3.46,2.9,1.16-1,.24.65,2.45.66.05,2.23.43,2.22-3.6-1.52.64.28-.78,4.32,3,6.45-8.76-2.13,6.21,6.79-4.2,4.06,2,1.46,4.57,6.75,10.95,9.36-.15,6.84-14.92-10.26-8.67,3.16,4.57,5-5.54,3.27,3.15,5.19-12.36,6.9-9.37,1.74-5.09-13-1.5,1.18-9.4,9.93-11,4.9,1,1.14,13.48-7,2.1-4.28-3.6,3.67-6.24-7.12,5.73-3.15-1.22-2.53-12.72-5.31-.18-5-9.72-1-3.1-12.5-12.51-7.94.68-1.67,4.45-4,6-10.28-11.65,2,2.85-7.76-14.85-8.48,1.34,4.89,12.34,11.33-1.24,7.85.67-.28,5.16,5.93.72,3.44-4.23,1.21,12.76,12.23-2.09,5.25-3,.37,16,13.83-3.41,4.36,4.35,3.05-6.76,7.58,4.81,15.63-2.93,4.9-9.12-6.85-10.87-1.75,5.56,4.35-8.26,5.84-7.12,2.19-.34-4.76,3.83.55,5.8-2-1.42-1.17-9.19-4.06.29-3.38-16.63-8.57,2.45-18-17.42-22.79,2.28,2.39,3.28,5.35,4.36,8.39a12.07,12.07,0,0,1-5.75-3.33c-2.17-1.16,6.86,13.35-1.38,9,13.88,17.13-12-10.4,1.28,17.23-14.95-2.46-3.36-3.4-9.14,6,1.91.95,3.78,1,5.8,1.51-2,9.8.26,4.85-9.26,3.92-.63,2.8,16,16.45-4.18,5,19.24,25.61-7.86-3.75,3.59,15.94,1.36,7-11.48-10.45-5.19,7.18,2.12-1.32-.74.33,3.84,1,1,3.42-.56,3-5.64-2.38,1.12.35-1.66,5.72,4.74,10.09-13.72-3.33,9.71,10.63-6.58,6.36,15.08,5.38-17,16.1-1.07,8.22.22-1.82-14.34-4.41.1-4.35,8.43.39-13.58-4.25,1.33-4.5-8.79-.85-2.8-11.31-11.31-7.18.61-1.51,4-3.65,5.42-9.3-10.55,1.82,2.58-7-13.44-7.68,1.24,4.46,11.13,10.24-1.12,7.11.61-.26,4.66,5.37.65,3.11-3.83,1.09,11.55,11.07-1.89,4.75,13.88,15.15-12.83-5.45,1.26,18.09-2.64,4.44-8.25-6.2-9.83-1.58,5,3.93-7.47,5.28-6.44,2-.31-4.31,3.47.5,5.24-1.83-1.28-1.05-8.31-3.66.27-3.05-13.95-5.62,1.16-16.73-15.77-20.62,2.07,2.16,3,4.84,3.95,7.59a10.82,10.82,0,0,1-5.2-3c-1.78-1.06,6.13,11.95-1.25,8.17,12.74,15.84-11.11-9.92,1.16,15.59-10.19-1.45-4.92-4-8.27,5.45,1.72.86,3.41,1,5.24,1.37-1.53,9.42-.77,3.79-8.37,3.55-2.39.46,15.55,15.55-3.79,4.55,13.43,19.62-4.22-1.88,3.45,16.81-2.43-1.06-9.6-11.21-4.9,4.11,1.86-1.24-.49.42,3.48.94,1,3.44-.86,2.33-5.1-2.15,1-.41-1.45,8.42.72,4-1.52,4.71,9.31,4.4-1.14,5.89-7.79-.61-.36-10.48-9.5-6.28.61-1.51,4-3.65,5.42-9.3-10.54,1.82,2.58-7-13.44-7.68,1.23,4.45,11.14,10.24-1.12,7.11.61-.26,4.66,5.36.65,3.11-3.83,1.09,11.55,11.07-1.89,4.75,13.88,15.15-12.83-5.45,1.26,18.09-2.64,4.44-8.25-6.2-9.83-1.58,5,3.93-7.47,5.28-6.44,2-.31-4.31,3.47.5,5.24-1.83-1.28-1.05-8.31-3.66.27-3.05-13.94-5.62,1.16-16.73-15.77-20.62,2.07,2.16,3,4.84,4,7.59a10.82,10.82,0,0,1-5.2-3c-1.78-1.06,6.13,11.95-1.25,8.17,12.74,15.84-11.11-9.92,1.16,15.59-10.19-1.45-4.92-4-8.27,5.45,1.72.86,3.41,1,5.24,1.37-1.53,9.41-.76,3.8-8.37,3.55-2.39.46,15.55,15.55-3.79,4.55,13.43,19.62-4.21-1.88,3.45,16.81-2.43-1.06-9.61-11.21-4.9,4.11,1.86-1.24-.49.41,3.48.94,1,3.43-.86,2.33-5.1-2.15,5.17,18.41,1.73,4.2-8.41,3.57.62-1.51,4-3.65,5.43-9.3-10.55,1.82,2.58-7-13.44-7.68,1.25,4.46,11.12,10.23-1.12,7.11.6-.26,4.66,5.36.64,3.11-3.82,1.09,11.55,11.07-1.89,4.74,13.88,15.14-12.83-5.42,1.26,18.1-2.64,4.44-8.24-6.2-9.83-1.58,5,3.93-7.47,5.28-6.44,2-.3-4.31,3.47.5,5.25-1.83-1.29-1.05-8.31-3.66.27-3.05-13.95-5.63,1.15-16.73-15.77-20.62,2.07,2.16,3,4.84,4,7.59a10.89,10.89,0,0,1-5.2-3c-1.78-1.06,6.12,11.95-1.26,8.17,12.75,15.85-11.1-9.93,1.17,15.59-10.19-1.46-4.92-4-8.27,5.45,1.72.86,3.41.94,5.24,1.37-1.53,9.41-.77,3.79-8.38,3.55-2.38.45,15.56,15.55-3.78,4.55,13.43,19.62-4.22-1.88,3.45,16.81-2.43-1.06-9.61-11.21-4.9,4.11,1.86-1.24-.49.41,3.48.94,1,3.43-.87,2.33-5.11-2.15,3,17.19-.93.8-8.55,2.74.61-1.51,4-3.65,5.42-9.3-10.54,1.82,2.58-7-13.44-7.68,1.23,4.45,11.15,10.24-1.12,7.11.61-.26,4.66,5.36.65,3.11-3.83,1.09,11.55,11.07-1.89,4.75,13.88,15.15-12.83-5.45,1.26,18.09-2.64,4.44-8.25-6.2-9.83-1.58,5,3.93-7.47,5.28-6.44,2-.31-4.31,3.47.5,5.24-1.83-1.28-1-8.31-3.66.27-3-13.94-5.62,1.16-16.73-15.77-20.62,2.07,2.16,3,4.84,4,7.59a10.82,10.82,0,0,1-5.2-3c-1.78-1.06,6.13,12-1.25,8.17,12.68,12.75-11.25-4.56,1.45,15.22-5.25,5.08-7.06-11.78-8.56,5.82,1.72.86,3.41,1,5.24,1.37,1.17,12.57-16.11-6.49-3.11,12.6-9.94-.7-12.57-15.31-18.79-11.35.61-1.52,4-3.66,5.42-9.31-10.55,1.82,2.58-7-13.44-7.68,1.23,4.45,11.15,10.25-1.12,7.11.61-.26,4.66,5.37.65,3.12-3.83,1.08,11.55,11.06-1.89,4.74,13.88,15.15-12.83-5.45,1.26,18.09-2.64,4.44-8.25-6.2-9.83-1.58,5,3.93-7.47,5.29-6.44,2-.31-4.31,3.47.5,5.24-1.82-1.28-1-8.31-3.67.27-3.06-13.94-5.62,1.16-16.73-15.77-20.62,2.07,2.16,3,4.85,4,7.59a10.88,10.88,0,0,1-5.2-3c-1.78-1.07,6.13,11.94-1.25,8.16,12.74,15.85-11.11-9.92,1.16,15.59-10.19-1.45-4.92-4-8.27,5.46,1.72.86,3.41.94,5.24,1.36-1.86,4.18,1.85,8.49-8.94,2.28-13.59-17.91,3.13,3.26-9.74-5.23,1.2,4.42,11.18,10.26-1.12,7.11.6-.26,4.66,5.36.64,3.11-3.82,1.09,11.55,11.07-1.89,4.74,14.38,20.41-11.82-13.16.26,18.77-18.27-9,1.71,6-15.26-.27-.31-4.31,3.46.5,5.24-1.83-1.29-1-8.31-3.66.26-3-13.94-5.63,1.16-16.73-15.76-20.62,2.06,2.16,3,4.84,4,7.59a10.89,10.89,0,0,1-5.2-3c-1.79-1.06,6.12,11.95-1.26,8.17,2.28,4.16,7.61,8.28-2.2,3.35.07-.32,2.59,6.12-1.31,1.87-2.56-6.16,1.62-3.31-3.2-13.72.53-.08-8.44-12.3-2.48-.92-4.74-1.93-5.94-3.25-.47,5.24-9.94-6.62-.35,6.06-7.27,5.18,10.62,7.42-12.93,1.85,2,14.61-1,6-13.55-9.12-8.08,2.89,4.27,4.68-5.61,3,3.72,4.81-2.92.87,5,8.37-6,4.12.79,1.19,4.09-3.34.91-1.91-8.91,4.52,1.8-11.18-1.86-12.82-16.16,12.15,2.83-3.57-6.5-.7-3.28,3.32-5.65-6.45,5.17-2.85-1.09-2.3-11.51-4.81-.16-4.49-8.8-.86-2.8-11.31-11.32-7.18.62-1.52,4-3.66,5.42-9.3-10.54,1.82,2.59-7-13.43-7.69,1.23,4.45,11.14,10.25-1.13,7.11.61-.26,4.67,5.37.65,3.12-3.82,1.08,11.55,11.06-1.89,4.74,13.88,15.16-12.83-5.45,1.26,18.09-2.64,4.44-8.24-6.2-9.83-1.58,5,3.93-7.47,5.29-6.44,2-.31-4.31,3.47.5,5.25-1.82-1.29-1-8.32-3.67.26-3-13.94-5.63,1.16-16.73-15.76-20.63,2.06,2.16,3,4.85,3.94,7.59a10.81,10.81,0,0,1-5.19-3c-1.79-1.07,6.12,11.94-1.26,8.16,12.75,15.85-11.11-9.92,1.16,15.59-10.18-1.45-4.91-4-8.27,5.46,1.72.86,3.42.94,5.25,1.36.49,15.16-12.45-7.49-4.2,12.5-12.76-6.7-11.82-5.75-14.15-16.93.35,1.47-6.46-11.85-2.86-.83-4-2.81-3.72-1.36.28,4.61-8.68-5.78-.31,5.29-6.35,4.51,9.27,6.48-11.28,1.62,1.74,12.76.76,5.48-11.1-7.36-7.06,2.52,3.74,4.08-4.89,2.6,3.26,4.2-10.81,5.82-7.62.25-5.31-7.56,4-5.43-16.39,7.41-3.35-1,1-1.84-13.92-3.53.33-3.84,6.67.44-12-3.73.91-3.87-7.67-.75-2.44-9.87-9.87-6.27.54-1.32,3.51-3.19,4.73-8.12-9.2,1.59,2.25-6.13-11.73-6.7-2.13.18,11.41,10-1,6.2-1.47,2.1,8.89,11.68-1.08,6.86,12.11,13.21-11.2-4.73,1.1,15.79-7.89-3.06-9.16,4-14.2.35-.27-3.76,3,.44,4.58-1.59-1.13-.92-7.26-3.2.23-2.67-12.17-4.91,1-14.6-13.76-18,1.8,1.89,2.59,4.23,3.44,6.63a9.38,9.38,0,0,1-4.53-2.63c-1.56-.93,5.34,10.42-1.1,7.12,11.12,13.83-9.69-8.65,1,13.61-8.89-1.27-4.3-3.52-7.22,4.76a19.11,19.11,0,0,0,4.57,1.19c-1.33,1.92.72,7.72-6,2.77,7.25.46-9.09-3.27,1.8-3.11-11.43-4.82-.81-6.63-11.59-18.15,5,9.43-6.64-4.89,1.22,7.86-7.86-5.24-.28,4.79-5.75,4.09,8.4,5.87-10.22,1.46,1.57,11.55.69,5-10-6.67-6.39,2.28,3.39,3.7-4.42,2.35,3,3.81-1.16,1.66,1.73,6.31-4.79,3.25.63.94,3.24-2.64.73-1.51-7,3.58,1.42-8.83-1.47-10.13,1,1.14-14.61,8.17-2-.66.36-2.2-6.75,3-5.09-.79,13.17-4.64-4.27-1.67,5.88-4.91-7-.68-2.22-8.94-9-5.68,1.87-2.8,1.94-1.34,4.29-7.35-8.34,1.44,2-5.55-10.62-6.07-1.94.16,10.33,9-.89,5.62-1.34,1.9,8,10.57-1,6.21,11,11.94-10.14-4.26,1,14.3-7.15-2.78-8.3,3.66-12.86.32,6.59-3.63-1.23-1.12,4.36-3.86-11-4.44.91-13.22-12.47-16.3,1.64,1.71,2.35,3.83,3.12,6a8.6,8.6,0,0,1-4.11-2.38c-1.4-.85,4.85,9.44-1,6.45,10,12.16-8.74-7.34.92,12.32.68,3.8-10.72-9.47-4.2,4.23-.64,2.6-8.77-15.6-4.5-4.34-3.75-1.53-4.7-2.56-.37,4.14-7.86-5.23-.28,4.8-5.75,4.09.8,1-.45.25,3.29,3.53a2,2,0,0,0-.47.15c-.74-1-11.09,2.06-1.25,7.88-2.61,3.32-1.5-.75-7.61-.6,4.45,4.41-3,6.37,4.17,6.69-1.16,1.66,1.73,6.31-4.78,3.25.63.94,3.23-2.64.72-1.51-7,3.58,1.42-8.83-1.47-10.13,1,1.14-14.61,8.17-2-.66-1.63-1.43-7.53,2.75-4.47-2.4,12.37-.17-6.14-2.19,5.26-3.3-6.95-.68-2.22-8.94-8.95-5.68,1.87-2.8,1.94-1.34,4.29-7.35-8.34,1.44,2-5.55-10.62-6.07-1.94.16,10.33,9-.89,5.62-1.34,1.89,8,10.57-1,6.21,7.39,12.78-2-5-2.75,11,6,6.3,2.6.75-6.58,4.19-3.73,3.15-4.13-4.84,1.23-1,1.49,2.35-.78-8.86-6.7-8.33.87-1.17,6.35-8.58-5.17-11.38,1.63,1.71,2.34,3.83,3.12,6a8.64,8.64,0,0,1-4.11-2.38c-1.41-.85,4.84,9.44-1,6.45,10.08,12.53-8.78-7.84.92,12.32-8.05-1.14-3.88-3.18-6.53,4.32a17.54,17.54,0,0,0,4.14,1.08c-.42,8.2-1.66.4-8.72,2.69,1.86-2.81,1.93-1.35,4.28-7.36-8.33,1.44,2.05-5.55-10.62-6.07-1.93.17,10.34,9-.88,5.62-1.34,1.9,8,10.58-1,6.21,11,11.94-10.14-4.26,1,14.3-7.15-2.77-8.3,3.66-12.86.32,6.58-3.64-1.2-1.1,4.35-3.86-11-4.44.92-13.22-12.46-16.3,1.63,1.71,2.35,3.83,3.12,6a8.6,8.6,0,0,1-4.11-2.38c-1.41-.84,4.84,9.44-1,6.45,9.41,11.8-9.75-5.16-2.59,6.13-4.75-1.93-5.94-3.24-.47,5.24-12.5-7.87,1.32,7.12-7.27,5.18a52.44,52.44,0,0,1,3.37,6.16c-7-5.85-7.11,1.23-3.88,10-5.6-2.63-11.22-7-3.43,5.94.45-.32-11.17,5.74-8.64.36,6.38-.15,1-3.61,4.72-12-15.64,12.5.66-2.16-9.4,1.14-1.34,1.75-4.11-6.92,6.56-3.42-1.09-2.3-11.51-4.81-.16-4.49-8.8-.86-2.8-11.31-11.32-7.18.62-1.52,4-3.65,5.42-9.3-10.54,1.82,2.58-7-13.43-7.68,1.24,4.46,11.11,10.22-1.13,7.11.61-.26,4.67,5.36.65,3.11-3.82,1.09,11.55,11.06-1.89,4.74,13.88,15.16-12.83-5.45,1.26,18.1-2.64,4.43-8.24-6.2-9.83-1.59,5,3.94-7.47,5.29-6.44,2-.31-4.3,3.47.51,5.25-1.82-1.29-1-8.32-3.67.26-3-13.94-5.63,1.16-16.73-15.76-20.63,2.06,2.16,3,4.85,3.94,7.59a10.77,10.77,0,0,1-5.19-3c-.49-1,3.41,11.45.43,7.92-.39.68.21,1.23-1.69.24,12.65,15.78-10.88-9.84,1,15.68-.84,1-8.2-4.7-3,.31-9.4-7.85.79,3.73-5.1,5.06-.61-1.8,8.1,7.44.33,5.26.17.33.34.66.52,1-2.58-2.13-6.38-4-2.46,1.72-1,3.49,3.41,5.65-5.3,1.52,12,18.48-3.3-1.07,1.37,15.26-1-.11.34-1.69-4.8-3.73,10.74-8.79-17.8,6.4-1.62-3.24,1.19-2.12-15.94-4,.38-4.41,7.64.5-13.68-4.27,1-4.43-8.8-.86-2.8-11.31-11.32-7.18.62-1.52,4-3.66,5.43-9.31-10.55,1.83,2.58-7-13.44-7.68,1.24,4.46,11.12,10.24-1.12,7.11.6-.26,4.66,5.37.64,3.12-3.82,1.09,11.55,11.06-1.89,4.74,13.88,15.15-12.82-5.45,1.26,18.09-2.64,4.44-8.24-6.2-9.83-1.58,5,3.93-7.47,5.29-6.44,2-.3-4.31,3.47.5,5.25-1.82-1.29-1-8.31-3.67.27-3.06-14-5.62,1.15-16.73-15.77-20.62,2.06,2.16,3,4.85,3.95,7.59a10.8,10.8,0,0,1-5.2-3c-1.79-1.07,6.12,11.94-1.26,8.16,12.75,15.85-11.1-9.92,1.17,15.59-10.19-1.45-4.92-4-8.27,5.46,1.72.86,3.41.94,5.24,1.36,2.41,14.94-14.87-7.52-8.61,7-6.59-4.38-.21,4-4.79,3.41,8.89,7-9.6-.5,1.31,9.64-.2,2.26-4.42-2.43-3,.72-6-4.78-1.1,3.26-.13,7.06,0,1,.11,1.78-3.71,0,3.86-1.75-2-.32-3-1.88,4.49-1.77,1-2.79,3.41-8.67-.94,2-11,7-2.64.29.3-1.83-5.63,2.53-4.24-.66,11-3.87-3.57-1.38,4.9-4.09-5.8-.57-1.85-7.46-7.46-4.74,1.55-2.34,1.61-1.12,3.57-6.13-7,1.2,1.7-4.63-8.86-5.06-1.61.14,8.62,7.54-.73,4.69-1.12,1.57,6.71,8.81-.83,5.18,9.13,9.92-8.46-3.52.84,11.92-5.27-2.14-7.27,3-10.73.27,5.52-3-1.09-1,3.63-3.22-9.32-3.66.81-11-10.39-13.59a13.08,13.08,0,0,1,2.6,5,7.19,7.19,0,0,1-3.43-2c-1.13-.57,4,8-.82,5.38,8.37,10.31-7.31-6.35.76,10.28-6.71-.95-3.24-2.66-5.45,3.6a14.34,14.34,0,0,0,3.46.9c-.59,4.84.34,2.88-5.52,2.34-1.58.29,10.25,10.25-2.5,3,8.84,12.89-2.77-1.21,2.28,11.08-1.61-.71-6.33-7.39-3.23,2.71,1.08-.89.22.61,2.29.62,0,2.08.4,2.07-3.37-1.42-.49,6,5.64,9.67-1.09,9.81,1,0,2.38,4.69,7,6-26.35,13.17-112,4.16-127,44.6v165.87l640.49,239.56,516.26-116.94Zm-57.56,9.72a.25.25,0,0,1-.18-.07c.18,0,.25.18.36-.23A.22.22,0,0,1,2403.92,455.58ZM1430.35,981.93c.05,0,0,0,.16,0A.43.43,0,0,1,1430.35,981.93Zm4.29-20.62a.24.24,0,0,1-.18-.06c.16,0,.27.18.35-.22A.2.2,0,0,1,1434.64,961.31Zm19-6.3c0,.75-1.14,2.31-4.85-.71C1450.54,952.52,1452.55,949.09,1453.64,955Zm30-16.06h0C1483.18,938,1488.5,936.16,1483.65,939Zm3.49,1.54c.4-.77.14-.93,0,0C1485.93,941.63,1484.89,937.88,1487.14,940.49Zm1.28-.26a.38.38,0,0,1-.28-.11c.16,0,.35.26.55-.18A.32.32,0,0,1,1488.42,940.23Zm22.36-16.77c0-.08,0-.17,0-.26,0,.25,0,.22-.2.64A.65.65,0,0,1,1510.78,923.46Zm6.45,7.2c-.52,2.23-1.4,2.11-7.88-.58C1512.4,927.33,1515.4,921.23,1517.23,930.66Zm2.38-9.79a7.69,7.69,0,0,1-1.11-.47c.26.17.45.14,1.74.81A1.1,1.1,0,0,1,1519.61,920.87Zm22.12.36a10.69,10.69,0,0,0,.9,1.48C1541.57,923,1542.63,922.71,1541.73,921.23Zm.5,9.23c-5.81,0,0-7.12,1.53-.05a3.26,3.26,0,0,1,1.13-.57c-.85.29-1.33,1.49-2.76-.65C1542.19,929.61,1542.21,930,1542.23,930.46Zm5,1.13c-.36-.33-.85,1.56-2.56.18a2.09,2.09,0,0,0,1.12-.77c.13.76.65.84,1.44.34Zm.64-5.43c-.42-.43,0,0-.92-1C1546.81,925.22,1548.75,925.71,1547.88,926.16Zm36.46-22c-.56,2.44-1.54,1.79-7.88-.45C1579.31,900.85,1582.56,894.71,1584.34,904.16Zm2.55-9.66a1,1,0,0,0,.46.22A1,1,0,0,1,1586.89,894.5Zm34.61-1-.08-.05.13,0Zm7.33-25.24c-.25-.33-1.11-.55.21-1.28C1629,867.37,1629.18,867.84,1628.83,868.22Zm2,5.65c.23,0,0,0,.3.17Zm13.8,2.17c-.07.07.17.19-.09.56C1644.64,876.4,1644.67,876.51,1644.61,876Zm5.13,6.1c-.25,1.35-1.08,2.24-6.09-.65C1646.06,879.41,1648.3,874.8,1649.74,882.14Zm2-7.66a1,1,0,0,0,.41.2A1,1,0,0,1,1651.71,874.48Zm12.12-11.81.15.14c-.93,0-.49-.14-1.09-2C1663.4,861.37,1663.29,862.25,1663.83,862.67Zm.94,8.18c-.18-.44-.26-.67,0,0C1662.82,872.9,1662.21,867.75,1664.77,870.85Zm1.54-4.28c-.26.12-3.21-1.76-.62-1.39C1665.55,865.52,1666.82,865.22,1666.31,866.57Zm1-.21a.32.32,0,0,1-.23-.08c.2.05.32.22.43-.26A.25.25,0,0,1,1667.32,866.36Zm22.77-7.56c-2.14,2.92-.9.62-3.94-1.76C1686.87,854.69,1688.92,852.31,1690.09,858.8Zm40.36-20.19c1.41,1.39-9,1.33-.09-2.6C1729.67,836.47,1728.82,836.85,1730.45,838.61Zm21.23-.41c0,.91-1.36,2.77-5.82-.85C1748,835.22,1750.37,831.1,1751.68,838.2Zm1.88-7.73c-.22-.09-.44-.17-.65-.27a7,7,0,0,0,1.43.55A1,1,0,0,1,1753.56,830.47Zm27.57-3.84a8.57,8.57,0,0,1-.79-.55,5.7,5.7,0,0,1,1,.79A1.21,1.21,0,0,1,1781.13,826.63Zm1,.6a1.65,1.65,0,0,1-.32-.06l.54.11A.87.87,0,0,1,1782.18,827.23Zm10.31-.79c-.11-.05-.21-.11-.32-.15A.51.51,0,0,1,1792.49,826.44Zm-2.61,3.21c.46-1.2,1.43-6,3.44-.84C1792.42,828.78,1793.35,829.28,1789.88,829.65Zm4.25,8.81c-.16.06-.64-.88.19,0Zm-1.16-5.68c-.64.06-1,.25-2.16-1C1790.21,832.33,1796.66,828.57,1793,832.78Zm2.55.49a.54.54,0,0,1,0-.51l.51.83A.61.61,0,0,1,1795.52,833.27Zm1.63,2.41c-.23.27,0,0-.67.07C1796.29,835.94,1797.79,834.1,1797.15,835.68Zm1.12-.22a.44.44,0,0,1-.25-.09c.15,0,.31.22.49-.17A.28.28,0,0,1,1798.27,835.46Zm25.15-8.35c-.28,1.48-1.2,2.47-6.73-.73C1819.35,824.09,1821.82,819,1823.42,827.11Zm2.07-8.54c-.27-.11-.54-.21-.8-.34a6,6,0,0,1,1,.5A1,1,0,0,1,1825.49,818.57Zm31.59-3.57a1.72,1.72,0,0,1-.65-.21c.13.08.17.09.9.26A1.23,1.23,0,0,1,1857.08,815Zm13.38-3.92c-.21-.09,0,0-.57-.37C1869.41,810.11,1869.48,808,1870.46,811.08Zm-1.46,10c-.89.21-1.78-.1-3.39-.76a20,20,0,0,0,3.9-1.49C1868.87,819.19,1870.52,819.81,1869,821.12Zm7.37-2c-.68-2.08-12.94.21-9.12-5.05C1876.17,819.72,1862.5,803.51,1876.37,819.11Zm3.21-5.67a.42.42,0,0,1-.28-.11c.17,0,.36.26.56-.18A.32.32,0,0,1,1879.58,813.44Zm20.94-10c0-.12,0-.26.24-.43C1900.54,803.16,1900.48,803.3,1900.52,803.42Zm7.88.45c.07,1.15-1.73,3.5-7.36-1.07h0C1903.7,800.1,1906.74,794.89,1908.4,803.87Zm2.38-9.79c.1.1,0,0,.3.23A1.5,1.5,0,0,1,1910.78,794.08Zm34.87-4.84c-.34-.22-.67-.46-1-.7a7.93,7.93,0,0,1,1.26,1A1.93,1.93,0,0,1,1945.65,789.24Zm1.33.76a2.59,2.59,0,0,1-.4-.09,4.91,4.91,0,0,0,.68.14A.92.92,0,0,1,1947,790Zm11,3c-1.37-.77-1.13-.25,0-3.61,1.15,1.1.29.05,3,2.59C1959.92,792.25,1959,792.75,1958,793Zm40.74-19.25c.32-.52.84-2,1.88-.14A7.9,7.9,0,0,1,1998.7,773.77Zm1.45-8c-.61-.79-.43-.13.34-3.4C2000.41,763.41,2004.72,767.49,2000.15,765.8Zm4.16,12c-.22-.55-.33-.84,0,0C2003.54,780.88,2000.35,772.14,2004.31,777.76Zm2-5.41c.39-.77.14-.93,0,0C2002.79,774.38,1999.13,762.32,2006.26,772.35Zm1.27-.27a.36.36,0,0,1-.28-.1c.17,0,.35.26.56-.18A.32.32,0,0,1,2007.53,772.08Zm28.82-9.56c1.39,1.85-6.87,2.38-6.32-1.58C2030.94,758.64,2034.9,753.2,2036.35,762.52Zm2.38-9.79-.1,0c.19.09.06,0,.4.26A1.09,1.09,0,0,1,2038.73,752.73Zm20.91-2.87c.68,3.19-5.24.93-3.21,3.63-4.09-.87-2.65-1,3.38-4.46C2060.06,749.25,2059.94,749.64,2059.64,749.86Zm2.64,4.72c-1.47.19-1.73,0-1.49-1.22C2060.28,753.62,2063.52,753.78,2062.28,754.58Zm3.95-4.19c.77-.67-25.24-4.95-6.57-5.16C2056.28,742,2053.4,735.07,2066.23,750.39ZM2091.82,728l0-.26c0,.24.06.22-.2.63A.68.68,0,0,1,2091.82,728Zm-1.43,6.74a.26.26,0,0,1,.07-.26A.26.26,0,0,0,2090.39,734.69Zm.84.55a1.81,1.81,0,0,0-.32-1.17c2,.77-.73-4.92,6.82-3.59C2095.57,732.08,2093.41,733.67,2091.23,735.24Zm9.59-9.75a1.13,1.13,0,0,0,.46.21A1.13,1.13,0,0,1,2100.82,725.49Zm17.08-10.65c-.55-.76-2.05-1.46,1.54-1.24ZM2133.26,688a.38.38,0,0,1-.28-.1c.16,0,.35.25.55-.19A.3.3,0,0,1,2133.26,688Zm22.36-16.76a2.45,2.45,0,0,0,0-.27c0,.25.05.22-.2.64A.72.72,0,0,1,2155.62,671.27Zm3.14,8.9c.71-2.76,1.39.28-4.57-2.16C2155.42,673.32,2166.82,670.94,2158.76,680.17Zm5.69-11.49h0a1.43,1.43,0,0,0,.3.22A1.43,1.43,0,0,1,2164.45,668.68Zm15.61-7.37c-.5-.15-.56-1.4,1.82-1.63Zm2.82-2.51h0C2180.52,658.32,2180.69,655.29,2182.88,658.8Zm14-28.28a.4.4,0,0,1-.28-.1c.17,0,.35.25.56-.19A.32.32,0,0,1,2196.91,630.52Zm28.82-9.56c-.81,1.14-.76,3-7.71-.83C2221.07,617.5,2223.9,611.66,2225.73,621Zm2.38-9.79h0a1.09,1.09,0,0,0,.3.23A1.09,1.09,0,0,1,2228.11,611.17Zm14.19-3.87c-.52-1,0,.29,1.13-3.88C2245,601.76,2249.53,603.21,2242.3,607.3Zm6.11-5.06h0C2243.93,601.43,2244.48,596.7,2248.41,602.24ZM2262.08,573a.4.4,0,0,1-.28-.1c.17,0,.35.26.56-.19A.32.32,0,0,1,2262.08,573Zm28.82-9.56c.06,1.15-1.73,3.5-7.36-1.08C2286.19,559.68,2289.24,554.46,2290.9,563.45Zm2.38-9.79-.44-.17a2.06,2.06,0,0,1,.74.4A1.09,1.09,0,0,1,2293.28,553.66Zm31-10.29Zm7.2-34.56a.48.48,0,0,1-.18,0c.26,0,.21.11.49-.29A.36.36,0,0,1,2331.53,508.81Zm23.21-11.35a1.13,1.13,0,0,1,.19-.19A1.13,1.13,0,0,0,2354.74,497.46Zm8.64.78c-.11.64-.64,4.56-8.14-1.19h0C2358.18,494.07,2361.54,488.31,2363.38,498.24Zm2.63-10.82a9.77,9.77,0,0,1-1.16-.48c.25.22.29,0,1.45.7A1.17,1.17,0,0,1,2366,487.42Zm53.68-44.21c-.1.08.17.18-.08.65C2419.75,443.61,2419.71,443.8,2419.69,443.21Zm4.58,5.61c.05.81-1.22,2.47-5.2-.76C2421,446.16,2423.1,442.48,2424.27,448.82Zm1.68-6.91c.1.1,0,0,.33.21A.84.84,0,0,1,2426,441.91Zm18.58,12.93h0Zm.52,0a.3.3,0,0,1,.27.12A.3.3,0,0,0,2445.05,454.84Zm6.47-15.82c-.57-.12-.49-.2-1.64-1,.25,0,.78.93,1.83,1.07A.43.43,0,0,1,2451.52,439Z"/>
      <path class="cls-5" d="M3.27,1238.58c.89-4.32,1179.12,12.92,1141.63.46-83.25-361.32-38.27-173.32-303.39-284.68,3.15,1.75,6.22-16.24-3.9-18.83,4-2.26.18-2.29-1.44-4.24,1-5.41,4.08-1.15-4.31-4.2,6.54-2.51,1.47-5.25,4.44-9.82,2.38-5.67-1.1,4.6-9.44,2.47,13-1.32-9.67-8,7.26-6-.87-2-10.5-4.21,0-3.83-14.46-6.11-1-8.39-14.66-23,6.37,11.93-8.41-6.19,1.54,9.93-9.94-6.62-.35,6.06-7.27,5.17,10.62,7.42-12.93,1.86,2,14.62-1,6-13.55-9.12-8.08,2.89,4.27,4.68-5.61,3,3.72,4.81-2.51.94,4.25,9.09-6.05,4.12.79,1.19,4.09-3.34.91-1.91-8.91,4.52,1.8-11.18-1.86-12.82-16.23,12.29,2.91-3.66-6.5-.7-3.28,3.31-5.65-6.45,5.17-2.86-1.09-2.29-11.51-4.8-.16-4.48-8.8-.86-2.8-11.31-11.32-7.18.62-1.52,4-3.66,5.42-9.31-10.54,1.82,2.59-7-13.43-7.68,1.24,4.46,11.12,10.23-1.13,7.11.61-.26,4.67,5.37.65,3.12-3.82,1.08,11.55,11.06-1.89,4.74,13.73,19.66-9.77-11.1-1,16.4,8,8.45-12.08-7.57-6.48,2.71l-2.61-1.59c5.79.13-11.1-3.85.56-3.91-13.94-5.62,1.16-16.73-15.76-20.62,2.06,2.16,3,4.85,4,7.59a10.88,10.88,0,0,1-5.2-3c-1.79-1.07,6.12,11.94-1.26,8.16.21.37.4.73.59,1.07q-14.46-9.21-28.09-18.45c4.79-5,0-.19,1.65-8.22-1.65-1.83,1.38-.91-4.39-1.21,9.52-3.43-3.88-10.86-.36-17.8,1.28-2.63-1.44,2.61-4.28,1.13,5.9-.6-4.38-3.64,3.3-2.71-.4-.92-4.76-1.9,0-1.73-.86,2.27-9.85-18.11-5.94-5.9-4.5-3-.16,2.74-3.29,2.34,6,4.7-6.59-.23.9,6.62-3.42-.89-6.39,2.39-2,3.49-.67,1,1,3.61-2.75,1.87-.17-1.45-2.06-1.63.26-7.25-5.17,4-1.06,1-4.72-.26,7.54-2.66-2.46-.95,3.36-2.81-4-.39-1.27-5.12-5.13-3.25,1.07-1.61,1.11-.77,2.46-4.22-4.78.83,1.17-3.18-6.09-3.47-1.1.09,5.92,5.18-.5,3.22-.77,1.08,4.61,6-.57,3.55,6.14,6.09-6.16-1.19.57,8.2-5.49,0-9.19,1-4.87-2-6.41-2.52.56-7.58-7.14-9.34a9.07,9.07,0,0,1,1.79,3.44,5,5,0,0,1-2.36-1.37c-.78-.39,2.77,5.48-.57,3.7,3.86,4.27-2.79,0-.84,4.72q-7.95-5.86-15.62-11.69c8.37-2.87,1.79-3.79,4.59-11.87-2.37-2.63,2-1.31-6.29-1.74,13.65-4.93-5.57-15.56-.52-25.52,1.84-3.79-2.06,3.73-6.13,1.6,8.45-.85-6.29-5.21,4.72-3.87-.57-1.33-6.83-2.74,0-2.49-1,3.06-14.14-26-8.52-8.46-6.46-4.3-.23,3.93-4.72,3.36,8.76,6.91-9.47-.5,1.29,9.49.57,4.08-8.26-5.47-5.25,1.88,2.78,3-3.64,1.93,2.42,3.13-1,1.37,1.42,5.18-3.93,2.67,3.81-1.73-2-.32-3-1.85,4.42-1.74,1-2.76,3.35-8.54-.92,2-10.88,6.88-2.59.28.29-1.81-5.55,2.49-4.18-.65,10.82-3.81-3.52-1.37,4.82-4-5.71-.56-1.82-7.35-7.35-4.67,1.53-2.3,1.59-1.1,3.52-6-6.85,1.18,1.68-4.56-8.73-5-1.59.14,8.5,7.43-.72,4.62-1.1,1.55,6.61,8.69-.81,5.1,9,9.76-8.35-3.43.82,11.76-3.69-2.39-11.22,4.45-10-1.22-.26,0,6.58,2.53.09-1.41,1.3-.34.09-.09,2.94-.28-1.19.66,0-3.49-3-1.56.42-.31,1.08-4-1.07-1.43-.48-4-1.46,1.51-.21-6.64-4.46-1.9,1.92-7.74-2.73-7.79-1.71-.81,1.71-1.81.83-2.6.41-.58,2.34-3.41-.42-1.74a1.75,1.75,0,0,0-.26-.84c-4.24,3.91,5.83-2.56-4.33-4.91,5.07-1.55-5.08-5.49-2.66-7.31.21-5.86,6.41-7.81-5.46-4.6,9.82-1-7.29-6,5.48-4.5-.66-1.54-7.92-3.18,0-2.89-10.91-4.61-.77-6.33-11.06-17.32,4.81,9-6.34-4.67,1.16,7.49-7.5-5-.26,4.58-5.48,3.91,10.45,8.28-11-.85,1.5,11,.66,4.74-9.6-6.36-6.1,2.18,3.23,3.53-4.22,2.25,2.81,3.63-1.1,1.59,1.65,6-4.57,3.11.61.89,3.09-2.52.69-1.45-6.72,3.42,1.36-8.42-1.4-9.66.91,1.09-13.93,7.8-1.87-.63-1.57-1.37-7.2,2.62-4.27-2.29,11.8-.16-5.87-2.1,5-3.15-6.63-.65-2.11-8.53-8.53-5.42,1.78-2.68,1.85-1.28,4.09-7-8,1.38,1.95-5.3-10.14-5.79-1.84.16,9.86,8.63-.84,5.36-1.28,1.81,7.68,10.09-.94,5.93-2,.25,10.94,9.45-2.33,3-3.67,3.11,10.09,15-4,9.69l-2.5-2.32,1.68-.08c-6.12-6.64-7.72-1.6-1.55-10.48,1.12-6.24-9.47,5.84-1.76-10.63-3.63-4.05,3-2-9.68-2.67,8.7.43,11-17.65.52-21,4-2.26.18-2.29-1.45-4.25,1-5.41,4.08-1.15-4.3-4.19,6.54-2.51,1.46-5.25,4.43-9.83,2.38-5.66-1.1,4.6-9.44,2.48,13-1.33-9.67-8,7.27-6-.88-2-10.5-4.2,0-3.82-14.47-6.11-1-8.39-14.67-23,6.38,11.93-8.4-6.18,1.54,9.94-9.94-6.62-.35,6.06-7.27,5.17,10,12.27-3.17-1.87-1.53,7.53-1-3.36-4.42,4.27,3.52,7.08-1,6.05-13.54-9.12-8.08,2.9,4.28,4.67-5.6,3,3.73,4.81-2.52.93,4.25,9.09-6.06,4.12.8,1.18,4.09-3.35.92-1.92-8.92,4.53,1.8-11.17-1.86-12.81-16.21,12.24,2.88-3.64-6.51-.7-3.27,3.31-5.64-6.45,5.18-2.86-1.1-2.29-11.51-4.8-.17-4.49-8.79-.85-2.8-11.31-11.31-7.18.61-1.51,4-3.65,5.42-9.3-10.54,1.82,2.58-7-13.44-7.68,1.25,4.46,11.12,10.23-1.12,7.11.61-.26,4.66,5.36.65,3.11-3.83,1.09,11.55,11.07-1.89,4.75,1.37,2.48,9.16,12.43-2.33,3.29-.49.09-1.74-1.66,1.14,15.71-9-11.14-23.84-13.52-6.44-22.95,2-8.29-7.49,6.63-1.24-8.05-2.36-2.63,2-1.3-6.29-1.73,13.65-4.93-5.56-15.57-.51-25.53,1.83-3.78-2.07,3.73-6.14,1.61,8.46-.85-6.28-5.21,4.72-3.88-.56-1.32-6.82-2.73,0-2.48-1,3.06-14.14-26-8.52-8.47-6.46-4.3-.23,3.94-4.73,3.36,8.76,6.91-9.46-.5,1.3,9.5.56,4.08-8.27-5.48-5.26,1.88,2.78,3-3.63,1.93,2.43,3.12-1,1.37,1.41,5.19-3.94,2.68,3.81-1.73-2-.32-3-1.85,4.42-1.75,1-2.76,3.36-8.55-.93,2-10.88,6.88-2.59.29.29-1.81-5.56,2.49-4.19-.65,10.82-3.81-3.51-1.37,4.83-4-5.71-.55-1.82-7.35-7.35-4.66,1.53-2.31,1.59-1.11,3.52-6-6.85,1.18,1.68-4.57-8.73-5-1.59.13,8.49,7.43-.73,4.61-1.1,1.56,6.61,8.7-.81,5.11,9,9.76-8.34-3.43.82,11.75-5.19-2.11-7.16,2.91-10.57.26,5.42-3-1-.91,3.58-3.17-3.4,1.16-2.33-10.7-14.13-20.91,1.88-2.76,3.6-4.83-2-3,5.28-.53-3.91-3.24,2.95-2.41-.36-.83-4.25-1.71,0-1.55-.77,2-8.8-16.19-5.31-5.28-4-2.68-.14,2.46-2.94,2.1,5.18,4.08-5.87-.11.81,5.91-3.06-.79-5.71,2.14-1.77,3.12-.59.85.89,3.23-2.45,1.67-.15-1.29-1.84-1.46.23-6.48-2.31,4.14-6.63-2-1.22-2.74-3.55-.35-1.13-4.58-4.58-2.91,1-1.43,1-.69,2.2-3.76-5.25-3.87-2.44-2.79-5.89-.23-.69,1,4.12,5.41-.51,3.18,5.46,5.4-5.53-1,.51,7.32-4.91,0-8.21.92-4.35-1.81-1.23,1.72-5.09-11.87-4.57-7.79-4.23-.7-7.31-4.36-5.86-9.8-5.24,3.44-3.23-5.45-.42-10.86.22-5.17-1.21,5.32-10,2.87,13-1.33-9.67-8,7.27-6-.88-2-10.5-4.21,0-3.83-14.46-6.1-1-8.38-14.66-23,6.38,11.93-8.4-6.18,1.54,9.93-9.94-6.62-.35,6.07-7.27,5.18,10.63,7.42-12.93,1.85,2,14.61-1,6.05-13.54-9.12-8.08,2.9,4.28,4.67-5.6,3,3.73,4.81.21,6.72-3.11,5.5-9.4-.46,2.33,4.2,4.5-12.69,2.4-10.15-16.25,12.32,2.92-3.69-6.51-.71-3.28,3.32-5.64-6.44,5.18-2.85-1.1-2.29-11.51-4.81-.17-4.49-8.79-.86-2.8-11.31-11.31-7.18.61-1.52,4-3.65,5.42-9.3-10.54,1.82,2.58-7-13.44-7.68,1.25,4.46,11.11,10.22-1.12,7.11.61-.26,4.66,5.36.65,3.11-3.83,1.09,11.55,11.06-1.89,4.74,13.25,13.71-12.19,2.32-6.38-4.4.25-2.34,2.83.29-5.65-.91,4.1-3.41,2.22-5.31,4.08-10.54,2.38-5.67-1.1,4.61-9.44,2.48,13-1.33-9.67-8,7.27-6-.88-2-10.51-4.21,0-3.82-14.46-6.11-1-8.39-14.66-23,6.37,11.93-8.4-6.18,1.54,9.94-9.94-6.62-.35,6.06-7.27,5.17,10.62,7.42-12.93,1.86,2,14.61-1,6-13.55-9.12-8.08,2.9,4.27,4.67-5.61,3,3.72,4.81.67,6.57-3.85,5.34-9.4-.46,2.33,4.2,4.5-12.69,2.4-10.15-16.27,12.38,3-3.72-6.5-.7-3.28,3.31-5.64-6.45,5.17-2.86-1.09-2.29-11.51-4.8-.16-4.49-8.8-.85-2.8-11.31-11.32-7.18.62-1.51,4-3.65,5.42-9.3-10.54,1.82,2.59-7-13.43-7.68,1.24,4.46,11.12,10.23-1.12,7.11.6-.26,4.66,5.36.64,3.11-3.82,1.09,11.55,11.07-1.89,4.74,9,10-1.88,9.48-5.49-5.37-3.32-3.16-6.5-5.77-3.13-13.05.75-3.39-2.42,4.2-6.51,1.87,8.46-.85-6.28-5.22,4.72-3.88-.57-1.32-6.82-2.73,0-2.49-1,3.07-14.15-26-8.53-8.46-6.46-4.3-.22,3.94-4.72,3.36,8.76,6.91-9.46-.5,1.29,9.5.57,4.08-8.26-5.48-5.25,1.87,2.78,3-3.64,1.94,2.42,3.13-.95,1.37,1.42,5.19-3.93,2.68,3.81-1.73-2-.32-3-1.86,4.42-1.74,1-2.76,3.36-8.54-.93,2-10.89,6.88-2.6.28.3-1.81-5.55,2.5-4.18-.65,10.82-3.81-3.51-1.36,4.82-4-5.71-.55-1.82-7.35-7.35-4.66,1.54-2.31,1.59-1.11,3.53-6-6.85,1.19,1.67-4.56-8.73-5-1.59.14,8.49,7.44-.73,4.62-1.1,1.56,6.61,8.69-.81,5.11,9,9.78-8.34-3.47.82,11.75-5.19-2.11-7.16,2.91-10.57.26,5.41-3-1-.91,3.58-3.17-9.19-3.61.8-10.87-10.24-13.4a13,13,0,0,1,2.56,4.93,7.12,7.12,0,0,1-3.38-1.95c-1.11-.57,4,7.85-.81,5.3,8.16,8.11-7.16-2.63.8,9.57-2,4.58-4.84-7.87-5.42,4.1a14.4,14.4,0,0,0,3.41.89c1.38,1.81-11.4,4.31-10.06-12.77-.36.32-9.39-4.83-3.77-8,.1-.49-9.91,2.64-1.73-3.8-6.74-4.13,8.87-6.59-7.91-2.82,10.67-1.09-7.93-6.57,6-4.9-.72-1.67-8.61-3.44,0-3.13-11.86-5-.84-6.88-12-18.82,5.23,9.77-6.88-5.07,1.27,8.14-8.15-5.43-.29,5-6,4.24,8.71,6.08-10.6,1.52,1.63,12,.71,5.15-10.43-6.91-6.63,2.37,3.51,3.83-4.59,2.43,3.06,3.94-1.21,1.73,1.79,6.54-5,3.38.66,1,3.36-2.75.75-1.57-7.3,3.71,1.48-9.16-1.52-10.51,1,1.19-15.15,8.48-2-.68-1.7-1.48-7.81,2.85-4.63-2.48,12.82-.18-6.38-2.28,5.45-3.43-7.21-.7-2.3-9.27-9.28-5.89,1.94-2.91,2-1.39,4.44-7.62-8.64,1.49,2.12-5.76-11-6.3-2,.17,10.72,9.38-.92,5.83-1.39,2,8.35,11-1,6.44,11.36,12.38-10.52-4.41,1,14.83-7.41-2.88-8.6,3.79-13.33.33,6.82-3.78-1.22-1.13,4.52-4-11.43-4.61.94-13.71-12.93-16.9,1.7,1.77,2.44,4,3.24,6.22a8.92,8.92,0,0,1-4.26-2.47c-1.46-.88,5,9.79-1,6.69,8.1,11.88-3-5.34-1.85,10.15,8.6,4.1-9.5,1.45-5.06-2.46-2.36-2.63,2-1.31-6.29-1.74,13.66-4.93-5.56-15.56-.51-25.53,1.83-3.78-2.07,3.74-6.14,1.61,8.46-.85-6.28-5.21,4.73-3.87-.57-1.33-6.83-2.74,0-2.49-1,3.06-14.14-26-8.52-8.46-6.46-4.31-.23,3.93-4.73,3.36,8.76,6.9-9.46-.5,1.3,9.49.56,4.08-8.27-5.48-5.25,1.88,2.78,3-3.64,1.93,2.42,3.13-1,1.36,1.42,5.18-3.94,2.67,3.81-1.73-2-.32-3-1.85,4.41-1.74,1-2.76,3.35-8.54-.93,2-10.88,6.88-2.59.28.29-1.81-5.55,2.49-4.19-.65,10.83-3.81-3.51-1.37,4.83-4-5.71-.56-1.82-7.35-7.35-4.67,1.53-2.3,1.59-1.11,3.52-6-6.85,1.18,1.68-4.57-8.73-5-1.59.13,8.49,7.43-.73,4.62-1.1,1.55,6.62,8.69-.81,5.1,9,9.76-8.34-3.43.82,11.76-5.19-2.12-7.15,2.9-10.57.26,5.41-3-1-.9,3.59-3.17-9.2-3.61.79-10.87-10.25-13.4a13.09,13.09,0,0,1,2.57,4.93,7,7,0,0,1-3.38-2c-1.12-.57,4,7.86-.82,5.3,6.33,7.75-2.23-.28-.69,3.8-4.34.5,5,7.9-1.35,6.06,1.12-.93-12.09-2.56-1.41-2.27-.58-1.32-6.83-2.73,0-2.48-1,3.06-14.15-26-8.53-8.47-6.46-4.3-.23,3.94-4.72,3.36,6.47,8-2.06-1.21-1,4.89h0c.34-1.54-4.29,1.15,2.29,4.61.57,4.08-8.26-5.48-5.25,1.88,2.78,3-3.64,1.93,2.42,3.12.79,4.17-2.73,2.24-6.92.83,4.42-1.75,1-2.77,3.36-8.55-.93,2-10.89,6.88-2.6.28.3-1.8-5.55,2.5-4.18-.64,10.82-3.81-3.51-1.37,4.82-4-5.71-.55-1.82-7.35-7.35-4.66,1.54-2.31,1.59-1.11,3.52-6.05-6.85,1.19,1.68-4.56-8.72-5-1.59.14,8.49,7.44-.73,4.62-1.1,1.56,6.61,8.69-.81,5.11,9,9.75-8.35-3.43.82,11.75-5.19-2.11-7.16,2.91-10.57.26,5.4-3-1-.89,3.58-3.17-7.33-4-1.87-4.11-6.31-11.85ZM836.71,940.2c-.23-.06,0,0-.47-.28A.82.82,0,0,0,836.71,940.2Zm-5.45-16.94a.57.57,0,0,1,.4.33s-.27-.61-.85-.11A.4.4,0,0,1,831.26,923.26Zm-14.17-9.65a.92.92,0,0,0,.28,0l-.68-.14A2.59,2.59,0,0,0,817.09,913.61Zm-2.32-1.47a9.81,9.81,0,0,1,1.26,1A6.07,6.07,0,0,0,814.77,912.14Zm-33.88,5.55a1.16,1.16,0,0,0,.63.34c-.23,0-.18-.21-1.15-.53ZM723,868.07l-.16-.08A.4.4,0,0,0,723,868.07Zm-2.46-7.67a.27.27,0,0,1,.14.08c-.14-.06-.17-.18-.37.1A.18.18,0,0,1,720.52,860.4Zm-9.83,5.8c-.09,0-.13.06-.15.14C710.56,866.26,710.6,866.2,710.69,866.2Zm-.55.07s0,0,0-.06S710.13,866.24,710.14,866.27Zm-.06-.07a.35.35,0,0,0-.21,0A.35.35,0,0,1,710.08,866.2Zm-12.37-8.32.13.1-.13-.1Zm-3.66,3.17c2-4.1,3.4,4.18,1.37,1.41C695.26,862.38,692,863.26,694.05,861.05Zm-24.1-26a1.78,1.78,0,0,0-.25.15A1.28,1.28,0,0,1,670,835.07Zm-6.65-26.38a.37.37,0,0,1,.2.12c-.21-.09-.25-.26-.52.14C663,808.77,663.09,808.67,663.3,808.69Zm-11-7.47c.19.2.33.17,1.32,1C653.07,801.83,653.34,802,652.28,801.22Zm-3.89,15.85a.31.31,0,0,0-.25-.11A.31.31,0,0,1,648.39,817.07Zm-17.81-12a.9.9,0,0,0,.19.15c-.07,0,0-.1-.34-.2Zm-4.1,3c-.79.83-1.07,1.32,0,0C627.22,805.94,632.73,816.46,626.48,808.09Zm-1.64-1.34c-.08.08,0,0-.15.25A.47.47,0,0,1,624.84,806.75Zm-8.26-20c-.78.4-1.12.67,0,0C617.05,786.73,618.35,789.94,616.58,786.75Zm-1.5,1c.4,1.14,1.88,2.44-2.12.85A3.46,3.46,0,0,0,615.08,787.7Zm-2.41-11.5c-.11,0,0,0-.27-.12A.85.85,0,0,0,612.67,776.2Zm-4.11-12.77a.43.43,0,0,1,.24.13c-.24-.1-.29-.3-.61.16A.3.3,0,0,1,608.56,763.43Zm-10.69-7.29a.78.78,0,0,0,.21,0,2.56,2.56,0,0,1-.77-.22A1.28,1.28,0,0,0,597.87,756.14Zm-6.61,17a.44.44,0,0,0-.42-.13A.44.44,0,0,1,591.26,773.16Zm-.68-.13h.23a3.48,3.48,0,0,0-.43,0Zm-20-13.81.15.12-.15-.12ZM550.23,713.4c-.29-.07,0,0-.54-.41A.72.72,0,0,0,550.23,713.4Zm-5.45-16.93a.56.56,0,0,1,.41.33c-.05,0-.28-.61-.85-.12A.37.37,0,0,1,544.78,696.47Zm-14.17-9.66a1,1,0,0,0,.28.05,4.55,4.55,0,0,1-.67-.13A1.59,1.59,0,0,0,530.61,686.81Zm-2.31-1.46a7.66,7.66,0,0,1,1.25,1A5.29,5.29,0,0,0,528.3,685.35ZM521,709.2c.37,0,.86-.12,1,.32,0-.38-.2-.13-1.24-.31Zm-41.66-63.79c-.1,0,0,0-.23-.11A.62.62,0,0,0,479.29,645.41Zm.4,24.24c-.75.63-.34,1.45-2.28.37A8.62,8.62,0,0,1,479.69,669.65Zm-3.94-35.24a.31.31,0,0,1,.28.33s-.25-.65-.6-.08A.25.25,0,0,1,475.75,634.41Zm-11.85-8.29c.45.51.2.12,2.16,1.86C465.07,627.18,465.85,627.83,463.9,626.12Zm-3,16.67a.3.3,0,0,0-.26-.11A.28.28,0,0,1,460.85,642.79Zm-.58-.11h.32a2.85,2.85,0,0,0-.51,0Zm-22.48-7.34c1-4.38,6.77,2.48,1.64,3C441.4,635.86,434.58,639.64,437.79,635.34Zm-9.85-10.66c-.47.85-1-1.08-.52-.51C427.14,624.66,428.18,624,427.94,624.68Zm-.74-3.12,0-.06S427.25,621.54,427.2,621.56Zm.69-9.25c.13-.2.29.07.43-.69C430.59,612.55,428.78,615.8,427.89,612.31Zm-.57.87c.28.2,0,0,.59.82C428,614,427,613.81,427.32,613.18ZM427,616c1.52-.59,1.19-2.45,2.4,1.48C429.11,616.68,427.37,617.21,427,616Zm-.88.57c.28.53,1.28,1.2-1.06.39A1.71,1.71,0,0,0,426.09,616.53Zm-1.66,8.94c-.05,0,0,.42-.34.07Zm-.57,1.94.05-.09a1.94,1.94,0,0,1,0,.2S423.88,627.53,423.86,627.41Zm-1.19-24a.24.24,0,0,1,.12.07c-.13-.06-.15-.16-.32.09A.16.16,0,0,1,422.67,603.45Zm-5.74-3.91.11,0a1.26,1.26,0,0,1-.41-.12A1,1,0,0,0,416.93,599.54Zm-1.24,2.64a.22.22,0,0,0,.18.1,1.94,1.94,0,0,0-.6-.28A1.14,1.14,0,0,1,415.69,602.18ZM413,608.6h.13a1.59,1.59,0,0,0-.29,0Zm-10.74-7.41a.49.49,0,0,0,.25.14c-.38-.18-.18-.09-.9-.48A1.76,1.76,0,0,0,402.28,601.19Zm-3.94,3.53c.88-1.94,3.91-2.22,2.48,1.26-.45-.5-1.21-.09-2.48-1.26Zm-6.24-8.38c-.35.42-.35.75,0,0C392.41,596.09,393.54,598.14,392.1,596.34Zm-10-20.25a.49.49,0,0,1,.43.5.5.5,0,0,0-.87-.29A.37.37,0,0,1,382.08,576.09Zm-16.78-2.88A.58.58,0,0,1,365,573,.58.58,0,0,0,365.3,573.21Zm-34.47-16a1,1,0,0,1-.6.72A2.59,2.59,0,0,1,330.83,557.19Zm-2.07,2.94c.15.26,0,0,.42.81C328.71,561,328.74,561.23,328.76,560.13Zm-4.3-3.67c-.15,0,0,0-.36-.16A1,1,0,0,0,324.46,556.46ZM319,539.53a.77.77,0,0,1,.32.18c-.22-.09-.34-.36-.77,0A.39.39,0,0,1,319,539.53Zm-14.17-9.66a.92.92,0,0,0,.28,0,4.51,4.51,0,0,1-.68-.13A1.77,1.77,0,0,0,304.84,529.87ZM288.9,540.81l.82.87C289.78,541.45,288.8,541.77,288.9,540.81Zm-25.85-15.72h0a1.17,1.17,0,0,1,.25-.16A1.17,1.17,0,0,0,263.05,525.09Zm2.53,3.48c-1.73-.26-2.11-.15.72-3.49C264.76,526.14,267.43,527.67,265.58,528.57Zm-.24-5.54a.32.32,0,0,1,0-.17,3.2,3.2,0,0,0,.16.39A.26.26,0,0,1,265.34,523Zm.5,1.22c.15,0,.16-.2.3.22A1.46,1.46,0,0,0,265.84,524.25Zm2.12,5c.59-.09,5,3.52-.22,1.24C268.71,530.77,267.15,529.19,268,529.23Zm-4.41-10.59c1.54-4.46,9.3,3.89-3.11,1.55C261.91,520.16,262.46,519,263.55,518.64Zm-6.9-20.09a.43.43,0,0,1,.2.12c-.2-.09-.24-.26-.52.14A.26.26,0,0,1,256.65,498.55Zm-14.85,8.63c0-.34-.2-.36-.42-.36C241.6,506.82,241.81,506.84,241.8,507.18Zm-23.12-7.69c1.77-5.89,8,7.59-1.08,1.1C218.15,500.4,217.6,500.59,218.68,499.49Zm-1.2,1.19a.75.75,0,0,0-.18.17A.75.75,0,0,1,217.48,500.68Zm-28-11.8c-.12,0,0,0-.29-.13A.87.87,0,0,0,189.46,488.88ZM185,475a.56.56,0,0,1,.26.15c-.27-.11-.32-.33-.67.17A.33.33,0,0,1,185,475Zm-18.87,10.51a.74.74,0,0,0-.43-.08A.74.74,0,0,1,166.13,485.51ZM144,470.62c-.1,0-.05-.13-.5-.28A1.11,1.11,0,0,1,144,470.62Zm-5.41,3.62c-1.07,1.06-1.38,1.74,0,0C140.77,473.53,144.94,480.25,138.55,474.24Zm-16.3-8a11.65,11.65,0,0,1-1.15-1.07,14.87,14.87,0,0,0,2.46,2.06C123.11,467,122.68,466.61,122.25,466.28Zm-14.52-13.15c-.14,0,0,0-.3-.18A.55.55,0,0,0,107.73,453.13Zm-3.54-11a.37.37,0,0,1,.21.12c-.21-.09-.25-.27-.53.14A.26.26,0,0,1,104.19,442.13Zm-14.9,8.38a.37.37,0,0,0-.36-.11A.37.37,0,0,1,89.29,450.51Zm-2.6,4.08a.58.58,0,0,0-.12-.33A.58.58,0,0,1,86.69,454.59ZM71.47,438.51a.77.77,0,0,0,.65.23c-.21,0-.21-.1-1-.37Zm-5.24,4.56c1-4.39,6.77,2.48,1.65,3C69.84,443.59,63,447.36,66.23,443.07Zm-17.94-.81a.25.25,0,0,0-.32.25s.14-.36.52-.14A.39.39,0,0,0,48.29,442.26Zm3.43,4.33c0-.28-.48-.57.48-.5A1.16,1.16,0,0,1,51.72,446.59Zm-1.61-6.15a4.2,4.2,0,0,1,.06.62C50,440.83,50,441,50.11,440.44Zm0,3.49c1,0-.24-1.72,2.27-.87C53.79,445.27,47.3,446.57,50.13,443.93Zm-1-5.4a.75.75,0,0,0,.36-.25c.08.1,0,3.48-4,1.69A23.7,23.7,0,0,0,49.11,438.53Zm-10-2.55.18,0a2.6,2.6,0,0,1-.67-.19A1.34,1.34,0,0,0,39.08,436Z"/>
    </g>
    <g id="Waterfall_foothills" data-name="Waterfall/foothills">
      <path class="cls-7" d="M1106,1156.4s-17,68,50.39,93.74,178.94,70.57,266.71,89.17c104,22,283,82.78,326.89,100.07,61.44,24.22,123.5,45.58,123.5,45.58l253.07,87.19s-158.22-124.78-219.06-160.77c-133.25-78.82-320.45-129.48-392.55-148.07s-203.78-44.06-211.22-95.74S1106,1156.4,1106,1156.4Z"/>      
    </g>
  </g>
</svg>
