<?xml version="1.0" encoding="utf-8"?>
<!-- Generator: Adobe Illustrator 24.0.1, SVG Export Plug-In . SVG Version: 6.00 Build 0)  -->
<svg version="1.1" id="Layer_1" xmlns="http://www.w3.org/2000/svg" xmlns:xlink="http://www.w3.org/1999/xlink" x="0px" y="0px"
	 viewBox="0 0 1872.1 163.4" style="enable-background:new 0 0 1872.1 163.4;" xml:space="preserve">
<style type="text/css">
	.st0{fill:#909090;}
	.st1{fill:#8D8D8D;}
	.st2{fill:#777777;}
	.st3{fill:#666666;}
	.st4{fill:#414141;}
	.st5{fill:#9B9B9B;}
	.st6{fill:#B0B0B0;}
	.st7{fill:#545454;}
	.st8{fill:#676767;}
	.st9{fill:#8C8C8C;}
	.st10{fill:#ADADAD;}
	.st11{fill:#767676;}
	.st12{fill:#919191;}
</style>
<title>rocks_1</title>
<g id="Layer_2_1_">
	<g id="New_Rocks">
		<path class="st0" d="M612.7,70.8c2.9-16.9-39.2-4.5-47.5-2.8C573.2,79.5,605.8,80.2,612.7,70.8z"/>
		<path class="st1" d="M562.6,72.3c-13.2,5.8-5.5,34.9,11.5,31.7v-0.4c-9.8,1.1-2.7-9.8-5.6-17.8h1.7c-0.1-1.1-0.2-2.1-0.2-3.2
			C566.8,81.2,565.5,76.8,562.6,72.3z"/>
		<path class="st2" d="M574.1,103.6v0.4l27.2-6.1c1.2-4.5,2.4-9.1,3.7-13.6c-4.3,1-5.6,2.2-13.2,2.1l-0.5,0.3
			C589.6,96.4,582.1,100.2,574.1,103.6z"/>
		<path class="st3" d="M591.8,86.4c5.4,1.2,17-3.3,22.2-7.8c-0.4-2.6-0.8-5.2-1.2-7.8C607.8,77.1,596.8,78,591.8,86.4z"/>
		<path class="st4" d="M613.9,78.5l-9,5.8c-1.2,4.5-2.5,9-3.7,13.6C607.3,93.7,612.9,87.7,613.9,78.5z"/>
		<path class="st5" d="M562.6,72.3c2.1,2.1,2.9,8.1,7.4,10.3c3-4,0.1-11.3-4.8-14.7L562.6,72.3z"/>
		<path class="st6" d="M569.6,72.4c3.6,5.2,0.2,5.8,0.6,13.5h-1.7c0.2,1,0.5,2.2,0.7,3.3c5.1-3.5,14.3-1.5,22.1-2.5
			c5.2-7.5,13.4-9.1,20.6-14.8C599.9,79.9,583.4,78.4,569.6,72.4z"/>
		<path class="st5" d="M591.4,86.7c-5.7,1.2-15.6-1.6-22.1,2.5C563.4,115.8,588.8,99.6,591.4,86.7z"/>
		<path class="st5" d="M609.5,101.3l4.1,1.6c6-1.1,11.5-5.1,16-11.8l-0.8-1.5l-8.2-1.6C619.5,94,611,92.8,609.5,101.3z"/>
		<path class="st6" d="M609.5,101.3c1.1-8.3,6.9-4.7,11.1-13.4c-1.7-2.7-5-1.8-0.2-6.4c-0.8-1.2-2-1.4-5.5-2.1
			C612.5,84.1,600.1,94.6,609.5,101.3z"/>
		<path class="st7" d="M620.4,81.5l-0.4,0.7c2.8,2.4,8.2,4,12,8.2c-0.7-0.2-1.2-0.3-3.2-1c0.3,0.8,3.3,5.6,4.1,6.9
			c2.2-3.7,3.7-11-2.5-14.4C627.7,82.5,625,81.9,620.4,81.5z"/>
		<path class="st8" d="M632.9,96.4l-3.3-5.4c-1,1.5-4.5,6.1-7.2,7.7l6,4.4C632.7,102.8,633.1,99.8,632.9,96.4z"/>
		<path class="st5" d="M609,86.9c1.5-3.5,6.7-3.6,6.2-11.1c-3.3,1.2-6.7,2.7-9.8,7.3c0.2,1.2-0.2,1.9,0.5,5.3
			c0.5-0.2,0.7-0.6,2.8-2.7L609,86.9z"/>
		<path class="st3" d="M615.2,75.8c-0.1,1.2-0.2,2.4-0.3,3.6c1,0.8,2.9-0.6,5.5,2.1c3.1,0,4.5,1.2,10,0.5L615.2,75.8z"/>
		<path class="st2" d="M628.3,103.1l-6-4.4c-1.6,3.4-4.3,2.4-8.7,4.1C618.5,103.8,623.4,104.8,628.3,103.1z"/>
		<path class="st9" d="M609,86.9l-0.2-1.2c-0.6,0.2-0.4,0.9-2.8,2.7c-0.4-1.6-0.4-2.3-0.5-5.3c0.1,3.9,0.2,7.7,0.3,11.6
			C606.7,93.1,608.1,91.9,609,86.9z"/>
		<path class="st2" d="M628.8,89.5c0.5,0.2,1.5,0.5,3.2,1c-2.3-3-7.3-4.9-12-8.2c-2.8,2.5-3,2.4,0.6,5.7L628.8,89.5z"/>
		<path class="st0" d="M694.2,78.5c1.3-9.5-21.1-3.3-28.2-1.7C669.8,82.9,687.9,84.9,694.2,78.5z"/>
		<path class="st1" d="M664.5,79.5c-7.5,3.4-3.8,20.2,6.8,18.8V98c-5.1,0-2-3.5-3.3-10.6h1l-0.1-1.9
			C667.1,84.7,666.9,83.4,664.5,79.5z"/>
		<path class="st2" d="M671.3,98v0.2l16.1-3.6l2.2-8.1c-1.5,0.3-3.3,1.3-7.8,1.2l-0.3,0.2C680.5,93.8,676.1,96,671.3,98z"/>
		<path class="st3" d="M681.8,87.8c3.1,0.7,9.8-1.8,13.2-4.7c-0.2-1.5-0.5-3.1-0.7-4.6C691.5,82.1,685.2,82.5,681.8,87.8z"/>
		<path class="st4" d="M695,83.2l-5.3,3.4c-0.7,2.7-1.5,5.4-2.2,8.1C690.6,92.2,694.3,89.4,695,83.2z"/>
		<path class="st5" d="M664.5,79.5c1.2,1,0.6,3.1,4.4,6.1c1.5-2.1,0.4-6.5-2.9-8.7L664.5,79.5z"/>
		<path class="st6" d="M668.6,79.5c1.9,2.3,0.2,3.6,0.4,8h-1c0.1,0.6,0.3,1.3,0.4,2c3-2,7.6-1,13.2-1.5c2.9-4.2,7.5-5.1,12.2-8.7
			C686.7,83.6,677.9,83.5,668.6,79.5z"/>
		<path class="st5" d="M681.6,88c-2.8,0.8-8.8-1.1-13.2,1.5C664.8,102.8,678.9,97.9,681.6,88z"/>
		<path class="st10" d="M693.7,83.4c-0.5,1-2.2,0.8-3.5,3.7c2.7,0,8.2,3.8,12.7,2.6c0.2-0.7,0.8-2.7,2.4-3.9l-4.7,0.4
			c0.9-0.7,1.8-0.8,5-3.5l0.1,1.1l1.5-2.8l-0.9-2.8c-2.5,0.7-3.4,4.9-8,3.7l0.9,0.8C697.8,83.3,697,83.1,693.7,83.4z"/>
		<path class="st5" d="M693.7,83.4c1-0.3,2.2,0.2,5.4-0.6l-0.9-0.8c3.5,1.6,4.9-2.1,8-3.7c-0.4-0.9-0.7-1.8-1.1-2.8
			C702.2,73.4,693.9,77.3,693.7,83.4z"/>
		<path class="st2" d="M702.9,89.7c-3,1.3-7.3-1.6-12.7-2.6c-0.5,4.7,7.4,8,12.9,8.6C703,93.7,703,91.7,702.9,89.7z"/>
		<path class="st8" d="M702.9,89.7c0.1,2,0.1,4,0.2,6l5.6-1.2l-1.9-3.2l0,0c-0.1,0.1-0.2,0.2-0.3,0.3c-1-0.4,0.4-0.6-3.5-2.3
			L702.9,89.7z"/>
		<path class="st7" d="M706.8,91.3l1.9,3.2c1.7-1.2,3.7-2.1,3.2-4.7c-1.8-0.6-1.2-2.3-1.6-3.5l0,0C709.5,88,708.9,88.6,706.8,91.3z"
			/>
		<path class="st8" d="M705.1,75.5c0.4,1.4,0-0.6,2,5.5c0,0,1.2,0.1,2.3-0.6C709.4,78.7,708.1,76.7,705.1,75.5z"/>
		<path class="st7" d="M709.4,80.5L708,81l2.2,5.3l0,0l1.3-1.3C710.7,84.2,713,84.4,709.4,80.5z"/>
		<path class="st4" d="M711.5,85.1l-1.3,1.3c0.5,1.2-0.2,2.9,1.6,3.5L711.5,85.1z"/>
		<path class="st3" d="M710.3,86.4L708,81h-0.9c-0.1,0.4-1.3,1.6-1.8,4.8l-0.7,0.6c1.9,1.2,1.5,3.3,2.2,5l0,0
			C707.4,90.2,708.2,90,710.3,86.4z"/>
		<path class="st11" d="M706.8,91.3c-0.7-1.7-0.3-3.8-2.2-5l-1.6,2.9c1.7,0.6,0.9,0.1,3.5,2.3C706.6,91.6,706.7,91.5,706.8,91.3z"/>
		<path class="st12" d="M705.3,85.8c0-0.8,0.5-0.7,0.3-3.1c-1.4,1.2-2.2,1.6-5,3.5L705.3,85.8z"/>
		<path class="st10" d="M237.4,113.3c-0.6,1.1-2.5,0.9-4,4.3c3.4,0.1,9.7,4.5,14.6,3c0.3-0.9,1.1-3.3,2.7-4.4l-5.4,0.4
			c1.1-0.9,2-1,5.8-4l0.1,1.2l1.7-3.2l-1.1-3.2c-3,0.8-4,5.9-9.2,4.2l1.1,1C242.1,113.2,241.2,113,237.4,113.3z"/>
		<path class="st5" d="M237.4,113.3c1.2-0.3,2.2,0.3,6.2-0.7l-1.1-1c4.4,1.9,5.5-2.5,9.2-4.2l-1.2-3.2
			C246.5,101.7,237.9,106.5,237.4,113.3z"/>
		<path class="st2" d="M248,120.6c-3.5,1.5-8.9-1.9-14.6-3c-0.6,5.5,8.9,9.3,14.8,9.9C248.1,125.2,248,122.9,248,120.6z"/>
		<path class="st8" d="M248,120.6c0.1,2.3,0.1,4.6,0.2,6.9l6.4-1.4l-2.2-3.6l0,0c-0.1,0.1-0.2,0.2-0.4,0.3c-1.1-0.5-0.9-1.7-4.1-2.7
			L248,120.6z"/>
		<path class="st7" d="M252.4,122.5l2.2,3.6c1.9-1.3,4.2-2.3,3.7-5.3c-2.1-0.7-1.4-2.6-1.9-4l0,0
			C255.5,118.7,254.8,119.3,252.4,122.5z"/>
		<path class="st8" d="M250.5,104.3c0.6,1.4,1.5,3.7,2.3,6.3c0,0,1.4,0.1,2.6-0.7C255.4,107.6,253.9,105.5,250.5,104.3z"/>
		<path class="st7" d="M255.4,109.9l-1.5,0.7c0.9,2.1,1.7,4.1,2.5,6.1l0,0l1.5-1.5C256.9,113.6,259.2,113.3,255.4,109.9z"/>
		<path class="st4" d="M257.9,115.3l-1.5,1.5c0.5,1.4-0.2,3.4,1.9,4C258.2,118.9,258,117.1,257.9,115.3z"/>
		<path class="st3" d="M256.4,116.7c-0.9-2-1.7-4.1-2.5-6.1h-1.1c-1.1,2.6-1.5,1.4-2.1,5.5l-0.8,0.6c2.2,1.3,1.8,3.8,2.5,5.7l0,0
			C253.2,121.1,254.1,121,256.4,116.7z"/>
		<path class="st11" d="M252.4,122.5c-0.8-1.9-0.4-4.4-2.5-5.7l-1.9,3.4c1.4,0.3,2,0.9,4.1,2.7C252.2,122.7,252.3,122.6,252.4,122.5
			z"/>
		<path class="st12" d="M250.7,116.1c0-0.3,0.5-1.2,0.3-3.6c-1.6,1.4-2.5,1.8-5.8,4L250.7,116.1z"/>
		<path class="st0" d="M88.8,74.8c-0.5-3.5-6.2-1.5-10.6-0.6C80.1,76.3,85.1,77.4,88.8,74.8z"/>
		<path class="st1" d="M77.7,75.2c-1.2-0.3-3.7,5.7,2.6,7v-0.1c-1.5-0.4-0.9-0.1-1.2-3.9h0.4v-0.7C78.4,76.7,79.1,77.4,77.7,75.2z"
			/>
		<path class="st2" d="M80.2,82.1L80.2,82.1l6-1.3l0.8-3c-0.7,0,0.2,0.4-2.9,0.4L84,78.3C83.7,80.5,82,81.4,80.2,82.1z"/>
		<path class="st3" d="M84.2,78.3c0.9,0.2,3.2-0.3,4.9-1.7l-0.3-1.7C88,76.2,86.4,75.6,84.2,78.3z"/>
		<path class="st4" d="M89.1,76.6l-2,1.3l-0.8,3C86.7,79.7,87.3,81.9,89.1,76.6z"/>
		<path class="st5" d="M77.7,75.2c0.6,0.6-0.4,0.2,1.7,2.3c0.3-0.2,0.4-1.9-1.1-3.3L77.7,75.2z"/>
		<path class="st6" d="M79.2,75.2c0.5,0.7,0.6,1.6,0.1,2.3v0.7H79c0,0.2,0.1,0.5,0.2,0.8c1.1-0.7,1.8-0.4,4.9-0.6
			c0.9-1.1,1.6-1.1,4.6-3.3C85.7,76.3,85.1,77.2,79.2,75.2z"/>
		<path class="st5" d="M84.1,78.4c-0.9,0.3-2.1-0.5-4.9,0.6C78.1,82.4,82.3,83.1,84.1,78.4z"/>
		<path class="st0" d="M443.4,111c4.2-21.8-51.2-5.1-60-3.5C393.5,122.1,435.5,122.8,443.4,111z"/>
		<path class="st1" d="M380.1,113c-16.9,7.4-6.7,44.5,14.6,40c0-0.2,0-0.4,0-0.5c-12.3,2.1-3.6-14.2-7.1-22.4h2.2
			c-0.1-1.3-0.2-2.7-0.3-4C385.3,124.2,383.6,118,380.1,113z"/>
		<path class="st2" d="M394.7,152.4v0.5l34.3-7.7c1.6-5.7,3.1-11.4,4.6-17.1c-4.1,1.2-9.9,3-16.6,2.6l-0.6,0.4
			C414.3,143.4,404.8,148.2,394.7,152.4z"/>
		<path class="st3" d="M417,130.7c7.8,1.4,21-4.2,28-9.9c-0.5-3.3-1-6.6-1.6-9.8C437.1,118.9,423.1,120.4,417,130.7z"/>
		<path class="st4" d="M445,120.8l-11.3,7.3c-1.6,5.7-3.1,11.4-4.6,17.1C437.1,139.8,443.6,132.2,445,120.8z"/>
		<path class="st5" d="M380.1,113c2.6,2.9,4.1,10.5,9.4,13c4-5.7,0-14.3-6.1-18.6L380.1,113z"/>
		<path class="st6" d="M389,113c4.6,5.2,0,10,0.8,17h-2.2l0.9,4.2c6.5-4.4,19-2,27.9-3.1c12.1-14.8,16.5-10.1,26-18.7
			C426.8,122.7,406.6,120.6,389,113z"/>
		<path class="st5" d="M416.5,131.1c-8,1.5-19.8-2-27.9,3.1C381.2,169.5,414.3,145.4,416.5,131.1z"/>
		<path class="st5" d="M456.8,150.6l13.4,5.1c8-4.3,24.1-1.8,28.3-13.3c9.8-6.6,16.5-15,23.6-25.1l-2.6-5l-26.6-5
			C478.5,140.5,465.3,114.2,456.8,150.6z"/>
		<path class="st6" d="M456.8,150.6c13.4-42,24.5-9.9,36-43.4c-11.7-13.7-15-3.4-0.7-20.8c-2.4-5.3-10.9-4.8-17.7-6.8
			c-2.4,4-5.5,12.3-9,14.9c-15.5,4.2-9.2,23.2-21.1,34.4C444.3,138.5,448.7,145.7,456.8,150.6z"/>
		<path class="st7" d="M492.1,86.3l-1.2,2.4c11.3,9.2,28.8,14.6,38.8,26.6c-2.1-0.6-3.3-0.9-10.2-3.1c1.5,3.6,11.1,19,13.2,22.5
			C557.2,79.2,508,89.9,492.1,86.3z"/>
		<path class="st8" d="M532.7,134.7l-10.6-17.4c-4.6,7-15.5,20.2-23.6,25.1l19.4,14.3C532.1,155.6,533.3,145.8,532.7,134.7z"/>
		<path class="st5" d="M455.1,103.9c8.1-13.1,21.9-14.8,20.2-36.2c-12.5,3.6-23.8,11.7-31.9,23.6c0.5,4.4,0,10.9,1.8,17.4
			c2.9-1.1,4.4-4.5,9.1-8.7L455.1,103.9z"/>
		<path class="st3" d="M475.3,67.7c-0.3,4-0.6,7.9-0.9,11.8c4.4,2.3,14.2,0,17.7,6.8c9.9,0.4,21.3,4,32.5,1.6L475.3,67.7z"/>
		<path class="st2" d="M517.9,156.6l-19.4-14.3c-4.6,11.8-17.6,8.2-28.3,13.3C486,158.8,501.9,162.2,517.9,156.6z"/>
		<path class="st9" d="M455.1,103.9l-0.8-3.9c-2.9,1.6-3.5,5.3-9.1,8.7c-1.4-4.4-1.3-10.5-1.8-17.4l0.8,37.6
			C449.6,122.4,453.6,114,455.1,103.9z"/>
		<path class="st2" d="M519.5,112.2c1.7,0.5,3.2,1.2,10.2,3.1c-9-10.9-26.7-17.3-38.8-26.6c-14.7,13.5-7,6.8,1.9,18.5L519.5,112.2z"
			/>
		<path class="st10" d="M538.9,117.8c-3,3.8-11.4,6.6-12.8,13.6c19.3,3.8,40.4,15.2,46.6,9.4c0.2-2.9,5.8-12.9,8.7-14.2l-17.2,1.4
			c4.7-3.4,12.3-7.2,18.3-12.7l0.2,3.9l5.3-10.1c-1.1-3.4-2.3-6.7-3.4-10.1c-10.3,2.6-13.6,20.7-29.3,13.4l3.3,3.1
			C553.7,117.6,546.5,116.9,538.9,117.8z"/>
		<path class="st5" d="M538.9,117.8c4.9-0.9,12.9,0.4,19.8-2.3l-3.3-3.1c16.4,7,17.3-9.6,29.3-13.4c-1.3-3.4-2.7-6.7-4-10.1
			C565.5,79.1,539.6,99,538.9,117.8z"/>
		<path class="st2" d="M572.7,140.8c-12.4,4.9-32.7-7.7-46.6-9.4c-0.9,21.7,30.5,28.7,47.2,31.5
			C573.1,155.5,572.9,148.2,572.7,140.8z"/>
		<path class="st8" d="M572.7,140.8c0.2,7.4,0.4,14.7,0.6,22.1l20.5-4.5l-7-11.6l0,0c-0.4,0.4-0.7,0.7-1.2,1.1
			c-3.6-2.2-6.5-7.5-12.9-8.5L572.7,140.8z"/>
		<path class="st7" d="M586.8,146.8l7,11.6c6.1-4.2,13.4-7.5,11.8-17c-6.7-2.1-4.3-8.4-6-12.8l0,0
			C597.5,133.7,591.4,140.7,586.8,146.8z"/>
		<path class="st8" d="M580.6,88.9c2.3,5.6,5,12.6,7.4,20.2c2.2,0.5,5.9-0.9,8.3-2.1C595.1,93.8,591.5,93.8,580.6,88.9z"/>
		<path class="st7" d="M596.3,106.9l-4.8,2.1l8.1,19.6l0,0l4.7-4.7C603.2,118.8,603.3,110.7,596.3,106.9z"/>
		<path class="st4" d="M604.3,123.9l-4.7,4.7c1.7,4.4-0.8,10.8,6,12.8C605.1,135.6,604.7,129.7,604.3,123.9z"/>
		<path class="st3" d="M599.6,128.6l-8.1-19.6H588c-2.4,4-6.6,12.5-6.7,17.5l-2.7,2.1c6.9,4.2,5.6,12,8,18.2l0,0
			C590.4,141.5,595.9,136.4,599.6,128.6z"/>
		<path class="st11" d="M586.8,146.9c-2.5-6.2-1.2-14-8-18.2l-6,10.8c4.1,0.4,8.4,4.7,12.9,8.5C586.1,147.6,586.4,147.2,586.8,146.9
			z"/>
		<path class="st12" d="M581.4,126.6c0.5-2.6,1.7-8.3,1.1-11.3c-4.2,4.1-12.6,8.8-18.3,12.7L581.4,126.6z"/>
		<path class="st0" d="M634.7,142.1c1.5-10.2-23.1-3.5-30.4-1.8C608.9,147,628.7,148.7,634.7,142.1z"/>
		<path class="st1" d="M602.7,143.1c-8.1,3.6-4.1,21.8,7.4,20.3v-0.3c-6,0-1.9-3.7-3.6-11.4h1.1l-0.2-2
			C605.3,148.7,604.8,146.4,602.7,143.1z"/>
		<path class="st2" d="M610.1,163.1v0.3l17.4-3.9l2.3-8.7c-1.5,0.2-3.2,1.4-8.4,1.3l-0.3,0.2C620,158.5,615.2,160.9,610.1,163.1z"/>
		<path class="st3" d="M621.4,152.1c3.3,0.8,10.5-1.9,14.1-5c-0.3-1.7-0.5-3.3-0.8-5C631.8,145.9,624.8,146.6,621.4,152.1z"/>
		<path class="st4" d="M635.5,147.1l-5.7,3.7l-2.3,8.7C630.8,156.9,634.7,153.7,635.5,147.1z"/>
		<path class="st5" d="M602.7,143.1c1.2,1.1,1.8,5,4.8,6.6c1.5-2.2,0.5-7-3.1-9.4L602.7,143.1z"/>
		<path class="st6" d="M607.2,143.1c2,1.9,0.2,4.8,0.4,8.6h-1.1c0.1,0.6,0.3,1.4,0.5,2.1c3.3-2.1,8.1-1,14.1-1.6
			c3.4-4.8,8.1-5.4,13.2-9.4C626.6,147.7,616.5,147.2,607.2,143.1z"/>
		<path class="st5" d="M621.1,152.3c-3.1,0.8-9.5-1.2-14.1,1.6C603.1,168.5,618.5,162.6,621.1,152.3z"/>
		<path class="st0" d="M331,106.8c2.7-15.5-35.7-4.1-43.3-2.6C293.6,113.9,324,115.9,331,106.8z"/>
		<path class="st1" d="M285.3,108.2c-12.1,5.2-4.8,31.9,10.5,28.9v-0.4c-8.7,1.3-2.7-9.4-5.1-16.2h1.6l-0.2-2.9
			C289.1,116.2,288.4,113,285.3,108.2z"/>
		<path class="st2" d="M295.9,136.8v0.4l24.8-5.6c1.1-4.1,2.2-8.3,3.4-12.4c-3.9,0.9-5.1,2-12,1.9l-0.4,0.3
			C310,130.2,303.1,133.7,295.9,136.8z"/>
		<path class="st3" d="M312,121.1c4.9,1.1,15.4-3,20.2-7.1c-0.4-2.4-0.8-4.7-1.1-7.1C326.6,112.6,316.5,113.4,312,121.1z"/>
		<path class="st4" d="M332.1,113.9l-8.1,5.2c-1.1,4.1-2.2,8.3-3.4,12.4C325.9,127.8,331.2,122.7,332.1,113.9z"/>
		<path class="st5" d="M285.3,108.2c1.7,1.6,2.5,7.1,6.7,9.4c2.6-3.6,0.3-10.2-4.4-13.4L285.3,108.2z"/>
		<path class="st6" d="M291.7,108.3c3,2.8,0.2,7.6,0.6,12.3h-1.6l0.6,3.1c4.6-3.2,13.1-1.4,20.2-2.2c4.7-6.9,12.2-8.3,18.8-13.4
			C319,115,305.2,114.2,291.7,108.3z"/>
		<path class="st5" d="M311.6,121.4c-5.2,1.1-14.3-1.5-20.2,2.2C286.1,147.5,309,133.5,311.6,121.4z"/>
		<path class="st0" d="M175.4,49.1c-0.6-3.5-6.2-1.5-10.6-0.6C166.7,50.5,171.8,51.6,175.4,49.1z"/>
		<path class="st1" d="M164.3,49.4c-1.2-0.3-3.7,5.7,2.6,7v-0.1c-1.5-0.4-0.9-0.1-1.2-4h0.4v-0.7C165,50.9,165.7,51.6,164.3,49.4z"
			/>
		<path class="st2" d="M166.9,56.4L166.9,56.4l6-1.3l0.8-3c-0.7,0,0.2,0.3-2.9,0.5l-0.1,0.1C170.3,54.8,168.6,55.6,166.9,56.4z"/>
		<path class="st3" d="M170.8,52.5c0.9,0.2,3.2-0.3,4.9-1.7l-0.3-1.7C174.6,50.4,173,49.8,170.8,52.5z"/>
		<path class="st4" d="M175.7,50.8l-2,1.3c-0.3,1-0.5,2-0.8,3C173.3,54,173.9,56.1,175.7,50.8z"/>
		<path class="st5" d="M164.3,49.4c0.6,0.6-0.4,0.2,1.6,2.3c0.3-0.2,0.4-1.9-1.1-3.3L164.3,49.4z"/>
		<path class="st6" d="M165.9,49.4c0.5,0.7,0.6,1.6,0.1,2.3v0.7h-0.4c0,0.2,0.1,0.5,0.2,0.7c1.1-0.7,1.8-0.4,4.9-0.5
			c0.8-1.1,1.6-1.1,4.6-3.3C172.3,50.5,171.7,51.4,165.9,49.4z"/>
		<path class="st5" d="M170.7,52.6c-0.9,0.3-2.1-0.5-4.9,0.5C164.7,56.8,169,57.3,170.7,52.6z"/>
		<path class="st10" d="M330.2,114.3c-0.8,1.5-3.2,1-5.4,5.7c4.8,0.2,13.2,6.1,19.5,3.9c0.3-1.2,1.2-3.8,3.6-5.9l-7.2,0.6
			c1.7-1.3,4.4-2.4,7.7-5.3l0.1,1.6l2.2-4.2l-1.4-4.2c-4,0.9-5.5,8.1-12.3,5.6l1.4,1.3C336.3,114.2,334.2,113.9,330.2,114.3z"/>
		<path class="st5" d="M330.2,114.3c1.6-0.3,5.1,0.2,8.3-1l-1.4-1.3c6.4,2.6,7.1-3.5,12.3-5.6l-1.7-4.2
			C342.1,98.5,330.7,105.7,330.2,114.3z"/>
		<path class="st2" d="M344.4,124c-4.8,2-12.3-2.7-19.5-3.9c-0.5,8.2,12,12,19.8,13.2C344.5,130.1,344.4,127,344.4,124z"/>
		<path class="st8" d="M344.4,124c0.1,3.1,0.2,6.2,0.3,9.2l8.6-1.9l-2.9-4.9l0,0c-0.1,0.2-0.3,0.3-0.5,0.4c-1.4-0.6-1-2.1-5.4-3.5
			L344.4,124z"/>
		<path class="st7" d="M350.3,126.5l2.9,4.9c2.5-1.8,5.6-3.1,5-7.1c-2.8-0.9-1.8-3.5-2.5-5.4l0,0
			C354.6,121.1,352.8,123.2,350.3,126.5z"/>
		<path class="st8" d="M347.7,102.2c0.9,2.1,2.2,5.7,3.1,8.5c0.9,0,1.4,0.2,3.5-0.9C354.1,106.2,352.3,103.9,347.7,102.2z"/>
		<path class="st7" d="M354.3,109.8l-2,0.9c1.1,2.7,2.2,5.5,3.4,8.2l0,0l2-2C357,115.6,358.2,112.6,354.3,109.8z"/>
		<path class="st4" d="M357.6,116.9l-2,2c0.7,1.9-0.3,4.5,2.5,5.4C358,121.8,357.8,119.3,357.6,116.9z"/>
		<path class="st3" d="M355.6,118.9c-1.1-2.7-2.3-5.5-3.4-8.2h-1.5c-1,1.9-2.6,4.5-2.8,7.3l-1.1,0.9c2.9,1.8,2.3,5,3.4,7.6l0,0
			C352,123.9,353,123.8,355.6,118.9z"/>
		<path class="st11" d="M350.3,126.5c-1-2.6-0.5-5.9-3.4-7.6c-0.8,1.5-1.7,3-2.5,4.5c1.9,0.4,2.7,1.2,5.4,3.5
			C349.9,126.8,350.1,126.6,350.3,126.5z"/>
		<path class="st12" d="M348,118c0.1-1.2,0.7-2.6,0.5-4.8c-1.9,1.7-4.3,3.1-7.7,5.3L348,118z"/>
		<path class="st10" d="M214.5,118.3c-0.5,1-2.2,0.8-3.4,3.7c2.6,0,8.1,3.8,12.5,2.5c0.2-0.7,0.8-2.6,2.3-3.8l-4.6,0.4
			c0.9-0.7,1.7-0.8,4.9-3.4l0.1,1l1.4-2.7l-0.9-2.7c-2.5,0.7-3.4,4.8-7.9,3.6l0.9,0.8C218.5,118.2,217.8,118,214.5,118.3z"/>
		<path class="st5" d="M214.5,118.3c1-0.3,2.1,0.2,5.3-0.6l-0.9-0.8c3.4,1.6,4.8-2,7.9-3.6c-0.4-0.9-0.7-1.8-1.1-2.7
			C222.9,108.4,214.6,112.2,214.5,118.3z"/>
		<path class="st2" d="M223.5,124.5c-3,1.3-7.2-1.5-12.5-2.5c-0.5,4.7,7.3,7.9,12.7,8.5C223.6,128.4,223.6,126.4,223.5,124.5z"/>
		<path class="st8" d="M223.5,124.5c0.1,2,0.1,4,0.2,5.9l5.5-1.2l-1.9-3.1l0,0c-0.1,0.1-0.2,0.2-0.3,0.3c-1-0.4,0.4-0.6-3.5-2.3
			L223.5,124.5z"/>
		<path class="st7" d="M227.3,126.1l1.9,3.1c1.6-1.1,3.6-2,3.2-4.6c-1.8-0.6-1.2-2.2-1.6-3.4l0,0C230,122.8,229.4,123.4,227.3,126.1
			z"/>
		<path class="st8" d="M225.7,110.5c0.4,1.3,0-0.6,2,5.4c0,0,1.2,0.1,2.2-0.6C229.9,113.7,228.6,111.7,225.7,110.5z"/>
		<path class="st7" d="M229.9,115.4l-1.3,0.6c0.7,1.8,1.4,3.5,2.2,5.3l0,0l1.2-1.3C231.2,119.1,233.5,119.3,229.9,115.4z"/>
		<path class="st4" d="M232,119.9l-1.2,1.3c0.4,1.2-0.2,2.9,1.6,3.4L232,119.9z"/>
		<path class="st3" d="M230.8,121.2c-0.7-1.8-1.4-3.5-2.2-5.3h-0.9c-0.8,1.7-1.4,1.9-1.8,4.7l-0.7,0.6c1.9,1.1,1.5,3.2,2.2,4.9l0,0
			C228,124.9,228.7,124.9,230.8,121.2z"/>
		<path class="st11" d="M227.3,126.1c-0.7-1.7-0.3-3.8-2.2-4.9l-1.6,2.9c1.6,0.6,0.9,0.1,3.5,2.3
			C227.1,126.3,227.2,126.2,227.3,126.1z"/>
		<path class="st12" d="M225.9,120.7c0-0.7,0.5-0.8,0.3-3c-1.4,1.2-2.1,1.6-4.9,3.4L225.9,120.7z"/>
		<path class="st5" d="M129.8,95.9l2.2,0.8c1.9-0.4,6.4-2.6,8.4-6.2l-0.4-0.8l-4.3-0.8C135.1,92.1,132.1,90,129.8,95.9z"/>
		<path class="st6" d="M129.8,95.9c0.1-3.2,2.9-2.4,5.9-7.1c-0.9-1.3-2.3-1-0.1-3.4c-1-0.9-0.1-0.4-2.9-1.1
			C132.5,86.1,124.4,91.1,129.8,95.9z"/>
		<path class="st7" d="M135.5,85.4l-0.2,0.4c1.2,1.1,3.2,1.4,6.3,4.3c-0.6-0.2-0.4-0.1-1.7-0.5c0.4,0.7,1.1,1.9,2.1,3.6
			c0.8-1.7,2.3-5.1-1.3-7.6C139.2,85.9,138.5,85.7,135.5,85.4z"/>
		<path class="st8" d="M142.1,93.3l-1.7-2.8c-0.1,0.3-2,3-3.8,4.1l3.1,2.3C142,96.7,142.2,95.1,142.1,93.3z"/>
		<path class="st5" d="M129.5,88.3c0.6-1.6,3.5-1.8,3.3-5.9c-1.4,0.6-3,0.9-5.2,3.8c0.1,0.7-0.2,0,0.3,2.8c0.4-0.1,0.6-0.6,1.5-1.4
			L129.5,88.3z"/>
		<path class="st3" d="M132.8,82.4l-0.1,1.9c0.7,0.5,0.3-0.7,2.9,1.1c1.1-0.1,2,0.6,5.3,0.2L132.8,82.4z"/>
		<path class="st2" d="M139.7,96.8l-3.1-2.3c-0.9,1.5-0.7,1-4.6,2.2C134.5,97.2,137.1,97.8,139.7,96.8z"/>
		<path class="st9" d="M129.5,88.3l-0.1-0.6c-0.4,0.2-0.4,0.7-1.5,1.4c-0.2-1.2-0.1-0.4-0.3-2.8c0,2,0.1,4.1,0.1,6.1
			C128,91.3,128.2,93.1,129.5,88.3z"/>
		<path class="st2" d="M140,89.6c0,0,0.2,0.1,1.7,0.5c-1-1.4-2.7-1.8-6.3-4.3c-1.2,1.1-1.5,1.1,0.3,3L140,89.6z"/>
		<path class="st5" d="M243.1,133l1.8,0.7c1.9-0.7,4.4-1.4,7.1-5.3l-0.4-0.7L248,127C246.9,130.9,245.8,126.7,243.1,133z"/>
		<path class="st6" d="M243.1,133c-0.5-1.5,3.5-3.2,5-6c-0.8-1.1-1.9-0.9-0.1-2.9c-0.8-0.8-0.1-0.4-2.4-0.9
			C246,124.2,238.4,128.8,243.1,133z"/>
		<path class="st7" d="M247.9,124.2l-0.2,0.3c1,1,2.7,1.2,5.3,3.7c-0.1-0.1,0,0-1.4-0.4c0.3,0.6,0.9,1.6,1.8,3.1
			c0.3-0.7,2.2-4.5-1.1-6.4C251,124.6,250.5,124.4,247.9,124.2z"/>
		<path class="st8" d="M253.5,130.8l-1.5-2.4c-0.2,0.2-1.8,2.6-3.2,3.4l2.7,2C253.4,133.7,253.6,132.4,253.5,130.8z"/>
		<path class="st5" d="M242.8,126.6c0.1-1,3.1-1.4,2.8-5c-0.9,0.9-0.2-1.3-4.4,3.2c0,0.4-0.1,0.4,0.2,2.4c0.3-0.1,0.5-0.5,1.2-1.2
			L242.8,126.6z"/>
		<path class="st3" d="M245.6,121.6c0,0.5-0.1,1.1-0.1,1.6c0.6,0.4,0.3-0.6,2.4,0.9c1-0.1,1.7,0.5,4.5,0.2L245.6,121.6z"/>
		<path class="st2" d="M251.4,133.8l-2.7-2c-0.8,1.3-0.6,0.8-3.9,1.8C247.1,134.1,249.2,134.6,251.4,133.8z"/>
		<path class="st9" d="M242.8,126.6l-0.1-0.5c-0.4,0.2-0.3,0.5-1.2,1.2c-0.2-1-0.1-0.4-0.2-2.4l0.1,5.2
			C241.6,129.2,241.8,130.7,242.8,126.6z"/>
		<path class="st2" d="M251.7,127.7c0.1,0,0,0,1.4,0.4c-0.9-1.2-2.2-1.6-5.3-3.7c-1.1,0.9-1.3,0.9,0.3,2.5L251.7,127.7z"/>
		<path class="st5" d="M171.2,23.4l1.4,0.5c0.6-0.2,3.9-1.5,5.2-3.8l-0.3-0.5l-2.7-0.5C174.6,20.9,173.1,19.1,171.2,23.4z"/>
		<path class="st6" d="M171.2,23.4c0.1-0.9,0.2-0.6,3.6-4.4c-0.6-0.8-1.4-0.6-0.1-2.1c-0.6-0.6-0.1-0.3-1.8-0.7
			C174.3,15.3,167.7,21.2,171.2,23.4z"/>
		<path class="st7" d="M174.8,16.9l-0.1,0.2c0.7,0.7,2,0.9,3.9,2.7c-0.1,0,0,0-1-0.3c0.3,0.6,0.4,0.7,1.3,2.3c0-0.4,1.9-2.8-0.8-4.7
			C176.6,17.2,177.6,17.2,174.8,16.9z"/>
		<path class="st8" d="M178.8,21.8l-1.1-1.8c-0.3,0.4-0.7,1.3-2.4,2.5l2,1.4C178.8,23.9,178.9,22.9,178.8,21.8z"/>
		<path class="st5" d="M171.1,18.7c0-0.6,1.9-0.7,2-3.6c-0.7,0.7-0.2-0.9-3.2,2.4c0,0.3-0.1,0.3,0.2,1.8c0.2-0.1,0.4-0.3,0.9-0.9
			L171.1,18.7z"/>
		<path class="st3" d="M173.1,15.1l-0.1,1.2c0.3,0.3,0.5-0.3,1.8,0.7c0.9,0-0.1,0.3,3.3,0.2L173.1,15.1z"/>
		<path class="st2" d="M177.4,24l-2-1.4c-0.6,0.9-0.4,0.6-2.8,1.4C174.1,24.4,175.8,24.4,177.4,24z"/>
		<path class="st9" d="M171.1,18.7l-0.1-0.4c-0.3,0.1-0.2,0.4-0.9,0.9c-0.1-0.7-0.1-0.3-0.2-1.8l0.1,3.8
			C170.2,20.7,170.6,21,171.1,18.7z"/>
		<path class="st2" d="M177.5,19.5c0.1,0,0,0,1,0.3c-0.7-0.9-1.6-1.1-3.9-2.7c-0.8,0.7-0.9,0.7,0.2,1.9L177.5,19.5z"/>
		<path class="st0" d="M161.1,90.3c-0.9-5.9-11.1-2.5-17.9-1.1C146.3,93,155.5,94.3,161.1,90.3z"/>
		<path class="st1" d="M142.2,90.9c-4.4,1.7-3,12.5,4.3,11.9v-0.2c-2.6,0.3-1.4-2.8-2.1-6.6h0.6l-0.1-1.2
			C143.9,94.2,143.7,93.4,142.2,90.9z"/>
		<path class="st2" d="M146.5,102.6v0.2l10.2-2.3l1.4-5.1c-1.2,0,0.4,0.5-5,0.8l-0.2,0.1C152.4,99.9,149.5,101.4,146.5,102.6z"/>
		<path class="st3" d="M153.2,96.2c0.6-0.4,1.6,1.5,8.3-2.9l-0.5-2.9C159.4,92.5,155.6,92.6,153.2,96.2z"/>
		<path class="st4" d="M161.5,93.2c-1.1,0.7-2.2,1.4-3.4,2.2l-1.4,5.1C158,99.2,160.6,98.6,161.5,93.2z"/>
		<path class="st5" d="M142.2,90.9c0.7,0.6,0.5,2.1,2.8,3.9c0.7-1,0.5-3.9-1.8-5.5C142.8,89.8,142.5,90.3,142.2,90.9z"/>
		<path class="st6" d="M144.8,90.9c1,0.9,0.2,2.4,0.2,5.1h-0.6c0.1,0.4,0.2,0.8,0.3,1.3c2-1.3,4.3-0.6,8.3-0.9
			c1.9-2.6,4.2-2.8,7.8-5.6C156.5,93,151.1,93.8,144.8,90.9z"/>
		<path class="st5" d="M153,96.3c-1.5,0.5-5.4-0.7-8.3,0.9C142.3,105.1,150.8,103,153,96.3z"/>
		<path class="st10" d="M15,51.2c-0.5,0.8-0.4-0.4-2.3,2.4c1.5-0.1,5.1,2.4,8.3,1.7c0.3-0.7-0.3-0.4,1.5-2.5l-3.1,0.2
			c0.2-0.2,2.2-1.3,3.3-2.3v0.7l1-1.8l-0.6-1.8c-1.7,0.6-2,2.5-5.2,2.4l0.6,0.6C17.8,51.1,16.8,51.1,15,51.2z"/>
		<path class="st5" d="M15,51.2c0.2-0.1,2.3,0,3.5-0.4l-0.6-0.6c1.9,1,3.1-1.1,5.2-2.4C22.8,43.9,16.4,45.8,15,51.2z"/>
		<path class="st2" d="M21,55.3c-2,0.8-4.3-0.9-8.3-1.7c0,3.1,3.8,4.8,8.4,5.6L21,55.3z"/>
		<path class="st8" d="M21,55.3l0.1,3.9l3.6-0.8l-1.2-2.1l0,0c-0.1,0.1-0.1,0.1-0.2,0.2c-0.7-0.2,0.2-0.4-2.3-1.5L21,55.3z"/>
		<path class="st7" d="M23.5,56.4l1.2,2.1c1.1-0.8,2.4-1.3,2.1-3c-1.2-0.4-0.8-1.5-1.1-2.3l0,0C24.9,54.7,25.5,53.8,23.5,56.4z"/>
		<path class="st8" d="M22.4,46.1c0.4,1.2,0.4,0.7,1.3,3.6c0.2-0.1,0.2,0.3,1.5-0.4C25.1,48.3,24.7,47.3,22.4,46.1z"/>
		<path class="st7" d="M25.2,49.3l-0.9,0.4c0.5,1.2,1,2.3,1.4,3.5l0,0l0.8-0.8C26.1,51.8,27.5,51.9,25.2,49.3z"/>
		<path class="st4" d="M26.6,52.3l-0.8,0.8c0.3,0.8-0.1,1.9,1.1,2.3L26.6,52.3z"/>
		<path class="st3" d="M25.8,53.2c-0.5-1.2-1-2.3-1.4-3.5h-0.6c-0.2,0.4-1,1.4-1.2,3.1L22,53.2c1.2,0.8,1,2.1,1.4,3.2l0,0
			C24,55.5,23.6,56.6,25.8,53.2z"/>
		<path class="st11" d="M23.5,56.4c-0.4-1.1-0.2-2.5-1.4-3.2c-0.4,0.6-0.7,1.3-1.1,1.9c1.1,0.4,0.6,0.1,2.3,1.5
			C23.4,56.5,23.4,56.5,23.5,56.4z"/>
		<path class="st12" d="M22.5,52.8c0-0.5,0.3-0.5,0.2-2c-0.7,0.6-1.5,1.1-3.3,2.3L22.5,52.8z"/>
		<path class="st0" d="M58.8,56.5c-0.7-4.6-8.1-1.9-13.9-0.8C47,58.4,53.8,59.8,58.8,56.5z"/>
		<path class="st1" d="M44.2,57c-3.2,1.3-2.6,9.3,3.4,9.2v-0.1c-2-0.5-1.2-0.1-1.6-5.2h0.5L46.3,60C45,59,46,59.9,44.2,57z"/>
		<path class="st2" d="M47.5,66.1v0.1l7.9-1.8l1.1-4c-0.9,0,0.3,0.4-3.8,0.6l-0.1,0.1C52,64,49.8,65.2,47.5,66.1z"/>
		<path class="st3" d="M52.7,61.1c1.2,0.2,4.2-0.4,6.5-2.3l-0.4-2.3C57.4,58.4,54.8,58.1,52.7,61.1z"/>
		<path class="st4" d="M59.1,58.8l-2.6,1.7c-0.3,1.3-0.7,2.6-1.1,4C56.5,63.5,58.5,62.7,59.1,58.8z"/>
		<path class="st5" d="M44.2,57c0.8,0.8-0.5,0.3,2.2,3c0.5-0.9,0.7-2.6-1.4-4.3L44.2,57z"/>
		<path class="st6" d="M46.2,57c0.7,0.9,0.7,2.1,0.1,3l0.1,0.9h-0.5c0.1,0.3,0.1,0.6,0.2,1c1.4-0.9,2.4-0.5,6.5-0.7
			c1.3-1.8,3.1-2.1,6-4.3C54.6,58.4,53.8,59.7,46.2,57z"/>
		<path class="st5" d="M52.5,61.2c-1.2,0.4-2.5-0.7-6.5,0.7C44.5,66.8,50.7,67.1,52.5,61.2z"/>
		<path class="st10" d="M110.1,57.3c-0.3,0.5-0.6-0.1-1.7,1.8c1.2-0.1,2.2,1.4,6.2,1.3c0.1-0.2,0.3-1.1,1.2-1.9l-2.3,0.2
			c0.2-0.1,1.6-1,2.5-1.7v0.5l0.7-1.4l-0.5-1.3c-1.2,0.5-1.5,1.9-3.9,1.8l0.4,0.4C112.1,57.3,112.1,57.2,110.1,57.3z"/>
		<path class="st5" d="M110.1,57.3c0.3-0.1,1.1,0.1,2.6-0.3l-0.4-0.4c1.4,0.7,2.4-0.8,3.9-1.8l-0.5-1.3
			C114.9,52.9,111.2,52.7,110.1,57.3z"/>
		<path class="st2" d="M114.7,60.4c-1.4,0.6-2.2-0.4-6.2-1.3c0.2,2.1,2.7,3.8,6.3,4.2L114.7,60.4z"/>
		<path class="st8" d="M114.7,60.4l0.1,3l2.7-0.6l-0.9-1.6l0,0l-0.2,0.2c-0.4-0.1-0.2-0.6-1.7-1.2V60.4z"/>
		<path class="st7" d="M116.6,61.2l0.9,1.6c0.8-0.6,1.8-1,1.6-2.3c-0.9-0.3-0.6-1.1-0.8-1.7l0,0C117.6,59.9,118.1,59.2,116.6,61.2z"
			/>
		<path class="st8" d="M115.7,53.4c0.3,0.9,0.3,0.5,1,2.7c0.3,0,0.3,0.2,1.1-0.3C117.8,55.1,117.5,54.4,115.7,53.4z"/>
		<path class="st7" d="M117.8,55.8l-0.7,0.3l1.1,2.6l0,0l0.6-0.6C118.5,57.7,119.6,57.8,117.8,55.8z"/>
		<path class="st4" d="M118.9,58.1l-0.6,0.6c0.2,0.6-0.1,1.4,0.8,1.7L118.9,58.1z"/>
		<path class="st3" d="M118.3,58.8l-1.1-2.6h-0.5c-0.2,0.8-0.6,0.2-0.9,2.4l-0.4,0.3c0.9,0.6,0.8,1.6,1.1,2.4l0,0
			C116.9,60.5,116.7,61.4,118.3,58.8z"/>
		<path class="st11" d="M116.6,61.2c-0.3-0.8-0.2-1.9-1.1-2.4l-0.8,1.4c0.8,0.3,0.4,0,1.7,1.2L116.6,61.2z"/>
		<path class="st12" d="M115.8,58.5c-0.1,0.1,0.2-0.3,0.2-1.5c-0.5,0.5-1.2,0.8-2.5,1.7L115.8,58.5z"/>
		<path class="st10" d="M2,54c-0.4,0.7-0.4-0.3-2,2.1c1.4-0.1,2.5,1.6,7.1,1.4c0.1-0.3,0.3-1.2,1.3-2.1l-2.6,0.2
			c0.2-0.2,1.9-1.1,2.8-1.9v0.6l0.8-1.5l-0.5-1.5c-1.4,0.5-1.7,2.2-4.4,2l0.5,0.5C3.7,54,4.7,53.8,2,54z"/>
		<path class="st5" d="M2,54c0.9-0.1-0.1,0.2,3-0.3l-0.5-0.5c1.6,0.8,2.7-0.9,4.4-2C9.3,49.2,3.5,47.6,2,54z"/>
		<path class="st2" d="M7.1,57.5c-1.6,0.7-2.6-0.4-7.1-1.4c0.2,2.4,3.1,4.3,7.2,4.8L7.1,57.5z"/>
		<path class="st8" d="M7.1,57.5l0.1,3.4l3.1-0.7C10,59.6,9.6,59,9.3,58.5C9,58.6,9,58.6,7.1,57.3L7.1,57.5z"/>
		<path class="st7" d="M9.3,58.5l1.1,1.8c0.9-0.6,2-1.1,1.8-2.6c-1-0.3-0.7-1.3-0.9-2l0,0C10.5,57,11,56.2,9.3,58.5z"/>
		<path class="st8" d="M8.3,49.6c0.3,0.7,0-0.3,1.1,3.1c0.1-0.1,0,0.3,1.3-0.3C10.7,51.6,10.3,50.7,8.3,49.6z"/>
		<path class="st7" d="M10.7,52.4L10,52.7c0.4,1,0.8,2,1.2,3l0,0l0.7-0.7C11.4,54.5,12.7,54.6,10.7,52.4z"/>
		<path class="st4" d="M11.9,55l-0.7,0.7c0.2,0.7-0.1,1.6,0.9,2L11.9,55z"/>
		<path class="st3" d="M11.2,55.7c-0.4-1-0.8-2-1.2-3H9.4c-0.1,0.4-0.9,1.2-1,2.7L8,55.7c1.1,0.6,0.9,1.8,1.2,2.8l0,0
			C9.7,57.7,9.4,58.6,11.2,55.7z"/>
		<path class="st11" d="M9.2,58.5c-0.4-0.9-0.2-2.1-1.2-2.8l-0.9,1.6C7.9,57.4,7.5,57.8,9.2,58.5z"/>
		<path class="st12" d="M8.4,55.4c0-0.4,0.2-0.4,0.2-1.7c-0.6,0.6-1.3,0.9-2.8,1.9L8.4,55.4z"/>
		<path class="st5" d="M31.3,65.6l1,0.4c1-0.5,1.9-0.3,4-3l-0.2-0.4l-2.1-0.4C33.9,63.7,32.8,62.2,31.3,65.6z"/>
		<path class="st6" d="M31.3,65.6c-0.2-1.2,2.7-1.5,2.8-5c-0.5-0.4-0.1-0.2-1.4-0.5C33,61.3,28.8,62.1,31.3,65.6z"/>
		<path class="st7" d="M34.1,60.5L34,60.7c1,0.8,0.2-0.2,3,2.1c-0.1,0,0,0-0.8-0.2c0.3,0.5,0.3,0.5,1,1.7c0-0.3,1.5-2.2-0.6-3.6
			C35.5,60.8,36.3,60.8,34.1,60.5z"/>
		<path class="st8" d="M37.3,64.3L36.4,63c-0.2,0.2-0.6,1.1-1.8,2l1.5,1C37.2,66,37.3,65.2,37.3,64.3z"/>
		<path class="st5" d="M31.2,61.9c0.1-0.8,1.4,0,1.6-2.8c-0.5,0.5-0.1-0.7-2.5,1.8c0,0.3-0.1,0.2,0.1,1.3c0.2-0.1,0.3-0.3,0.7-0.7
			L31.2,61.9z"/>
		<path class="st3" d="M32.8,59.1L32.7,60c0.2,0.2,0.4-0.3,1.4,0.5c0.7,0-0.1,0.2,2.6,0.1L32.8,59.1z"/>
		<path class="st2" d="M36.1,66l-1.5-1.1c-0.3,0.7,0.1,0.1-2.2,1C33.6,66.3,34.9,66.3,36.1,66z"/>
		<path class="st9" d="M31.2,61.9l-0.1-0.3c-0.2,0.1-0.2,0.3-0.7,0.7c-0.1-0.6-0.1-0.2-0.1-1.3l0.1,2.9
			C30.5,63.5,30.8,63.7,31.2,61.9z"/>
		<path class="st2" d="M36.2,62.6c0,0,0,0,0.8,0.2c-1-1,0-0.1-3-2.1c-0.9,0.8-0.2,0.1,0.1,1.4L36.2,62.6z"/>
		<path class="st5" d="M81.6,26.5l1.5,0.5c0.8-0.4,3.3-0.8,5.7-4.2l-0.3-0.5l-2.9-0.5C85.3,23.7,83.8,21.9,81.6,26.5z"/>
		<path class="st6" d="M81.6,26.5c0.1-1,0.2-0.6,3.9-4.7c-0.6-0.9-1.5-0.7-0.1-2.3c-0.7-0.6-0.1-0.3-1.9-0.7
			C84.6,18.5,77.9,23.2,81.6,26.5z"/>
		<path class="st7" d="M85.5,19.5l-0.1,0.3c0.8,0.8,2.1,0.9,4.2,2.9c-0.1,0,0,0-1.1-0.3c0.4,0.7,0.4,0.7,1.4,2.5
			c0-0.4,2.1-3-0.9-5.1C87.5,19.8,88.6,19.8,85.5,19.5z"/>
		<path class="st8" d="M89.9,24.7l-1.2-1.9c-0.3,0.3-0.9,1.6-2.6,2.7l2.1,1.6C89.8,27,90,25.9,89.9,24.7z"/>
		<path class="st5" d="M81.4,21.4c-0.2-0.6,2.1-0.7,2.2-3.9c-0.7,0.7-0.2-1-3.5,2.6c0,0.4-0.1,0.3,0.2,1.9c0.2-0.1,0.4-0.4,1-0.9
			L81.4,21.4z"/>
		<path class="st3" d="M83.6,17.4c0,0.4-0.1,0.9-0.1,1.3c0.3,0.3,0.5-0.4,1.9,0.7c1,0-0.1,0.3,3.5,0.2L83.6,17.4z"/>
		<path class="st2" d="M88.3,27.1l-2.1-1.6c-0.6,1-0.5,0.7-3.1,1.4C84.8,27.5,86.6,27.6,88.3,27.1z"/>
		<path class="st9" d="M81.4,21.4L81.3,21c-0.3,0.1-0.3,0.5-1,0.9c-0.1-0.8-0.1-0.3-0.2-1.9l0.1,4.1C80.5,23.5,80.5,24.7,81.4,21.4z
			"/>
		<path class="st2" d="M88.5,22.3c0.1,0,0,0,1.1,0.3c-0.7-0.9-1.8-1.2-4.2-2.9c-0.8,0.8-1,0.7,0.2,2L88.5,22.3z"/>
		<path class="st0" d="M112.6,23.5c-0.6-4-7.1-1.7-12-0.7C102.6,25.1,108.4,26.4,112.6,23.5z"/>
		<path class="st1" d="M99.9,23.8c-2.6,0.5-2.4,8,2.9,8v-0.1c-1.8-0.5-1-0.1-1.4-4.5h0.4l-0.1-0.8C100.6,25.6,101.5,26.4,99.9,23.8z
			"/>
		<path class="st2" d="M102.8,31.8v0.1l6.9-1.5l0.9-3.4c-0.8,0,0.3,0.3-3.3,0.5l-0.1,0.1C106.7,29.9,104.8,30.9,102.8,31.8z"/>
		<path class="st3" d="M107.3,27.4c1,0.2,3.6-0.4,5.6-2l-0.3-2C111.4,25,109.2,24.8,107.3,27.4z"/>
		<path class="st4" d="M112.9,25.4l-2.3,1.5l-0.9,3.4C111.1,28.6,111.7,30.1,112.9,25.4z"/>
		<path class="st5" d="M99.9,23.8c0.7,0.7-0.4,0.3,1.9,2.6c0.4-0.8,0.6-2.2-1.2-3.7L99.9,23.8z"/>
		<path class="st6" d="M101.7,23.9c0.6,0.8,0.6,1.8,0.1,2.6l0.1,0.8h-0.4c0.1,0.2,0.1,0.5,0.2,0.8c1.2-0.7,2.1-0.4,5.6-0.6
			c1.1-1.5,2.7-1.8,5.2-3.7C108.9,25,108.2,26.1,101.7,23.9z"/>
		<path class="st5" d="M107.2,27.5c-1.1,0.4-2.4-0.6-5.6,0.6C100.3,32.2,105.2,32.8,107.2,27.5z"/>
		<path class="st0" d="M283.5,19.6c-0.6-4-7.1-1.6-12-0.7C273.5,21.3,279.4,22.6,283.5,19.6z"/>
		<path class="st1" d="M270.8,20c-2.6,0.5-2.4,8,2.9,8V28c-1.8-0.5-1-0.1-1.4-4.5h0.4l-0.1-0.8C271.6,21.8,272.4,22.6,270.8,20z"/>
		<path class="st2" d="M273.8,28v0.1l6.9-1.5l0.9-3.4c-0.8,0.1,0.3,0.3-3.3,0.5l-0.1,0.1C277.7,26.1,275.8,27.1,273.8,28z"/>
		<path class="st3" d="M278.2,23.6c1,0.2,3.6-0.4,5.6-2l-0.3-2C282.3,21.2,280.1,21,278.2,23.6z"/>
		<path class="st4" d="M283.8,21.6l-2.3,1.5l-0.9,3.4C282,24.8,282.7,26.3,283.8,21.6z"/>
		<path class="st5" d="M270.8,20c0.7,0.7-0.4,0.3,1.9,2.6c0.4-0.8,0.6-2.2-1.2-3.7C271.3,19.3,271.1,19.7,270.8,20z"/>
		<path class="st6" d="M272.6,20.1c0.6,0.8,0.6,1.8,0.1,2.6l0.1,0.8h-0.4c0,0.2,0.1,0.5,0.2,0.9c1.2-0.7,2.1-0.4,5.6-0.6
			c1.1-1.5,2.7-1.8,5.2-3.7C279.9,21.2,279.2,22.4,272.6,20.1z"/>
		<path class="st5" d="M278.1,23.7c-1.1,0.4-2.4-0.6-5.6,0.6C271.3,28.4,276.2,29,278.1,23.7z"/>
		<path class="st0" d="M225.9,2.3c-0.6-4-7.1-1.7-12-0.7C215.9,3.9,221.6,5.2,225.9,2.3z"/>
		<path class="st1" d="M213.2,2.7c-2.6,0.5-2.4,8,2.9,8v-0.1c-1.8-0.5-1-0.1-1.4-4.5h0.4l-0.1-0.8C213.9,4.4,214.8,5.2,213.2,2.7z"
			/>
		<path class="st2" d="M216.1,10.6v0.1l6.9-1.5l0.9-3.4c-0.8,0,0.3,0.3-3.3,0.5l-0.1,0.1C220,8.8,218.1,9.7,216.1,10.6z"/>
		<path class="st3" d="M220.6,6.2c1,0.2,3.6-0.4,5.6-2l-0.3-2C224.8,3.8,223.1,3.2,220.6,6.2z"/>
		<path class="st4" d="M226.2,4.2l-2.3,1.5L223,9.1C224.4,7.4,225,8.9,226.2,4.2z"/>
		<path class="st5" d="M213.2,2.7c0.7,0.7-0.4,0.3,1.9,2.6c0.4-0.8,0.6-2.2-1.2-3.7C213.6,1.9,213.4,2.3,213.2,2.7z"/>
		<path class="st6" d="M215,2.7c0.6,0.8,0.6,1.8,0.1,2.6l0.1,0.8h-0.4c0,0.2,0.1,0.6,0.2,0.8c1.2-0.7,2.1-0.4,5.6-0.6
			c1.1-1.6,2.7-1.8,5.2-3.7C222.3,3.9,221.6,5,215,2.7z"/>
		<path class="st5" d="M220.5,6.3c-1.1,0.4-2.4-0.6-5.6,0.6C213.6,11,218.5,11.7,220.5,6.3z"/>
		<path class="st0" d="M1445.1,100.2c5.1-26.3-61.8-6.3-72.9-4.3C1385.5,114.5,1436.6,114.1,1445.1,100.2z"/>
		<path class="st1" d="M1368.3,102.6c-20.5,9-8.1,54.2,17.7,48.6v-0.7c-15.4,2.2-4.1-17-8.6-27.3h2.7l-0.4-4.9
			C1374.5,116.2,1372.5,108.7,1368.3,102.6z"/>
		<path class="st2" d="M1386,150.6v0.7l41.7-9.4l5.6-20.8c-5.9,1.7-11.8,3.6-20.1,3.2l-0.7,0.5
			C1409.7,139.6,1398.2,145.4,1386,150.6z"/>
		<path class="st3" d="M1413.1,124.2c9.8,1.6,25.5-5.1,33.9-12c-0.7-4-1.3-8-1.9-12C1437.2,110.1,1420.5,111.5,1413.1,124.2z"/>
		<path class="st4" d="M1447.1,112.1l-13.8,8.9l-5.6,20.8C1437.6,135.2,1445.4,125.7,1447.1,112.1z"/>
		<path class="st5" d="M1368.3,102.6c3.2,3.6,4.9,12.8,11.4,15.8c5.4-8.2-0.5-17.2-7.4-22.6L1368.3,102.6z"/>
		<path class="st6" d="M1379,102.7c5.8,5.7-0.1,13.5,1,20.6h-2.7c0.3,1.5,0.7,3.3,1.1,5.1c8-5.4,23.3-2.4,34-3.8
			c17.5-20.6,22.2-12.6,31.6-22.7C1425.2,114.7,1399.7,111.6,1379,102.7z"/>
		<path class="st5" d="M1412.4,124.7c-10,1.8-24.1-2.4-34,3.8C1369.6,172.7,1410.9,140.3,1412.4,124.7z"/>
		<path class="st10" d="M1334.3,132.4c-1.2,1.9-5,2.5-6.3,6.7c5.9,0.3,15.6,7.1,22.8,4.6c0.4-1.5,1.4-4.4,4.3-7l-8.4,0.7
			c2-1.5,5.1-2.8,9-6.2l0.1,1.9l2.6-5l-1.7-5c-4.7,1.1-6.5,9.8-14.4,6.6l1.6,1.5C1341.5,132.2,1339,131.9,1334.3,132.4z"/>
		<path class="st5" d="M1334.3,132.4c1.8-0.4,6,0.2,9.7-1.1l-1.6-1.5c8,3.1,8.1-4.1,14.4-6.6l-2-4.9
			C1347.8,113.7,1334.8,122.5,1334.3,132.4z"/>
		<path class="st2" d="M1350.9,143.7c-5.5,2.3-15-3.3-22.8-4.6c-0.5,10.1,14.3,14,23.2,15.5L1350.9,143.7z"/>
		<path class="st8" d="M1350.9,143.7l0.3,10.9l10-2.2l-3.4-5.7l0,0c-1.8,1.3-0.8-1.6-6.9-3.6L1350.9,143.7z"/>
		<path class="st7" d="M1357.8,146.6l3.4,5.7c3-2.1,6.6-3.7,5.8-8.4c-3.3-1-2.1-4.1-2.9-6.3l0,0
			C1362.9,140.3,1360.8,142.7,1357.8,146.6z"/>
		<path class="st8" d="M1354.8,118.2c1,2.4,2.8,7,3.7,10c0.7,0.1,2.5-0.1,4.1-1C1362.3,122.5,1360.1,120.3,1354.8,118.2z"/>
		<path class="st7" d="M1362.5,127.1l-2.4,1l4,9.6l0,0l2.3-2.3C1365.6,134,1367.3,130.6,1362.5,127.1z"/>
		<path class="st4" d="M1366.4,135.4l-2.3,2.3c0.8,2.2-0.4,5.3,2.9,6.3C1366.8,141.1,1366.6,138.2,1366.4,135.4z"/>
		<path class="st3" d="M1364.1,137.7l-4-9.6h-1.7c-1.6,3.4-2.7,4.2-3.3,8.6l-1.3,1c3.4,2.1,2.7,5.9,3.9,8.9l0,0
			C1359.8,143.5,1360.9,143.5,1364.1,137.7z"/>
		<path class="st11" d="M1357.8,146.6c-1.2-3-0.6-6.9-3.9-8.9c-1,1.8-2,3.5-3,5.3C1353.1,142.5,1354.7,146.9,1357.8,146.6z"/>
		<path class="st12" d="M1355.1,136.7c0.1-1.1,0.9-2.7,0.6-5.6c-2.2,2-5,3.6-9,6.2L1355.1,136.7z"/>
		<path class="st5" d="M1440.3,147l6.3,2.4c2.6-1.6,11.4-1.1,13.4-6.3c6.3-4.9,5.6-4.3,11.1-11.9l-1.2-2.4l-12.6-2.4
			C1453.4,138.5,1442.6,133,1440.3,147z"/>
		<path class="st6" d="M1440.3,147c4.4-17.1,11.8-6.3,17-20.5c-3.5-4.8-7.7-2.4-0.3-9.9c-1.3-2.3-4.2-2.2-8.4-3.2
			C1442.2,122.7,1426.7,138.2,1440.3,147z"/>
		<path class="st7" d="M1457,116.7l-0.6,1.1c4.6,4,13.1,6.5,18.3,12.6c-1-0.3,0.1,0.1-4.8-1.5c0.6,1.6,5.4,9.2,6.2,10.6
			c3.9-6.6,5.3-17.3-3.8-22.2C1468.3,118.3,1463,117.2,1457,116.7z"/>
		<path class="st8" d="M1476.1,139.5l-5-8.2c-0.9,1.6-7.9,10.1-11.1,11.9l9.2,6.8C1475.9,149.4,1476.4,144.8,1476.1,139.5z"/>
		<path class="st5" d="M1439.4,124.9c3.1-6,10.3-5.9,9.6-17.1c-5.4,1.7-10.9,4.9-15.1,11.2c0.3,1.7-0.3,2.2,0.8,8.2
			c0.9-0.7-0.2,0.6,4.3-4.1L1439.4,124.9z"/>
		<path class="st3" d="M1449,107.8c-0.2,1.9-0.3,3.7-0.4,5.6c1.9,1.2,5.9-0.5,8.4,3.2c3.7,0,9.7,1.9,15.4,0.7L1449,107.8z"/>
		<path class="st2" d="M1469.1,149.9l-9.2-6.8c-3,5.7-6.6,3.5-13.4,6.3C1454.1,150.9,1461.6,152.5,1469.1,149.9z"/>
		<path class="st9" d="M1439.4,124.9l-0.4-1.8c-1,0.5,0.7-0.1-4.3,4.1c-0.6-2.4-0.6-3.6-0.8-8.2c0.1,5.9,0.3,11.8,0.4,17.8
			C1435.8,135.1,1438.7,130.2,1439.4,124.9z"/>
		<path class="st2" d="M1469.9,128.9c1.2,0.3-0.3,0,4.8,1.5c-3.7-4.7-11.9-7.8-18.3-12.6c-5.2,4.9-4.4,3.4,0.9,8.7L1469.9,128.9z"/>
		<path class="st10" d="M1722.5,94.4c-0.6,1.1-2.5,0.9-4,4.3c3.4,0.1,9.7,4.5,14.6,2.9c0.4-1,0.5-2.4,2.7-4.5l-5.4,0.4
			c1.1-0.9,2-0.9,5.8-3.9l0.1,1.2l1.7-3.2l-1.1-3.2c-3,0.8-4,5.9-9.2,4.2l1,1C1727.2,94.3,1726.4,94.1,1722.5,94.4z"/>
		<path class="st5" d="M1722.5,94.4c1.2-0.3,2.2,0.3,6.2-0.7l-1-1c4.4,1.9,5.5-2.5,9.2-4.2l-1.2-3.2
			C1731.7,82.7,1723,87.5,1722.5,94.4z"/>
		<path class="st2" d="M1733.1,101.6c-3.5,1.5-8.9-2-14.6-2.9c-0.6,5.5,8.9,9.3,14.8,9.9C1733.3,106.2,1733.2,103.9,1733.1,101.6z"
			/>
		<path class="st8" d="M1733.1,101.6c0.1,2.3,0.1,4.6,0.2,6.9l6.4-1.4c-0.7-1.2-1.4-2.4-2.2-3.7l0,0c-1.2,0.8-0.9-1.4-4.4-2.3
			L1733.1,101.6z"/>
		<path class="st7" d="M1737.6,103.5l2.2,3.7c1.9-1.3,4.2-2.4,3.7-5.3c-2.1-0.7-1.3-2.6-1.9-4l0,0
			C1740.7,99.7,1740,100.4,1737.6,103.5z"/>
		<path class="st8" d="M1735.6,85.3c0.6,1.4,1.5,3.7,2.3,6.3c0,0,1.3,0.1,2.6-0.7C1740.6,88.7,1738.9,86.5,1735.6,85.3z"/>
		<path class="st7" d="M1740.6,91l-1.5,0.7l2.5,6.2l0,0l1.4-1.5C1742.1,94.7,1744.3,94.3,1740.6,91z"/>
		<path class="st4" d="M1743,96.3l-1.4,1.5c0.5,1.4-0.2,3.4,1.9,4C1743.3,100,1743.2,98.1,1743,96.3z"/>
		<path class="st3" d="M1741.6,97.8l-2.6-6.2h-1c-1.1,2.6-1.5,1.5-2.1,5.5l-0.8,0.7c2.2,1.3,1.8,3.8,2.5,5.7l0,0
			C1738.4,102.2,1739.3,102.1,1741.6,97.8z"/>
		<path class="st11" d="M1737.6,103.5c-0.8-1.9-0.4-4.4-2.5-5.7c-0.6,1.1-1.3,2.2-1.9,3.4C1734.5,100.9,1735.7,103.6,1737.6,103.5z"
			/>
		<path class="st12" d="M1735.9,97.2c0-0.3,0.5-1.2,0.4-3.6c-1.6,1.4-2.5,1.8-5.8,3.9L1735.9,97.2z"/>
		<path class="st0" d="M1570.3,112.1c2.7-15.5-35.7-4.1-43.3-2.6C1532.9,119.2,1563.3,121.2,1570.3,112.1z"/>
		<path class="st1" d="M1524.6,113.6c-12.1,5.2-4.9,31.9,10.5,28.9v-0.4c-8.7,1.3-2.7-9.3-5.1-16.1h1.6l-0.2-2.9
			C1528.4,121.5,1527.7,118.3,1524.6,113.6z"/>
		<path class="st2" d="M1535.2,142.1v0.4l24.8-5.6c1.1-4.1,2.2-8.2,3.3-12.4c-3.9,0.9-5.1,2-12,1.9l-0.4,0.3
			C1549.3,135.5,1542.4,139,1535.2,142.1z"/>
		<path class="st3" d="M1551.3,126.4c4.9,1.1,15.4-3,20.2-7.1c-0.4-2.4-0.8-4.7-1.1-7.1C1565.9,117.9,1555.9,118.7,1551.3,126.4z"/>
		<path class="st4" d="M1571.4,119.2l-8.2,5.2c-1.1,4.1-2.2,8.3-3.3,12.4C1565.2,133.1,1570.5,128,1571.4,119.2z"/>
		<path class="st5" d="M1524.6,113.6c1.7,1.6,2.5,7.1,6.7,9.4c2.6-3.6,0.3-10.2-4.4-13.4L1524.6,113.6z"/>
		<path class="st6" d="M1531.1,113.6c3,2.8,0.2,7.6,0.6,12.3h-1.6l0.7,3c4.6-3.2,13.1-1.4,20.2-2.2c4.7-6.9,12.2-8.3,18.8-13.4
			C1558.3,120.2,1544.5,119.4,1531.1,113.6z"/>
		<path class="st5" d="M1550.9,126.7c-5.2,1.1-14.2-1.5-20.2,2.2C1525.4,152.8,1548.3,138.8,1550.9,126.7z"/>
		<path class="st10" d="M1569.5,119.6c-0.8,1.5-3.1,1-5.4,5.7c4.8,0.2,13.2,6.1,19.5,3.9c0.3-1.2,1.2-3.8,3.6-6l-7.2,0.6
			c1.7-1.3,4.4-2.4,7.7-5.3l0.1,1.6l2.2-4.2l-1.4-4.2c-4,0.9-5.5,8.1-12.3,5.6l1.4,1.3C1575.6,119.5,1573.5,119.2,1569.5,119.6z"/>
		<path class="st5" d="M1569.5,119.6c1.6-0.4,5.1,0.2,8.3-1l-1.4-1.3c6.4,2.6,7.1-3.5,12.3-5.6c-0.6-1.4-1.1-2.8-1.7-4.2
			C1581.4,103.8,1570,111,1569.5,119.6z"/>
		<path class="st2" d="M1583.7,129.3c-4.8,2-12.3-2.7-19.5-3.9c-0.5,8.2,11.9,12,19.8,13.2C1583.8,135.4,1583.7,132.3,1583.7,129.3z
			"/>
		<path class="st8" d="M1583.7,129.3c0.1,3.1,0.2,6.2,0.3,9.3l8.6-1.9c-1-1.6-2-3.2-2.9-4.9l0,0c-0.2,0.2-0.3,0.3-0.5,0.4
			c-1.4-0.6-1-2.1-5.4-3.5L1583.7,129.3z"/>
		<path class="st7" d="M1589.6,131.8l2.9,4.9c2.5-1.8,5.6-3.1,5-7.1c-2.8-0.9-1.8-3.5-2.5-5.4l0,0
			C1593.9,126.4,1592.1,128.5,1589.6,131.8z"/>
		<path class="st8" d="M1587,107.5c0.6,1.3,2.2,5.6,3.1,8.5c0.9,0,1.4,0.2,3.5-0.9C1593.4,111.5,1591.6,109.2,1587,107.5z"/>
		<path class="st7" d="M1593.6,115.1l-2,0.9c1.1,2.7,2.2,5.5,3.4,8.2l0,0l2-2C1596.4,120.9,1597.5,117.9,1593.6,115.1z"/>
		<path class="st4" d="M1596.9,122.2l-2,2c0.7,1.8-0.3,4.5,2.5,5.3C1597.2,127.1,1597.1,124.6,1596.9,122.2z"/>
		<path class="st3" d="M1594.9,124.2c-1.1-2.7-2.2-5.5-3.4-8.2h-1.5c-1,1.9-2.6,4.5-2.8,7.3l-1.1,0.9c2.9,1.8,2.3,5,3.4,7.6l0,0
			C1591.3,129.2,1592.3,129.1,1594.9,124.2z"/>
		<path class="st11" d="M1589.6,131.8c-1-2.6-0.5-5.9-3.4-7.6c-0.8,1.5-1.7,3-2.5,4.5c1.9,0.4,2.7,1.2,5.4,3.5
			C1589.2,132.1,1589.4,132,1589.6,131.8z"/>
		<path class="st12" d="M1587.3,123.3c0.1-1.2,0.7-2.6,0.5-4.8c-1.9,1.7-4.3,3.1-7.7,5.3L1587.3,123.3z"/>
		<path class="st10" d="M1699.6,99.3c-0.5,1-2.2,0.8-3.4,3.7c2.6,0,8.1,3.7,12.5,2.5c0.2-0.7,0.8-2.6,2.3-3.8l-4.6,0.4
			c0.9-0.7,1.7-0.8,4.9-3.4l0.1,1.1l1.4-2.7l-0.9-2.7c-2.5,0.7-3.4,4.8-7.9,3.6l0.9,0.8C1703.7,99.2,1702.9,99.1,1699.6,99.3z"/>
		<path class="st5" d="M1699.6,99.3c1-0.3,2.1,0.2,5.3-0.6l-0.9-0.8c3.4,1.6,4.8-2,7.9-3.6c-0.4-0.9-0.7-1.8-1.1-2.7
			C1708,89.5,1699.8,93.3,1699.6,99.3z"/>
		<path class="st2" d="M1708.7,105.5c-3,1.3-7.2-1.5-12.5-2.5c-0.5,4.7,7.3,7.9,12.7,8.5C1708.8,109.5,1708.7,107.5,1708.7,105.5z"
			/>
		<path class="st8" d="M1708.7,105.5c0,2,0.1,4,0.2,5.9l5.5-1.2l-1.9-3.1c-0.6,0.3-0.3,0-3.8-2L1708.7,105.5z"/>
		<path class="st7" d="M1712.5,107.1l1.9,3.1c1.6-1.1,3.6-2,3.2-4.6c-1.8-0.6-1.2-2.2-1.6-3.4l0,0
			C1715.1,103.9,1714.5,104.5,1712.5,107.1z"/>
		<path class="st8" d="M1710.8,91.6c0.4,1.3,0-0.6,2,5.4c0,0,1.2,0.1,2.2-0.6C1715.1,94.7,1713.8,92.7,1710.8,91.6z"/>
		<path class="st7" d="M1715,96.4l-1.3,0.6c0.7,1.8,1.5,3.5,2.2,5.2l0,0l1.2-1.3C1716.3,100.1,1718.6,100.4,1715,96.4z"/>
		<path class="st4" d="M1717.2,101l-1.2,1.3c0.4,1.2-0.2,2.9,1.6,3.4L1717.2,101z"/>
		<path class="st3" d="M1715.9,102.2c-0.7-1.7-1.4-3.5-2.2-5.2h-0.9c-0.8,1.7-1.4,1.9-1.8,4.7l-0.7,0.6c1.8,1.1,1.5,3.2,2.2,4.9l0,0
			C1713.1,106,1713.9,105.9,1715.9,102.2z"/>
		<path class="st11" d="M1712.5,107.1c-0.7-1.7-0.3-3.8-2.2-4.9l-1.6,2.9C1709.8,105.1,1709,105.7,1712.5,107.1z"/>
		<path class="st12" d="M1711,101.7c0-0.8,0.5-0.7,0.3-3.1c-1.4,1.2-2.1,1.6-4.9,3.4L1711,101.7z"/>
		<path class="st5" d="M1728.2,114.1l1.8,0.7c1.9-0.7,4.4-1.4,7.1-5.3l-0.3-0.7l-3.7-0.7C1732.1,112,1731,107.8,1728.2,114.1z"/>
		<path class="st6" d="M1728.2,114.1c-0.6-1,2.6-2.6,5-6c-0.8-1.1-1.9-0.9-0.1-2.9c-0.8-0.8-0.1-0.4-2.4-0.9
			C1730.9,105.4,1723.6,110.1,1728.2,114.1z"/>
		<path class="st7" d="M1733.1,105.2l-0.2,0.3c0.9,0.9,2.8,1.2,5.3,3.7c-0.1-0.1,0,0-1.4-0.4c0.3,0.6,0.9,1.6,1.8,3.1
			c0.3-0.7,2.2-4.5-1.1-6.4C1736.2,105.7,1735.6,105.5,1733.1,105.2z"/>
		<path class="st8" d="M1738.6,111.9l-1.5-2.4c-0.1,0.2-1.8,2.6-3.2,3.5l2.7,2C1738.6,114.7,1738.7,113.4,1738.6,111.9z"/>
		<path class="st5" d="M1728,107.6c0.2-1.1,3.1-1.4,2.8-5c-0.9,0.9-0.2-1.3-4.4,3.2c0,0.4-0.1,0.4,0.2,2.4c0.3-0.1,0.5-0.5,1.2-1.2
			L1728,107.6z"/>
		<path class="st3" d="M1730.7,102.7c0,0.5-0.1,1.1-0.1,1.6c0.6,0.4,0.3-0.6,2.4,0.9c1-0.1,1.7,0.5,4.5,0.2L1730.7,102.7z"/>
		<path class="st2" d="M1736.6,114.9l-2.7-2c-0.8,1.3-0.6,0.8-3.9,1.8C1732.2,115.2,1734.4,115.7,1736.6,114.9z"/>
		<path class="st9" d="M1728,107.6l-0.1-0.5c-0.4,0.2-0.3,0.6-1.2,1.2c-0.2-1-0.1-0.4-0.2-2.4l0.1,5.2
			C1726.8,110.2,1726.9,111.8,1728,107.6z"/>
		<path class="st2" d="M1736.8,108.8c0.1,0,0,0,1.4,0.4c-0.9-1.2-2.2-1.6-5.3-3.7c-1.1,1-1.3,0.9,0.3,2.5L1736.8,108.8z"/>
		<path class="st0" d="M1783.3,103.9c0.6-3.5,6.2-1.5,10.6-0.6C1792.1,105.3,1786.8,106.5,1783.3,103.9z"/>
		<path class="st1" d="M1794.4,104.2c1.2-0.3,3.7,5.7-2.6,7v-0.1c1.5-0.4,0.9-0.1,1.2-4h-0.4l0.1-0.7
			C1793.7,105.8,1793,106.5,1794.4,104.2z"/>
		<path class="st2" d="M1791.8,111.2L1791.8,111.2l-6-1.3l-0.8-3c0.7,0-0.2,0.4,2.9,0.4l0.1,0.1
			C1788.4,109.6,1790.1,110.4,1791.8,111.2z"/>
		<path class="st3" d="M1787.9,107.4c-0.9,0.2-3.2-0.3-4.9-1.7l0.3-1.7C1784.1,105.3,1785.7,104.7,1787.9,107.4z"/>
		<path class="st4" d="M1783,105.6l2,1.3l0.8,3C1785.4,108.8,1784.8,111,1783,105.6z"/>
		<path class="st5" d="M1794.4,104.2c-0.6,0.6,0.4,0.2-1.6,2.3c-0.3-0.2-0.4-1.9,1.1-3.3L1794.4,104.2z"/>
		<path class="st6" d="M1792.8,104.2c-0.5,0.7-0.6,1.6-0.1,2.3l-0.1,0.7h0.4c0,0.2-0.1,0.5-0.2,0.7c-1.1-0.6-1.8-0.4-4.9-0.5
			c-0.9-1.1-1.6-1.1-4.6-3.3C1786.4,105.4,1786.9,106.1,1792.8,104.2z"/>
		<path class="st5" d="M1788,107.4c0.9,0.3,2.1-0.5,4.9,0.5C1794,111.5,1789.8,112.2,1788,107.4z"/>
		<path class="st5" d="M1657.3,119.1l-2.2,0.8c-2.1-0.6-5.6-2-8.4-6.2l0.4-0.8l4.3-0.8C1652,115.3,1655,113.2,1657.3,119.1z"/>
		<path class="st6" d="M1657.3,119.1c-0.1-3.2-2.9-2.4-5.9-7.1c0.9-1.3,2.3-1,0.1-3.4c1-0.9,0.2-0.4,2.9-1.1
			C1654,108.8,1662.8,114.2,1657.3,119.1z"/>
		<path class="st7" d="M1651.6,108.6l0.2,0.4c-1.1,1.1-3.3,1.4-6.3,4.3c0.2-0.1,0,0,1.7-0.5c-0.8,1.5-0.3,0.6-2.1,3.7
			c-0.8-1.7-2.3-5.1,1.3-7.6C1647.9,109.2,1648.6,108.9,1651.6,108.6z"/>
		<path class="st8" d="M1645,116.5c0.6-0.9,1.2-1.9,1.7-2.8c0.2,0.2,2.1,3,3.8,4.1l-3.2,2.3C1645.1,119.9,1644.9,118.3,1645,116.5z"
			/>
		<path class="st5" d="M1657.6,111.5c-0.3-1-3.8-2.2-3.3-5.9c1.4,0.6,3,0.9,5.2,3.8c-0.1,0.8,0.2,0-0.3,2.8
			c-0.4-0.2-0.6-0.5-1.5-1.4L1657.6,111.5z"/>
		<path class="st3" d="M1654.3,105.6l0.2,1.9c-0.7,0.5-0.3-0.7-2.9,1.1c-1.1-0.1-2,0.6-5.3,0.3L1654.3,105.6z"/>
		<path class="st2" d="M1647.4,120.1l3.2-2.3c0.9,1.5,0.7,1,4.6,2.2C1652.6,120.4,1650,121,1647.4,120.1z"/>
		<path class="st9" d="M1657.6,111.5l0.1-0.6c0.4,0.2,0.4,0.7,1.5,1.4c0.2-1.2,0.1-0.4,0.3-2.8c0,2-0.1,4.1-0.1,6.1
			C1659.1,114.5,1658.9,116.3,1657.6,111.5z"/>
		<path class="st2" d="M1647.2,112.8c-0.1,0-0.1,0.1-1.7,0.5c1.1-1.4,2.6-1.8,6.3-4.3c1.2,1.1,1.5,1.1-0.3,3L1647.2,112.8z"/>
		<path class="st0" d="M1626.1,113.5c0.9-5.9,11.2-2.5,17.9-1.1C1640.8,116.2,1631.5,117.5,1626.1,113.5z"/>
		<path class="st1" d="M1645,114.1c4.4,1.7,3,12.5-4.3,12v-0.2c2.6,0.3,1.5-2.8,2.1-6.7h-0.7l0.1-1.2
			C1643.3,117.4,1643.4,116.6,1645,114.1z"/>
		<path class="st2" d="M1640.6,125.9v0.1l-10.2-2.3l-1.4-5.1c1.2,0-0.4,0.5,5,0.8l0.2,0.1C1634.8,123.2,1637.6,124.6,1640.6,125.9z"
			/>
		<path class="st3" d="M1633.9,119.4c-0.6-0.4-1.6,1.5-8.3-2.9l0.5-2.9C1627.7,115.7,1631.5,115.9,1633.9,119.4z"/>
		<path class="st4" d="M1625.6,116.4c1.1,0.7,2.3,1.4,3.4,2.2c0.5,1.7,0.9,3.4,1.4,5.1C1629.1,122.4,1626.5,121.8,1625.6,116.4z"/>
		<path class="st5" d="M1645,114.1c-0.8,0.6-0.5,2.1-2.8,3.9c-0.7-1-0.5-3.9,1.8-5.5C1644.3,113,1644.6,113.5,1645,114.1z"/>
		<path class="st6" d="M1642.3,114.1c-1,0.9-0.2,2.4-0.2,5.1h0.7c-0.1,0.4-0.2,0.8-0.3,1.3c-2-1.2-4.3-0.6-8.3-0.9
			c-1.9-2.6-4.2-2.8-7.8-5.6C1630.6,116.3,1636,117,1642.3,114.1z"/>
		<path class="st5" d="M1634.1,119.5c1.5,0.5,5.4-0.7,8.3,0.9C1644.7,128.3,1636.3,126.2,1634.1,119.5z"/>
		<path class="st10" d="M1857.1,80.3c0.5,0.8,0.4-0.4,2.2,2.4c-1.5-0.1-5.1,2.4-8.3,1.7c-0.1-0.3-0.4-1.5-1.5-2.5l3.1,0.2
			c-0.8-0.6,0,0.2-3.3-2.2v0.7l-0.9-1.8l0.6-1.8c1.6,0.6,2,2.5,5.2,2.4l-0.6,0.6C1854.3,80.3,1855.3,80.1,1857.1,80.3z"/>
		<path class="st5" d="M1857.1,80.3c-0.2-0.1-2.3,0.1-3.5-0.4l0.6-0.6c-1.9,1-3.1-1-5.2-2.4C1849.2,73.3,1855.6,74.5,1857.1,80.3z"
			/>
		<path class="st2" d="M1851.1,84.4c2,0.8,4.3-0.9,8.3-1.7c0,3.1-3.7,4.8-8.4,5.6L1851.1,84.4z"/>
		<path class="st8" d="M1851.1,84.4l-0.1,3.9l-3.6-0.8l1.2-2.1l0,0c0.1,0.1,0.1,0.1,0.2,0.2c0.7-0.3-0.2-0.4,2.3-1.5V84.4z"/>
		<path class="st7" d="M1848.6,85.5l-1.2,2.1c-1.1-0.8-2.4-1.3-2.1-3c1.2-0.4,0.8-1.5,1.1-2.3l0,0
			C1847.2,83.7,1846.6,82.8,1848.6,85.5z"/>
		<path class="st8" d="M1849.7,75.2c-0.1,0.2-0.6,1.4-1.3,3.6c-0.2-0.1,0,0.4-1.5-0.4C1847,77.4,1847.4,76.4,1849.7,75.2z"/>
		<path class="st7" d="M1846.9,78.4l0.8,0.4c-0.5,1.2-1,2.3-1.4,3.5l0,0l-0.8-0.8C1846,80.8,1844.5,81,1846.9,78.4z"/>
		<path class="st4" d="M1845.5,81.4l0.8,0.8c-0.3,0.8,0.1,1.9-1.1,2.3L1845.5,81.4z"/>
		<path class="st3" d="M1846.3,82.2c0.5-1.2,1-2.3,1.4-3.5h0.6c0.2,0.4,1,1.4,1.2,3.1l0.5,0.4c-1.2,0.8-1,2.1-1.4,3.2l0,0
			C1848.1,84.6,1848.4,85.7,1846.3,82.2z"/>
		<path class="st11" d="M1848.6,85.5c0.4-1.1,0.2-2.5,1.4-3.2l1.1,1.9c-1.1,0.4-0.6,0.1-2.3,1.5
			C1848.7,85.6,1848.7,85.5,1848.6,85.5z"/>
		<path class="st12" d="M1849.6,81.9c0-0.5-0.3-0.5-0.2-2c1.4,1.1,0.3,0.3,3.3,2.2L1849.6,81.9z"/>
		<path class="st0" d="M1813.3,85.6c0.7-4.6,8.1-1.9,13.8-0.8C1825.1,87.5,1818.2,88.9,1813.3,85.6z"/>
		<path class="st1" d="M1828,86.1c3.2,1.3,2.6,9.3-3.4,9.2v-0.1c2.1-0.5,1.2-0.1,1.6-5.2h-0.5l0.1-0.9
			C1827.1,88,1826.1,88.9,1828,86.1z"/>
		<path class="st2" d="M1824.6,95.2v0.1l-7.9-1.8l-1.1-4c0.9,0-0.3,0.4,3.8,0.6l0.1,0.1C1820.1,93.1,1822.3,94.2,1824.6,95.2z"/>
		<path class="st3" d="M1819.4,90.2c-1.2,0.2-4.2-0.4-6.4-2.3l0.4-2.3C1814.7,87.4,1817.2,87.2,1819.4,90.2z"/>
		<path class="st4" d="M1813,87.9l2.6,1.7c0.4,1.3,0.7,2.6,1.1,4C1815.6,92.6,1813.7,91.7,1813,87.9z"/>
		<path class="st5" d="M1828,86.1c-0.8,0.8,0.5,0.3-2.2,3c-0.5-0.9-0.7-2.6,1.4-4.3L1828,86.1z"/>
		<path class="st6" d="M1825.9,86.1c-0.7,0.9-0.7,2.1-0.1,3l-0.1,0.9h0.5c-0.1,0.3-0.1,0.6-0.2,1c-1.4-0.9-2.4-0.5-6.5-0.7
			c-1.3-1.8-3.1-2.1-6-4.3C1817.5,87.5,1818.3,88.8,1825.9,86.1z"/>
		<path class="st5" d="M1819.6,90.3c1.2,0.4,2.5-0.7,6.5,0.7C1827.6,95.8,1821.3,96.2,1819.6,90.3z"/>
		<path class="st10" d="M1762,86.4c0.2,0.5,0.6,0,1.7,1.8c-1.2-0.1-2.2,1.4-6.2,1.3c0-0.2-0.3-1.1-1.2-1.9l2.3,0.2
			c-0.2-0.2-1.7-0.9-2.5-1.7v0.5l-0.7-1.4l0.5-1.3c1.2,0.4,1.5,1.9,3.9,1.8l-0.4,0.4C1760.5,86.4,1759.5,86.1,1762,86.4z"/>
		<path class="st5" d="M1762,86.4c-0.7-0.1-0.1,0.2-2.7-0.3l0.4-0.4c-1.4,0.8-2.4-0.8-3.9-1.8l0.5-1.3
			C1757.2,82,1760.9,81.8,1762,86.4z"/>
		<path class="st2" d="M1757.4,89.4c1.4,0.6,2.2-0.4,6.2-1.3c-0.2,2.1-2.7,3.8-6.3,4.2L1757.4,89.4z"/>
		<path class="st8" d="M1757.4,89.4l-0.1,3l-2.7-0.6l0.9-1.6l0,0l0.2,0.2c0.4-0.1,0.2-0.6,1.7-1.2L1757.4,89.4z"/>
		<path class="st7" d="M1755.5,90.2l-0.9,1.6c-0.8-0.6-1.8-1-1.6-2.3c0.9-0.3,0.6-1.1,0.8-1.7l0,0
			C1754.5,88.9,1754,88.3,1755.5,90.2z"/>
		<path class="st8" d="M1756.4,82.5c-0.3,0.9-0.3,0.5-1,2.7c-0.3,0-0.3,0.2-1.1-0.3C1754.3,84.2,1754.6,83.4,1756.4,82.5z"/>
		<path class="st7" d="M1754.3,84.9l0.7,0.3l-1.1,2.6l0,0l-0.6-0.6C1753.6,86.7,1752.5,86.9,1754.3,84.9z"/>
		<path class="st4" d="M1753.2,87.2l0.6,0.6c-0.2,0.6,0.1,1.4-0.8,1.7L1753.2,87.2z"/>
		<path class="st3" d="M1753.8,87.8l1.1-2.6h0.5c0.2,0.8,0.6,0.2,0.9,2.4l0.3,0.3c-0.9,0.6-0.8,1.6-1.1,2.4l0,0
			C1755.1,89.6,1755.4,90.4,1753.8,87.8z"/>
		<path class="st11" d="M1755.6,90.2c0.3-0.8,0.2-1.9,1.1-2.4l0.8,1.4c-0.8,0.3-0.4,0-1.7,1.2L1755.6,90.2z"/>
		<path class="st12" d="M1756.3,87.5c0.1,0.1-0.2-0.3-0.2-1.5c0.5,0.5,1.2,0.8,2.5,1.7L1756.3,87.5z"/>
		<path class="st10" d="M1870.1,83.1c0.4,0.7,0.4-0.3,1.9,2.1c-1.4-0.1-2.5,1.6-7.1,1.4c-0.1-0.3-0.3-1.3-1.3-2.2l2.6,0.2
			c-0.7-0.5,0,0.1-2.8-1.9v0.6l-0.8-1.5l0.5-1.5c1.4,0.5,1.7,2.2,4.5,2l-0.5,0.5C1868.4,83.1,1867.3,82.9,1870.1,83.1z"/>
		<path class="st5" d="M1870.1,83.1c-0.9-0.2,0,0.2-3-0.4l0.5-0.5c-1.6,0.8-2.7-0.9-4.5-2C1862.8,78.2,1868.6,76.7,1870.1,83.1z"/>
		<path class="st2" d="M1865,86.6c1.6,0.7,2.6-0.4,7.1-1.4c-0.2,2.4-3.1,4.2-7.2,4.8L1865,86.6z"/>
		<path class="st8" d="M1865,86.6l-0.1,3.4l-3.1-0.7l1-1.8l0,0l0.2,0.2c0.4-0.1,0.2-0.6,2-1.3L1865,86.6z"/>
		<path class="st7" d="M1862.8,87.5l-1,1.8c-0.9-0.6-2-1.1-1.8-2.6c1-0.3,0.7-1.3,0.9-2l0,0C1861.6,86,1861.1,85.2,1862.8,87.5z"/>
		<path class="st8" d="M1863.8,78.7c-0.1,0.2-0.5,1.2-1.1,3.1c-0.3-0.1-0.3,0.2-1.3-0.3C1861.4,80.6,1861.8,79.8,1863.8,78.7z"/>
		<path class="st7" d="M1861.4,81.4l0.7,0.3l-1.2,3l0,0l-0.7-0.7C1860.7,83.5,1859.4,83.8,1861.4,81.4z"/>
		<path class="st4" d="M1860.2,84l0.7,0.7c-0.2,0.7,0.1,1.6-0.9,2L1860.2,84z"/>
		<path class="st3" d="M1860.9,84.8l1.2-3h0.5c0.1,0.4,0.9,1.2,1,2.7l0.4,0.3c-1,0.6-0.8,1.8-1.2,2.8l0,0
			C1862.4,86.7,1862.7,87.7,1860.9,84.8z"/>
		<path class="st11" d="M1862.8,87.5c0.4-0.9,0.2-2.1,1.2-2.8l0.9,1.6c-0.9,0.3-0.5,0-2,1.3L1862.8,87.5z"/>
		<path class="st12" d="M1863.7,84.4c0-0.4-0.2-0.4-0.2-1.7c1.2,1,0.3,0.3,2.8,1.9L1863.7,84.4z"/>
		<path class="st5" d="M1840.8,94.6l-1,0.4c-0.5-0.2-3-1.1-4.1-3l0.2-0.4l2.1-0.4C1838.2,92.7,1839.4,91.2,1840.8,94.6z"/>
		<path class="st6" d="M1840.8,94.6c0.2-1.2-2.7-1.5-2.8-5c0.5-0.4,0.1-0.2,1.4-0.5C1839.1,90.3,1843.3,91.2,1840.8,94.6z"/>
		<path class="st7" d="M1838,89.6l0.1,0.2c-0.3,0.4-2,1-3,2.1c0.1,0,0,0,0.8-0.2c-0.3,0.5-0.3,0.5-1,1.8c0-0.3-1.5-2.1,0.6-3.6
			C1836.6,89.8,1835.8,89.8,1838,89.6z"/>
		<path class="st8" d="M1834.8,93.4l0.8-1.4c-0.3-0.4,0.7,1.2,1.8,2l-1.5,1.1C1834.9,95,1834.8,94.2,1834.8,93.4z"/>
		<path class="st5" d="M1840.9,91c-0.1-0.8-1.4,0-1.6-2.8c0.5,0.5,0.1-0.7,2.5,1.8c0,0.2,0,0.2-0.1,1.3c-0.2-0.1-0.2-0.2-0.7-0.7
			L1840.9,91z"/>
		<path class="st3" d="M1839.3,88.2l0.1,0.9c-0.2,0.2-0.4-0.3-1.4,0.5c-0.7,0,0.1,0.2-2.6,0.1L1839.3,88.2z"/>
		<path class="st2" d="M1836,95.1l1.5-1.1c0.3,0.7-0.1,0.1,2.2,1C1838.5,95.4,1837.2,95.4,1836,95.1z"/>
		<path class="st9" d="M1840.9,91l0.1-0.3c0.1,0,0.2,0.3,0.7,0.7c0.1-0.6,0.1-0.2,0.1-1.3l-0.1,2.9
			C1841.6,92.6,1841.3,92.8,1840.9,91z"/>
		<path class="st2" d="M1835.9,91.6c0,0,0,0-0.8,0.2c0.3-0.5,1.7-1.1,3-2.1c0.9,0.8,0.2,0.1-0.2,1.4L1835.9,91.6z"/>
		<path class="st5" d="M1338,161.2l2.5,0.9c2.1-0.5,7.2-2.9,9.6-7.1l-0.5-0.9l-4.9-0.9C1344.1,156.8,1339.4,155.5,1338,161.2z"/>
		<path class="st6" d="M1338,161.2c0.1-3.8,4.5-3.6,6.6-8c-1.1-1.5-2.7-1.4-0.1-3.8c-1.1-1-0.2-0.5-3.3-1.3
			C1341.1,150.2,1331.9,155.8,1338,161.2z"/>
		<path class="st7" d="M1344.6,149.3l-0.2,0.4c1.5,1.4,4.6,2.3,7.1,4.9c-0.2-0.1,0,0-1.9-0.6c0.6,1.2,1,1.9,2.5,4.1
			c1.1-1.9,2.5-6.3-1.5-8.6C1348.7,149.9,1348,149.7,1344.6,149.3z"/>
		<path class="st8" d="M1352,158.2c-0.7-1.1-1.3-2.1-2-3.2c-0.2,0.3-2.3,3.4-4.3,4.6l3.6,2.6C1351.9,162.1,1352.2,160.3,1352,158.2z
			"/>
		<path class="st5" d="M1337.7,152.6c0.6-2.5,3.5-0.4,3.7-6.7c-1.6,0.7-3.4,1-5.9,4.4c0.1,0.8-0.2,0,0.3,3.2
			c0.4-0.2,0.7-0.6,1.7-1.6L1337.7,152.6z"/>
		<path class="st3" d="M1341.4,145.9c-0.1,0.7-0.1,1.4-0.2,2.2c0.8,0.6,0.4-0.8,3.3,1.3c1.3-0.1,1.9,0.7,6,0.3L1341.4,145.9z"/>
		<path class="st2" d="M1349.3,162.3l-3.6-2.6c-1.1,1.7-0.8,1.1-5.2,2.5C1343.4,162.7,1346.3,163.3,1349.3,162.3z"/>
		<path class="st9" d="M1337.7,152.6l-0.2-0.7c-0.5,0.2-0.4,0.8-1.7,1.6c-0.3-1.4-0.1-0.5-0.3-3.2l0.2,6.9
			C1336.1,156,1336.2,158.1,1337.7,152.6z"/>
		<path class="st2" d="M1349.6,154.1c0.1,0,0.1,0.1,1.9,0.6c-1.3-1.7-4.1-2.7-7.1-4.9c-1.5,1.3-1.7,1.6,0.4,3.4L1349.6,154.1z"/>
		<path class="st0" d="M911,104.6c2-12.6-28.8-4.4-37.7-2.2C878.6,110.8,904.3,112.7,911,104.6z"/>
		<path class="st1" d="M871.2,105.9c-10.4,4.2-4.4,27.7,9.2,25.2v-0.3c-7.3,1.1-2.5-8.1-4.5-14.1h1.4l-0.2-2.5
			C874.6,112.8,873.9,110,871.2,105.9z"/>
		<path class="st2" d="M880.4,130.7v0.3l21.6-4.8l2.9-10.8c-1.8,0.2-3.2,1.7-10.4,1.6l-0.4,0.3C892.7,125,886.7,128,880.4,130.7z"/>
		<path class="st3" d="M894.4,117c4,1,13.3-2.5,17.6-6.2l-1-6.2C907.5,109.4,898.4,110.4,894.4,117z"/>
		<path class="st4" d="M912,110.8l-7.1,4.6l-2.9,10.8C906.5,122.9,911.3,118.4,912,110.8z"/>
		<path class="st5" d="M871.2,105.9c1.5,1.4,2.2,6.2,5.9,8.2c2.3-3.2,0.3-8.9-3.8-11.7C872.6,103.6,871.9,104.7,871.2,105.9z"/>
		<path class="st6" d="M876.8,105.9c2.9,4.2,0.1,4.6,0.5,10.7H876c0.2,0.8,0.4,1.7,0.6,2.7c4-2.6,10.7-1.3,17.6-1.9
			c4.4-6.2,10-6.8,16.3-11.7C900.8,111.7,888.5,111,876.8,105.9z"/>
		<path class="st5" d="M894.1,117.3c-4.2,1.1-12-1.5-17.6,1.9C871.8,139.5,891.4,128.4,894.1,117.3z"/>
		<path class="st10" d="M911.1,113.3c-0.5,0.9-2.1,0.7-3.2,3.4c2.5,0,7.7,3.5,11.8,2.4c0.1-0.6,0.8-2.5,2.2-3.6l-4.4,0.3
			c0.9-0.7,1.8-1,4.7-3.2l0.1,1l1.3-2.6l-0.9-2.6c-2.4,0.6-3.2,4.5-7.4,3.4l0.8,0.8C914.9,113.3,914.2,113.1,911.1,113.3z"/>
		<path class="st5" d="M911.1,113.3c1-0.2,2,0.2,5-0.6l-0.8-0.8c3.2,1.5,4.5-1.9,7.4-3.4c-0.3-0.9-0.7-1.7-1-2.6
			C918.8,104.2,911.8,107,911.1,113.3z"/>
		<path class="st2" d="M919.7,119.2c-2.8,1.2-6.8-1.5-11.8-2.4c-0.5,4.4,6.9,7.4,12,8C919.8,122.9,919.7,121,919.7,119.2z"/>
		<path class="st8" d="M919.7,119.2c0.1,1.9,0.1,3.7,0.2,5.6l5.2-1.1l-1.8-3c-0.6,0.3-0.2,0-3.6-1.9L919.7,119.2z"/>
		<path class="st7" d="M923.2,120.7l1.8,3c1.5-1.1,3.4-1.9,3-4.3c-1.7-0.5-1.1-2.1-1.5-3.2l0,0C925.7,117.7,925.2,118.2,923.2,120.7
			z"/>
		<path class="st8" d="M921.7,106c0.4,1.3-0.1-0.6,1.9,5.1c0,0,1.1,0.1,2.1-0.5C925.7,109,924.4,107.1,921.7,106z"/>
		<path class="st7" d="M925.7,110.6l-1.2,0.5c0.7,1.7,1.4,3.3,2,5l0,0l1.2-1.2C926.9,114.1,929,114.3,925.7,110.6z"/>
		<path class="st4" d="M927.7,114.9l-1.2,1.2c0.4,1.1-0.2,2.7,1.5,3.2L927.7,114.9z"/>
		<path class="st3" d="M926.5,116.1c-0.7-1.7-1.4-3.3-2-5h-0.9c-0.7,1.6-1.3,1.8-1.7,4.4l-0.7,0.5c1.8,1.1,1.4,3,2,4.6l0,0
			C923.9,119.6,924.8,119.3,926.5,116.1z"/>
		<path class="st11" d="M923.2,120.7c-0.6-1.6-0.3-3.6-2-4.6l-1.5,2.7C920.7,118.8,920,119.3,923.2,120.7z"/>
		<path class="st12" d="M921.9,115.6c0-0.7,0.5-0.7,0.3-2.9c-1.3,1.1-2,1.5-4.7,3.2L921.9,115.6z"/>
		<path class="st5" d="M1008,114.2l2.5,0.9c3-0.8,6.3-2.3,9.7-7.2l-0.5-0.9l-5-0.9C1014.1,109.7,1009.4,108.4,1008,114.2z"/>
		<path class="st6" d="M1008,114.2c0.1-3.8,4.5-3.6,6.7-8.1c-1.1-1.5-2.7-1.5-0.1-3.9c-1.1-1.1-0.2-0.5-3.3-1.3
			C1011.1,103,1001.8,108.7,1008,114.2z"/>
		<path class="st7" d="M1014.5,102.2c-0.1,0.1-0.2,0.3-0.2,0.4c1.5,1.4,4.7,2.3,7.2,5c-0.7-0.2-0.4-0.1-1.9-0.6
			c0.2,0.5,1.6,2.8,2.5,4.2c1.1-1.9,2.5-6.4-1.5-8.7C1018.8,102.8,1018,102.6,1014.5,102.2z"/>
		<path class="st8" d="M1022.1,111.2l-2-3.2c-0.2,0.3-2.4,3.5-4.4,4.7l3.6,2.7C1022,115.1,1022.2,113.3,1022.1,111.2z"/>
		<path class="st5" d="M1007.6,105.5c0.6-2.5,3.5-0.3,3.8-6.7c-1.6,0.7-3.4,1-5.9,4.4c0.1,0.8-0.2,0,0.3,3.2
			c0.4-0.2,0.7-0.6,1.7-1.6L1007.6,105.5z"/>
		<path class="st3" d="M1011.4,98.7c0,0.7-0.1,1.5-0.2,2.2c0.8,0.6,0.4-0.8,3.3,1.3c1.3-0.1,1.9,0.7,6,0.3L1011.4,98.7z"/>
		<path class="st2" d="M1019.3,115.3l-3.6-2.7c-1.6,2.2-1.1,1-5.3,2.5C1013.4,115.7,1016.3,116.3,1019.3,115.3z"/>
		<path class="st9" d="M1007.6,105.5l-0.2-0.7c-0.5,0.2-0.4,0.8-1.7,1.6c-0.3-1.4-0.2-0.5-0.3-3.2c0,2.3,0.1,4.7,0.2,7
			C1006,109,1006.1,111.1,1007.6,105.5z"/>
		<path class="st2" d="M1019.6,107c0,0,0.2,0.1,1.9,0.6c-1.3-1.8-4.1-2.7-7.2-5c-1.6,1.3-1.7,1.6,0.4,3.4L1019.6,107z"/>
		<path class="st5" d="M904.5,127.4l1.3,0.5c0.7-0.4,2.9-0.7,5-3.7l-0.2-0.5l-2.5-0.5C907.7,125,906.9,122.9,904.5,127.4z"/>
		<path class="st6" d="M904.5,127.4c0-0.9,0.2-0.6,3.4-4.1c-0.5-0.7-1.3-0.6-0.1-2c-0.6-0.5-0.1-0.3-1.7-0.6
			C906.9,120.7,901.3,124.8,904.5,127.4z"/>
		<path class="st7" d="M907.9,121.3l-0.1,0.2c0.7,0.6,1.9,0.9,3.7,2.6c-0.1,0,0,0-1-0.3c0.3,0.6,0.3,0.6,1.2,2.1
			c0-0.4,1.8-2.6-0.8-4.4C909.6,121.6,910.6,121.6,907.9,121.3z"/>
		<path class="st8" d="M911.8,125.9l-1-1.7c-0.3,0.2-0.8,1.4-2.2,2.4l1.8,1.4C911.7,127.9,911.8,127,911.8,125.9z"/>
		<path class="st5" d="M904.4,123c-0.2-1,1.3,0.7,1.9-3.4c-0.6,0.6-0.2-0.9-3,2.3c0,0.3-0.1,0.3,0.2,1.7c0.2-0.1,0.3-0.3,0.9-0.8
			L904.4,123z"/>
		<path class="st3" d="M906.3,119.5l-0.1,1.1c0.3,0.3,0.5-0.3,1.7,0.6c0.9,0-0.1,0.3,3.1,0.2L906.3,119.5z"/>
		<path class="st2" d="M910.3,128l-1.8-1.4c-0.6,0.9-0.4,0.6-2.7,1.3C907.3,128.4,908.9,128.4,910.3,128z"/>
		<path class="st9" d="M904.4,123l-0.1-0.4c-0.2,0.1-0.2,0.4-0.9,0.8c-0.1-0.7-0.1-0.3-0.2-1.7l0.1,3.6
			C903.5,124.9,903.9,125.2,904.4,123z"/>
		<path class="st2" d="M910.5,123.8c0.1,0,0,0,1,0.3c-0.6-0.8-1.5-1.1-3.7-2.6c-0.7,0.7-0.9,0.6,0.2,1.8L910.5,123.8z"/>
		<path class="st5" d="M950.7,130.9l5.9,2.2c9.2-1.5,16.4-7.6,22.7-16.8c-0.4-0.7-0.8-1.5-1.1-2.2l-11.7-2.2
			C964.6,120.5,952.1,119.5,950.7,130.9z"/>
		<path class="st6" d="M950.7,130.9c3.4-15,10.5-5.9,15.8-19c-3.1-4.5-7.3-2.1-0.3-9.1c-1.2-2.1-3.9-2-7.8-3
			C954.1,107,937.4,121.7,950.7,130.9z"/>
		<path class="st7" d="M966.1,102.8c-0.2,0.3-0.3,0.7-0.5,1c4.1,3.6,12,5.9,17,11.7c-0.3-0.1-2.8-0.8-4.5-1.4
			c-0.1,0.1,5.3,9.2,5.8,9.8c3.2-5.2,5.1-16-3.5-20.5C976.7,104.3,971.9,103.4,966.1,102.8z"/>
		<path class="st8" d="M983.8,124l-4.6-7.6c-1.2,2-6.8,8.9-10.3,11l8.5,6.2C983.6,133.1,984.1,128.8,983.8,124z"/>
		<path class="st5" d="M949.9,110.5c2.3-4.1,10.1-7.5,8.8-15.8c-4.4,1.4-10.3,4.6-13.9,10.3c0.3,1.7-0.3,2.4,0.8,7.6
			c0.8-0.6-0.2,0.6,4-3.8L949.9,110.5z"/>
		<path class="st3" d="M958.7,94.7l-0.4,5.2c1.7,1.2,5.5-0.5,7.8,3c5.4,0.1,6.7,1.8,14.2,0.7L958.7,94.7z"/>
		<path class="st2" d="M977.4,133.6l-8.5-6.2c-2.6,5.1-6.1,3.3-12.4,5.8C963.5,134.5,970.4,136,977.4,133.6z"/>
		<path class="st9" d="M949.9,110.5l-0.4-1.7c-0.9,0.5,0.7-0.1-4,3.8c-0.6-2.2-0.5-3.3-0.8-7.6c0.1,5.5,0.2,11,0.4,16.5
			C946.1,119.5,948.1,119.2,949.9,110.5z"/>
		<path class="st2" d="M978.1,114.1c2,0.6,1.1,0.4,4.5,1.4c-3.3-4.3-10.8-7.1-17-11.7c-4.8,4.5-4.1,3.1,0.8,8.1L978.1,114.1z"/>
		<path class="st10" d="M987.2,121c-0.5,1.3-2.6,1.1-3.9,5.4c3.8-0.4,11.6,3.7,17,1.3c0.1-1.1,0.6-3.4,2.5-5.4l-6.1,1.3
			c1-1.1,1.9-1.2,6-5.3l0.3,1.4l1.4-3.8l-1.7-3.4c-3.3,1.2-3.8,7.4-9.8,6.1l1.3,1C992.5,120.2,991.4,120,987.2,121z"/>
		<path class="st5" d="M987.2,121c1.3-0.5,2.6,0,6.9-1.7l-1.3-1c5.7,1.5,5.7-3.7,9.8-6.1c-0.6-1.1-1.2-2.3-1.9-3.4
			C995.8,106.5,986.7,113.1,987.2,121z"/>
		<path class="st2" d="M1000.2,127.6c-3.8,2.2-10.4-0.9-17-1.3c0.4,7,11.2,8.9,18.2,9.1C1001,132.9,1000.6,130.2,1000.2,127.6z"/>
		<path class="st8" d="M1000.2,127.6c0.4,2.6,0.8,5.2,1.2,7.8l7.1-2.5l-3-3.8l0,0c-0.1,0.2-0.2,0.3-0.4,0.4c-1.3-0.4-1.3-1.8-5-2.4
			L1000.2,127.6z"/>
		<path class="st7" d="M1005.5,129.1l3,3.8c2-1.8,4.4-3.3,3.4-6.6c-2.5-0.4-1.9-2.8-2.7-4.3l0,0
			C1008.4,124.4,1007.8,125.3,1005.5,129.1z"/>
		<path class="st8" d="M1000.7,108.8c0.6,1.1,2.5,4.5,3.6,6.9c0.8-0.1,1.2,0,2.8-1.2C1006.8,111.9,1004.7,109.6,1000.7,108.8z"/>
		<path class="st7" d="M1007.1,114.5l-1.6,1l3.8,6.6l0,0l1.4-1.9C1010,119.2,1010.5,116.3,1007.1,114.5z"/>
		<path class="st4" d="M1010.7,120.2l-1.4,1.9c0.8,1.5,0.2,3.9,2.7,4.3L1010.7,120.2z"/>
		<path class="st3" d="M1009.2,122.1l-3.8-6.6l-1.2,0.2c-0.8,3.1-1.5,1.9-1.6,6.5l-0.9,0.9c2.6,1.2,2.5,4,3.7,6.1l0,0
			C1006.1,127.6,1006.9,127.5,1009.2,122.1z"/>
		<path class="st11" d="M1005.5,129.2c-1.2-2.1-1-4.9-3.7-6.1c-0.5,1.4-1.1,2.7-1.7,4.1c1.7,0.2,2.4,0.7,5,2.4
			C1005.2,129.5,1005.4,129.3,1005.5,129.2z"/>
		<path class="st12" d="M1002.7,122.2c-0.1-0.4,0.3-1.4-0.1-4.1c-1.6,1.8-2.5,2.4-6,5.3L1002.7,122.2z"/>
		<path class="st0" d="M1138.2,128.4c0.5-3.5,6.2-1.5,10.6-0.6C1146.9,129.9,1141.9,130.9,1138.2,128.4z"/>
		<path class="st1" d="M1149.3,128.7c1.2-0.3,3.7,5.7-2.6,7v-0.1c1.5-0.4,0.9-0.1,1.2-4h-0.4l0.1-0.7
			C1148.6,130.3,1147.9,130.9,1149.3,128.7z"/>
		<path class="st2" d="M1146.8,135.7v0.1l-6-1.4l-0.8-3c0.7,0-0.2,0.3,2.9,0.5l0.1,0.1C1143.3,134.1,1145,134.9,1146.8,135.7z"/>
		<path class="st3" d="M1142.8,131.9c-1.3-0.4-0.9,1-4.9-1.7l0.3-1.7C1139,129.7,1140.6,129.2,1142.8,131.9z"/>
		<path class="st4" d="M1137.9,130.1c0.7,0.4,1.3,0.9,2,1.3c0.3,1,0.6,2,0.8,3C1140.3,133.3,1139.8,135.5,1137.9,130.1z"/>
		<path class="st5" d="M1149.3,128.7c-0.6,0.6,0.4,0.2-1.7,2.3c-0.3-0.2-0.4-1.9,1.1-3.3L1149.3,128.7z"/>
		<path class="st6" d="M1147.8,128.7c-0.5,0.7-0.5,1.6-0.1,2.3l-0.1,0.7h0.4c0,0.2-0.1,0.5-0.2,0.7c-1.1-0.7-1.8-0.4-4.9-0.5
			c-0.9-1.1-1.6-1.1-4.6-3.3C1141.3,129.8,1141.9,130.7,1147.8,128.7z"/>
		<path class="st5" d="M1142.9,131.9c0.9,0.3,2.1-0.5,4.9,0.5C1148.9,136.1,1144.7,136.6,1142.9,131.9z"/>
		<path class="st10" d="M1245.9,105.5c0.5,0.8,0.4-0.4,2.2,2.4c-1.5-0.1-5.1,2.4-8.3,1.7c-0.3-0.7,0.3-0.4-1.5-2.5l3.1,0.2
			c-0.8-0.6,0,0.2-3.3-2.3v0.7l-0.9-1.8l0.6-1.8c1.6,0.6,2,2.5,5.2,2.4l-0.6,0.6C1243.9,105.5,1242.6,105.2,1245.9,105.5z"/>
		<path class="st5" d="M1245.9,105.5c-1-0.2,0.1,0.3-3.5-0.4l0.6-0.6c-1.9,1-3.1-1-5.2-2.4C1238.1,98.2,1244.5,100,1245.9,105.5z"/>
		<path class="st2" d="M1239.9,109.6c2,0.8,4.3-0.9,8.3-1.7c0,3.1-3.7,4.8-8.4,5.6L1239.9,109.6z"/>
		<path class="st8" d="M1239.9,109.6l-0.1,3.9l-3.6-0.8l1.2-2.1l0,0c0.1,0.1,0.1,0.1,0.2,0.2c0.7-0.3-0.2-0.4,2.3-1.5V109.6z"/>
		<path class="st7" d="M1237.4,110.6l-1.2,2.1c-1.1-0.8-2.4-1.3-2.1-3c1.2-0.4,0.8-1.5,1.1-2.3l0,0
			C1236,108.9,1235.4,108,1237.4,110.6z"/>
		<path class="st8" d="M1238.5,100.3c-0.4,1.2-0.4,0.7-1.3,3.6c-0.4-0.1-0.4,0.2-1.5-0.4C1235.8,102.6,1236.2,101.6,1238.5,100.3z"
			/>
		<path class="st7" d="M1235.7,103.5l0.9,0.4l-1.4,3.5l0,0l-0.8-0.8C1234.8,106,1233.4,106.1,1235.7,103.5z"/>
		<path class="st4" d="M1234.3,106.6l0.8,0.8c-0.3,0.8,0.1,1.9-1.1,2.3L1234.3,106.6z"/>
		<path class="st3" d="M1235.1,107.4l1.4-3.5h0.6c0.2,0.4,1,1.4,1.2,3.1l0.5,0.4c-1.2,0.8-1,2.1-1.4,3.2l0,0
			C1236.9,109.8,1237.2,110.9,1235.1,107.4z"/>
		<path class="st11" d="M1237.4,110.7c0.4-1.1,0.2-2.5,1.4-3.2c0.3,0.6,0.7,1.3,1.1,1.9c-1.1,0.4-0.6,0.1-2.3,1.5
			C1237.6,110.8,1237.5,110.7,1237.4,110.7z"/>
		<path class="st12" d="M1238.4,107c0-0.5-0.3-0.5-0.2-2c1.4,1.1,0.3,0.3,3.3,2.3L1238.4,107z"/>
		<path class="st0" d="M1194.2,127.8c0.7-4.6,8.1-1.9,13.9-0.8C1206,129.7,1199.1,131.1,1194.2,127.8z"/>
		<path class="st1" d="M1208.8,128.3c3.2,1.3,2.6,9.3-3.4,9.2v-0.1c2-0.5,1.2-0.1,1.6-5.2h-0.5l0.1-0.9
			C1207.9,130.2,1207,131.1,1208.8,128.3z"/>
		<path class="st2" d="M1205.4,137.4v0.1l-7.9-1.8l-1.1-3.9c0.9,0-0.3,0.4,3.8,0.6l0.1,0.1C1200.9,135.3,1203.1,136.4,1205.4,137.4z
			"/>
		<path class="st3" d="M1200.3,132.4c-1.2,0.2-4.2-0.4-6.4-2.3l0.4-2.3C1195.5,129.6,1198.1,129.4,1200.3,132.4z"/>
		<path class="st4" d="M1193.8,130.1l2.6,1.7c0.4,1.3,0.7,2.6,1.1,3.9C1196.4,134.7,1194.5,133.9,1193.8,130.1z"/>
		<path class="st5" d="M1208.8,128.3c-0.8,0.8,0.5,0.3-2.2,3c-0.5-0.9-0.7-2.6,1.4-4.3L1208.8,128.3z"/>
		<path class="st6" d="M1206.7,128.3c-0.7,0.9-0.7,2.1-0.1,3l-0.1,0.9h0.5c-0.1,0.3-0.1,0.6-0.2,1c-1.4-0.9-2.4-0.5-6.5-0.7
			c-1.3-1.8-3.1-2.1-6-4.3C1198.3,129.7,1199.2,131,1206.7,128.3z"/>
		<path class="st5" d="M1200.4,132.5c1.2,0.4,2.5-0.7,6.5,0.7C1208.5,138,1202.2,138.4,1200.4,132.5z"/>
		<path class="st10" d="M1290.3,104.7c0.4,0.7,0.4-0.4,1.9,2.1c-1.4-0.1-2.5,1.6-7.1,1.4c-0.1-0.3-0.3-1.3-1.3-2.2l2.6,0.2
			c-0.7-0.5,0,0.2-2.8-1.9v0.6l-0.8-1.5l0.5-1.5c1.4,0.5,1.7,2.2,4.5,2l-0.5,0.5C1287.9,104.7,1288.7,104.5,1290.3,104.7z"/>
		<path class="st5" d="M1290.3,104.7c-0.1-0.1-2,0.1-3-0.4l0.5-0.5c-1.6,0.8-2.7-0.9-4.5-2c0.2-0.5,0.4-1,0.6-1.5
			C1284.9,99.7,1289.1,99.5,1290.3,104.7z"/>
		<path class="st2" d="M1285.2,108.2c1.6,0.7,2.6-0.4,7.1-1.4c-0.2,2.4-3,4.2-7.2,4.8L1285.2,108.2z"/>
		<path class="st8" d="M1285.2,108.2l-0.1,3.4l-3.1-0.7c0.3-0.6,0.7-1.2,1.1-1.8l0,0c0.7,0.3-0.1-0.2,2.1-1.1L1285.2,108.2z"/>
		<path class="st7" d="M1283,109.1l-1.1,1.8c-0.9-0.6-2-1.1-1.8-2.6c1-0.3,0.7-1.3,0.9-2l0,0C1281.8,107.6,1281.3,106.8,1283,109.1z
			"/>
		<path class="st8" d="M1283.9,100.3c-0.2,0.7,0-0.3-1.1,3.1c-0.3-0.1-0.4,0.2-1.3-0.3C1281.6,102.2,1281.9,101.4,1283.9,100.3z"/>
		<path class="st7" d="M1281.5,103.1l0.7,0.3l-1.2,3l0,0l-0.7-0.7C1280.8,105.2,1279.5,105.3,1281.5,103.1z"/>
		<path class="st4" d="M1280.3,105.7l0.7,0.7c-0.3,0.7,0.1,1.6-0.9,2L1280.3,105.7z"/>
		<path class="st3" d="M1281.1,106.4l1.2-3h0.5c0.2,0.9,0.6,0.2,1,2.7l0.4,0.3c-1,0.6-0.8,1.8-1.2,2.8l0,0
			C1282.5,108.3,1282.8,109.3,1281.1,106.4z"/>
		<path class="st11" d="M1283,109.1c0.4-0.9,0.2-2.1,1.2-2.8l0.9,1.6C1284.3,108,1284.8,108.5,1283,109.1z"/>
		<path class="st12" d="M1283.8,106.1c0.1,0.1-0.2-0.4-0.2-1.7c1.2,0.9,0.3,0.3,2.8,1.9L1283.8,106.1z"/>
		<path class="st5" d="M1260.3,104.3l-1,0.4c-0.1-0.1-2.9-0.9-4-3l0.2-0.4l2.1-0.4C1257.8,102.3,1259,100.9,1260.3,104.3z"/>
		<path class="st6" d="M1260.3,104.3c0.2-1.2-2.7-1.5-2.8-5c0.5-0.4,0.1-0.2,1.4-0.5C1258.7,99.9,1262.9,100.9,1260.3,104.3z"/>
		<path class="st7" d="M1257.6,99.2l0.1,0.2c-0.3,0.4-2,1-3,2.1c0.1,0,0,0,0.8-0.2c-0.3,0.5-0.3,0.5-1,1.8c0-0.3-1.5-2.1,0.6-3.6
			C1256.2,99.5,1255.4,99.5,1257.6,99.2z"/>
		<path class="st8" d="M1254.4,103l0.8-1.4c-0.3-0.4,0.7,1.2,1.8,2l-1.5,1.1C1254.5,104.7,1254.4,103.9,1254.4,103z"/>
		<path class="st5" d="M1260.5,100.6c-0.1-0.8-1.4,0-1.6-2.8c0.5,0.5,0.1-0.7,2.5,1.8c0,0.2,0,0.2-0.1,1.3c-0.2-0.1-0.2-0.2-0.7-0.7
			L1260.5,100.6z"/>
		<path class="st3" d="M1258.9,97.8l0.1,0.9c-0.2,0.2-0.4-0.3-1.4,0.5c-0.7,0,0.1,0.2-2.6,0.1L1258.9,97.8z"/>
		<path class="st2" d="M1255.6,104.7l1.5-1.1c0.3,0.7-0.1,0.1,2.2,1C1258.1,105,1256.8,105,1255.6,104.7z"/>
		<path class="st9" d="M1260.5,100.6l0.1-0.3c0.1,0,0.2,0.4,0.7,0.7c0.1-0.6,0.1-0.2,0.1-1.3l-0.1,2.9
			C1261.2,102.2,1260.9,102.4,1260.5,100.6z"/>
		<path class="st2" d="M1255.4,101.3c0,0,0,0-0.8,0.2c0.3-0.5,1.7-1.1,3-2.1c0.9,0.8,0.2,0.1-0.2,1.4L1255.4,101.3z"/>
		<path class="st0" d="M816.5,104.9c-0.6-3.5-6.2-1.5-10.6-0.6C807.8,106.4,813,107.5,816.5,104.9z"/>
		<path class="st1" d="M805.4,105.3c-1.2-0.3-3.7,5.8,2.6,7v-0.1c-1.5-0.4-0.9-0.1-1.2-4h0.4l0-0.7
			C806.1,106.8,806.8,107.5,805.4,105.3z"/>
		<path class="st2" d="M808,112.2L808,112.2l6-1.3l0.8-3c-0.7,0,0.2,0.4-2.9,0.4l-0.1,0.1C811.4,110.6,809.8,111.5,808,112.2z"/>
		<path class="st3" d="M811.9,108.4c0.9,0.2,3.2-0.3,4.9-1.7l-0.3-1.7C815.7,106.3,814.1,105.7,811.9,108.4z"/>
		<path class="st4" d="M816.8,106.6l-2,1.3c-0.3,1-0.5,2-0.8,3C814.4,109.8,815,112,816.8,106.6z"/>
		<path class="st5" d="M805.4,105.3c0.6,0.6-0.4,0.2,1.6,2.3c0.3-0.2,0.4-1.9-1.1-3.3L805.4,105.3z"/>
		<path class="st6" d="M807,105.3c0.5,0.7,0.6,1.6,0.1,2.3l0,0.7h-0.4c0,0.2,0.1,0.5,0.2,0.7c1.1-0.6,1.8-0.4,4.9-0.5
			c0.8-1.1,1.6-1.1,4.6-3.3C813.4,106.4,812.9,107.1,807,105.3z"/>
		<path class="st5" d="M811.8,108.5c-0.9,0.3-2.1-0.5-4.9,0.5C805.8,112.6,810.1,113.2,811.8,108.5z"/>
		<path class="st10" d="M742.7,81.3c-0.5,0.8-0.4-0.4-2.3,2.4c1.5-0.1,5.1,2.4,8.3,1.7c0.3-0.7-0.3-0.4,1.5-2.5l-3.1,0.2
			c0.8-0.6,0,0.2,3.3-2.3v0.7l0.9-1.8l-0.6-1.8c-1.6,0.6-2,2.5-5.2,2.4l0.6,0.6C745.5,81.3,744.5,81.2,742.7,81.3z"/>
		<path class="st5" d="M742.7,81.3c0.2-0.1,2.3,0.1,3.5-0.4l-0.6-0.6c1.9,1,3.1-1,5.2-2.4C750.5,74.1,744.1,75.8,742.7,81.3z"/>
		<path class="st2" d="M748.7,85.4c-2,0.8-4.3-0.9-8.3-1.7c0,3.1,3.7,4.8,8.4,5.6L748.7,85.4z"/>
		<path class="st8" d="M748.7,85.4l0.1,3.9l3.6-0.8l-1.2-2.1l0,0c-0.1,0.1-0.1,0.1-0.2,0.2c-0.7-0.3,0.2-0.4-2.3-1.5V85.4z"/>
		<path class="st7" d="M751.2,86.5l1.2,2.1c1.1-0.8,2.4-1.3,2.1-3c-1.2-0.4-0.8-1.5-1.1-2.3l0,0C752.7,84.8,753.3,83.8,751.2,86.5z"
			/>
		<path class="st8" d="M750.1,76.2c0.4,1.2,0.4,0.7,1.3,3.6c0.4-0.1,0.4,0.2,1.5-0.4C752.8,78.4,752.5,77.4,750.1,76.2z"/>
		<path class="st7" d="M752.9,79.4l-0.9,0.4l1.4,3.5l0,0l0.8-0.8C753.8,81.8,755.3,82,752.9,79.4z"/>
		<path class="st4" d="M754.3,82.4l-0.8,0.8c0.3,0.8-0.1,1.9,1.1,2.3L754.3,82.4z"/>
		<path class="st3" d="M753.5,83.2l-1.4-3.5h-0.6c-0.2,0.4-1,1.4-1.2,3.1l-0.5,0.4c1.2,0.8,1,2.1,1.4,3.2l0,0
			C751.8,85.6,751.4,86.7,753.5,83.2z"/>
		<path class="st11" d="M751.2,86.5c-0.4-1.1-0.2-2.5-1.4-3.2c-0.3,0.6-0.7,1.3-1.1,1.9c1.1,0.4,0.6,0.1,2.3,1.5
			C751.1,86.6,751.1,86.6,751.2,86.5z"/>
		<path class="st12" d="M750.2,82.9c0-0.5,0.3-0.5,0.2-2c-1.4,1.1-0.3,0.3-3.3,2.3L750.2,82.9z"/>
		<path class="st0" d="M786.5,86.6c-0.7-4.6-8.1-1.9-13.9-0.8C774.7,88.5,781.6,89.9,786.5,86.6z"/>
		<path class="st1" d="M771.9,87.1c-3.2,1.3-2.6,9.3,3.4,9.2v-0.1c-2.1-0.5-1.2-0.1-1.6-5.2h0.5l-0.1-0.9
			C772.8,89.1,773.7,90,771.9,87.1z"/>
		<path class="st2" d="M775.2,96.2v0.1l7.9-1.8l1.1-4c-0.9,0,0.3,0.4-3.8,0.6l-0.1,0.1C779.8,94.1,777.6,95.2,775.2,96.2z"/>
		<path class="st3" d="M780.4,91.2c1.2,0.2,4.2-0.4,6.4-2.3l-0.4-2.3C785.1,88.5,782.6,88.2,780.4,91.2z"/>
		<path class="st4" d="M786.8,88.9l-2.6,1.7c-0.4,1.3-0.7,2.6-1.1,4C784.3,93.6,786.2,92.8,786.8,88.9z"/>
		<path class="st5" d="M771.9,87.1c0.8,0.8-0.5,0.3,2.2,3c0.5-0.9,0.7-2.6-1.4-4.3L771.9,87.1z"/>
		<path class="st6" d="M773.9,87.1c0.7,0.9,0.7,2.1,0.1,3l0.1,0.9h-0.5c0.1,0.3,0.1,0.6,0.2,1c1.4-0.9,2.4-0.5,6.4-0.7
			c1.3-1.8,3.1-2.1,6-4.3C782.3,88.5,781.5,89.8,773.9,87.1z"/>
		<path class="st5" d="M780.3,91.3c-1.2,0.4-2.5-0.7-6.4,0.7C772.2,96.9,778.5,97.2,780.3,91.3z"/>
		<path class="st10" d="M729.7,84.1c-0.4,0.7-0.4-0.3-1.9,2.1c1.4-0.1,2.5,1.6,7.1,1.4c0.1-0.3,0.3-1.3,1.3-2.2l-2.6,0.2
			c0.2-0.2,1.9-1.1,2.8-1.9v0.6l0.8-1.5l-0.5-1.5c-1.4,0.5-1.7,2.2-4.5,2l0.5,0.5C731.4,84.1,732.5,83.9,729.7,84.1z"/>
		<path class="st5" d="M729.7,84.1c0.9-0.2-0.1,0.2,3-0.4l-0.5-0.5c1.6,0.8,2.7-0.9,4.5-2c-0.2-0.5-0.4-1-0.6-1.5
			C735.1,79.1,730.9,78.9,729.7,84.1z"/>
		<path class="st2" d="M734.8,87.6c-1.6,0.7-2.6-0.4-7.1-1.4c0.2,2.4,3,4.2,7.2,4.8L734.8,87.6z"/>
		<path class="st8" d="M734.8,87.6l0.1,3.4l3.1-0.7c-0.3-0.6-0.7-1.2-1.1-1.8l0,0l-0.2,0.2c-0.4-0.1-0.2-0.6-2-1.3L734.8,87.6z"/>
		<path class="st7" d="M737,88.5l1,1.8c0.9-0.6,2-1.1,1.8-2.6c-1-0.3-0.7-1.3-0.9-2l0,0C738.2,87,738.7,86.2,737,88.5z"/>
		<path class="st8" d="M736,79.7c0.1,0.2,0.5,1.2,1.1,3.1c0.3-0.1,0.4,0.2,1.3-0.3C738.3,81.6,738,80.8,736,79.7z"/>
		<path class="st7" d="M738.4,82.5l-0.7,0.3l1.2,3l0,0l0.7-0.7C739.2,84.6,740.5,84.8,738.4,82.5z"/>
		<path class="st4" d="M739.6,85.1l-0.7,0.7c0.2,0.7-0.1,1.6,0.9,2L739.6,85.1z"/>
		<path class="st3" d="M738.9,85.8l-1.2-3h-0.5c-0.1,0.4-0.9,1.2-1,2.7l-0.4,0.3c1,0.6,0.8,1.8,1.2,2.8l0,0
			C737.4,87.7,737.1,88.7,738.9,85.8z"/>
		<path class="st11" d="M737,88.5c-0.4-0.9-0.2-2.1-1.2-2.8l-0.9,1.6c0.9,0.3,0.5,0,2,1.3L737,88.5z"/>
		<path class="st12" d="M736.2,85.5c0-0.4,0.2-0.4,0.2-1.7c-0.6,0.5-1.3,0.9-2.8,1.9L736.2,85.5z"/>
		<path class="st5" d="M759.1,95.6l1,0.4c0.7-0.4,2-0.3,4-3l-0.2-0.4l-2.1-0.4C761.6,93.7,760.5,92.3,759.1,95.6z"/>
		<path class="st6" d="M759.1,95.6c-0.3-1.1,2.5-1.2,2.8-5c-0.5-0.4-0.1-0.2-1.4-0.5C760.7,91.3,756.5,92.2,759.1,95.6z"/>
		<path class="st7" d="M761.8,90.6l-0.1,0.2c0.3,0.4,2,1,3,2.1c-0.1,0,0,0-0.8-0.2c0.3,0.5,0.3,0.5,1,1.8c0-0.3,1.5-2.1-0.6-3.6
			C763.2,90.9,764,90.9,761.8,90.6z"/>
		<path class="st8" d="M765,94.4l-0.8-1.4c-0.2,0.2-0.6,1.1-1.8,2l1.5,1.1C764.9,96,765,95.3,765,94.4z"/>
		<path class="st5" d="M758.9,92c0.1-0.8,1.4,0,1.6-2.8c-0.5,0.5-0.1-0.7-2.5,1.8c0,0.3,0,0.2,0.1,1.3c0.2-0.1,0.3-0.3,0.7-0.7
			L758.9,92z"/>
		<path class="st3" d="M760.5,89.2l-0.1,0.9c0.2,0.2,0.4-0.3,1.4,0.5c0.7,0-0.1,0.2,2.6,0.1L760.5,89.2z"/>
		<path class="st2" d="M763.8,96.1l-1.5-1.1c-0.3,0.7,0.1,0.1-2.2,1C761.3,96.4,762.6,96.4,763.8,96.1z"/>
		<path class="st9" d="M758.9,92l-0.1-0.3c-0.2,0.1-0.2,0.3-0.7,0.7c-0.1-0.6,0-0.2-0.1-1.3l0.1,2.9C758.2,93.6,758.5,93.8,758.9,92
			z"/>
		<path class="st2" d="M764,92.7c0,0,0,0,0.8,0.2c-0.3-0.6-1.3-0.9-2.8-1.9c-0.1,0-0.2-0.1-0.2-0.2c-0.9,0.8-0.2,0.1,0.1,1.4
			L764,92.7z"/>
		<path class="st10" d="M1082.3,122.8c-0.6,1.1-2.5,0.9-4,4.3c3.4,0.1,9.8,4.5,14.6,3c0.3-0.9,1-3.3,2.7-4.5l-5.4,0.4
			c1.1-0.9,2-1,5.8-4l0.1,1.2l1.7-3.2l-1.1-3.2c-3,0.8-4,5.9-9.2,4.2l1,1C1087,122.7,1086.1,122.5,1082.3,122.8z"/>
		<path class="st5" d="M1082.3,122.8c1.2-0.3,2.2,0.3,6.2-0.7l-1-1c4.4,1.9,5.5-2.5,9.2-4.2l-1.3-3.2
			C1091.5,111.2,1082.8,116,1082.3,122.8z"/>
		<path class="st2" d="M1092.9,130.1c-3.5,1.5-8.9-2-14.6-3c-0.6,5.5,8.9,9.3,14.8,9.9C1093,134.7,1093,132.4,1092.9,130.1z"/>
		<path class="st8" d="M1092.9,130.1c0.1,2.3,0.1,4.6,0.2,6.9l6.4-1.4l-2.2-3.6l0,0c-1.2,0.8-0.9-1.3-4.4-2.3L1092.9,130.1z"/>
		<path class="st7" d="M1097.3,132l2.2,3.6c1.9-1.3,4.2-2.4,3.7-5.4c-2.1-0.6-1.3-2.6-1.9-4l0,0
			C1100.4,128.2,1099.7,128.8,1097.3,132z"/>
		<path class="st8" d="M1095.4,113.8c0.6,1.4,1.5,3.7,2.3,6.3c0,0,1.3,0.1,2.6-0.7C1100.3,117.1,1098.8,115,1095.4,113.8z"/>
		<path class="st7" d="M1100.3,119.4l-1.5,0.7l2.5,6.2l0,0l1.5-1.5C1101.8,123.1,1104.1,122.8,1100.3,119.4z"/>
		<path class="st4" d="M1102.8,124.8l-1.5,1.5c0.5,1.4-0.2,3.4,1.9,4C1103.1,128.4,1102.9,126.6,1102.8,124.8z"/>
		<path class="st3" d="M1101.3,126.2l-2.5-6.2h-1.1c-0.4,0.9-1.9,3.1-2.1,5.5l-0.8,0.7c2.2,1.3,1.8,3.8,2.5,5.7l0,0
			C1098.1,130.6,1099,130.5,1101.3,126.2z"/>
		<path class="st11" d="M1097.3,132c-0.8-1.9-0.4-4.4-2.5-5.7l-1.9,3.4c1.4,0.3,2.1,0.9,4.1,2.7C1097,132.3,1097.2,132.1,1097.3,132
			z"/>
		<path class="st12" d="M1095.6,125.6c0.1-0.9,0.5-1.9,0.4-3.6c-1.6,1.4-2.5,1.8-5.8,4L1095.6,125.6z"/>
		<path class="st5" d="M1103.1,136.2l1.8,0.7c1.7-0.5,5.2-2,7.1-5.3l-0.4-0.7l-3.7-0.7C1106.9,134.1,1105.9,130,1103.1,136.2z"/>
		<path class="st6" d="M1103.1,136.2c-0.6-1,2.6-2.6,5-6c-0.8-1.1-2-0.9-0.1-2.9c-0.8-0.8-0.1-0.4-2.4-0.9
			C1105.8,127.5,1098.5,132.2,1103.1,136.2z"/>
		<path class="st7" d="M1107.9,127.4l-0.2,0.3c1,1,2.7,1.2,5.3,3.7c-0.1-0.1,0,0-1.4-0.4c0.3,0.6,0.9,1.6,1.8,3.1
			c0.4-0.7,2.1-4.5-1.1-6.4C1111.1,127.8,1110.5,127.6,1107.9,127.4z"/>
		<path class="st8" d="M1113.5,134l-1.4-2.4c-0.1,0.3-1.7,2.5-3.2,3.4l2.7,2C1113.4,136.9,1113.6,135.6,1113.5,134z"/>
		<path class="st5" d="M1102.8,129.8c0.2-1.1,3.1-1.4,2.8-5c-0.9,0.9-0.2-1.3-4.4,3.2c0,0.5-0.1,0.4,0.2,2.4
			c0.3-0.1,0.5-0.5,1.3-1.2L1102.8,129.8z"/>
		<path class="st3" d="M1105.6,124.8c-0.1,0.6-0.1,1.1-0.1,1.6c0.6,0.5,0.3-0.6,2.4,0.9c1-0.1,1.7,0.5,4.5,0.2L1105.6,124.8z"/>
		<path class="st2" d="M1111.5,137l-2.7-2c-0.8,1.3-0.6,0.8-3.9,1.8C1107.1,137.3,1109.3,137.8,1111.5,137z"/>
		<path class="st9" d="M1102.8,129.8l-0.1-0.5c-0.3,0.2-0.3,0.6-1.3,1.2c-0.2-1-0.1-0.4-0.2-2.4l0.1,5.2
			C1101.6,132.4,1101.8,133.9,1102.8,129.8z"/>
		<path class="st2" d="M1111.7,130.9c0.1,0,0,0,1.4,0.4c-0.9-1.2-2.3-1.6-5.3-3.7c-1,0.9-1.3,0.9,0.3,2.5L1111.7,130.9z"/>
		<path class="st0" d="M1173.8,129c0.5-3.5,6.2-1.5,10.6-0.6C1182.8,130.4,1177.5,131.5,1173.8,129z"/>
		<path class="st1" d="M1184.9,129.4c1.2-0.3,3.7,5.7-2.6,7v-0.1c1.5-0.4,0.9-0.1,1.2-4h-0.4v-0.7
			C1184.2,130.9,1183.5,131.6,1184.9,129.4z"/>
		<path class="st2" d="M1182.3,136.3L1182.3,136.3l-6-1.3l-0.8-3c0.7,0-0.2,0.4,2.9,0.4l0.1,0.1
			C1178.9,134.7,1180.6,135.6,1182.3,136.3z"/>
		<path class="st3" d="M1178.4,132.5c-0.9,0.2-3.2-0.3-4.9-1.7l0.3-1.7C1174.6,130.4,1176.2,129.8,1178.4,132.5z"/>
		<path class="st4" d="M1173.5,130.7l2,1.3c0.3,1,0.6,2,0.8,3C1175.9,133.9,1175.3,136.1,1173.5,130.7z"/>
		<path class="st5" d="M1184.9,129.4c-0.6,0.6,0.4,0.2-1.7,2.2c-0.3-0.2-0.4-1.9,1.1-3.3L1184.9,129.4z"/>
		<path class="st6" d="M1183.3,129.4c-0.5,0.7-0.6,1.6-0.1,2.3v0.7h0.4c0,0.2-0.1,0.5-0.2,0.7c-1.1-0.7-1.8-0.4-4.9-0.5
			c-0.8-1.1-1.6-1.1-4.6-3.3C1176.9,130.4,1177.6,131.4,1183.3,129.4z"/>
		<path class="st5" d="M1178.5,132.6c0.9,0.3,2.1-0.5,4.9,0.5C1184.5,136.7,1180.2,137.3,1178.5,132.6z"/>
		<path class="st10" d="M1310,107.4c0.5,0.8,0.4-0.4,2.2,2.4c-1.5-0.1-5.1,2.4-8.3,1.7c-0.3-0.7,0.3-0.4-1.5-2.5l3.1,0.2
			c-0.8-0.6,0,0.2-3.3-2.3v0.7l-0.9-1.8l0.6-1.8c1.6,0.6,2,2.5,5.2,2.4l-0.6,0.6C1308,107.5,1306.7,107.2,1310,107.4z"/>
		<path class="st5" d="M1310,107.4c-1-0.2,0.1,0.3-3.5-0.4l0.6-0.6c-1.9,1-3.1-1-5.2-2.4C1302.2,100.2,1308.6,102,1310,107.4z"/>
		<path class="st2" d="M1304,111.5c2,0.8,4.3-0.9,8.3-1.7c0,3.1-3.7,4.8-8.4,5.6L1304,111.5z"/>
		<path class="st8" d="M1304,111.5l-0.1,3.9l-3.6-0.8l1.2-2.1l0,0c0.1,0.1,0.1,0.1,0.2,0.2c0.7-0.3-0.2-0.4,2.3-1.5V111.5z"/>
		<path class="st7" d="M1301.5,112.6l-1.2,2.1c-1.1-0.8-2.4-1.3-2.1-3c1.2-0.4,0.8-1.5,1.1-2.3l0,0
			C1300.1,110.9,1299.5,109.9,1301.5,112.6z"/>
		<path class="st8" d="M1302.6,102.3c-0.4,1.2-0.4,0.7-1.3,3.6c-0.4-0.1-0.4,0.2-1.5-0.4C1299.9,104.5,1300.3,103.5,1302.6,102.3z"
			/>
		<path class="st7" d="M1299.8,105.5l0.9,0.4l-1.4,3.5l0,0l-0.8-0.8C1298.9,107.9,1297.5,108.1,1299.8,105.5z"/>
		<path class="st4" d="M1298.4,108.5l0.8,0.8c-0.3,0.8,0.1,1.9-1.1,2.3L1298.4,108.5z"/>
		<path class="st3" d="M1299.2,109.3l1.4-3.5h0.6c0.2,0.4,1,1.4,1.2,3.1l0.5,0.4c-1.2,0.8-1,2.1-1.4,3.2l0,0
			C1301,111.7,1301.3,112.8,1299.2,109.3z"/>
		<path class="st11" d="M1301.5,112.6c0.4-1.1,0.2-2.5,1.4-3.2c0.3,0.6,0.7,1.3,1.1,1.9c-1.1,0.4-0.6,0.1-2.3,1.5
			C1301.6,112.7,1301.6,112.7,1301.5,112.6z"/>
		<path class="st12" d="M1302.5,109c0-0.5-0.3-0.5-0.2-2c1.4,1.1,0.3,0.3,3.3,2.3L1302.5,109z"/>
		<path class="st0" d="M1169.7,108.1c0.7-4.6,8.1-1.9,13.9-0.8C1181.5,109.9,1174.6,111.3,1169.7,108.1z"/>
		<path class="st1" d="M1184.3,108.5c3.2,1.3,2.6,9.3-3.4,9.2v-0.1c2-0.5,1.2-0.1,1.6-5.2h-0.5l0.1-0.9
			C1183.4,110.5,1182.5,111.4,1184.3,108.5z"/>
		<path class="st2" d="M1181,117.6v0.1l-7.9-1.8l-1.1-4c0.9,0-0.3,0.4,3.8,0.6l0.1,0.1C1176.4,115.5,1178.7,116.6,1181,117.6z"/>
		<path class="st3" d="M1175.8,112.6c-1.2,0.2-4.2-0.4-6.4-2.3l0.4-2.3C1171.1,109.9,1173.6,109.6,1175.8,112.6z"/>
		<path class="st4" d="M1169.4,110.3l2.6,1.7c0.3,1.3,0.7,2.6,1.1,4C1172,115,1170,114.2,1169.4,110.3z"/>
		<path class="st5" d="M1184.3,108.5c-0.8,0.8,0.5,0.3-2.2,3c-0.5-0.9-0.7-2.6,1.4-4.3L1184.3,108.5z"/>
		<path class="st6" d="M1182.3,108.5c-0.7,0.9-0.7,2.1-0.1,3l-0.1,0.9h0.5c-0.1,0.3-0.1,0.6-0.2,1c-1.4-0.9-2.4-0.5-6.5-0.7
			c-1.3-1.8-3.1-2.1-6-4.3C1173.9,109.9,1174.7,111.2,1182.3,108.5z"/>
		<path class="st5" d="M1175.9,112.7c1.2,0.4,2.5-0.7,6.5,0.7C1184,118.3,1177.7,118.6,1175.9,112.7z"/>
		<path class="st10" d="M1194.6,130.4c0.3,0.5,0.6-0.1,1.7,1.8c-1.2-0.1-2.2,1.5-6.2,1.3c0-0.2-0.3-1.1-1.2-1.9l2.3,0.2
			c-0.2-0.2-1.6-0.9-2.5-1.7v0.5l-0.7-1.4l0.5-1.3c1.2,0.5,1.5,1.9,3.9,1.8l-0.4,0.4C1192.6,130.4,1192.7,130.3,1194.6,130.4z"/>
		<path class="st5" d="M1194.6,130.4c-0.3-0.1-1.1,0.1-2.6-0.3l0.4-0.4c-1.4,0.7-2.4-0.8-3.9-1.8l0.5-1.3
			C1189.8,126,1193.5,125.9,1194.6,130.4z"/>
		<path class="st2" d="M1190.1,133.5c1.4,0.6,2.3-0.4,6.2-1.3c-0.2,2.1-2.7,3.8-6.3,4.2L1190.1,133.5z"/>
		<path class="st8" d="M1190.1,133.5l-0.1,3l-2.7-0.6l0.9-1.6l0,0l0.2,0.1c0.4-0.1,0.2-0.6,1.7-1.2L1190.1,133.5z"/>
		<path class="st7" d="M1188.2,134.3l-0.9,1.6c-0.8-0.6-1.8-1-1.6-2.3c0.9-0.3,0.6-1.1,0.8-1.7l0,0
			C1187.1,133,1186.6,132.3,1188.2,134.3z"/>
		<path class="st8" d="M1189,126.6c-0.3,0.9-0.3,0.5-1,2.7c-0.3,0-0.3,0.2-1.1-0.3C1186.9,128.2,1187.2,127.5,1189,126.6z"/>
		<path class="st7" d="M1186.9,129l0.7,0.3l-1.1,2.6l0,0l-0.6-0.6C1186.3,130.8,1185.1,130.9,1186.9,129z"/>
		<path class="st4" d="M1185.8,131.2l0.6,0.6c-0.2,0.6,0.1,1.4-0.8,1.7L1185.8,131.2z"/>
		<path class="st3" d="M1186.5,131.9l1.1-2.6h0.5c0.2,0.8,0.5,0.2,0.9,2.4l0.3,0.3c-0.9,0.6-0.8,1.6-1.1,2.4l0,0
			C1187.8,133.7,1188,134.5,1186.5,131.9z"/>
		<path class="st11" d="M1188.2,134.3c0.3-0.8,0.2-1.9,1.1-2.4l0.8,1.4c-0.8,0.3-0.4,0-1.7,1.2L1188.2,134.3z"/>
		<path class="st12" d="M1188.9,131.6c0.1,0.1-0.2-0.3-0.2-1.5c0.5,0.5,1.2,0.8,2.5,1.7L1188.9,131.6z"/>
		<path class="st10" d="M1226.5,105.5c0.4,0.7,0.4-0.3,1.9,2.1c-1.4-0.1-2.6,1.6-7.1,1.4c0-0.3-0.3-1.3-1.3-2.2l2.6,0.2
			c-0.7-0.5,0,0.2-2.8-1.9v0.6l-0.8-1.5l0.5-1.5c1.4,0.5,1.7,2.2,4.4,2l-0.5,0.5C1224.1,105.5,1225,105.4,1226.5,105.5z"/>
		<path class="st5" d="M1226.5,105.5c-0.1-0.1-2,0-3-0.4l0.5-0.5c-1.6,0.8-2.7-0.9-4.4-2C1219.6,100,1225,99.6,1226.5,105.5z"/>
		<path class="st2" d="M1221.4,109c1.6,0.7,2.6-0.4,7.1-1.4c-0.2,2.4-3.1,4.2-7.2,4.8L1221.4,109z"/>
		<path class="st8" d="M1221.4,109l-0.1,3.4l-3.1-0.7c0.4-0.6,0.7-1.2,1.1-1.8l0,0c0.7,0.3-0.1-0.2,2.1-1.1L1221.4,109z"/>
		<path class="st7" d="M1219.2,110l-1.1,1.8c-0.9-0.6-2-1.2-1.8-2.6c1-0.3,0.7-1.3,0.9-1.9l0,0C1218,108.5,1217.5,107.7,1219.2,110z
			"/>
		<path class="st8" d="M1220.2,101.1c-0.4,1-0.3,0.6-1.1,3.1c-0.1-0.1,0,0.3-1.3-0.3C1217.8,103,1218.2,102.2,1220.2,101.1z"/>
		<path class="st7" d="M1217.8,103.9l0.7,0.3l-1.2,3l0,0l-0.7-0.7C1217,106,1215.7,106.1,1217.8,103.9z"/>
		<path class="st4" d="M1216.6,106.5l0.7,0.7c-0.2,0.7,0.1,1.6-0.9,1.9L1216.6,106.5z"/>
		<path class="st3" d="M1217.3,107.2l1.2-3h0.5c0.1,0.4,0.9,1.2,1,2.7l0.4,0.3c-1,0.6-0.8,1.8-1.2,2.8l0,0
			C1218.8,109.2,1219.1,110.1,1217.3,107.2z"/>
		<path class="st11" d="M1219.2,110c0.4-0.9,0.2-2.1,1.2-2.8l0.9,1.6c-0.9,0.3-0.5,0.1-2,1.3C1219.4,110.1,1219.3,110,1219.2,110z"
			/>
		<path class="st12" d="M1220.1,106.9c0-0.4-0.2-0.4-0.2-1.7c1.2,1,0.3,0.3,2.8,1.9L1220.1,106.9z"/>
		<path class="st5" d="M1193.2,115.6l-1,0.4c-1-0.5-1.9-0.3-4-3l0.2-0.4l2.1-0.4C1190.7,113.7,1191.8,112.2,1193.2,115.6z"/>
		<path class="st6" d="M1193.2,115.6c0.2-1.2-2.7-1.5-2.8-5c0.5-0.4,0.1-0.2,1.4-0.5C1191.6,111.3,1195.7,112.2,1193.2,115.6z"/>
		<path class="st7" d="M1190.4,110.6l0.1,0.2c-0.3,0.4-2,1-3,2.1c0.1,0,0,0,0.8-0.2c-0.3,0.5-0.3,0.5-1,1.8c0-0.3-1.5-2.1,0.6-3.6
			C1189,110.8,1188.2,110.8,1190.4,110.6z"/>
		<path class="st8" d="M1187.3,114.3l0.8-1.4c0.2,0.2,0.6,1.1,1.8,2l-1.5,1.1C1187.3,116,1187.2,115.2,1187.3,114.3z"/>
		<path class="st5" d="M1193.3,111.9c-0.1-0.8-1.4,0-1.6-2.8c0.5,0.5,0.1-0.7,2.5,1.8c0,0.3,0.1,0.2-0.1,1.3
			c-0.2-0.1-0.3-0.3-0.7-0.7L1193.3,111.9z"/>
		<path class="st3" d="M1191.8,109.1l0.1,0.9c-0.2,0.2-0.4-0.3-1.4,0.5c-0.7,0,0.1,0.2-2.6,0.1L1191.8,109.1z"/>
		<path class="st2" d="M1188.4,116.1l1.5-1.1c0.3,0.7-0.1,0.1,2.2,1C1190.9,116.3,1189.6,116.4,1188.4,116.1z"/>
		<path class="st9" d="M1193.3,111.9l0.1-0.3c0.2,0.1,0.2,0.3,0.7,0.7c0.1-0.6,0.1-0.2,0.1-1.3l-0.1,2.9
			C1194,113.5,1193.7,113.7,1193.3,111.9z"/>
		<path class="st2" d="M1188.3,112.6c0,0,0,0-0.8,0.2c0.3-0.5,1.7-1.1,3-2.1c0.9,0.8,0.2,0.1-0.2,1.4L1188.3,112.6z"/>
	</g>
</g>
</svg>
