
<svg xmlns="http://www.w3.org/2000/svg" viewBox="0 0 1456.76 658.09">
  <defs>
    <style>
      .tree-hills--dark-cls-2{fill:url(#linear-gradient);}
    </style>
    <linearGradient id="linear-gradient" x1="1732.49" y1="124.17" x2="1732.49" y2="782.12" gradientUnits="userSpaceOnUse">
      <stop offset="0" stop-color="#b1db77"/>
      <stop offset="0.8" stop-color="#86a764"/>
    </linearGradient>
  </defs>
  <title>trees-half
  </title>
  <path class="tree-hills--dark-cls-2" d="M1456.76,139.06c.09-1.94-4.88.92-2-9.76-.42-.76-2.36,5.13-5.1,2.15,1.27.87,0-1.55,3.48-.94-1.9,1.15,6.29-15.13-1.51-7.1-4.45,4.62-2.88-.11-.45-4.43.75-5.9-12.14,7.68.51-9.39-3.51-.51-15,11.94-4.34-3,4-10.08-5.95,8.86-7.82-5.07,1.83-.43,3.52-.51,5.24-1.37-8.85.3,10.18-12.63-8.27-5.45,1,0,6.87-9.33,2.5-8,3.28-9.23-10.53,4-1.34-7.57-4.09,2.06-3.17-1.42-1.25-8.17a10.8,10.8,0,0,1-5.2,3c1-2.74,1.88-5.42,4-7.58-8.43,5.12,2.51-5.15-6.44-.2,2.9,5.36-5.44,6.25-3.47,9.9,2,2.08,2.74,4.5-5.86,10.92l4.66.22c-7.18,6.25-.72-1.36,1.7,6.41-3.8-3.07-6.7,5.9-8.83-5.32.29,1.36-7.58,6.42-8.06,2.4,3.78-2.23,4.83-.22,3.35-14-2.42,1.82-12.81,10.19-2.32-3.3.74,1-9.62,2.16-4.92.92,5.8-5.77.86-.22,4-10.8-3.43,4-10.22,5.49-1.42-5.09-1.49-.9-10.18,8.31-2.7-3-1.93-.17,1,1.34-5.22,2.58.4.6.19,13.07-5,8.25,5.13-7.3-10.84,4.26-5.4-2.28,2-2.45,2.11.7.85-10.77-3.55,3.06-8.07,4.4-1.48-2.93-4.1,2.06-3.18-1.41-1.26-8.16a10.8,10.8,0,0,1-5.2,3c1-2.74,1.88-5.42,4-7.58-8.42,5.12,2.51-5.15-6.44-.2,2.9,5.36-5.44,6.25-3.47,9.9,2,2.07,2.74,4.5-5.86,10.92l4.66.22c-1,1.27-9,5.39,0,2.38,1.61,4,3.93,4.38-6.66,3.41.41,1.35,4.85-2.8.39-1.84.1-.22.2-.43.32-.64l.09.08c.62-4.51-1.49-.72-6.85,1.74-4.06,2.22,5.68-16.38-.47-14.51-2.19,1.35-10.58,8-1-4.46.73,1-9.63,2.16-4.93.92,5.8-5.77.86-.22,4-10.8-3.43,4-10.22,5.49-1.42-5.09-1.48-.9-10.18,8.32-2.7-3-1.93-.17,1,1.34-5.22,2.58.4,1.22.23,13.21-5.52,8.09,1.09,2.76.52,2.53,5.43,9.3-11.2-2.76,3.95-1.19-11.32,7.18,2-.14,3.83.46,5.79.24-10.77,8,3.75-1.44.62,7.67.15.4-6.6-3.79-5,.94,16.51,9.86-13.2-6.42-1.73,1.71-2.71,8.52,1.5-2.15-11.18.36.53-1.34,3.11,2.07,3.53-8.17-.91,1-3.15,1.63-.63-2.82-1.85-.79-10.61,5.59-2.27-3.59-9,4.3,5.33-12.24-7.27-5.18-2-1.42,11.67-10.92-.52-5.91,4.94-3.05-1.6-6.37-.72.21-4.13.42-.64,9.76-6.13,4.73a6.18,6.18,0,0,0,.35,1.76c-1.5-.12-9.34,7.13-2.57-1.87,1.93-5.95-4.08,5.57-5.08-3.3a14.18,14.18,0,0,0,3.4-.88c-4.58,2.59,3.42-8.74-2.72-3.66-5,2.54,2.12-5.37-1-5.1,2.13-6-6.85,2.57-.87-4.92-2.54,1.16-2.15-.5-.82-5.3a7,7,0,0,1-3.38,2,13.09,13.09,0,0,1,2.57-4.93c-5.44,3.32,1.6-3.32-4.18-.13-3.58,7.46,1.53,7.31-6.06,13.52l3,.15c-4.87,4.11-.9-.83,1.11,4.16-5.35.19-3.09-2.17-11-1.89,3-1.48,2.87-1.13,2.17-9.12.33-.23-9,7.23-1.5-2.14-.84-1-5.34,6.45-.62-6.42.51,0-8.28,6.11-.92-3.3-1-.6-6.62,5.42-1.76-1.94-1.12-.2.31,1.08-3.39,1.67.26.79.16,8.58-3.58,5.26.74,1.59-.38.12,3.52,6-6.87-1.87,2-.77-7.35,4.66,1.27-.09,2.49.31,3.76.16-8.7,2.85,9.09,3.76-3.11,4.53,8.62,7.35-5.29-1.35-.85,2.17,1.39,3.82-5.14-.64.72,6l.6-.64c3.3,3.17-7.7-.36-2.7,2.59-2.36,1.64-3.69.93-3.94-2.68,1-.3.09.39,3.47-.92-6.81-.54,8.17-6.62-6.3-4.08,2.22-.45,3.19-.2,3.18-5.33,1-4.6-8.35,3.41-1.88-4.16-6.43,3.09,4.21-8.41-4.73-3.37.36-2,5.49-6.77-.31-3.4,2.26-2.06.44-5.45-.49-.3-2.58,0-.32,6.38-4,3.07.12,2.19,1.91,3.44,3.11,5-7.16-1.06,2.49-.52-6.84,4.09l3.5.15c-4.16,3.8-3-.24.92,3.2,2.25,2.39-10.24-1.43.3,3-1.4,2.62-7.34-3.94-6.14-1.61,4.5,4.07-3.8.16,2.66,6.84-3.36-.14-3.48-.35-2.84,3.51-1.36,3.13-16.62,1-28.71-.25.49-.74.06,0,.44-2-.74.35.12.63-2.56,1.8.24-.22.28-.07.24-.83.58.4,0-.7,1.58-.42,3.18-10-4.93,3.79-.52-6.34-1.2,0-6.16,4.93-.14-3.14-.79-.61-6.73,5.11-2-1.37,1.35-4.15-2.84,3.89-3.55-2.3a9.8,9.8,0,0,0,2.38-.61c-.92-9.27-2.75,5.65-3.22-9.54-1.77.81-1.49-.35-.57-3.69a4.85,4.85,0,0,1-2.35,1.36,9.12,9.12,0,0,1,1.78-3.44c-3.52,2.35.9-2.3-2.91-.09-2.45,5.16.84,4.89-4.23,9.43l2.12.1c-3.41,2.87-.63-.58.76,2.91-5.34.94.24-2.53-7.64-1.32,2.46-1.06,1.78-1.48,1.51-6.36.23-.16-6.26,5-1-1.49-.47-.81-3.85,4.62-.42-4.48-.14.49-5.49,3.59-.65-2.3-.68-.39-4.59,3.73-1.22-1.35-.62-.23-.24,1.06-2.37,1.17.19.54.11,6-2.49,3.66.51,1.11-.27.09,2.45,4.21-4.67-1.35,1.22-.49-5.12,3.25.88-.06,1.73.21,2.62.11-4.88,3.61,1.7-.65.28,3.47.07.19-3-1.71-2.26.43,6.35,3.53-4.52-1.85-.78.77,1,2.67-3.59-.44.49,4.18l.42-.45c2.31,2.21-5.36-.25-1.88,1.81-1.66,1.15-2.56.63-2.74-1.87a6.24,6.24,0,0,0,2.42-.64c-4.75-.38,5.69-4.62-4.39-2.85.67.21,2.25-.21,2.21-3.71.72-3.21-5.82,2.38-1.31-2.91-4.48,2.16,2.93-5.86-3.3-2.34,3-2.44.14-6.66-.55-2.58-1.8,0-.23,4.45-2.78,2.14.08,1.52,1.32,2.39,2.16,3.49-3.17-.6.3-.11-4.77,2.85l2.45.11c-2.91,2.65-2.12-.17.63,2.23,1.51,1.63-7-.93.21,2.1-4.62.91-3.16-3.74-4.11,1.71-1.61,1.39-3.67,2-.68-1.33-1.77.81-1.49-.35-.57-3.69A4.85,4.85,0,0,1,1174,27a9.12,9.12,0,0,1,1.78-3.44c-3.52,2.35.9-2.3-2.91-.09-2.45,5.16.84,4.89-4.23,9.43l2.12.11c-3.41,2.86-.63-.59.76,2.9-5.34.94.24-2.53-7.64-1.32,2.46-1.06,1.78-1.48,1.51-6.36.23-.16-6.26,5-1.05-1.49-1.59.2-2.86,2.93-.43-4.48-.13.49-5.48,3.59-.64-2.3-.68-.4-4.6,3.74-1.22-1.35-.62-.23-.25,1.06-2.37,1.17.18.55.11,6-2.49,3.66.51,1.11-.27.09,2.45,4.21-4.67-1.35,1.22-.49-5.12,3.25.88-.06,1.73.21,2.62.11-4.88,3.61,1.7-.65.28,3.48.07.18-3-1.72-2.26.42,6.35,3.53-4.52-1.85-.78.77,1,2.67-3.59-.44.49,4.18l.42-.45c2.31,2.22-5.36-.24-1.88,1.81-1.66,1.15-2.56.63-2.74-1.87a6.24,6.24,0,0,0,2.42-.64c-4.75-.38,5.69-4.62-4.39-2.85.67.21,2.25-.21,2.21-3.71l-.62.51c1.6-4.29-5.26,1.89-.69-3.41-4.48,2.15,2.93-5.86-3.3-2.35,3-2.46.14-6.68-.55-2.58-1.8,0-.23,4.45-2.78,2.14.08,1.52,1.32,2.4,2.16,3.49-3.17-.6.3-.1-4.77,2.85l2.45.11c-2.91,2.65-2.12-.17.63,2.23,1.51,1.63-7-.94.21,2.1-1,1.82-5.12-2.75-4.28-1.12,1,3.12.64,3.34-.13,7.21-1.71-2.71-7.5,6.82-2.69-3.61-1.73,0-8.84,7.07-.2-4.5-1.13-.89-9.65,7.33-2.82-2,1.94-5.95-4.08,5.58-5.08-3.29a14.2,14.2,0,0,0,3.4-.89c-4.57,2.59,3.42-8.73-2.72-3.65-5,2.53,2.13-5.37-1-5.1,2.13-6-6.85,2.57-.87-4.92-2.54,1.15-2.15-.51-.82-5.31a7,7,0,0,1-3.37,2,12.93,12.93,0,0,1,2.56-4.93c-5.44,3.32,1.6-3.32-4.18-.13-3.58,7.46,1.53,7.31-6.06,13.53l3,.14c-4.88,4.11-.91-.83,1.1,4.17-5.35.18-3.09-2.17-11-1.89,3-1.48,2.87-1.14,2.18-9.12.32-.24-9,7.23-1.51-2.15-2.46.41-4,4-.62-6.42.51,0-8.28,6.11-.92-3.3-1-.59-6.61,5.4-1.75-1.94-1.12-.19.3,1.09-3.4,1.68.27.79.16,8.58-3.58,5.25.74,1.59-.38.12,3.53,6-6.88-1.87,2-.76-7.36,4.67,1.27-.09,2.49.3,3.76.15-8.7,2.85,9.09,3.76-3.11,4.53,8.62,7.35-5.29-1.35-.85,2.18,1.39,3.81-5.14-.65.72,6l.6-.64c3.3,3.17-7.7-.36-2.7,2.59-2.36,1.63-3.69.93-3.94-2.68,1-.31.09.39,3.47-.93-6.81-.54,8.17-6.62-6.29-4.08,2.21-.45,3.18-.2,3.17-5.33,1-4.59-8.35,3.42-1.88-4.16-6.43,3.1,4.21-8.41-4.73-3.36.36-2,5.49-6.78-.3-3.41,2.25-2,.43-5.44-.5-.3-2.58,0-.32,6.39-4,3.08.12,2.18,1.9,3.43,3.1,5-7.16-1.06,2.5-.51-6.84,4.09l3.51.16c-4.17,3.8-3-.25.91,3.2,2.25,2.39-10.24-1.44.3,3-1.39,2.61-7.34-3.95-6.14-1.62,4.5,4.08-3.8.16,2.66,6.85-3.36-.14-3.47-.35-2.84,3.5-5.23-2.38,2,2.29-3.32,2.45-1.21,4.11-4.89,5.17.59,11.58q-17,2-34.09,4.58c2.45-8.24-5.2,2.87-1.89-10.71-1.81.19-6,3.36-1.43-2.18-2.54,1.15-2.15-.51-.82-5.31a7,7,0,0,1-3.37,2,12.93,12.93,0,0,1,2.56-4.93c-5.44,3.32,1.6-3.32-4.18-.13-3.58,7.46,1.53,7.31-6.06,13.53l3,.14c-4.88,4.11-.91-.83,1.1,4.16-5.35.19-3.09-2.16-11-1.89,3-1.47,2.87-1.13,2.18-9.12.32-.23-9,7.24-1.51-2.14-.23-1.52-5.32,7-.62-6.42.51,0-8.28,6.11-.92-3.3-1-.59-6.61,5.4-1.75-1.94-1.12-.2.3,1.09-3.4,1.68.27.78.16,8.58-3.58,5.25.74,1.59-.38.12,3.52,6-6.87-1.87,2-.76-7.35,4.67,1.27-.09,2.49.3,3.76.15-8.7,2.85,9.09,3.76-3.11,4.53,8.62,7.35-5.29-1.35-.85,2.17,1.39,3.82-5.14-.64.72,6l.6-.64c3.3,3.18-7.7-.35-2.7,2.59-2.36,1.64-3.69.94-3.94-2.67,1-.31.09.39,3.47-.93-6.81-.54,8.17-6.62-6.3-4.08,2.22-.45,3.19-.2,3.18-5.33l-.89.73c2.29-6.15-7.54,2.71-1-4.89-6.43,3.1,4.21-8.41-4.73-3.36.36-2,5.49-6.78-.31-3.41,2.26-2.06.44-5.44-.49-.3-2.58,0-.32,6.39-4,3.08.12,2.18,1.9,3.43,3.1,5-7.16-1.06,2.5-.52-6.84,4.09l3.51.15c-4.17,3.81-3-.24.91,3.21,2.25,2.38-10.25-1.44.3,3-.09.24-4.54,1.93-4.53-2.7-2.29,1.14-.51-.66-3.38,2A13.09,13.09,0,0,1,980,46.87c-5.44,3.32,1.6-3.32-4.18-.13-3.58,7.46,1.53,7.31-6.06,13.53l3,.14c-4.88,4.11-.9-.83,1.11,4.16-5.35.19-3.09-2.17-11-1.89,3-1.47,2.87-1.13,2.17-9.12.33-.23-9,7.23-1.5-2.14-.91-1-5.26,6.29-.62-6.42.5,0-8.28,6.11-.92-3.3-1-.59-6.61,5.4-1.76-1.94-1.12-.2.31,1.09-3.39,1.68.26.78.16,8.58-3.58,5.25.74,1.59-.38.12,3.52,6-6.87-1.87,2-.76-7.35,4.67,1.27-.09,2.49.3,3.76.15-8.7,2.85,9.09,3.76-3.11,4.53,8.62,7.35-5.3-1.35-.85,2.17,1.39,3.82-5.14-.64.72,6l.6-.64c2.6,2.88-5.57.15-3.81,2.18-.47-.61-2.64,2.79-2.83-2.26,1-.31.09.39,3.47-.93-6.81-.54,8.17-6.62-6.3-4.08,2.22-.45,3.19-.2,3.18-5.33l-.89.73c2.29-6.15-7.54,2.71-1-4.89-6.43,3.1,4.21-8.41-4.73-3.36.36-2,5.49-6.78-.31-3.41,2.26-2.06.44-5.45-.49-.3-2.58,0-.32,6.39-4,3.07.12,2.19,1.91,3.44,3.11,5-7.16-1.06,2.49-.52-6.84,4.09l3.5.15c-5.5,4.35-.92-1.16,1.23,4.21-.8-.11-7.94-1.9-6.15.39-2.89.86-1.45,1.44-.65-8.07-2.52,1.66-5.85,3.4-1.4-1.78-2.54,1.15-2.14-.51-.81-5.3a7.12,7.12,0,0,1-3.38,2,13,13,0,0,1,2.56-4.93c-5.44,3.32,1.6-3.32-4.18-.13-3.57,7.47,1.54,7.31-6.06,13.53l3,.15c-4.88,4.11-.9-.84,1.1,4.16-5.35.18-3.08-2.17-11-1.89,3-1.48,2.87-1.14,2.18-9.12.33-.24-9,7.23-1.51-2.14-1-.85-5.15,6.1-.61-6.43.5,0-8.29,6.11-.93-3.3-1-.58-6.61,5.4-1.75-1.94-1.12-.19.3,1.09-3.39,1.68.26.79.15,8.58-3.59,5.25.75,1.6-.37.13,3.53,6-6.88-1.88,1.95-.77-7.35,4.66,1.26-.09,2.49.3,3.76.16-8.71,2.84,9.08,3.75-3.12,4.53,8.63,7.35-5.29-1.36-.85,2.17,1.39,3.82-5.14-.64.72,6l.6-.64c3.3,3.17-7.7-.36-2.7,2.59-2.36,1.63-3.68.93-3.93-2.68,1-.31.08.39,3.47-.93-6.82-.54,8.17-6.61-6.3-4.07,2.21-.45,3.18-.21,3.17-5.33a30.79,30.79,0,0,0-2.56,2.36c7.29-8.87-7.51,2.34.68-6.53-6.43,3.1,4.21-8.41-4.72-3.36.36-2,5.48-6.78-.31-3.4,2.25-2.06.44-5.45-.49-.3-2.58,0-.33,6.38-4,3.07.12,2.18,1.9,3.43,3.11,5-7.17-1.07,2.49-.52-6.85,4.09l3.51.15c-4.16,3.8-3-.25.91,3.2,2.26,2.39-10.25-1.44.3,3-1.39,2.61-7.34-3.94-6.14-1.61,4.5,4.07-3.79.15,2.66,6.84-3.36-.14-3.47-.35-2.84,3.5.78-2.52-13.14,10-.33,15.19-.12,1.75-8.38-2.2-4.91,1.27l-1.38.46c2.08.52,0,1.46.89,2.33-10.73,2.53-5.75,5.43-6.92-5.23,2.7-5.08-8.51,4.12-.87-4.79-3.21,1.46-2.71-.63-1-6.69a8.86,8.86,0,0,1-4.26,2.47c.8-2.25,1.54-4.45,3.23-6.22-6.86,4.19,2-4.19-5.27-.16-4.52,9.41,1.93,9.22-7.65,17.07L847,91c-6.16,5.18-1.14-1,1.39,5.25-3.12-2.52-5.49,4.84-7.23-4.36.23,1.11-6.22,5.26-6.61,2,3.09-1.83,3.95-.18,2.75-11.5.41-.3-11.35,9.12-1.91-2.7-4.74,1.53-3.09,1.47-.77-8.11-2.81,3.3-8.38,4.51-1.16-4.17-1.22-.73-8.34,6.81-2.22-2.44C829.68,64.77,832,66,827,67c.33,1,.19,10.82-4.52,6.62.89,2.27.42,2.08,4.45,7.63-8.8-2.3,2.61-1-9.28,5.88,1.6-.11,3.14.38,4.74.2-11,3.59,11.47,4.74-3.93,5.72,11,9.83-7.92-3.29-1.06,2.74,1.75,4.81-6.49-.81.9,7.55l.76-.8c4.17,4-9.72-.45-3.41,3.26-2.55,1.44-5.35,2.34-5-3.37,1.26-.39.1.49,4.37-1.17-6.48-1.94,6.71-6.4-7.94-5.15,2.79-.57,4-.25,4-6.72,1.3-5.82-10.53,4.31-2.37-5.26-8.11,3.91,5.31-10.61-6-4.24.45-2.52,6.92-8.55-.39-4.3,2.84-2.59.55-6.87-.62-.37-3.26,0-.41,8-5,3.87.15,2.76,2.4,4.34,3.92,6.32-9-1.34,3.14-.65-8.64,5.16l4.43.19c-5.25,4.8-3.84-.31,1.15,4,2.84,3-12.93-1.81.38,3.8-1.76,3.3-9.26-5-7.75-2,6.13,6.32-5.47-.7,3.35,8.63-4.23-.18-4.38-.44-3.58,4.42.72-1.33-9.32,4.16-3.84,8.46-3,1.15-2.78-.71-2.8,6.55q-4.46,1.82-8.88,3.67c-.66-.8,2.28-1,0-2.33a14,14,0,0,0,3.4-.88c-4.58,2.59,3.42-8.74-2.72-3.66-5,2.54,2.12-5.37-1-5.1,2.13-6-6.85,2.57-.87-4.92-2.54,1.16-2.15-.5-.82-5.3a7,7,0,0,1-3.38,2,13.09,13.09,0,0,1,2.57-4.93c-5.44,3.32,1.6-3.32-4.18-.13-3.58,7.46,1.53,7.31-6.07,13.53l3,.14c-4.88,4.11-.9-.83,1.11,4.16-5.35.19-3.09-2.17-11-1.89,3-1.47,2.87-1.13,2.17-9.12.33-.23-9,7.23-1.5-2.14-2.54.55-3.19,3-.62-6.42.5,0-8.29,6.11-.92-3.3-1-.59-6.61,5.39-1.76-1.94-1.12-.2.31,1.08-3.39,1.68.26.78.16,8.58-3.58,5.25.74,1.59-.38.12,3.52,6-6.87-1.87,2-.77-7.35,4.67,1.27-.1,2.49.3,3.76.15-8.7,2.85,9.09,3.76-3.11,4.53,8.62,7.35-5.3-1.35-.85,2.17,1.39,3.82-5.14-.64.71,6l.61-.64c3.3,3.17-7.7-.35-2.7,2.59-2.36,1.64-3.69.93-3.94-2.67,1-.31.09.38,3.47-.93-6.81-.54,8.17-6.62-6.3-4.08,2.22-.45,3.19-.2,3.18-5.33,1-4.6-8.35,3.41-1.89-4.16-6.42,3.09,4.22-8.41-4.72-3.36.36-2,5.49-6.78-.31-3.41,2.26-2.06.44-5.45-.49-.3-2.58,0-.32,6.38-4,3.07.12,2.19,1.9,3.44,3.11,5-7.16-1.06,2.49-.52-6.84,4.09l3.5.15c-4.16,3.8-3-.24.91,3.2,2.26,2.39-10.25-1.44.31,3-1.4,2.62-7.34-3.94-6.14-1.61,4.5,4.07-3.8.16,2.65,6.85-3.35-.15-3.47-.36-2.83,3.5-5.24-2.37,2,2.28-3.32,2.44-5.25,3.55,2.71,6.31-3.08,7.75-.38,2.2-14,11.93-2.42-2.37.74,1-9.62,2.15-4.92.92,5.79-5.78.85-.23,4-10.81-3.44,4-10.22,5.5-1.42-5.08-1.48-.91-10.19,8.32-2.7-3-1.94-.17,1,1.35-5.23,2.59.41,1.21.24,13.21-5.51,8.08,1.09,2.77.51,2.54,5.42,9.31-11.19-2.76,4-1.2-11.31,7.18,2-.14,3.83.46,5.78.23-10.76,8,3.76-1.43.63,7.67.15.41-6.6-3.78-5,.94,16.5,9.86-13.2-6.41-1.73,1.71-6.63,9.08,6.42,4.08-3.72,11.7-1.81.66-4.72,4.26-4.47-3.6,1.54-.47.13.6,5.34-1.43-6.57,2,2.3-6.15-1.61-8.11-1.64.28-1.66,5.66-8.08,1.84,3-1,4.83.8,4.88-8.2l-1.36,1.11h0c3.51-9.45-11.61,4.17-1.53-7.53-9,4.31,5.33-12.23-7.28-5.17-2-1.42,11.68-10.92-.51-5.91,4.93-3-1.6-6.38-.72.21-4.14.42-.65,9.75-6.14,4.73.19,3.36,2.93,5.28,4.79,7.71-11-1.64,3.83-.8-10.54,6.29l5.4.24c-6.59,5.88-3.21-.58,1.4,4.92,3,3.31-14.25-1.33.47,4.64-2.15,4-11.3-6.07-9.45-2.49,7.48,7.73-6.68-.85,4.09,10.54-5.1,1.48-5.76-3.56-4.37,5.39-2.07-2.64-5.87,1.32-.35,2.59l-.68-.24c-1.9-.66-18.39,12.26-6.63-2.42.73,1-9.63,2.15-4.92.92,5.79-5.78.85-.23,4-10.81-3.43,4-10.21,5.5-1.42-5.08-1.48-.91-10.18,8.31-2.7-3-1.93-.17,1,1.34-5.22,2.59.4,1.21.24,13.21-5.51,8.08,1.08,2.77.51,2.54,5.42,9.31-11.2-2.76,3.95-1.2-11.32,7.18,2-.15,3.84.46,5.79.23-10.76,8,3.75-1.43.62,7.67.15.41-6.59-3.78-5,.94,16.5,9.86-13.21-6.41-1.74,1.71-6.56,9.3,6,3.54-3.66,11.75-3.18,2.55-4.18,2-4.52-3.65,1.53-.47.13.6,5.34-1.43-6.58,2,2.3-6.15-1.61-8.11-1.64.28-1.66,5.66-8.09,1.84,3-1,4.84.8,4.89-8.21a12.46,12.46,0,0,0-2.18,2c6.42-10.74-12,3.81-.72-8.42-9,4.31,5.33-12.23-7.27-5.17-2-1.42,11.67-10.92-.52-5.91,4.94-3-1.6-6.38-.71.21-4.14.42-.65,9.75-6.14,4.73.18,3.36,2.93,5.28,4.78,7.71-11-1.64,3.84-.8-10.53,6.29l5.4.23c-6.59,5.89-3.22-.57,1.4,4.93,3,3.31-14.26-1.33.46,4.63-2.14,4-11.3-6.06-9.44-2.48,7.48,7.72-6.68-.85,4.08,10.54-5.1,1.48-5.75-3.56-4.37,5.39-8.08-3.24,3.41,4.08-5.11,3.76l-1.46.58c.83-1.25,1.26-1.58-.79-.64-2.19,4.66.72,4.69-3.77,8.43l1.88.09c-3,2.57-.56-.52.69,2.6-4.78.84.21-2.26-6.83-1.18,6.35-5.44-4.08-2.77.41-7-.54-.57-3.24,3.86-.38-4-.12.44-4.9,3.21-.57-2.06-.8-.1-3.82,2.75-1.1-1.21-.55-.2-.22,1-2.11,1.05.16.49.09,5.35-2.23,3.27.46,1-.24.08,2.19,3.77-4.17-1.21,1.09-.44-4.58,2.91.79-.06,1.55.18,2.34.09-4.35,3.23,1.52-.58.26,3.11.06.16-2.67-1.54-2,.38,5.67,3.16-4-1.66-.71.69.87,2.38-3.2-.4.45,3.73l.38-.4c2,2-4.8-.22-1.69,1.61-1.48,1-2.29.57-2.45-1.66a5.91,5.91,0,0,0,2.16-.58c-4.23-.33,5.08-4.14-3.92-2.54.6.18,2-.2,2-3.32.64-2.87-5.2,2.12-1.18-2.6-4,1.93,2.63-5.23-2.94-2.09,2.68-2.22.12-6-.5-2.31-1.6,0-.2,4-2.48,1.91.07,1.37,1.18,2.14,1.93,3.12-2.83-.53.27-.09-4.26,2.55l2.18.1c-2.59,2.37-1.89-.16.57,2,1.4,1.48-6.36-.88.19,1.88-.87,1.63-4.57-2.46-3.82-1,.87,2.8.56,3-.12,6.45-1.17-1.26-2.1.86,0,1-.14.06-.09.15-.4,0-7.18,2.36,3.58,2-5.75,4-3.57,7.46,1.54,7.31-6.06,13.53l3,.14c-4.88,4.11-.9-.83,1.1,4.16-5.35.19-3.08-2.16-11-1.89,3-1.47,2.87-1.13,2.18-9.12.33-.23-9,7.24-1.51-2.14-2.53.55-3.18,3-.61-6.42.5,0-8.29,6.11-.93-3.3-1-.58-6.6,5.39-1.75-1.94-1.12-.2.3,1.09-3.39,1.68.26.78.15,8.58-3.58,5.25.74,1.59-.38.12,3.52,6-6.88-1.87,2-.76-7.35,4.67,1.26-.09,2.49.3,3.76.15-8.71,2.85,9.08,3.76-3.12,4.53,8.63,7.35-5.29-1.35-.85,2.17,1.39,3.82-5.14-.64.72,6l.6-.64c3.31,3.18-7.7-.35-2.7,2.59-2.36,1.64-3.68.93-3.93-2.67,1-.31.08.39,3.47-.93-6.81-.54,8.17-6.62-6.3-4.08,2.22-.45,3.18-.2,3.17-5.33,1-4.59-8.34,3.42-1.88-4.16-6.43,3.1,4.21-8.41-4.72-3.36.36-2,5.48-6.78-.31-3.41,2.25-2.05.44-5.45-.49-.3-2.58,0-.33,6.39-4,3.08.12,2.18,1.9,3.43,3.11,5-7.17-1.06,2.49-.52-6.85,4.09l3.51.15c-4.16,3.81-3-.24.91,3.21,2.26,2.38-10.24-1.44.3,3-1.39,2.61-7.34-3.95-6.13-1.62,4.5,4.08-3.8.16,2.65,6.85-3.36-.15-3.47-.35-2.84,3.5.78-2.52-13.14,10-.33,15.18-.12,1.75-8.38-2.2-4.91,1.28l-1.38.46c2.08.52,0,1.46.89,2.33,4.77,10.54-3.37-2.43-2.1,6.2,1.35,1.29,7,1.32,1.86,2.86a12.49,12.49,0,0,0,4.75.47c4.77,2.82-7.41,19-15.29,17.47.25-.7,7.95-1.2,2.48-10.38,3.05-5.55-.9-1.11-6.28.28-1-.91,1.57-.81,4.83-7.24.73,1-9.63,2.15-4.92.92,5.79-5.78.85-.23,4-10.81-3.43,4-10.21,5.5-1.42-5.08-1.48-.9-10.17,8.3-2.7-3-1.93-.18,1,1.34-5.22,2.58.4,1.21.24,13.21-5.51,8.09,1.08,2.76.51,2.53,5.42,9.3-11.2-2.76,4-1.2-11.32,7.18,2-.14,3.84.46,5.79.23-10.76,8,3.75-1.43.62,7.68.15.4-6.59-3.79-5,.93,16.5,9.86-13.21-6.41-1.74,1.71,2.31,6.28-7.46-1.1,1.1,9.22l.93-1c5.08,4.88-11.85-.55-4.16,4-2.13.93-6.69,4.19-6-4.12,1.53-.47.13.6,5.34-1.42-6.58,2,2.3-6.16-1.61-8.12-1.64.28-1.66,5.66-8.09,1.84,3-.95,4.84.8,4.89-8.2l-1.37,1.11c3.52-9.45-11.61,4.17-1.53-7.52-9,4.3,5.33-12.24-7.27-5.18-2.05-1.42,11.67-10.92-.52-5.91,4.94-3.05-1.6-6.37-.71.21-4.14.42-.65,9.75-6.14,4.73.18,3.36,2.93,5.28,4.78,7.71-11-1.64,3.84-.8-10.53,6.29l5.4.24c-6.59,5.88-3.22-.58,1.4,4.92,3,3.31-14.26-1.32.46,4.64-2.14,4-11.3-6.07-9.44-2.49,7.47,7.73-6.68-.85,4.08,10.54-5.1,1.48-5.75-3.56-4.37,5.39-2.07-2.64-5.87,1.32-.35,2.59l-.67-.24c-13.39,1.76,1.46,11.09-5.79,7.83-1.8-4.54-5.78,9.45,6.3,13.19-1.22,3-12.66-3.44-7.55,2l-2.13.7c3.2.8,0,2.25,1.38,3.6-1.94,1.52,1.48,2,1.72,6.87-6.77-4.92-7.77.93.41,6-1.83.66-4.43-3.9-2.5,1.1.09,4.43-.13-2.18-4.32,3.58l1.69.08-2.51,2.31c-9.78-.27-3.81,5.77-4.59-10.18.39-.26-10.45,8.39-1.75-2.48-.93-1.22-6.24,7.48-.71-7.46,1.62-1-9.8,8.37-1.08-3.83-1.12-.69-7.67,6.26-2-2.26-1.3-.23.36,1.26-3.93,1.95.3.92.17,10-4.16,6.1.82,2.08.38,1.91,4.09,7-8.1-2.12,2.4-.92-8.54,5.41,1.47-.1,2.89.35,4.37.18-10.11,3.31,10.55,4.37-3.62,5.26,10.09,9.06-7.29-3-1,2.53,1.61,4.43-6-.75.83,6.95l.69-.74c3.84,3.68-8.94-.42-3.13,3-2.35,1.32-4.93,2.15-4.57-3.11,1.16-.36.1.45,4-1.08-6-1.78,6.17-5.89-7.31-4.73,2.57-.53,3.7-.24,3.68-6.19,1.19-5.36-9.69,4-2.18-4.84-7.47,3.6,4.89-9.76-5.49-3.9.42-2.33,6.37-7.87-.36-4,2.62-2.39.51-6.32-.57-.34-3,0-.37,7.41-4.63,3.56.14,2.54,2.21,4,3.61,5.82-8.32-1.23,2.9-.6-7.95,4.75l4.08.17c-4.84,4.42-3.53-.28,1.05,3.72,2.62,2.78-11.89-1.66.35,3.5-1.61,3-8.52-4.58-7.12-1.88,5.64,5.83-5-.64,3.08,7.95-3.9-.16-4-.41-3.3,4.07-5.19-2,2,1.23-5.36,3.91-1.26.38,3.91,7.7.26,2.77a1.64,1.64,0,0,0-.27.84c-1.19-.93-2.56-.52-.42,1.74-1.54.56,2.78,1.18.84,2.59.24-.73-.7-.47-.73.34-4.3-1.14,1.73,2.5-.26,3.56.88,1.82-.13.6-1.74,3.9,4.16,4.26-5.44-4.15,1.67,5.58-1.35.44-4.39-2.82-1.89,1.06-.65-.74-2.66-1.31-1.07,1.43-1.76-.55-.74-1.23-3,1.55a13.37,13.37,0,0,1,2.94.29c-4.88,3.86-.66-.9,1.19,4-5.35.18-3.09-2.17-11-1.89,3-1.48,2.87-1.14,2.18-9.12.32-.24-9,7.23-1.51-2.14-2.54.54-3.19,3-.62-6.43.51.05-8.28,6.12-.92-3.3-1-.58-6.61,5.39-1.75-1.94-1.12-.19.3,1.09-3.4,1.68.27.79.16,8.58-3.58,5.25.74,1.6-.38.13,3.53,6.05-6.88-1.88,1.95-.77-7.36,4.66,1.27-.09,2.49.3,3.76.16-8.7,2.84,9.09,3.75-3.11,4.53,8.62,7.35-5.29-1.36-.85,2.17,1.39,3.82-5.14-.64.72,6l.6-.64c3.3,3.17-7.7-.36-2.7,2.59-2.36,1.63-3.69.93-3.94-2.68,1-.3.09.39,3.47-.93-6.81-.54,8.17-6.62-6.29-4.07,2.21-.45,3.18-.2,3.17-5.33,1-4.6-8.35,3.41-1.88-4.17-6.43,3.1,4.21-8.4-4.73-3.36.36-2,5.49-6.77-.3-3.4,2.25-2.06.43-5.45-.5-.3-2.58,0-.32,6.38-4,3.07.12,2.18,1.9,3.43,3.1,5-7.16-1.06,2.5-.52-6.84,4.09l3.51.15c-4.17,3.8-3-.25.91,3.2,2.25,2.39-10.25-1.44.3,3-1.39,2.61-7.34-3.94-6.14-1.61,4.5,4.07-3.8.15,2.66,6.84-3.36-.14-3.47-.35-2.84,3.5,1-2.65-13.23,9.74-.33,15.19-.12,1.75-8.38-2.2-4.91,1.28l-1.38.45c2.08.52,0,1.46.89,2.34,4.77,10.53-3.37-2.43-2.1,6.19,1.35,1.29,7,1.33,1.86,2.86a9.92,9.92,0,0,0,3.93.48q-7.67,5.83-15.61,11.7c2.72-5-5.85.83-.85-4.72-1.77.8-1.5-.36-.57-3.7a4.85,4.85,0,0,1-2.35,1.36,9,9,0,0,1,1.78-3.43c-3.52,2.34.9-2.31-2.91-.09-2.45,5.15.84,4.88-4.23,9.43l2.11.1c-3.4,2.86-.63-.59.77,2.9-5.34.94.24-2.53-7.64-1.32,2.46-1.06,1.78-1.48,1.51-6.36.23-.16-6.26,5-1.05-1.49-1.59.2-2.86,2.92-.43-4.48-.13.49-5.48,3.59-.64-2.3-.68-.4-4.6,3.74-1.22-1.35-.62-.23-.25,1.06-2.37,1.17.18.55.11,6-2.49,3.66.51,1.11-.27.09,2.45,4.21-4.67-1.35,1.22-.49-5.12,3.26.88-.07,1.73.2,2.62.1-4.88,3.61,1.7-.65.28,3.48.07.18-3-1.72-2.26.42,6.35,3.53-4.52-1.84-.79.78,1,2.66-3.58-.45.5,4.17l.42-.44c2.31,2.21-5.36-.25-1.88,1.8-1.66,1.15-2.56.63-2.74-1.87a6.24,6.24,0,0,0,2.42-.64c-4.75-.38,5.69-4.62-4.39-2.84.67.2,2.25-.22,2.21-3.72a9.11,9.11,0,0,0-1.37,1.29c4.29-6.77-5.61,2.74.06-4.19-4.48,2.16,2.93-5.86-3.3-2.35,3-2.46.13-6.67-.55-2.58-1.8,0-.23,4.45-2.78,2.14.08,1.52,1.32,2.4,2.16,3.49-3.17-.6.3-.1-4.77,2.85L260,481c-2.91,2.65-2.12-.17.63,2.23,1.51,1.63-7-.94.21,2.1-1,1.82-5.12-2.75-4.28-1.12,1,3.12.64,3.35-.13,7.21.52-1.74-9.15,7-.23,10.59-.08,1.22-5.84-1.54-3.42.89l-1,.32c1.45.36,0,1,.62,1.62,3.33,7.35-2.35-1.69-1.46,4.32.94.9,4.85.93,1.29,2a5.1,5.1,0,0,0,1.2.28q-13.67,9.23-28.1,18.45c.19-.35.38-.71.59-1.07-4.09,2.06-3.17-1.42-1.25-8.17a10.89,10.89,0,0,1-5.2,3c1-2.75,1.88-5.43,3.95-7.59-8.43,5.12,2.51-5.15-6.44-.2,2.9,5.36-5.44,6.25-3.47,9.9,2,2.08,2.74,4.5-5.86,10.92l4.66.22c.8.67-5.38,2.17-4.1,3.68l-2.61,1.6c3.58-9.63-4.79,3.59-8.48-1.78,3.77-2.25,4.83-.22,3.35-14-2.42,1.81-12.82,10.21-2.32-3.3.74,1-9.62,2.16-4.92.92,5.8-5.77.86-.22,4-10.8-3.43,4-10.22,5.49-1.42-5.09-1.48-.9-10.18,8.33-2.7-3-1.93-.17.95,1.34-5.22,2.58.4,1.22.23,13.21-5.52,8.09,1.09,2.76.52,2.53,5.42,9.3-11.19-2.76,3.95-1.19-11.31,7.18,1.95-.14,3.83.46,5.78.24-10.76,8,3.76-1.43.63,7.67.15.4-6.6-3.79-5,.94,16.51,9.86-13.2-6.42-1.73,1.71,2.31,6.27-7.46-1.11,1.1,9.22l.92-1c5.09,4.88-11.85-.55-4.15,4-2.13.92-6.69,4.19-6.06-4.12,1.54-.47.13.6,5.34-1.43-6.57,2,2.3-6.15-1.6-8.12-1.65.29-1.67,5.66-8.09,1.84,3-.94,4.84.81,4.88-8.2-.9,1.06-3.14,1.63-.62-2.82-1.85-.79-10.61,5.59-2.27-3.59-9,4.3,5.33-12.24-7.27-5.17-2.05-1.43,11.67-10.93-.52-5.92,4.94-3-1.6-6.37-.72.21-4.14.42-.65,9.76-6.13,4.73.18,3.36,2.92,5.29,4.78,7.71-11-1.63,3.84-.8-10.53,6.3l5.39.23c-6.59,5.89-3.21-.58,1.4,4.93,3,3.3-14.25-1.33.47,4.63-2.15,4-11.3-6.07-9.45-2.48,7.48,7.72-6.68-.86,4.09,10.53-5.1,1.48-5.76-3.56-4.37,5.4-3.94-2.05-3,.23-1.8,3.47-5.15.27-7.33.62-2.72,8.18-2.45-3.44-8.31-2-.41,9.51.45.68-5.07,1.1-4.71,2.51q-5.08,2.68-10.27,5.36C32.79,635.22.06,639.38,0,658.09H1456.76Z"/>
</svg>
