<svg xmlns="http://www.w3.org/2000/svg" viewBox="0 0 2480.09 790.48">
  <defs>
    <style>
      .tree-hills-light-cls-1,
      .tree-hills-light-cls-2{fill:url(#linear-gradient);}
    </style>
    <linearGradient id="linear-gradient" x1="1857.23" y1="125.6" x2="1857.23" y2="782.17" gradientUnits="userSpaceOnUse">
      <stop offset="0" stop-color="#c2b59b"/>
      <stop offset="0.4" stop-color="#534c47"/>
      <stop offset="0.8" stop-color="#231f20"/>
    </linearGradient>
  </defs>
  <title>tree-hills--light
  </title>
    <path class="tree-hills-light-cls-1" d="M2480,246.56c-.36-.72.22-4.9,0-7.33-5.16.52-.69-2.37-3.21-5.35.59-.84,1.08,1.14,3.21-1.43a3.17,3.17,0,0,1-1.23-.13c1.75-.51,1.19-4.17,1.23-7.15-8.29,4.19-4,2.76-2.32-7.26-3.18,2.28-.25-1.12-1.26-3.52,0,.28-11.24,8.47-1.49-2.93-1.27.36-2.06,1.15-3.15,1.21,2-5.66-.43-3.24,1.89-9.37a10.8,10.8,0,0,1-5.2,3c1-2.74,1.89-5.43,3.95-7.59.59-1.31-8.48,7.59-2.15-2.4-1.47-.14.58,1-4.28,2.2,2.78,8-9.18,5-.11,14.6-2.27.68-2.93-1.84-4.73-2,1.21,1.66,3.12,8.2-2.19,4.65.55,2-.63,2.9-2.3,3.62l4.66.22c-9.84,5.07,5.39,1.14-.19,6.17-2.34-3.45-5,6.79-6.94-5.08-9,7.58-5.94,3.18-3.28-7.44-3.94,1.86-1.27.74-1.43-4.19-2.41,1.79-12.85,10.24-2.32-3.3-.14,1.47-9.65,2.13-4.92.92,5.79-5.78.85-.23,4-10.8-3.43,4-10.21,5.49-1.42-5.09-1.48-.9-10.17,8.31-2.7-3-1.94-.17-1.22,2.65-5.22,2.58.1,1.08.09,13.15-5,8.24,3.48-10.78-11.76,13.05-3.28-9.52-3.18,2.27-.25-1.11-1.26-3.52,0,.27-11.24,8.47-1.49-2.93-1.27.35-2.06,1.15-3.15,1.21,2-5.66-.43-3.24,1.9-9.37a10.84,10.84,0,0,1-5.2,3c1-2.74,1.88-5.43,3.94-7.59.59-1.31-8.47,7.59-2.15-2.4-1.47-.14.58,1-4.28,2.2,2.78,8-9.17,5-.11,14.6-2.26.68-2.93-1.84-4.73-2,1.21,1.67,3.12,8.21-2.19,4.66.56,1.95-.63,2.9-2.3,3.62l4.66.22c.21.25-9.15,5.77-1.45,2.66-.71-1.86,10.26,5.76-5.22,3.13-.51,1.38,5.36-2.41.39-1.84.1-.22.21-.43.32-.65l.1.09c1-.56-.21-3.65-1.5-1.93-9,6.86-5.84,3.2-3-7.81-3.94,1.86-1.28.74-1.43-4.19-2.42,1.79-12.86,10.24-2.33-3.3-.14,1.47-9.65,2.13-4.92.92,5.79-5.78.85-.23,4-10.81-3.44,4-10.22,5.5-1.42-5.08-1.49-.91-10.18,8.32-2.71-3-1.94-.17-1.21,2.65-5.22,2.58,0,1.36.3,13.4-5.51,8.09,1.09,2.76.51,2.53,5.42,9.3-1.46-.43-.07.81-5.72-2.63,1.2,1.86,3.75,10-2.5,5.55-1,.59,2.16,1.48-3.1,4.26,2-.14,3.84.46,5.79.24-2,1.18-8.88,6.91-1.78,3.21,1.6-1.79,8.88,8.38-2,3.1-2.77.87,12.51,12.81-5,.22.19.89-.28,5.81,2.69,3.78.33,2.07.54,4.62-4.14,2.53,1.16-6.15,1-.78-7-2.17,2.94-2.13,3.26-.37,3.52-8.16l-1.36,1.12c4.39-11.38-13.1,6.87-1.54-7.53-9.1,3.7,5.41-12.29-7.27-5.18-2.05-1.42,11.68-10.92-.52-5.91,6.91-5.84-2.79-4.7-.71.21-4.21-.16-.09,10.38-6.14,4.73a6.18,6.18,0,0,0,.36,1.76c-1.5-.12-9.35,7.13-2.57-1.88-.82-.85.36.45.66-2.11-.93.05-5.52,5.91-5.75-1.18A13.94,13.94,0,0,0,2347,172c-.82-.19-1.48.11-2.13-.12,5.59-10.06-5.63,3.73-.7-9.36.64-4.39-7.38,3.1-1.79-4.19-.82.23-1.34.74-2,.79,1.41-3.3-.4-2.16,1.23-6.09a7.14,7.14,0,0,1-3.38,2,13,13,0,0,1,2.56-4.93c.38-.86-5.5,4.92-1.39-1.56-1-.1.37.65-2.79,1.43,1.71,5.6-6.17,2.64-.07,9.48-1.47.44-1.9-1.2-3.07-1.33.73,1,1.82,5.28-1.42,3,.36,1.27-.41,1.89-1.5,2.35l3,.15c-1.91,2.48-5.12,1.51.37,2.34.41.52,1.52,3.48-4.72,1,2.47-5.93-3.5,2.33-5.52-1.06,1.2-1.09,2.86.52,3.11-6.39-1.15.68-2.64,1.21-.43-2.31-2.15,0-7.4,4.39-2-2.56.48.66-6.25,1.4-3.2.59,3.94-3.66.35-.5,2.59-7-2.23,2.61-6.64,3.57-.92-3.31-1-.6-6.63,5.43-1.76-1.94-1.12-.19.3,1.09-3.39,1.68.26.79.15,8.58-3.58,5.26.7,1.79.33,1.64,3.52,6-.95-.28,0,.53-3.72-1.71.63,1,2.27,6.46-1.62,3.6-.65.39,1.4,1-2,2.77,1.27-.09,2.49.3,3.76.16-8,3.42,5.11,2-.5,4.62-2.68-.76-4.07.57,1.64,3-2.28,1.18-2.89-.24-6.86-3.35.18-.14-.89,2.64,1.75,2.46,1.39,3.82-5.14-.64.72,6l.6-.64c3.31,3.17-7.7-.36-2.7,2.59-2,1.14-4.24,1.85-3.93-2.68,1-.3.08.39,3.47-.93H2306c2.64-5.91,3.18-3.52-4.06-4.07,2.22-.45,3.18-.2,3.17-5.33l-.88.73c2.28-6.15-7.55,2.7-1-4.9-6.43,3.1,4.21-8.4-4.72-3.36.36-2,5.48-6.77-.31-3.4,2.25-2.06.44-5.45-.49-.3-2.58,0-.33,6.38-4,3.07.12,2.18,1.9,3.43,3.11,5-1.63.51-2.19-1.15-3.44-1.27,1.75,3.31.74,2.82-3.41,5.36l3.51.15c-4.16,3.8-3-.25.91,3.2,2.25,2.39-10.24-1.43.3,3-1.86,2-9.57-4.7-4.87-.43-5,5.8,5.87,2.21-1.22,6.65-.49.26.61,1.09-.23,2.51-.73-.43-3.71-1.66-1.43,1.47-1.17,2.55-20.43-2.06-27.27-1.71.48-.74.06,0,.43-2-.83.41.32.49-2.56,1.8.25-.22.28-.07.25-.83.58.39,0-.7,1.57-.42,3.31-7.72-3.95.79-1.39-4.5,3.26-5.59-6.8,5.18.74-5-.79-.61-6.73,5.11-2-1.37-.58-.51.41,0,.47-1.47-1.64,1.11-3.45,3-4-.83a9.74,9.74,0,0,0,2.37-.62c-.57-.13-1,.08-1.48-.08,3.9-7-3.93,2.6-.49-6.53.44-3.06-5.13,2.15-1.24-2.92-.58.16-.94.52-1.43.55,1-2.3-.28-1.5.86-4.25a5,5,0,0,1-2.36,1.37,9.14,9.14,0,0,1,1.79-3.44c-.49.17-3.49,2.38-1-1.09-.55-.13-.09.69-1.94,1,1.19,3.91-4.31,1.84-.05,6.61-1,.31-1.33-.83-2.15-.92.51.67,1.27,3.67-1,2.1.25.89-.28,1.32-1,1.64l2.11.1c-5.39,1.23,5.27,3-1.72,2.42-2.74,3.94,2.25-5.5-4-.09-2.49-.87.89.32,1-5.2-.08-.07-1.35,1.26-1-.24,2.06-3.42-5.56,2.76-.66-3.15-.49-.8-3.83,4.59-.43-4.48-.14.49-5.48,3.59-.64-2.3-.69-.39-4.59,3.72-1.23-1.36-.78-.13.21.76-2.36,1.17.18.55.11,6-2.5,3.67.52,1.1-.26.08,2.46,4.21-.59-.13-.44.15-2.59-1.19.43.7,1.58,4.5-1.14,2.51-.3.26.62,1.14-1.4,1.93.89-.06,1.74.21,2.62.11-5.6,2.38,3.57,1.39-.34,3.22-3.67-.88,3.44,5.17-3.64-.26,0,0-.31,2.3,1.22,1.71,1,2.66-3.58-.45.5,4.18.13-.15.26-.28.42-.45,2.3,2.21-5.37-.25-1.88,1.81-1.65,1.14-2.57.65-2.75-1.87a6.35,6.35,0,0,0,2.42-.65h-1.56c.74-3,4.35-3.69-2.83-2.84.58,0,2.07.42,2.22-3.71l-.62.5c1.59-4.28-5.26,1.89-.7-3.41-4.48,2.16,2.94-5.86-3.29-2.34.25-1.4,3.82-4.73-.22-2.37,1.57-1.44.31-3.8-.34-.21-1.8,0-.22,4.45-2.78,2.14.08,1.52,1.33,2.39,2.17,3.49-1.14.36-1.53-.8-2.4-.88,1.22,2.3.52,2-2.37,3.73l2.44.11c-2.9,2.65-2.12-.18.64,2.23,1.5,1.63-7-.93.21,2.1-1.58,1.43-6.59-3.47-3.4-.3.87,1.21-1.92.87-.72,2-1.61,1.38-3.66,2-.67-1.33-.58.16-.94.52-1.43.55,1-2.3-.28-1.5.86-4.24a5,5,0,0,1-2.36,1.36,9.14,9.14,0,0,1,1.79-3.44c-.49.17-3.49,2.38-1-1.08-.54-.14-.08.68-1.93,1,1.19,3.91-4.31,1.84,0,6.61-1,.31-1.33-.83-2.15-.92.51.67,1.27,3.68-1,2.1.25.89-.28,1.32-1,1.64l2.11.1c-5.39,1.23,5.27,3-1.73,2.42-2.73,3.94,2.26-5.5-4-.09-2.48-.87.9.32,1-5.2-.08-.07-1.35,1.26-1-.24,2.05-3.42-5.56,2.76-.66-3.15-1.59.2-2.86,2.92-.43-4.48-.14.49-5.48,3.59-.64-2.3-.69-.4-4.6,3.72-1.23-1.36-.78-.13.21.76-2.36,1.18.18.54.11,6-2.5,3.66.52,1.11-.26.09,2.46,4.21-.59-.13-.44.15-2.59-1.19.43.7,1.58,4.5-1.14,2.51-.31.26.62,1.14-1.4,1.93.89-.06,1.74.21,2.62.11-5.6,2.39,3.57,1.39-.34,3.22-3.67-.88,3.44,5.17-3.64-.26,0,0-.31,2.3,1.22,1.71,1,2.66-3.58-.44.5,4.18l.42-.45c2.3,2.21-5.37-.25-1.88,1.81-1.65,1.14-2.57.65-2.75-1.87a6.12,6.12,0,0,0,2.42-.65h-1.56c.74-3,4.35-3.69-2.83-2.84.58,0,2.07.42,2.21-3.71l-.61.5c1.59-4.28-5.26,1.89-.7-3.41-4.48,2.16,2.94-5.86-3.29-2.34.25-1.39,3.82-4.72-.22-2.37,1.57-1.44.31-3.8-.34-.21-1.8,0-.22,4.45-2.78,2.14.08,1.52,1.33,2.39,2.17,3.49-1.14.36-1.53-.8-2.4-.88,1.22,2.3.52,2-2.37,3.73l2.44.11c-2.9,2.65-2.12-.17.64,2.23,1.51,1.63-7.05-.94.21,2.1-1.58,1.43-6.59-3.47-3.4-.3-3.44,4,4.05,1.57-.85,4.63-.34.19.42.77-.16,1.76l-.69-.36c-.17-1.48-6.53,4.94-3.26-.61,4.67-8-9.75,7.43,1.05-7.14,1.38-2.84-10.36,8.83-2.81-2-.81-.86.36.44.66-2.11-.93,0-5.51,5.9-5.75-1.18a14.4,14.4,0,0,0,3.41-.89c-.82-.19-1.48.11-2.12-.13,5.58-10.05-5.64,3.74-.71-9.36.64-4.39-7.37,3.11-1.79-4.18-.82.22-1.33.74-2,.78,1.41-3.3-.4-2.15,1.23-6.09a7,7,0,0,1-3.38,2,13.07,13.07,0,0,1,2.56-4.93c.38-.85-5.5,4.93-1.39-1.56-1-.09.37.65-2.79,1.43,1.72,5.61-6.17,2.64-.07,9.48-1.47.45-1.9-1.19-3.07-1.33.73,1,1.82,5.28-1.42,3,.36,1.26-.41,1.88-1.5,2.35l3,.14c-1.91,2.49-5.12,1.51.37,2.34.41.53,1.52,3.48-4.72,1,2.47-5.92-3.5,2.33-5.52-1.06,1.2-1.09,2.86.53,3.11-6.39-1.15.69-2.64,1.21-.43-2.3-2.15,0-7.39,4.39-2-2.57.48.66-6.25,1.4-3.19.6,3.93-3.67.34-.5,2.58-7-2.23,2.61-6.64,3.57-.92-3.3-1-.59-6.62,5.4-1.76-1.94-1.12-.2.3,1.09-3.39,1.68.26.78.15,8.58-3.58,5.25.7,1.8.33,1.65,3.52,6-1-.27-.05.53-3.72-1.71.63,1,2.27,6.46-1.62,3.61-.65.38,1.4,1-2,2.77,1.27-.09,2.49.3,3.76.15-8,3.42,5.12,2-.5,4.62-2.68-.76-4.07.57,1.64,3-2.28,1.18-2.88-.24-6.86-3.34.18-.14-.89,2.63,1.76,2.45,1.38,3.82-5.14-.64.71,6,.2-.2.38-.4.6-.64,3.31,3.18-7.7-.35-2.7,2.59-2,1.14-4.24,1.86-3.93-2.67,1-.31.08.39,3.47-.93h-2.24c2.64-5.91,3.19-3.52-4.06-4.08,2.22-.45,3.19-.2,3.18-5.33l-.89.73c2.28-6.14-7.55,2.71-1-4.89-6.42,3.1,4.22-8.41-4.72-3.36.36-2,5.49-6.78-.31-3.41,2.25-2.05.44-5.45-.49-.3-2.58,0-.32,6.39-4,3.07.12,2.19,1.9,3.44,3.11,5-1.63.52-2.19-1.15-3.44-1.26,1.75,3.3.74,2.81-3.4,5.35l3.5.15c-4.16,3.8-3-.24.91,3.21,2.25,2.38-10.24-1.44.3,3-1.86,2-9.57-4.69-4.87-.42-4.92,5.57,5.73,2.41-1.22,6.64-.48.27.61,1.1-.23,2.52-.73-.44-3.71-1.66-1.43,1.46,3.38,1.75-7.24-1.62-1.5,6.11-1.09-.51-1.87-1.47-3.06-1.76-1.84.6,5.89,4.57-.4,4.38,0,.44-.23,1.58,3.66,3.83q-16.95,2-34.09,4.59c3.52-9.73-6.35,5.05-1.53-8.71.64-4.39-7.38,3.11-1.79-4.19-.82.23-1.33.75-2,.79,1.41-3.3-.4-2.16,1.23-6.09a7,7,0,0,1-3.38,2,13.07,13.07,0,0,1,2.56-4.93c.38-.86-5.5,4.93-1.39-1.56-1-.1.37.65-2.79,1.43,1.72,5.61-6.17,2.64-.07,9.48-1.47.44-1.9-1.2-3.07-1.33.73,1,1.82,5.28-1.42,3,.36,1.26-.41,1.88-1.5,2.35l3,.14c-1.91,2.49-5.12,1.51.37,2.34.41.53,1.52,3.48-4.72,1,2.47-5.93-3.5,2.33-5.52-1.06,1.2-1.09,2.86.53,3.11-6.39-.11-.11-1.93,1.81-1.49-.35,3-4.9-8,4-.95-4.52.48.66-6.25,1.4-3.2.6,3.94-3.67.35-.5,2.59-7-2.23,2.61-6.64,3.57-.92-3.3-1-.59-6.62,5.4-1.76-1.94-1.12-.2.3,1.09-3.39,1.68.26.78.15,8.58-3.58,5.25.7,1.79.33,1.64,3.52,6-.95-.28,0,.53-3.72-1.71.63,1,2.27,6.46-1.62,3.61-.65.38,1.4,1-2,2.77,1.27-.1,2.49.3,3.76.15-8,3.42,5.11,2-.5,4.62-2.68-.76-4.07.57,1.64,3-2.28,1.18-2.88-.24-6.86-3.34.18-.14-.89,2.63,1.76,2.45,1.38,3.82-5.14-.64.71,6l.6-.64c3.31,3.17-7.7-.35-2.7,2.59-2,1.14-4.24,1.85-3.93-2.67,1-.31.08.39,3.47-.93H2034c2.64-5.92,3.19-3.53-4.06-4.08,2.22-.45,3.19-.2,3.18-5.33l-.89.73c2.28-6.15-7.55,2.71-1-4.89-6.42,3.09,4.22-8.41-4.72-3.36.36-2,5.48-6.78-.31-3.41,2.25-2.06.44-5.45-.49-.3-2.58,0-.32,6.38-4,3.07.12,2.19,1.9,3.44,3.11,5-1.63.52-2.19-1.15-3.44-1.26,1.75,3.3.74,2.81-3.4,5.35l3.5.15c-4.16,3.8-3-.24.91,3.2,2.26,2.39-10.24-1.43.3,3-.72-.07-1,2-4.91-1.29a1.18,1.18,0,0,0,.39-1.4,6.42,6.42,0,0,1-1,.87c-2.9-1.48,1.41.22-2.35,1.09a13.07,13.07,0,0,1,2.56-4.93c.38-.86-5.5,4.93-1.4-1.56-1-.1.38.65-2.78,1.43,1.71,5.6-6.17,2.64-.07,9.48-1.47.44-1.9-1.2-3.07-1.33.73,1,1.82,5.28-1.42,3,.36,1.26-.41,1.88-1.5,2.34l3,.15c-1.91,2.49-5.12,1.51.37,2.34.41.53,1.52,3.48-4.72,1,2.47-5.93-3.5,2.33-5.52-1.06,1.2-1.09,2.86.53,3.11-6.39-1.15.69-2.64,1.21-.43-2.3-2.15,0-7.4,4.39-2-2.57.48.66-6.25,1.4-3.2.6,3.94-3.67.35-.5,2.59-7-2.23,2.61-6.64,3.57-.92-3.31-1-.58-6.62,5.41-1.76-1.93-1.12-.2.3,1.08-3.39,1.68.26.78.15,8.57-3.59,5.25.71,1.79.34,1.64,3.53,6-1-.28,0,.53-3.72-1.71.62,1,2.27,6.46-1.63,3.61-.64.38,1.41,1-2,2.77,1.26-.1,2.49.3,3.76.15-8,3.42,5.11,2-.5,4.62-2.68-.76-4.07.57,1.64,3-2.28,1.18-2.89-.24-6.86-3.34.18-.14-.89,2.63,1.75,2.45,1.39,3.82-5.14-.64.72,6l.6-.64a4.11,4.11,0,0,0,.54,1.14c.19.89-6.24-.68-4.35,1l-2.81.7c-1.23-1.09,2-1.11,0-3,1-.31.08.38,3.47-.93h-2.24c2.64-5.92,3.18-3.53-4.06-4.08,2.22-.45,3.18-.2,3.17-5.33l-.88.73h0c2.28-6.15-7.55,2.71-1-4.89-6.43,3.09,4.21-8.41-4.72-3.36.36-2,5.48-6.78-.31-3.41,2.25-2.06.44-5.45-.49-.3-2.58,0-.33,6.38-4,3.07.12,2.19,1.9,3.44,3.11,5-1.63.52-2.19-1.15-3.44-1.26,1.75,3.3.74,2.81-3.41,5.35l3.51.15c-8.48,1.85,7.88,4-2.53,3.45-.62-.64-.3-.94-1.94.83-3.19.68-2.5,2.05-.72-5.35.64-4.39-7.37,3.11-1.78-4.18-.83.23-1.34.74-2,.78,1.41-3.3-.4-2.15,1.23-6.09a7,7,0,0,1-3.38,2,13.09,13.09,0,0,1,2.57-4.93c.38-.85-5.51,4.93-1.4-1.56-1-.09.37.65-2.78,1.43,1.71,5.61-6.18,2.65-.07,9.49-1.47.44-1.91-1.2-3.08-1.33.73,1,1.82,5.27-1.42,3,.36,1.26-.41,1.88-1.5,2.35l3,.14c-1.91,2.49-5.11,1.51.37,2.34.41.53,1.52,3.48-4.72,1,2.47-5.93-3.49,2.32-5.51-1.07,1.2-1.09,2.85.53,3.1-6.39-.11-.1-1.93,1.82-1.49-.35,3-4.9-8,4-.94-4.52.47.66-6.26,1.4-3.2.6,3.93-3.66.34-.5,2.58-7-2.23,2.62-6.64,3.57-.92-3.3-1-.59-6.61,5.39-1.76-1.94-1.12-.2.31,1.09-3.39,1.68.26.79.16,8.58-3.58,5.25.71,1.8.33,1.65,3.52,6-1-.27,0,.53-3.71-1.7.62,1,2.27,6.46-1.63,3.6-.65.38,1.4,1-2,2.77,1.27-.09,2.49.3,3.76.15-8,3.43,5.12,2-.5,4.62-2.67-.75-4.07.57,1.64,3-2.28,1.18-2.88-.24-6.85-3.34.17-.14-.89,2.63,1.75,2.46,1.39,3.81-5.14-.65.71,6,.2-.21.38-.41.61-.64,3.3,3.17-7.7-.36-2.7,2.59-2,1.13-4.25,1.85-3.94-2.68,1-.31.09.39,3.47-.93h-2.24c2.64-5.91,3.19-3.52-4.06-4.08,2.22-.45,3.19-.2,3.18-5.33l-.89.73c2.29-6.14-7.54,2.71-1-4.89-6.42,3.1,4.22-8.41-4.72-3.36.36-2,5.49-6.78-.31-3.41,2.26-2,.44-5.44-.49-.3-2.58,0-.32,6.39-4,3.08.12,2.18,1.9,3.43,3.11,5-1.63.52-2.19-1.15-3.44-1.26,1.75,3.3.74,2.81-3.4,5.35l3.5.16c-4.16,3.8-3-.25.92,3.2,2.25,2.39-10.25-1.44.3,3-1.86,2-9.58-4.7-4.88-.43-4.92,5.57,5.73,2.41-1.22,6.64-.48.27.61,1.1-.22,2.52-.74-.43-3.72-1.66-1.44,1.47,3.38,1.74-7.24-1.63-1.5,6.1-1.09-.5-1.87-1.47-3.06-1.76-1.84.6,5.9,4.57-.4,4.39-.17,1.15,2.08,3.4,6.07,5-.13,1.75-8.39-2.21-4.91,1.27l-1.38.46c2.07.52,0,1.46.89,2.33-.89.59-.17.25-2.21.92-1.67-2.4.33,2.52-6.6,1.14,2.59-1.22,2.88-.7,3.27-6.8-2.73,2.15,0-1.7-1-2.88-2.92,2.51-6.62,3.61-1.22-2.4-1,.29-1.69.94-2.58,1,1.62-4.64-.35-2.66,1.55-7.68a8.84,8.84,0,0,1-4.26,2.47c.8-2.25,1.54-4.45,3.24-6.22.47-1.08-7,6.22-1.77-2-1.21-.12.47.83-3.51,1.81,2.28,6.53-7.52,4.11-.09,12-1.85.56-2.4-1.51-3.88-1.68.93,1.23,2.3,6.66-1.79,3.82.46,1.59-.52,2.38-1.89,3l3.82.19c.17.2-7.49,4.73-1.19,2.18,1.69-.65,5.3,5.39-1.93,2.18-2.37,4.91-.46-1.8-2.72-3.48-6.43,5-6.06,4.95-2.68-6.08-3.53,1.85-.64-.31-1.17-3.45-2,1.47-10.54,8.4-1.91-2.7.6.83-7.89,1.77-4,.76,4.75-4.74.7-.19,3.27-8.86-2.82,3.3-8.38,4.5-1.17-4.17-1.22-.73-8.34,6.81-2.21-2.44-1.59-.14.78,1.1-4.28,2.12,0,.44.37,11.29-4.52,6.62.89,2.27.42,2.08,4.44,7.63-1.2-.35-.06.66-4.69-2.16,1,1.53,3.07,8.23-2,4.55-.82.48,1.77,1.21-2.54,3.49,1.61-.11,3.15.38,4.75.2-1.46,1.1-7.72,5.58-1.46,2.63-.71-2,9.14,5.18-2.47,3.08,4.6,3.44,7.23,8.07-3.28-.36.34-.13-1.4,2.86,2.21,3.1,1.89,5.15-6.11-.9.9,7.56l.76-.81c4.17,4-9.71-.45-3.4,3.27-1.75.76-5.49,3.44-5-3.38,1.26-.38.11.5,4.38-1.17h-2.83c3.34-7.46,4-4.44-5.12-5.14,2.45-.78,4,.66,4-6.72l-1.12.91c2.88-7.75-9.52,3.42-1.26-6.17-7.46,3,4.44-10.07-6-4.24-1.68-1.17,9.57-8.95-.42-4.85,4.12-2.6-1.5-5.07-.59.17-3.39.35-.53,8-5,3.88.15,2.76,2.4,4.34,3.92,6.32-2,.65-2.76-1.45-4.34-1.59,2.21,4.16.94,3.54-4.29,6.75l4.42.19c-5.4,4.83-2.63-.47,1.15,4,2.46,2.71-11.68-1.09.38,3.8-2.34,2.5-12.08-5.93-6.15-.54.61,4.49-5.76-.76,1.76,7.14-.41.25-8.37-.41-3.3,1.24-.68.39.81.79-.28,3.18-.37-.54-4.65-2.06-1.81,1.85,4.55,2.25-8.89-2.35-1.9,7.7-1.37-.64-2.36-1.86-3.85-2.22-1.86.45,6.81,6.47-.51,5.53,0,.4-.52,1,1.43,2.15q-4.46,1.81-8.89,3.67c-.65-.8,2.29-1,0-2.33a13.94,13.94,0,0,0,3.41-.89c-.82-.19-1.48.12-2.13-.12,5.59-10.06-5.63,3.73-.7-9.36.64-4.4-7.38,3.11-1.79-4.19-.83.23-1.34.74-2,.79,1.41-3.3-.4-2.16,1.22-6.09a7.06,7.06,0,0,1-3.37,2,12.85,12.85,0,0,1,2.56-4.93c.38-.86-5.51,4.92-1.4-1.56-.95-.1.38.65-2.78,1.43,1.71,5.6-6.17,2.64-.07,9.48-1.47.44-1.9-1.2-3.07-1.33.73,1,1.82,5.28-1.42,3,.36,1.27-.41,1.89-1.5,2.35l3,.15c-1.91,2.49-5.12,1.51.37,2.34.41.53,1.51,3.48-4.72,1,2.46-5.93-3.5,2.33-5.52-1.06,1.2-1.09,2.86.53,3.11-6.39-.11-.11-1.93,1.81-1.5-.35,3-4.9-8,4-.94-4.52.48.66-6.25,1.4-3.2.59,3.94-3.66.35-.5,2.59-7-2.23,2.61-6.64,3.57-.93-3.31-1-.58-6.61,5.4-1.75-1.94-1.12-.19.3,1.09-3.39,1.68.26.79.15,8.58-3.59,5.26.71,1.79.34,1.64,3.53,6-.95-.28,0,.53-3.72-1.71.62,1,2.27,6.46-1.63,3.6-.65.39,1.41,1-2,2.77,1.27-.09,2.5.3,3.77.16-8,3.42,5.11,2-.5,4.62-2.68-.76-4.07.57,1.64,3-2.28,1.18-2.89-.24-6.86-3.35.18-.13-.89,2.64,1.75,2.46,1.39,3.82-5.14-.64.72,6l.6-.64c3.3,3.17-7.7-.36-2.7,2.59-2,1.14-4.24,1.85-3.93-2.68,1-.3.08.39,3.47-.92h-2.24c2.64-5.92,3.18-3.53-4.06-4.08,2.21-.45,3.18-.2,3.17-5.33l-.88.73c2.28-6.15-7.55,2.7-1-4.9-6.43,3.1,4.21-8.4-4.72-3.36.36-2,5.48-6.77-.31-3.4,2.25-2.06.44-5.45-.49-.3-2.58,0-.33,6.38-4,3.07.12,2.18,1.9,3.44,3.11,5-1.63.51-2.19-1.15-3.44-1.26,1.74,3.3.74,2.81-3.41,5.35l3.51.15c-4.16,3.8-3-.25.91,3.2,2.26,2.39-10.25-1.44.3,3-1.86,2-9.57-4.69-4.87-.43-4.93,5.57,5.73,2.42-1.22,6.65-.49.26.61,1.09-.23,2.52-.73-.44-3.72-1.67-1.43,1.46,3.61,1.78-7-1.86-1.51,6.11-1.08-.51-1.87-1.48-3.05-1.76-1.84.6,5.89,4.57-.41,4.38-.39,2.21-14,11.91-2.41-2.37-.15,1.46-9.65,2.13-4.92.91,5.79-5.77.85-.22,4-10.8-3.43,4-10.21,5.5-1.42-5.08-1.48-.91-10.18,8.32-2.7-3-1.94-.16-1.22,2.65-5.22,2.59,0,1.36.3,13.4-5.51,8.08,1.08,2.77.51,2.54,5.42,9.3-1.47-.42-.07.82-5.72-2.63,1.2,1.87,3.75,10-2.51,5.55-1,.59,2.16,1.48-3.09,4.27,2-.15,3.84.46,5.79.23-2,1.19-8.88,6.92-1.79,3.22,1.6-1.79,8.89,8.38-2,3.1-2.78.87,12.51,12.8-5,.22.19.89-.28,5.81,2.7,3.78,2.33,6.21-7.45-1,1.08,9.17.09,1.78-7.86-.15-4.79,2.53-1.81.66-4.72,4.26-4.47-3.6,1.53-.47.13.6,5.34-1.43h-3.45c4.72-9.47,3.76-5.1-6.25-6.27,4.56-1.46,4.54-.26,4.89-8.21l-1.37,1.12c4.4-11.37-13.09,6.88-1.53-7.53-9.11,3.71,5.41-12.29-7.27-5.17-2-1.43,11.67-10.92-.52-5.92,6.91-5.83-2.79-4.7-.71.21-4.22-.15-.09,10.38-6.14,4.74.18,3.36,2.93,5.28,4.78,7.7-2.51.8-3.36-1.77-5.29-1.94,3.11,6.49,1.89,3.19-5.24,8.24l5.4.23c-6.59,5.89-3.22-.58,1.4,4.93,3,3.31-14.26-1.33.46,4.63-2.38,3.21-15.38-7.66-7.5-.66-7.12,6.41,11.16,8.86-4.26,8.75,0,.33,0,1.12,2.38,1.48-.83.48,1,1-.35,3.88-.44-.65-5.66-2.51-2.21,2.25,1.71-.18,1.63,1.65-2.22,1.22-1.63-1.39-15,12.26-3.23-3.54-.14,1.46-9.65,2.13-4.92.91,5.79-5.76.86-.22,4-10.8-3.43,4-10.22,5.5-1.42-5.08-1.48-.91-10.18,8.31-2.7-3-1.95-.16-1.22,2.65-5.22,2.59,0,1.36.29,13.4-5.52,8.08,1.09,2.77.51,2.54,5.42,9.3-1.46-.42-.07.82-5.72-2.63,1.2,1.86,3.75,10-2.5,5.55-1,.59,2.16,1.48-3.09,4.26,2-.14,3.83.47,5.78.24-2,1.19-8.88,6.92-1.78,3.21,1.6-1.78,8.89,8.39-2,3.11-2.77.87,12.52,12.8-5,.22.19.89-.28,5.81,2.7,3.78-6.44,8.43,4.93,4.2-2.24,10.85-.6-1-3.91-1.09-1.43.9-3.18,2.54-4.18,2-4.52-3.65,1.54-.47.13.6,5.34-1.43h-3.44c4.71-9.47,3.76-5.11-6.25-6.27,4.56-1.46,4.53-.26,4.88-8.21l-1.36,1.12c4.39-11.37-13.09,6.87-1.53-7.53-9.11,3.71,5.4-12.29-7.27-5.17-2-1.43,11.67-10.92-.52-5.92,6.9-5.83-2.79-4.7-.72.21-4.21-.15-.09,10.38-6.13,4.73.18,3.37,2.92,5.29,4.78,7.71-2.51.8-3.37-1.77-5.3-1.94,3.11,6.48,1.89,3.19-5.24,8.24l5.4.23c-6.59,5.89-3.21-.58,1.4,4.93,3,3.3-14.25-1.33.47,4.63-2.39,3.21-15.38-7.66-7.51-.66-7.12,6.41,11.16,8.86-4.26,8.75,0,.33,0,1.12,2.39,1.48-.84.48,1,1-.35,3.88-.45-.66-5.67-2.52-2.21,2.25,2,.46,1.53.72-4.36,2.09.07-.32.4-.18.94-1.53-.4-.15-.46.87-1.73.89-.08.29,0,.12.45.77-.17.4-1.41.54-.85,1.84a.81.81,0,0,0-.4.75c-1.22-.55-1.32-.51.75,2.55-.48,0-.42-.14-1.91-.83-.07.55,1.63,3.37-.89,1.89.23.78-.25,1.17-.93,1.46l1.89.09c-4.82,1.1,4.71,2.67-1.54,2.16-2.45,3.52,2-4.91-3.61-.08-2.21-.77.8.29.94-4.65-.72.43-1.65.76-.27-1.43-1.34,0-4.61,2.73-1.25-1.6-.51-.62-3.3,3.95-.38-4-.13.44-4.9,3.21-.58-2.06-.61-.34-4.1,3.32-1.09-1.21-.56-.2-.22,1-2.12,1.05.17.49.1,5.34-2.23,3.27.46,1-.23.08,2.2,3.77-.53-.12-.39.14-2.32-1.07.39.63,1.42,4-1,2.25-.28.23.55,1-1.25,1.72.79-.05,1.55.19,2.34.1-5,2.13,3.19,1.25-.31,2.88-3.28-.79,3.08,4.62-3.25-.24,0,0-.28,2.06,1.09,1.54.86,2.37-3.2-.4.45,3.73l.37-.4c2.06,2-4.8-.22-1.68,1.61-1.48,1-2.29.56-2.45-1.67a5.6,5.6,0,0,0,2.16-.57h-1.4c.66-2.68,3.89-3.31-2.53-2.54.6.18,2-.2,2-3.32l-.55.45c1.43-3.83-4.7,1.69-.62-3.05-4,1.93,2.62-5.24-2.94-2.09.22-1.25,3.41-4.23-.2-2.13,1.4-1.27.29-3.4-.3-.18-1.61,0-.2,4-2.49,1.91.08,1.36,1.19,2.14,1.94,3.12-1,.32-1.36-.71-2.14-.78,1.09,2.05.46,1.75-2.12,3.33l2.18.1c-2.59,2.36-1.89-.16.57,2,1.35,1.46-6.3-.84.19,1.88-1.41,1.28-5.89-3.11-3-.27-3.07,3.57,3.62,1.4-.76,4.14-.3.16.38.68-.14,1.57-.46-.27-2.32-1-.9.91,2.42,1.36-4.79-1.53-.93,3.81-.36-.38-.42.22-1.55-1.24-1-.1.37.65-2.78,1.43,1.71,5.6-6.18,2.64-.07,9.48-1.47.44-1.9-1.2-3.08-1.33.73,1,1.82,5.28-1.42,3,.36,1.26-.41,1.88-1.49,2.35l3,.14c-1.9,2.49-5.11,1.51.37,2.34.41.53,1.52,3.48-4.72,1,2.47-5.93-3.49,2.33-5.51-1.06,1.2-1.09,2.85.53,3.11-6.39-.12-.11-1.94,1.81-1.5-.35,2.95-4.9-8,4-.94-4.52.47.66-6.26,1.4-3.2.6,3.94-3.67.34-.5,2.58-7-2.23,2.61-6.63,3.57-.92-3.31-1-.58-6.61,5.39-1.76-1.93-1.12-.2.31,1.09-3.39,1.68.26.78.16,8.57-3.58,5.25.71,1.79.33,1.64,3.52,6-1-.28,0,.53-3.71-1.71.62,1,2.27,6.46-1.63,3.61-.65.38,1.4,1-2,2.77,1.27-.1,2.49.3,3.76.15-8,3.42,5.12,2-.5,4.62-2.67-.76-4.06.57,1.64,3-2.28,1.18-2.88-.24-6.85-3.34.17-.14-.89,2.63,1.75,2.45,1.39,3.82-5.14-.64.72,6l.6-.64c3.3,3.17-7.7-.35-2.7,2.59-2,1.14-4.25,1.85-3.94-2.67,1-.31.09.38,3.47-.93h-2.24c2.65-5.92,3.19-3.53-4.06-4.08,2.22-.45,3.19-.2,3.18-5.33l-.89.73c2.29-6.15-7.54,2.71-1-4.89-6.43,3.09,4.21-8.41-4.73-3.36.36-2,5.49-6.78-.31-3.41,2.26-2.06.44-5.45-.49-.3-2.58,0-.32,6.38-4,3.07.12,2.19,1.91,3.44,3.11,5-1.63.52-2.19-1.15-3.44-1.26,1.75,3.3.74,2.81-3.4,5.35l3.5.15c-4.16,3.8-3-.24.92,3.2,2.25,2.39-10.25-1.43.3,3-1.86,2-9.58-4.69-4.88-.43-4.92,5.58,5.74,2.42-1.22,6.65-.48.26.61,1.1-.22,2.52-.74-.44-3.72-1.67-1.44,1.46,3.38,1.75-7.24-1.62-1.5,6.11-1.09-.51-1.87-1.47-3-1.76-1.85.6,5.89,4.57-.41,4.38-.16,1.16,2.08,3.41,6.07,5-.13,1.75-8.38-2.2-4.91,1.28l-1.38.46c2.07.52,0,1.45.89,2.33,4.77,10.53-3.38-2.43-2.1,6.2,1.35,1.29,7,1.32,1.86,2.86a12.41,12.41,0,0,0,4.74.47c.47,2.7-.25,1.27,2.24,4.7l-1.35,1.26A2.41,2.41,0,0,0,1536,434a1.33,1.33,0,0,0,.45,1.15c-2.6.81-11.81,15.19-15.47,10.84.3-.83,4.1,1.4,4.79-9.84-3.94,1.86-1.27.74-1.43-4.2-2.41,1.79-12.85,10.25-2.33-3.29-.14,1.47-9.65,2.13-4.92.91,5.79-5.77.85-.22,4-10.8-3.44,4-10.22,5.5-1.42-5.08-1.49-.9-10.17,8.3-2.7-3-2-.16-1.22,2.65-5.23,2.59,0,1.36.3,13.4-5.51,8.08,1.09,2.77.51,2.54,5.42,9.3-1.46-.42-.07.82-5.72-2.63,1.2,1.87,3.75,10-2.5,5.55-1,.59,2.16,1.48-3.09,4.27,2-.15,3.83.46,5.78.23-2,1.19-8.88,6.92-1.78,3.22,1.6-1.79,8.89,8.38-2,3.1-2.77.87,12.52,12.8-5,.22.19.89-.28,5.81,2.7,3.78,2.31,6.28-7.46-1.11,1.1,9.22l.92-1c5.09,4.88-11.85-.55-4.15,4-2.13.93-6.69,4.19-6.06-4.12,1.54-.47.13.6,5.34-1.43h-3.44c4.71-9.47,3.76-5.1-6.25-6.27,4.55-1.46,4.53-.26,4.88-8.21-.46.39-.91.75-1.36,1.12,4.39-11.37-13.09,6.87-1.53-7.53-9.11,3.71,5.4-12.29-7.27-5.17-2.05-1.43,11.67-10.92-.52-5.92,6.9-5.83-2.79-4.7-.72.22-4.21-.16-.09,10.37-6.13,4.73.18,3.36,2.92,5.28,4.78,7.7-2.51.8-3.37-1.77-5.3-1.94,3.11,6.49,1.89,3.2-5.24,8.24l5.4.23c-6.59,5.89-3.21-.58,1.4,4.93,3,3.31-14.25-1.33.47,4.63-2.39,3.21-15.38-7.66-7.51-.66-7.12,6.41,11.16,8.86-4.26,8.75,0,.33,0,1.12,2.39,1.48-.84.48,1,1-.35,3.88-.45-.65-5.67-2.51-2.21,2.25,5.56,2.75-10.84-2.86-2.31,9.41-1.68-.79-2.88-2.27-4.7-2.72-1.73,1.4,8.3,8.17-.63,6.75,0,1.57,2,4.66,9.34,7.68-1.23,3-12.66-3.44-7.55,2l-2.13.7c3.19.8,0,2.25,1.37,3.59-1.22,1-.46,3.49,2.28,4.26-.43.53-1.6.41-.56,2.62-6.25-4.88-8.21,1.31.38,5.6-.08.84-1.43.32-3.39-1.2-.44.63,1.44,1,.92,2.67.77.15.33,3-2.57.85.41,1.46-.48,2.18-1.74,2.72l1.68.08-2.5,2.32c-4.17-2.53-8.11,7.31-3.52-7-.13-.13-2.24,2.1-1.73-.41.93-2.92,2.33-3-4.74.22.29-2.5.49.52,3.64-5.47.56.77-7.26,1.63-3.71.7,4.37-4.37.64-.17,3-8.15-2.59,3-7.71,4.14-1.07-3.84-1.12-.68-7.68,6.27-2-2.25-1.46-.13.72,1-3.94,1.95.3.91.18,10-4.16,6.1.82,2.08.39,1.91,4.09,7-1.1-.32,0,.62-4.31-2,.72,1.17,2.63,7.5-1.89,4.19-.76.44,1.63,1.11-2.34,3.21,1.48-.11,2.9.35,4.37.18-1.34,1-7.1,5.14-1.35,2.42-.65-1.84,8.42,4.77-2.27,2.84,4.24,3.17,6.66,7.43-3-.33.2-.16-1,3.06,2,2.85,1.19,5-5.79-.74.83,7l.7-.74c3.84,3.68-8.94-.42-3.13,3-2.35,1.32-4.93,2.16-4.57-3.1,1.15-.36.1.45,4-1.08h-2.59c3.06-6.87,3.69-4.09-4.72-4.74,2.58-.52,3.7-.23,3.69-6.18l-1,.84c2.65-7.13-8.76,3.14-1.16-5.68-7.46,3.6,4.89-9.76-5.48-3.9-1.55-1.08,8.8-8.24-.39-4.47,3.79-2.39-1.38-4.66-.54.16-3.13.33-.49,7.36-4.63,3.57.14,2.54,2.21,4,3.61,5.82-1.9.6-2.54-1.34-4-1.47,2,3.83.86,3.26-4,6.22l4.07.17c-5,4.44-2.42-.43,1.06,3.72,2.26,2.49-10.76-1,.35,3.49-2.16,2.31-11.12-5.45-5.66-.49.56,4.13-5.31-.7,1.62,6.57-.37.23-7.71-.38-3,1.14-.56.31.71,1.28-.26,2.93-.34-.5-4.27-1.9-1.67,1.7,4.2,2.07-8.17-2.17-1.74,7.09-.18-.62-1,.69-1.7-2.11a1.71,1.71,0,0,0-.26.83,5.1,5.1,0,0,0-1.59-.77c-.43.53.5,1.51,1.17,2.51-.44-.46-.32,1.26.81,1.18.19.29,1.18.4,0,1.42.25-.73-.7-.47-.73.34a2.64,2.64,0,0,1-1.74-.35c0,.72-.24.69,2.59,3.62-.34.59-.58.67-1.11.28,2,2.38-2.62.61-.82,2.65-.21.24-.06,0-.07,1l-.85.28c4.23,4.61-5.76-4.74,1.67,5.59-1.47.44-1.9-1.2-3.07-1.33.26,1,.38.58,1.19,2.39-.65-.74-2.66-1.31-1.07,1.43-.37,0-.14-.26-1.54-.8.36,1.26-.41,1.88-1.5,2.35a13.59,13.59,0,0,1,2.94.28c-6.6,3.69,2.83-.31,0,3.87-3.17.27-3.37.66-4.51-3.3-5.09,4-4.8,3.92-2.13-4.83-.11-.1-1.93,1.82-1.49-.35,3-4.89-8,4-.95-4.51.48.65-6.25,1.4-3.19.59,3.93-3.66.34-.5,2.58-7-2.23,2.62-6.64,3.57-.92-3.3-1-.58-6.61,5.39-1.76-1.94-1.12-.19.3,1.09-3.39,1.68.26.79.15,8.58-3.58,5.25.7,1.8.33,1.65,3.52,6-1-.28,0,.52-3.72-1.71.63,1,2.27,6.46-1.62,3.6-.65.38,1.4,1-2,2.77,1.27-.09,2.49.3,3.76.15-8,3.43,5.12,2-.5,4.62-2.68-.75-4.07.57,1.64,3-2.28,1.17-2.88-.25-6.86-3.35.18-.14-.89,2.63,1.76,2.46,1.38,3.82-5.14-.64.71,6l.6-.64c3.31,3.17-7.7-.36-2.7,2.59-2,1.13-4.24,1.85-3.93-2.68,1-.31.08.39,3.47-.93h-2.24c2.64-5.91,3.19-3.52-4.06-4.07,2.22-.46,3.19-.21,3.18-5.33-.31.24-.6.48-.89.72,2.28-6.14-7.55,2.71-1-4.89-6.42,3.1,4.22-8.41-4.72-3.36.36-2,5.49-6.78-.31-3.41,2.25-2.05.44-5.44-.49-.3-2.58,0-.32,6.39-4,3.08.12,2.18,1.9,3.43,3.11,5-1.63.51-2.19-1.15-3.44-1.27,1.75,3.3.74,2.81-3.4,5.35l3.5.16c-4.16,3.8-3-.25.91,3.2,2.26,2.39-10.24-1.44.3,3-1.86,2-9.57-4.7-4.87-.43-4.92,5.57,5.73,2.41-1.22,6.64-.48.27.61,1.1-.23,2.52-.73-.43-3.71-1.66-1.43,1.47,3.38,1.74-7.24-1.63-1.5,6.11-1.09-.51-1.87-1.48-3.06-1.77-1.84.61,5.89,4.57-.4,4.39-.17,1.15,2.07,3.41,6.06,5-.12,1.75-8.38-2.21-4.9,1.27l-1.39.46c2.08.52,0,1.46.9,2.33-.43,1.43,3.63,6.81-1.71,2.7,3.73-3.81-6.29,4.29-2.1-1.42,3.24-2.35-5.53,0-1.88,2-3.28.34-.51,7.71-4.86,3.74.15,2.66,2.32,4.18,3.78,6.1-2,.62-2.66-1.4-4.18-1.54,1.41,2.82,2.2,3.81-3.25,5.49,1-2.3-.28-1.5.86-4.24a4.88,4.88,0,0,1-2.36,1.36,9.14,9.14,0,0,1,1.79-3.44,10.58,10.58,0,0,0-1.28.77c.32-.46,0-.6.3-1.85-.72-.12-.93.51-1.93,1a.49.49,0,0,0,.06.41c-7.61,3.45-2.75,1.81-1.79-6.57-2.91,2.28,0-1.82-1.1-3.08-3.11,2.68-7,3.84-1.3-2.55-1.11.31-1.8,1-2.75,1.06,1.73-4.94-.38-2.84,1.65-8.19a9.41,9.41,0,0,1-4.54,2.63c.86-2.39,1.65-4.73,3.45-6.62.51-1.15-7.4,6.62-1.88-2.09-1.28-.13.5.87-3.74,1.92,2.43,6.95-8,4.38-.09,12.74-2,.59-2.56-1.61-4.13-1.79,1,1.3,2.45,7.09-1.91,4.06.48,1.7-.55,2.53-2,3.16l4.07.19c.18.22-8,5-1.27,2.33.71-2.06,4.25,4.78,1.59,2.36.12.35.23.71.35,1.05-7.07,2.43-3.54-7.84-10.36-1.67-6.89.1-.15.72.61-9.6-3.75,2-.68-.32-1.25-3.67-2.11,1.57-11.22,8.94-2-2.87.64.88-8.4,1.88-4.3.8,5.06-5,.75-.2,3.48-9.43-3,3.51-8.92,4.8-1.24-4.44-1.3-.78-8.88,7.24-2.36-2.6-1.69-.15.83,1.17-4.56,2.25,0,.48.4,12-4.81,7.06,1,2.41.45,2.21,4.73,8.12-1.28-.37-.06.71-5-2.3,1,1.63,3.27,8.76-2.19,4.84-.87.52,1.89,1.3-2.7,3.72,1.71-.12,3.35.41,5.06.21-1.56,1.17-8.22,6-1.56,2.81-.76-2.14,9.74,5.51-2.63,3.27,4.9,3.67,7.7,8.6-3.49-.37.36-.15-1.49,3,2.35,3.3,2,5.48-6.51-1,1,8l.81-.86c1.48,1.52-2.23,4.29-8.91-.11,1.34-.41.11.52,4.66-1.25h-3c3.55-7.94,4.28-4.73-5.45-5.48,2.6-.82,4.22.71,4.27-7.16l-1.2,1c3-8.16-10.06,3.44-1.33-6.57-7.95,3.24,4.72-10.73-6.35-4.52-1.79-1.24,10.19-9.53-.45-5.16,4.38-2.76-1.58-5.41-.63.18-3.61.37-.56,8.52-5.35,4.13.16,2.94,2.55,4.62,4.17,6.73-2.19.69-2.94-1.54-4.62-1.7.45,1.27,3.53,6.43-2,4.54-.34-2.31-15.82,13.24-4.2-3-1.25-1.32.55.68,1-3.25-4.34,2.64-8.3,7.44-8.85-1.82,1.83-.42,3.52-.5,5.24-1.37-1.26-.29-2.27.17-3.27-.19,9.47-19.85-10.29,9.45-1.08-14.41-3.18,2.28-.25-1.11-1.26-3.51,0,.27-11.24,8.46-1.49-2.93-1.28.35-2.06,1.14-3.15,1.21,2-5.67-.43-3.25,1.89-9.38a10.82,10.82,0,0,1-5.2,3c1-2.75,1.88-5.43,4-7.59.58-1.32-8.48,7.58-2.15-2.4-1.48-.15.57,1-4.28,2.2,2.78,8-9.18,5-.11,14.6-2.27.68-2.93-1.85-4.73-2,1.21,1.66,3.12,8.21-2.19,4.65.55,1.95-.63,2.9-2.31,3.62l4.66.22c.21.25-9.14,5.78-1.45,2.67,2.06-.79,6.46,6.58-2.36,2.66-3.18,6.16-.62-2.73-3.31-4.24-9,7.59-5.94,3.19-3.28-7.43-3.94,1.86-1.27.74-1.43-4.2-2.41,1.79-12.85,10.24-2.32-3.29-.15,1.46-9.65,2.13-4.92.91,5.78-5.76.85-.22,4-10.8-3.43,4-10.21,5.5-1.42-5.08-1.49-.9-10.17,8.29-2.7-3-1.94-.16-1.22,2.65-5.22,2.59,0,1.36.3,13.4-5.52,8.08,1.09,2.77.52,2.54,5.43,9.3-1.47-.42-.07.82-5.72-2.63,1.2,1.86,3.74,10-2.51,5.55-1,.59,2.16,1.48-3.09,4.26,2-.14,3.83.47,5.79.24-2,1.19-8.89,6.92-1.79,3.21,1.6-1.78,8.89,8.39-2,3.11-2.78.87,12.51,12.8-5,.22.19.89-.28,5.81,2.7,3.78,2.31,6.28-7.46-1.11,1.1,9.22l.93-1c5.08,4.89-11.86-.55-4.16,4-.65-.08-6.09,5-6-4.12,1.53-.47.13.6,5.33-1.43h-3.44c4.72-9.47,3.76-5.1-6.25-6.27,4.56-1.46,4.54-.26,4.89-8.21l-1.37,1.12c4.39-11.37-13.09,6.87-1.53-7.53-9.11,3.71,5.41-12.29-7.27-5.17-2-1.43,11.67-10.92-.52-5.92,6.91-5.83-2.79-4.7-.71.21-4.22-.15-.09,10.38-6.14,4.73.18,3.37,2.93,5.29,4.78,7.71-2.51.8-3.37-1.77-5.29-1.94-.09,1.36,3.22,3.22,1,5.83h0c-1.57-.25-2,.22-.6-3.71-.44.15-9.93,6.88-4.76.72,1.91,1.57-.33,0,2.61-3.46-1.28.36-2.06,1.15-3.15,1.21,2-5.66-.44-3.24,1.89-9.37a10.8,10.8,0,0,1-5.2,3c1-2.74,1.88-5.43,4-7.59.58-1.31-8.48,7.59-2.15-2.4-1.48-.14.57,1-4.29,2.2,2.79,8-9.17,5-.11,14.6-2.26.68-2.92-1.84-4.73-2,1.22,1.67,3.13,8.21-2.18,4.66.55,2-.64,2.9-2.31,3.62l4.66.22c-1,1.26-9,5.39,0,2.38,4.75,4.22-8.44,8.17-6.32-1.52-5.78,3.39-10.47,10.73-4.08-7.21-3.94,1.86-1.27.74-1.43-4.19-2.41,1.79-12.85,10.24-2.32-3.3-.15,1.47-9.66,2.13-4.93.92,5.8-5.78.86-.23,4-10.8-3.43,4-10.22,5.49-1.42-5.09-1.49-.9-10.17,8.3-2.7-3-1.94-.17-1.22,2.65-5.22,2.58.55,1.79,1.62,3-1.82,5.64a1.29,1.29,0,0,0-.09-.46c-4.34,2.64-8.31,7.44-8.86-1.82,1.83-.42,3.53-.51,5.25-1.37-1.27-.29-2.28.17-3.27-.19,9.46-19.85-10.3,9.45-1.09-14.41-3.18,2.28-.25-1.11-1.26-3.52,0,.28-11.23,8.47-1.49-2.92-1.27.35-2.06,1.14-3.15,1.21,2-5.67-.43-3.25,1.9-9.38a10.86,10.86,0,0,1-5.2,3c1-2.75,1.88-5.43,3.94-7.59.59-1.32-8.47,7.58-2.15-2.4-1.47-.15.58,1-4.28,2.2,2.78,8-9.17,5-.11,14.6-2.26.68-2.93-1.85-4.73-2,1.21,1.66,3.12,8.21-2.19,4.65.56,2-.63,2.9-2.3,3.62l4.66.22c-9.84,5.07,5.39,1.15-.19,6.17-2.34-3.44-5,6.8-6.94-5.08-9,7.59-5.94,3.19-3.27-7.43-3.94,1.86-1.28.74-1.43-4.2-2.42,1.79-12.86,10.24-2.33-3.29-.14,1.46-9.65,2.13-4.92.91,5.79-5.77.85-.22,4-10.8-3.44,4-10.22,5.49-1.42-5.09-1.49-.9-10.18,8.31-2.71-3-1.94-.16-1.21,2.65-5.22,2.59,0,1.36.3,13.4-5.51,8.08,1.09,2.76.51,2.54,5.42,9.3-1.46-.42-.07.82-5.72-2.63,1.2,1.86,3.75,10-2.5,5.55,2.29,1.36-19.07,17.46-5.86.9-1.25-1.31.56.69,1-3.24-4.34,2.64-8.31,7.43-8.86-1.82,1.83-.43,3.53-.51,5.25-1.37-1.27-.3-2.28.17-3.27-.19,3.62-8.41,5.12-6.53-5.3-5.63,3-3,3.64.5,4.21-8.78-3.18,2.28-.25-1.11-1.26-3.52,0,.28-11.24,8.47-1.49-2.93-1.27.36-2.06,1.15-3.15,1.22,2-5.67-.43-3.25,1.9-9.38a10.84,10.84,0,0,1-5.2,3c1-2.74,1.88-5.43,3.94-7.58.59-1.32-8.47,7.58-2.15-2.4-1.47-.15.58,1-4.28,2.2,2.78,8-9.17,5-.11,14.59-2.26.68-2.93-1.84-4.73-2,1.21,1.66,3.12,8.2-2.19,4.65.56,1.95-.63,2.9-2.3,3.62l4.66.22c-9.84,5.07,5.39,1.14-.19,6.17-2.34-3.45-5,6.79-6.94-5.08-9,7.58-5.94,3.18-3.28-7.43-3.93,1.85-1.27.74-1.42-4.2-2.42,1.79-12.86,10.24-2.33-3.3-.14,1.47-9.65,2.13-4.92.92,5.79-5.77.85-.23,4-10.8-3.44,4-10.22,5.49-1.42-5.09-1.49-.9-10.18,8.32-2.71-3-1.94-.17-1.21,2.65-5.22,2.58,0,1.36.3,13.4-5.51,8.09,1.09,2.76.51,2.53,5.42,9.3-1.46-.43-.07.81-5.72-2.63,1.2,1.86,3.75,10-2.5,5.55-.31-.47.56,4.42-2.23,2.56.57-1.31,0-.57.68-3.49,1.39-1.69.35-.28,1.21-4.74-.39.24-7.29,7.65-5.1,2.15,1.09,1.13.77-2.35,3.48-.93-1.5.47,6.17-15.11-1.51-7.1.71-1.18-6,8.46-1.57-2.84,7.8-7.06-8.9,2.42-3.5-3.85,1.24-1.27,1.56,0,5.13-7.13-1.22-2-15.83,13.1-4.34-3-1.25-1.31.56.68,1-3.24-4.34,2.64-8.3,7.43-8.85-1.82,1.83-.43,3.52-.51,5.24-1.37-1.26-.3-2.27.17-3.27-.19,9.46-19.85-10.3,9.45-1.08-14.41-3.19,2.28-.26-1.12-1.27-3.52,0,.27-11.23,8.47-1.49-2.93-1.27.35-2.06,1.15-3.14,1.21,2-5.66-.44-3.24,1.89-9.37a10.8,10.8,0,0,1-5.2,3c1-2.74,1.88-5.43,3.95-7.59.58-1.31-8.48,7.59-2.16-2.4-1.47-.14.58,1-4.28,2.2,2.78,8-9.17,5-.11,14.6-2.26.68-2.92-1.84-4.73-2,1.22,1.67,3.13,8.21-2.18,4.66.55,1.95-.64,2.9-2.31,3.62l4.66.22c-9.84,5.07,5.4,1.14-.19,6.16-2.34-3.44-5,6.8-6.93-5.07-9,7.58-5.94,3.18-3.28-7.44-3.94,1.86-1.27.75-1.43-4.19-2.41,1.79-12.85,10.24-2.33-3.3-.14,1.47-9.65,2.13-4.92.92,5.79-5.77.86-.23,4-10.81-3.43,4-10.22,5.5-1.42-5.08-1.49-.9-10.18,8.31-2.7-3-2-.17-1.22,2.65-5.22,2.58,0,1.36.29,13.4-5.52,8.09,1.09,2.76.52,2.53,5.42,9.3-1.46-.43-.07.81-5.72-2.63,1.2,1.86,3.75,10-2.5,5.55,0,.73-.41,5.67-4.84,1.62.95-.14,3.62,1.89,3.12-2.72,1.41-1.19.47,0,1.54-5.4-.39.24-7.29,7.65-5.11,2.15,1.09,1.13.78-2.35,3.48-.93-1.5.47,6.18-15.11-1.5-7.1.7-1.18-6,8.46-1.57-2.84,7.79-7.06-8.9,2.42-3.5-3.85,1.24-1.27,1.56,0,5.12-7.13-1.21-2-15.83,13.1-4.33-3-1.25-1.31.56.69,1-3.24-4.34,2.64-8.31,7.43-8.86-1.82,1.83-.43,3.53-.51,5.25-1.37-1.27-.3-2.28.17-3.27-.19,9.46-19.85-10.3,9.45-1.09-14.41-3.18,2.28-.25-1.11-1.26-3.52,0,.28-11.24,8.47-1.49-2.93-1.27.36-2.06,1.15-3.15,1.22,2-5.67-.43-3.25,1.9-9.38a10.84,10.84,0,0,1-5.2,3c1-2.74,1.88-5.43,3.94-7.59.59-1.31-8.47,7.59-2.15-2.39-1.47-.15.58,1-4.28,2.19,2.78,8-9.17,5-.11,14.6-2.26.68-2.93-1.84-4.73-2,1.21,1.66,3.12,8.2-2.19,4.65.56,1.95-.63,2.9-2.3,3.62l4.66.22c-9.84,5.07,5.39,1.14-.19,6.17-2.34-3.45-5,6.79-6.94-5.08-9,7.58-5.94,3.18-3.27-7.43-3.94,1.85-1.28.74-1.43-4.2-2.42,1.79-12.86,10.24-2.33-3.3-.14,1.47-9.65,2.13-4.92.92,5.79-5.78.85-.23,4-10.8-3.44,4-10.22,5.49-1.42-5.09-1.49-.9-10.18,8.31-2.71-3-1.94-.17-1.21,2.65-5.22,2.58,0,1.36.3,13.4-5.51,8.09,1.09,2.76.51,2.53,5.42,9.3-1.46-.43-.07.81-5.72-2.63,1.2,1.86,3.75,10-2.5,5.55-.43.78.81.5-1.28,3.35a2.51,2.51,0,0,0,0-1.43c-5.81,1.15-4.63,2.95-1.19-4.45,1.68.93.58,3.78.73-4-.39.24-7.29,7.66-5.11,2.16,1.09,1.13.78-2.36,3.48-.94-1.5.47,6.18-15.11-1.5-7.1.7-1.18-6,8.47-1.57-2.84,7.79-7.06-8.9,2.42-3.5-3.85,1.24-1.26,1.56,0,5.13-7.13-1.22-2-15.84,13.1-4.34-3-1.25-1.32.56.68,1-3.25-4.34,2.64-8.31,7.43-8.86-1.82,1.83-.43,3.53-.51,5.25-1.37-1.27-.29-2.28.17-3.27-.19,9.46-19.85-10.3,9.45-1.09-14.41-3.18,2.28-.25-1.11-1.26-3.52,0,.28-11.23,8.47-1.49-2.93-1.27.36-2.06,1.15-3.15,1.22,2-5.67-.43-3.25,1.9-9.38a10.84,10.84,0,0,1-5.2,3c1-2.74,1.88-5.42,3.94-7.58.59-1.32-8.47,7.58-2.15-2.4-1.47-.15.58,1-4.28,2.2,2.78,8-9.17,5-.11,14.6-2.26.67-2.93-1.85-4.73-2.05,1.21,1.66,3.12,8.21-2.19,4.65.56,1.95-.63,2.9-2.3,3.62l4.66.22c.21.25-9.14,5.77-1.45,2.67,2.06-.8,6.45,6.57-2.36,2.66-3.19,6.16-.62-2.74-3.32-4.25-9,7.59-5.93,3.19-3.27-7.42-3.94,1.85-1.28.74-1.43-4.2-2.42,1.79-12.86,10.24-2.33-3.3-.14,1.47-9.65,2.13-4.92.92,5.79-5.77.85-.22,4-10.8-3.44,4-10.22,5.49-1.42-5.09-1.49-.89-10.17,8.3-2.71-3-1.94-.17-1.21,2.65-5.22,2.58,0,1.37.3,13.4-5.51,8.09,1.09,2.76.51,2.53,5.42,9.3-1.46-.43-.07.81-5.72-2.63,1.2,1.86,3.75,10-2.5,5.55-1,.59,2.16,1.48-3.1,4.26,2-.14,3.84.46,5.79.24-.4,1.53-9.78,4.84-2.84,4.38.67-4.23,12.06,5.33-2,2.59.83,1.92,11.2,8.41,1.13,3.12-4.19-4.16-9.42-2.44-1.76-9.71-8,1.34-5.92,1.42-1.34-7.14-8.84,2.4-1.66,1.69-.5-9.3-.44.26-8.06,8.45-5.65,2.37,1.21,1.25.86-2.6,3.85-1-1.66.52,6.83-16.7-1.67-7.84.78-1.31-6.62,9.35-1.73-3.14,1.89-.89,4.55-8.62-4.39-.63-.85.13-3.5-.39.52-3.63.92-1.37,1.14,1.15,5.67-7.88-1.35-2.2-17.5,14.48-4.79-3.35-1.16-2,.53.3,1.13-3.59-4.79,2.92-9.17,8.21-9.78-2,2-.46,3.89-.55,5.79-1.51-1.39-.32-2.51.19-3.61-.21,10.46-21.94-11.38,10.45-1.2-15.92-3.52,2.51-.28-1.23-1.39-3.89,0,.3-12.42,9.36-1.65-3.23-1.41.38-2.28,1.26-3.48,1.33,2.24-6.23-.19-3.61,2.09-10.36a11.83,11.83,0,0,1-5.74,3.33c1.08-3,2.08-6,4.36-8.38.64-1.46-9.37,8.38-2.38-2.65-1.63-.17.64,1.1-4.73,2.43,3.07,8.8-10.14,5.55-.12,16.13-2.5.75-3.24-2-5.23-2.26,1.34,1.83,3.45,9.07-2.42,5.14.62,2.15-.7,3.21-2.55,4l5.16.24c-1.55,3-8.91,2.57.63,4,3.3,6.94-2.07-1.46-5.89,4.45-3.66-15.89-3,2.42-11.53-4.57.36-.91,4.52,1.52,5.29-10.88-4.35,2.06-1.41.82-1.58-4.64-2.67,2-14.2,11.32-2.57-3.64-.9,2.41-11.62,1.25-4.23,1.21,5.3-7.49-1-3,3.19-12.13-7.55,6.24-7.48,3.52-2.69-5.54-1.81,1.08-9.43,8-1.87-3.38-1.73-.48-3.25,4.43-5.77,2.86.14.4,0,15.66-6.09,8.93,1.14,2.78.26,2.41,6,10.28-1.62-.47-.08.9-6.32-2.91,1.32,2.06,4.14,11.09-2.77,6.13-1.11.66,2.39,1.64-3.42,4.72,2.16-.16,4.24.51,6.4.26-.45,1.69-10.82,5.35-3.14,4.84.73-4.68,13.33,5.89-2.16,2.86,5.61,4.13,10.23,11.28-4.42-.48.21,1-.31,6.42,3,4.18,2.71,7.1-8.32-1.52,1.22,10.19l1-1.09c.93.49.15,6.71-10.31-.27,1.32-.52.12.63,4.93-1.45h-3.81c5.27-10.24,4.39-6.13-6.73-6.68a.9.9,0,0,0,.19-.15.39.39,0,0,0-.11-.06c1.41.1,3.54-1.26,5.18-2.95.33-.36,1-1.29,5.78-6.41-2.34-.38-6.73,3.83-.86-4.56-5,1-.87.39-.32-6-.28.17-5.15,5.4-3.61,1.52.91.61,0-1.09,2.46-.66,5.14-12.11-6.16,1.66-2.17-7,4.45-7-9,5.47,1.15-7.76-2.49-.35-10.6,8.42-3.06-2.14-.89-.93.39.48.72-2.3-1,.05-6,6.42-6.25-1.28a15.29,15.29,0,0,0,3.7-1c-.89-.21-1.6.12-2.31-.13,5.82-10.46-5.6,3.37-.76-10.18.69-4.78-8,3.38-1.95-4.55-.89.25-1.45.81-2.22.85,1.54-3.58-.43-2.34,1.34-6.62a7.62,7.62,0,0,1-3.68,2.13,14.26,14.26,0,0,1,2.79-5.36c.41-.93-6,5.36-1.52-1.69-1-.11.41.7-3,1.55,1.94,5.54-6.61,3.47-.08,10.31-1.6.48-2.07-1.3-3.34-1.45.79,1.06,2,5.74-1.55,3.29.4,1.38-.44,2.05-1.62,2.56l3.29.15c-2.08,2.71-5.57,1.65.4,2.55.44.57,1.65,3.78-5.13,1.08,2.68-6.45-3.8,2.53-6-1.16,1.31-1.19,3.11.57,3.38-6.95-.12-.11-2.1,2-1.62-.38,3.21-5.32-8.66,4.32-1-4.91.52.71-6.8,1.52-3.48.65,4.28-4,.38-.55,2.81-7.63-2.42,2.84-7.21,3.88-1-3.59-1-.63-7.18,5.85-1.91-2.11-1.22-.21.33,1.18-3.69,1.82.29.86.17,9.33-3.89,5.71.77,2,.36,1.79,3.83,6.57-1-.3,0,.58-4-1.85.68,1.09,2.47,7-1.77,3.92-.71.41,1.52,1-2.19,3,1.38-.1,2.71.32,4.09.16-9.46,3.1,9.88,4.09-3.38,4.93,4,3,6.22,7-2.83-.31.19-.15-1,2.86,1.91,2.67,1.11,4.7-5.42-.69.77,6.51l.66-.69c3.59,3.45-8.37-.39-2.94,2.81-2.19,1.24-4.61,2-4.27-2.91,1.08-.33.09.43,3.77-1h-2.44c2.88-6.43,3.47-3.83-4.41-4.43,2.41-.49,3.46-.22,3.45-5.79l-1,.79c2.48-6.68-8.21,2.94-1.09-5.32-7,3.37,4.58-9.14-5.13-3.65-1.17-1.47,8.14-7.6-.37-4.18,3.55-2.24-1.29-4.37-.5.15-2.81,0-.35,6.94-4.34,3.34.13,2.37,2.07,3.73,3.38,5.44-1.77.56-2.38-1.25-3.74-1.37.81.94,2.16,5.84-1.5,3.29.18-1,0,0,1.24-2.21-1.15-.52,0-.06-2.38.59-.91.14-12.42,10.77-2-3.62-1.25-1.32.56.68,1-3.25-4.34,2.64-8.3,7.43-8.85-1.82,1.83-.43,3.52-.51,5.24-1.37-1.26-.29-2.27.17-3.26-.19,9.46-19.85-10.3,9.45-1.09-14.41-3.18,2.28-.25-1.11-1.26-3.52,0,.28-11.24,8.47-1.49-2.92-1.27.35-2.06,1.14-3.15,1.21,2-5.67-.43-3.25,1.89-9.38a10.89,10.89,0,0,1-5.2,3c1-2.75,1.89-5.43,4-7.59.58-1.32-8.48,7.58-2.15-2.4-1.47-.15.58,1-4.28,2.2,2.78,8-9.18,5-.11,14.6-2.27.67-2.93-1.85-4.73-2,1.21,1.66,3.12,8.21-2.19,4.65.55,2-.63,2.9-2.31,3.62l4.67.22c-9.84,5.07,5.39,1.15-.19,6.17-2.34-3.44-5,6.79-6.94-5.08-9,7.58-5.94,3.18-3.28-7.43-3.94,1.85-1.27.74-1.43-4.2-2.41,1.79-12.85,10.24-2.32-3.3-.14,1.47-9.65,2.14-4.92.92,5.79-5.77.85-.22,4-10.8-3.43,4-10.21,5.49-1.42-5.09-1.48-.9-10.17,8.32-2.7-3-1.94-.17-1.22,2.65-5.22,2.58,0,1.37.3,13.4-5.51,8.09,1.08,2.76.51,2.53,5.42,9.3-1.47-.43-.07.81-5.72-2.63,1.2,1.86,3.75,10-2.51,5.55-1,.59,2.17,1.48-3.09,4.26,2-.14,3.84.46,5.79.24-2,1.18-8.88,6.92-1.79,3.21,1.61-1.78,8.89,8.39-2,3.1-2.77.87,12.51,12.81-5,.22.19.9-.27,5.81,2.7,3.79,2.31,6.27-7.46-1.11,1.1,9.22l.93-1c1.33,2.62.21,3-6.55-.82.7-.22.63.1,1.68-.74-10.55.33,12.07-9.35-9.7-6.28,4.56-1.45,4.54-.25,4.89-8.2l-1.37,1.12c4.39-11.37-13.09,6.87-1.53-7.53-9.11,3.71,5.41-12.29-7.27-5.17-2-1.43,11.68-10.93-.52-5.92,6.91-5.83-2.79-4.7-.71.21-3.79-.31-.71,7.76-4.48,6,2.82-7.84-4,3.87-7-.35,1.4-3,3.55-1.41,7.54-10.11-1.35-2.22-17.64,14.59-4.83-3.39-1.16-2,.54.31,1.15-3.61-4.84,2.94-9.26,8.28-9.87-2,2-.48,3.93-.57,5.84-1.53-1.4-.33-2.53.19-3.64-.21,10.55-22.13-11.48,10.53-1.21-16.06-3.55,2.54-.28-1.24-1.41-3.92,0,.31-12.52,9.44-1.66-3.26-1.41.39-2.29,1.27-3.5,1.35,2.25-6.28-.19-3.65,2.1-10.45a12.07,12.07,0,0,1-5.79,3.36c1.09-3.06,2.1-6.05,4.4-8.46.65-1.46-9.45,8.46-2.4-2.67-1.64-.17.64,1.12-4.77,2.45,3.1,8.88-10.22,5.59-.12,16.27-2.53.75-3.26-2.06-5.27-2.28,1.35,1.85,3.48,9.14-2.44,5.18.62,2.17-.71,3.23-2.57,4l5.19.25c-8,7-.81-1.52,1.89,7.14-.57,1.42-5.63-4-7.19,1.37-3.68-16-3,2.44-11.62-4.61.36-.92,4.55,1.53,5.33-11-4.39,2.07-1.42.83-1.59-4.68-2.69,2-14.33,11.42-2.59-3.67-2,.52-12.68,6.87-.63-4.19-3.82-4.07-4.94,3.95-.43-6.83-7.61,6.3-7.53,3.56-2.71-5.58-1.82,1.09-9.5,8-1.88-3.41-1.74-.48-3.28,4.47-5.82,2.88.52,4.47-1.51,13.23-5.47,9.25a2.44,2.44,0,0,0-.68-.24c-6.95,5.56-5.11,4.28-2-7.7-3.55,2.54-.28-1.24-1.41-3.92,0,.3-12.52,9.44-1.66-3.26-1.42.39-2.3,1.27-3.51,1.35,2.26-6.29-.19-3.65,2.11-10.45a12.12,12.12,0,0,1-5.79,3.36c1.09-3.06,2.09-6.05,4.39-8.46.66-1.47-9.44,8.45-2.39-2.67-1.64-.17.64,1.11-4.78,2.45,3.1,8.88-10.22,5.59-.12,16.27-2.52.75-3.26-2.06-5.27-2.29,1.35,1.86,3.48,9.15-2.44,5.19.62,2.17-.7,3.23-2.57,4l5.2.25c-.67,1.09.07-.1-7.17,4.83-.67-.3,3.56-2.72-.42-4-.05-2.36-.1-2.36-1.67-1.92a4.32,4.32,0,0,0,1.53,2c-.26.13-.08.57-.85,1-9.79,7.4-6.2,3.32-3-9-4.39,2.07-1.42.82-1.6-4.68-2.69,2-14.32,11.42-2.59-3.67-2,.52-12.67,6.86-.62-4.19-3.83-4.08-4.95,4-.43-6.83-7.61,6.3-7.54,3.55-2.71-5.58-1.82,1.08-9.5,8-1.89-3.41-1.74-.48-3.27,4.47-5.81,2.88.13.41,0,15.8-6.15,9,1.15,2.81.26,2.43,6,10.37-2.89-.43-1.32.18-6.37-2.93,1.34,2.07,4.18,11.18-2.79,6.18-1.12.66,2.41,1.65-3.45,4.75,2.18-.16,4.28.51,6.45.26-.45,1.71-10.9,5.4-3.16,4.88.74-4.71,13.44,6-2.18,2.89,5.65,4.17,10.32,11.37-4.46-.48.21,1-.31,6.47,3,4.21,2.73,7.17-8.4-1.53,1.22,10.28l1-1.1c4.91,5.17-13.49-.06-4.63,4.44-.69-1-6.77,7.68-6.74-4.59,1.24-.45,2.39.28,5.95-1.59h-3.84c1-1.25,5.63-7.86,2-9-.83.63-4.73,6.48-9,2,5.28-1.3,4.84-1.08,5.45-9.14l-1.52,1.25c-1.86-3.4,5.22-8-6.23-1.39a1.67,1.67,0,0,1,.87-.6,1.62,1.62,0,0,0-1.66,0c0-2,2.62-1.34,5.31-6.4-10.15,4.13,6-13.7-8.1-5.77-2.29-1.59,13-12.17-.58-6.59,7.69-6.5-3.11-5.24-.8.23-.7.14-1,.75-1.43,1.17-7.83,2.33-8,7.71-4-6.71-3.18,2.28-.25-1.11-1.26-3.52,0,.28-11.24,8.47-1.49-2.92-1.27.35-2.06,1.14-3.15,1.21,2-5.67-.43-3.25,1.89-9.38a10.89,10.89,0,0,1-5.2,3c1-2.75,1.89-5.43,4-7.59.58-1.32-8.48,7.58-2.15-2.4-1.47-.15.58,1-4.28,2.2,2.78,8-9.18,5-.11,14.6-2.27.68-2.93-1.85-4.73-2,1.21,1.66,3.12,8.21-2.19,4.65.55,1.95-.63,2.9-2.3,3.62l4.66.22c.2.25-9.15,5.77-1.46,2.67,2.06-.79,6.46,6.57-2.36,2.66-3.18,6.16-.61-2.73-3.31-4.24-9,7.59-5.94,3.19-3.28-7.43-3.94,1.86-1.27.74-1.43-4.2-2.41,1.79-12.85,10.24-2.32-3.3-.14,1.47-9.65,2.14-4.92.92,5.79-5.77.85-.22,4-10.8-3.43,4-10.21,5.49-1.42-5.09-1.48-.9-10.17,8.32-2.7-3-1.94-.17-1.22,2.65-5.22,2.58,0,1.37.3,13.4-5.51,8.09,1.08,2.76.51,2.53,5.42,9.3-1.47-.42-.07.81-5.72-2.63,1.2,1.86,3.75,10-2.51,5.55-1,.59,2.17,1.48-3.09,4.26,1.95-.14,3.84.46,5.79.24-2,1.18-8.88,6.92-1.78,3.21,1.6-1.78,8.88,8.39-2,3.1-2.77.87,12.51,12.81-5,.23.19.89-.27,5.8,2.7,3.78,2.31,6.28-7.46-1.11,1.1,9.22l.93-1c1.39,1.56-1.51,5.08-10.21-.13,1.53-.47.13.6,5.34-1.43H367.6c4.72-9.48,3.76-5.11-6.25-6.28,4.56-1.45,4.54-.25,4.89-8.2l-1.37,1.12c4.4-11.37-13.09,6.87-1.53-7.53-9.11,3.71,5.41-12.29-7.27-5.17-2.05-1.43,11.68-10.93-.52-5.92,6.91-5.83-2.79-4.7-.71.21-4.22-.15-.09,10.38-6.14,4.73,3.78,2.07-12.86,14.07-1.23-1-1.26-1.32.55.68,1-3.25-4.34,2.64-8.3,7.43-8.85-1.82,1.83-.43,3.52-.51,5.24-1.37-1.26-.29-2.27.17-3.27-.19,9.46-19.85-10.3,9.45-1.08-14.41-3.19,2.28-.25-1.11-1.26-3.52,0,.28-11.24,8.47-1.49-2.93-1.28.36-2.06,1.15-3.15,1.22,2-5.67-.44-3.25,1.89-9.38a10.8,10.8,0,0,1-5.2,3c1-2.74,1.88-5.42,3.95-7.58.58-1.32-8.48,7.58-2.15-2.4-1.48-.15.57,1-4.29,2.2,2.78,8-9.17,5-.11,14.6-2.26.67-2.92-1.85-4.73-2,1.22,1.66,3.13,8.21-2.18,4.65.55,2-.64,2.9-2.31,3.62l4.66.22c-9.83,5.07,5.4,1.14-.19,6.17-2.34-3.45-5,6.79-6.93-5.08-9,7.58-5.94,3.18-3.28-7.43-3.94,1.85-1.27.74-1.43-4.2-2.41,1.79-12.85,10.24-2.32-3.3-.15,1.47-9.66,2.13-4.93.92,5.8-5.77.86-.22,4-10.8-3.43,4-10.22,5.49-1.42-5.09-1.48-.91-10.18,8.33-2.7-3-1.95-.17-1.22,2.65-5.22,2.58,0,1.37.29,13.4-5.52,8.09,1.09,2.76.52,2.53,5.43,9.3-1.47-.43-.07.81-5.73-2.63,1.21,1.86,3.75,10-2.5,5.55-1,.59,2.16,1.48-3.09,4.26,1.95-.14,3.83.46,5.79.24-2,1.18-8.89,6.92-1.79,3.21,1.6-1.79,8.89,8.39-2,3.1-2.77.87,12.52,12.81-5,.22.19.9-.28,5.81,2.7,3.79,2.31,6.27-7.46-1.11,1.1,9.22l.92-1c5.09,4.88-11.85-.55-4.15,4-1.5.74-5.05,2.9-6.06-4.12,1.54-.48.13.6,5.34-1.43h-3.44c4.71-9.48,3.76-5.11-6.25-6.28,4.56-1.45,4.53-.25,4.89-8.2L279,57.43c4.39-11.38-13.09,6.87-1.53-7.53-9.11,3.71,5.41-12.29-7.27-5.18-2.05-1.42,11.67-10.92-.52-5.91,6.91-5.83-2.79-4.7-.72.21-4.21-.16-.08,10.38-6.13,4.73.18,3.36,2.92,5.29,4.78,7.71-2.51.79-3.37-1.77-5.29-1.94,4.43.91-7.37,15.86-.59-3.06-3.19,2.28-.26-1.12-1.27-3.52,0,.28-11.23,8.47-1.49-2.93-1.27.36-2.06,1.15-3.14,1.21,2-5.66-.44-3.24,1.89-9.37a10.8,10.8,0,0,1-5.2,3c1-2.74,1.88-5.43,3.95-7.59.58-1.31-8.48,7.59-2.16-2.4-1.47-.14.58,1-4.28,2.2,2.78,8-9.17,5-.11,14.6-2.26.68-2.92-1.84-4.73-2.05,1.22,1.67,3.13,8.21-2.19,4.66.56,1.95-.63,2.9-2.3,3.62l4.66.22c-9.84,5.07,5.4,1.14-.19,6.16-2.34-3.44-5,6.8-6.94-5.07-9,7.58-5.93,3.18-3.27-7.44-3.94,1.86-1.27.74-1.43-4.19-2.41,1.79-12.85,10.24-2.33-3.3-.14,1.47-9.65,2.13-4.92.92,5.79-5.78.85-.23,4-10.81-3.44,4-10.22,5.5-1.42-5.08-1.49-.9-10.18,8.31-2.7-3-2-.17-1.22,2.65-5.23,2.58,0,1.36.3,13.4-5.51,8.09,1.09,2.76.51,2.53,5.42,9.3-1.46-.43-.07.81-5.72-2.63C215,35,219.38,40,215,40.75a3.14,3.14,0,0,0,.22-2.35c-4.84,4.36,3.38-8-3.93-1.37a2.13,2.13,0,0,0-1.1-1.13,2.16,2.16,0,0,0,.24,1.7c-3.45.77-1.39-1,2-5.64-1.28.35-2.06,1.14-3.15,1.21,2-5.67-.44-3.25,1.89-9.38a10.82,10.82,0,0,1-5.2,3c1-2.75,1.88-5.43,4-7.59.58-1.32-8.48,7.58-2.15-2.4-1.48-.15.57,1-4.29,2.2,2.78,8-9.17,5-.11,14.6-2.26.68-2.92-1.85-4.73-2,5.11,7.2-3.3,4.73-3.07,3.91.59-2.08,3.74-4.92-1.11-2.2-.73,1,0,.08-3.17,1.36-2.05-1.42,11.67-10.92-.52-5.91,6.9-5.84-2.79-4.7-.72.21-1,.1.18.22-2.57,1.88.76-3.9-.67,1.23-7.65,2.65-.88-1,1-.24,4.83-7.24-.15,1.46-9.66,2.13-4.93.91,5.8-5.77.86-.22,4-10.8-3.43,4-10.22,5.49-1.42-5.09-1.49-.9-10.17,8.31-2.7-3-1.95-.16-1.22,2.65-5.22,2.59,0,1.36.29,13.39-5.52,8.08,1.09,2.76.52,2.53,5.43,9.3-1.47-.42-.07.81-5.73-2.63,1.2,1.86,3.75,10-2.5,5.55-1,.59,2.16,1.48-3.09,4.26,1.95-.14,3.83.47,5.79.24-2,1.19-8.89,6.92-1.79,3.21,1.6-1.78,8.89,8.39-2,3.11-2.77.86,12.52,12.8-5,.22.19.89-.28,5.8,2.7,3.78a22.68,22.68,0,0,0,.29,2.7l-4.3-.51c1.78-8-.69,1.92-8.53-1.79,4.56-1.46,4.53-.26,4.89-8.21l-1.37,1.12c4.39-11.37-13.09,6.87-1.53-7.53-9.11,3.71,5.41-12.29-7.27-5.17-2.05-1.43,11.67-10.93-.52-5.92,6.9-5.83-2.79-4.7-.72.21-4.21-.15-.08,10.38-6.13,4.73,2.58,2-11.76,10.44-1-1.3-1.27.35-2.06,1.14-3.15,1.21,2-5.67-.43-3.25,1.89-9.38a10.91,10.91,0,0,1-5.19,3c1-2.75,1.88-5.43,3.94-7.59.59-1.32-8.48,7.58-2.15-2.4-1.47-.15.58,1-4.28,2.2,2.78,8-9.18,5-.11,14.6-2.27.68-2.93-1.85-4.73-2,1.21,1.66,3.12,8.21-2.19,4.65.56,1.95-.63,2.9-2.3,3.62l4.66.22c-9.84,5.07,5.39,1.15-.19,6.17-2.34-3.44-5,6.79-6.94-5.08-9,7.59-5.94,3.19-3.28-7.43-3.94,1.86-1.27.74-1.42-4.2-2.42,1.79-12.86,10.24-2.33-3.29-.14,1.46-9.65,2.13-4.92.91,5.79-5.77.85-.22,4-10.8-3.44,4-10.22,5.49-1.42-5.09-1.49-.9-10.19,8.32-2.71-3-1.94-.16-1.21,2.65-5.22,2.58,0,1.37.3,13.4-5.51,8.09,1.08,2.76.51,2.53,5.42,9.3-1.47-.42-.07.81-5.72-2.63,1.2,1.86,3.75,10-2.51,5.55-1,.59,2.17,1.48-3.09,4.26,2-.14,3.84.47,5.79.24-2,1.19-8.88,6.92-1.78,3.21,1.6-1.78,8.88,8.39-2,3.11-2.77.86,12.51,12.8-5,.22.2.89-.27,5.8,2.7,3.78,2.28,5.67-6.22-.4-.19,8.08-1.47-.43-3.13,1.28-8,0,1.53-.47.13.6,5.34-1.43H80.43c9.24-18-9.62,7.64-1.36-14.48L77.7,31.64c4.4-11.37-13.08,6.87-1.53-7.53-9.11,3.71,5.41-12.29-7.27-5.17C66.85,17.51,80.58,8,68.38,13c6.91-5.83-2.79-4.7-.71.21-.31.32-3.81,1.66-2.63,4.1-3.54,2.41-2.5-1.46.1-5.28a13.26,13.26,0,0,1,.91-1.1c-2.09.81-7.6,5.85-2.15-2.39-1.47-.15.58,1-4.28,2.19,2.78,8-9.17,5-.11,14.6-2.26.68-2.93-1.84-4.73-2C56,25,57.9,31.51,52.59,28c.56,1.95-.63,2.9-2.3,3.62L55,31.8c-9.84,5.07,5.39,1.14-.19,6.17-2.34-3.45-5,6.79-6.94-5.08-9,7.58-5.94,3.18-3.27-7.44-3.94,1.86-1.28.74-1.43-4.19C40.7,23.05,30.26,31.5,40.79,18c-.14,1.47-9.65,2.13-4.92.92,5.79-5.78.85-.23,4-10.8-3.44,4-10.22,5.49-1.42-5.09-1.49-.9-10.18,8.31-2.71-3-1.94-.17-1.21,2.65-5.22,2.58,0,1.36.3,13.4-5.51,8.09,1.09,2.76.51,2.53,5.42,9.3-1.46-.43-.07.81-5.72-2.63,1.2,1.86,3.75,10-2.5,5.55-1,.59,2.16,1.48-3.1,4.26,2-.14,3.84.46,5.79.24-2,1.18-8.88,6.91-1.78,3.21,1.6-1.79,8.88,8.38-2,3.1-2.77.87,12.51,12.81-5,.22.19.9-.28,5.81,2.69,3.78,2.31,6.28-7.45-1.1,1.11,9.22l.92-1c5.09,4.88-11.85-.55-4.15,4-2.13.92-6.69,4.19-6.06-4.12,1.53-.48.13.59,5.34-1.43H12.49c4.72-9.48,3.77-5.11-6.25-6.28,4.56-1.45,4.54-.25,4.89-8.2L9.77,31c4.39-11.38-13.1,6.87-1.54-7.53C-8.82-42,6.75,795,1.66,790.43c616.68,0,1861.22.06,2478.38.05ZM1326,611.49a1.7,1.7,0,0,0-.2.73,5.37,5.37,0,0,0-.91-.51C1325.25,611.62,1325.62,611.55,1326,611.49Zm0,4.89c-.16.81-1.61-1.69-.77-1.83C1325.54,615,1325.43,615.1,1326,616.38Zm.57-6a.81.81,0,0,1,.36-.45,5.3,5.3,0,0,1,.33.57A2,2,0,0,1,1326.6,610.35Zm4.24,1.79c-.79,1-2.79-.73.84-.66A6.59,6.59,0,0,1,1330.84,612.14Zm1.15.45-.07,0c.26-.19-.37-1.3,1.45-1.07A2.73,2.73,0,0,1,1332,612.59Zm8.49-13.36a3.91,3.91,0,0,1,1.19-2.47c1.13.61-.68,2.66,1.33,2.88a12.64,12.64,0,0,1-3.52,1.43C1339.85,600.43,1340.44,599.94,1340.48,599.23Zm1.74,3.07c-.08-.57,0-.38,1.56-2.2.83,1.81,4.41.11.77,1.93C1344.66,601.07,1343.88,602,1342.22,602.3Zm2.23,3.12c-1.51.73-3.45.07,0-2.93a11.5,11.5,0,0,0,3.46.34Z"/>
</svg>
