<svg xmlns="http://www.w3.org/2000/svg" xmlns:xlink="http://www.w3.org/1999/xlink" viewBox="0 0 92.75 38.79"><defs><style>.cls-1{fill:url(#linear-gradient);}.cls-2{fill:url(#linear-gradient-2);}.cls-3{fill:url(#linear-gradient-3);}.cls-4{fill:url(#linear-gradient-4);}.cls-5{fill:url(#linear-gradient-5);}</style><linearGradient id="linear-gradient" x1="46.37" x2="46.37" y2="31.43" gradientUnits="userSpaceOnUse"><stop offset="0" stop-color="#c7c8ca"/><stop offset="0.02" stop-color="#c0c0c2"/><stop offset="0.15" stop-color="#979195"/><stop offset="0.28" stop-color="#73696d"/><stop offset="0.41" stop-color="#56484d"/><stop offset="0.55" stop-color="#402e35"/><stop offset="0.69" stop-color="#301c23"/><stop offset="0.83" stop-color="#261218"/><stop offset="1" stop-color="#230e15"/></linearGradient><linearGradient id="linear-gradient-2" x1="16.06" y1="24.5" x2="16.06" y2="38.79" xlink:href="#linear-gradient"/><linearGradient id="linear-gradient-3" x1="70.32" y1="24.5" x2="70.32" y2="38.79" xlink:href="#linear-gradient"/><linearGradient id="linear-gradient-4" x1="26.33" y1="6.07" x2="44.92" y2="6.07" gradientUnits="userSpaceOnUse"><stop offset="0" stop-color="#0085cd"/><stop offset="0.17" stop-color="#379fd8"/><stop offset="0.35" stop-color="#69b7e2"/><stop offset="0.49" stop-color="#88c6e8"/><stop offset="0.57" stop-color="#94ccea"/><stop offset="0.67" stop-color="#69b7e1"/><stop offset="0.83" stop-color="#319ad5"/><stop offset="0.94" stop-color="#0d89ce"/><stop offset="1" stop-color="#0082cb"/></linearGradient><linearGradient id="linear-gradient-5" x1="46.9" y1="6.25" x2="56.4" y2="6.25" xlink:href="#linear-gradient-4"/></defs><title>truck_2</title><g id="Layer_2" data-name="Layer 2"><g id="City"><path class="cls-1" d="M61.71,31.43h-37c-1.25-4.59-3.62-8-8.93-7.8-4.92.17-7,3.43-8.14,7.78H2.08C-1.14,29,0,27.29,1.45,25.22c.52-.72.13-12.61,1-13C6.52,10.67,23.13,11,24,9.77,31.2-1.23,40.76.05,50.11.05c11.75,0,7.7,2.85,8.37,10.32H92.75l-1.41,4.11c-.46,5.21.56,11-.58,16.88H78.69c-1-4.51-3.35-7.69-8.38-7.73S63,26.85,61.71,31.43ZM44.92,10.74V1.57c-7-1-17.35,3.42-18.59,9.17Zm2-.06h9.48c-.11-8.95,1.43-9-9.48-8.85Z"/><path class="cls-2" d="M23.18,31.65a7,7,0,0,1-7,7.14,7.15,7.15,0,0,1-.26-14.29A7,7,0,0,1,23.18,31.65Z"/><path class="cls-3" d="M63.15,31.82a7.11,7.11,0,0,1,7.13-7.32,7.36,7.36,0,0,1,7.21,7.1,7.41,7.41,0,0,1-7.12,7.19A7.12,7.12,0,0,1,63.15,31.82Z"/><path class="cls-4" d="M44.92,10.74V1.57A18.52,18.52,0,0,0,35.45,2.8C30.13,4.86,27,7.36,26.33,10.74Z"/><path class="cls-5" d="M56.38,10.68s0-4.62,0-6a2.27,2.27,0,0,0-.74-2.13,6.1,6.1,0,0,0-3-.74c-1,0-5.74,0-5.74,0v8.85Z"/></g></g></svg>