<svg xmlns="http://www.w3.org/2000/svg" xmlns:xlink="http://www.w3.org/1999/xlink" viewBox="0 0 260.05 61.75"><defs><style>.cls-1{fill:url(#linear-gradient);}</style><linearGradient id="linear-gradient" x1="137.63" y1="61.75" x2="137.63" gradientTransform="matrix(-1, 0, 0, 1, 267.65, 0)" gradientUnits="userSpaceOnUse"><stop offset="0" stop-color="#62b9e3"/><stop offset="0.12" stop-color="#76c1e6"/><stop offset="0.36" stop-color="#94ceeb"/><stop offset="0.58" stop-color="#aad7ef"/><stop offset="0.8" stop-color="#b7dcf1"/><stop offset="1" stop-color="#bcdef2"/></linearGradient></defs><title>waterfall--froth</title><g id="Layer_2" data-name="Layer 2"><g id="Waterfall_foothills" data-name="Waterfall/foothills"><path class="cls-1" d="M0,39A22.78,22.78,0,0,1,29.39,17.19,22.78,22.78,0,0,1,60.22,7.52,30.73,30.73,0,0,1,107.9,17.1,24,24,0,0,1,150,21.88a21.09,21.09,0,0,1,16.83-8.36,26,26,0,0,1,9.62,1.84C181.8,6.18,190.72,0,202.1,0a30.74,30.74,0,0,1,27.62,17.24A22.52,22.52,0,0,1,237.28,16a22.77,22.77,0,1,1,0,45.54h-211a23.42,23.42,0,0,1-7,0H18.1v-.22A22.78,22.78,0,0,1,0,39Z"/></g></g></svg>